<?xml version="1.0" encoding="utf-8" ?>
<svg baseProfile="full" height="11.0in" version="1.1" viewBox="0 0 612.0 792.0" width="8.5in" xmlns="http://www.w3.org/2000/svg" xmlns:ev="http://www.w3.org/2001/xml-events" xmlns:xlink="http://www.w3.org/1999/xlink"><defs /><g stroke="black" stroke-width="0.5" transform="translate(117.0, 135.0)"><path d="M 4.5600 4.5600 L 184.3200 4.5600 L 184.3200 256.3200 L 4.5600 256.3200 L 4.5600 4.5600 Z M 16.8000 160.3200 L 18.2400 161.7600 L 18.2400 162.0000 L 19.4400 163.2000 L 19.4400 163.4400 L 21.1200 165.1200 L 21.1200 165.3600 L 21.6000 165.8400 L 21.6000 166.0800 L 22.5600 167.0400 L 22.5600 167.2800 L 23.0400 167.7600 L 23.0400 168.0000 L 23.2800 168.2400 L 23.2800 168.4800 L 24.0000 169.2000 L 24.0000 169.4400 L 24.4800 169.9200 L 24.4800 170.1600 L 25.2000 170.8800 L 25.2000 171.1200 L 25.6800 171.6000 L 25.6800 171.8400 L 26.4000 172.5600 L 26.4000 172.8000 L 26.8800 173.2800 L 26.8800 173.5200 L 27.1200 173.7600 L 27.1200 174.0000 L 27.6000 174.4800 L 27.6000 174.7200 L 28.0800 175.2000 L 28.0800 175.4400 L 28.3200 175.6800 L 28.3200 175.9200 L 28.8000 176.4000 L 28.8000 176.6400 L 29.2800 177.1200 L 29.2800 177.3600 L 29.5200 177.6000 L 29.5200 177.8400 L 30.2400 178.5600 L 30.2400 178.8000 L 31.6800 180.2400 L 31.6800 180.4800 L 32.4000 181.2000 L 32.4000 181.4400 L 32.6400 181.6800 L 32.6400 181.9200 L 33.1200 182.4000 L 33.1200 182.6400 L 33.3600 182.8800 L 33.3600 183.1200 L 33.8400 183.6000 L 33.8400 183.8400 L 34.0800 184.0800 L 34.0800 184.3200 L 34.3200 184.5600 L 34.3200 184.8000 L 34.5600 185.0400 L 34.5600 185.2800 L 34.8000 185.5200 L 34.8000 186.0000 L 35.0400 186.2400 L 35.0400 186.7200 L 35.2800 186.9600 L 35.2800 187.4400 L 35.5200 187.6800 L 35.5200 187.9200 L 35.7600 188.1600 L 35.7600 188.6400 L 36.0000 188.8800 L 36.0000 189.3600 L 36.2400 189.6000 L 36.2400 189.8400 L 36.7200 190.3200 L 36.7200 190.5600 L 36.9600 190.8000 L 36.9600 191.0400 L 37.4400 191.5200 L 37.4400 191.7600 L 41.2800 195.6000 L 41.2800 195.8400 L 42.2400 196.8000 L 42.2400 197.0400 L 42.4800 197.2800 L 42.4800 198.0000 L 42.7200 198.2400 L 42.7200 198.9600 L 42.9600 199.2000 L 42.9600 199.4400 L 43.2000 199.6800 L 43.2000 199.9200 L 43.6800 200.4000 L 43.6800 200.6400 L 44.4000 201.3600 L 44.4000 201.6000 L 44.8800 202.0800 L 44.8800 202.3200 L 45.1200 202.5600 L 45.1200 202.8000 L 45.6000 203.2800 L 45.6000 203.5200 L 47.0400 204.9600 L 47.0400 205.2000 L 47.2800 205.4400 L 47.0400 205.6800 L 10.0800 205.6800 L 9.6000 205.2000 L 9.6000 168.0000 L 9.8400 167.7600 L 9.8400 167.5200 L 10.3200 167.0400 L 10.5600 167.0400 L 12.0000 165.6000 L 12.2400 165.6000 L 12.2400 165.3600 L 12.4800 165.1200 L 12.7200 165.1200 L 13.4400 164.4000 L 13.4400 164.1600 L 14.8800 162.7200 L 14.8800 162.4800 L 15.8400 161.5200 L 15.8400 161.2800 L 16.8000 160.3200 Z M 172.8000 154.8000 L 173.0400 154.5600 L 173.2800 154.5600 L 173.5200 154.8000 L 174.2400 154.8000 L 174.4800 155.0400 L 175.6800 155.0400 L 175.9200 155.2800 L 177.6000 155.2800 L 177.8400 155.0400 L 178.0800 155.2800 L 178.3200 155.2800 L 178.5600 155.0400 L 179.0400 155.0400 L 179.2800 155.2800 L 179.2800 205.2000 L 178.8000 205.6800 L 137.5200 205.6800 L 137.2800 205.4400 L 137.2800 205.2000 L 137.0400 204.9600 L 137.0400 204.4800 L 136.8000 204.2400 L 136.8000 203.7600 L 136.5600 203.5200 L 136.5600 202.5600 L 136.3200 202.3200 L 136.3200 202.0800 L 136.0800 201.8400 L 136.0800 201.3600 L 137.2800 200.1600 L 137.2800 199.9200 L 138.0000 199.2000 L 138.0000 198.9600 L 138.4800 198.4800 L 138.4800 198.2400 L 139.4400 197.2800 L 139.6800 197.2800 L 139.9200 197.0400 L 140.4000 197.0400 L 140.6400 196.8000 L 140.8800 196.8000 L 141.3600 196.3200 L 141.6000 196.3200 L 142.0800 195.8400 L 142.3200 195.8400 L 142.8000 195.3600 L 143.0400 195.3600 L 143.7600 194.6400 L 144.0000 194.6400 L 144.7200 193.9200 L 144.9600 193.9200 L 145.6800 193.2000 L 145.9200 193.2000 L 147.1200 192.0000 L 147.3600 192.0000 L 148.5600 190.8000 L 148.5600 190.5600 L 149.2800 189.8400 L 149.2800 189.6000 L 149.7600 189.1200 L 149.7600 188.8800 L 150.0000 188.6400 L 150.0000 188.4000 L 150.2400 188.1600 L 150.2400 187.9200 L 150.4800 187.6800 L 150.4800 187.4400 L 150.7200 187.2000 L 150.7200 186.7200 L 150.9600 186.4800 L 150.9600 186.0000 L 151.2000 185.7600 L 151.2000 185.5200 L 151.4400 185.2800 L 151.4400 185.0400 L 151.6800 184.8000 L 151.6800 184.5600 L 151.9200 184.3200 L 151.9200 184.0800 L 152.1600 183.8400 L 152.1600 183.6000 L 152.4000 183.3600 L 152.4000 183.1200 L 152.8800 182.6400 L 152.8800 182.4000 L 153.1200 182.1600 L 153.1200 181.9200 L 153.6000 181.4400 L 153.6000 181.2000 L 154.3200 180.4800 L 154.3200 180.2400 L 154.8000 179.7600 L 154.8000 179.5200 L 155.7600 178.5600 L 155.7600 178.3200 L 156.7200 177.3600 L 156.7200 177.1200 L 157.2000 176.6400 L 157.2000 176.4000 L 157.9200 175.6800 L 157.9200 175.4400 L 158.6400 174.7200 L 158.6400 174.4800 L 160.0800 173.0400 L 160.0800 172.8000 L 161.0400 171.8400 L 161.0400 171.6000 L 162.2400 170.4000 L 162.2400 170.1600 L 163.2000 169.2000 L 163.2000 168.9600 L 163.9200 168.2400 L 163.9200 168.0000 L 164.4000 167.5200 L 164.4000 167.2800 L 165.1200 166.5600 L 165.1200 166.3200 L 165.6000 165.8400 L 165.6000 165.6000 L 166.3200 164.8800 L 166.3200 164.6400 L 166.8000 164.1600 L 166.8000 163.9200 L 167.2800 163.4400 L 167.2800 163.2000 L 167.7600 162.7200 L 167.7600 162.4800 L 168.2400 162.0000 L 168.2400 161.7600 L 168.7200 161.2800 L 168.7200 161.0400 L 169.2000 160.5600 L 169.2000 160.3200 L 169.4400 160.0800 L 169.4400 159.8400 L 169.9200 159.3600 L 169.9200 159.1200 L 170.4000 158.6400 L 170.4000 158.4000 L 170.8800 157.9200 L 170.8800 157.6800 L 171.3600 157.2000 L 171.3600 156.9600 L 171.8400 156.4800 L 171.8400 156.2400 L 172.0800 156.0000 L 172.0800 155.7600 L 172.8000 155.0400 L 172.8000 154.8000 Z M 130.0800 146.1600 L 130.3200 145.9200 L 130.5600 146.1600 L 131.2800 146.1600 L 131.5200 146.4000 L 132.2400 146.4000 L 132.4800 146.6400 L 133.2000 146.6400 L 133.4400 146.8800 L 133.9200 146.8800 L 134.1600 147.1200 L 134.8800 147.1200 L 135.1200 147.3600 L 136.0800 147.3600 L 136.3200 147.6000 L 137.2800 147.6000 L 137.5200 147.8400 L 139.2000 147.8400 L 139.4400 148.0800 L 141.3600 148.0800 L 141.6000 148.3200 L 143.0400 148.3200 L 143.2800 148.5600 L 144.9600 148.5600 L 145.2000 148.8000 L 145.6800 148.8000 L 145.9200 149.0400 L 146.6400 149.0400 L 146.8800 149.2800 L 147.6000 149.2800 L 147.8400 149.5200 L 148.8000 149.5200 L 149.0400 149.7600 L 150.0000 149.7600 L 150.2400 150.0000 L 151.2000 150.0000 L 151.4400 150.2400 L 152.4000 150.2400 L 152.6400 150.4800 L 153.8400 150.4800 L 154.0800 150.7200 L 154.8000 150.7200 L 155.0400 150.9600 L 155.2800 150.9600 L 155.5200 151.2000 L 155.5200 151.4400 L 155.2800 151.6800 L 155.2800 151.9200 L 155.0400 152.1600 L 155.0400 152.4000 L 154.8000 152.6400 L 154.8000 152.8800 L 154.5600 153.1200 L 154.5600 153.3600 L 154.0800 153.8400 L 154.0800 154.0800 L 153.8400 154.3200 L 153.8400 154.5600 L 153.6000 154.8000 L 153.6000 155.0400 L 153.3600 155.2800 L 153.3600 155.5200 L 152.8800 156.0000 L 152.8800 156.2400 L 152.4000 156.7200 L 152.4000 156.9600 L 151.9200 157.4400 L 151.9200 157.6800 L 151.2000 158.4000 L 151.2000 158.6400 L 150.7200 159.1200 L 150.7200 159.3600 L 150.4800 159.6000 L 150.4800 159.8400 L 150.2400 160.0800 L 150.2400 160.3200 L 149.7600 160.8000 L 149.7600 161.0400 L 149.5200 161.2800 L 149.5200 161.5200 L 149.2800 161.7600 L 149.2800 162.0000 L 149.0400 162.2400 L 149.0400 162.4800 L 148.8000 162.7200 L 148.8000 162.9600 L 148.3200 163.4400 L 148.3200 163.6800 L 147.8400 164.1600 L 147.8400 164.4000 L 147.6000 164.6400 L 147.6000 164.8800 L 147.3600 165.1200 L 147.3600 165.3600 L 147.1200 165.6000 L 147.1200 165.8400 L 146.6400 166.3200 L 146.6400 166.5600 L 146.1600 167.0400 L 146.1600 167.2800 L 145.4400 168.0000 L 145.4400 168.2400 L 144.9600 168.7200 L 144.9600 168.9600 L 144.2400 169.6800 L 144.2400 169.9200 L 144.0000 170.1600 L 144.0000 170.4000 L 143.2800 171.1200 L 143.2800 171.3600 L 141.6000 173.0400 L 141.3600 173.0400 L 140.8800 173.5200 L 140.6400 173.5200 L 140.4000 173.7600 L 140.1600 173.7600 L 139.9200 174.0000 L 139.6800 174.0000 L 139.4400 174.2400 L 139.2000 174.2400 L 138.9600 174.4800 L 138.4800 174.4800 L 138.2400 174.7200 L 137.7600 174.7200 L 137.5200 174.9600 L 137.0400 174.9600 L 136.8000 175.2000 L 136.0800 175.2000 L 135.8400 175.4400 L 135.3600 175.4400 L 135.1200 175.6800 L 134.6400 175.6800 L 134.4000 175.4400 L 134.4000 174.9600 L 134.6400 174.7200 L 134.6400 173.7600 L 134.8800 173.5200 L 134.8800 172.0800 L 135.1200 171.8400 L 135.1200 170.6400 L 135.3600 170.4000 L 135.3600 168.4800 L 135.1200 168.2400 L 135.1200 167.7600 L 134.8800 167.5200 L 134.8800 165.8400 L 134.6400 165.6000 L 134.6400 164.6400 L 134.4000 164.4000 L 134.4000 163.4400 L 134.1600 163.2000 L 134.1600 162.4800 L 133.9200 162.2400 L 133.9200 161.5200 L 133.6800 161.2800 L 133.6800 160.0800 L 133.4400 159.8400 L 133.4400 159.1200 L 133.2000 158.8800 L 133.2000 158.1600 L 132.9600 157.9200 L 132.9600 156.7200 L 132.7200 156.4800 L 132.7200 155.7600 L 132.4800 155.5200 L 132.4800 154.3200 L 132.2400 154.0800 L 132.2400 153.6000 L 132.0000 153.3600 L 132.0000 152.8800 L 131.7600 152.6400 L 131.7600 151.6800 L 131.5200 151.4400 L 131.5200 150.9600 L 131.2800 150.7200 L 131.2800 150.0000 L 131.0400 149.7600 L 131.0400 149.0400 L 130.8000 148.8000 L 130.8000 148.3200 L 130.5600 148.0800 L 130.5600 147.1200 L 130.3200 146.8800 L 130.3200 146.6400 L 130.0800 146.4000 L 130.0800 146.1600 Z M 46.8000 132.9600 L 47.0400 132.9600 L 47.2800 133.2000 L 47.2800 133.4400 L 47.5200 133.6800 L 47.5200 134.1600 L 47.7600 134.4000 L 47.7600 134.6400 L 48.2400 135.1200 L 48.2400 135.6000 L 48.4800 135.8400 L 48.4800 136.0800 L 48.7200 136.3200 L 48.7200 136.8000 L 48.9600 137.0400 L 48.9600 141.1200 L 48.7200 141.3600 L 48.7200 146.4000 L 48.9600 146.6400 L 48.9600 148.0800 L 49.2000 148.3200 L 49.2000 149.2800 L 49.4400 149.5200 L 49.4400 151.9200 L 49.2000 152.1600 L 49.2000 153.1200 L 48.9600 153.3600 L 48.9600 154.5600 L 48.7200 154.8000 L 48.7200 156.2400 L 48.4800 156.4800 L 48.4800 158.4000 L 48.2400 158.6400 L 48.2400 160.5600 L 48.0000 160.8000 L 48.0000 162.0000 L 47.7600 162.2400 L 47.7600 165.3600 L 47.5200 165.6000 L 47.5200 169.9200 L 47.2800 170.1600 L 47.2800 173.2800 L 47.0400 173.5200 L 47.0400 173.7600 L 46.8000 174.0000 L 46.0800 174.0000 L 45.8400 173.7600 L 45.3600 173.7600 L 45.1200 173.5200 L 44.8800 173.5200 L 44.6400 173.2800 L 44.4000 173.2800 L 44.1600 173.0400 L 43.9200 173.0400 L 43.2000 172.3200 L 42.9600 172.3200 L 42.4800 171.8400 L 42.4800 171.6000 L 41.7600 170.8800 L 41.7600 170.6400 L 41.0400 169.9200 L 41.0400 169.6800 L 40.3200 168.9600 L 40.3200 168.7200 L 39.8400 168.2400 L 39.8400 168.0000 L 39.6000 167.7600 L 39.6000 167.5200 L 39.3600 167.2800 L 39.3600 167.0400 L 39.1200 166.8000 L 39.1200 166.5600 L 38.8800 166.3200 L 38.8800 166.0800 L 38.6400 165.8400 L 38.6400 165.6000 L 38.4000 165.3600 L 38.4000 164.8800 L 37.9200 164.4000 L 37.9200 164.1600 L 37.6800 163.9200 L 37.6800 163.6800 L 37.4400 163.4400 L 37.4400 163.2000 L 37.2000 162.9600 L 37.2000 162.7200 L 36.9600 162.4800 L 36.9600 162.2400 L 36.7200 162.0000 L 36.7200 161.7600 L 36.4800 161.5200 L 36.4800 161.2800 L 36.2400 161.0400 L 36.2400 160.8000 L 36.0000 160.5600 L 36.0000 160.3200 L 35.7600 160.0800 L 35.7600 159.8400 L 35.2800 159.3600 L 35.2800 159.1200 L 35.0400 158.8800 L 35.0400 158.6400 L 34.8000 158.4000 L 34.8000 158.1600 L 34.5600 157.9200 L 34.5600 157.6800 L 34.3200 157.4400 L 34.3200 157.2000 L 34.0800 156.9600 L 34.0800 156.7200 L 33.8400 156.4800 L 33.8400 156.2400 L 33.6000 156.0000 L 33.6000 155.7600 L 33.3600 155.5200 L 33.3600 155.2800 L 33.1200 155.0400 L 33.1200 154.8000 L 32.8800 154.5600 L 32.8800 154.3200 L 32.6400 154.0800 L 32.6400 153.8400 L 32.4000 153.6000 L 32.4000 153.3600 L 32.1600 153.1200 L 32.1600 152.8800 L 31.9200 152.6400 L 31.9200 152.1600 L 31.6800 151.9200 L 31.6800 151.4400 L 31.4400 151.2000 L 31.4400 150.7200 L 31.2000 150.4800 L 31.2000 150.0000 L 30.9600 149.7600 L 30.9600 149.2800 L 30.7200 149.0400 L 30.7200 147.6000 L 30.4800 147.3600 L 30.4800 146.4000 L 30.2400 146.1600 L 30.2400 145.9200 L 32.4000 143.7600 L 32.6400 143.7600 L 34.0800 142.3200 L 34.3200 142.3200 L 35.0400 141.6000 L 35.2800 141.6000 L 36.0000 140.8800 L 36.2400 140.8800 L 36.9600 140.1600 L 37.2000 140.1600 L 37.6800 139.6800 L 37.9200 139.6800 L 38.4000 139.2000 L 38.6400 139.2000 L 39.3600 138.4800 L 39.6000 138.4800 L 40.0800 138.0000 L 40.3200 138.0000 L 41.0400 137.2800 L 41.2800 137.2800 L 41.7600 136.8000 L 42.0000 136.8000 L 42.4800 136.3200 L 42.7200 136.3200 L 43.6800 135.3600 L 43.9200 135.3600 L 44.8800 134.4000 L 45.1200 134.4000 L 46.0800 133.4400 L 46.3200 133.4400 L 46.8000 132.9600 Z M 39.8400 110.1600 L 40.5600 110.1600 L 40.8000 110.4000 L 41.0400 110.4000 L 41.2800 110.6400 L 41.2800 110.8800 L 42.0000 111.6000 L 42.0000 112.3200 L 41.7600 112.5600 L 41.7600 112.8000 L 41.5200 113.0400 L 41.5200 113.2800 L 41.2800 113.5200 L 41.2800 113.7600 L 41.0400 114.0000 L 41.0400 114.2400 L 40.8000 114.4800 L 40.8000 114.7200 L 40.5600 114.9600 L 40.5600 115.2000 L 40.3200 115.4400 L 40.3200 116.1600 L 40.0800 116.4000 L 40.0800 116.8800 L 40.3200 117.1200 L 40.3200 118.0800 L 40.5600 118.3200 L 40.5600 118.8000 L 41.2800 119.5200 L 41.2800 120.2400 L 41.5200 120.4800 L 41.5200 120.7200 L 41.0400 121.2000 L 40.5600 121.2000 L 40.3200 121.4400 L 39.6000 121.4400 L 39.3600 121.6800 L 38.8800 121.6800 L 38.6400 121.9200 L 38.1600 121.9200 L 37.9200 122.1600 L 37.4400 122.1600 L 37.2000 122.4000 L 36.7200 122.4000 L 36.4800 122.6400 L 35.7600 122.6400 L 35.5200 122.8800 L 35.0400 122.8800 L 34.8000 123.1200 L 34.3200 123.1200 L 34.0800 123.3600 L 33.6000 123.3600 L 33.3600 123.6000 L 32.6400 123.6000 L 32.4000 123.8400 L 31.9200 123.8400 L 31.6800 124.0800 L 31.2000 124.0800 L 30.9600 124.3200 L 30.7200 124.3200 L 30.4800 124.5600 L 29.5200 124.5600 L 29.2800 124.8000 L 28.0800 124.8000 L 27.8400 125.0400 L 27.3600 125.0400 L 27.1200 124.8000 L 28.8000 123.1200 L 28.8000 122.8800 L 30.4800 121.2000 L 30.4800 120.9600 L 31.6800 119.7600 L 31.6800 119.5200 L 33.8400 117.3600 L 33.8400 117.1200 L 36.0000 114.9600 L 36.0000 114.7200 L 36.7200 114.0000 L 36.7200 113.7600 L 37.4400 113.0400 L 37.4400 112.8000 L 38.4000 111.8400 L 38.4000 111.6000 L 39.8400 110.1600 Z M 136.3200 104.4000 L 136.5600 104.1600 L 137.0400 104.1600 L 141.8400 108.9600 L 142.0800 108.9600 L 143.2800 110.1600 L 143.5200 110.1600 L 144.4800 111.1200 L 144.7200 111.1200 L 145.6800 112.0800 L 145.9200 112.0800 L 146.6400 112.8000 L 146.8800 112.8000 L 147.8400 113.7600 L 148.0800 113.7600 L 149.0400 114.7200 L 149.2800 114.7200 L 150.2400 115.6800 L 150.4800 115.6800 L 151.4400 116.6400 L 151.6800 116.6400 L 152.6400 117.6000 L 152.8800 117.6000 L 153.6000 118.3200 L 153.8400 118.3200 L 154.5600 119.0400 L 154.8000 119.0400 L 155.2800 119.5200 L 155.5200 119.5200 L 156.0000 120.0000 L 156.2400 120.0000 L 156.7200 120.4800 L 156.9600 120.4800 L 157.4400 120.9600 L 157.6800 120.9600 L 157.9200 121.2000 L 158.1600 121.2000 L 158.4000 121.4400 L 158.6400 121.4400 L 159.1200 121.9200 L 159.3600 121.9200 L 159.6000 122.1600 L 159.8400 122.1600 L 160.0800 122.4000 L 160.3200 122.4000 L 160.8000 122.8800 L 161.0400 122.8800 L 161.2800 123.1200 L 161.5200 123.1200 L 161.7600 123.3600 L 162.0000 123.3600 L 162.2400 123.6000 L 162.4800 123.6000 L 162.9600 124.0800 L 163.2000 124.0800 L 163.4400 124.3200 L 163.6800 124.3200 L 163.9200 124.5600 L 164.1600 124.5600 L 164.4000 124.8000 L 164.6400 124.8000 L 165.1200 125.2800 L 164.6400 125.7600 L 164.4000 125.7600 L 164.1600 126.0000 L 163.6800 126.0000 L 163.4400 126.2400 L 163.2000 126.2400 L 162.9600 126.4800 L 162.7200 126.4800 L 162.4800 126.7200 L 162.2400 126.7200 L 162.0000 126.9600 L 161.5200 126.9600 L 161.2800 127.2000 L 161.0400 127.2000 L 160.8000 127.4400 L 160.3200 127.4400 L 160.0800 127.6800 L 159.8400 127.6800 L 159.6000 127.9200 L 159.3600 127.9200 L 159.1200 128.1600 L 158.6400 128.1600 L 158.4000 128.4000 L 158.1600 128.4000 L 157.9200 128.6400 L 157.6800 128.6400 L 157.4400 128.8800 L 157.2000 128.8800 L 156.9600 129.1200 L 156.4800 129.1200 L 156.2400 129.3600 L 156.0000 129.3600 L 155.7600 129.6000 L 155.5200 129.6000 L 155.2800 129.8400 L 154.8000 129.8400 L 154.5600 130.0800 L 154.3200 130.0800 L 154.0800 130.3200 L 153.8400 130.3200 L 153.6000 130.5600 L 153.1200 130.5600 L 152.8800 130.8000 L 152.6400 130.8000 L 152.4000 131.0400 L 152.1600 131.0400 L 151.9200 131.2800 L 151.6800 131.2800 L 151.4400 131.5200 L 151.2000 131.5200 L 150.9600 131.7600 L 150.4800 131.7600 L 150.2400 132.0000 L 150.0000 132.0000 L 149.7600 132.2400 L 149.5200 132.2400 L 149.2800 132.4800 L 148.8000 132.4800 L 148.5600 132.7200 L 148.3200 132.7200 L 148.0800 132.9600 L 147.6000 132.9600 L 147.3600 133.2000 L 147.1200 133.2000 L 146.8800 133.4400 L 146.6400 133.4400 L 146.4000 133.6800 L 146.1600 133.6800 L 145.9200 133.9200 L 145.4400 133.9200 L 145.2000 134.1600 L 144.9600 134.1600 L 144.7200 134.4000 L 144.2400 134.4000 L 144.0000 134.6400 L 143.7600 134.6400 L 143.5200 134.8800 L 143.2800 134.8800 L 143.0400 135.1200 L 142.5600 135.1200 L 142.3200 135.3600 L 142.0800 135.3600 L 141.8400 135.6000 L 141.6000 135.6000 L 141.3600 135.8400 L 141.1200 135.8400 L 140.8800 136.0800 L 140.4000 136.0800 L 140.1600 136.3200 L 139.9200 136.3200 L 139.6800 136.5600 L 139.4400 136.5600 L 139.2000 136.8000 L 138.7200 136.8000 L 138.4800 137.0400 L 138.2400 137.0400 L 138.0000 137.2800 L 137.7600 137.2800 L 137.5200 137.5200 L 137.0400 137.5200 L 136.8000 137.7600 L 136.5600 137.7600 L 136.3200 138.0000 L 136.0800 138.0000 L 135.8400 138.2400 L 135.3600 138.2400 L 135.1200 138.4800 L 134.8800 138.4800 L 134.6400 138.7200 L 134.4000 138.7200 L 134.1600 138.9600 L 133.6800 138.9600 L 133.4400 139.2000 L 133.2000 139.2000 L 132.9600 139.4400 L 132.7200 139.4400 L 132.4800 139.6800 L 132.2400 139.6800 L 132.0000 139.9200 L 131.5200 139.9200 L 131.2800 140.1600 L 131.0400 140.1600 L 130.8000 140.4000 L 130.5600 140.4000 L 130.3200 140.6400 L 129.8400 140.6400 L 129.6000 140.4000 L 129.6000 137.5200 L 129.8400 137.2800 L 129.8400 133.9200 L 129.6000 133.6800 L 129.6000 131.5200 L 129.8400 131.2800 L 129.8400 131.0400 L 130.0800 130.8000 L 130.0800 130.5600 L 130.3200 130.3200 L 130.3200 129.8400 L 130.5600 129.6000 L 130.5600 129.3600 L 130.8000 129.1200 L 130.8000 128.6400 L 131.0400 128.4000 L 131.0400 128.1600 L 131.2800 127.9200 L 131.2800 127.4400 L 131.5200 127.2000 L 131.5200 126.9600 L 131.7600 126.7200 L 131.7600 126.2400 L 133.2000 124.8000 L 133.4400 124.8000 L 133.9200 124.3200 L 133.9200 123.8400 L 134.1600 123.6000 L 134.1600 120.7200 L 134.6400 120.2400 L 134.6400 119.0400 L 134.8800 118.8000 L 134.8800 118.5600 L 135.1200 118.3200 L 135.1200 117.1200 L 134.8800 116.8800 L 134.8800 114.9600 L 134.6400 114.7200 L 134.6400 113.0400 L 134.4000 112.8000 L 134.4000 111.8400 L 134.1600 111.6000 L 134.1600 110.4000 L 134.4000 110.1600 L 134.4000 109.6800 L 134.6400 109.4400 L 134.6400 108.7200 L 134.8800 108.4800 L 134.8800 108.0000 L 135.1200 107.7600 L 135.1200 107.2800 L 135.3600 107.0400 L 135.3600 106.8000 L 135.6000 106.5600 L 135.6000 106.0800 L 135.8400 105.8400 L 135.8400 105.3600 L 136.0800 105.1200 L 136.0800 104.8800 L 136.3200 104.6400 L 136.3200 104.4000 Z M 103.9200 10.0800 L 104.1600 9.8400 L 179.0400 9.8400 L 179.2800 10.0800 L 179.2800 104.1600 L 179.0400 104.4000 L 173.0400 98.4000 L 172.8000 98.4000 L 170.8800 96.4800 L 170.6400 96.4800 L 169.6800 95.5200 L 169.4400 95.5200 L 168.4800 94.5600 L 168.2400 94.5600 L 167.5200 93.8400 L 167.2800 93.8400 L 166.8000 93.3600 L 166.5600 93.3600 L 165.8400 92.6400 L 165.6000 92.6400 L 165.3600 92.4000 L 165.1200 92.4000 L 164.6400 91.9200 L 164.4000 91.9200 L 163.9200 91.4400 L 163.6800 91.4400 L 163.2000 90.9600 L 162.9600 90.9600 L 162.7200 90.7200 L 162.4800 90.7200 L 162.0000 90.2400 L 161.7600 90.2400 L 161.2800 89.7600 L 161.0400 89.7600 L 160.8000 89.5200 L 160.5600 89.5200 L 159.8400 88.8000 L 159.6000 88.8000 L 159.1200 88.3200 L 158.8800 88.3200 L 158.4000 87.8400 L 158.4000 87.6000 L 157.9200 87.1200 L 157.9200 86.8800 L 157.6800 86.6400 L 157.6800 86.4000 L 157.4400 86.1600 L 157.4400 85.9200 L 157.2000 85.6800 L 157.2000 85.4400 L 156.9600 85.2000 L 156.9600 84.9600 L 156.4800 84.4800 L 156.4800 84.2400 L 156.2400 84.0000 L 156.2400 83.7600 L 155.7600 83.2800 L 155.7600 83.0400 L 155.5200 82.8000 L 155.5200 82.5600 L 155.0400 82.0800 L 155.0400 81.8400 L 154.3200 81.1200 L 154.3200 80.8800 L 153.8400 80.4000 L 153.8400 80.1600 L 153.3600 79.6800 L 153.3600 79.4400 L 151.4400 77.5200 L 151.4400 77.2800 L 150.0000 75.8400 L 149.7600 75.8400 L 148.8000 74.8800 L 148.5600 74.8800 L 147.8400 74.1600 L 147.6000 74.1600 L 147.1200 73.6800 L 146.8800 73.6800 L 146.4000 73.2000 L 146.1600 73.2000 L 145.9200 72.9600 L 145.6800 72.9600 L 145.2000 72.4800 L 144.9600 72.4800 L 144.7200 72.2400 L 144.4800 72.2400 L 144.0000 71.7600 L 143.5200 71.7600 L 143.0400 71.2800 L 142.5600 71.2800 L 142.3200 71.0400 L 142.0800 71.0400 L 141.8400 70.8000 L 141.6000 70.8000 L 141.3600 70.5600 L 140.8800 70.5600 L 140.6400 70.3200 L 140.4000 70.3200 L 140.1600 70.0800 L 139.6800 70.0800 L 139.4400 69.8400 L 138.7200 69.8400 L 138.4800 69.6000 L 137.7600 69.6000 L 137.5200 69.3600 L 135.6000 69.3600 L 135.3600 69.1200 L 133.6800 69.1200 L 133.4400 68.8800 L 131.2800 68.8800 L 131.0400 68.6400 L 129.6000 68.6400 L 129.3600 68.4000 L 127.4400 68.4000 L 127.2000 68.1600 L 126.0000 68.1600 L 125.7600 67.9200 L 125.0400 67.9200 L 124.8000 67.6800 L 124.3200 67.6800 L 124.0800 67.4400 L 123.8400 67.4400 L 123.3600 66.9600 L 123.1200 66.9600 L 121.9200 65.7600 L 121.6800 65.7600 L 120.9600 65.0400 L 120.9600 64.8000 L 120.4800 64.3200 L 120.4800 64.0800 L 119.7600 63.3600 L 119.5200 63.3600 L 119.2800 63.1200 L 118.8000 63.1200 L 118.5600 62.8800 L 118.0800 62.8800 L 117.8400 62.6400 L 117.3600 62.6400 L 117.1200 62.4000 L 116.6400 62.4000 L 116.4000 62.1600 L 116.1600 62.1600 L 115.9200 61.9200 L 115.4400 61.9200 L 114.7200 61.2000 L 114.4800 61.2000 L 114.2400 60.9600 L 113.7600 60.9600 L 113.5200 60.7200 L 112.0800 60.7200 L 111.8400 60.9600 L 111.1200 60.9600 L 110.8800 61.2000 L 110.4000 61.2000 L 110.1600 60.9600 L 109.6800 60.9600 L 109.4400 60.7200 L 109.2000 60.7200 L 108.9600 60.4800 L 108.4800 60.4800 L 108.2400 60.2400 L 107.7600 60.2400 L 107.5200 60.0000 L 107.2800 60.0000 L 107.0400 59.7600 L 106.5600 59.7600 L 106.3200 59.5200 L 105.1200 59.5200 L 104.8800 59.2800 L 104.1600 59.2800 L 103.9200 59.0400 L 103.4400 59.0400 L 103.2000 58.8000 L 102.9600 58.8000 L 102.7200 58.5600 L 102.2400 58.5600 L 102.0000 58.3200 L 101.2800 58.3200 L 101.0400 58.0800 L 99.6000 58.0800 L 99.1200 57.6000 L 99.3600 57.3600 L 99.3600 56.6400 L 99.1200 56.4000 L 99.1200 54.4800 L 98.8800 54.2400 L 98.8800 52.8000 L 98.6400 52.5600 L 98.6400 51.1200 L 98.4000 50.8800 L 98.4000 49.9200 L 98.1600 49.6800 L 98.1600 48.9600 L 97.9200 48.7200 L 97.9200 47.7600 L 97.6800 47.5200 L 97.6800 47.2800 L 98.1600 46.8000 L 99.6000 46.8000 L 99.8400 46.5600 L 100.0800 46.5600 L 100.8000 45.8400 L 100.8000 45.6000 L 101.0400 45.3600 L 101.0400 45.1200 L 101.2800 44.8800 L 101.2800 44.6400 L 102.0000 43.9200 L 102.0000 43.6800 L 102.2400 43.4400 L 102.2400 43.2000 L 103.4400 42.0000 L 103.4400 41.7600 L 103.9200 41.2800 L 104.1600 41.2800 L 104.6400 40.8000 L 104.8800 40.8000 L 105.1200 40.5600 L 105.1200 40.3200 L 105.6000 39.8400 L 105.8400 39.8400 L 106.0800 39.6000 L 106.3200 39.6000 L 106.8000 39.1200 L 106.8000 37.6800 L 107.0400 37.4400 L 107.0400 36.7200 L 106.8000 36.4800 L 106.8000 35.0400 L 107.0400 34.8000 L 107.0400 34.5600 L 107.2800 34.3200 L 107.2800 33.8400 L 107.5200 33.6000 L 107.5200 33.1200 L 107.7600 32.8800 L 107.7600 32.6400 L 108.0000 32.4000 L 108.0000 32.1600 L 108.4800 31.6800 L 108.4800 28.3200 L 108.7200 28.0800 L 108.7200 27.6000 L 108.4800 27.3600 L 108.4800 26.1600 L 108.2400 25.9200 L 108.2400 25.4400 L 108.0000 25.2000 L 108.0000 24.9600 L 107.7600 24.7200 L 107.7600 23.7600 L 107.5200 23.5200 L 107.5200 21.3600 L 107.7600 21.1200 L 107.7600 19.9200 L 107.5200 19.6800 L 107.5200 18.0000 L 106.8000 17.2800 L 106.8000 16.8000 L 106.5600 16.5600 L 106.5600 16.0800 L 106.3200 15.8400 L 106.3200 15.3600 L 106.0800 15.1200 L 106.0800 13.2000 L 105.1200 12.2400 L 104.8800 12.2400 L 104.4000 11.7600 L 104.4000 11.5200 L 104.1600 11.2800 L 104.1600 10.5600 L 103.9200 10.3200 L 103.9200 10.0800 Z M 9.6000 10.0800 L 9.8400 9.8400 L 64.8000 9.8400 L 65.0400 10.0800 L 64.8000 10.3200 L 64.8000 10.8000 L 64.0800 11.5200 L 64.0800 12.0000 L 63.8400 12.2400 L 63.8400 13.2000 L 63.6000 13.4400 L 63.6000 15.1200 L 63.3600 15.3600 L 63.3600 16.0800 L 63.1200 16.3200 L 63.1200 16.8000 L 62.8800 17.0400 L 62.8800 17.7600 L 62.6400 18.0000 L 62.6400 18.2400 L 62.4000 18.4800 L 62.4000 18.7200 L 62.1600 18.9600 L 62.1600 19.4400 L 61.9200 19.6800 L 61.9200 21.6000 L 61.6800 21.8400 L 61.6800 22.0800 L 61.2000 22.5600 L 60.9600 22.5600 L 60.4800 23.0400 L 60.4800 23.2800 L 60.2400 23.5200 L 60.4800 23.7600 L 60.4800 24.0000 L 60.9600 24.4800 L 60.9600 24.7200 L 61.2000 24.9600 L 61.2000 25.4400 L 61.4400 25.6800 L 61.4400 25.9200 L 61.2000 26.1600 L 61.2000 29.0400 L 61.4400 29.2800 L 61.4400 30.0000 L 61.6800 30.2400 L 61.6800 30.9600 L 62.8800 32.1600 L 62.8800 36.9600 L 63.1200 37.2000 L 63.1200 37.9200 L 63.3600 38.1600 L 63.3600 38.6400 L 63.6000 38.8800 L 63.6000 39.3600 L 63.8400 39.6000 L 63.8400 40.3200 L 64.0800 40.5600 L 64.0800 44.4000 L 63.8400 44.6400 L 63.8400 45.8400 L 64.5600 46.5600 L 64.5600 46.8000 L 64.8000 47.0400 L 64.8000 47.5200 L 65.0400 47.7600 L 65.0400 48.4800 L 65.2800 48.7200 L 65.2800 49.6800 L 65.5200 49.9200 L 65.5200 50.4000 L 65.7600 50.6400 L 65.7600 50.8800 L 66.0000 51.1200 L 66.0000 51.3600 L 66.2400 51.6000 L 66.2400 51.8400 L 66.4800 52.0800 L 66.4800 52.3200 L 66.7200 52.5600 L 66.7200 56.4000 L 66.4800 56.6400 L 66.4800 60.9600 L 66.2400 61.2000 L 66.2400 61.4400 L 66.0000 61.6800 L 65.7600 61.6800 L 65.5200 61.9200 L 65.0400 61.9200 L 63.8400 63.1200 L 63.6000 63.1200 L 63.3600 63.3600 L 63.1200 63.3600 L 62.8800 63.6000 L 62.4000 63.6000 L 62.1600 63.8400 L 61.2000 63.8400 L 60.9600 64.0800 L 60.7200 64.0800 L 60.4800 64.3200 L 60.2400 64.3200 L 60.0000 64.5600 L 59.7600 64.5600 L 59.5200 64.8000 L 59.2800 64.8000 L 59.0400 65.0400 L 58.5600 65.0400 L 58.3200 65.2800 L 57.8400 65.2800 L 57.6000 65.5200 L 56.8800 65.5200 L 56.6400 65.7600 L 55.6800 65.7600 L 55.4400 66.0000 L 54.4800 66.0000 L 54.2400 66.2400 L 54.0000 66.2400 L 53.7600 66.4800 L 53.2800 66.4800 L 51.8400 67.9200 L 51.6000 67.9200 L 51.3600 68.1600 L 51.1200 68.1600 L 50.8800 68.4000 L 50.6400 68.4000 L 50.1600 68.8800 L 49.9200 68.8800 L 49.6800 69.1200 L 48.7200 69.1200 L 48.4800 69.3600 L 48.2400 69.3600 L 48.2400 69.6000 L 48.0000 69.8400 L 48.0000 71.0400 L 47.7600 71.2800 L 47.7600 71.5200 L 45.8400 73.4400 L 45.3600 73.4400 L 45.1200 73.6800 L 44.4000 73.6800 L 44.1600 73.9200 L 43.4400 73.9200 L 43.2000 74.1600 L 42.7200 74.1600 L 42.4800 74.4000 L 41.7600 74.4000 L 41.5200 74.6400 L 41.0400 74.6400 L 40.8000 74.8800 L 39.8400 74.8800 L 39.6000 75.1200 L 39.1200 75.1200 L 38.8800 75.3600 L 38.1600 75.3600 L 37.9200 75.6000 L 36.9600 75.6000 L 36.7200 75.8400 L 35.7600 75.8400 L 35.5200 76.0800 L 35.0400 76.0800 L 34.8000 76.3200 L 34.0800 76.3200 L 33.8400 76.5600 L 33.6000 76.5600 L 33.3600 76.8000 L 32.8800 76.8000 L 32.6400 77.0400 L 32.1600 77.0400 L 31.6800 77.5200 L 31.4400 77.5200 L 31.2000 77.7600 L 30.9600 77.7600 L 30.7200 78.0000 L 30.4800 78.0000 L 30.2400 78.2400 L 30.0000 78.2400 L 29.5200 78.7200 L 29.2800 78.7200 L 28.8000 79.2000 L 28.5600 79.2000 L 28.0800 79.6800 L 27.8400 79.6800 L 27.3600 80.1600 L 27.1200 80.1600 L 25.6800 81.6000 L 25.4400 81.6000 L 23.0400 84.0000 L 23.0400 84.2400 L 22.0800 85.2000 L 22.0800 85.4400 L 21.8400 85.6800 L 21.8400 85.9200 L 21.3600 86.4000 L 21.3600 86.6400 L 21.1200 86.8800 L 21.1200 87.1200 L 20.6400 87.6000 L 20.6400 87.8400 L 20.4000 88.0800 L 20.4000 88.3200 L 20.1600 88.5600 L 20.1600 88.8000 L 19.9200 89.0400 L 19.9200 89.5200 L 19.6800 89.7600 L 19.6800 90.2400 L 19.4400 90.4800 L 19.4400 90.9600 L 19.2000 91.2000 L 19.2000 91.9200 L 18.9600 92.1600 L 18.9600 92.6400 L 18.7200 92.8800 L 18.7200 93.8400 L 18.4800 94.0800 L 18.4800 95.0400 L 18.2400 95.2800 L 18.2400 97.2000 L 18.0000 97.4400 L 18.0000 97.6800 L 13.6800 102.0000 L 13.6800 102.2400 L 12.2400 103.6800 L 12.2400 103.9200 L 11.5200 104.6400 L 11.5200 104.8800 L 10.8000 105.6000 L 10.8000 105.8400 L 10.5600 106.0800 L 10.5600 106.3200 L 10.0800 106.8000 L 10.0800 107.0400 L 9.8400 107.2800 L 9.6000 107.0400 L 9.6000 10.0800 Z" fill="none" stroke="black" stroke-width="0.5" /></g><g stroke="black" stroke-width="0.5" transform="translate(306.0, 135.0)"><path d="M 4.5600 4.5600 L 184.3200 4.5600 L 184.3200 256.3200 L 4.5600 256.3200 L 4.5600 4.5600 Z M 9.6000 10.0800 L 9.8400 9.8400 L 179.0400 9.8400 L 179.2800 10.0800 L 179.2800 119.0400 L 178.8000 119.5200 L 178.5600 119.5200 L 178.3200 119.7600 L 178.0800 119.7600 L 177.8400 120.0000 L 177.6000 120.0000 L 177.3600 120.2400 L 177.1200 120.2400 L 176.8800 120.4800 L 176.4000 120.4800 L 176.1600 120.7200 L 175.9200 120.7200 L 175.6800 120.9600 L 175.4400 120.9600 L 175.2000 121.2000 L 174.7200 121.2000 L 174.4800 121.4400 L 174.2400 121.4400 L 174.0000 121.6800 L 173.7600 121.6800 L 173.5200 121.9200 L 173.2800 121.9200 L 173.0400 122.1600 L 172.5600 122.1600 L 172.3200 122.4000 L 172.0800 122.4000 L 171.8400 122.6400 L 171.6000 122.6400 L 171.3600 122.8800 L 170.8800 122.8800 L 170.6400 123.1200 L 170.4000 123.1200 L 170.1600 123.3600 L 169.9200 123.3600 L 169.6800 123.6000 L 169.2000 123.6000 L 168.9600 123.8400 L 168.7200 123.8400 L 168.4800 124.0800 L 168.2400 124.0800 L 168.0000 124.3200 L 167.7600 124.3200 L 167.5200 124.5600 L 167.0400 124.5600 L 166.8000 124.8000 L 166.5600 124.8000 L 166.3200 125.0400 L 166.0800 125.0400 L 165.8400 125.2800 L 165.3600 125.2800 L 165.1200 125.5200 L 164.8800 125.5200 L 164.6400 125.7600 L 164.4000 125.7600 L 164.1600 126.0000 L 163.6800 126.0000 L 163.4400 126.2400 L 163.2000 126.2400 L 162.9600 126.4800 L 162.7200 126.4800 L 162.4800 126.7200 L 162.2400 126.7200 L 162.0000 126.9600 L 161.5200 126.9600 L 161.2800 127.2000 L 161.0400 127.2000 L 160.8000 127.4400 L 160.3200 127.4400 L 160.0800 127.6800 L 159.8400 127.6800 L 159.6000 127.9200 L 159.3600 127.9200 L 159.1200 128.1600 L 158.6400 128.1600 L 158.4000 128.4000 L 158.1600 128.4000 L 157.9200 128.6400 L 157.6800 128.6400 L 157.4400 128.8800 L 157.2000 128.8800 L 156.9600 129.1200 L 156.4800 129.1200 L 156.2400 129.3600 L 156.0000 129.3600 L 155.7600 129.6000 L 155.5200 129.6000 L 155.2800 129.8400 L 154.8000 129.8400 L 154.5600 130.0800 L 154.3200 130.0800 L 154.0800 130.3200 L 153.8400 130.3200 L 153.6000 130.5600 L 153.1200 130.5600 L 152.8800 130.8000 L 152.6400 130.8000 L 152.4000 131.0400 L 152.1600 131.0400 L 151.9200 131.2800 L 151.6800 131.2800 L 151.4400 131.5200 L 151.2000 131.5200 L 150.9600 131.7600 L 150.4800 131.7600 L 150.2400 132.0000 L 150.0000 132.0000 L 149.7600 132.2400 L 149.5200 132.2400 L 149.2800 132.4800 L 148.8000 132.4800 L 148.5600 132.7200 L 148.3200 132.7200 L 148.0800 132.9600 L 147.6000 132.9600 L 147.3600 133.2000 L 147.1200 133.2000 L 146.8800 133.4400 L 146.6400 133.4400 L 146.4000 133.6800 L 146.1600 133.6800 L 145.9200 133.9200 L 145.4400 133.9200 L 145.2000 134.1600 L 144.9600 134.1600 L 144.7200 134.4000 L 144.2400 134.4000 L 144.0000 134.6400 L 143.7600 134.6400 L 143.5200 134.8800 L 143.2800 134.8800 L 143.0400 135.1200 L 142.5600 135.1200 L 142.3200 135.3600 L 142.0800 135.3600 L 141.8400 135.6000 L 141.6000 135.6000 L 141.3600 135.8400 L 141.1200 135.8400 L 140.8800 136.0800 L 140.4000 136.0800 L 140.1600 136.3200 L 139.9200 136.3200 L 139.6800 136.5600 L 139.4400 136.5600 L 139.2000 136.8000 L 138.7200 136.8000 L 138.4800 137.0400 L 138.2400 137.0400 L 138.0000 137.2800 L 137.7600 137.2800 L 137.5200 137.5200 L 137.0400 137.5200 L 136.8000 137.7600 L 136.5600 137.7600 L 136.3200 138.0000 L 136.0800 138.0000 L 135.8400 138.2400 L 135.3600 138.2400 L 135.1200 138.4800 L 134.8800 138.4800 L 134.6400 138.7200 L 134.4000 138.7200 L 134.1600 138.9600 L 133.6800 138.9600 L 133.4400 139.2000 L 133.2000 139.2000 L 132.9600 139.4400 L 132.7200 139.4400 L 132.4800 139.6800 L 132.2400 139.6800 L 132.0000 139.9200 L 131.5200 139.9200 L 131.2800 140.1600 L 131.0400 140.1600 L 130.8000 140.4000 L 130.5600 140.4000 L 130.3200 140.6400 L 129.8400 140.6400 L 129.6000 140.8800 L 129.3600 140.8800 L 129.1200 141.1200 L 128.6400 141.1200 L 127.9200 141.8400 L 127.9200 142.3200 L 127.4400 142.8000 L 126.9600 142.8000 L 126.2400 143.5200 L 126.2400 143.7600 L 126.0000 144.0000 L 126.0000 144.4800 L 126.7200 145.2000 L 127.4400 145.2000 L 127.6800 145.4400 L 128.4000 145.4400 L 128.6400 145.6800 L 129.3600 145.6800 L 129.6000 145.9200 L 130.3200 145.9200 L 130.5600 146.1600 L 131.2800 146.1600 L 131.5200 146.4000 L 132.2400 146.4000 L 132.4800 146.6400 L 133.2000 146.6400 L 133.4400 146.8800 L 133.9200 146.8800 L 134.1600 147.1200 L 134.8800 147.1200 L 135.1200 147.3600 L 136.0800 147.3600 L 136.3200 147.6000 L 137.2800 147.6000 L 137.5200 147.8400 L 139.2000 147.8400 L 139.4400 148.0800 L 141.3600 148.0800 L 141.6000 148.3200 L 143.0400 148.3200 L 143.2800 148.5600 L 144.9600 148.5600 L 145.2000 148.8000 L 145.6800 148.8000 L 145.9200 149.0400 L 146.6400 149.0400 L 146.8800 149.2800 L 147.6000 149.2800 L 147.8400 149.5200 L 148.8000 149.5200 L 149.0400 149.7600 L 150.0000 149.7600 L 150.2400 150.0000 L 151.2000 150.0000 L 151.4400 150.2400 L 152.4000 150.2400 L 152.6400 150.4800 L 153.8400 150.4800 L 154.0800 150.7200 L 154.8000 150.7200 L 155.0400 150.9600 L 156.2400 150.9600 L 156.4800 151.2000 L 157.6800 151.2000 L 157.9200 151.4400 L 159.1200 151.4400 L 159.3600 151.6800 L 160.5600 151.6800 L 160.8000 151.9200 L 162.0000 151.9200 L 162.2400 152.1600 L 163.6800 152.1600 L 163.9200 152.4000 L 165.3600 152.4000 L 165.6000 152.6400 L 165.8400 152.6400 L 166.0800 152.8800 L 166.5600 152.8800 L 166.8000 153.1200 L 167.0400 153.1200 L 167.2800 153.3600 L 168.0000 153.3600 L 168.2400 153.6000 L 168.4800 153.6000 L 168.7200 153.8400 L 169.6800 153.8400 L 169.9200 154.0800 L 170.4000 154.0800 L 170.6400 154.3200 L 171.8400 154.3200 L 172.0800 154.5600 L 173.2800 154.5600 L 173.5200 154.8000 L 174.2400 154.8000 L 174.4800 155.0400 L 175.6800 155.0400 L 175.9200 155.2800 L 177.6000 155.2800 L 177.8400 155.0400 L 178.0800 155.2800 L 178.3200 155.2800 L 178.5600 155.0400 L 179.0400 155.0400 L 179.2800 155.2800 L 179.2800 205.2000 L 178.8000 205.6800 L 10.0800 205.6800 L 9.6000 205.2000 L 9.6000 168.0000 L 9.8400 167.7600 L 9.8400 167.5200 L 10.3200 167.0400 L 10.5600 167.0400 L 12.0000 165.6000 L 12.2400 165.6000 L 12.2400 165.3600 L 12.4800 165.1200 L 12.7200 165.1200 L 13.4400 164.4000 L 13.4400 164.1600 L 14.8800 162.7200 L 14.8800 162.4800 L 15.8400 161.5200 L 15.8400 161.2800 L 16.5600 160.5600 L 16.5600 160.3200 L 17.0400 159.8400 L 17.0400 159.6000 L 17.7600 158.8800 L 17.7600 158.6400 L 18.4800 157.9200 L 18.4800 157.6800 L 20.4000 155.7600 L 20.4000 155.5200 L 20.6400 155.2800 L 20.8800 155.2800 L 20.8800 155.0400 L 21.3600 154.5600 L 21.6000 154.5600 L 21.6000 154.3200 L 24.7200 151.2000 L 24.7200 150.9600 L 24.9600 150.7200 L 25.2000 150.7200 L 25.9200 150.0000 L 25.9200 149.7600 L 26.1600 149.5200 L 26.4000 149.5200 L 26.4000 149.2800 L 26.8800 148.8000 L 27.1200 148.8000 L 27.1200 148.5600 L 27.3600 148.3200 L 27.6000 148.3200 L 27.6000 148.0800 L 27.8400 147.8400 L 28.0800 147.8400 L 29.5200 146.4000 L 29.7600 146.4000 L 29.7600 146.1600 L 30.0000 145.9200 L 30.2400 145.9200 L 32.4000 143.7600 L 32.6400 143.7600 L 34.0800 142.3200 L 34.3200 142.3200 L 35.0400 141.6000 L 35.2800 141.6000 L 36.0000 140.8800 L 36.2400 140.8800 L 36.9600 140.1600 L 37.2000 140.1600 L 37.6800 139.6800 L 37.9200 139.6800 L 38.4000 139.2000 L 38.6400 139.2000 L 39.3600 138.4800 L 39.6000 138.4800 L 40.0800 138.0000 L 40.3200 138.0000 L 41.0400 137.2800 L 41.2800 137.2800 L 41.7600 136.8000 L 42.0000 136.8000 L 42.4800 136.3200 L 42.7200 136.3200 L 43.6800 135.3600 L 43.9200 135.3600 L 44.8800 134.4000 L 45.1200 134.4000 L 46.0800 133.4400 L 46.3200 133.4400 L 47.2800 132.4800 L 47.5200 132.4800 L 48.4800 131.5200 L 48.7200 131.5200 L 49.4400 130.8000 L 49.6800 130.8000 L 50.6400 129.8400 L 50.8800 129.8400 L 51.6000 129.1200 L 51.8400 129.1200 L 52.3200 128.6400 L 52.5600 128.6400 L 53.0400 128.1600 L 53.2800 128.1600 L 53.7600 127.6800 L 54.2400 127.6800 L 54.7200 127.2000 L 54.9600 127.2000 L 55.2000 126.9600 L 55.4400 126.9600 L 55.6800 126.7200 L 55.9200 126.7200 L 56.1600 126.4800 L 56.4000 126.4800 L 56.8800 126.0000 L 57.1200 126.0000 L 58.0800 125.0400 L 58.3200 125.0400 L 59.2800 124.0800 L 59.5200 124.0800 L 61.4400 122.1600 L 61.6800 122.1600 L 65.0400 118.8000 L 65.0400 118.5600 L 65.7600 117.8400 L 65.7600 117.6000 L 66.2400 117.1200 L 66.0000 116.8800 L 66.0000 116.6400 L 65.7600 116.4000 L 64.3200 116.4000 L 64.0800 116.6400 L 63.1200 116.6400 L 62.8800 116.8800 L 61.9200 116.8800 L 61.6800 117.1200 L 60.7200 117.1200 L 60.4800 117.3600 L 59.2800 117.3600 L 59.0400 117.6000 L 58.0800 117.6000 L 57.8400 117.8400 L 56.6400 117.8400 L 56.4000 118.0800 L 55.2000 118.0800 L 54.9600 118.3200 L 54.2400 118.3200 L 54.0000 118.5600 L 52.0800 118.5600 L 51.8400 118.8000 L 49.2000 118.8000 L 48.9600 119.0400 L 47.5200 119.0400 L 47.2800 119.2800 L 46.3200 119.2800 L 46.0800 119.5200 L 45.3600 119.5200 L 45.1200 119.7600 L 44.8800 119.7600 L 44.6400 120.0000 L 44.1600 120.0000 L 43.9200 120.2400 L 43.2000 120.2400 L 42.9600 120.4800 L 42.4800 120.4800 L 42.2400 120.7200 L 42.0000 120.7200 L 41.7600 120.9600 L 41.2800 120.9600 L 41.0400 121.2000 L 40.5600 121.2000 L 40.3200 121.4400 L 39.6000 121.4400 L 39.3600 121.6800 L 38.8800 121.6800 L 38.6400 121.9200 L 38.1600 121.9200 L 37.9200 122.1600 L 37.4400 122.1600 L 37.2000 122.4000 L 36.7200 122.4000 L 36.4800 122.6400 L 35.7600 122.6400 L 35.5200 122.8800 L 35.0400 122.8800 L 34.8000 123.1200 L 34.3200 123.1200 L 34.0800 123.3600 L 33.6000 123.3600 L 33.3600 123.6000 L 32.6400 123.6000 L 32.4000 123.8400 L 31.9200 123.8400 L 31.6800 124.0800 L 31.2000 124.0800 L 30.9600 124.3200 L 30.7200 124.3200 L 30.4800 124.5600 L 29.5200 124.5600 L 29.2800 124.8000 L 28.0800 124.8000 L 27.8400 125.0400 L 27.1200 125.0400 L 26.8800 125.2800 L 25.9200 125.2800 L 25.6800 125.5200 L 9.8400 125.5200 L 9.6000 125.2800 L 9.6000 10.0800 Z" fill="none" stroke="black" stroke-width="0.5" /></g><g stroke="black" stroke-width="0.5" transform="translate(117.0, 396.0)" /><g stroke="black" stroke-width="0.5" transform="translate(306.0, 396.0)" /></svg>