<?xml version="1.0" encoding="utf-8" ?>
<svg baseProfile="full" height="261" version="1.1" viewBox="0 0 189 261" width="189" xmlns="http://www.w3.org/2000/svg" xmlns:ev="http://www.w3.org/2001/xml-events" xmlns:xlink="http://www.w3.org/1999/xlink"><defs /><path d="M 75.1200 34.0800 L 74.8800 34.3200 L 72.9600 34.3200 L 72.7200 34.5600 L 71.5200 34.5600 L 71.2800 34.8000 L 70.3200 34.8000 L 70.0800 35.0400 L 69.6000 35.0400 L 69.3600 35.2800 L 68.6400 35.2800 L 68.4000 35.5200 L 67.9200 35.5200 L 67.6800 35.7600 L 67.2000 35.7600 L 66.9600 36.0000 L 66.7200 36.0000 L 66.4800 36.2400 L 66.0000 36.2400 L 65.7600 36.4800 L 65.5200 36.4800 L 65.2800 36.7200 L 65.0400 36.7200 L 64.8000 36.9600 L 64.5600 36.9600 L 64.3200 37.2000 L 64.0800 37.2000 L 63.6000 37.6800 L 63.3600 37.6800 L 62.8800 38.1600 L 62.6400 38.1600 L 62.1600 38.6400 L 61.9200 38.6400 L 59.2800 41.2800 L 59.2800 41.5200 L 58.5600 42.2400 L 58.5600 42.4800 L 58.0800 42.9600 L 58.0800 43.2000 L 57.6000 43.6800 L 57.6000 43.9200 L 57.3600 44.1600 L 57.3600 44.4000 L 57.1200 44.6400 L 57.1200 44.8800 L 56.8800 45.1200 L 56.8800 45.3600 L 56.4000 45.8400 L 56.4000 46.0800 L 55.4400 47.0400 L 55.4400 47.2800 L 55.2000 47.5200 L 55.2000 47.7600 L 54.9600 48.0000 L 54.9600 48.2400 L 54.7200 48.4800 L 54.7200 48.9600 L 54.4800 49.2000 L 54.4800 49.6800 L 54.2400 49.9200 L 54.2400 50.4000 L 54.0000 50.6400 L 54.0000 51.1200 L 53.7600 51.3600 L 53.7600 51.8400 L 53.5200 52.0800 L 53.5200 53.0400 L 53.2800 53.2800 L 53.2800 56.1600 L 53.0400 56.4000 L 53.2800 56.6400 L 53.2800 59.2800 L 53.5200 59.5200 L 53.5200 61.6800 L 53.7600 61.9200 L 53.7600 63.6000 L 54.0000 63.8400 L 54.0000 64.8000 L 54.2400 65.0400 L 54.2400 66.0000 L 54.4800 66.2400 L 54.4800 67.2000 L 54.7200 67.4400 L 54.7200 68.1600 L 54.9600 68.4000 L 54.9600 69.1200 L 55.2000 69.3600 L 55.2000 70.5600 L 54.9600 70.8000 L 54.9600 71.2800 L 54.7200 71.5200 L 54.7200 72.7200 L 54.9600 72.9600 L 54.9600 73.4400 L 55.2000 73.6800 L 55.2000 73.9200 L 55.4400 74.1600 L 55.4400 74.6400 L 55.6800 74.8800 L 55.6800 75.1200 L 55.9200 75.3600 L 55.9200 75.8400 L 56.4000 76.3200 L 56.4000 76.5600 L 56.6400 76.8000 L 56.8800 76.8000 L 57.1200 77.0400 L 57.3600 77.0400 L 57.6000 77.2800 L 57.8400 77.2800 L 58.5600 78.0000 L 58.5600 79.2000 L 58.8000 79.4400 L 58.8000 79.6800 L 59.0400 79.9200 L 59.0400 80.1600 L 59.5200 80.6400 L 59.5200 80.8800 L 60.2400 81.6000 L 60.2400 81.8400 L 60.4800 82.0800 L 60.4800 82.3200 L 60.7200 82.3200 L 61.4400 83.0400 L 61.4400 83.2800 L 61.9200 83.7600 L 61.9200 84.0000 L 62.1600 84.2400 L 62.1600 84.4800 L 62.4000 84.7200 L 62.4000 84.9600 L 62.6400 85.2000 L 62.6400 85.4400 L 62.8800 85.6800 L 62.8800 85.9200 L 63.1200 86.1600 L 63.1200 86.4000 L 63.3600 86.6400 L 63.3600 86.8800 L 63.6000 87.1200 L 63.6000 87.3600 L 63.8400 87.6000 L 63.8400 87.8400 L 64.3200 88.3200 L 64.3200 88.5600 L 64.8000 89.0400 L 64.8000 89.5200 L 64.3200 90.0000 L 64.0800 90.0000 L 63.8400 90.2400 L 63.6000 90.2400 L 63.3600 90.4800 L 63.1200 90.4800 L 62.8800 90.7200 L 62.6400 90.7200 L 62.4000 90.9600 L 62.1600 90.9600 L 61.9200 91.2000 L 61.4400 91.2000 L 61.2000 91.4400 L 60.9600 91.4400 L 60.7200 91.6800 L 60.4800 91.6800 L 60.2400 91.9200 L 60.0000 91.9200 L 59.5200 92.4000 L 59.2800 92.4000 L 59.0400 92.6400 L 58.8000 92.6400 L 58.5600 92.8800 L 58.0800 92.8800 L 57.8400 93.1200 L 57.6000 93.1200 L 57.3600 93.3600 L 57.1200 93.3600 L 56.8800 93.6000 L 56.4000 93.6000 L 56.1600 93.8400 L 55.9200 93.8400 L 55.6800 94.0800 L 55.2000 94.0800 L 54.9600 94.3200 L 54.4800 94.3200 L 54.2400 94.5600 L 53.7600 94.5600 L 53.5200 94.8000 L 53.0400 94.8000 L 52.8000 95.0400 L 52.3200 95.0400 L 52.0800 95.2800 L 51.6000 95.2800 L 51.3600 95.5200 L 51.1200 95.5200 L 50.6400 96.0000 L 50.4000 96.0000 L 50.1600 96.2400 L 49.9200 96.2400 L 49.4400 96.7200 L 49.2000 96.7200 L 47.7600 98.1600 L 47.5200 98.1600 L 46.8000 98.8800 L 46.5600 98.8800 L 46.0800 99.3600 L 45.8400 99.3600 L 44.6400 100.5600 L 44.6400 100.8000 L 44.4000 101.0400 L 44.1600 101.0400 L 43.6800 101.5200 L 43.6800 101.7600 L 42.7200 102.7200 L 42.7200 102.9600 L 42.4800 103.2000 L 42.4800 103.4400 L 42.2400 103.6800 L 42.2400 103.9200 L 42.0000 104.1600 L 42.0000 104.6400 L 41.7600 104.8800 L 41.7600 106.0800 L 41.5200 106.3200 L 41.5200 107.5200 L 41.2800 107.7600 L 41.2800 108.7200 L 41.0400 108.9600 L 41.0400 110.8800 L 41.2800 111.1200 L 41.2800 111.6000 L 41.5200 111.8400 L 41.5200 112.0800 L 41.7600 112.3200 L 41.7600 112.5600 L 42.0000 112.8000 L 42.0000 113.5200 L 42.2400 113.7600 L 42.2400 116.4000 L 42.4800 116.6400 L 42.4800 117.3600 L 42.7200 117.6000 L 42.7200 117.8400 L 43.2000 118.3200 L 43.2000 118.5600 L 43.4400 118.8000 L 43.4400 119.0400 L 43.6800 119.2800 L 43.6800 119.5200 L 43.9200 119.7600 L 43.9200 120.0000 L 44.1600 120.2400 L 44.1600 120.7200 L 44.4000 120.9600 L 44.4000 121.2000 L 44.6400 121.4400 L 44.6400 122.1600 L 45.6000 123.1200 L 45.8400 123.1200 L 46.3200 123.6000 L 46.3200 123.8400 L 46.8000 124.3200 L 46.8000 124.5600 L 47.0400 124.8000 L 47.0400 125.0400 L 47.5200 125.5200 L 47.5200 125.7600 L 47.7600 126.0000 L 48.2400 126.0000 L 48.7200 126.4800 L 48.7200 126.7200 L 48.9600 126.9600 L 48.9600 127.4400 L 49.2000 127.6800 L 49.2000 128.4000 L 49.4400 128.6400 L 49.2000 128.8800 L 49.2000 130.0800 L 48.9600 130.3200 L 48.9600 130.5600 L 49.2000 130.8000 L 49.2000 132.0000 L 49.4400 132.2400 L 49.4400 133.4400 L 49.6800 133.6800 L 49.6800 135.3600 L 49.9200 135.6000 L 49.9200 137.0400 L 50.1600 137.2800 L 50.1600 138.0000 L 50.4000 138.2400 L 50.4000 138.7200 L 50.6400 138.9600 L 50.6400 139.4400 L 50.8800 139.6800 L 50.8800 139.9200 L 51.1200 140.1600 L 51.1200 140.4000 L 51.3600 140.6400 L 51.3600 140.8800 L 51.6000 141.1200 L 51.6000 141.3600 L 51.8400 141.6000 L 51.8400 141.8400 L 52.0800 142.0800 L 52.0800 142.3200 L 52.3200 142.5600 L 52.3200 142.8000 L 52.5600 143.0400 L 52.5600 143.2800 L 53.2800 144.0000 L 53.2800 144.2400 L 54.4800 145.4400 L 54.4800 145.6800 L 54.9600 146.1600 L 54.9600 146.4000 L 55.4400 146.8800 L 56.6400 146.8800 L 57.3600 147.6000 L 57.3600 147.8400 L 57.1200 148.0800 L 56.8800 148.0800 L 56.6400 148.3200 L 56.6400 148.8000 L 56.8800 149.0400 L 56.8800 149.2800 L 56.6400 149.5200 L 56.6400 149.7600 L 56.4000 150.0000 L 56.4000 150.4800 L 56.6400 150.7200 L 56.6400 151.6800 L 56.8800 151.9200 L 56.8800 152.1600 L 57.1200 152.1600 L 57.6000 152.6400 L 57.6000 152.8800 L 57.8400 153.1200 L 57.8400 154.0800 L 58.0800 154.3200 L 58.0800 155.2800 L 58.3200 155.5200 L 58.3200 156.7200 L 58.5600 156.9600 L 58.5600 157.9200 L 58.3200 158.1600 L 58.3200 158.4000 L 58.0800 158.6400 L 58.0800 158.8800 L 57.8400 159.1200 L 57.8400 159.3600 L 57.3600 159.8400 L 57.1200 159.8400 L 56.4000 160.5600 L 56.4000 160.8000 L 55.9200 161.2800 L 55.6800 161.2800 L 55.6800 161.5200 L 55.4400 161.7600 L 55.4400 162.0000 L 55.6800 162.2400 L 55.6800 162.7200 L 55.9200 162.9600 L 55.9200 163.6800 L 56.1600 163.9200 L 56.1600 164.6400 L 56.4000 164.8800 L 56.4000 166.0800 L 56.6400 166.3200 L 56.6400 167.2800 L 56.8800 167.5200 L 56.8800 168.2400 L 57.1200 168.4800 L 57.1200 168.9600 L 57.3600 169.2000 L 57.3600 169.6800 L 57.6000 169.9200 L 57.6000 170.1600 L 57.8400 170.4000 L 57.8400 170.8800 L 58.3200 171.3600 L 58.3200 172.0800 L 58.0800 172.3200 L 57.8400 172.3200 L 57.6000 172.0800 L 57.3600 172.0800 L 57.1200 171.8400 L 56.8800 171.8400 L 56.6400 171.6000 L 56.4000 171.6000 L 55.6800 170.8800 L 55.4400 171.1200 L 55.4400 171.6000 L 55.2000 171.8400 L 55.2000 172.3200 L 54.9600 172.5600 L 54.9600 173.0400 L 54.7200 173.2800 L 54.7200 173.7600 L 54.4800 174.0000 L 54.4800 174.7200 L 54.2400 174.9600 L 54.2400 176.6400 L 54.0000 176.8800 L 54.0000 179.2800 L 54.2400 179.5200 L 54.2400 179.7600 L 54.4800 180.0000 L 54.9600 180.0000 L 55.2000 180.2400 L 55.6800 180.2400 L 56.1600 180.7200 L 57.1200 180.7200 L 57.3600 180.9600 L 58.0800 180.9600 L 58.3200 181.2000 L 58.3200 181.4400 L 58.0800 181.6800 L 58.0800 181.9200 L 57.3600 182.6400 L 57.3600 182.8800 L 56.8800 183.3600 L 56.8800 183.6000 L 56.4000 184.0800 L 56.4000 184.3200 L 56.1600 184.5600 L 56.1600 184.8000 L 55.9200 185.0400 L 55.9200 185.2800 L 55.6800 185.5200 L 55.6800 186.0000 L 55.4400 186.2400 L 55.4400 186.7200 L 55.2000 186.9600 L 55.2000 188.1600 L 54.9600 188.4000 L 54.9600 189.1200 L 54.7200 189.3600 L 54.7200 191.0400 L 54.9600 191.2800 L 54.9600 192.0000 L 55.2000 192.2400 L 55.2000 192.4800 L 55.4400 192.7200 L 55.4400 192.9600 L 55.6800 193.2000 L 55.6800 193.4400 L 56.1600 193.9200 L 56.1600 194.1600 L 55.9200 194.4000 L 55.9200 195.1200 L 55.6800 195.3600 L 55.6800 196.3200 L 55.9200 196.5600 L 55.9200 197.0400 L 56.4000 197.5200 L 56.4000 199.2000 L 56.1600 199.4400 L 56.1600 201.1200 L 56.4000 201.3600 L 56.4000 201.6000 L 56.8800 202.0800 L 56.8800 202.3200 L 57.3600 202.8000 L 57.3600 203.7600 L 57.1200 204.0000 L 57.1200 205.2000 L 57.3600 205.4400 L 57.3600 206.1600 L 57.1200 206.4000 L 57.1200 206.8800 L 57.3600 207.1200 L 57.3600 207.8400 L 57.6000 208.0800 L 57.3600 208.3200 L 57.3600 211.2000 L 57.6000 211.4400 L 57.6000 213.6000 L 57.3600 213.8400 L 57.3600 218.1600 L 57.1200 218.4000 L 57.1200 219.1200 L 56.8800 219.3600 L 56.8800 223.4400 L 56.6400 223.6800 L 56.6400 224.4000 L 56.4000 224.6400 L 56.4000 225.1200 L 127.4400 225.1200 L 127.4400 224.1600 L 127.2000 223.9200 L 127.2000 223.2000 L 126.9600 222.9600 L 126.9600 218.1600 L 126.7200 217.9200 L 126.7200 216.9600 L 126.4800 216.7200 L 126.4800 214.3200 L 126.2400 214.0800 L 126.2400 213.6000 L 126.0000 213.3600 L 126.0000 212.1600 L 125.7600 211.9200 L 125.7600 210.7200 L 125.5200 210.4800 L 125.5200 210.0000 L 125.2800 209.7600 L 125.2800 207.8400 L 125.0400 207.6000 L 125.0400 206.8800 L 124.8000 206.6400 L 124.8000 205.9200 L 124.5600 205.6800 L 124.5600 204.4800 L 124.8000 204.2400 L 124.8000 203.5200 L 124.5600 203.2800 L 124.5600 202.8000 L 124.3200 202.5600 L 124.3200 202.3200 L 124.0800 202.0800 L 124.0800 201.1200 L 123.8400 200.8800 L 124.0800 200.6400 L 124.0800 200.4000 L 124.3200 200.1600 L 124.3200 199.2000 L 124.5600 198.9600 L 124.5600 198.7200 L 124.3200 198.4800 L 124.3200 197.2800 L 124.0800 197.0400 L 124.0800 195.8400 L 125.5200 194.4000 L 125.7600 194.4000 L 126.2400 193.9200 L 126.4800 193.9200 L 126.7200 193.6800 L 126.7200 193.2000 L 126.4800 192.9600 L 126.4800 192.7200 L 126.0000 192.2400 L 126.0000 192.0000 L 124.0800 190.0800 L 124.0800 189.8400 L 123.3600 189.1200 L 123.3600 188.8800 L 122.8800 188.4000 L 122.8800 188.1600 L 122.6400 187.9200 L 122.6400 187.6800 L 122.1600 187.2000 L 122.1600 186.7200 L 122.4000 186.4800 L 122.4000 186.2400 L 125.7600 182.8800 L 125.7600 182.1600 L 125.0400 181.4400 L 125.0400 181.2000 L 123.8400 180.0000 L 123.6000 180.0000 L 122.6400 179.0400 L 122.6400 178.8000 L 121.9200 178.0800 L 121.9200 177.8400 L 121.6800 177.6000 L 121.6800 177.3600 L 121.2000 176.8800 L 121.2000 176.6400 L 120.2400 175.6800 L 120.2400 175.4400 L 120.0000 175.4400 L 119.7600 175.2000 L 119.5200 175.2000 L 118.5600 174.2400 L 118.5600 173.7600 L 118.3200 173.5200 L 118.3200 173.0400 L 118.0800 172.8000 L 118.0800 172.5600 L 117.6000 172.0800 L 117.6000 169.6800 L 117.3600 169.4400 L 117.3600 169.2000 L 117.6000 168.9600 L 117.6000 168.7200 L 117.8400 168.4800 L 117.8400 168.2400 L 118.0800 168.0000 L 118.0800 164.1600 L 117.8400 163.9200 L 117.8400 162.2400 L 118.0800 162.0000 L 118.0800 160.3200 L 118.3200 160.0800 L 118.3200 151.9200 L 118.0800 151.6800 L 118.0800 150.7200 L 117.8400 150.4800 L 117.8400 147.6000 L 118.0800 147.3600 L 118.0800 147.1200 L 118.3200 146.8800 L 118.3200 146.1600 L 118.5600 145.9200 L 118.5600 145.4400 L 118.8000 145.2000 L 118.8000 144.9600 L 119.2800 144.4800 L 119.2800 144.2400 L 120.0000 143.5200 L 120.0000 143.2800 L 120.9600 142.3200 L 120.9600 142.0800 L 121.6800 141.3600 L 121.6800 141.1200 L 123.3600 139.4400 L 123.3600 139.2000 L 124.5600 138.0000 L 124.5600 137.7600 L 125.2800 137.0400 L 125.2800 136.8000 L 126.0000 136.0800 L 126.0000 135.8400 L 126.4800 135.3600 L 126.4800 135.1200 L 126.9600 134.6400 L 126.9600 134.4000 L 127.2000 134.1600 L 127.2000 133.9200 L 127.4400 133.6800 L 127.4400 133.4400 L 127.6800 133.2000 L 127.6800 132.9600 L 128.8800 131.7600 L 128.8800 131.5200 L 130.0800 130.3200 L 130.0800 130.0800 L 130.8000 129.3600 L 130.8000 129.1200 L 132.4800 127.4400 L 132.4800 127.2000 L 133.2000 126.4800 L 133.2000 126.2400 L 134.6400 124.8000 L 134.8800 124.8000 L 135.1200 125.0400 L 135.1200 125.2800 L 135.3600 125.5200 L 135.3600 125.7600 L 135.6000 126.0000 L 135.6000 126.4800 L 135.8400 126.7200 L 135.8400 127.2000 L 136.0800 127.4400 L 136.0800 128.1600 L 136.3200 128.4000 L 136.3200 128.6400 L 136.5600 128.8800 L 136.5600 129.3600 L 136.8000 129.6000 L 136.8000 129.8400 L 137.0400 130.0800 L 137.0400 130.8000 L 137.2800 131.0400 L 137.2800 131.2800 L 137.5200 131.5200 L 137.5200 131.7600 L 137.7600 132.0000 L 138.4800 132.0000 L 139.2000 131.2800 L 139.2000 131.0400 L 140.4000 129.8400 L 140.4000 129.3600 L 140.6400 129.1200 L 140.6400 128.8800 L 140.4000 128.6400 L 140.4000 127.6800 L 140.1600 127.4400 L 140.1600 126.4800 L 139.9200 126.2400 L 139.9200 125.5200 L 139.6800 125.2800 L 139.6800 124.5600 L 139.4400 124.3200 L 139.4400 123.6000 L 139.2000 123.3600 L 139.2000 122.8800 L 138.9600 122.6400 L 138.9600 122.1600 L 139.6800 121.4400 L 139.9200 121.4400 L 140.1600 121.2000 L 140.4000 121.2000 L 140.6400 120.9600 L 140.8800 120.9600 L 141.1200 120.7200 L 141.3600 120.7200 L 141.6000 120.4800 L 142.0800 120.4800 L 142.8000 119.7600 L 142.8000 119.5200 L 144.0000 118.3200 L 146.8800 118.3200 L 147.1200 118.0800 L 152.8800 118.0800 L 153.1200 118.3200 L 160.5600 118.3200 L 160.8000 118.0800 L 163.6800 118.0800 L 163.9200 117.8400 L 165.3600 117.8400 L 165.6000 117.6000 L 166.0800 117.6000 L 166.3200 117.3600 L 166.8000 117.3600 L 167.0400 117.1200 L 167.5200 117.1200 L 167.7600 116.8800 L 168.0000 116.8800 L 168.2400 116.6400 L 168.4800 116.6400 L 168.9600 116.1600 L 169.2000 116.1600 L 169.6800 115.6800 L 169.9200 115.6800 L 170.4000 115.2000 L 170.6400 115.2000 L 172.0800 113.7600 L 172.3200 113.7600 L 173.0400 113.0400 L 173.0400 112.8000 L 173.2800 112.5600 L 173.2800 112.3200 L 173.5200 112.0800 L 173.5200 111.1200 L 173.7600 110.8800 L 173.7600 110.4000 L 173.5200 110.1600 L 173.5200 109.2000 L 173.2800 108.9600 L 173.2800 108.7200 L 173.0400 108.4800 L 173.0400 108.0000 L 172.8000 107.7600 L 172.8000 107.5200 L 172.5600 107.2800 L 172.5600 106.8000 L 172.3200 106.5600 L 172.3200 105.8400 L 172.0800 105.6000 L 172.0800 105.3600 L 171.8400 105.1200 L 171.8400 104.8800 L 171.6000 104.6400 L 171.6000 104.4000 L 171.1200 103.9200 L 171.1200 103.6800 L 170.6400 103.2000 L 170.6400 102.9600 L 170.1600 102.4800 L 170.1600 102.2400 L 169.4400 101.5200 L 169.4400 101.2800 L 168.7200 100.5600 L 168.7200 100.3200 L 167.7600 99.3600 L 167.7600 99.1200 L 166.8000 98.1600 L 166.8000 97.9200 L 165.8400 96.9600 L 165.8400 96.7200 L 165.3600 96.2400 L 165.3600 96.0000 L 165.1200 95.7600 L 165.1200 95.5200 L 164.8800 95.2800 L 164.8800 95.0400 L 164.6400 94.8000 L 164.6400 94.5600 L 164.4000 94.3200 L 164.4000 94.0800 L 164.1600 93.8400 L 164.1600 93.6000 L 163.9200 93.3600 L 163.9200 93.1200 L 163.4400 92.6400 L 163.4400 92.4000 L 162.9600 91.9200 L 162.9600 91.6800 L 162.4800 91.2000 L 162.4800 90.9600 L 162.0000 90.4800 L 162.0000 90.2400 L 161.2800 89.5200 L 161.2800 89.2800 L 160.0800 88.0800 L 160.0800 87.8400 L 156.7200 84.4800 L 156.4800 84.4800 L 155.5200 83.5200 L 155.2800 83.5200 L 154.8000 83.0400 L 154.5600 83.0400 L 154.0800 82.5600 L 153.8400 82.5600 L 153.3600 82.0800 L 153.1200 82.0800 L 152.8800 81.8400 L 152.6400 81.8400 L 152.4000 81.6000 L 152.1600 81.6000 L 151.9200 81.3600 L 151.6800 81.3600 L 151.4400 81.1200 L 151.2000 81.1200 L 150.9600 80.8800 L 150.7200 80.8800 L 150.4800 80.6400 L 150.0000 80.6400 L 149.5200 80.1600 L 149.0400 80.1600 L 148.8000 79.9200 L 148.3200 79.9200 L 147.8400 79.4400 L 147.8400 79.2000 L 148.0800 78.9600 L 148.3200 78.9600 L 148.5600 78.7200 L 148.8000 78.7200 L 149.0400 78.4800 L 149.2800 78.4800 L 149.5200 78.2400 L 149.7600 78.2400 L 150.2400 77.7600 L 150.4800 77.7600 L 150.7200 77.5200 L 150.7200 76.8000 L 150.0000 76.0800 L 149.7600 76.0800 L 149.5200 75.8400 L 149.2800 75.8400 L 149.0400 75.6000 L 148.5600 75.6000 L 148.3200 75.3600 L 147.1200 75.3600 L 146.8800 75.6000 L 142.8000 75.6000 L 142.5600 75.3600 L 142.3200 75.3600 L 142.0800 75.1200 L 142.0800 73.2000 L 142.3200 72.9600 L 142.3200 72.4800 L 142.5600 72.2400 L 142.5600 71.2800 L 142.3200 71.0400 L 142.3200 70.5600 L 141.8400 70.0800 L 141.6000 70.0800 L 141.3600 69.8400 L 140.4000 69.8400 L 140.1600 70.0800 L 139.9200 70.0800 L 139.6800 70.3200 L 139.4400 70.3200 L 138.9600 70.8000 L 138.9600 71.0400 L 138.7200 71.2800 L 138.7200 71.5200 L 138.4800 71.7600 L 138.4800 72.0000 L 138.0000 72.4800 L 138.0000 72.7200 L 137.5200 73.2000 L 137.5200 73.6800 L 137.2800 73.9200 L 137.2800 74.4000 L 137.0400 74.6400 L 137.0400 74.8800 L 136.8000 75.1200 L 136.0800 75.1200 L 135.3600 74.4000 L 135.3600 73.2000 L 135.1200 72.9600 L 135.1200 71.7600 L 134.8800 71.5200 L 134.8800 70.0800 L 134.6400 69.8400 L 134.6400 69.3600 L 134.4000 69.1200 L 134.4000 68.8800 L 133.6800 68.1600 L 132.4800 68.1600 L 132.2400 68.4000 L 132.0000 68.4000 L 131.2800 69.1200 L 131.2800 69.3600 L 131.0400 69.6000 L 131.0400 70.0800 L 130.8000 70.3200 L 130.8000 74.1600 L 131.0400 74.4000 L 131.0400 75.1200 L 131.2800 75.3600 L 131.2800 76.5600 L 130.8000 77.0400 L 130.3200 77.0400 L 130.0800 76.8000 L 130.0800 76.5600 L 129.6000 76.0800 L 129.6000 75.8400 L 129.1200 75.3600 L 129.1200 75.1200 L 128.4000 74.4000 L 128.4000 74.1600 L 127.9200 73.6800 L 127.9200 73.4400 L 127.4400 72.9600 L 127.4400 72.7200 L 126.9600 72.2400 L 126.9600 72.0000 L 126.4800 71.5200 L 126.4800 71.2800 L 126.2400 71.0400 L 126.2400 70.8000 L 125.2800 69.8400 L 125.2800 69.6000 L 125.0400 69.3600 L 124.8000 69.3600 L 124.3200 68.8800 L 122.8800 68.8800 L 122.4000 69.3600 L 122.1600 69.3600 L 121.9200 69.6000 L 121.9200 69.8400 L 121.4400 70.3200 L 121.4400 70.8000 L 121.2000 71.0400 L 121.2000 71.5200 L 121.4400 71.7600 L 121.4400 72.2400 L 122.1600 72.9600 L 122.1600 73.2000 L 122.6400 73.6800 L 122.6400 73.9200 L 122.8800 74.1600 L 122.8800 74.4000 L 123.3600 74.8800 L 123.3600 75.1200 L 125.2800 77.0400 L 125.2800 78.4800 L 126.0000 79.2000 L 126.0000 79.4400 L 126.4800 79.9200 L 126.4800 80.4000 L 125.5200 81.3600 L 125.5200 81.6000 L 124.5600 82.5600 L 124.5600 82.8000 L 124.3200 83.0400 L 124.3200 86.4000 L 124.0800 86.6400 L 123.6000 86.6400 L 121.2000 84.2400 L 121.2000 84.0000 L 120.9600 83.7600 L 120.9600 83.5200 L 120.7200 83.2800 L 120.7200 83.0400 L 120.4800 82.8000 L 120.4800 82.5600 L 119.0400 81.1200 L 118.5600 81.1200 L 118.3200 80.8800 L 117.8400 80.8800 L 117.6000 80.6400 L 116.4000 80.6400 L 116.1600 80.4000 L 113.0400 80.4000 L 112.8000 80.1600 L 110.6400 80.1600 L 110.4000 79.9200 L 107.5200 79.9200 L 107.2800 80.1600 L 106.5600 80.1600 L 106.3200 80.4000 L 105.6000 80.4000 L 105.3600 80.6400 L 104.6400 80.6400 L 104.4000 80.8800 L 103.6800 80.8800 L 103.4400 81.1200 L 102.7200 81.1200 L 102.4800 81.3600 L 101.5200 81.3600 L 101.2800 81.1200 L 101.2800 79.6800 L 101.5200 79.4400 L 101.5200 77.7600 L 101.7600 77.5200 L 101.7600 76.3200 L 102.9600 75.1200 L 102.9600 74.1600 L 103.2000 73.9200 L 103.2000 72.0000 L 102.9600 71.7600 L 102.9600 71.2800 L 102.4800 70.8000 L 102.2400 70.8000 L 101.7600 70.3200 L 101.7600 69.1200 L 102.0000 68.8800 L 102.0000 67.4400 L 102.2400 67.2000 L 102.2400 66.0000 L 102.4800 65.7600 L 102.4800 64.3200 L 102.7200 64.0800 L 102.7200 62.8800 L 102.9600 62.6400 L 102.9600 62.1600 L 103.9200 61.2000 L 103.9200 60.7200 L 103.6800 60.4800 L 103.6800 60.2400 L 103.4400 60.0000 L 103.4400 58.0800 L 103.2000 57.8400 L 102.9600 57.8400 L 102.4800 57.3600 L 102.4800 56.8800 L 102.2400 56.6400 L 102.2400 56.4000 L 101.7600 55.9200 L 101.7600 55.6800 L 101.2800 55.2000 L 101.2800 54.7200 L 101.0400 54.4800 L 100.8000 54.4800 L 100.0800 53.7600 L 100.0800 53.0400 L 99.8400 52.8000 L 99.8400 52.5600 L 99.6000 52.3200 L 99.6000 51.8400 L 99.3600 51.6000 L 99.3600 51.3600 L 99.1200 51.1200 L 99.1200 50.8800 L 98.8800 50.6400 L 98.8800 50.4000 L 98.4000 49.9200 L 98.4000 49.6800 L 98.1600 49.4400 L 98.1600 48.9600 L 97.9200 48.7200 L 97.9200 48.4800 L 97.6800 48.2400 L 97.6800 48.0000 L 97.4400 47.7600 L 97.4400 47.2800 L 97.2000 47.0400 L 97.2000 46.8000 L 96.9600 46.5600 L 96.9600 46.3200 L 96.7200 46.0800 L 96.7200 45.8400 L 96.2400 45.3600 L 96.2400 45.1200 L 95.7600 44.6400 L 95.7600 44.4000 L 95.0400 43.6800 L 95.0400 43.4400 L 92.1600 40.5600 L 91.9200 40.5600 L 90.4800 39.1200 L 90.2400 39.1200 L 90.0000 38.8800 L 89.7600 38.8800 L 89.2800 38.4000 L 89.0400 38.4000 L 88.8000 38.1600 L 88.5600 38.1600 L 88.0800 37.6800 L 87.8400 37.6800 L 86.8800 36.7200 L 86.6400 36.7200 L 86.1600 36.2400 L 85.9200 36.2400 L 85.4400 35.7600 L 85.2000 35.7600 L 84.9600 35.5200 L 84.7200 35.5200 L 84.4800 35.2800 L 84.0000 35.2800 L 83.7600 35.0400 L 83.2800 35.0400 L 83.0400 34.8000 L 82.5600 34.8000 L 82.3200 34.5600 L 81.1200 34.5600 L 80.8800 34.3200 L 79.6800 34.3200 L 79.4400 34.0800 L 75.1200 34.0800 Z M 126.2400 76.0800 L 126.4800 75.8400 L 126.7200 75.8400 L 126.9600 76.0800 L 126.9600 76.3200 L 126.7200 76.5600 L 126.2400 76.0800 Z M 79.2000 206.1600 L 79.4400 205.9200 L 79.9200 205.9200 L 80.4000 206.4000 L 79.9200 206.8800 L 79.2000 206.1600 Z M 72.0000 205.4400 L 72.2400 205.2000 L 72.4800 205.2000 L 72.9600 205.6800 L 72.4800 206.1600 L 71.5200 206.1600 L 71.2800 205.9200 L 71.7600 205.4400 L 72.0000 205.4400 Z M 65.0400 84.9600 L 65.2800 84.7200 L 65.5200 84.7200 L 66.2400 85.4400 L 66.4800 85.4400 L 66.7200 85.6800 L 67.2000 85.6800 L 67.6800 86.1600 L 67.6800 86.4000 L 67.9200 86.6400 L 67.9200 88.3200 L 67.4400 88.8000 L 66.9600 88.8000 L 66.4800 89.2800 L 66.2400 89.0400 L 66.0000 89.0400 L 65.5200 88.5600 L 65.5200 88.0800 L 65.2800 87.8400 L 65.5200 87.6000 L 65.5200 86.4000 L 65.0400 85.9200 L 65.0400 84.9600 Z M 63.8400 201.6000 L 64.0800 201.3600 L 64.3200 201.3600 L 64.5600 201.6000 L 64.3200 201.8400 L 64.0800 201.8400 L 63.8400 201.6000 Z M 60.2400 204.0000 L 60.4800 203.7600 L 60.7200 203.5200 L 60.9600 203.7600 L 60.7200 204.0000 L 60.4800 204.2400 L 60.2400 204.0000 Z" fill="none" stroke="black" stroke-width="0.5" /></svg>