<?xml version="1.0" encoding="utf-8" ?>
<svg baseProfile="full" height="261" version="1.1" viewBox="0 0 189 261" width="189" xmlns="http://www.w3.org/2000/svg" xmlns:ev="http://www.w3.org/2001/xml-events" xmlns:xlink="http://www.w3.org/1999/xlink"><defs /><path d="M 96.9600 29.0400 L 95.5200 29.0400 L 95.2800 29.2800 L 94.5600 29.2800 L 94.3200 29.5200 L 93.8400 29.5200 L 93.6000 29.7600 L 93.3600 29.7600 L 93.1200 30.0000 L 92.6400 30.0000 L 92.4000 30.2400 L 92.1600 30.2400 L 91.9200 30.4800 L 91.4400 30.4800 L 91.2000 30.7200 L 90.9600 30.7200 L 90.7200 30.9600 L 90.2400 30.9600 L 90.0000 31.2000 L 89.7600 31.2000 L 89.5200 31.4400 L 89.2800 31.4400 L 89.0400 31.6800 L 88.8000 31.6800 L 88.5600 31.9200 L 88.3200 31.9200 L 88.0800 32.1600 L 87.8400 32.1600 L 87.6000 32.4000 L 87.3600 32.4000 L 86.8800 32.8800 L 86.6400 32.8800 L 84.4800 35.0400 L 84.4800 35.2800 L 84.0000 35.7600 L 84.0000 36.0000 L 83.7600 36.2400 L 83.7600 36.4800 L 83.5200 36.7200 L 83.5200 37.2000 L 83.2800 37.4400 L 83.2800 38.1600 L 83.0400 38.4000 L 83.0400 39.8400 L 82.8000 40.0800 L 82.8000 46.0800 L 82.5600 46.3200 L 82.5600 46.8000 L 82.3200 47.0400 L 82.0800 47.0400 L 81.8400 47.2800 L 81.6000 47.2800 L 81.1200 47.7600 L 81.1200 48.0000 L 80.6400 48.4800 L 80.6400 48.9600 L 80.4000 49.2000 L 80.4000 49.4400 L 80.1600 49.6800 L 80.1600 50.1600 L 79.9200 50.4000 L 79.9200 51.6000 L 79.6800 51.8400 L 79.6800 54.4800 L 79.9200 54.7200 L 79.9200 55.2000 L 80.4000 55.6800 L 80.4000 55.9200 L 82.0800 57.6000 L 82.3200 57.6000 L 82.5600 57.8400 L 82.8000 57.8400 L 83.2800 58.3200 L 83.5200 58.3200 L 84.2400 59.0400 L 84.2400 59.5200 L 84.4800 59.7600 L 84.4800 65.7600 L 84.7200 66.0000 L 84.7200 67.4400 L 84.4800 67.6800 L 84.4800 69.1200 L 83.5200 70.0800 L 83.2800 70.0800 L 83.0400 70.3200 L 82.8000 70.3200 L 82.5600 70.5600 L 82.3200 70.5600 L 82.0800 70.8000 L 78.9600 70.8000 L 78.7200 71.0400 L 78.2400 71.0400 L 78.0000 71.2800 L 77.7600 71.2800 L 77.5200 71.5200 L 74.8800 71.5200 L 74.6400 71.7600 L 73.2000 71.7600 L 72.9600 72.0000 L 72.0000 72.0000 L 71.7600 72.2400 L 71.2800 72.2400 L 71.0400 72.4800 L 70.5600 72.4800 L 70.3200 72.7200 L 69.8400 72.7200 L 69.6000 72.9600 L 69.3600 72.9600 L 68.8800 73.4400 L 68.6400 73.4400 L 68.4000 73.6800 L 67.9200 73.6800 L 67.6800 73.9200 L 66.4800 73.9200 L 66.2400 74.1600 L 66.0000 74.1600 L 65.7600 74.4000 L 65.7600 74.6400 L 64.8000 75.6000 L 64.5600 75.6000 L 64.3200 75.8400 L 64.0800 75.8400 L 63.8400 76.0800 L 63.6000 76.0800 L 63.3600 76.3200 L 63.1200 76.3200 L 62.8800 76.5600 L 62.6400 76.5600 L 62.4000 76.8000 L 61.9200 76.8000 L 61.6800 77.0400 L 61.4400 77.0400 L 61.2000 77.2800 L 60.9600 77.2800 L 60.7200 77.5200 L 60.4800 77.5200 L 60.2400 77.7600 L 60.0000 77.7600 L 59.7600 78.0000 L 59.5200 78.0000 L 59.2800 78.2400 L 58.8000 78.2400 L 58.5600 78.4800 L 58.0800 78.4800 L 57.8400 78.7200 L 56.8800 78.7200 L 56.6400 78.9600 L 55.6800 78.9600 L 55.4400 79.2000 L 54.7200 79.2000 L 54.4800 79.4400 L 53.7600 79.4400 L 53.5200 79.6800 L 53.0400 79.6800 L 52.8000 79.9200 L 52.5600 79.9200 L 52.3200 80.1600 L 52.0800 80.1600 L 51.8400 80.4000 L 51.6000 80.4000 L 51.1200 80.8800 L 50.8800 80.8800 L 50.6400 81.1200 L 50.4000 81.1200 L 50.1600 81.3600 L 49.9200 81.3600 L 49.6800 81.6000 L 49.4400 81.6000 L 48.9600 82.0800 L 48.7200 82.0800 L 48.2400 82.5600 L 48.0000 82.5600 L 47.7600 82.8000 L 47.5200 82.8000 L 46.8000 83.5200 L 46.5600 83.5200 L 45.8400 84.2400 L 45.6000 84.2400 L 43.9200 85.9200 L 43.6800 85.9200 L 43.6800 86.1600 L 42.2400 87.6000 L 42.2400 87.8400 L 41.7600 88.3200 L 41.7600 88.5600 L 41.2800 89.0400 L 41.2800 89.2800 L 40.8000 89.7600 L 40.8000 90.0000 L 40.5600 90.2400 L 40.5600 90.4800 L 40.3200 90.7200 L 40.3200 90.9600 L 39.8400 91.4400 L 39.8400 91.6800 L 39.6000 91.9200 L 39.6000 92.1600 L 39.3600 92.4000 L 39.3600 92.8800 L 39.1200 93.1200 L 39.1200 93.3600 L 38.8800 93.6000 L 38.8800 94.3200 L 38.6400 94.5600 L 38.6400 94.8000 L 37.9200 95.5200 L 37.6800 95.5200 L 37.4400 95.7600 L 37.2000 95.7600 L 36.7200 96.2400 L 36.2400 96.2400 L 35.7600 96.7200 L 35.5200 96.7200 L 35.0400 97.2000 L 34.8000 97.2000 L 34.3200 97.6800 L 34.0800 97.6800 L 33.6000 98.1600 L 33.3600 98.1600 L 32.1600 99.3600 L 31.9200 99.3600 L 28.3200 102.9600 L 28.3200 103.2000 L 27.6000 103.9200 L 27.6000 104.1600 L 26.8800 104.8800 L 26.8800 105.1200 L 26.1600 105.8400 L 26.1600 106.0800 L 25.6800 106.5600 L 25.6800 106.8000 L 24.4800 108.0000 L 24.4800 108.2400 L 23.7600 108.9600 L 23.7600 109.2000 L 22.8000 110.1600 L 22.8000 110.4000 L 21.8400 111.3600 L 21.8400 111.6000 L 21.1200 112.3200 L 21.1200 112.5600 L 20.1600 113.5200 L 20.1600 113.7600 L 19.2000 114.7200 L 19.2000 114.9600 L 18.4800 115.6800 L 18.4800 115.9200 L 18.0000 116.4000 L 18.0000 116.6400 L 17.5200 117.1200 L 17.5200 117.3600 L 17.0400 117.8400 L 17.0400 118.0800 L 16.8000 118.3200 L 16.8000 118.5600 L 16.3200 119.0400 L 16.3200 119.2800 L 16.0800 119.5200 L 16.0800 119.7600 L 15.6000 120.2400 L 15.6000 120.4800 L 15.3600 120.7200 L 15.3600 120.9600 L 15.1200 121.2000 L 15.1200 121.6800 L 14.8800 121.9200 L 14.8800 122.1600 L 14.4000 122.6400 L 14.4000 123.1200 L 14.1600 123.3600 L 14.1600 123.8400 L 13.9200 124.0800 L 13.9200 125.5200 L 13.6800 125.7600 L 13.6800 126.9600 L 13.9200 127.2000 L 13.9200 127.9200 L 14.1600 128.1600 L 14.1600 128.4000 L 14.4000 128.6400 L 14.4000 129.1200 L 14.6400 129.3600 L 14.6400 129.8400 L 14.8800 130.0800 L 14.8800 130.3200 L 15.1200 130.5600 L 15.1200 131.5200 L 15.3600 131.7600 L 15.3600 132.0000 L 15.6000 132.2400 L 15.6000 132.7200 L 15.8400 132.9600 L 15.8400 133.2000 L 16.0800 133.4400 L 16.0800 133.6800 L 16.3200 133.9200 L 16.3200 134.1600 L 16.5600 134.4000 L 16.5600 134.6400 L 16.8000 134.8800 L 16.8000 135.3600 L 17.2800 135.8400 L 17.2800 136.0800 L 17.7600 136.5600 L 17.7600 136.8000 L 18.0000 137.0400 L 18.0000 137.2800 L 18.2400 137.5200 L 18.2400 137.7600 L 18.4800 138.0000 L 18.4800 138.7200 L 18.7200 138.9600 L 18.7200 139.2000 L 18.9600 139.4400 L 18.9600 139.9200 L 19.2000 140.1600 L 19.2000 140.4000 L 19.4400 140.6400 L 19.4400 140.8800 L 19.6800 141.1200 L 19.6800 141.6000 L 20.1600 142.0800 L 20.1600 142.8000 L 20.6400 143.2800 L 20.6400 143.7600 L 20.8800 144.0000 L 20.8800 144.2400 L 21.1200 144.4800 L 21.1200 144.7200 L 21.3600 144.9600 L 21.3600 145.4400 L 21.6000 145.6800 L 21.6000 145.9200 L 21.8400 146.1600 L 21.8400 146.6400 L 22.3200 147.1200 L 22.3200 147.6000 L 22.8000 148.0800 L 22.8000 148.3200 L 23.0400 148.5600 L 23.0400 148.8000 L 23.5200 149.2800 L 23.5200 149.5200 L 23.7600 149.7600 L 23.7600 150.0000 L 24.0000 150.2400 L 24.0000 150.4800 L 24.2400 150.7200 L 24.2400 150.9600 L 24.7200 151.4400 L 24.7200 151.6800 L 25.2000 152.1600 L 25.2000 152.4000 L 25.6800 152.8800 L 25.6800 153.1200 L 26.1600 153.6000 L 26.1600 153.8400 L 26.6400 154.3200 L 26.6400 154.5600 L 27.1200 155.0400 L 27.1200 155.2800 L 27.3600 155.5200 L 27.3600 155.7600 L 28.5600 156.9600 L 28.5600 157.2000 L 29.5200 158.1600 L 29.5200 158.4000 L 30.4800 159.3600 L 30.4800 159.6000 L 30.9600 160.0800 L 30.9600 160.3200 L 32.1600 161.5200 L 32.1600 161.7600 L 32.8800 162.4800 L 32.8800 162.7200 L 33.3600 163.2000 L 33.3600 163.4400 L 34.8000 164.8800 L 34.8000 165.1200 L 38.1600 168.4800 L 38.4000 168.4800 L 38.8800 168.9600 L 38.8800 169.2000 L 39.1200 169.4400 L 39.1200 169.6800 L 39.8400 170.4000 L 39.8400 170.6400 L 40.0800 170.8800 L 40.0800 171.1200 L 40.3200 171.3600 L 40.3200 171.6000 L 40.5600 171.8400 L 40.5600 172.3200 L 40.8000 172.5600 L 40.8000 172.8000 L 41.2800 173.2800 L 41.2800 173.5200 L 42.4800 174.7200 L 42.4800 174.9600 L 42.9600 175.4400 L 43.2000 175.4400 L 44.1600 176.4000 L 44.4000 176.4000 L 44.6400 176.6400 L 44.8800 176.6400 L 45.1200 176.8800 L 45.3600 176.8800 L 45.6000 177.1200 L 46.0800 177.1200 L 46.3200 177.3600 L 48.2400 177.3600 L 48.4800 177.6000 L 50.6400 177.6000 L 50.8800 177.8400 L 51.3600 177.8400 L 51.6000 178.0800 L 51.8400 178.0800 L 52.3200 178.5600 L 52.5600 178.5600 L 53.7600 179.7600 L 53.7600 180.0000 L 54.0000 180.2400 L 54.0000 180.4800 L 54.7200 181.2000 L 54.7200 181.4400 L 55.4400 182.1600 L 55.4400 184.0800 L 55.2000 184.3200 L 55.2000 185.7600 L 54.9600 186.0000 L 54.9600 186.4800 L 54.7200 186.7200 L 54.7200 187.4400 L 54.4800 187.6800 L 54.4800 189.1200 L 54.2400 189.3600 L 54.2400 191.2800 L 54.0000 191.5200 L 54.0000 193.6800 L 53.7600 193.9200 L 53.7600 195.8400 L 53.5200 196.0800 L 53.5200 212.1600 L 53.7600 212.4000 L 53.7600 214.8000 L 54.0000 215.0400 L 54.0000 218.1600 L 54.2400 218.4000 L 54.2400 220.3200 L 54.4800 220.5600 L 54.4800 229.4400 L 54.7200 229.6800 L 54.7200 231.6000 L 54.9600 231.8400 L 54.9600 232.3200 L 54.7200 232.5600 L 54.7200 237.1200 L 54.9600 237.3600 L 54.9600 240.2400 L 55.2000 240.4800 L 55.2000 241.4400 L 55.6800 241.9200 L 55.6800 242.4000 L 55.9200 242.6400 L 55.6800 242.8800 L 55.6800 244.5600 L 55.4400 244.8000 L 55.4400 245.2800 L 55.6800 245.5200 L 55.6800 245.7600 L 55.4400 246.0000 L 55.4400 246.7200 L 55.6800 246.9600 L 55.6800 247.4400 L 55.9200 247.6800 L 55.9200 248.6400 L 55.6800 248.8800 L 55.6800 252.7200 L 55.9200 252.9600 L 55.9200 254.1600 L 55.6800 254.4000 L 55.6800 256.0800 L 55.9200 256.3200 L 55.9200 256.5600 L 57.3600 258.0000 L 57.3600 258.2400 L 58.3200 259.2000 L 93.1200 259.2000 L 93.1200 258.7200 L 93.3600 258.4800 L 94.5600 258.4800 L 94.8000 258.2400 L 95.0400 258.2400 L 95.2800 258.4800 L 95.7600 258.4800 L 96.0000 258.7200 L 96.7200 258.7200 L 97.9200 257.5200 L 98.6400 257.5200 L 98.8800 257.2800 L 102.2400 257.2800 L 102.4800 257.0400 L 105.1200 257.0400 L 105.3600 256.8000 L 107.0400 256.8000 L 107.2800 256.5600 L 108.4800 256.5600 L 108.7200 256.3200 L 109.9200 256.3200 L 110.1600 256.0800 L 110.8800 256.0800 L 111.1200 255.8400 L 112.3200 255.8400 L 112.5600 255.6000 L 113.7600 255.6000 L 114.0000 255.3600 L 114.9600 255.3600 L 115.2000 255.1200 L 115.9200 255.1200 L 116.1600 254.8800 L 116.6400 254.8800 L 116.8800 254.6400 L 117.8400 254.6400 L 118.0800 254.4000 L 118.3200 254.4000 L 118.5600 254.1600 L 119.2800 254.1600 L 119.5200 253.9200 L 120.2400 253.9200 L 120.4800 253.6800 L 121.2000 253.6800 L 121.4400 253.4400 L 121.6800 253.4400 L 121.9200 253.2000 L 122.4000 253.2000 L 122.6400 252.9600 L 123.1200 252.9600 L 123.3600 252.7200 L 124.3200 252.7200 L 124.5600 252.4800 L 125.5200 252.4800 L 125.7600 252.2400 L 126.2400 252.2400 L 126.4800 252.0000 L 127.2000 252.0000 L 127.4400 251.7600 L 127.9200 251.7600 L 128.1600 251.5200 L 128.6400 251.5200 L 128.8800 251.2800 L 129.3600 251.2800 L 129.6000 251.0400 L 130.0800 251.0400 L 130.3200 250.8000 L 130.8000 250.8000 L 131.0400 250.5600 L 131.5200 250.5600 L 131.7600 250.3200 L 132.7200 250.3200 L 132.9600 250.0800 L 133.9200 250.0800 L 134.1600 249.8400 L 134.6400 249.8400 L 134.8800 249.6000 L 135.1200 249.6000 L 135.3600 249.3600 L 136.0800 249.3600 L 136.3200 249.1200 L 137.0400 249.1200 L 137.2800 248.8800 L 138.2400 248.8800 L 138.4800 248.6400 L 138.7200 248.6400 L 139.9200 247.4400 L 140.4000 247.4400 L 140.6400 247.2000 L 141.6000 247.2000 L 141.8400 246.9600 L 142.0800 246.9600 L 142.0800 246.0000 L 141.8400 245.7600 L 141.8400 245.5200 L 141.3600 245.0400 L 141.3600 244.8000 L 140.6400 244.0800 L 140.6400 243.8400 L 140.4000 243.6000 L 140.4000 243.3600 L 140.1600 243.1200 L 140.1600 242.6400 L 139.9200 242.4000 L 139.9200 242.1600 L 139.6800 241.9200 L 139.6800 241.4400 L 139.4400 241.2000 L 139.4400 235.4400 L 139.2000 235.2000 L 139.2000 233.7600 L 138.9600 233.5200 L 138.9600 232.3200 L 138.7200 232.0800 L 138.7200 230.8800 L 138.4800 230.6400 L 138.4800 229.9200 L 138.2400 229.6800 L 138.2400 228.4800 L 138.0000 228.2400 L 138.0000 227.7600 L 137.7600 227.5200 L 137.7600 226.8000 L 137.5200 226.5600 L 137.5200 225.3600 L 137.2800 225.1200 L 137.2800 224.6400 L 137.0400 224.4000 L 137.0400 223.6800 L 136.8000 223.4400 L 136.8000 222.7200 L 136.5600 222.4800 L 136.5600 221.5200 L 136.3200 221.2800 L 136.3200 220.5600 L 136.0800 220.3200 L 136.0800 219.1200 L 135.8400 218.8800 L 135.8400 218.6400 L 135.6000 218.4000 L 135.6000 217.9200 L 135.3600 217.6800 L 135.3600 217.4400 L 135.1200 217.2000 L 135.1200 216.9600 L 134.8800 216.7200 L 134.8800 216.0000 L 134.6400 215.7600 L 134.6400 215.5200 L 134.4000 215.2800 L 134.4000 214.3200 L 134.1600 214.0800 L 134.1600 213.8400 L 133.9200 213.6000 L 133.9200 213.3600 L 133.6800 213.1200 L 133.6800 211.2000 L 133.4400 210.9600 L 133.4400 210.4800 L 133.2000 210.2400 L 133.2000 209.7600 L 132.9600 209.5200 L 132.9600 208.8000 L 132.7200 208.5600 L 132.7200 207.1200 L 132.4800 206.8800 L 132.4800 201.3600 L 132.2400 201.1200 L 132.2400 199.4400 L 132.0000 199.2000 L 132.0000 197.0400 L 131.7600 196.8000 L 131.7600 196.0800 L 131.5200 195.8400 L 131.5200 194.4000 L 131.2800 194.1600 L 131.2800 193.6800 L 131.0400 193.4400 L 131.0400 192.7200 L 130.8000 192.4800 L 130.8000 190.5600 L 130.5600 190.3200 L 130.5600 189.3600 L 130.3200 189.1200 L 130.3200 186.4800 L 130.0800 186.2400 L 130.0800 185.0400 L 129.8400 184.8000 L 129.8400 183.8400 L 129.6000 183.6000 L 129.6000 182.4000 L 129.3600 182.1600 L 129.3600 181.2000 L 129.1200 180.9600 L 129.1200 179.2800 L 128.8800 179.0400 L 128.8800 178.0800 L 128.6400 177.8400 L 128.6400 177.3600 L 128.4000 177.1200 L 128.4000 176.6400 L 128.1600 176.4000 L 128.1600 175.6800 L 127.9200 175.4400 L 127.9200 175.2000 L 127.6800 174.9600 L 127.6800 174.7200 L 127.4400 174.4800 L 127.4400 173.7600 L 127.2000 173.5200 L 127.2000 173.2800 L 127.6800 172.8000 L 131.2800 172.8000 L 131.5200 172.5600 L 132.2400 172.5600 L 132.4800 172.3200 L 132.9600 172.3200 L 133.2000 172.0800 L 133.4400 172.0800 L 133.6800 171.8400 L 134.1600 171.8400 L 134.8800 171.1200 L 135.1200 171.1200 L 137.2800 168.9600 L 137.5200 168.9600 L 138.0000 168.4800 L 138.2400 168.4800 L 139.2000 167.5200 L 139.4400 167.5200 L 139.9200 167.0400 L 140.1600 167.0400 L 140.6400 166.5600 L 140.8800 166.5600 L 141.1200 166.3200 L 141.3600 166.3200 L 141.8400 165.8400 L 142.0800 165.8400 L 142.3200 165.6000 L 142.5600 165.6000 L 143.0400 165.1200 L 143.2800 165.1200 L 143.7600 164.6400 L 144.0000 164.6400 L 144.2400 164.4000 L 144.4800 164.4000 L 144.9600 163.9200 L 145.2000 163.9200 L 145.6800 163.4400 L 145.9200 163.4400 L 146.6400 162.7200 L 146.8800 162.7200 L 147.3600 162.2400 L 147.6000 162.2400 L 148.5600 161.2800 L 148.8000 161.2800 L 149.2800 160.8000 L 149.5200 160.8000 L 150.0000 160.3200 L 150.2400 160.3200 L 150.9600 159.6000 L 151.2000 159.6000 L 151.6800 159.1200 L 151.9200 159.1200 L 152.6400 158.4000 L 152.8800 158.4000 L 154.8000 156.4800 L 155.0400 156.4800 L 156.2400 155.2800 L 156.4800 155.2800 L 160.3200 151.4400 L 160.3200 151.2000 L 162.7200 148.8000 L 162.7200 148.5600 L 163.4400 147.8400 L 163.4400 147.6000 L 163.9200 147.1200 L 164.1600 147.1200 L 164.4000 146.8800 L 164.6400 146.8800 L 166.3200 145.2000 L 166.3200 144.9600 L 168.4800 142.8000 L 168.4800 142.5600 L 169.4400 141.6000 L 169.4400 141.3600 L 169.9200 140.8800 L 169.9200 140.6400 L 170.4000 140.1600 L 170.4000 139.9200 L 170.6400 139.6800 L 170.6400 139.4400 L 171.1200 138.9600 L 171.1200 138.7200 L 171.3600 138.4800 L 171.3600 138.2400 L 171.6000 138.0000 L 171.6000 137.7600 L 171.8400 137.5200 L 171.8400 137.2800 L 172.0800 137.0400 L 172.0800 136.8000 L 172.3200 136.5600 L 172.3200 136.3200 L 172.5600 136.0800 L 172.5600 135.6000 L 172.8000 135.3600 L 172.8000 134.6400 L 173.0400 134.4000 L 173.0400 131.0400 L 172.8000 130.8000 L 172.8000 130.3200 L 172.5600 130.0800 L 172.5600 129.8400 L 172.0800 129.3600 L 172.0800 129.1200 L 171.6000 128.6400 L 171.6000 128.1600 L 171.1200 127.6800 L 171.1200 127.4400 L 170.8800 127.2000 L 170.8800 126.7200 L 170.6400 126.4800 L 170.6400 126.2400 L 170.4000 126.0000 L 170.4000 125.7600 L 169.9200 125.2800 L 169.9200 125.0400 L 169.6800 124.8000 L 169.6800 124.5600 L 169.4400 124.3200 L 169.4400 124.0800 L 169.2000 123.8400 L 169.2000 123.6000 L 168.7200 123.1200 L 168.7200 122.8800 L 168.2400 122.4000 L 168.2400 122.1600 L 167.7600 121.6800 L 167.7600 121.4400 L 167.5200 121.2000 L 167.5200 120.9600 L 167.0400 120.4800 L 167.0400 120.2400 L 166.3200 119.5200 L 166.3200 119.2800 L 166.0800 119.0400 L 166.0800 118.8000 L 165.3600 118.0800 L 165.3600 117.8400 L 164.8800 117.3600 L 164.8800 117.1200 L 164.6400 116.8800 L 164.6400 116.6400 L 164.4000 116.4000 L 164.4000 116.1600 L 164.1600 115.9200 L 164.1600 115.6800 L 163.6800 115.2000 L 163.6800 114.9600 L 163.4400 114.7200 L 163.4400 114.4800 L 162.9600 114.0000 L 162.9600 113.7600 L 162.4800 113.2800 L 162.4800 113.0400 L 161.7600 112.3200 L 161.7600 112.0800 L 160.8000 111.1200 L 160.8000 110.8800 L 159.1200 109.2000 L 158.8800 109.2000 L 157.9200 108.2400 L 157.6800 108.2400 L 156.7200 107.2800 L 156.4800 107.2800 L 156.0000 106.8000 L 155.7600 106.8000 L 155.5200 106.5600 L 155.2800 106.5600 L 154.8000 106.0800 L 154.5600 106.0800 L 154.0800 105.6000 L 153.8400 105.6000 L 153.1200 104.8800 L 152.8800 104.8800 L 152.6400 104.6400 L 152.4000 104.6400 L 150.7200 102.9600 L 150.7200 102.7200 L 150.4800 102.4800 L 150.4800 102.2400 L 150.2400 102.0000 L 150.2400 101.7600 L 150.0000 101.5200 L 150.0000 101.2800 L 149.7600 101.0400 L 149.7600 100.8000 L 149.5200 100.5600 L 149.5200 100.0800 L 149.2800 99.8400 L 149.2800 99.6000 L 149.0400 99.3600 L 149.0400 98.8800 L 148.8000 98.6400 L 148.8000 98.4000 L 148.5600 98.1600 L 148.5600 97.6800 L 148.3200 97.4400 L 148.3200 97.2000 L 147.8400 96.7200 L 147.8400 96.4800 L 147.3600 96.0000 L 147.3600 95.7600 L 146.8800 95.2800 L 146.8800 95.0400 L 146.1600 94.3200 L 146.1600 94.0800 L 142.8000 90.7200 L 142.5600 90.7200 L 141.8400 90.0000 L 141.6000 90.0000 L 141.1200 89.5200 L 140.8800 89.5200 L 140.1600 88.8000 L 139.9200 88.8000 L 139.4400 88.3200 L 139.2000 88.3200 L 138.7200 87.8400 L 138.4800 87.8400 L 138.0000 87.3600 L 137.7600 87.3600 L 137.5200 87.1200 L 137.2800 87.1200 L 137.0400 86.8800 L 136.8000 86.8800 L 136.5600 86.6400 L 136.3200 86.6400 L 136.0800 86.4000 L 135.8400 86.4000 L 135.6000 86.1600 L 135.3600 86.1600 L 135.1200 85.9200 L 134.6400 85.9200 L 134.4000 85.6800 L 133.6800 85.6800 L 133.4400 85.4400 L 133.2000 85.4400 L 132.9600 85.2000 L 132.4800 85.2000 L 132.2400 84.9600 L 132.0000 84.9600 L 131.7600 84.7200 L 131.5200 84.7200 L 130.8000 84.0000 L 130.5600 84.0000 L 129.6000 83.0400 L 129.3600 83.0400 L 128.8800 82.5600 L 128.6400 82.5600 L 128.4000 82.3200 L 128.1600 82.3200 L 127.9200 82.0800 L 127.6800 82.0800 L 127.4400 81.8400 L 127.2000 81.8400 L 126.9600 81.6000 L 126.4800 81.6000 L 125.0400 80.1600 L 124.8000 80.1600 L 124.5600 79.9200 L 124.3200 79.9200 L 124.0800 79.6800 L 123.8400 79.6800 L 123.6000 79.4400 L 123.1200 79.4400 L 122.8800 79.2000 L 122.6400 79.2000 L 121.2000 77.7600 L 120.9600 77.7600 L 120.2400 77.0400 L 120.0000 77.0400 L 119.5200 76.5600 L 119.0400 76.5600 L 118.8000 76.3200 L 118.3200 76.3200 L 118.0800 76.0800 L 117.6000 76.0800 L 117.3600 75.8400 L 116.6400 75.8400 L 116.4000 75.6000 L 115.6800 75.6000 L 115.4400 75.3600 L 114.2400 75.3600 L 114.0000 75.1200 L 113.5200 75.1200 L 113.2800 74.8800 L 112.3200 74.8800 L 112.0800 74.6400 L 111.3600 74.6400 L 111.1200 74.4000 L 110.4000 74.4000 L 110.1600 74.1600 L 109.9200 74.1600 L 109.6800 73.9200 L 109.2000 73.9200 L 108.9600 73.6800 L 108.7200 73.6800 L 108.0000 72.9600 L 108.0000 72.7200 L 107.7600 72.4800 L 107.7600 70.0800 L 108.0000 69.8400 L 108.0000 69.6000 L 108.4800 69.1200 L 108.4800 68.8800 L 108.9600 68.4000 L 108.9600 68.1600 L 109.2000 67.9200 L 109.2000 67.6800 L 109.4400 67.4400 L 109.4400 66.9600 L 109.6800 66.7200 L 109.6800 66.2400 L 109.9200 66.0000 L 109.9200 65.2800 L 110.1600 65.0400 L 110.1600 64.8000 L 110.4000 64.5600 L 110.4000 64.3200 L 110.6400 64.0800 L 110.6400 63.6000 L 110.8800 63.3600 L 110.8800 63.1200 L 111.1200 62.8800 L 111.1200 62.1600 L 111.3600 61.9200 L 111.3600 61.2000 L 111.6000 60.9600 L 111.6000 60.0000 L 111.8400 59.7600 L 111.8400 59.2800 L 112.0800 59.0400 L 112.0800 58.3200 L 112.3200 58.0800 L 112.3200 56.8800 L 112.5600 56.6400 L 112.5600 55.6800 L 112.8000 55.4400 L 112.8000 50.6400 L 112.5600 50.4000 L 112.5600 48.7200 L 112.3200 48.4800 L 112.3200 44.1600 L 112.0800 43.9200 L 112.0800 43.6800 L 111.8400 43.4400 L 111.8400 42.7200 L 111.6000 42.4800 L 111.6000 41.5200 L 111.3600 41.2800 L 111.3600 40.5600 L 111.1200 40.3200 L 111.1200 39.6000 L 110.8800 39.3600 L 110.8800 38.8800 L 110.6400 38.6400 L 110.6400 38.4000 L 110.4000 38.1600 L 110.4000 37.9200 L 110.1600 37.6800 L 110.1600 37.4400 L 109.9200 37.2000 L 109.9200 36.9600 L 109.4400 36.4800 L 109.4400 36.2400 L 109.2000 36.0000 L 109.2000 35.7600 L 108.7200 35.2800 L 108.7200 35.0400 L 108.2400 34.5600 L 108.2400 34.3200 L 107.2800 33.3600 L 107.2800 33.1200 L 106.3200 32.1600 L 106.0800 32.1600 L 105.1200 31.2000 L 104.8800 31.2000 L 104.6400 30.9600 L 104.4000 30.9600 L 104.1600 30.7200 L 103.9200 30.7200 L 103.6800 30.4800 L 103.4400 30.4800 L 103.2000 30.2400 L 102.9600 30.2400 L 102.7200 30.0000 L 102.4800 30.0000 L 102.2400 29.7600 L 102.0000 29.7600 L 101.7600 29.5200 L 101.0400 29.5200 L 100.8000 29.2800 L 100.3200 29.2800 L 100.0800 29.0400 L 98.1600 29.0400 L 97.9200 28.8000 L 97.2000 28.8000 L 96.9600 29.0400 Z M 127.6800 108.2400 L 129.6000 108.2400 L 130.3200 108.9600 L 130.5600 108.9600 L 131.0400 109.4400 L 131.2800 109.4400 L 132.7200 110.8800 L 132.7200 111.1200 L 133.2000 111.6000 L 133.2000 111.8400 L 134.4000 113.0400 L 134.6400 113.0400 L 135.6000 114.0000 L 135.8400 114.0000 L 139.9200 118.0800 L 139.9200 118.3200 L 141.1200 119.5200 L 141.1200 119.7600 L 142.3200 120.9600 L 142.3200 121.2000 L 142.8000 121.6800 L 142.8000 121.9200 L 145.6800 124.8000 L 145.6800 125.0400 L 145.9200 125.2800 L 146.1600 125.2800 L 147.6000 126.7200 L 147.8400 126.7200 L 148.8000 127.6800 L 149.0400 127.6800 L 149.5200 128.1600 L 149.7600 128.1600 L 150.0000 128.4000 L 150.2400 128.4000 L 150.7200 128.8800 L 150.9600 128.8800 L 151.4400 129.3600 L 151.6800 129.3600 L 153.6000 131.2800 L 153.6000 132.4800 L 153.3600 132.7200 L 153.3600 132.9600 L 153.1200 133.2000 L 153.1200 133.6800 L 152.8800 133.9200 L 152.8800 134.1600 L 152.6400 134.4000 L 152.6400 134.6400 L 152.4000 134.8800 L 152.4000 135.1200 L 151.9200 135.6000 L 151.9200 135.8400 L 151.2000 136.5600 L 151.2000 136.8000 L 150.9600 137.0400 L 150.9600 137.2800 L 149.5200 138.7200 L 149.5200 138.9600 L 148.8000 139.6800 L 148.8000 139.9200 L 148.3200 140.4000 L 148.3200 140.6400 L 148.0800 140.8800 L 148.0800 141.1200 L 147.6000 141.6000 L 147.6000 141.8400 L 147.3600 142.0800 L 147.3600 142.3200 L 147.1200 142.5600 L 147.1200 142.8000 L 146.8800 143.0400 L 146.8800 143.2800 L 146.6400 143.5200 L 146.6400 144.0000 L 146.4000 144.2400 L 146.4000 144.4800 L 146.1600 144.7200 L 146.1600 145.2000 L 145.9200 145.4400 L 145.9200 145.6800 L 145.6800 145.9200 L 145.6800 146.1600 L 145.4400 146.4000 L 145.4400 146.6400 L 145.2000 146.8800 L 145.2000 147.1200 L 144.0000 148.3200 L 144.0000 148.5600 L 143.5200 149.0400 L 143.2800 149.0400 L 141.3600 150.9600 L 141.1200 150.9600 L 139.9200 152.1600 L 139.6800 152.1600 L 139.2000 152.6400 L 138.9600 152.6400 L 138.4800 153.1200 L 138.2400 153.1200 L 138.0000 153.3600 L 138.0000 153.6000 L 137.7600 153.8400 L 137.5200 153.8400 L 132.9600 158.4000 L 132.7200 158.4000 L 132.0000 159.1200 L 131.7600 159.1200 L 131.0400 159.8400 L 130.5600 159.8400 L 130.3200 160.0800 L 129.8400 160.0800 L 129.6000 159.8400 L 128.8800 159.8400 L 128.6400 159.6000 L 128.1600 159.6000 L 127.6800 159.1200 L 127.4400 159.1200 L 126.7200 158.4000 L 126.4800 158.4000 L 124.5600 156.4800 L 124.5600 156.2400 L 124.8000 156.0000 L 125.0400 156.0000 L 125.2800 155.7600 L 126.7200 155.7600 L 127.6800 154.8000 L 127.6800 152.8800 L 127.4400 152.6400 L 127.4400 150.0000 L 127.2000 149.7600 L 127.2000 148.3200 L 126.9600 148.0800 L 126.9600 145.4400 L 126.7200 145.2000 L 126.7200 144.2400 L 126.4800 144.0000 L 126.4800 142.3200 L 126.2400 142.0800 L 126.2400 141.6000 L 126.0000 141.3600 L 126.0000 141.1200 L 125.5200 140.6400 L 125.5200 140.4000 L 125.0400 139.9200 L 125.0400 139.6800 L 124.5600 139.2000 L 124.5600 138.9600 L 124.3200 138.7200 L 124.3200 138.4800 L 124.0800 138.2400 L 124.0800 138.0000 L 123.8400 137.7600 L 123.8400 136.3200 L 124.0800 136.0800 L 124.0800 135.3600 L 124.3200 135.1200 L 124.3200 134.6400 L 124.5600 134.4000 L 124.5600 133.4400 L 124.8000 133.2000 L 124.8000 132.9600 L 125.0400 132.7200 L 125.0400 132.0000 L 125.2800 131.7600 L 125.2800 131.5200 L 125.5200 131.2800 L 125.5200 130.5600 L 125.7600 130.3200 L 125.7600 129.6000 L 126.0000 129.3600 L 126.0000 128.4000 L 126.2400 128.1600 L 126.2400 127.2000 L 126.4800 126.9600 L 126.4800 126.2400 L 126.7200 126.0000 L 126.7200 125.7600 L 126.9600 125.5200 L 126.9600 125.2800 L 127.2000 125.0400 L 127.2000 124.8000 L 127.4400 124.5600 L 127.4400 123.6000 L 127.6800 123.3600 L 127.6800 122.4000 L 127.4400 122.1600 L 127.4400 120.7200 L 127.2000 120.4800 L 127.2000 117.1200 L 126.9600 116.8800 L 126.9600 115.9200 L 126.7200 115.6800 L 126.7200 114.9600 L 126.4800 114.7200 L 126.4800 114.2400 L 126.7200 114.0000 L 126.7200 111.3600 L 126.4800 111.1200 L 126.4800 109.4400 L 126.7200 109.2000 L 126.7200 108.9600 L 127.2000 108.4800 L 127.4400 108.4800 L 127.6800 108.2400 Z M 55.4400 104.4000 L 56.1600 105.1200 L 56.1600 105.3600 L 56.4000 105.6000 L 56.4000 106.3200 L 56.6400 106.5600 L 56.6400 107.0400 L 56.8800 107.2800 L 56.8800 108.7200 L 57.1200 108.9600 L 57.1200 113.2800 L 56.8800 113.5200 L 56.8800 113.7600 L 56.6400 114.0000 L 56.6400 114.7200 L 56.4000 114.9600 L 56.4000 115.9200 L 56.1600 116.1600 L 56.1600 116.6400 L 55.9200 116.8800 L 55.9200 117.3600 L 55.6800 117.6000 L 55.6800 118.5600 L 55.4400 118.8000 L 55.4400 119.0400 L 55.2000 119.2800 L 55.2000 121.2000 L 54.9600 121.4400 L 54.9600 121.9200 L 54.7200 122.1600 L 54.7200 122.8800 L 54.4800 123.1200 L 54.4800 124.3200 L 54.2400 124.5600 L 54.2400 125.7600 L 54.0000 126.0000 L 54.0000 127.4400 L 53.7600 127.6800 L 53.7600 128.6400 L 53.5200 128.8800 L 53.5200 129.8400 L 53.2800 130.0800 L 53.2800 130.8000 L 53.0400 131.0400 L 53.0400 132.2400 L 52.8000 132.4800 L 52.8000 133.9200 L 52.5600 134.1600 L 52.5600 135.3600 L 52.3200 135.6000 L 52.3200 137.5200 L 52.0800 137.7600 L 52.0800 138.4800 L 51.8400 138.7200 L 51.8400 139.9200 L 51.6000 140.1600 L 51.6000 141.3600 L 51.3600 141.6000 L 51.3600 144.9600 L 51.1200 145.2000 L 51.1200 149.0400 L 51.3600 149.2800 L 51.3600 150.9600 L 51.6000 151.2000 L 51.6000 151.6800 L 51.8400 151.9200 L 51.8400 152.1600 L 52.0800 152.4000 L 52.0800 152.6400 L 52.3200 152.8800 L 52.3200 153.1200 L 52.5600 153.3600 L 52.5600 153.6000 L 52.8000 153.8400 L 52.8000 154.0800 L 53.2800 154.5600 L 53.2800 154.8000 L 54.0000 155.5200 L 54.2400 155.5200 L 54.9600 156.2400 L 55.2000 156.2400 L 55.6800 156.7200 L 55.9200 156.7200 L 56.4000 157.2000 L 56.6400 157.2000 L 57.3600 157.9200 L 57.6000 157.9200 L 57.8400 158.1600 L 58.0800 158.1600 L 58.8000 158.8800 L 58.8000 159.1200 L 59.2800 159.6000 L 59.2800 160.0800 L 59.5200 160.3200 L 59.5200 160.8000 L 59.7600 161.0400 L 59.7600 161.5200 L 60.0000 161.7600 L 60.0000 162.4800 L 59.7600 162.7200 L 58.5600 162.7200 L 58.3200 162.9600 L 57.3600 162.9600 L 57.1200 163.2000 L 56.1600 163.2000 L 55.9200 163.4400 L 55.4400 163.4400 L 55.2000 163.6800 L 54.4800 163.6800 L 54.2400 163.9200 L 53.5200 163.9200 L 53.2800 164.1600 L 52.8000 164.1600 L 52.5600 164.4000 L 52.0800 164.4000 L 51.8400 164.6400 L 50.4000 164.6400 L 50.1600 164.4000 L 49.6800 164.4000 L 49.4400 164.1600 L 49.2000 164.1600 L 48.7200 163.6800 L 48.4800 163.6800 L 47.2800 162.4800 L 47.2800 162.2400 L 46.5600 161.5200 L 46.5600 161.2800 L 46.3200 161.0400 L 46.3200 160.8000 L 45.8400 160.3200 L 45.8400 160.0800 L 45.6000 159.8400 L 45.6000 159.6000 L 45.3600 159.3600 L 45.3600 159.1200 L 44.8800 158.6400 L 44.8800 158.4000 L 44.6400 158.1600 L 44.6400 157.6800 L 44.4000 157.4400 L 44.4000 156.9600 L 43.6800 156.2400 L 43.6800 156.0000 L 42.4800 154.8000 L 42.4800 154.5600 L 41.7600 153.8400 L 41.7600 153.6000 L 40.3200 152.1600 L 40.3200 151.9200 L 39.8400 151.4400 L 39.8400 151.2000 L 39.6000 150.9600 L 39.6000 150.4800 L 39.3600 150.2400 L 39.3600 149.5200 L 39.1200 149.2800 L 39.1200 148.8000 L 38.8800 148.5600 L 38.8800 148.3200 L 38.6400 148.0800 L 38.6400 147.8400 L 38.1600 147.3600 L 38.1600 147.1200 L 37.9200 146.8800 L 37.9200 146.6400 L 37.6800 146.4000 L 37.6800 144.9600 L 37.4400 144.7200 L 37.4400 143.7600 L 37.2000 143.5200 L 37.2000 142.8000 L 36.9600 142.5600 L 36.9600 141.6000 L 36.7200 141.3600 L 36.7200 140.8800 L 36.4800 140.6400 L 36.4800 139.9200 L 36.2400 139.6800 L 36.2400 139.2000 L 36.0000 138.9600 L 36.0000 138.4800 L 35.7600 138.2400 L 35.7600 137.7600 L 35.5200 137.5200 L 35.5200 137.2800 L 35.2800 137.0400 L 35.2800 136.5600 L 35.0400 136.3200 L 35.0400 136.0800 L 34.8000 135.8400 L 34.8000 135.6000 L 34.5600 135.3600 L 34.5600 135.1200 L 34.3200 134.8800 L 34.3200 134.4000 L 34.0800 134.1600 L 34.0800 133.9200 L 33.8400 133.6800 L 33.8400 133.2000 L 33.6000 132.9600 L 33.6000 132.7200 L 33.3600 132.4800 L 33.3600 132.2400 L 33.1200 132.0000 L 33.1200 131.5200 L 32.8800 131.2800 L 32.8800 131.0400 L 32.6400 130.8000 L 32.6400 130.3200 L 32.4000 130.0800 L 32.4000 129.1200 L 32.1600 128.8800 L 32.1600 128.6400 L 31.9200 128.4000 L 31.9200 127.4400 L 31.6800 127.2000 L 31.9200 126.9600 L 31.9200 126.2400 L 32.6400 125.5200 L 32.8800 125.5200 L 33.3600 125.0400 L 33.6000 125.0400 L 33.8400 124.8000 L 34.0800 124.8000 L 34.5600 124.3200 L 34.8000 124.3200 L 35.0400 124.0800 L 35.2800 124.0800 L 35.5200 123.8400 L 35.7600 123.8400 L 36.4800 123.1200 L 36.7200 123.1200 L 37.2000 122.6400 L 37.4400 122.6400 L 38.4000 121.6800 L 38.6400 121.6800 L 40.8000 119.5200 L 41.0400 119.5200 L 41.0400 119.2800 L 44.4000 115.9200 L 44.4000 115.6800 L 45.8400 114.2400 L 45.8400 114.0000 L 47.5200 112.3200 L 47.5200 112.0800 L 49.6800 109.9200 L 49.6800 109.6800 L 51.8400 107.5200 L 52.0800 107.5200 L 53.5200 106.0800 L 53.5200 105.8400 L 54.9600 104.4000 L 55.4400 104.4000 Z M 56.8800 102.4800 L 57.8400 102.4800 L 58.5600 103.2000 L 58.5600 104.6400 L 58.3200 104.8800 L 57.8400 104.8800 L 57.6000 104.6400 L 57.6000 104.4000 L 57.3600 104.1600 L 57.1200 104.1600 L 56.8800 103.9200 L 56.6400 103.9200 L 56.4000 103.6800 L 56.4000 103.2000 L 56.6400 102.9600 L 56.6400 102.7200 L 56.8800 102.4800 Z M 98.8800 259.2000 L 100.3200 259.2000 L 99.8400 258.7200 L 98.8800 258.7200 L 98.8800 259.2000 Z" fill="none" stroke="black" stroke-width="0.5" /></svg>