<?xml version="1.0" encoding="utf-8" ?>
<svg baseProfile="full" height="261" version="1.1" viewBox="0 0 189 261" width="189" xmlns="http://www.w3.org/2000/svg" xmlns:ev="http://www.w3.org/2001/xml-events" xmlns:xlink="http://www.w3.org/1999/xlink"><defs /><path d="M 15.1200 126.3155 L 15.1200 126.4045 L 15.1900 126.5212 L 15.2504 126.6489 L 15.2980 126.7820 L 15.3323 126.9191 L 15.3531 127.0589 L 15.3600 127.2000 L 15.3600 127.3645 L 15.4300 127.4812 L 15.4904 127.6089 L 15.5380 127.7420 L 15.5448 127.7692 L 15.5973 127.8400 L 15.6700 127.9612 L 15.7304 128.0889 L 15.7780 128.2220 L 15.8123 128.3591 L 15.8331 128.4989 L 15.8360 128.5582 L 15.8373 128.5600 L 15.9100 128.6812 L 15.9704 128.8089 L 16.0180 128.9420 L 16.0523 129.0791 L 16.0731 129.2189 L 16.0760 129.2782 L 16.0773 129.2800 L 16.1500 129.4012 L 16.2104 129.5289 L 16.2580 129.6620 L 16.2648 129.6892 L 16.3173 129.7600 L 16.3900 129.8812 L 16.4504 130.0089 L 16.4980 130.1420 L 16.5323 130.2791 L 16.5531 130.4189 L 16.5600 130.5600 L 16.5600 130.9645 L 16.6300 131.0812 L 16.6904 131.2089 L 16.7380 131.3420 L 16.7448 131.3692 L 16.7973 131.4400 L 16.8700 131.5612 L 16.9304 131.6889 L 16.9780 131.8220 L 17.0123 131.9591 L 17.0331 132.0989 L 17.0360 132.1582 L 17.0373 132.1600 L 17.1100 132.2812 L 17.1704 132.4089 L 17.2180 132.5420 L 17.2248 132.5692 L 17.2773 132.6400 L 17.3500 132.7612 L 17.4104 132.8889 L 17.4580 133.0220 L 17.4648 133.0492 L 17.5173 133.1200 L 17.5900 133.2412 L 17.6504 133.3689 L 17.6980 133.5020 L 17.7048 133.5292 L 17.7573 133.6000 L 17.8300 133.7212 L 17.8904 133.8489 L 17.9380 133.9820 L 17.9448 134.0092 L 17.9973 134.0800 L 18.0700 134.2012 L 18.1304 134.3289 L 18.1780 134.4620 L 18.2123 134.5991 L 18.2331 134.7389 L 18.2340 134.7575 L 18.2982 134.8218 L 18.3931 134.9265 L 18.4773 135.0400 L 18.5500 135.1612 L 18.6104 135.2889 L 18.6577 135.4213 L 18.7782 135.5418 L 18.8731 135.6465 L 18.9573 135.7600 L 19.0300 135.8812 L 19.0904 136.0089 L 19.1380 136.1420 L 19.1448 136.1692 L 19.1973 136.2400 L 19.2700 136.3612 L 19.3304 136.4889 L 19.3780 136.6220 L 19.3848 136.6492 L 19.4373 136.7200 L 19.5100 136.8412 L 19.5704 136.9689 L 19.6180 137.1020 L 19.6248 137.1292 L 19.6773 137.2000 L 19.7500 137.3212 L 19.8104 137.4489 L 19.8580 137.5820 L 19.8923 137.7191 L 19.9131 137.8589 L 19.9200 138.0000 L 19.9200 138.1645 L 19.9900 138.2812 L 20.0504 138.4089 L 20.0980 138.5420 L 20.1048 138.5692 L 20.1573 138.6400 L 20.2300 138.7612 L 20.2904 138.8889 L 20.3380 139.0220 L 20.3723 139.1591 L 20.3931 139.2989 L 20.3960 139.3582 L 20.3973 139.3600 L 20.4700 139.4812 L 20.5304 139.6089 L 20.5780 139.7420 L 20.5848 139.7692 L 20.6373 139.8400 L 20.7100 139.9612 L 20.7704 140.0889 L 20.8180 140.2220 L 20.8248 140.2492 L 20.8773 140.3200 L 20.9500 140.4412 L 21.0104 140.5689 L 21.0580 140.7020 L 21.0923 140.8391 L 21.1131 140.9789 L 21.1140 140.9975 L 21.1782 141.0618 L 21.2731 141.1665 L 21.3573 141.2800 L 21.4300 141.4012 L 21.4904 141.5289 L 21.5380 141.6620 L 21.5723 141.7991 L 21.5931 141.9389 L 21.6000 142.0800 L 21.6000 142.2035 L 21.6582 142.2618 L 21.7531 142.3665 L 21.8373 142.4800 L 21.9100 142.6012 L 21.9704 142.7289 L 22.0180 142.8620 L 22.0523 142.9991 L 22.0731 143.1389 L 22.0760 143.1982 L 22.0773 143.2000 L 22.1500 143.3212 L 22.2104 143.4489 L 22.2580 143.5820 L 22.2648 143.6092 L 22.3173 143.6800 L 22.3900 143.8012 L 22.4504 143.9289 L 22.4980 144.0620 L 22.5048 144.0892 L 22.5573 144.1600 L 22.6300 144.2812 L 22.6904 144.4089 L 22.7380 144.5420 L 22.7723 144.6791 L 22.7931 144.8189 L 22.7960 144.8782 L 22.7973 144.8800 L 22.8700 145.0012 L 22.9304 145.1289 L 22.9780 145.2620 L 22.9848 145.2892 L 23.0373 145.3600 L 23.1100 145.4812 L 23.1704 145.6089 L 23.2180 145.7420 L 23.2523 145.8791 L 23.2731 146.0189 L 23.2740 146.0375 L 23.3382 146.1018 L 23.4331 146.2065 L 23.5173 146.3200 L 23.5900 146.4412 L 23.6504 146.5689 L 23.6980 146.7020 L 23.7323 146.8391 L 23.7531 146.9789 L 23.7540 146.9975 L 23.8182 147.0618 L 23.9131 147.1665 L 23.9973 147.2800 L 24.0700 147.4012 L 24.1304 147.5289 L 24.1780 147.6620 L 24.1848 147.6892 L 24.2373 147.7600 L 24.3100 147.8812 L 24.3704 148.0089 L 24.4177 148.1413 L 24.5382 148.2618 L 24.6331 148.3665 L 24.7173 148.4800 L 24.7900 148.6012 L 24.8504 148.7289 L 24.8980 148.8620 L 24.9048 148.8892 L 24.9573 148.9600 L 25.0300 149.0812 L 25.0904 149.2089 L 25.1380 149.3420 L 25.1448 149.3692 L 25.1973 149.4400 L 25.2700 149.5612 L 25.3304 149.6889 L 25.3780 149.8220 L 25.3848 149.8492 L 25.4373 149.9200 L 25.5100 150.0412 L 25.5704 150.1689 L 25.6177 150.3013 L 25.7382 150.4218 L 25.8331 150.5265 L 25.9173 150.6400 L 25.9900 150.7612 L 26.0504 150.8889 L 26.0977 151.0213 L 26.2182 151.1418 L 26.3131 151.2465 L 26.3973 151.3600 L 26.4700 151.4812 L 26.5304 151.6089 L 26.5777 151.7413 L 26.6982 151.8618 L 26.7931 151.9665 L 26.8773 152.0800 L 26.9500 152.2012 L 27.0104 152.3289 L 27.0577 152.4613 L 27.1782 152.5818 L 27.2731 152.6865 L 27.3573 152.8000 L 27.4300 152.9212 L 27.4904 153.0489 L 27.5377 153.1813 L 27.6582 153.3018 L 27.7531 153.4065 L 27.8373 153.5200 L 27.9100 153.6412 L 27.9704 153.7689 L 28.0177 153.9013 L 28.1382 154.0218 L 28.2331 154.1265 L 28.3173 154.2400 L 28.3900 154.3612 L 28.4504 154.4889 L 28.4980 154.6220 L 28.5048 154.6492 L 28.5573 154.7200 L 28.6300 154.8412 L 28.6904 154.9689 L 28.7377 155.1013 L 29.5782 155.9418 L 29.6731 156.0465 L 29.7573 156.1600 L 29.8300 156.2812 L 29.8904 156.4089 L 29.9377 156.5413 L 30.5382 157.1418 L 30.6331 157.2465 L 30.7173 157.3600 L 30.7900 157.4812 L 30.8504 157.6089 L 30.8977 157.7413 L 31.4982 158.3418 L 31.5931 158.4465 L 31.6773 158.5600 L 31.7500 158.6812 L 31.8104 158.8089 L 31.8577 158.9413 L 31.9782 159.0618 L 32.0731 159.1665 L 32.1573 159.2800 L 32.2300 159.4012 L 32.2904 159.5289 L 32.3377 159.6613 L 33.1782 160.5018 L 33.2731 160.6065 L 33.3573 160.7200 L 33.4300 160.8412 L 33.4904 160.9689 L 33.5377 161.1013 L 33.8982 161.4618 L 33.9931 161.5665 L 34.0773 161.6800 L 34.1500 161.8012 L 34.2104 161.9289 L 34.2577 162.0613 L 34.3782 162.1818 L 34.4731 162.2865 L 34.5573 162.4000 L 34.6300 162.5212 L 34.6904 162.6489 L 34.7377 162.7813 L 35.8182 163.8618 L 35.9131 163.9665 L 35.9973 164.0800 L 36.0700 164.2012 L 36.1304 164.3289 L 36.1777 164.4613 L 38.8187 167.1023 L 38.9511 167.1496 L 39.0788 167.2100 L 39.2000 167.2827 L 39.3135 167.3669 L 39.4182 167.4618 L 39.8982 167.9418 L 39.9931 168.0465 L 40.0773 168.1600 L 40.1500 168.2812 L 40.2104 168.4089 L 40.2580 168.5420 L 40.2648 168.5692 L 40.3173 168.6400 L 40.3900 168.7612 L 40.4504 168.8889 L 40.4977 169.0213 L 40.8582 169.3818 L 40.9531 169.4865 L 41.0373 169.6000 L 41.1100 169.7212 L 41.1704 169.8489 L 41.2180 169.9820 L 41.2248 170.0092 L 41.2773 170.0800 L 41.3500 170.2012 L 41.4104 170.3289 L 41.4580 170.4620 L 41.4648 170.4892 L 41.5173 170.5600 L 41.5900 170.6812 L 41.6504 170.8089 L 41.6980 170.9420 L 41.7048 170.9692 L 41.7573 171.0400 L 41.8300 171.1612 L 41.8904 171.2889 L 41.9380 171.4220 L 41.9723 171.5591 L 41.9931 171.6989 L 41.9960 171.7582 L 41.9973 171.7600 L 42.0700 171.8812 L 42.1304 172.0089 L 42.1777 172.1413 L 42.2982 172.2618 L 42.3931 172.3665 L 42.4773 172.4800 L 42.5500 172.6012 L 42.6104 172.7289 L 42.6577 172.8613 L 43.4982 173.7018 L 43.5931 173.8065 L 43.6773 173.9200 L 43.7500 174.0412 L 43.7913 174.1287 L 43.8788 174.1700 L 44.0000 174.2427 L 44.1135 174.3269 L 44.2182 174.4218 L 44.8187 175.0223 L 44.9511 175.0696 L 45.0788 175.1300 L 45.2000 175.2027 L 45.2708 175.2552 L 45.2980 175.2620 L 45.4311 175.3096 L 45.5588 175.3700 L 45.6800 175.4427 L 45.7508 175.4952 L 45.7780 175.5020 L 45.9111 175.5496 L 46.0388 175.6100 L 46.1600 175.6827 L 46.1618 175.6840 L 46.2211 175.6869 L 46.3609 175.7077 L 46.4980 175.7420 L 46.6311 175.7896 L 46.7588 175.8500 L 46.8755 175.9200 L 48.2400 175.9200 L 48.3811 175.9269 L 48.5209 175.9477 L 48.6580 175.9820 L 48.7911 176.0296 L 48.9188 176.0900 L 49.0355 176.1600 L 50.6400 176.1600 L 50.7811 176.1669 L 50.9209 176.1877 L 51.0580 176.2220 L 51.1911 176.2696 L 51.3188 176.3300 L 51.4400 176.4027 L 51.4418 176.4040 L 51.5011 176.4069 L 51.6409 176.4277 L 51.7780 176.4620 L 51.9111 176.5096 L 52.0388 176.5700 L 52.1600 176.6427 L 52.2308 176.6952 L 52.2580 176.7020 L 52.3911 176.7496 L 52.5188 176.8100 L 52.6400 176.8827 L 52.7535 176.9669 L 52.8582 177.0618 L 52.9787 177.1823 L 53.1111 177.2296 L 53.2388 177.2900 L 53.3600 177.3627 L 53.4735 177.4469 L 53.5782 177.5418 L 54.7782 178.7418 L 54.8731 178.8465 L 54.9573 178.9600 L 55.0300 179.0812 L 55.0904 179.2089 L 55.1380 179.3420 L 55.1448 179.3692 L 55.1973 179.4400 L 55.2700 179.5612 L 55.3304 179.6889 L 55.3777 179.8213 L 55.7382 180.1818 L 55.8331 180.2865 L 55.9173 180.4000 L 55.9900 180.5212 L 56.0504 180.6489 L 56.0977 180.7813 L 56.4582 181.1418 L 56.5531 181.2465 L 56.6373 181.3600 L 56.7100 181.4812 L 56.7704 181.6089 L 56.8180 181.7420 L 56.8523 181.8791 L 56.8731 182.0189 L 56.8800 182.1600 L 56.8800 184.0800 L 56.8731 184.2211 L 56.8523 184.3609 L 56.8180 184.4980 L 56.7704 184.6311 L 56.7100 184.7588 L 56.6400 184.8755 L 56.6400 185.7600 L 56.6331 185.9011 L 56.6123 186.0409 L 56.5780 186.1780 L 56.5304 186.3111 L 56.4700 186.4388 L 56.3973 186.5600 L 56.3960 186.5618 L 56.3931 186.6211 L 56.3723 186.7609 L 56.3380 186.8980 L 56.2904 187.0311 L 56.2300 187.1588 L 56.1600 187.2755 L 56.1600 187.4400 L 56.1531 187.5811 L 56.1323 187.7209 L 56.0980 187.8580 L 56.0504 187.9911 L 55.9900 188.1188 L 55.9200 188.2355 L 55.9200 189.1200 L 55.9131 189.2611 L 55.8923 189.4009 L 55.8580 189.5380 L 55.8104 189.6711 L 55.7500 189.7988 L 55.6800 189.9155 L 55.6800 191.2800 L 55.6731 191.4211 L 55.6523 191.5609 L 55.6180 191.6980 L 55.5704 191.8311 L 55.5100 191.9588 L 55.4400 192.0755 L 55.4400 193.6800 L 55.4331 193.8211 L 55.4123 193.9609 L 55.3780 194.0980 L 55.3304 194.2311 L 55.2700 194.3588 L 55.2000 194.4755 L 55.2000 195.8400 L 55.1931 195.9811 L 55.1723 196.1209 L 55.1380 196.2580 L 55.0904 196.3911 L 55.0300 196.5188 L 54.9600 196.6355 L 54.9600 211.6045 L 55.0300 211.7212 L 55.0904 211.8489 L 55.1380 211.9820 L 55.1723 212.1191 L 55.1931 212.2589 L 55.2000 212.4000 L 55.2000 214.2445 L 55.2700 214.3612 L 55.3304 214.4889 L 55.3780 214.6220 L 55.4123 214.7591 L 55.4331 214.8989 L 55.4400 215.0400 L 55.4400 217.6045 L 55.5100 217.7212 L 55.5704 217.8489 L 55.6180 217.9820 L 55.6523 218.1191 L 55.6731 218.2589 L 55.6800 218.4000 L 55.6800 219.7645 L 55.7500 219.8812 L 55.8104 220.0089 L 55.8580 220.1420 L 55.8923 220.2791 L 55.9131 220.4189 L 55.9200 220.5600 L 55.9200 228.8845 L 55.9900 229.0012 L 56.0504 229.1289 L 56.0980 229.2620 L 56.1323 229.3991 L 56.1531 229.5389 L 56.1600 229.6800 L 56.1600 231.0445 L 56.2300 231.1612 L 56.2904 231.2889 L 56.3380 231.4220 L 56.3723 231.5591 L 56.3931 231.6989 L 56.4000 231.8400 L 56.4000 232.3200 L 56.3931 232.4611 L 56.3723 232.6009 L 56.3380 232.7380 L 56.2904 232.8711 L 56.2300 232.9988 L 56.1600 233.1155 L 56.1600 236.5645 L 56.2300 236.6812 L 56.2904 236.8089 L 56.3380 236.9420 L 56.3723 237.0791 L 56.3931 237.2189 L 56.4000 237.3600 L 56.4000 239.6845 L 56.4700 239.8012 L 56.5304 239.9289 L 56.5780 240.0620 L 56.6123 240.1991 L 56.6331 240.3389 L 56.6400 240.4800 L 56.6400 240.8435 L 56.6982 240.9018 L 56.7931 241.0065 L 56.8773 241.1200 L 56.9500 241.2412 L 57.0104 241.3689 L 57.0580 241.5020 L 57.0923 241.6391 L 57.1131 241.7789 L 57.1160 241.8382 L 57.1173 241.8400 L 57.1900 241.9612 L 57.2504 242.0889 L 57.2980 242.2220 L 57.3323 242.3591 L 57.3531 242.4989 L 57.3600 242.6400 L 57.3531 242.7811 L 57.3323 242.9209 L 57.2980 243.0580 L 57.2504 243.1911 L 57.1900 243.3188 L 57.1200 243.4355 L 57.1200 244.5600 L 57.1131 244.7011 L 57.0923 244.8409 L 57.0580 244.9780 L 57.0358 245.0400 L 57.0580 245.1020 L 57.0923 245.2391 L 57.1131 245.3789 L 57.1200 245.5200 L 57.1200 245.7600 L 57.1131 245.9011 L 57.0923 246.0409 L 57.0580 246.1780 L 57.0104 246.3111 L 56.9872 246.3600 L 57.0104 246.4089 L 57.0580 246.5420 L 57.0923 246.6791 L 57.1131 246.8189 L 57.1160 246.8782 L 57.1173 246.8800 L 57.1900 247.0012 L 57.2504 247.1289 L 57.2980 247.2620 L 57.3323 247.3991 L 57.3531 247.5389 L 57.3600 247.6800 L 57.3600 248.6400 L 57.3531 248.7811 L 57.3323 248.9209 L 57.2980 249.0580 L 57.2504 249.1911 L 57.1900 249.3188 L 57.1200 249.4355 L 57.1200 252.1645 L 57.1900 252.2812 L 57.2504 252.4089 L 57.2980 252.5420 L 57.3323 252.6791 L 57.3531 252.8189 L 57.3600 252.9600 L 57.3600 254.1600 L 57.3531 254.3011 L 57.3323 254.4409 L 57.2980 254.5780 L 57.2504 254.7111 L 57.1900 254.8388 L 57.1200 254.9555 L 57.1200 255.5245 L 57.1900 255.6412 L 57.2504 255.7689 L 57.2977 255.9013 L 58.3782 256.9818 L 58.4731 257.0865 L 58.5573 257.2000 L 58.6300 257.3212 L 58.6904 257.4489 L 58.7377 257.5813 L 58.9165 257.7600 L 92.0490 257.7600 L 92.1018 257.7018 L 92.3418 257.4618 L 92.4465 257.3669 L 92.5600 257.2827 L 92.6812 257.2100 L 92.8089 257.1496 L 92.9420 257.1020 L 93.0791 257.0677 L 93.2189 257.0469 L 93.3600 257.0400 L 94.0045 257.0400 L 94.1212 256.9700 L 94.2489 256.9096 L 94.3820 256.8620 L 94.5191 256.8277 L 94.6589 256.8069 L 94.8000 256.8000 L 95.0400 256.8000 L 95.1811 256.8069 L 95.3209 256.8277 L 95.4580 256.8620 L 95.5911 256.9096 L 95.7188 256.9700 L 95.8400 257.0427 L 95.8418 257.0440 L 95.9011 257.0469 L 96.0409 257.0677 L 96.1780 257.1020 L 96.2690 257.1346 L 96.9018 256.5018 L 97.0065 256.4069 L 97.1200 256.3227 L 97.2412 256.2500 L 97.3689 256.1896 L 97.5020 256.1420 L 97.6391 256.1077 L 97.7789 256.0869 L 97.9200 256.0800 L 98.0845 256.0800 L 98.2012 256.0100 L 98.3289 255.9496 L 98.4620 255.9020 L 98.5991 255.8677 L 98.7389 255.8469 L 98.8800 255.8400 L 101.6845 255.8400 L 101.8012 255.7700 L 101.9289 255.7096 L 102.0620 255.6620 L 102.1991 255.6277 L 102.3389 255.6069 L 102.4800 255.6000 L 104.5645 255.6000 L 104.6812 255.5300 L 104.8089 255.4696 L 104.9420 255.4220 L 105.0791 255.3877 L 105.2189 255.3669 L 105.3600 255.3600 L 106.4845 255.3600 L 106.6012 255.2900 L 106.7289 255.2296 L 106.8620 255.1820 L 106.9991 255.1477 L 107.1389 255.1269 L 107.2800 255.1200 L 107.9245 255.1200 L 108.0412 255.0500 L 108.1689 254.9896 L 108.3020 254.9420 L 108.4391 254.9077 L 108.5789 254.8869 L 108.7200 254.8800 L 109.3645 254.8800 L 109.4812 254.8100 L 109.6089 254.7496 L 109.7420 254.7020 L 109.8791 254.6677 L 110.0189 254.6469 L 110.1600 254.6400 L 110.3245 254.6400 L 110.4412 254.5700 L 110.5689 254.5096 L 110.7020 254.4620 L 110.8391 254.4277 L 110.9789 254.4069 L 111.1200 254.4000 L 111.7645 254.4000 L 111.8812 254.3300 L 112.0089 254.2696 L 112.1420 254.2220 L 112.2791 254.1877 L 112.4189 254.1669 L 112.5600 254.1600 L 113.2045 254.1600 L 113.3212 254.0900 L 113.4489 254.0296 L 113.5820 253.9820 L 113.7191 253.9477 L 113.8589 253.9269 L 114.0000 253.9200 L 114.4045 253.9200 L 114.5212 253.8500 L 114.6489 253.7896 L 114.7820 253.7420 L 114.9191 253.7077 L 115.0589 253.6869 L 115.2000 253.6800 L 115.3645 253.6800 L 115.4812 253.6100 L 115.6089 253.5496 L 115.7420 253.5020 L 115.8791 253.4677 L 116.0189 253.4469 L 116.0782 253.4440 L 116.0800 253.4427 L 116.2012 253.3700 L 116.3289 253.3096 L 116.4620 253.2620 L 116.5991 253.2277 L 116.7389 253.2069 L 116.8800 253.2000 L 117.2845 253.2000 L 117.4012 253.1300 L 117.5289 253.0696 L 117.6620 253.0220 L 117.6892 253.0152 L 117.7600 252.9627 L 117.8812 252.8900 L 118.0089 252.8296 L 118.1420 252.7820 L 118.2791 252.7477 L 118.4189 252.7269 L 118.5600 252.7200 L 118.7245 252.7200 L 118.8412 252.6500 L 118.9689 252.5896 L 119.1020 252.5420 L 119.2391 252.5077 L 119.3789 252.4869 L 119.5200 252.4800 L 119.6845 252.4800 L 119.8012 252.4100 L 119.9289 252.3496 L 120.0620 252.3020 L 120.1991 252.2677 L 120.3389 252.2469 L 120.4800 252.2400 L 120.6445 252.2400 L 120.7612 252.1700 L 120.8889 252.1096 L 121.0220 252.0620 L 121.0492 252.0552 L 121.1200 252.0027 L 121.2412 251.9300 L 121.3689 251.8696 L 121.5020 251.8220 L 121.6391 251.7877 L 121.7789 251.7669 L 121.8382 251.7640 L 121.8400 251.7627 L 121.9612 251.6900 L 122.0889 251.6296 L 122.2220 251.5820 L 122.3591 251.5477 L 122.4989 251.5269 L 122.5582 251.5240 L 122.5600 251.5227 L 122.6812 251.4500 L 122.8089 251.3896 L 122.9420 251.3420 L 123.0791 251.3077 L 123.2189 251.2869 L 123.3600 251.2800 L 123.7645 251.2800 L 123.8812 251.2100 L 124.0089 251.1496 L 124.1420 251.1020 L 124.2791 251.0677 L 124.4189 251.0469 L 124.5600 251.0400 L 124.9645 251.0400 L 125.0812 250.9700 L 125.2089 250.9096 L 125.3420 250.8620 L 125.4791 250.8277 L 125.6189 250.8069 L 125.6782 250.8040 L 125.6800 250.8027 L 125.8012 250.7300 L 125.9289 250.6696 L 126.0620 250.6220 L 126.1991 250.5877 L 126.3389 250.5669 L 126.4800 250.5600 L 126.6445 250.5600 L 126.7612 250.4900 L 126.8889 250.4296 L 127.0220 250.3820 L 127.1591 250.3477 L 127.2989 250.3269 L 127.3582 250.3240 L 127.3600 250.3227 L 127.4812 250.2500 L 127.6089 250.1896 L 127.7420 250.1420 L 127.8791 250.1077 L 128.0189 250.0869 L 128.0782 250.0840 L 128.0800 250.0827 L 128.2012 250.0100 L 128.3289 249.9496 L 128.4620 249.9020 L 128.5991 249.8677 L 128.7389 249.8469 L 128.7982 249.8440 L 128.8000 249.8427 L 128.9212 249.7700 L 129.0489 249.7096 L 129.1820 249.6620 L 129.3191 249.6277 L 129.4589 249.6069 L 129.5182 249.6040 L 129.5200 249.6027 L 129.6412 249.5300 L 129.7689 249.4696 L 129.9020 249.4220 L 130.0391 249.3877 L 130.1789 249.3669 L 130.2382 249.3640 L 130.2400 249.3627 L 130.3612 249.2900 L 130.4889 249.2296 L 130.6220 249.1820 L 130.7591 249.1477 L 130.8989 249.1269 L 130.9582 249.1240 L 130.9600 249.1227 L 131.0812 249.0500 L 131.2089 248.9896 L 131.3420 248.9420 L 131.4791 248.9077 L 131.6189 248.8869 L 131.7600 248.8800 L 132.1645 248.8800 L 132.2812 248.8100 L 132.4089 248.7496 L 132.5420 248.7020 L 132.6791 248.6677 L 132.8189 248.6469 L 132.9600 248.6400 L 133.3645 248.6400 L 133.4812 248.5700 L 133.6089 248.5096 L 133.7420 248.4620 L 133.8791 248.4277 L 134.0189 248.4069 L 134.0782 248.4040 L 134.0800 248.4027 L 134.2012 248.3300 L 134.3289 248.2696 L 134.4620 248.2220 L 134.4892 248.2152 L 134.5600 248.1627 L 134.6812 248.0900 L 134.8089 248.0296 L 134.9420 247.9820 L 135.0791 247.9477 L 135.2189 247.9269 L 135.3600 247.9200 L 135.5245 247.9200 L 135.6412 247.8500 L 135.7689 247.7896 L 135.9020 247.7420 L 136.0391 247.7077 L 136.1789 247.6869 L 136.3200 247.6800 L 136.4845 247.6800 L 136.6012 247.6100 L 136.7289 247.5496 L 136.8620 247.5020 L 136.9991 247.4677 L 137.1389 247.4469 L 137.2800 247.4400 L 137.6845 247.4400 L 137.8012 247.3700 L 137.9289 247.3096 L 138.0613 247.2623 L 138.9018 246.4218 L 139.0065 246.3269 L 139.1200 246.2427 L 139.2412 246.1700 L 139.3689 246.1096 L 139.5020 246.0620 L 139.6391 246.0277 L 139.7789 246.0069 L 139.8382 246.0040 L 139.8400 246.0027 L 139.9612 245.9300 L 140.0889 245.8696 L 140.1646 245.8426 L 140.1627 245.8400 L 140.0900 245.7188 L 140.0296 245.5911 L 139.9823 245.4587 L 139.6218 245.0982 L 139.5269 244.9935 L 139.4427 244.8800 L 139.3700 244.7588 L 139.3096 244.6311 L 139.2620 244.4980 L 139.2552 244.4708 L 139.2027 244.4000 L 139.1300 244.2788 L 139.0696 244.1511 L 139.0220 244.0180 L 139.0152 243.9908 L 138.9627 243.9200 L 138.8900 243.7988 L 138.8296 243.6711 L 138.7820 243.5380 L 138.7477 243.4009 L 138.7269 243.2611 L 138.7240 243.2018 L 138.7227 243.2000 L 138.6500 243.0788 L 138.5896 242.9511 L 138.5420 242.8180 L 138.5352 242.7908 L 138.4827 242.7200 L 138.4100 242.5988 L 138.3496 242.4711 L 138.3020 242.3380 L 138.2677 242.2009 L 138.2469 242.0611 L 138.2440 242.0018 L 138.2427 242.0000 L 138.1700 241.8788 L 138.1096 241.7511 L 138.0620 241.6180 L 138.0277 241.4809 L 138.0069 241.3411 L 138.0000 241.2000 L 138.0000 235.9955 L 137.9300 235.8788 L 137.8696 235.7511 L 137.8220 235.6180 L 137.7877 235.4809 L 137.7669 235.3411 L 137.7600 235.2000 L 137.7600 234.3155 L 137.6900 234.1988 L 137.6296 234.0711 L 137.5820 233.9380 L 137.5477 233.8009 L 137.5269 233.6611 L 137.5200 233.5200 L 137.5200 232.8755 L 137.4500 232.7588 L 137.3896 232.6311 L 137.3420 232.4980 L 137.3077 232.3609 L 137.2869 232.2211 L 137.2800 232.0800 L 137.2800 231.4355 L 137.2100 231.3188 L 137.1496 231.1911 L 137.1020 231.0580 L 137.0677 230.9209 L 137.0469 230.7811 L 137.0400 230.6400 L 137.0400 230.4755 L 136.9700 230.3588 L 136.9096 230.2311 L 136.8620 230.0980 L 136.8277 229.9609 L 136.8069 229.8211 L 136.8000 229.6800 L 136.8000 229.0355 L 136.7300 228.9188 L 136.6696 228.7911 L 136.6220 228.6580 L 136.5877 228.5209 L 136.5669 228.3811 L 136.5640 228.3218 L 136.5627 228.3200 L 136.4900 228.1988 L 136.4296 228.0711 L 136.3820 227.9380 L 136.3477 227.8009 L 136.3269 227.6611 L 136.3200 227.5200 L 136.3200 227.3555 L 136.2500 227.2388 L 136.1896 227.1111 L 136.1420 226.9780 L 136.1077 226.8409 L 136.0869 226.7011 L 136.0800 226.5600 L 136.0800 225.9155 L 136.0100 225.7988 L 135.9496 225.6711 L 135.9020 225.5380 L 135.8677 225.4009 L 135.8469 225.2611 L 135.8440 225.2018 L 135.8427 225.2000 L 135.7700 225.0788 L 135.7096 224.9511 L 135.6620 224.8180 L 135.6277 224.6809 L 135.6069 224.5411 L 135.6000 224.4000 L 135.6000 224.2355 L 135.5300 224.1188 L 135.4696 223.9911 L 135.4220 223.8580 L 135.3877 223.7209 L 135.3669 223.5811 L 135.3600 223.4400 L 135.3600 223.2755 L 135.2900 223.1588 L 135.2296 223.0311 L 135.1820 222.8980 L 135.1477 222.7609 L 135.1269 222.6211 L 135.1200 222.4800 L 135.1200 222.0755 L 135.0500 221.9588 L 134.9896 221.8311 L 134.9420 221.6980 L 134.9077 221.5609 L 134.8869 221.4211 L 134.8800 221.2800 L 134.8800 221.1155 L 134.8100 220.9988 L 134.7496 220.8711 L 134.7020 220.7380 L 134.6677 220.6009 L 134.6469 220.4611 L 134.6400 220.3200 L 134.6400 219.6755 L 134.5700 219.5588 L 134.5096 219.4311 L 134.4620 219.2980 L 134.4552 219.2708 L 134.4027 219.2000 L 134.3300 219.0788 L 134.2696 218.9511 L 134.2220 218.8180 L 134.1877 218.6809 L 134.1669 218.5411 L 134.1640 218.4818 L 134.1627 218.4800 L 134.0900 218.3588 L 134.0296 218.2311 L 133.9820 218.0980 L 133.9752 218.0708 L 133.9227 218.0000 L 133.8500 217.8788 L 133.7896 217.7511 L 133.7420 217.6180 L 133.7352 217.5908 L 133.6827 217.5200 L 133.6100 217.3988 L 133.5496 217.2711 L 133.5020 217.1380 L 133.4677 217.0009 L 133.4469 216.8611 L 133.4400 216.7200 L 133.4400 216.5555 L 133.3700 216.4388 L 133.3096 216.3111 L 133.2620 216.1780 L 133.2552 216.1508 L 133.2027 216.0800 L 133.1300 215.9588 L 133.0696 215.8311 L 133.0220 215.6980 L 132.9877 215.5609 L 132.9669 215.4211 L 132.9600 215.2800 L 132.9600 214.8755 L 132.8900 214.7588 L 132.8296 214.6311 L 132.7820 214.4980 L 132.7752 214.4708 L 132.7227 214.4000 L 132.6500 214.2788 L 132.5896 214.1511 L 132.5420 214.0180 L 132.5352 213.9908 L 132.4827 213.9200 L 132.4100 213.7988 L 132.3496 213.6711 L 132.3020 213.5380 L 132.2677 213.4009 L 132.2469 213.2611 L 132.2400 213.1200 L 132.2400 211.7555 L 132.1700 211.6388 L 132.1096 211.5111 L 132.0620 211.3780 L 132.0277 211.2409 L 132.0069 211.1011 L 132.0040 211.0418 L 132.0027 211.0400 L 131.9300 210.9188 L 131.8696 210.7911 L 131.8220 210.6580 L 131.7877 210.5209 L 131.7669 210.3811 L 131.7640 210.3218 L 131.7627 210.3200 L 131.6900 210.1988 L 131.6296 210.0711 L 131.5820 209.9380 L 131.5477 209.8009 L 131.5269 209.6611 L 131.5200 209.5200 L 131.5200 209.3555 L 131.4500 209.2388 L 131.3896 209.1111 L 131.3420 208.9780 L 131.3077 208.8409 L 131.2869 208.7011 L 131.2800 208.5600 L 131.2800 207.6755 L 131.2100 207.5588 L 131.1496 207.4311 L 131.1020 207.2980 L 131.0677 207.1609 L 131.0469 207.0211 L 131.0400 206.8800 L 131.0400 201.9155 L 130.9700 201.7988 L 130.9096 201.6711 L 130.8620 201.5380 L 130.8277 201.4009 L 130.8069 201.2611 L 130.8000 201.1200 L 130.8000 199.9955 L 130.7300 199.8788 L 130.6696 199.7511 L 130.6220 199.6180 L 130.5877 199.4809 L 130.5669 199.3411 L 130.5600 199.2000 L 130.5600 197.5955 L 130.4900 197.4788 L 130.4296 197.3511 L 130.3820 197.2180 L 130.3477 197.0809 L 130.3269 196.9411 L 130.3200 196.8000 L 130.3200 196.6355 L 130.2500 196.5188 L 130.1896 196.3911 L 130.1420 196.2580 L 130.1077 196.1209 L 130.0869 195.9811 L 130.0800 195.8400 L 130.0800 194.9555 L 130.0100 194.8388 L 129.9496 194.7111 L 129.9020 194.5780 L 129.8677 194.4409 L 129.8469 194.3011 L 129.8440 194.2418 L 129.8427 194.2400 L 129.7700 194.1188 L 129.7096 193.9911 L 129.6620 193.8580 L 129.6277 193.7209 L 129.6069 193.5811 L 129.6000 193.4400 L 129.6000 193.2755 L 129.5300 193.1588 L 129.4696 193.0311 L 129.4220 192.8980 L 129.3877 192.7609 L 129.3669 192.6211 L 129.3600 192.4800 L 129.3600 191.1155 L 129.2900 190.9988 L 129.2296 190.8711 L 129.1820 190.7380 L 129.1477 190.6009 L 129.1269 190.4611 L 129.1200 190.3200 L 129.1200 189.9155 L 129.0500 189.7988 L 128.9896 189.6711 L 128.9420 189.5380 L 128.9077 189.4009 L 128.8869 189.2611 L 128.8800 189.1200 L 128.8800 187.0355 L 128.8100 186.9188 L 128.7496 186.7911 L 128.7020 186.6580 L 128.6677 186.5209 L 128.6469 186.3811 L 128.6400 186.2400 L 128.6400 185.5955 L 128.5700 185.4788 L 128.5096 185.3511 L 128.4620 185.2180 L 128.4277 185.0809 L 128.4069 184.9411 L 128.4000 184.8000 L 128.4000 184.3955 L 128.3300 184.2788 L 128.2696 184.1511 L 128.2220 184.0180 L 128.1877 183.8809 L 128.1669 183.7411 L 128.1600 183.6000 L 128.1600 182.9555 L 128.0900 182.8388 L 128.0296 182.7111 L 127.9820 182.5780 L 127.9477 182.4409 L 127.9269 182.3011 L 127.9200 182.1600 L 127.9200 181.7555 L 127.8500 181.6388 L 127.7896 181.5111 L 127.7420 181.3780 L 127.7077 181.2409 L 127.6869 181.1011 L 127.6800 180.9600 L 127.6800 179.8355 L 127.6100 179.7188 L 127.5496 179.5911 L 127.5020 179.4580 L 127.4677 179.3209 L 127.4469 179.1811 L 127.4400 179.0400 L 127.4400 178.6355 L 127.3700 178.5188 L 127.3096 178.3911 L 127.2620 178.2580 L 127.2277 178.1209 L 127.2069 177.9811 L 127.2040 177.9218 L 127.2027 177.9200 L 127.1300 177.7988 L 127.0696 177.6711 L 127.0220 177.5380 L 126.9877 177.4009 L 126.9669 177.2611 L 126.9640 177.2018 L 126.9627 177.2000 L 126.8900 177.0788 L 126.8296 176.9511 L 126.7820 176.8180 L 126.7477 176.6809 L 126.7269 176.5411 L 126.7200 176.4000 L 126.7200 176.2355 L 126.6500 176.1188 L 126.5896 175.9911 L 126.5420 175.8580 L 126.5352 175.8308 L 126.4827 175.7600 L 126.4100 175.6388 L 126.3496 175.5111 L 126.3020 175.3780 L 126.2952 175.3508 L 126.2427 175.2800 L 126.1700 175.1588 L 126.1096 175.0311 L 126.0620 174.8980 L 126.0277 174.7609 L 126.0069 174.6211 L 126.0000 174.4800 L 126.0000 174.3155 L 125.9300 174.1988 L 125.8696 174.0711 L 125.8220 173.9380 L 125.7877 173.8009 L 125.7669 173.6611 L 125.7600 173.5200 L 125.7600 173.2800 L 125.7669 173.1389 L 125.7877 172.9991 L 125.8220 172.8620 L 125.8696 172.7289 L 125.9300 172.6012 L 126.0027 172.4800 L 126.0869 172.3665 L 126.1818 172.2618 L 126.6618 171.7818 L 126.7665 171.6869 L 126.8800 171.6027 L 127.0012 171.5300 L 127.1289 171.4696 L 127.2620 171.4220 L 127.3991 171.3877 L 127.5389 171.3669 L 127.6800 171.3600 L 130.7245 171.3600 L 130.8412 171.2900 L 130.9689 171.2296 L 131.1020 171.1820 L 131.2391 171.1477 L 131.3789 171.1269 L 131.5200 171.1200 L 131.6845 171.1200 L 131.8012 171.0500 L 131.9289 170.9896 L 132.0620 170.9420 L 132.1991 170.9077 L 132.3389 170.8869 L 132.3982 170.8840 L 132.4000 170.8827 L 132.5212 170.8100 L 132.6489 170.7496 L 132.7820 170.7020 L 132.8092 170.6952 L 132.8800 170.6427 L 133.0012 170.5700 L 133.1289 170.5096 L 133.2620 170.4620 L 133.3991 170.4277 L 133.5389 170.4069 L 133.5575 170.4060 L 133.8618 170.1018 L 133.9665 170.0069 L 134.0800 169.9227 L 134.2012 169.8500 L 134.3289 169.7896 L 134.4613 169.7423 L 136.2618 167.9418 L 136.3665 167.8469 L 136.4800 167.7627 L 136.6012 167.6900 L 136.7289 167.6296 L 136.8613 167.5823 L 136.9818 167.4618 L 137.0865 167.3669 L 137.2000 167.2827 L 137.3212 167.2100 L 137.4489 167.1496 L 137.5813 167.1023 L 138.1818 166.5018 L 138.2865 166.4069 L 138.4000 166.3227 L 138.5212 166.2500 L 138.6489 166.1896 L 138.7813 166.1423 L 138.9018 166.0218 L 139.0065 165.9269 L 139.1200 165.8427 L 139.2412 165.7700 L 139.3689 165.7096 L 139.5013 165.6623 L 139.6218 165.5418 L 139.7265 165.4469 L 139.8400 165.3627 L 139.9612 165.2900 L 140.0889 165.2296 L 140.2220 165.1820 L 140.2492 165.1752 L 140.3200 165.1227 L 140.4412 165.0500 L 140.5689 164.9896 L 140.7013 164.9423 L 140.8218 164.8218 L 140.9265 164.7269 L 141.0400 164.6427 L 141.1612 164.5700 L 141.2889 164.5096 L 141.4220 164.4620 L 141.4492 164.4552 L 141.5200 164.4027 L 141.6412 164.3300 L 141.7689 164.2696 L 141.9013 164.2223 L 142.0218 164.1018 L 142.1265 164.0069 L 142.2400 163.9227 L 142.3612 163.8500 L 142.4889 163.7896 L 142.6213 163.7423 L 142.7418 163.6218 L 142.8465 163.5269 L 142.9600 163.4427 L 143.0812 163.3700 L 143.2089 163.3096 L 143.3420 163.2620 L 143.3692 163.2552 L 143.4400 163.2027 L 143.5612 163.1300 L 143.6889 163.0696 L 143.8213 163.0223 L 143.9418 162.9018 L 144.0465 162.8069 L 144.1600 162.7227 L 144.2812 162.6500 L 144.4089 162.5896 L 144.5413 162.5423 L 144.6618 162.4218 L 144.7665 162.3269 L 144.8800 162.2427 L 145.0012 162.1700 L 145.1289 162.1096 L 145.2613 162.0623 L 145.6218 161.7018 L 145.7265 161.6069 L 145.8400 161.5227 L 145.9612 161.4500 L 146.0889 161.3896 L 146.2213 161.3423 L 146.3418 161.2218 L 146.4465 161.1269 L 146.5600 161.0427 L 146.6812 160.9700 L 146.8089 160.9096 L 146.9413 160.8623 L 147.5418 160.2618 L 147.6465 160.1669 L 147.7600 160.0827 L 147.8812 160.0100 L 148.0089 159.9496 L 148.1413 159.9023 L 148.2618 159.7818 L 148.3665 159.6869 L 148.4800 159.6027 L 148.6012 159.5300 L 148.7289 159.4696 L 148.8613 159.4223 L 148.9818 159.3018 L 149.0865 159.2069 L 149.2000 159.1227 L 149.3212 159.0500 L 149.4489 158.9896 L 149.5813 158.9423 L 149.9418 158.5818 L 150.0465 158.4869 L 150.1600 158.4027 L 150.2812 158.3300 L 150.4089 158.2696 L 150.5413 158.2223 L 150.6618 158.1018 L 150.7665 158.0069 L 150.8800 157.9227 L 151.0012 157.8500 L 151.1289 157.7896 L 151.2613 157.7423 L 151.6218 157.3818 L 151.7265 157.2869 L 151.8400 157.2027 L 151.9612 157.1300 L 152.0889 157.0696 L 152.2213 157.0223 L 153.7818 155.4618 L 153.8865 155.3669 L 154.0000 155.2827 L 154.1212 155.2100 L 154.2489 155.1496 L 154.3813 155.1023 L 155.2218 154.2618 L 155.3265 154.1669 L 155.4400 154.0827 L 155.5612 154.0100 L 155.6889 153.9496 L 155.8213 153.9023 L 158.9423 150.7813 L 158.9896 150.6489 L 159.0500 150.5212 L 159.1227 150.4000 L 159.2069 150.2865 L 159.3018 150.1818 L 161.3423 148.1413 L 161.3896 148.0089 L 161.4500 147.8812 L 161.5227 147.7600 L 161.6069 147.6465 L 161.7018 147.5418 L 162.0623 147.1813 L 162.1096 147.0489 L 162.1700 146.9212 L 162.2427 146.8000 L 162.3269 146.6865 L 162.4218 146.5818 L 162.9018 146.1018 L 163.0065 146.0069 L 163.1200 145.9227 L 163.2412 145.8500 L 163.3689 145.7896 L 163.5020 145.7420 L 163.5292 145.7352 L 163.6000 145.6827 L 163.7212 145.6100 L 163.8489 145.5496 L 163.9813 145.5023 L 164.9423 144.5413 L 164.9896 144.4089 L 165.0500 144.2812 L 165.1227 144.1600 L 165.2069 144.0465 L 165.3018 143.9418 L 167.1023 142.1413 L 167.1496 142.0089 L 167.2100 141.8812 L 167.2827 141.7600 L 167.3669 141.6465 L 167.4618 141.5418 L 168.0623 140.9413 L 168.1096 140.8089 L 168.1700 140.6812 L 168.2427 140.5600 L 168.3269 140.4465 L 168.4218 140.3418 L 168.5423 140.2213 L 168.5896 140.0889 L 168.6500 139.9612 L 168.7227 139.8400 L 168.8069 139.7265 L 168.9018 139.6218 L 169.0223 139.5013 L 169.0696 139.3689 L 169.1300 139.2412 L 169.2027 139.1200 L 169.2552 139.0492 L 169.2620 139.0220 L 169.3096 138.8889 L 169.3700 138.7612 L 169.4427 138.6400 L 169.5269 138.5265 L 169.6218 138.4218 L 169.7423 138.3013 L 169.7896 138.1689 L 169.8500 138.0412 L 169.9227 137.9200 L 169.9752 137.8492 L 169.9820 137.8220 L 170.0296 137.6889 L 170.0900 137.5612 L 170.1627 137.4400 L 170.2152 137.3692 L 170.2220 137.3420 L 170.2696 137.2089 L 170.3300 137.0812 L 170.4027 136.9600 L 170.4552 136.8892 L 170.4620 136.8620 L 170.5096 136.7289 L 170.5700 136.6012 L 170.6427 136.4800 L 170.6952 136.4092 L 170.7020 136.3820 L 170.7496 136.2489 L 170.8100 136.1212 L 170.8827 136.0000 L 170.9352 135.9292 L 170.9420 135.9020 L 170.9896 135.7689 L 171.0500 135.6412 L 171.1227 135.5200 L 171.1240 135.5182 L 171.1269 135.4589 L 171.1477 135.3191 L 171.1820 135.1820 L 171.2296 135.0489 L 171.2900 134.9212 L 171.3600 134.8045 L 171.3600 134.6400 L 171.3669 134.4989 L 171.3877 134.3591 L 171.4220 134.2220 L 171.4696 134.0889 L 171.5300 133.9612 L 171.6000 133.8445 L 171.6000 131.5955 L 171.5300 131.4788 L 171.4696 131.3511 L 171.4220 131.2180 L 171.3877 131.0809 L 171.3669 130.9411 L 171.3640 130.8818 L 171.3627 130.8800 L 171.2900 130.7588 L 171.2296 130.6311 L 171.1823 130.4987 L 171.0618 130.3782 L 170.9669 130.2735 L 170.8827 130.1600 L 170.8100 130.0388 L 170.7496 129.9111 L 170.7023 129.7787 L 170.5818 129.6582 L 170.4869 129.5535 L 170.4027 129.4400 L 170.3300 129.3188 L 170.2696 129.1911 L 170.2220 129.0580 L 170.1877 128.9209 L 170.1669 128.7811 L 170.1660 128.7625 L 170.1018 128.6982 L 170.0069 128.5935 L 169.9227 128.4800 L 169.8500 128.3588 L 169.7896 128.2311 L 169.7420 128.0980 L 169.7352 128.0708 L 169.6827 128.0000 L 169.6100 127.8788 L 169.5496 127.7511 L 169.5020 127.6180 L 169.4677 127.4809 L 169.4469 127.3411 L 169.4440 127.2818 L 169.4427 127.2800 L 169.3700 127.1588 L 169.3096 127.0311 L 169.2620 126.8980 L 169.2552 126.8708 L 169.2027 126.8000 L 169.1300 126.6788 L 169.0696 126.5511 L 169.0223 126.4187 L 168.9018 126.2982 L 168.8069 126.1935 L 168.7227 126.0800 L 168.6500 125.9588 L 168.5896 125.8311 L 168.5420 125.6980 L 168.5352 125.6708 L 168.4827 125.6000 L 168.4100 125.4788 L 168.3496 125.3511 L 168.3020 125.2180 L 168.2952 125.1908 L 168.2427 125.1200 L 168.1700 124.9988 L 168.1096 124.8711 L 168.0620 124.7380 L 168.0552 124.7108 L 168.0027 124.6400 L 167.9300 124.5188 L 167.8696 124.3911 L 167.8223 124.2587 L 167.7018 124.1382 L 167.6069 124.0335 L 167.5227 123.9200 L 167.4500 123.7988 L 167.3896 123.6711 L 167.3423 123.5387 L 167.2218 123.4182 L 167.1269 123.3135 L 167.0427 123.2000 L 166.9700 123.0788 L 166.9096 122.9511 L 166.8623 122.8187 L 166.7418 122.6982 L 166.6469 122.5935 L 166.5627 122.4800 L 166.4900 122.3588 L 166.4296 122.2311 L 166.3820 122.0980 L 166.3752 122.0708 L 166.3227 122.0000 L 166.2500 121.8788 L 166.1896 121.7511 L 166.1423 121.6187 L 166.0218 121.4982 L 165.9269 121.3935 L 165.8427 121.2800 L 165.7700 121.1588 L 165.7096 121.0311 L 165.6623 120.8987 L 165.3018 120.5382 L 165.2069 120.4335 L 165.1227 120.3200 L 165.0500 120.1988 L 164.9896 120.0711 L 164.9420 119.9380 L 164.9352 119.9108 L 164.8827 119.8400 L 164.8100 119.7188 L 164.7496 119.5911 L 164.7023 119.4587 L 164.3418 119.0982 L 164.2469 118.9935 L 164.1627 118.8800 L 164.0900 118.7588 L 164.0296 118.6311 L 163.9823 118.4987 L 163.8618 118.3782 L 163.7669 118.2735 L 163.6827 118.1600 L 163.6100 118.0388 L 163.5496 117.9111 L 163.5020 117.7780 L 163.4952 117.7508 L 163.4427 117.6800 L 163.3700 117.5588 L 163.3096 117.4311 L 163.2620 117.2980 L 163.2552 117.2708 L 163.2027 117.2000 L 163.1300 117.0788 L 163.0696 116.9511 L 163.0220 116.8180 L 163.0152 116.7908 L 162.9627 116.7200 L 162.8900 116.5988 L 162.8296 116.4711 L 162.7823 116.3387 L 162.6618 116.2182 L 162.5669 116.1135 L 162.4827 116.0000 L 162.4100 115.8788 L 162.3496 115.7511 L 162.3020 115.6180 L 162.2952 115.5908 L 162.2427 115.5200 L 162.1700 115.3988 L 162.1096 115.2711 L 162.0623 115.1387 L 161.9418 115.0182 L 161.8469 114.9135 L 161.7627 114.8000 L 161.6900 114.6788 L 161.6296 114.5511 L 161.5823 114.4187 L 161.4618 114.2982 L 161.3669 114.1935 L 161.2827 114.0800 L 161.2100 113.9588 L 161.1496 113.8311 L 161.1023 113.6987 L 160.7418 113.3382 L 160.6469 113.2335 L 160.5627 113.1200 L 160.4900 112.9988 L 160.4296 112.8711 L 160.3823 112.7387 L 159.7818 112.1382 L 159.6869 112.0335 L 159.6027 111.9200 L 159.5300 111.7988 L 159.4696 111.6711 L 159.4223 111.5387 L 158.4613 110.5777 L 158.3289 110.5304 L 158.2012 110.4700 L 158.0800 110.3973 L 157.9665 110.3131 L 157.8618 110.2182 L 157.2613 109.6177 L 157.1289 109.5704 L 157.0012 109.5100 L 156.8800 109.4373 L 156.7665 109.3531 L 156.6618 109.2582 L 156.0613 108.6577 L 155.9289 108.6104 L 155.8012 108.5500 L 155.6800 108.4773 L 155.5665 108.3931 L 155.4618 108.2982 L 155.3413 108.1777 L 155.2089 108.1304 L 155.0812 108.0700 L 154.9600 107.9973 L 154.8892 107.9448 L 154.8620 107.9380 L 154.7289 107.8904 L 154.6012 107.8300 L 154.4800 107.7573 L 154.3665 107.6731 L 154.2618 107.5782 L 154.1413 107.4577 L 154.0089 107.4104 L 153.8812 107.3500 L 153.7600 107.2773 L 153.6465 107.1931 L 153.5418 107.0982 L 153.4213 106.9777 L 153.2889 106.9304 L 153.1612 106.8700 L 153.0400 106.7973 L 152.9265 106.7131 L 152.8218 106.6182 L 152.4613 106.2577 L 152.3289 106.2104 L 152.2012 106.1500 L 152.0800 106.0773 L 152.0092 106.0248 L 151.9820 106.0180 L 151.8489 105.9704 L 151.7212 105.9100 L 151.6000 105.8373 L 151.4865 105.7531 L 151.3818 105.6582 L 149.7018 103.9782 L 149.6069 103.8735 L 149.5227 103.7600 L 149.4500 103.6388 L 149.3896 103.5111 L 149.3420 103.3780 L 149.3352 103.3508 L 149.2827 103.2800 L 149.2100 103.1588 L 149.1496 103.0311 L 149.1020 102.8980 L 149.0952 102.8708 L 149.0427 102.8000 L 148.9700 102.6788 L 148.9096 102.5511 L 148.8620 102.4180 L 148.8552 102.3908 L 148.8027 102.3200 L 148.7300 102.1988 L 148.6696 102.0711 L 148.6220 101.9380 L 148.6152 101.9108 L 148.5627 101.8400 L 148.4900 101.7188 L 148.4296 101.5911 L 148.3820 101.4580 L 148.3752 101.4308 L 148.3227 101.3600 L 148.2500 101.2388 L 148.1896 101.1111 L 148.1420 100.9780 L 148.1077 100.8409 L 148.0869 100.7011 L 148.0840 100.6418 L 148.0827 100.6400 L 148.0100 100.5188 L 147.9496 100.3911 L 147.9020 100.2580 L 147.8952 100.2308 L 147.8427 100.1600 L 147.7700 100.0388 L 147.7096 99.9111 L 147.6620 99.7780 L 147.6277 99.6409 L 147.6069 99.5011 L 147.6040 99.4418 L 147.6027 99.4400 L 147.5300 99.3188 L 147.4696 99.1911 L 147.4220 99.0580 L 147.4152 99.0308 L 147.3627 98.9600 L 147.2900 98.8388 L 147.2296 98.7111 L 147.1820 98.5780 L 147.1477 98.4409 L 147.1269 98.3011 L 147.1240 98.2418 L 147.1227 98.2400 L 147.0500 98.1188 L 146.9896 97.9911 L 146.9423 97.8587 L 146.8218 97.7382 L 146.7269 97.6335 L 146.6427 97.5200 L 146.5700 97.3988 L 146.5096 97.2711 L 146.4623 97.1387 L 146.3418 97.0182 L 146.2469 96.9135 L 146.1627 96.8000 L 146.0900 96.6788 L 146.0296 96.5511 L 145.9823 96.4187 L 145.8618 96.2982 L 145.7669 96.1935 L 145.6827 96.0800 L 145.6100 95.9588 L 145.5496 95.8311 L 145.5023 95.6987 L 145.1418 95.3382 L 145.0469 95.2335 L 144.9627 95.1200 L 144.8900 94.9988 L 144.8296 94.8711 L 144.7823 94.7387 L 142.1413 92.0977 L 142.0089 92.0504 L 141.8812 91.9900 L 141.7600 91.9173 L 141.6465 91.8331 L 141.5418 91.7382 L 141.1813 91.3777 L 141.0489 91.3304 L 140.9212 91.2700 L 140.8000 91.1973 L 140.6865 91.1131 L 140.5818 91.0182 L 140.4613 90.8977 L 140.3289 90.8504 L 140.2012 90.7900 L 140.0800 90.7173 L 139.9665 90.6331 L 139.8618 90.5382 L 139.5013 90.1777 L 139.3689 90.1304 L 139.2412 90.0700 L 139.1200 89.9973 L 139.0065 89.9131 L 138.9018 89.8182 L 138.7813 89.6977 L 138.6489 89.6504 L 138.5212 89.5900 L 138.4000 89.5173 L 138.2865 89.4331 L 138.1818 89.3382 L 138.0613 89.2177 L 137.9289 89.1704 L 137.8012 89.1100 L 137.6800 89.0373 L 137.5665 88.9531 L 137.4618 88.8582 L 137.3413 88.7377 L 137.2089 88.6904 L 137.0812 88.6300 L 136.9600 88.5573 L 136.8892 88.5048 L 136.8620 88.4980 L 136.7289 88.4504 L 136.6012 88.3900 L 136.4800 88.3173 L 136.4092 88.2648 L 136.3820 88.2580 L 136.2489 88.2104 L 136.1212 88.1500 L 136.0000 88.0773 L 135.9292 88.0248 L 135.9020 88.0180 L 135.7689 87.9704 L 135.6412 87.9100 L 135.5200 87.8373 L 135.4492 87.7848 L 135.4220 87.7780 L 135.2889 87.7304 L 135.1612 87.6700 L 135.0400 87.5973 L 134.9692 87.5448 L 134.9420 87.5380 L 134.8089 87.4904 L 134.6812 87.4300 L 134.5600 87.3573 L 134.5582 87.3560 L 134.4989 87.3531 L 134.3591 87.3323 L 134.2220 87.2980 L 134.0889 87.2504 L 133.9612 87.1900 L 133.8445 87.1200 L 133.6800 87.1200 L 133.5389 87.1131 L 133.3991 87.0923 L 133.2620 87.0580 L 133.1289 87.0104 L 133.0012 86.9500 L 132.8800 86.8773 L 132.8092 86.8248 L 132.7820 86.8180 L 132.6489 86.7704 L 132.5212 86.7100 L 132.4000 86.6373 L 132.3982 86.6360 L 132.3389 86.6331 L 132.1991 86.6123 L 132.0620 86.5780 L 131.9289 86.5304 L 131.8012 86.4700 L 131.6800 86.3973 L 131.6092 86.3448 L 131.5820 86.3380 L 131.4489 86.2904 L 131.3212 86.2300 L 131.2000 86.1573 L 131.1292 86.1048 L 131.1020 86.0980 L 130.9689 86.0504 L 130.8412 85.9900 L 130.7200 85.9173 L 130.6065 85.8331 L 130.5018 85.7382 L 130.1413 85.3777 L 130.0089 85.3304 L 129.8812 85.2700 L 129.7600 85.1973 L 129.6465 85.1131 L 129.5418 85.0182 L 128.9413 84.4177 L 128.8089 84.3704 L 128.6812 84.3100 L 128.5600 84.2373 L 128.4465 84.1531 L 128.3418 84.0582 L 128.2213 83.9377 L 128.0889 83.8904 L 127.9612 83.8300 L 127.8400 83.7573 L 127.7692 83.7048 L 127.7420 83.6980 L 127.6089 83.6504 L 127.4812 83.5900 L 127.3600 83.5173 L 127.2892 83.4648 L 127.2620 83.4580 L 127.1289 83.4104 L 127.0012 83.3500 L 126.8800 83.2773 L 126.8092 83.2248 L 126.7820 83.2180 L 126.6489 83.1704 L 126.5212 83.1100 L 126.4000 83.0373 L 126.3982 83.0360 L 126.3389 83.0331 L 126.1991 83.0123 L 126.0620 82.9780 L 125.9289 82.9304 L 125.8012 82.8700 L 125.6800 82.7973 L 125.5665 82.7131 L 125.4618 82.6182 L 124.3813 81.5377 L 124.2489 81.4904 L 124.1212 81.4300 L 124.0000 81.3573 L 123.9292 81.3048 L 123.9020 81.2980 L 123.7689 81.2504 L 123.6412 81.1900 L 123.5200 81.1173 L 123.4492 81.0648 L 123.4220 81.0580 L 123.2889 81.0104 L 123.1612 80.9500 L 123.0400 80.8773 L 123.0382 80.8760 L 122.9789 80.8731 L 122.8391 80.8523 L 122.7020 80.8180 L 122.5689 80.7704 L 122.4412 80.7100 L 122.3200 80.6373 L 122.2492 80.5848 L 122.2220 80.5780 L 122.0889 80.5304 L 121.9612 80.4700 L 121.8400 80.3973 L 121.7265 80.3131 L 121.6218 80.2182 L 120.5413 79.1377 L 120.4089 79.0904 L 120.2812 79.0300 L 120.1600 78.9573 L 120.0465 78.8731 L 119.9418 78.7782 L 119.5813 78.4177 L 119.4489 78.3704 L 119.3212 78.3100 L 119.2000 78.2373 L 119.0865 78.1531 L 118.9818 78.0582 L 118.9175 77.9940 L 118.8989 77.9931 L 118.7591 77.9723 L 118.6220 77.9380 L 118.4889 77.8904 L 118.3612 77.8300 L 118.2400 77.7573 L 118.2382 77.7560 L 118.1789 77.7531 L 118.0391 77.7323 L 117.9020 77.6980 L 117.7689 77.6504 L 117.6412 77.5900 L 117.5200 77.5173 L 117.5182 77.5160 L 117.4589 77.5131 L 117.3191 77.4923 L 117.1820 77.4580 L 117.0489 77.4104 L 116.9212 77.3500 L 116.8045 77.2800 L 116.6400 77.2800 L 116.4989 77.2731 L 116.3591 77.2523 L 116.2220 77.2180 L 116.0889 77.1704 L 115.9612 77.1100 L 115.8445 77.0400 L 115.6800 77.0400 L 115.5389 77.0331 L 115.3991 77.0123 L 115.2620 76.9780 L 115.1289 76.9304 L 115.0012 76.8700 L 114.8845 76.8000 L 114.2400 76.8000 L 114.0989 76.7931 L 113.9591 76.7723 L 113.8220 76.7380 L 113.6889 76.6904 L 113.5612 76.6300 L 113.4400 76.5573 L 113.4382 76.5560 L 113.3789 76.5531 L 113.2391 76.5323 L 113.1020 76.4980 L 112.9689 76.4504 L 112.8412 76.3900 L 112.7245 76.3200 L 112.3200 76.3200 L 112.1789 76.3131 L 112.0391 76.2923 L 111.9020 76.2580 L 111.7689 76.2104 L 111.6412 76.1500 L 111.5245 76.0800 L 111.3600 76.0800 L 111.2189 76.0731 L 111.0791 76.0523 L 110.9420 76.0180 L 110.8089 75.9704 L 110.6812 75.9100 L 110.5645 75.8400 L 110.4000 75.8400 L 110.2589 75.8331 L 110.1191 75.8123 L 109.9820 75.7780 L 109.8489 75.7304 L 109.7212 75.6700 L 109.6000 75.5973 L 109.5292 75.5448 L 109.5020 75.5380 L 109.3689 75.4904 L 109.2412 75.4300 L 109.1200 75.3573 L 109.1182 75.3560 L 109.0589 75.3531 L 108.9191 75.3323 L 108.7820 75.2980 L 108.6489 75.2504 L 108.5212 75.1900 L 108.4000 75.1173 L 108.3292 75.0648 L 108.3020 75.0580 L 108.1689 75.0104 L 108.0412 74.9500 L 107.9200 74.8773 L 107.8065 74.7931 L 107.7018 74.6982 L 106.9818 73.9782 L 106.8869 73.8735 L 106.8027 73.7600 L 106.7300 73.6388 L 106.6696 73.5111 L 106.6220 73.3780 L 106.6152 73.3508 L 106.5627 73.2800 L 106.4900 73.1588 L 106.4296 73.0311 L 106.3820 72.8980 L 106.3477 72.7609 L 106.3269 72.6211 L 106.3200 72.4800 L 106.3200 70.0800 L 106.3269 69.9389 L 106.3477 69.7991 L 106.3820 69.6620 L 106.4296 69.5289 L 106.4900 69.4012 L 106.5627 69.2800 L 106.6152 69.2092 L 106.6220 69.1820 L 106.6696 69.0489 L 106.7300 68.9212 L 106.8027 68.8000 L 106.8869 68.6865 L 106.9818 68.5818 L 107.1023 68.4613 L 107.1496 68.3289 L 107.2100 68.2012 L 107.2827 68.0800 L 107.3669 67.9665 L 107.4618 67.8618 L 107.5823 67.7413 L 107.6296 67.6089 L 107.6900 67.4812 L 107.7627 67.3600 L 107.8152 67.2892 L 107.8220 67.2620 L 107.8696 67.1289 L 107.9300 67.0012 L 108.0027 66.8800 L 108.0040 66.8782 L 108.0069 66.8189 L 108.0277 66.6791 L 108.0620 66.5420 L 108.1096 66.4089 L 108.1700 66.2812 L 108.2427 66.1600 L 108.2440 66.1582 L 108.2469 66.0989 L 108.2677 65.9591 L 108.3020 65.8220 L 108.3496 65.6889 L 108.4100 65.5612 L 108.4800 65.4445 L 108.4800 65.2800 L 108.4869 65.1389 L 108.5077 64.9991 L 108.5420 64.8620 L 108.5896 64.7289 L 108.6500 64.6012 L 108.7227 64.4800 L 108.7752 64.4092 L 108.7820 64.3820 L 108.8296 64.2489 L 108.8900 64.1212 L 108.9627 64.0000 L 109.0152 63.9292 L 109.0220 63.9020 L 109.0696 63.7689 L 109.1300 63.6412 L 109.2027 63.5200 L 109.2040 63.5182 L 109.2069 63.4589 L 109.2277 63.3191 L 109.2620 63.1820 L 109.3096 63.0489 L 109.3700 62.9212 L 109.4427 62.8000 L 109.4952 62.7292 L 109.5020 62.7020 L 109.5496 62.5689 L 109.6100 62.4412 L 109.6800 62.3245 L 109.6800 62.1600 L 109.6869 62.0189 L 109.7077 61.8791 L 109.7420 61.7420 L 109.7896 61.6089 L 109.8500 61.4812 L 109.9200 61.3645 L 109.9200 61.2000 L 109.9269 61.0589 L 109.9477 60.9191 L 109.9820 60.7820 L 110.0296 60.6489 L 110.0900 60.5212 L 110.1600 60.4045 L 110.1600 60.0000 L 110.1669 59.8589 L 110.1877 59.7191 L 110.2220 59.5820 L 110.2696 59.4489 L 110.3300 59.3212 L 110.4027 59.2000 L 110.4040 59.1982 L 110.4069 59.1389 L 110.4277 58.9991 L 110.4620 58.8620 L 110.5096 58.7289 L 110.5700 58.6012 L 110.6400 58.4845 L 110.6400 58.3200 L 110.6469 58.1789 L 110.6677 58.0391 L 110.7020 57.9020 L 110.7496 57.7689 L 110.8100 57.6412 L 110.8800 57.5245 L 110.8800 56.8800 L 110.8869 56.7389 L 110.9077 56.5991 L 110.9420 56.4620 L 110.9896 56.3289 L 111.0500 56.2012 L 111.1200 56.0845 L 111.1200 55.6800 L 111.1269 55.5389 L 111.1477 55.3991 L 111.1820 55.2620 L 111.2296 55.1289 L 111.2900 55.0012 L 111.3600 54.8845 L 111.3600 51.1955 L 111.2900 51.0788 L 111.2296 50.9511 L 111.1820 50.8180 L 111.1477 50.6809 L 111.1269 50.5411 L 111.1200 50.4000 L 111.1200 49.2755 L 111.0500 49.1588 L 110.9896 49.0311 L 110.9420 48.8980 L 110.9077 48.7609 L 110.8869 48.6211 L 110.8800 48.4800 L 110.8800 44.7155 L 110.8100 44.5988 L 110.7496 44.4711 L 110.7020 44.3380 L 110.6952 44.3108 L 110.6427 44.2400 L 110.5700 44.1188 L 110.5096 43.9911 L 110.4620 43.8580 L 110.4277 43.7209 L 110.4069 43.5811 L 110.4000 43.4400 L 110.4000 43.2755 L 110.3300 43.1588 L 110.2696 43.0311 L 110.2220 42.8980 L 110.1877 42.7609 L 110.1669 42.6211 L 110.1600 42.4800 L 110.1600 42.0755 L 110.0900 41.9588 L 110.0296 41.8311 L 109.9820 41.6980 L 109.9477 41.5609 L 109.9269 41.4211 L 109.9200 41.2800 L 109.9200 41.1155 L 109.8500 40.9988 L 109.7896 40.8711 L 109.7420 40.7380 L 109.7077 40.6009 L 109.6869 40.4611 L 109.6800 40.3200 L 109.6800 40.1555 L 109.6100 40.0388 L 109.5496 39.9111 L 109.5020 39.7780 L 109.4677 39.6409 L 109.4469 39.5011 L 109.4440 39.4418 L 109.4427 39.4400 L 109.3700 39.3188 L 109.3096 39.1911 L 109.2620 39.0580 L 109.2552 39.0308 L 109.2027 38.9600 L 109.1300 38.8388 L 109.0696 38.7111 L 109.0220 38.5780 L 109.0152 38.5508 L 108.9627 38.4800 L 108.8900 38.3588 L 108.8296 38.2311 L 108.7820 38.0980 L 108.7752 38.0708 L 108.7227 38.0000 L 108.6500 37.8788 L 108.5896 37.7511 L 108.5423 37.6187 L 108.4218 37.4982 L 108.3269 37.3935 L 108.2427 37.2800 L 108.1700 37.1588 L 108.1096 37.0311 L 108.0620 36.8980 L 108.0552 36.8708 L 108.0027 36.8000 L 107.9300 36.6788 L 107.8696 36.5511 L 107.8223 36.4187 L 107.7018 36.2982 L 107.6069 36.1935 L 107.5227 36.0800 L 107.4500 35.9588 L 107.3896 35.8311 L 107.3423 35.6987 L 107.2218 35.5782 L 107.1269 35.4735 L 107.0427 35.3600 L 106.9700 35.2388 L 106.9096 35.1111 L 106.8623 34.9787 L 106.2618 34.3782 L 106.1669 34.2735 L 106.0827 34.1600 L 106.0100 34.0388 L 105.9496 33.9111 L 105.9023 33.7787 L 105.6613 33.5377 L 105.5289 33.4904 L 105.4012 33.4300 L 105.2800 33.3573 L 105.1665 33.2731 L 105.0618 33.1782 L 104.4613 32.5777 L 104.3289 32.5304 L 104.2012 32.4700 L 104.0800 32.3973 L 104.0092 32.3448 L 103.9820 32.3380 L 103.8489 32.2904 L 103.7212 32.2300 L 103.6000 32.1573 L 103.5292 32.1048 L 103.5020 32.0980 L 103.3689 32.0504 L 103.2412 31.9900 L 103.1200 31.9173 L 103.0492 31.8648 L 103.0220 31.8580 L 102.8889 31.8104 L 102.7612 31.7500 L 102.6400 31.6773 L 102.5692 31.6248 L 102.5420 31.6180 L 102.4089 31.5704 L 102.2812 31.5100 L 102.1600 31.4373 L 102.0892 31.3848 L 102.0620 31.3780 L 101.9289 31.3304 L 101.8012 31.2700 L 101.6800 31.1973 L 101.6092 31.1448 L 101.5820 31.1380 L 101.4489 31.0904 L 101.3212 31.0300 L 101.2045 30.9600 L 101.0400 30.9600 L 100.8989 30.9531 L 100.7591 30.9323 L 100.6220 30.8980 L 100.4889 30.8504 L 100.3612 30.7900 L 100.2400 30.7173 L 100.2382 30.7160 L 100.1789 30.7131 L 100.0391 30.6923 L 99.9020 30.6580 L 99.7689 30.6104 L 99.6412 30.5500 L 99.5245 30.4800 L 98.1600 30.4800 L 98.0189 30.4731 L 97.8791 30.4523 L 97.7420 30.4180 L 97.6089 30.3704 L 97.5600 30.3472 L 97.5111 30.3704 L 97.3780 30.4180 L 97.2409 30.4523 L 97.1011 30.4731 L 96.9600 30.4800 L 96.0755 30.4800 L 95.9588 30.5500 L 95.8311 30.6104 L 95.6980 30.6580 L 95.5609 30.6923 L 95.4211 30.7131 L 95.2800 30.7200 L 95.1155 30.7200 L 94.9988 30.7900 L 94.8711 30.8504 L 94.7380 30.8980 L 94.6009 30.9323 L 94.4611 30.9531 L 94.4018 30.9560 L 94.4000 30.9573 L 94.2788 31.0300 L 94.1511 31.0904 L 94.0180 31.1380 L 93.9908 31.1448 L 93.9200 31.1973 L 93.7988 31.2700 L 93.6711 31.3304 L 93.5380 31.3780 L 93.4009 31.4123 L 93.2611 31.4331 L 93.2018 31.4360 L 93.2000 31.4373 L 93.0788 31.5100 L 92.9511 31.5704 L 92.8180 31.6180 L 92.7908 31.6248 L 92.7200 31.6773 L 92.5988 31.7500 L 92.4711 31.8104 L 92.3380 31.8580 L 92.2009 31.8923 L 92.0611 31.9131 L 92.0018 31.9160 L 92.0000 31.9173 L 91.8788 31.9900 L 91.7511 32.0504 L 91.6180 32.0980 L 91.5908 32.1048 L 91.5200 32.1573 L 91.3988 32.2300 L 91.2711 32.2904 L 91.1380 32.3380 L 91.0009 32.3723 L 90.8611 32.3931 L 90.8018 32.3960 L 90.8000 32.3973 L 90.6788 32.4700 L 90.5511 32.5304 L 90.4180 32.5780 L 90.3908 32.5848 L 90.3200 32.6373 L 90.1988 32.7100 L 90.0711 32.7704 L 89.9380 32.8180 L 89.9108 32.8248 L 89.8400 32.8773 L 89.7188 32.9500 L 89.5911 33.0104 L 89.4580 33.0580 L 89.4308 33.0648 L 89.3600 33.1173 L 89.2388 33.1900 L 89.1111 33.2504 L 88.9780 33.2980 L 88.9508 33.3048 L 88.8800 33.3573 L 88.7588 33.4300 L 88.6311 33.4904 L 88.4980 33.5380 L 88.4708 33.5448 L 88.4000 33.5973 L 88.2788 33.6700 L 88.1511 33.7304 L 88.0187 33.7777 L 87.8982 33.8982 L 87.7935 33.9931 L 87.6800 34.0773 L 87.5588 34.1500 L 87.4311 34.2104 L 87.2987 34.2577 L 85.8577 35.6987 L 85.8104 35.8311 L 85.7500 35.9588 L 85.6773 36.0800 L 85.5931 36.1935 L 85.4982 36.2982 L 85.3777 36.4187 L 85.3304 36.5511 L 85.2700 36.6788 L 85.1973 36.8000 L 85.1448 36.8708 L 85.1380 36.8980 L 85.0904 37.0311 L 85.0300 37.1588 L 84.9573 37.2800 L 84.9560 37.2818 L 84.9531 37.3411 L 84.9323 37.4809 L 84.8980 37.6180 L 84.8504 37.7511 L 84.7900 37.8788 L 84.7200 37.9955 L 84.7200 38.1600 L 84.7131 38.3011 L 84.6923 38.4409 L 84.6580 38.5780 L 84.6104 38.7111 L 84.5500 38.8388 L 84.4800 38.9555 L 84.4800 39.8400 L 84.4731 39.9811 L 84.4523 40.1209 L 84.4180 40.2580 L 84.3704 40.3911 L 84.3100 40.5188 L 84.2400 40.6355 L 84.2400 46.0800 L 84.2331 46.2211 L 84.2123 46.3609 L 84.1780 46.4980 L 84.1304 46.6311 L 84.0700 46.7588 L 83.9973 46.8800 L 83.9960 46.8818 L 83.9931 46.9411 L 83.9723 47.0809 L 83.9380 47.2180 L 83.8904 47.3511 L 83.8300 47.4788 L 83.7573 47.6000 L 83.6731 47.7135 L 83.5782 47.8182 L 83.3382 48.0582 L 83.2335 48.1531 L 83.1200 48.2373 L 82.9988 48.3100 L 82.8711 48.3704 L 82.7380 48.4180 L 82.7108 48.4248 L 82.6400 48.4773 L 82.5188 48.5500 L 82.4313 48.5913 L 82.3900 48.6788 L 82.3173 48.8000 L 82.2331 48.9135 L 82.1382 49.0182 L 82.0740 49.0825 L 82.0731 49.1011 L 82.0523 49.2409 L 82.0180 49.3780 L 81.9704 49.5111 L 81.9100 49.6388 L 81.8373 49.7600 L 81.7848 49.8308 L 81.7780 49.8580 L 81.7304 49.9911 L 81.6700 50.1188 L 81.5973 50.2400 L 81.5960 50.2418 L 81.5931 50.3011 L 81.5723 50.4409 L 81.5380 50.5780 L 81.4904 50.7111 L 81.4300 50.8388 L 81.3600 50.9555 L 81.3600 51.6000 L 81.3531 51.7411 L 81.3323 51.8809 L 81.2980 52.0180 L 81.2504 52.1511 L 81.1900 52.2788 L 81.1200 52.3955 L 81.1200 53.9245 L 81.1900 54.0412 L 81.2504 54.1689 L 81.2980 54.3020 L 81.3323 54.4391 L 81.3531 54.5789 L 81.3540 54.5975 L 81.4182 54.6618 L 81.5131 54.7665 L 81.5973 54.8800 L 81.6700 55.0012 L 81.7304 55.1289 L 81.7777 55.2613 L 82.7387 56.2223 L 82.8711 56.2696 L 82.9988 56.3300 L 83.1200 56.4027 L 83.1908 56.4552 L 83.2180 56.4620 L 83.3511 56.5096 L 83.4788 56.5700 L 83.6000 56.6427 L 83.7135 56.7269 L 83.8182 56.8218 L 83.9387 56.9423 L 84.0711 56.9896 L 84.1988 57.0500 L 84.3200 57.1227 L 84.4335 57.2069 L 84.5382 57.3018 L 85.2582 58.0218 L 85.3531 58.1265 L 85.4373 58.2400 L 85.5100 58.3612 L 85.5704 58.4889 L 85.6180 58.6220 L 85.6523 58.7591 L 85.6731 58.8989 L 85.6760 58.9582 L 85.6773 58.9600 L 85.7500 59.0812 L 85.8104 59.2089 L 85.8580 59.3420 L 85.8923 59.4791 L 85.9131 59.6189 L 85.9200 59.7600 L 85.9200 65.2045 L 85.9900 65.3212 L 86.0504 65.4489 L 86.0980 65.5820 L 86.1323 65.7191 L 86.1531 65.8589 L 86.1600 66.0000 L 86.1600 67.4400 L 86.1531 67.5811 L 86.1323 67.7209 L 86.0980 67.8580 L 86.0504 67.9911 L 85.9900 68.1188 L 85.9200 68.2355 L 85.9200 69.1200 L 85.9131 69.2611 L 85.8923 69.4009 L 85.8580 69.5380 L 85.8104 69.6711 L 85.7500 69.7988 L 85.6773 69.9200 L 85.5931 70.0335 L 85.4982 70.1382 L 84.5382 71.0982 L 84.4335 71.1931 L 84.3200 71.2773 L 84.1988 71.3500 L 84.0711 71.4104 L 83.9380 71.4580 L 83.9108 71.4648 L 83.8400 71.5173 L 83.7188 71.5900 L 83.5911 71.6504 L 83.4580 71.6980 L 83.4308 71.7048 L 83.3600 71.7573 L 83.2388 71.8300 L 83.1111 71.8904 L 82.9780 71.9380 L 82.9508 71.9448 L 82.8800 71.9973 L 82.7588 72.0700 L 82.6311 72.1304 L 82.4980 72.1780 L 82.3609 72.2123 L 82.2211 72.2331 L 82.0800 72.2400 L 79.5155 72.2400 L 79.3988 72.3100 L 79.2711 72.3704 L 79.1380 72.4180 L 79.0009 72.4523 L 78.8611 72.4731 L 78.8018 72.4760 L 78.8000 72.4773 L 78.6788 72.5500 L 78.5511 72.6104 L 78.4180 72.6580 L 78.3908 72.6648 L 78.3200 72.7173 L 78.1988 72.7900 L 78.0711 72.8504 L 77.9380 72.8980 L 77.8009 72.9323 L 77.6611 72.9531 L 77.5200 72.9600 L 75.4355 72.9600 L 75.3188 73.0300 L 75.1911 73.0904 L 75.0580 73.1380 L 74.9209 73.1723 L 74.7811 73.1931 L 74.6400 73.2000 L 73.7555 73.2000 L 73.6388 73.2700 L 73.5111 73.3304 L 73.3780 73.3780 L 73.2409 73.4123 L 73.1011 73.4331 L 72.9600 73.4400 L 72.5555 73.4400 L 72.4388 73.5100 L 72.3111 73.5704 L 72.1780 73.6180 L 72.0409 73.6523 L 71.9011 73.6731 L 71.8418 73.6760 L 71.8400 73.6773 L 71.7188 73.7500 L 71.5911 73.8104 L 71.4580 73.8580 L 71.3209 73.8923 L 71.1811 73.9131 L 71.1218 73.9160 L 71.1200 73.9173 L 70.9988 73.9900 L 70.8711 74.0504 L 70.7380 74.0980 L 70.6009 74.1323 L 70.4611 74.1531 L 70.4018 74.1560 L 70.4000 74.1573 L 70.2788 74.2300 L 70.1511 74.2904 L 70.0187 74.3377 L 69.8982 74.4582 L 69.7935 74.5531 L 69.6800 74.6373 L 69.5588 74.7100 L 69.4311 74.7704 L 69.2980 74.8180 L 69.2708 74.8248 L 69.2000 74.8773 L 69.0788 74.9500 L 68.9511 75.0104 L 68.8180 75.0580 L 68.6809 75.0923 L 68.5411 75.1131 L 68.4818 75.1160 L 68.4800 75.1173 L 68.3588 75.1900 L 68.2311 75.2504 L 68.0980 75.2980 L 67.9609 75.3323 L 67.8211 75.3531 L 67.6800 75.3600 L 67.0355 75.3600 L 66.9883 75.3883 L 66.9573 75.4400 L 66.8731 75.5535 L 66.7782 75.6582 L 65.8182 76.6182 L 65.7135 76.7131 L 65.6000 76.7973 L 65.4788 76.8700 L 65.3511 76.9304 L 65.2180 76.9780 L 65.1908 76.9848 L 65.1200 77.0373 L 64.9988 77.1100 L 64.8711 77.1704 L 64.7380 77.2180 L 64.7108 77.2248 L 64.6400 77.2773 L 64.5188 77.3500 L 64.3911 77.4104 L 64.2580 77.4580 L 64.2308 77.4648 L 64.1600 77.5173 L 64.0388 77.5900 L 63.9111 77.6504 L 63.7780 77.6980 L 63.7508 77.7048 L 63.6800 77.7573 L 63.5588 77.8300 L 63.4311 77.8904 L 63.2980 77.9380 L 63.2708 77.9448 L 63.2000 77.9973 L 63.0788 78.0700 L 62.9511 78.1304 L 62.8180 78.1780 L 62.6809 78.2123 L 62.5411 78.2331 L 62.4818 78.2360 L 62.4800 78.2373 L 62.3588 78.3100 L 62.2311 78.3704 L 62.0980 78.4180 L 62.0708 78.4248 L 62.0000 78.4773 L 61.8788 78.5500 L 61.7511 78.6104 L 61.6180 78.6580 L 61.5908 78.6648 L 61.5200 78.7173 L 61.3988 78.7900 L 61.2711 78.8504 L 61.1380 78.8980 L 61.1108 78.9048 L 61.0400 78.9573 L 60.9188 79.0300 L 60.7911 79.0904 L 60.6580 79.1380 L 60.6308 79.1448 L 60.5600 79.1973 L 60.4388 79.2700 L 60.3111 79.3304 L 60.1780 79.3780 L 60.1508 79.3848 L 60.0800 79.4373 L 59.9588 79.5100 L 59.8311 79.5704 L 59.6980 79.6180 L 59.5609 79.6523 L 59.4211 79.6731 L 59.3618 79.6760 L 59.3600 79.6773 L 59.2388 79.7500 L 59.1111 79.8104 L 58.9780 79.8580 L 58.8409 79.8923 L 58.7011 79.9131 L 58.6418 79.9160 L 58.6400 79.9173 L 58.5188 79.9900 L 58.3911 80.0504 L 58.2580 80.0980 L 58.1209 80.1323 L 57.9811 80.1531 L 57.8400 80.1600 L 57.4355 80.1600 L 57.3188 80.2300 L 57.1911 80.2904 L 57.0580 80.3380 L 56.9209 80.3723 L 56.7811 80.3931 L 56.6400 80.4000 L 56.2355 80.4000 L 56.1188 80.4700 L 55.9911 80.5304 L 55.8580 80.5780 L 55.7209 80.6123 L 55.5811 80.6331 L 55.4400 80.6400 L 55.2755 80.6400 L 55.1588 80.7100 L 55.0311 80.7704 L 54.8980 80.8180 L 54.7609 80.8523 L 54.6211 80.8731 L 54.4800 80.8800 L 54.3155 80.8800 L 54.1988 80.9500 L 54.0711 81.0104 L 53.9380 81.0580 L 53.8009 81.0923 L 53.6611 81.1131 L 53.6018 81.1160 L 53.6000 81.1173 L 53.4788 81.1900 L 53.3511 81.2504 L 53.2180 81.2980 L 53.1908 81.3048 L 53.1200 81.3573 L 52.9988 81.4300 L 52.8711 81.4904 L 52.7380 81.5380 L 52.7108 81.5448 L 52.6400 81.5973 L 52.5188 81.6700 L 52.3911 81.7304 L 52.2587 81.7777 L 52.1382 81.8982 L 52.0335 81.9931 L 51.9200 82.0773 L 51.7988 82.1500 L 51.6711 82.2104 L 51.5380 82.2580 L 51.5108 82.2648 L 51.4400 82.3173 L 51.3188 82.3900 L 51.1911 82.4504 L 51.0580 82.4980 L 51.0308 82.5048 L 50.9600 82.5573 L 50.8388 82.6300 L 50.7111 82.6904 L 50.5780 82.7380 L 50.5508 82.7448 L 50.4800 82.7973 L 50.3588 82.8700 L 50.2311 82.9304 L 50.0987 82.9777 L 49.9782 83.0982 L 49.8735 83.1931 L 49.7600 83.2773 L 49.6388 83.3500 L 49.5111 83.4104 L 49.3787 83.4577 L 49.2582 83.5782 L 49.1535 83.6731 L 49.0400 83.7573 L 48.9188 83.8300 L 48.7911 83.8904 L 48.6580 83.9380 L 48.6308 83.9448 L 48.5600 83.9973 L 48.4388 84.0700 L 48.3111 84.1304 L 48.1787 84.1777 L 47.8182 84.5382 L 47.7135 84.6331 L 47.6000 84.7173 L 47.4788 84.7900 L 47.3511 84.8504 L 47.2187 84.8977 L 46.8582 85.2582 L 46.7535 85.3531 L 46.6400 85.4373 L 46.5188 85.5100 L 46.3911 85.5704 L 46.2587 85.6177 L 44.9382 86.9382 L 44.8335 87.0331 L 44.8103 87.0503 L 44.7931 87.0735 L 44.6982 87.1782 L 43.6177 88.2587 L 43.5704 88.3911 L 43.5100 88.5188 L 43.4373 88.6400 L 43.3531 88.7535 L 43.2582 88.8582 L 43.1377 88.9787 L 43.0904 89.1111 L 43.0300 89.2388 L 42.9573 89.3600 L 42.8731 89.4735 L 42.7782 89.5782 L 42.6577 89.6987 L 42.6104 89.8311 L 42.5500 89.9588 L 42.4773 90.0800 L 42.3931 90.1935 L 42.2982 90.2982 L 42.1777 90.4187 L 42.1304 90.5511 L 42.0700 90.6788 L 41.9973 90.8000 L 41.9448 90.8708 L 41.9380 90.8980 L 41.8904 91.0311 L 41.8300 91.1588 L 41.7573 91.2800 L 41.7048 91.3508 L 41.6980 91.3780 L 41.6504 91.5111 L 41.5900 91.6388 L 41.5173 91.7600 L 41.4331 91.8735 L 41.3382 91.9782 L 41.2177 92.0987 L 41.1704 92.2311 L 41.1100 92.3588 L 41.0373 92.4800 L 40.9848 92.5508 L 40.9780 92.5780 L 40.9304 92.7111 L 40.8700 92.8388 L 40.7973 92.9600 L 40.7960 92.9618 L 40.7931 93.0211 L 40.7723 93.1609 L 40.7380 93.2980 L 40.6904 93.4311 L 40.6300 93.5588 L 40.5573 93.6800 L 40.5048 93.7508 L 40.4980 93.7780 L 40.4504 93.9111 L 40.3900 94.0388 L 40.3200 94.1555 L 40.3200 94.3200 L 40.3131 94.4611 L 40.2923 94.6009 L 40.2580 94.7380 L 40.2104 94.8711 L 40.1500 94.9988 L 40.0773 95.1200 L 40.0248 95.1908 L 40.0180 95.2180 L 39.9704 95.3511 L 39.9100 95.4788 L 39.8373 95.6000 L 39.7531 95.7135 L 39.6582 95.8182 L 38.9382 96.5382 L 38.8335 96.6331 L 38.7200 96.7173 L 38.5988 96.7900 L 38.4711 96.8504 L 38.3380 96.8980 L 38.3108 96.9048 L 38.2400 96.9573 L 38.1188 97.0300 L 37.9911 97.0904 L 37.8587 97.1377 L 37.7382 97.2582 L 37.6335 97.3531 L 37.5200 97.4373 L 37.3988 97.5100 L 37.2711 97.5704 L 37.1380 97.6180 L 37.0009 97.6523 L 36.8611 97.6731 L 36.8425 97.6740 L 36.7782 97.7382 L 36.6735 97.8331 L 36.5600 97.9173 L 36.4388 97.9900 L 36.3111 98.0504 L 36.1787 98.0977 L 36.0582 98.2182 L 35.9535 98.3131 L 35.8400 98.3973 L 35.7188 98.4700 L 35.5911 98.5304 L 35.4587 98.5777 L 35.3382 98.6982 L 35.2335 98.7931 L 35.1200 98.8773 L 34.9988 98.9500 L 34.8711 99.0104 L 34.7387 99.0577 L 34.6182 99.1782 L 34.5135 99.2731 L 34.4000 99.3573 L 34.2788 99.4300 L 34.1511 99.4904 L 34.0187 99.5377 L 33.1782 100.3782 L 33.0735 100.4731 L 32.9600 100.5573 L 32.8388 100.6300 L 32.7111 100.6904 L 32.5787 100.7377 L 29.6977 103.6187 L 29.6504 103.7511 L 29.5900 103.8788 L 29.5173 104.0000 L 29.4331 104.1135 L 29.3382 104.2182 L 28.9777 104.5787 L 28.9304 104.7111 L 28.8700 104.8388 L 28.7973 104.9600 L 28.7131 105.0735 L 28.6182 105.1782 L 28.2577 105.5387 L 28.2104 105.6711 L 28.1500 105.7988 L 28.0773 105.9200 L 27.9931 106.0335 L 27.8982 106.1382 L 27.5377 106.4987 L 27.4904 106.6311 L 27.4300 106.7588 L 27.3573 106.8800 L 27.2731 106.9935 L 27.1782 107.0982 L 27.0577 107.2187 L 27.0104 107.3511 L 26.9500 107.4788 L 26.8773 107.6000 L 26.7931 107.7135 L 26.6982 107.8182 L 25.8577 108.6587 L 25.8104 108.7911 L 25.7500 108.9188 L 25.6773 109.0400 L 25.5931 109.1535 L 25.4982 109.2582 L 25.1377 109.6187 L 25.0904 109.7511 L 25.0300 109.8788 L 24.9573 110.0000 L 24.8731 110.1135 L 24.7782 110.2182 L 24.1777 110.8187 L 24.1304 110.9511 L 24.0700 111.0788 L 23.9973 111.2000 L 23.9131 111.3135 L 23.8182 111.4182 L 23.2177 112.0187 L 23.1704 112.1511 L 23.1100 112.2788 L 23.0373 112.4000 L 22.9531 112.5135 L 22.8582 112.6182 L 22.4977 112.9787 L 22.4504 113.1111 L 22.3900 113.2388 L 22.3173 113.3600 L 22.2331 113.4735 L 22.1382 113.5782 L 21.5377 114.1787 L 21.4904 114.3111 L 21.4300 114.4388 L 21.3573 114.5600 L 21.2731 114.6735 L 21.1782 114.7782 L 20.5777 115.3787 L 20.5304 115.5111 L 20.4700 115.6388 L 20.3973 115.7600 L 20.3131 115.8735 L 20.2182 115.9782 L 19.8577 116.3387 L 19.8104 116.4711 L 19.7500 116.5988 L 19.6773 116.7200 L 19.5931 116.8335 L 19.4982 116.9382 L 19.3777 117.0587 L 19.3304 117.1911 L 19.2700 117.3188 L 19.1973 117.4400 L 19.1131 117.5535 L 19.0182 117.6582 L 18.8977 117.7787 L 18.8504 117.9111 L 18.7900 118.0388 L 18.7173 118.1600 L 18.6331 118.2735 L 18.5382 118.3782 L 18.4177 118.4987 L 18.3704 118.6311 L 18.3100 118.7588 L 18.2373 118.8800 L 18.1848 118.9508 L 18.1780 118.9780 L 18.1304 119.1111 L 18.0700 119.2388 L 17.9973 119.3600 L 17.9131 119.4735 L 17.8182 119.5782 L 17.6977 119.6987 L 17.6504 119.8311 L 17.5900 119.9588 L 17.5173 120.0800 L 17.4648 120.1508 L 17.4580 120.1780 L 17.4104 120.3111 L 17.3500 120.4388 L 17.2773 120.5600 L 17.1931 120.6735 L 17.0982 120.7782 L 16.9777 120.8987 L 16.9304 121.0311 L 16.8700 121.1588 L 16.7973 121.2800 L 16.7448 121.3508 L 16.7380 121.3780 L 16.6904 121.5111 L 16.6300 121.6388 L 16.5573 121.7600 L 16.5560 121.7618 L 16.5531 121.8211 L 16.5323 121.9609 L 16.4980 122.0980 L 16.4504 122.2311 L 16.3900 122.3588 L 16.3173 122.4800 L 16.2648 122.5508 L 16.2580 122.5780 L 16.2104 122.7111 L 16.1500 122.8388 L 16.0773 122.9600 L 15.9931 123.0735 L 15.8982 123.1782 L 15.8340 123.2425 L 15.8331 123.2611 L 15.8123 123.4009 L 15.7780 123.5380 L 15.7304 123.6711 L 15.6700 123.7988 L 15.5973 123.9200 L 15.5960 123.9218 L 15.5931 123.9811 L 15.5723 124.1209 L 15.5380 124.2580 L 15.4904 124.3911 L 15.4300 124.5188 L 15.3600 124.6355 L 15.3600 125.5200 L 15.3531 125.6611 L 15.3323 125.8009 L 15.2980 125.9380 L 15.2504 126.0711 L 15.1900 126.1988 L 15.1200 126.3155 Z M 122.6400 135.5245 L 122.6400 135.3600 L 122.6469 135.2189 L 122.6677 135.0791 L 122.7020 134.9420 L 122.7496 134.8089 L 122.8100 134.6812 L 122.8827 134.5600 L 122.8840 134.5582 L 122.8869 134.4989 L 122.9077 134.3591 L 122.9420 134.2220 L 122.9896 134.0889 L 123.0500 133.9612 L 123.1200 133.8445 L 123.1200 133.4400 L 123.1269 133.2989 L 123.1477 133.1591 L 123.1820 133.0220 L 123.2296 132.8889 L 123.2900 132.7612 L 123.3627 132.6400 L 123.4152 132.5692 L 123.4220 132.5420 L 123.4696 132.4089 L 123.5300 132.2812 L 123.6000 132.1645 L 123.6000 132.0000 L 123.6069 131.8589 L 123.6277 131.7191 L 123.6620 131.5820 L 123.7096 131.4489 L 123.7700 131.3212 L 123.8427 131.2000 L 123.8952 131.1292 L 123.9020 131.1020 L 123.9496 130.9689 L 124.0100 130.8412 L 124.0800 130.7245 L 124.0800 130.5600 L 124.0869 130.4189 L 124.1077 130.2791 L 124.1420 130.1420 L 124.1896 130.0089 L 124.2500 129.8812 L 124.3200 129.7645 L 124.3200 129.6000 L 124.3269 129.4589 L 124.3477 129.3191 L 124.3820 129.1820 L 124.4296 129.0489 L 124.4900 128.9212 L 124.5600 128.8045 L 124.5600 128.4000 L 124.5669 128.2589 L 124.5877 128.1191 L 124.6220 127.9820 L 124.6696 127.8489 L 124.7300 127.7212 L 124.8000 127.6045 L 124.8000 127.2000 L 124.8069 127.0589 L 124.8277 126.9191 L 124.8620 126.7820 L 124.9096 126.6489 L 124.9700 126.5212 L 125.0400 126.4045 L 125.0400 126.2400 L 125.0469 126.0989 L 125.0677 125.9591 L 125.1020 125.8220 L 125.1496 125.6889 L 125.2100 125.5612 L 125.2827 125.4400 L 125.3352 125.3692 L 125.3420 125.3420 L 125.3896 125.2089 L 125.4500 125.0812 L 125.5227 124.9600 L 125.5752 124.8892 L 125.5820 124.8620 L 125.6296 124.7289 L 125.6900 124.6012 L 125.7627 124.4800 L 125.8152 124.4092 L 125.8220 124.3820 L 125.8696 124.2489 L 125.9300 124.1212 L 126.0000 124.0045 L 126.0000 123.6000 L 126.0069 123.4589 L 126.0277 123.3191 L 126.0620 123.1820 L 126.1096 123.0489 L 126.1700 122.9212 L 126.1947 122.8800 L 126.1700 122.8388 L 126.1096 122.7111 L 126.0620 122.5780 L 126.0277 122.4409 L 126.0069 122.3011 L 126.0000 122.1600 L 126.0000 121.2755 L 125.9300 121.1588 L 125.8696 121.0311 L 125.8220 120.8980 L 125.7877 120.7609 L 125.7669 120.6211 L 125.7600 120.4800 L 125.7600 117.6755 L 125.6900 117.5588 L 125.6296 117.4311 L 125.5820 117.2980 L 125.5477 117.1609 L 125.5269 117.0211 L 125.5200 116.8800 L 125.5200 116.4755 L 125.4500 116.3588 L 125.3896 116.2311 L 125.3420 116.0980 L 125.3077 115.9609 L 125.2869 115.8211 L 125.2800 115.6800 L 125.2800 115.5155 L 125.2100 115.3988 L 125.1496 115.2711 L 125.1020 115.1380 L 125.0677 115.0009 L 125.0469 114.8611 L 125.0400 114.7200 L 125.0400 114.2400 L 125.0469 114.0989 L 125.0677 113.9591 L 125.1020 113.8220 L 125.1496 113.6889 L 125.2100 113.5612 L 125.2800 113.4445 L 125.2800 111.9155 L 125.2100 111.7988 L 125.1496 111.6711 L 125.1020 111.5380 L 125.0677 111.4009 L 125.0469 111.2611 L 125.0400 111.1200 L 125.0400 109.4400 L 125.0469 109.2989 L 125.0677 109.1591 L 125.1020 109.0220 L 125.1496 108.8889 L 125.2100 108.7612 L 125.2827 108.6400 L 125.3352 108.5692 L 125.3420 108.5420 L 125.3896 108.4089 L 125.4500 108.2812 L 125.5227 108.1600 L 125.6069 108.0465 L 125.7018 107.9418 L 126.1818 107.4618 L 126.2865 107.3669 L 126.4000 107.2827 L 126.5212 107.2100 L 126.6489 107.1496 L 126.7820 107.1020 L 126.8092 107.0952 L 126.8800 107.0427 L 127.0012 106.9700 L 127.1289 106.9096 L 127.2620 106.8620 L 127.3991 106.8277 L 127.5389 106.8069 L 127.6800 106.8000 L 129.6000 106.8000 L 129.7411 106.8069 L 129.8809 106.8277 L 130.0180 106.8620 L 130.1511 106.9096 L 130.2788 106.9700 L 130.4000 107.0427 L 130.5135 107.1269 L 130.6182 107.2218 L 130.9787 107.5823 L 131.1111 107.6296 L 131.2388 107.6900 L 131.3600 107.7627 L 131.4735 107.8469 L 131.5782 107.9418 L 131.6987 108.0623 L 131.8311 108.1096 L 131.9588 108.1700 L 132.0800 108.2427 L 132.1935 108.3269 L 132.2982 108.4218 L 133.7382 109.8618 L 133.8331 109.9665 L 133.9173 110.0800 L 133.9900 110.2012 L 134.0504 110.3289 L 134.0977 110.4613 L 134.2182 110.5818 L 134.3131 110.6865 L 134.3973 110.8000 L 134.4700 110.9212 L 134.5304 111.0489 L 134.5777 111.1813 L 135.0587 111.6623 L 135.1911 111.7096 L 135.3188 111.7700 L 135.4400 111.8427 L 135.5535 111.9269 L 135.6582 112.0218 L 136.2587 112.6223 L 136.3911 112.6696 L 136.5188 112.7300 L 136.6400 112.8027 L 136.7535 112.8869 L 136.8582 112.9818 L 140.9382 117.0618 L 141.0331 117.1665 L 141.1173 117.2800 L 141.1900 117.4012 L 141.2504 117.5289 L 141.2977 117.6613 L 142.1382 118.5018 L 142.2331 118.6065 L 142.3173 118.7200 L 142.3900 118.8412 L 142.4504 118.9689 L 142.4977 119.1013 L 143.3382 119.9418 L 143.4331 120.0465 L 143.5173 120.1600 L 143.5900 120.2812 L 143.6504 120.4089 L 143.6977 120.5413 L 143.8182 120.6618 L 143.9131 120.7665 L 143.9973 120.8800 L 144.0700 121.0012 L 144.1304 121.1289 L 144.1777 121.2613 L 146.6982 123.7818 L 146.7931 123.8865 L 146.8773 124.0000 L 146.9083 124.0517 L 146.9600 124.0827 L 147.0735 124.1669 L 147.1782 124.2618 L 148.2587 125.3423 L 148.3911 125.3896 L 148.5188 125.4500 L 148.6400 125.5227 L 148.7535 125.6069 L 148.8582 125.7018 L 149.4587 126.3023 L 149.5911 126.3496 L 149.7188 126.4100 L 149.8400 126.4827 L 149.9535 126.5669 L 150.0582 126.6618 L 150.1787 126.7823 L 150.3111 126.8296 L 150.4388 126.8900 L 150.5600 126.9627 L 150.6308 127.0152 L 150.6580 127.0220 L 150.7911 127.0696 L 150.9188 127.1300 L 151.0400 127.2027 L 151.1535 127.2869 L 151.2582 127.3818 L 151.3787 127.5023 L 151.5111 127.5496 L 151.6388 127.6100 L 151.7600 127.6827 L 151.8735 127.7669 L 151.9782 127.8618 L 152.0987 127.9823 L 152.2311 128.0296 L 152.3588 128.0900 L 152.4800 128.1627 L 152.5935 128.2469 L 152.6982 128.3418 L 154.6182 130.2618 L 154.7131 130.3665 L 154.7973 130.4800 L 154.8700 130.6012 L 154.9304 130.7289 L 154.9780 130.8620 L 155.0123 130.9991 L 155.0331 131.1389 L 155.0400 131.2800 L 155.0400 132.4800 L 155.0331 132.6211 L 155.0123 132.7609 L 154.9780 132.8980 L 154.9304 133.0311 L 154.8700 133.1588 L 154.7973 133.2800 L 154.7448 133.3508 L 154.7380 133.3780 L 154.6904 133.5111 L 154.6300 133.6388 L 154.5573 133.7600 L 154.5560 133.7618 L 154.5531 133.8211 L 154.5323 133.9609 L 154.4980 134.0980 L 154.4504 134.2311 L 154.3900 134.3588 L 154.3173 134.4800 L 154.2648 134.5508 L 154.2580 134.5780 L 154.2104 134.7111 L 154.1500 134.8388 L 154.0773 134.9600 L 154.0248 135.0308 L 154.0180 135.0580 L 153.9704 135.1911 L 153.9100 135.3188 L 153.8373 135.4400 L 153.7848 135.5108 L 153.7780 135.5380 L 153.7304 135.6711 L 153.6700 135.7988 L 153.5973 135.9200 L 153.5131 136.0335 L 153.4182 136.1382 L 153.2977 136.2587 L 153.2504 136.3911 L 153.1900 136.5188 L 153.1173 136.6400 L 153.0331 136.7535 L 152.9382 136.8582 L 152.5777 137.2187 L 152.5304 137.3511 L 152.4700 137.4788 L 152.3973 137.6000 L 152.3448 137.6708 L 152.3380 137.6980 L 152.2904 137.8311 L 152.2300 137.9588 L 152.1573 138.0800 L 152.0731 138.1935 L 151.9782 138.2982 L 150.8977 139.3787 L 150.8504 139.5111 L 150.7900 139.6388 L 150.7173 139.7600 L 150.6331 139.8735 L 150.5382 139.9782 L 150.1777 140.3387 L 150.1304 140.4711 L 150.0700 140.5988 L 149.9973 140.7200 L 149.9131 140.8335 L 149.8182 140.9382 L 149.6977 141.0587 L 149.6504 141.1911 L 149.5900 141.3188 L 149.5173 141.4400 L 149.4648 141.5108 L 149.4580 141.5380 L 149.4104 141.6711 L 149.3500 141.7988 L 149.2773 141.9200 L 149.1931 142.0335 L 149.0982 142.1382 L 148.9777 142.2587 L 148.9304 142.3911 L 148.8700 142.5188 L 148.7973 142.6400 L 148.7448 142.7108 L 148.7380 142.7380 L 148.6904 142.8711 L 148.6300 142.9988 L 148.5573 143.1200 L 148.5048 143.1908 L 148.4980 143.2180 L 148.4504 143.3511 L 148.3900 143.4788 L 148.3173 143.6000 L 148.2648 143.6708 L 148.2580 143.6980 L 148.2104 143.8311 L 148.1500 143.9588 L 148.0773 144.0800 L 148.0760 144.0818 L 148.0731 144.1411 L 148.0523 144.2809 L 148.0180 144.4180 L 147.9704 144.5511 L 147.9100 144.6788 L 147.8373 144.8000 L 147.7848 144.8708 L 147.7780 144.8980 L 147.7304 145.0311 L 147.6700 145.1588 L 147.5973 145.2800 L 147.5960 145.2818 L 147.5931 145.3411 L 147.5723 145.4809 L 147.5380 145.6180 L 147.4904 145.7511 L 147.4300 145.8788 L 147.3573 146.0000 L 147.3048 146.0708 L 147.2980 146.0980 L 147.2504 146.2311 L 147.1900 146.3588 L 147.1173 146.4800 L 147.0648 146.5508 L 147.0580 146.5780 L 147.0104 146.7111 L 146.9500 146.8388 L 146.8773 146.9600 L 146.8248 147.0308 L 146.8180 147.0580 L 146.7704 147.1911 L 146.7100 147.3188 L 146.6373 147.4400 L 146.5848 147.5108 L 146.5780 147.5380 L 146.5304 147.6711 L 146.4700 147.7988 L 146.3973 147.9200 L 146.3131 148.0335 L 146.2182 148.1382 L 145.3777 148.9787 L 145.3304 149.1111 L 145.2700 149.2388 L 145.1973 149.3600 L 145.1131 149.4735 L 145.0182 149.5782 L 144.5382 150.0582 L 144.4335 150.1531 L 144.3200 150.2373 L 144.1988 150.3100 L 144.0711 150.3704 L 143.9387 150.4177 L 142.3782 151.9782 L 142.2735 152.0731 L 142.1600 152.1573 L 142.0388 152.2300 L 141.9111 152.2904 L 141.7787 152.3377 L 140.9382 153.1782 L 140.8335 153.2731 L 140.7200 153.3573 L 140.5988 153.4300 L 140.4711 153.4904 L 140.3387 153.5377 L 140.2182 153.6582 L 140.1135 153.7531 L 140.0000 153.8373 L 139.8788 153.9100 L 139.7511 153.9704 L 139.6187 154.0177 L 139.4982 154.1382 L 139.3935 154.2331 L 139.2800 154.3173 L 139.2283 154.3483 L 139.1973 154.4000 L 139.1131 154.5135 L 139.0182 154.6182 L 138.7782 154.8582 L 138.6735 154.9531 L 138.5600 155.0373 L 138.4388 155.1100 L 138.3111 155.1704 L 138.1787 155.2177 L 133.9782 159.4182 L 133.8735 159.5131 L 133.7600 159.5973 L 133.6388 159.6700 L 133.5111 159.7304 L 133.3787 159.7777 L 133.0182 160.1382 L 132.9135 160.2331 L 132.8000 160.3173 L 132.6788 160.3900 L 132.5511 160.4504 L 132.4187 160.4977 L 132.0582 160.8582 L 131.9535 160.9531 L 131.8400 161.0373 L 131.7188 161.1100 L 131.5911 161.1704 L 131.4580 161.2180 L 131.3209 161.2523 L 131.1811 161.2731 L 131.1218 161.2760 L 131.1200 161.2773 L 130.9988 161.3500 L 130.8711 161.4104 L 130.7380 161.4580 L 130.6009 161.4923 L 130.4611 161.5131 L 130.3200 161.5200 L 129.8400 161.5200 L 129.6989 161.5131 L 129.5591 161.4923 L 129.4220 161.4580 L 129.2889 161.4104 L 129.1612 161.3500 L 129.0445 161.2800 L 128.8800 161.2800 L 128.7389 161.2731 L 128.5991 161.2523 L 128.4620 161.2180 L 128.3289 161.1704 L 128.2012 161.1100 L 128.0800 161.0373 L 128.0782 161.0360 L 128.0189 161.0331 L 127.8791 161.0123 L 127.7420 160.9780 L 127.6089 160.9304 L 127.4812 160.8700 L 127.3600 160.7973 L 127.2465 160.7131 L 127.1418 160.6182 L 127.0213 160.4977 L 126.8889 160.4504 L 126.7612 160.3900 L 126.6400 160.3173 L 126.5265 160.2331 L 126.4218 160.1382 L 126.0613 159.7777 L 125.9289 159.7304 L 125.8012 159.6700 L 125.6800 159.5973 L 125.5665 159.5131 L 125.4618 159.4182 L 123.5418 157.4982 L 123.4469 157.3935 L 123.3627 157.2800 L 123.2900 157.1588 L 123.2296 157.0311 L 123.1820 156.8980 L 123.1477 156.7609 L 123.1269 156.6211 L 123.1200 156.4800 L 123.1200 156.2400 L 123.1269 156.0989 L 123.1477 155.9591 L 123.1820 155.8220 L 123.2296 155.6889 L 123.2900 155.5612 L 123.3627 155.4400 L 123.4469 155.3265 L 123.5418 155.2218 L 123.7818 154.9818 L 123.8865 154.8869 L 124.0000 154.8027 L 124.1212 154.7300 L 124.2489 154.6696 L 124.3820 154.6220 L 124.4092 154.6152 L 124.4800 154.5627 L 124.6012 154.4900 L 124.7289 154.4296 L 124.8620 154.3820 L 124.9991 154.3477 L 125.1389 154.3269 L 125.2800 154.3200 L 126.1235 154.3200 L 126.2400 154.2035 L 126.2400 153.4355 L 126.1700 153.3188 L 126.1096 153.1911 L 126.0620 153.0580 L 126.0277 152.9209 L 126.0069 152.7811 L 126.0000 152.6400 L 126.0000 150.5555 L 125.9300 150.4388 L 125.8696 150.3111 L 125.8220 150.1780 L 125.7877 150.0409 L 125.7669 149.9011 L 125.7600 149.7600 L 125.7600 148.8755 L 125.6900 148.7588 L 125.6296 148.6311 L 125.5820 148.4980 L 125.5477 148.3609 L 125.5269 148.2211 L 125.5200 148.0800 L 125.5200 145.9955 L 125.4500 145.8788 L 125.3896 145.7511 L 125.3420 145.6180 L 125.3077 145.4809 L 125.2869 145.3411 L 125.2800 145.2000 L 125.2800 144.7955 L 125.2100 144.6788 L 125.1496 144.5511 L 125.1020 144.4180 L 125.0677 144.2809 L 125.0469 144.1411 L 125.0400 144.0000 L 125.0400 142.8755 L 124.9700 142.7588 L 124.9096 142.6311 L 124.8620 142.4980 L 124.8277 142.3609 L 124.8069 142.2211 L 124.8040 142.1618 L 124.8027 142.1600 L 124.7300 142.0388 L 124.6696 141.9111 L 124.6223 141.7787 L 124.5018 141.6582 L 124.4069 141.5535 L 124.3227 141.4400 L 124.2500 141.3188 L 124.1896 141.1911 L 124.1423 141.0587 L 124.0218 140.9382 L 123.9269 140.8335 L 123.8427 140.7200 L 123.7700 140.5988 L 123.7096 140.4711 L 123.6623 140.3387 L 123.5418 140.2182 L 123.4469 140.1135 L 123.3627 140.0000 L 123.2900 139.8788 L 123.2296 139.7511 L 123.1820 139.6180 L 123.1752 139.5908 L 123.1227 139.5200 L 123.0500 139.3988 L 122.9896 139.2711 L 122.9420 139.1380 L 122.9352 139.1108 L 122.8827 139.0400 L 122.8100 138.9188 L 122.7496 138.7911 L 122.7020 138.6580 L 122.6952 138.6308 L 122.6427 138.5600 L 122.5700 138.4388 L 122.5096 138.3111 L 122.4620 138.1780 L 122.4277 138.0409 L 122.4069 137.9011 L 122.4000 137.7600 L 122.4000 136.3200 L 122.4069 136.1789 L 122.4277 136.0391 L 122.4620 135.9020 L 122.5096 135.7689 L 122.5700 135.6412 L 122.6400 135.5245 Z M 30.4800 126.4045 L 30.4800 126.2400 L 30.4869 126.0989 L 30.5077 125.9591 L 30.5420 125.8220 L 30.5896 125.6889 L 30.6500 125.5612 L 30.7227 125.4400 L 30.8069 125.3265 L 30.9018 125.2218 L 31.6218 124.5018 L 31.7265 124.4069 L 31.8400 124.3227 L 31.9612 124.2500 L 32.0889 124.1896 L 32.2213 124.1423 L 32.3418 124.0218 L 32.4465 123.9269 L 32.5600 123.8427 L 32.6812 123.7700 L 32.8089 123.7096 L 32.9420 123.6620 L 32.9692 123.6552 L 33.0400 123.6027 L 33.1612 123.5300 L 33.2889 123.4696 L 33.4213 123.4223 L 33.5418 123.3018 L 33.6465 123.2069 L 33.7600 123.1227 L 33.8812 123.0500 L 34.0089 122.9896 L 34.1420 122.9420 L 34.1692 122.9352 L 34.2400 122.8827 L 34.3612 122.8100 L 34.4889 122.7496 L 34.6220 122.7020 L 34.6492 122.6952 L 34.7200 122.6427 L 34.8412 122.5700 L 34.9689 122.5096 L 35.1013 122.4623 L 35.4618 122.1018 L 35.5665 122.0069 L 35.6800 121.9227 L 35.8012 121.8500 L 35.9289 121.7896 L 36.0613 121.7423 L 36.1818 121.6218 L 36.2865 121.5269 L 36.4000 121.4427 L 36.5212 121.3700 L 36.6489 121.3096 L 36.7813 121.2623 L 37.3818 120.6618 L 37.4865 120.5669 L 37.6000 120.4827 L 37.7212 120.4100 L 37.8489 120.3496 L 37.9813 120.3023 L 39.7818 118.5018 L 39.8865 118.4069 L 39.9097 118.3897 L 39.9269 118.3665 L 40.0218 118.2618 L 43.0223 115.2613 L 43.0696 115.1289 L 43.1300 115.0012 L 43.2027 114.8800 L 43.2869 114.7665 L 43.3818 114.6618 L 44.4623 113.5813 L 44.5096 113.4489 L 44.5700 113.3212 L 44.6427 113.2000 L 44.7269 113.0865 L 44.8218 112.9818 L 46.1423 111.6613 L 46.1896 111.5289 L 46.2500 111.4012 L 46.3227 111.2800 L 46.4069 111.1665 L 46.5018 111.0618 L 48.3023 109.2613 L 48.3496 109.1289 L 48.4100 109.0012 L 48.4827 108.8800 L 48.5669 108.7665 L 48.6618 108.6618 L 50.8218 106.5018 L 50.9265 106.4069 L 51.0400 106.3227 L 51.1612 106.2500 L 51.2889 106.1896 L 51.4213 106.1423 L 52.1423 105.4213 L 52.1896 105.2889 L 52.2500 105.1612 L 52.3227 105.0400 L 52.4069 104.9265 L 52.5018 104.8218 L 53.9418 103.3818 L 54.0465 103.2869 L 54.1600 103.2027 L 54.2812 103.1300 L 54.4089 103.0696 L 54.5420 103.0220 L 54.6791 102.9877 L 54.8189 102.9669 L 54.9600 102.9600 L 54.9816 102.9600 L 54.9877 102.9191 L 55.0220 102.7820 L 55.0696 102.6489 L 55.1300 102.5212 L 55.2027 102.4000 L 55.2552 102.3292 L 55.2620 102.3020 L 55.3096 102.1689 L 55.3700 102.0412 L 55.4427 101.9200 L 55.5269 101.8065 L 55.6218 101.7018 L 55.8618 101.4618 L 55.9665 101.3669 L 56.0800 101.2827 L 56.2012 101.2100 L 56.3289 101.1496 L 56.4620 101.1020 L 56.5991 101.0677 L 56.7389 101.0469 L 56.8800 101.0400 L 57.8400 101.0400 L 57.9811 101.0469 L 58.1209 101.0677 L 58.2580 101.1020 L 58.3911 101.1496 L 58.5188 101.2100 L 58.6400 101.2827 L 58.7535 101.3669 L 58.8582 101.4618 L 59.5782 102.1818 L 59.6731 102.2865 L 59.7573 102.4000 L 59.8300 102.5212 L 59.8904 102.6489 L 59.9380 102.7820 L 59.9723 102.9191 L 59.9931 103.0589 L 60.0000 103.2000 L 60.0000 104.6400 L 59.9931 104.7811 L 59.9723 104.9209 L 59.9380 105.0580 L 59.8904 105.1911 L 59.8300 105.3188 L 59.7573 105.4400 L 59.6731 105.5535 L 59.5782 105.6582 L 59.3382 105.8982 L 59.2335 105.9931 L 59.1200 106.0773 L 58.9988 106.1500 L 58.8711 106.2104 L 58.7380 106.2580 L 58.6009 106.2923 L 58.4611 106.3131 L 58.3200 106.3200 L 58.0584 106.3200 L 58.0731 106.4189 L 58.0760 106.4782 L 58.0773 106.4800 L 58.1500 106.6012 L 58.2104 106.7289 L 58.2580 106.8620 L 58.2923 106.9991 L 58.3131 107.1389 L 58.3200 107.2800 L 58.3200 108.1645 L 58.3900 108.2812 L 58.4504 108.4089 L 58.4980 108.5420 L 58.5323 108.6791 L 58.5531 108.8189 L 58.5600 108.9600 L 58.5600 113.2800 L 58.5531 113.4211 L 58.5323 113.5609 L 58.4980 113.6980 L 58.4504 113.8311 L 58.3900 113.9588 L 58.3173 114.0800 L 58.2648 114.1508 L 58.2580 114.1780 L 58.2104 114.3111 L 58.1500 114.4388 L 58.0800 114.5555 L 58.0800 114.7200 L 58.0731 114.8611 L 58.0523 115.0009 L 58.0180 115.1380 L 57.9704 115.2711 L 57.9100 115.3988 L 57.8400 115.5155 L 57.8400 115.9200 L 57.8331 116.0611 L 57.8123 116.2009 L 57.7780 116.3380 L 57.7304 116.4711 L 57.6700 116.5988 L 57.5973 116.7200 L 57.5960 116.7218 L 57.5931 116.7811 L 57.5723 116.9209 L 57.5380 117.0580 L 57.4904 117.1911 L 57.4300 117.3188 L 57.3573 117.4400 L 57.3560 117.4418 L 57.3531 117.5011 L 57.3323 117.6409 L 57.2980 117.7780 L 57.2504 117.9111 L 57.1900 118.0388 L 57.1200 118.1555 L 57.1200 118.5600 L 57.1131 118.7011 L 57.0923 118.8409 L 57.0580 118.9780 L 57.0104 119.1111 L 56.9500 119.2388 L 56.8773 119.3600 L 56.8248 119.4308 L 56.8180 119.4580 L 56.7704 119.5911 L 56.7100 119.7188 L 56.6400 119.8355 L 56.6400 121.2000 L 56.6331 121.3411 L 56.6123 121.4809 L 56.5780 121.6180 L 56.5304 121.7511 L 56.4700 121.8788 L 56.3973 122.0000 L 56.3960 122.0018 L 56.3931 122.0611 L 56.3723 122.2009 L 56.3380 122.3380 L 56.2904 122.4711 L 56.2300 122.5988 L 56.1600 122.7155 L 56.1600 122.8800 L 56.1531 123.0211 L 56.1323 123.1609 L 56.0980 123.2980 L 56.0504 123.4311 L 55.9900 123.5588 L 55.9200 123.6755 L 55.9200 124.3200 L 55.9131 124.4611 L 55.8923 124.6009 L 55.8580 124.7380 L 55.8104 124.8711 L 55.7500 124.9988 L 55.6800 125.1155 L 55.6800 125.7600 L 55.6731 125.9011 L 55.6523 126.0409 L 55.6180 126.1780 L 55.5704 126.3111 L 55.5100 126.4388 L 55.4400 126.5555 L 55.4400 127.4400 L 55.4331 127.5811 L 55.4123 127.7209 L 55.3780 127.8580 L 55.3304 127.9911 L 55.2700 128.1188 L 55.2000 128.2355 L 55.2000 128.6400 L 55.1931 128.7811 L 55.1723 128.9209 L 55.1380 129.0580 L 55.0904 129.1911 L 55.0300 129.3188 L 54.9600 129.4355 L 54.9600 129.8400 L 54.9531 129.9811 L 54.9323 130.1209 L 54.8980 130.2580 L 54.8504 130.3911 L 54.7900 130.5188 L 54.7200 130.6355 L 54.7200 130.8000 L 54.7131 130.9411 L 54.6923 131.0809 L 54.6580 131.2180 L 54.6104 131.3511 L 54.5500 131.4788 L 54.4800 131.5955 L 54.4800 132.2400 L 54.4731 132.3811 L 54.4523 132.5209 L 54.4180 132.6580 L 54.3704 132.7911 L 54.3100 132.9188 L 54.2400 133.0355 L 54.2400 133.9200 L 54.2331 134.0611 L 54.2123 134.2009 L 54.1780 134.3380 L 54.1304 134.4711 L 54.0700 134.5988 L 54.0000 134.7155 L 54.0000 135.3600 L 53.9931 135.5011 L 53.9723 135.6409 L 53.9380 135.7780 L 53.8904 135.9111 L 53.8300 136.0388 L 53.7600 136.1555 L 53.7600 137.5200 L 53.7531 137.6611 L 53.7323 137.8009 L 53.6980 137.9380 L 53.6504 138.0711 L 53.5900 138.1988 L 53.5200 138.3155 L 53.5200 138.4800 L 53.5131 138.6211 L 53.4923 138.7609 L 53.4580 138.8980 L 53.4104 139.0311 L 53.3500 139.1588 L 53.2800 139.2755 L 53.2800 139.9200 L 53.2731 140.0611 L 53.2523 140.2009 L 53.2180 140.3380 L 53.1704 140.4711 L 53.1100 140.5988 L 53.0400 140.7155 L 53.0400 141.3600 L 53.0331 141.5011 L 53.0123 141.6409 L 52.9780 141.7780 L 52.9304 141.9111 L 52.8700 142.0388 L 52.8000 142.1555 L 52.8000 144.9600 L 52.7931 145.1011 L 52.7723 145.2409 L 52.7380 145.3780 L 52.6904 145.5111 L 52.6300 145.6388 L 52.5600 145.7555 L 52.5600 148.4845 L 52.6300 148.6012 L 52.6904 148.7289 L 52.7380 148.8620 L 52.7723 148.9991 L 52.7931 149.1389 L 52.8000 149.2800 L 52.8000 150.4045 L 52.8700 150.5212 L 52.9304 150.6489 L 52.9780 150.7820 L 53.0123 150.9191 L 53.0331 151.0589 L 53.0360 151.1182 L 53.0373 151.1200 L 53.1100 151.2412 L 53.1704 151.3689 L 53.2180 151.5020 L 53.2248 151.5292 L 53.2773 151.6000 L 53.3500 151.7212 L 53.4104 151.8489 L 53.4580 151.9820 L 53.4648 152.0092 L 53.5173 152.0800 L 53.5900 152.2012 L 53.6504 152.3289 L 53.6980 152.4620 L 53.7048 152.4892 L 53.7573 152.5600 L 53.8300 152.6812 L 53.8904 152.8089 L 53.9380 152.9420 L 53.9448 152.9692 L 53.9973 153.0400 L 54.0700 153.1612 L 54.1304 153.2889 L 54.1777 153.4213 L 54.2982 153.5418 L 54.3931 153.6465 L 54.4773 153.7600 L 54.5500 153.8812 L 54.6104 154.0089 L 54.6577 154.1413 L 54.6587 154.1423 L 54.7911 154.1896 L 54.9188 154.2500 L 55.0400 154.3227 L 55.1535 154.4069 L 55.2582 154.5018 L 55.6187 154.8623 L 55.7511 154.9096 L 55.8788 154.9700 L 56.0000 155.0427 L 56.1135 155.1269 L 56.2182 155.2218 L 56.3387 155.3423 L 56.4711 155.3896 L 56.5988 155.4500 L 56.7200 155.5227 L 56.8335 155.6069 L 56.9382 155.7018 L 57.0587 155.8223 L 57.1911 155.8696 L 57.3188 155.9300 L 57.4400 156.0027 L 57.5535 156.0869 L 57.6582 156.1818 L 58.0187 156.5423 L 58.1511 156.5896 L 58.2788 156.6500 L 58.4000 156.7227 L 58.4708 156.7752 L 58.4980 156.7820 L 58.6311 156.8296 L 58.7588 156.8900 L 58.8800 156.9627 L 58.9935 157.0469 L 59.0982 157.1418 L 59.8182 157.8618 L 59.9131 157.9665 L 59.9973 158.0800 L 60.0700 158.2012 L 60.1304 158.3289 L 60.1777 158.4613 L 60.2982 158.5818 L 60.3931 158.6865 L 60.4773 158.8000 L 60.5500 158.9212 L 60.6104 159.0489 L 60.6580 159.1820 L 60.6923 159.3191 L 60.7131 159.4589 L 60.7160 159.5182 L 60.7173 159.5200 L 60.7900 159.6412 L 60.8504 159.7689 L 60.8980 159.9020 L 60.9323 160.0391 L 60.9531 160.1789 L 60.9560 160.2382 L 60.9573 160.2400 L 61.0300 160.3612 L 61.0904 160.4889 L 61.1380 160.6220 L 61.1723 160.7591 L 61.1931 160.8989 L 61.1960 160.9582 L 61.1973 160.9600 L 61.2700 161.0812 L 61.3304 161.2089 L 61.3780 161.3420 L 61.4123 161.4791 L 61.4331 161.6189 L 61.4400 161.7600 L 61.4400 162.4800 L 61.4331 162.6211 L 61.4123 162.7609 L 61.3780 162.8980 L 61.3304 163.0311 L 61.2700 163.1588 L 61.1973 163.2800 L 61.1131 163.3935 L 61.0182 163.4982 L 60.7782 163.7382 L 60.6735 163.8331 L 60.5600 163.9173 L 60.4388 163.9900 L 60.3111 164.0504 L 60.1780 164.0980 L 60.0409 164.1323 L 59.9011 164.1531 L 59.7600 164.1600 L 59.1155 164.1600 L 58.9988 164.2300 L 58.8711 164.2904 L 58.7380 164.3380 L 58.6009 164.3723 L 58.4611 164.3931 L 58.3200 164.4000 L 57.9155 164.4000 L 57.7988 164.4700 L 57.6711 164.5304 L 57.5380 164.5780 L 57.4009 164.6123 L 57.2611 164.6331 L 57.1200 164.6400 L 56.7155 164.6400 L 56.5988 164.7100 L 56.4711 164.7704 L 56.3380 164.8180 L 56.2009 164.8523 L 56.0611 164.8731 L 56.0018 164.8760 L 56.0000 164.8773 L 55.8788 164.9500 L 55.7511 165.0104 L 55.6180 165.0580 L 55.4809 165.0923 L 55.3411 165.1131 L 55.2000 165.1200 L 55.0355 165.1200 L 54.9188 165.1900 L 54.7911 165.2504 L 54.6580 165.2980 L 54.5209 165.3323 L 54.3811 165.3531 L 54.2400 165.3600 L 54.0755 165.3600 L 53.9588 165.4300 L 53.8311 165.4904 L 53.6980 165.5380 L 53.5609 165.5723 L 53.4211 165.5931 L 53.3618 165.5960 L 53.3600 165.5973 L 53.2388 165.6700 L 53.1111 165.7304 L 52.9780 165.7780 L 52.8409 165.8123 L 52.7011 165.8331 L 52.6418 165.8360 L 52.6400 165.8373 L 52.5188 165.9100 L 52.3911 165.9704 L 52.2580 166.0180 L 52.1209 166.0523 L 51.9811 166.0731 L 51.8400 166.0800 L 50.4000 166.0800 L 50.2589 166.0731 L 50.1191 166.0523 L 49.9820 166.0180 L 49.8489 165.9704 L 49.7212 165.9100 L 49.6000 165.8373 L 49.5982 165.8360 L 49.5389 165.8331 L 49.3991 165.8123 L 49.2620 165.7780 L 49.1289 165.7304 L 49.0012 165.6700 L 48.8800 165.5973 L 48.8092 165.5448 L 48.7820 165.5380 L 48.6489 165.4904 L 48.5212 165.4300 L 48.4000 165.3573 L 48.2865 165.2731 L 48.1818 165.1782 L 48.0613 165.0577 L 47.9289 165.0104 L 47.8012 164.9500 L 47.6800 164.8773 L 47.5665 164.7931 L 47.4618 164.6982 L 46.2618 163.4982 L 46.1669 163.3935 L 46.0827 163.2800 L 46.0100 163.1588 L 45.9496 163.0311 L 45.9023 162.8987 L 45.5418 162.5382 L 45.4469 162.4335 L 45.3627 162.3200 L 45.2900 162.1988 L 45.2296 162.0711 L 45.1820 161.9380 L 45.1752 161.9108 L 45.1227 161.8400 L 45.0500 161.7188 L 44.9896 161.5911 L 44.9423 161.4587 L 44.8218 161.3382 L 44.7269 161.2335 L 44.6427 161.1200 L 44.5700 160.9988 L 44.5096 160.8711 L 44.4620 160.7380 L 44.4552 160.7108 L 44.4027 160.6400 L 44.3300 160.5188 L 44.2696 160.3911 L 44.2220 160.2580 L 44.2152 160.2308 L 44.1627 160.1600 L 44.0900 160.0388 L 44.0296 159.9111 L 43.9823 159.7787 L 43.8618 159.6582 L 43.7669 159.5535 L 43.6827 159.4400 L 43.6100 159.3188 L 43.5496 159.1911 L 43.5020 159.0580 L 43.4952 159.0308 L 43.4427 158.9600 L 43.3700 158.8388 L 43.3096 158.7111 L 43.2620 158.5780 L 43.2277 158.4409 L 43.2069 158.3011 L 43.2040 158.2418 L 43.2027 158.2400 L 43.1300 158.1188 L 43.0696 157.9911 L 43.0220 157.8580 L 42.9877 157.7209 L 42.9669 157.5811 L 42.9660 157.5625 L 42.6618 157.2582 L 42.5669 157.1535 L 42.4827 157.0400 L 42.4100 156.9188 L 42.3496 156.7911 L 42.3023 156.6587 L 41.4618 155.8182 L 41.3669 155.7135 L 41.2827 155.6000 L 41.2100 155.4788 L 41.1496 155.3511 L 41.1023 155.2187 L 40.7418 154.8582 L 40.6469 154.7535 L 40.5627 154.6400 L 40.4900 154.5188 L 40.4296 154.3911 L 40.3823 154.2587 L 39.3018 153.1782 L 39.2069 153.0735 L 39.1227 152.9600 L 39.0500 152.8388 L 38.9896 152.7111 L 38.9423 152.5787 L 38.8218 152.4582 L 38.7269 152.3535 L 38.6427 152.2400 L 38.5700 152.1188 L 38.5096 151.9911 L 38.4620 151.8580 L 38.4552 151.8308 L 38.4027 151.7600 L 38.3300 151.6388 L 38.2696 151.5111 L 38.2220 151.3780 L 38.1877 151.2409 L 38.1669 151.1011 L 38.1640 151.0418 L 38.1627 151.0400 L 38.0900 150.9188 L 38.0296 150.7911 L 37.9820 150.6580 L 37.9477 150.5209 L 37.9269 150.3811 L 37.9200 150.2400 L 37.9200 150.0755 L 37.8500 149.9588 L 37.7896 149.8311 L 37.7420 149.6980 L 37.7077 149.5609 L 37.6869 149.4211 L 37.6840 149.3618 L 37.6827 149.3600 L 37.6100 149.2388 L 37.5496 149.1111 L 37.5020 148.9780 L 37.4952 148.9508 L 37.4427 148.8800 L 37.3700 148.7588 L 37.3096 148.6311 L 37.2623 148.4987 L 37.1418 148.3782 L 37.0469 148.2735 L 36.9627 148.1600 L 36.8900 148.0388 L 36.8296 147.9111 L 36.7820 147.7780 L 36.7752 147.7508 L 36.7227 147.6800 L 36.6500 147.5588 L 36.5896 147.4311 L 36.5420 147.2980 L 36.5352 147.2708 L 36.4827 147.2000 L 36.4100 147.0788 L 36.3496 146.9511 L 36.3020 146.8180 L 36.2677 146.6809 L 36.2469 146.5411 L 36.2400 146.4000 L 36.2400 145.5155 L 36.1700 145.3988 L 36.1096 145.2711 L 36.0620 145.1380 L 36.0277 145.0009 L 36.0069 144.8611 L 36.0000 144.7200 L 36.0000 144.3155 L 35.9300 144.1988 L 35.8696 144.0711 L 35.8220 143.9380 L 35.7877 143.8009 L 35.7669 143.6611 L 35.7600 143.5200 L 35.7600 143.3555 L 35.6900 143.2388 L 35.6296 143.1111 L 35.5820 142.9780 L 35.5477 142.8409 L 35.5269 142.7011 L 35.5200 142.5600 L 35.5200 142.1555 L 35.4500 142.0388 L 35.3896 141.9111 L 35.3420 141.7780 L 35.3077 141.6409 L 35.2869 141.5011 L 35.2840 141.4418 L 35.2827 141.4400 L 35.2100 141.3188 L 35.1496 141.1911 L 35.1020 141.0580 L 35.0677 140.9209 L 35.0469 140.7811 L 35.0400 140.6400 L 35.0400 140.4755 L 34.9700 140.3588 L 34.9096 140.2311 L 34.8620 140.0980 L 34.8277 139.9609 L 34.8069 139.8211 L 34.8040 139.7618 L 34.8027 139.7600 L 34.7300 139.6388 L 34.6696 139.5111 L 34.6220 139.3780 L 34.5877 139.2409 L 34.5669 139.1011 L 34.5640 139.0418 L 34.5627 139.0400 L 34.4900 138.9188 L 34.4296 138.7911 L 34.3820 138.6580 L 34.3477 138.5209 L 34.3269 138.3811 L 34.3240 138.3218 L 34.3227 138.3200 L 34.2500 138.1988 L 34.1896 138.0711 L 34.1420 137.9380 L 34.1352 137.9108 L 34.0827 137.8400 L 34.0100 137.7188 L 33.9496 137.5911 L 33.9020 137.4580 L 33.8677 137.3209 L 33.8469 137.1811 L 33.8440 137.1218 L 33.8427 137.1200 L 33.7700 136.9988 L 33.7096 136.8711 L 33.6620 136.7380 L 33.6552 136.7108 L 33.6027 136.6400 L 33.5300 136.5188 L 33.4696 136.3911 L 33.4220 136.2580 L 33.4152 136.2308 L 33.3627 136.1600 L 33.2900 136.0388 L 33.2296 135.9111 L 33.1820 135.7780 L 33.1752 135.7508 L 33.1227 135.6800 L 33.0500 135.5588 L 32.9896 135.4311 L 32.9420 135.2980 L 32.9077 135.1609 L 32.8869 135.0211 L 32.8840 134.9618 L 32.8827 134.9600 L 32.8100 134.8388 L 32.7496 134.7111 L 32.7020 134.5780 L 32.6952 134.5508 L 32.6427 134.4800 L 32.5700 134.3588 L 32.5096 134.2311 L 32.4620 134.0980 L 32.4277 133.9609 L 32.4069 133.8211 L 32.4040 133.7618 L 32.4027 133.7600 L 32.3300 133.6388 L 32.2696 133.5111 L 32.2220 133.3780 L 32.2152 133.3508 L 32.1627 133.2800 L 32.0900 133.1588 L 32.0296 133.0311 L 31.9820 132.8980 L 31.9752 132.8708 L 31.9227 132.8000 L 31.8500 132.6788 L 31.7896 132.5511 L 31.7420 132.4180 L 31.7077 132.2809 L 31.6869 132.1411 L 31.6840 132.0818 L 31.6827 132.0800 L 31.6100 131.9588 L 31.5496 131.8311 L 31.5020 131.6980 L 31.4952 131.6708 L 31.4427 131.6000 L 31.3700 131.4788 L 31.3096 131.3511 L 31.2620 131.2180 L 31.2277 131.0809 L 31.2069 130.9411 L 31.2040 130.8818 L 31.2027 130.8800 L 31.1300 130.7588 L 31.0696 130.6311 L 31.0220 130.4980 L 30.9877 130.3609 L 30.9669 130.2211 L 30.9600 130.0800 L 30.9600 129.6755 L 30.8900 129.5588 L 30.8296 129.4311 L 30.7820 129.2980 L 30.7752 129.2708 L 30.7227 129.2000 L 30.6500 129.0788 L 30.5896 128.9511 L 30.5420 128.8180 L 30.5077 128.6809 L 30.4869 128.5411 L 30.4800 128.4000 L 30.4800 127.9955 L 30.4100 127.8788 L 30.3496 127.7511 L 30.3020 127.6180 L 30.2677 127.4809 L 30.2469 127.3411 L 30.2400 127.2000 L 30.2469 127.0589 L 30.2677 126.9191 L 30.3020 126.7820 L 30.3496 126.6489 L 30.4100 126.5212 L 30.4800 126.4045 Z" fill="none" stroke="black" stroke-width="0.5" /></svg>