<?xml version="1.0" encoding="utf-8" ?>
<svg baseProfile="full" height="261" version="1.1" viewBox="0 0 189 261" width="189" xmlns="http://www.w3.org/2000/svg" xmlns:ev="http://www.w3.org/2001/xml-events" xmlns:xlink="http://www.w3.org/1999/xlink"><defs /><path d="M 4.5600 4.5600 L 184.3200 4.5600 L 184.3200 256.3200 L 4.5600 256.3200 L 4.5600 4.5600 Z M 9.6000 10.0800 L 9.8400 9.8400 L 179.0400 9.8400 L 179.2800 10.0800 L 179.2800 119.0400 L 178.8000 119.5200 L 178.5600 119.5200 L 178.3200 119.7600 L 178.0800 119.7600 L 177.8400 120.0000 L 177.6000 120.0000 L 177.3600 120.2400 L 177.1200 120.2400 L 176.8800 120.4800 L 176.4000 120.4800 L 176.1600 120.7200 L 175.9200 120.7200 L 175.6800 120.9600 L 175.4400 120.9600 L 175.2000 121.2000 L 174.7200 121.2000 L 174.4800 121.4400 L 174.2400 121.4400 L 174.0000 121.6800 L 173.7600 121.6800 L 173.5200 121.9200 L 173.2800 121.9200 L 173.0400 122.1600 L 172.5600 122.1600 L 172.3200 122.4000 L 172.0800 122.4000 L 171.8400 122.6400 L 171.6000 122.6400 L 171.3600 122.8800 L 170.8800 122.8800 L 170.6400 123.1200 L 170.4000 123.1200 L 170.1600 123.3600 L 169.9200 123.3600 L 169.6800 123.6000 L 169.2000 123.6000 L 168.9600 123.8400 L 168.7200 123.8400 L 168.4800 124.0800 L 168.2400 124.0800 L 168.0000 124.3200 L 167.7600 124.3200 L 167.5200 124.5600 L 167.0400 124.5600 L 166.8000 124.8000 L 166.5600 124.8000 L 166.3200 125.0400 L 166.0800 125.0400 L 165.8400 125.2800 L 165.3600 125.2800 L 165.1200 125.5200 L 164.8800 125.5200 L 164.6400 125.7600 L 164.4000 125.7600 L 164.1600 126.0000 L 163.6800 126.0000 L 163.4400 126.2400 L 163.2000 126.2400 L 162.9600 126.4800 L 162.7200 126.4800 L 162.4800 126.7200 L 162.2400 126.7200 L 162.0000 126.9600 L 161.5200 126.9600 L 161.2800 127.2000 L 161.0400 127.2000 L 160.8000 127.4400 L 160.3200 127.4400 L 160.0800 127.6800 L 159.8400 127.6800 L 159.6000 127.9200 L 159.3600 127.9200 L 159.1200 128.1600 L 158.6400 128.1600 L 158.4000 128.4000 L 158.1600 128.4000 L 157.9200 128.6400 L 157.6800 128.6400 L 157.4400 128.8800 L 157.2000 128.8800 L 156.9600 129.1200 L 156.4800 129.1200 L 156.2400 129.3600 L 156.0000 129.3600 L 155.7600 129.6000 L 155.5200 129.6000 L 155.2800 129.8400 L 154.8000 129.8400 L 154.5600 130.0800 L 154.3200 130.0800 L 154.0800 130.3200 L 153.8400 130.3200 L 153.6000 130.5600 L 153.1200 130.5600 L 152.8800 130.8000 L 152.6400 130.8000 L 152.4000 131.0400 L 152.1600 131.0400 L 151.9200 131.2800 L 151.6800 131.2800 L 151.4400 131.5200 L 151.2000 131.5200 L 150.9600 131.7600 L 150.4800 131.7600 L 150.2400 132.0000 L 150.0000 132.0000 L 149.7600 132.2400 L 149.5200 132.2400 L 149.2800 132.4800 L 148.8000 132.4800 L 148.5600 132.7200 L 148.3200 132.7200 L 148.0800 132.9600 L 147.6000 132.9600 L 147.3600 133.2000 L 147.1200 133.2000 L 146.8800 133.4400 L 146.6400 133.4400 L 146.4000 133.6800 L 146.1600 133.6800 L 145.9200 133.9200 L 145.4400 133.9200 L 145.2000 134.1600 L 144.9600 134.1600 L 144.7200 134.4000 L 144.2400 134.4000 L 144.0000 134.6400 L 143.7600 134.6400 L 143.5200 134.8800 L 143.2800 134.8800 L 143.0400 135.1200 L 142.5600 135.1200 L 142.3200 135.3600 L 142.0800 135.3600 L 141.8400 135.6000 L 141.6000 135.6000 L 141.3600 135.8400 L 141.1200 135.8400 L 140.8800 136.0800 L 140.4000 136.0800 L 140.1600 136.3200 L 139.9200 136.3200 L 139.6800 136.5600 L 139.4400 136.5600 L 139.2000 136.8000 L 138.7200 136.8000 L 138.4800 137.0400 L 138.2400 137.0400 L 138.0000 137.2800 L 137.7600 137.2800 L 137.5200 137.5200 L 137.0400 137.5200 L 136.8000 137.7600 L 136.5600 137.7600 L 136.3200 138.0000 L 136.0800 138.0000 L 135.8400 138.2400 L 135.3600 138.2400 L 135.1200 138.4800 L 134.8800 138.4800 L 134.6400 138.7200 L 134.4000 138.7200 L 134.1600 138.9600 L 133.6800 138.9600 L 133.4400 139.2000 L 133.2000 139.2000 L 132.9600 139.4400 L 132.7200 139.4400 L 132.4800 139.6800 L 132.2400 139.6800 L 132.0000 139.9200 L 131.5200 139.9200 L 131.2800 140.1600 L 131.0400 140.1600 L 130.8000 140.4000 L 130.5600 140.4000 L 130.3200 140.6400 L 129.8400 140.6400 L 129.6000 140.8800 L 129.3600 140.8800 L 129.1200 141.1200 L 128.6400 141.1200 L 127.9200 141.8400 L 127.9200 142.3200 L 127.4400 142.8000 L 126.9600 142.8000 L 126.2400 143.5200 L 126.2400 143.7600 L 126.0000 144.0000 L 126.0000 144.4800 L 126.7200 145.2000 L 127.4400 145.2000 L 127.6800 145.4400 L 128.4000 145.4400 L 128.6400 145.6800 L 129.3600 145.6800 L 129.6000 145.9200 L 130.3200 145.9200 L 130.5600 146.1600 L 131.2800 146.1600 L 131.5200 146.4000 L 132.2400 146.4000 L 132.4800 146.6400 L 133.2000 146.6400 L 133.4400 146.8800 L 133.9200 146.8800 L 134.1600 147.1200 L 134.8800 147.1200 L 135.1200 147.3600 L 136.0800 147.3600 L 136.3200 147.6000 L 137.2800 147.6000 L 137.5200 147.8400 L 139.2000 147.8400 L 139.4400 148.0800 L 141.3600 148.0800 L 141.6000 148.3200 L 143.0400 148.3200 L 143.2800 148.5600 L 144.9600 148.5600 L 145.2000 148.8000 L 145.6800 148.8000 L 145.9200 149.0400 L 146.6400 149.0400 L 146.8800 149.2800 L 147.6000 149.2800 L 147.8400 149.5200 L 148.8000 149.5200 L 149.0400 149.7600 L 150.0000 149.7600 L 150.2400 150.0000 L 151.2000 150.0000 L 151.4400 150.2400 L 152.4000 150.2400 L 152.6400 150.4800 L 153.8400 150.4800 L 154.0800 150.7200 L 154.8000 150.7200 L 155.0400 150.9600 L 156.2400 150.9600 L 156.4800 151.2000 L 157.6800 151.2000 L 157.9200 151.4400 L 159.1200 151.4400 L 159.3600 151.6800 L 160.5600 151.6800 L 160.8000 151.9200 L 162.0000 151.9200 L 162.2400 152.1600 L 163.6800 152.1600 L 163.9200 152.4000 L 165.3600 152.4000 L 165.6000 152.6400 L 165.8400 152.6400 L 166.0800 152.8800 L 166.5600 152.8800 L 166.8000 153.1200 L 167.0400 153.1200 L 167.2800 153.3600 L 168.0000 153.3600 L 168.2400 153.6000 L 168.4800 153.6000 L 168.7200 153.8400 L 169.6800 153.8400 L 169.9200 154.0800 L 170.4000 154.0800 L 170.6400 154.3200 L 171.8400 154.3200 L 172.0800 154.5600 L 173.2800 154.5600 L 173.5200 154.8000 L 174.2400 154.8000 L 174.4800 155.0400 L 175.6800 155.0400 L 175.9200 155.2800 L 177.6000 155.2800 L 177.8400 155.0400 L 178.0800 155.2800 L 178.3200 155.2800 L 178.5600 155.0400 L 179.0400 155.0400 L 179.2800 155.2800 L 179.2800 205.2000 L 178.8000 205.6800 L 10.0800 205.6800 L 9.6000 205.2000 L 9.6000 168.0000 L 9.8400 167.7600 L 9.8400 167.5200 L 10.3200 167.0400 L 10.5600 167.0400 L 12.0000 165.6000 L 12.2400 165.6000 L 12.2400 165.3600 L 12.4800 165.1200 L 12.7200 165.1200 L 13.4400 164.4000 L 13.4400 164.1600 L 14.8800 162.7200 L 14.8800 162.4800 L 15.8400 161.5200 L 15.8400 161.2800 L 16.5600 160.5600 L 16.5600 160.3200 L 17.0400 159.8400 L 17.0400 159.6000 L 17.7600 158.8800 L 17.7600 158.6400 L 18.4800 157.9200 L 18.4800 157.6800 L 20.4000 155.7600 L 20.4000 155.5200 L 20.6400 155.2800 L 20.8800 155.2800 L 20.8800 155.0400 L 21.3600 154.5600 L 21.6000 154.5600 L 21.6000 154.3200 L 24.7200 151.2000 L 24.7200 150.9600 L 24.9600 150.7200 L 25.2000 150.7200 L 25.9200 150.0000 L 25.9200 149.7600 L 26.1600 149.5200 L 26.4000 149.5200 L 26.4000 149.2800 L 26.8800 148.8000 L 27.1200 148.8000 L 27.1200 148.5600 L 27.3600 148.3200 L 27.6000 148.3200 L 27.6000 148.0800 L 27.8400 147.8400 L 28.0800 147.8400 L 29.5200 146.4000 L 29.7600 146.4000 L 29.7600 146.1600 L 30.0000 145.9200 L 30.2400 145.9200 L 32.4000 143.7600 L 32.6400 143.7600 L 34.0800 142.3200 L 34.3200 142.3200 L 35.0400 141.6000 L 35.2800 141.6000 L 36.0000 140.8800 L 36.2400 140.8800 L 36.9600 140.1600 L 37.2000 140.1600 L 37.6800 139.6800 L 37.9200 139.6800 L 38.4000 139.2000 L 38.6400 139.2000 L 39.3600 138.4800 L 39.6000 138.4800 L 40.0800 138.0000 L 40.3200 138.0000 L 41.0400 137.2800 L 41.2800 137.2800 L 41.7600 136.8000 L 42.0000 136.8000 L 42.4800 136.3200 L 42.7200 136.3200 L 43.6800 135.3600 L 43.9200 135.3600 L 44.8800 134.4000 L 45.1200 134.4000 L 46.0800 133.4400 L 46.3200 133.4400 L 47.2800 132.4800 L 47.5200 132.4800 L 48.4800 131.5200 L 48.7200 131.5200 L 49.4400 130.8000 L 49.6800 130.8000 L 50.6400 129.8400 L 50.8800 129.8400 L 51.6000 129.1200 L 51.8400 129.1200 L 52.3200 128.6400 L 52.5600 128.6400 L 53.0400 128.1600 L 53.2800 128.1600 L 53.7600 127.6800 L 54.2400 127.6800 L 54.7200 127.2000 L 54.9600 127.2000 L 55.2000 126.9600 L 55.4400 126.9600 L 55.6800 126.7200 L 55.9200 126.7200 L 56.1600 126.4800 L 56.4000 126.4800 L 56.8800 126.0000 L 57.1200 126.0000 L 58.0800 125.0400 L 58.3200 125.0400 L 59.2800 124.0800 L 59.5200 124.0800 L 61.4400 122.1600 L 61.6800 122.1600 L 65.0400 118.8000 L 65.0400 118.5600 L 65.7600 117.8400 L 65.7600 117.6000 L 66.2400 117.1200 L 66.0000 116.8800 L 66.0000 116.6400 L 65.7600 116.4000 L 64.3200 116.4000 L 64.0800 116.6400 L 63.1200 116.6400 L 62.8800 116.8800 L 61.9200 116.8800 L 61.6800 117.1200 L 60.7200 117.1200 L 60.4800 117.3600 L 59.2800 117.3600 L 59.0400 117.6000 L 58.0800 117.6000 L 57.8400 117.8400 L 56.6400 117.8400 L 56.4000 118.0800 L 55.2000 118.0800 L 54.9600 118.3200 L 54.2400 118.3200 L 54.0000 118.5600 L 52.0800 118.5600 L 51.8400 118.8000 L 49.2000 118.8000 L 48.9600 119.0400 L 47.5200 119.0400 L 47.2800 119.2800 L 46.3200 119.2800 L 46.0800 119.5200 L 45.3600 119.5200 L 45.1200 119.7600 L 44.8800 119.7600 L 44.6400 120.0000 L 44.1600 120.0000 L 43.9200 120.2400 L 43.2000 120.2400 L 42.9600 120.4800 L 42.4800 120.4800 L 42.2400 120.7200 L 42.0000 120.7200 L 41.7600 120.9600 L 41.2800 120.9600 L 41.0400 121.2000 L 40.5600 121.2000 L 40.3200 121.4400 L 39.6000 121.4400 L 39.3600 121.6800 L 38.8800 121.6800 L 38.6400 121.9200 L 38.1600 121.9200 L 37.9200 122.1600 L 37.4400 122.1600 L 37.2000 122.4000 L 36.7200 122.4000 L 36.4800 122.6400 L 35.7600 122.6400 L 35.5200 122.8800 L 35.0400 122.8800 L 34.8000 123.1200 L 34.3200 123.1200 L 34.0800 123.3600 L 33.6000 123.3600 L 33.3600 123.6000 L 32.6400 123.6000 L 32.4000 123.8400 L 31.9200 123.8400 L 31.6800 124.0800 L 31.2000 124.0800 L 30.9600 124.3200 L 30.7200 124.3200 L 30.4800 124.5600 L 29.5200 124.5600 L 29.2800 124.8000 L 28.0800 124.8000 L 27.8400 125.0400 L 27.1200 125.0400 L 26.8800 125.2800 L 25.9200 125.2800 L 25.6800 125.5200 L 9.8400 125.5200 L 9.6000 125.2800 L 9.6000 10.0800 Z" fill="none" stroke="black" stroke-width="0.5" /></svg>