<?xml version="1.0" encoding="utf-8" ?>
<svg baseProfile="full" height="261" version="1.1" viewBox="0 0 189 261" width="189" xmlns="http://www.w3.org/2000/svg" xmlns:ev="http://www.w3.org/2001/xml-events" xmlns:xlink="http://www.w3.org/1999/xlink"><defs /><path d="M 4.5600 4.5600 L 184.3200 4.5600 L 184.3200 256.3200 L 4.5600 256.3200 L 4.5600 4.5600 Z M 8.4552 167.1292 L 8.4620 167.1020 L 8.5096 166.9689 L 8.5700 166.8412 L 8.6427 166.7200 L 8.7269 166.6065 L 8.8218 166.5018 L 9.3018 166.0218 L 9.4065 165.9269 L 9.5200 165.8427 L 9.6412 165.7700 L 9.7689 165.7096 L 9.9013 165.6623 L 10.9818 164.5818 L 11.0865 164.4869 L 11.1097 164.4697 L 11.1269 164.4465 L 11.2218 164.3418 L 11.4618 164.1018 L 11.5665 164.0069 L 11.6800 163.9227 L 11.8012 163.8500 L 11.9289 163.7896 L 12.0613 163.7423 L 12.0623 163.7413 L 12.1096 163.6089 L 12.1700 163.4812 L 12.2427 163.3600 L 12.3269 163.2465 L 12.4218 163.1418 L 13.5023 162.0613 L 13.5496 161.9289 L 13.6100 161.8012 L 13.6827 161.6800 L 13.7669 161.5665 L 13.8618 161.4618 L 14.4623 160.8613 L 14.5096 160.7289 L 14.5700 160.6012 L 14.6427 160.4800 L 14.7269 160.3665 L 14.8218 160.2618 L 15.7818 159.3018 L 15.8865 159.2069 L 16.0000 159.1227 L 16.1212 159.0500 L 16.2489 158.9896 L 16.3820 158.9420 L 16.5191 158.9077 L 16.6589 158.8869 L 16.8000 158.8800 L 16.9411 158.8869 L 17.0809 158.9077 L 17.2180 158.9420 L 17.3511 158.9896 L 17.4788 159.0500 L 17.6000 159.1227 L 17.7135 159.2069 L 17.8182 159.3018 L 19.2582 160.7418 L 19.3531 160.8465 L 19.4373 160.9600 L 19.5100 161.0812 L 19.5704 161.2089 L 19.6177 161.3413 L 20.4582 162.1818 L 20.5531 162.2865 L 20.6373 162.4000 L 20.7100 162.5212 L 20.7704 162.6489 L 20.8177 162.7813 L 22.1382 164.1018 L 22.2331 164.2065 L 22.3173 164.3200 L 22.3900 164.4412 L 22.4504 164.5689 L 22.4977 164.7013 L 22.6182 164.8218 L 22.7131 164.9265 L 22.7973 165.0400 L 22.8700 165.1612 L 22.9304 165.2889 L 22.9777 165.4213 L 23.5782 166.0218 L 23.6731 166.1265 L 23.7573 166.2400 L 23.8300 166.3612 L 23.8904 166.4889 L 23.9377 166.6213 L 24.0582 166.7418 L 24.1531 166.8465 L 24.2373 166.9600 L 24.3100 167.0812 L 24.3704 167.2089 L 24.4180 167.3420 L 24.4248 167.3692 L 24.4773 167.4400 L 24.5500 167.5612 L 24.6104 167.6889 L 24.6577 167.8213 L 25.0182 168.1818 L 25.1131 168.2865 L 25.1973 168.4000 L 25.2700 168.5212 L 25.3304 168.6489 L 25.3777 168.7813 L 25.4982 168.9018 L 25.5931 169.0065 L 25.6773 169.1200 L 25.7500 169.2412 L 25.8104 169.3689 L 25.8577 169.5013 L 26.2182 169.8618 L 26.3131 169.9665 L 26.3973 170.0800 L 26.4700 170.2012 L 26.5304 170.3289 L 26.5777 170.4613 L 26.6982 170.5818 L 26.7931 170.6865 L 26.8773 170.8000 L 26.9500 170.9212 L 27.0104 171.0489 L 27.0577 171.1813 L 27.4182 171.5418 L 27.5131 171.6465 L 27.5973 171.7600 L 27.6700 171.8812 L 27.7304 172.0089 L 27.7777 172.1413 L 27.8982 172.2618 L 27.9931 172.3665 L 28.0773 172.4800 L 28.1500 172.6012 L 28.2104 172.7289 L 28.2580 172.8620 L 28.2648 172.8892 L 28.3173 172.9600 L 28.3900 173.0812 L 28.4504 173.2089 L 28.4977 173.3413 L 28.6182 173.4618 L 28.7131 173.5665 L 28.7973 173.6800 L 28.8700 173.8012 L 28.9304 173.9289 L 28.9777 174.0613 L 29.0982 174.1818 L 29.1931 174.2865 L 29.2773 174.4000 L 29.3500 174.5212 L 29.4104 174.6489 L 29.4580 174.7820 L 29.4648 174.8092 L 29.5173 174.8800 L 29.5900 175.0012 L 29.6504 175.1289 L 29.6977 175.2613 L 29.8182 175.3818 L 29.9131 175.4865 L 29.9973 175.6000 L 30.0700 175.7212 L 30.1304 175.8489 L 30.1777 175.9813 L 30.2982 176.1018 L 30.3931 176.2065 L 30.4773 176.3200 L 30.5500 176.4412 L 30.6104 176.5689 L 30.6580 176.7020 L 30.6648 176.7292 L 30.7173 176.8000 L 30.7900 176.9212 L 30.8504 177.0489 L 30.8977 177.1813 L 31.2582 177.5418 L 31.3531 177.6465 L 31.4373 177.7600 L 31.5100 177.8812 L 31.5704 178.0089 L 31.6177 178.1413 L 32.6982 179.2218 L 32.7931 179.3265 L 32.8773 179.4400 L 32.9500 179.5612 L 33.0104 179.6889 L 33.0577 179.8213 L 33.4182 180.1818 L 33.5131 180.2865 L 33.5973 180.4000 L 33.6700 180.5212 L 33.7304 180.6489 L 33.7780 180.7820 L 33.7848 180.8092 L 33.8373 180.8800 L 33.9100 181.0012 L 33.9704 181.1289 L 34.0177 181.2613 L 34.1382 181.3818 L 34.2331 181.4865 L 34.3173 181.6000 L 34.3900 181.7212 L 34.4504 181.8489 L 34.4980 181.9820 L 34.5048 182.0092 L 34.5573 182.0800 L 34.6300 182.2012 L 34.6904 182.3289 L 34.7377 182.4613 L 34.8582 182.5818 L 34.9531 182.6865 L 35.0373 182.8000 L 35.1100 182.9212 L 35.1704 183.0489 L 35.2180 183.1820 L 35.2248 183.2092 L 35.2773 183.2800 L 35.3500 183.4012 L 35.4104 183.5289 L 35.4580 183.6620 L 35.4648 183.6892 L 35.5173 183.7600 L 35.5900 183.8812 L 35.6504 184.0089 L 35.6980 184.1420 L 35.7048 184.1692 L 35.7573 184.2400 L 35.8300 184.3612 L 35.8904 184.4889 L 35.9380 184.6220 L 35.9448 184.6492 L 35.9973 184.7200 L 36.0700 184.8412 L 36.1304 184.9689 L 36.1780 185.1020 L 36.2123 185.2391 L 36.2331 185.3789 L 36.2360 185.4382 L 36.2373 185.4400 L 36.3100 185.5612 L 36.3704 185.6889 L 36.4180 185.8220 L 36.4523 185.9591 L 36.4731 186.0989 L 36.4760 186.1582 L 36.4773 186.1600 L 36.5500 186.2812 L 36.6104 186.4089 L 36.6580 186.5420 L 36.6923 186.6791 L 36.7131 186.8189 L 36.7160 186.8782 L 36.7173 186.8800 L 36.7900 187.0012 L 36.8504 187.1289 L 36.8980 187.2620 L 36.9048 187.2892 L 36.9573 187.3600 L 37.0300 187.4812 L 37.0904 187.6089 L 37.1380 187.7420 L 37.1723 187.8791 L 37.1931 188.0189 L 37.1960 188.0782 L 37.1973 188.0800 L 37.2700 188.2012 L 37.3304 188.3289 L 37.3780 188.4620 L 37.4123 188.5991 L 37.4331 188.7389 L 37.4360 188.7982 L 37.4373 188.8000 L 37.5100 188.9212 L 37.5704 189.0489 L 37.6177 189.1813 L 37.7382 189.3018 L 37.8331 189.4065 L 37.9173 189.5200 L 37.9900 189.6412 L 38.0504 189.7689 L 38.0980 189.9020 L 38.1048 189.9292 L 38.1573 190.0000 L 38.2300 190.1212 L 38.2904 190.2489 L 38.3377 190.3813 L 38.4582 190.5018 L 38.5531 190.6065 L 38.6373 190.7200 L 38.7100 190.8412 L 38.7704 190.9689 L 38.8177 191.1013 L 42.2982 194.5818 L 42.3931 194.6865 L 42.4773 194.8000 L 42.5500 194.9212 L 42.6104 195.0489 L 42.6577 195.1813 L 43.2582 195.7818 L 43.3531 195.8865 L 43.4373 196.0000 L 43.5100 196.1212 L 43.5704 196.2489 L 43.6180 196.3820 L 43.6248 196.4092 L 43.6773 196.4800 L 43.7500 196.6012 L 43.8104 196.7289 L 43.8580 196.8620 L 43.8923 196.9991 L 43.9131 197.1389 L 43.9200 197.2800 L 43.9200 197.4445 L 43.9900 197.5612 L 44.0504 197.6889 L 44.0980 197.8220 L 44.1323 197.9591 L 44.1531 198.0989 L 44.1600 198.2400 L 44.1600 198.4045 L 44.2300 198.5212 L 44.2904 198.6489 L 44.3380 198.7820 L 44.3448 198.8092 L 44.3973 198.8800 L 44.4700 199.0012 L 44.5304 199.1289 L 44.5777 199.2613 L 44.6982 199.3818 L 44.7931 199.4865 L 44.8773 199.6000 L 44.9500 199.7212 L 45.0104 199.8489 L 45.0577 199.9813 L 45.4182 200.3418 L 45.5131 200.4465 L 45.5973 200.5600 L 45.6700 200.6812 L 45.7304 200.8089 L 45.7777 200.9413 L 45.8982 201.0618 L 45.9931 201.1665 L 46.0773 201.2800 L 46.1500 201.4012 L 46.2104 201.5289 L 46.2580 201.6620 L 46.2648 201.6892 L 46.3173 201.7600 L 46.3900 201.8812 L 46.4504 202.0089 L 46.4977 202.1413 L 46.6182 202.2618 L 46.7131 202.3665 L 46.7973 202.4800 L 46.8700 202.6012 L 46.9304 202.7289 L 46.9777 202.8613 L 48.0582 203.9418 L 48.1531 204.0465 L 48.2373 204.1600 L 48.3100 204.2812 L 48.3704 204.4089 L 48.4180 204.5420 L 48.4248 204.5692 L 48.4773 204.6400 L 48.5500 204.7612 L 48.6104 204.8889 L 48.6580 205.0220 L 48.6923 205.1591 L 48.7131 205.2989 L 48.7200 205.4400 L 48.7131 205.5811 L 48.6923 205.7209 L 48.6580 205.8580 L 48.6104 205.9911 L 48.5500 206.1188 L 48.4773 206.2400 L 48.3931 206.3535 L 48.2982 206.4582 L 48.0582 206.6982 L 47.9535 206.7931 L 47.8400 206.8773 L 47.7188 206.9500 L 47.5911 207.0104 L 47.4580 207.0580 L 47.3209 207.0923 L 47.1811 207.1131 L 47.0400 207.1200 L 10.0800 207.1200 L 9.9389 207.1131 L 9.7991 207.0923 L 9.6620 207.0580 L 9.5289 207.0104 L 9.4012 206.9500 L 9.2800 206.8773 L 9.1665 206.7931 L 9.0618 206.6982 L 8.5818 206.2182 L 8.4869 206.1135 L 8.4027 206.0000 L 8.3300 205.8788 L 8.2696 205.7511 L 8.2220 205.6180 L 8.1877 205.4809 L 8.1669 205.3411 L 8.1600 205.2000 L 8.1600 168.0000 L 8.1669 167.8589 L 8.1877 167.7191 L 8.2220 167.5820 L 8.2696 167.4489 L 8.3300 167.3212 L 8.4027 167.2000 L 8.4552 167.1292 Z M 134.9352 202.7108 L 134.8827 202.6400 L 134.8100 202.5188 L 134.7496 202.3911 L 134.7020 202.2580 L 134.6677 202.1209 L 134.6469 201.9811 L 134.6400 201.8400 L 134.6400 201.3600 L 134.6469 201.2189 L 134.6677 201.0791 L 134.7020 200.9420 L 134.7496 200.8089 L 134.8100 200.6812 L 134.8827 200.5600 L 134.9669 200.4465 L 135.0618 200.3418 L 135.9023 199.5013 L 135.9496 199.3689 L 136.0100 199.2412 L 136.0827 199.1200 L 136.1669 199.0065 L 136.2618 198.9018 L 136.6223 198.5413 L 136.6696 198.4089 L 136.7300 198.2812 L 136.8027 198.1600 L 136.8869 198.0465 L 136.9818 197.9418 L 137.1023 197.8213 L 137.1496 197.6889 L 137.2100 197.5612 L 137.2827 197.4400 L 137.3669 197.3265 L 137.4618 197.2218 L 138.4218 196.2618 L 138.5265 196.1669 L 138.6400 196.0827 L 138.7612 196.0100 L 138.8889 195.9496 L 139.0220 195.9020 L 139.0492 195.8952 L 139.1200 195.8427 L 139.2412 195.7700 L 139.3689 195.7096 L 139.5020 195.6620 L 139.6391 195.6277 L 139.7789 195.6069 L 139.8382 195.6040 L 139.8400 195.6027 L 139.9612 195.5300 L 140.0889 195.4696 L 140.2213 195.4223 L 140.3418 195.3018 L 140.4465 195.2069 L 140.5600 195.1227 L 140.6812 195.0500 L 140.8089 194.9896 L 140.9413 194.9423 L 141.0618 194.8218 L 141.1665 194.7269 L 141.2800 194.6427 L 141.4012 194.5700 L 141.5289 194.5096 L 141.6613 194.4623 L 141.7818 194.3418 L 141.8865 194.2469 L 142.0000 194.1627 L 142.1212 194.0900 L 142.2489 194.0296 L 142.3813 193.9823 L 142.7418 193.6218 L 142.8465 193.5269 L 142.9600 193.4427 L 143.0812 193.3700 L 143.2089 193.3096 L 143.3413 193.2623 L 143.7018 192.9018 L 143.8065 192.8069 L 143.9200 192.7227 L 144.0412 192.6500 L 144.1689 192.5896 L 144.3013 192.5423 L 144.6618 192.1818 L 144.7665 192.0869 L 144.8800 192.0027 L 145.0012 191.9300 L 145.1289 191.8696 L 145.2613 191.8223 L 146.1018 190.9818 L 146.2065 190.8869 L 146.3200 190.8027 L 146.4412 190.7300 L 146.5689 190.6696 L 146.7013 190.6223 L 147.1823 190.1413 L 147.2296 190.0089 L 147.2900 189.8812 L 147.3627 189.7600 L 147.4469 189.6465 L 147.5418 189.5418 L 147.9023 189.1813 L 147.9496 189.0489 L 148.0100 188.9212 L 148.0827 188.8000 L 148.1669 188.6865 L 148.2618 188.5818 L 148.3823 188.4613 L 148.4296 188.3289 L 148.4900 188.2012 L 148.5627 188.0800 L 148.6152 188.0092 L 148.6220 187.9820 L 148.6696 187.8489 L 148.7300 187.7212 L 148.8027 187.6000 L 148.8552 187.5292 L 148.8620 187.5020 L 148.9096 187.3689 L 148.9700 187.2412 L 149.0427 187.1200 L 149.0952 187.0492 L 149.1020 187.0220 L 149.1496 186.8889 L 149.2100 186.7612 L 149.2827 186.6400 L 149.2840 186.6382 L 149.2869 186.5789 L 149.3077 186.4391 L 149.3420 186.3020 L 149.3896 186.1689 L 149.4500 186.0412 L 149.5227 185.9200 L 149.5240 185.9182 L 149.5269 185.8589 L 149.5477 185.7191 L 149.5820 185.5820 L 149.6296 185.4489 L 149.6900 185.3212 L 149.7627 185.2000 L 149.8152 185.1292 L 149.8220 185.1020 L 149.8696 184.9689 L 149.9300 184.8412 L 150.0027 184.7200 L 150.0552 184.6492 L 150.0620 184.6220 L 150.1096 184.4889 L 150.1700 184.3612 L 150.2427 184.2400 L 150.2952 184.1692 L 150.3020 184.1420 L 150.3496 184.0089 L 150.4100 183.8812 L 150.4827 183.7600 L 150.5352 183.6892 L 150.5420 183.6620 L 150.5896 183.5289 L 150.6500 183.4012 L 150.7227 183.2800 L 150.7752 183.2092 L 150.7820 183.1820 L 150.8296 183.0489 L 150.8900 182.9212 L 150.9627 182.8000 L 151.0152 182.7292 L 151.0220 182.7020 L 151.0696 182.5689 L 151.1300 182.4412 L 151.2027 182.3200 L 151.2869 182.2065 L 151.3818 182.1018 L 151.5023 181.9813 L 151.5496 181.8489 L 151.6100 181.7212 L 151.6827 181.6000 L 151.7352 181.5292 L 151.7420 181.5020 L 151.7896 181.3689 L 151.8500 181.2412 L 151.9227 181.1200 L 152.0069 181.0065 L 152.1018 180.9018 L 152.2223 180.7813 L 152.2696 180.6489 L 152.3300 180.5212 L 152.4027 180.4000 L 152.4869 180.2865 L 152.5818 180.1818 L 152.9423 179.8213 L 152.9896 179.6889 L 153.0500 179.5612 L 153.1227 179.4400 L 153.2069 179.3265 L 153.3018 179.2218 L 153.4223 179.1013 L 153.4696 178.9689 L 153.5300 178.8412 L 153.6027 178.7200 L 153.6869 178.6065 L 153.7818 178.5018 L 154.3823 177.9013 L 154.4296 177.7689 L 154.4900 177.6412 L 154.5627 177.5200 L 154.6469 177.4065 L 154.7418 177.3018 L 155.3423 176.7013 L 155.3896 176.5689 L 155.4500 176.4412 L 155.5227 176.3200 L 155.6069 176.2065 L 155.7018 176.1018 L 155.8223 175.9813 L 155.8696 175.8489 L 155.9300 175.7212 L 156.0027 175.6000 L 156.0869 175.4865 L 156.1818 175.3818 L 156.5423 175.0213 L 156.5896 174.8889 L 156.6500 174.7612 L 156.7227 174.6400 L 156.8069 174.5265 L 156.9018 174.4218 L 157.2623 174.0613 L 157.3096 173.9289 L 157.3700 173.8012 L 157.4427 173.6800 L 157.5269 173.5665 L 157.6218 173.4618 L 158.7023 172.3813 L 158.7496 172.2489 L 158.8100 172.1212 L 158.8827 172.0000 L 158.9669 171.8865 L 159.0618 171.7818 L 159.6623 171.1813 L 159.7096 171.0489 L 159.7700 170.9212 L 159.8427 170.8000 L 159.9269 170.6865 L 160.0218 170.5818 L 160.8623 169.7413 L 160.9096 169.6089 L 160.9700 169.4812 L 161.0427 169.3600 L 161.1269 169.2465 L 161.2218 169.1418 L 161.8223 168.5413 L 161.8696 168.4089 L 161.9300 168.2812 L 162.0027 168.1600 L 162.0869 168.0465 L 162.1818 167.9418 L 162.5423 167.5813 L 162.5896 167.4489 L 162.6500 167.3212 L 162.7227 167.2000 L 162.8069 167.0865 L 162.9018 166.9818 L 163.0223 166.8613 L 163.0696 166.7289 L 163.1300 166.6012 L 163.2027 166.4800 L 163.2869 166.3665 L 163.3818 166.2618 L 163.7423 165.9013 L 163.7896 165.7689 L 163.8500 165.6412 L 163.9227 165.5200 L 164.0069 165.4065 L 164.1018 165.3018 L 164.2223 165.1813 L 164.2696 165.0489 L 164.3300 164.9212 L 164.4027 164.8000 L 164.4869 164.6865 L 164.5818 164.5818 L 164.9423 164.2213 L 164.9896 164.0889 L 165.0500 163.9612 L 165.1227 163.8400 L 165.2069 163.7265 L 165.3018 163.6218 L 165.4223 163.5013 L 165.4696 163.3689 L 165.5300 163.2412 L 165.6027 163.1200 L 165.6869 163.0065 L 165.7818 162.9018 L 165.9023 162.7813 L 165.9496 162.6489 L 166.0100 162.5212 L 166.0827 162.4000 L 166.1669 162.2865 L 166.2618 162.1818 L 166.3823 162.0613 L 166.4296 161.9289 L 166.4900 161.8012 L 166.5627 161.6800 L 166.6469 161.5665 L 166.7418 161.4618 L 166.8623 161.3413 L 166.9096 161.2089 L 166.9700 161.0812 L 167.0427 160.9600 L 167.1269 160.8465 L 167.2218 160.7418 L 167.3423 160.6213 L 167.3896 160.4889 L 167.4500 160.3612 L 167.5227 160.2400 L 167.6069 160.1265 L 167.7018 160.0218 L 167.8223 159.9013 L 167.8696 159.7689 L 167.9300 159.6412 L 168.0027 159.5200 L 168.0552 159.4492 L 168.0620 159.4220 L 168.1096 159.2889 L 168.1700 159.1612 L 168.2427 159.0400 L 168.3269 158.9265 L 168.4218 158.8218 L 168.5423 158.7013 L 168.5896 158.5689 L 168.6500 158.4412 L 168.7227 158.3200 L 168.8069 158.2065 L 168.9018 158.1018 L 169.0223 157.9813 L 169.0696 157.8489 L 169.1300 157.7212 L 169.2027 157.6000 L 169.2869 157.4865 L 169.3818 157.3818 L 169.5023 157.2613 L 169.5496 157.1289 L 169.6100 157.0012 L 169.6827 156.8800 L 169.7669 156.7665 L 169.8618 156.6618 L 169.9823 156.5413 L 170.0296 156.4089 L 170.0900 156.2812 L 170.1627 156.1600 L 170.2469 156.0465 L 170.3418 155.9418 L 170.4623 155.8213 L 170.5096 155.6889 L 170.5700 155.5612 L 170.6427 155.4400 L 170.6952 155.3692 L 170.7020 155.3420 L 170.7496 155.2089 L 170.8100 155.0812 L 170.8827 154.9600 L 170.9669 154.8465 L 171.0618 154.7418 L 171.4223 154.3813 L 171.4696 154.2489 L 171.5300 154.1212 L 171.6027 154.0000 L 171.6869 153.8865 L 171.7818 153.7818 L 172.0218 153.5418 L 172.1265 153.4469 L 172.2400 153.3627 L 172.3612 153.2900 L 172.4889 153.2296 L 172.6220 153.1820 L 172.7591 153.1477 L 172.8989 153.1269 L 173.0400 153.1200 L 173.2800 153.1200 L 173.4211 153.1269 L 173.5609 153.1477 L 173.6980 153.1820 L 173.8311 153.2296 L 173.9588 153.2900 L 174.0755 153.3600 L 174.2400 153.3600 L 174.3811 153.3669 L 174.5209 153.3877 L 174.6580 153.4220 L 174.7911 153.4696 L 174.9188 153.5300 L 175.0355 153.6000 L 175.6800 153.6000 L 175.8211 153.6069 L 175.9609 153.6277 L 176.0980 153.6620 L 176.2311 153.7096 L 176.3588 153.7700 L 176.4755 153.8400 L 177.0445 153.8400 L 177.1612 153.7700 L 177.2889 153.7096 L 177.4220 153.6620 L 177.5591 153.6277 L 177.6989 153.6069 L 177.8400 153.6000 L 177.9811 153.6069 L 178.1209 153.6277 L 178.2000 153.6475 L 178.2791 153.6277 L 178.4189 153.6069 L 178.5600 153.6000 L 179.0400 153.6000 L 179.1811 153.6069 L 179.3209 153.6277 L 179.4580 153.6620 L 179.5911 153.7096 L 179.7188 153.7700 L 179.8400 153.8427 L 179.9535 153.9269 L 180.0582 154.0218 L 180.2982 154.2618 L 180.3931 154.3665 L 180.4773 154.4800 L 180.5500 154.6012 L 180.6104 154.7289 L 180.6580 154.8620 L 180.6923 154.9991 L 180.7131 155.1389 L 180.7200 155.2800 L 180.7200 205.2000 L 180.7131 205.3411 L 180.6923 205.4809 L 180.6580 205.6180 L 180.6104 205.7511 L 180.5500 205.8788 L 180.4773 206.0000 L 180.3931 206.1135 L 180.2982 206.2182 L 179.8182 206.6982 L 179.7135 206.7931 L 179.6000 206.8773 L 179.4788 206.9500 L 179.3511 207.0104 L 179.2180 207.0580 L 179.0809 207.0923 L 178.9411 207.1131 L 178.8000 207.1200 L 137.5200 207.1200 L 137.3789 207.1131 L 137.2391 207.0923 L 137.1020 207.0580 L 136.9689 207.0104 L 136.8412 206.9500 L 136.7200 206.8773 L 136.6065 206.7931 L 136.5018 206.6982 L 136.2618 206.4582 L 136.1669 206.3535 L 136.0827 206.2400 L 136.0100 206.1188 L 135.9496 205.9911 L 135.9020 205.8580 L 135.8952 205.8308 L 135.8427 205.7600 L 135.7700 205.6388 L 135.7096 205.5111 L 135.6620 205.3780 L 135.6277 205.2409 L 135.6069 205.1011 L 135.6040 205.0418 L 135.6027 205.0400 L 135.5300 204.9188 L 135.4696 204.7911 L 135.4220 204.6580 L 135.3877 204.5209 L 135.3669 204.3811 L 135.3640 204.3218 L 135.3627 204.3200 L 135.2900 204.1988 L 135.2296 204.0711 L 135.1820 203.9380 L 135.1477 203.8009 L 135.1269 203.6611 L 135.1200 203.5200 L 135.1200 203.1155 L 135.0500 202.9988 L 134.9896 202.8711 L 134.9420 202.7380 L 134.9352 202.7108 Z M 128.6400 146.1600 L 128.6469 146.0189 L 128.6677 145.8791 L 128.7020 145.7420 L 128.7496 145.6089 L 128.8100 145.4812 L 128.8827 145.3600 L 128.9669 145.2465 L 129.0618 145.1418 L 129.3018 144.9018 L 129.4065 144.8069 L 129.5200 144.7227 L 129.6412 144.6500 L 129.7689 144.5896 L 129.9020 144.5420 L 130.0391 144.5077 L 130.1789 144.4869 L 130.3200 144.4800 L 130.4611 144.4869 L 130.6009 144.5077 L 130.7380 144.5420 L 130.8711 144.5896 L 130.9988 144.6500 L 131.1155 144.7200 L 131.2800 144.7200 L 131.4211 144.7269 L 131.5609 144.7477 L 131.6980 144.7820 L 131.8311 144.8296 L 131.9588 144.8900 L 132.0755 144.9600 L 132.2400 144.9600 L 132.3811 144.9669 L 132.5209 144.9877 L 132.6580 145.0220 L 132.7911 145.0696 L 132.9188 145.1300 L 133.0355 145.2000 L 133.2000 145.2000 L 133.3411 145.2069 L 133.4809 145.2277 L 133.6180 145.2620 L 133.7511 145.3096 L 133.8788 145.3700 L 134.0000 145.4427 L 134.0018 145.4440 L 134.0611 145.4469 L 134.2009 145.4677 L 134.3380 145.5020 L 134.4711 145.5496 L 134.5988 145.6100 L 134.7155 145.6800 L 134.8800 145.6800 L 135.0211 145.6869 L 135.1609 145.7077 L 135.2980 145.7420 L 135.4311 145.7896 L 135.5588 145.8500 L 135.6755 145.9200 L 136.0800 145.9200 L 136.2211 145.9269 L 136.3609 145.9477 L 136.4980 145.9820 L 136.6311 146.0296 L 136.7588 146.0900 L 136.8755 146.1600 L 137.2800 146.1600 L 137.4211 146.1669 L 137.5609 146.1877 L 137.6980 146.2220 L 137.8311 146.2696 L 137.9588 146.3300 L 138.0755 146.4000 L 139.2000 146.4000 L 139.3411 146.4069 L 139.4809 146.4277 L 139.6180 146.4620 L 139.7511 146.5096 L 139.8788 146.5700 L 139.9955 146.6400 L 141.3600 146.6400 L 141.5011 146.6469 L 141.6409 146.6677 L 141.7780 146.7020 L 141.9111 146.7496 L 142.0388 146.8100 L 142.1555 146.8800 L 143.0400 146.8800 L 143.1811 146.8869 L 143.3209 146.9077 L 143.4580 146.9420 L 143.5911 146.9896 L 143.7188 147.0500 L 143.8355 147.1200 L 144.9600 147.1200 L 145.1011 147.1269 L 145.2409 147.1477 L 145.3780 147.1820 L 145.5111 147.2296 L 145.6388 147.2900 L 145.7600 147.3627 L 145.7618 147.3640 L 145.8211 147.3669 L 145.9609 147.3877 L 146.0980 147.4220 L 146.2311 147.4696 L 146.3588 147.5300 L 146.4755 147.6000 L 146.6400 147.6000 L 146.7811 147.6069 L 146.9209 147.6277 L 147.0580 147.6620 L 147.1911 147.7096 L 147.3188 147.7700 L 147.4355 147.8400 L 147.6000 147.8400 L 147.7411 147.8469 L 147.8809 147.8677 L 148.0180 147.9020 L 148.1511 147.9496 L 148.2788 148.0100 L 148.3955 148.0800 L 148.8000 148.0800 L 148.9411 148.0869 L 149.0809 148.1077 L 149.2180 148.1420 L 149.3511 148.1896 L 149.4788 148.2500 L 149.5955 148.3200 L 150.0000 148.3200 L 150.1411 148.3269 L 150.2809 148.3477 L 150.4180 148.3820 L 150.5511 148.4296 L 150.6788 148.4900 L 150.7955 148.5600 L 151.2000 148.5600 L 151.3411 148.5669 L 151.4809 148.5877 L 151.6180 148.6220 L 151.7511 148.6696 L 151.8788 148.7300 L 151.9955 148.8000 L 152.4000 148.8000 L 152.5411 148.8069 L 152.6809 148.8277 L 152.8180 148.8620 L 152.9511 148.9096 L 153.0788 148.9700 L 153.1955 149.0400 L 153.8400 149.0400 L 153.9811 149.0469 L 154.1209 149.0677 L 154.2580 149.1020 L 154.3911 149.1496 L 154.5188 149.2100 L 154.6355 149.2800 L 154.8000 149.2800 L 154.9411 149.2869 L 155.0809 149.3077 L 155.2180 149.3420 L 155.3511 149.3896 L 155.4788 149.4500 L 155.6000 149.5227 L 155.6708 149.5752 L 155.6980 149.5820 L 155.8311 149.6296 L 155.9588 149.6900 L 156.0800 149.7627 L 156.1935 149.8469 L 156.2982 149.9418 L 156.5382 150.1818 L 156.6331 150.2865 L 156.7173 150.4000 L 156.7900 150.5212 L 156.8504 150.6489 L 156.8980 150.7820 L 156.9323 150.9191 L 156.9531 151.0589 L 156.9600 151.2000 L 156.9600 151.4400 L 156.9531 151.5811 L 156.9323 151.7209 L 156.8980 151.8580 L 156.8504 151.9911 L 156.7900 152.1188 L 156.7173 152.2400 L 156.6648 152.3108 L 156.6580 152.3380 L 156.6104 152.4711 L 156.5500 152.5988 L 156.4773 152.7200 L 156.4248 152.7908 L 156.4180 152.8180 L 156.3704 152.9511 L 156.3100 153.0788 L 156.2373 153.2000 L 156.1848 153.2708 L 156.1780 153.2980 L 156.1304 153.4311 L 156.0700 153.5588 L 155.9973 153.6800 L 155.9448 153.7508 L 155.9380 153.7780 L 155.8904 153.9111 L 155.8300 154.0388 L 155.7573 154.1600 L 155.6731 154.2735 L 155.5782 154.3782 L 155.4577 154.4987 L 155.4104 154.6311 L 155.3500 154.7588 L 155.2773 154.8800 L 155.2248 154.9508 L 155.2180 154.9780 L 155.1704 155.1111 L 155.1100 155.2388 L 155.0373 155.3600 L 154.9848 155.4308 L 154.9780 155.4580 L 154.9304 155.5911 L 154.8700 155.7188 L 154.7973 155.8400 L 154.7448 155.9108 L 154.7380 155.9380 L 154.6904 156.0711 L 154.6300 156.1988 L 154.5573 156.3200 L 154.4731 156.4335 L 154.3782 156.5382 L 154.2577 156.6587 L 154.2104 156.7911 L 154.1500 156.9188 L 154.0773 157.0400 L 153.9931 157.1535 L 153.8982 157.2582 L 153.7777 157.3787 L 153.7304 157.5111 L 153.6700 157.6388 L 153.5973 157.7600 L 153.5131 157.8735 L 153.4182 157.9782 L 153.2977 158.0987 L 153.2504 158.2311 L 153.1900 158.3588 L 153.1173 158.4800 L 153.0331 158.5935 L 152.9382 158.6982 L 152.5777 159.0587 L 152.5304 159.1911 L 152.4700 159.3188 L 152.3973 159.4400 L 152.3131 159.5535 L 152.2182 159.6582 L 152.0977 159.7787 L 152.0504 159.9111 L 151.9900 160.0388 L 151.9173 160.1600 L 151.8648 160.2308 L 151.8580 160.2580 L 151.8104 160.3911 L 151.7500 160.5188 L 151.6773 160.6400 L 151.6248 160.7108 L 151.6180 160.7380 L 151.5704 160.8711 L 151.5100 160.9988 L 151.4373 161.1200 L 151.3531 161.2335 L 151.2582 161.3382 L 151.1377 161.4587 L 151.0904 161.5911 L 151.0300 161.7188 L 150.9573 161.8400 L 150.9048 161.9108 L 150.8980 161.9380 L 150.8504 162.0711 L 150.7900 162.1988 L 150.7173 162.3200 L 150.6648 162.3908 L 150.6580 162.4180 L 150.6104 162.5511 L 150.5500 162.6788 L 150.4773 162.8000 L 150.4248 162.8708 L 150.4180 162.8980 L 150.3704 163.0311 L 150.3100 163.1588 L 150.2373 163.2800 L 150.1848 163.3508 L 150.1780 163.3780 L 150.1304 163.5111 L 150.0700 163.6388 L 149.9973 163.7600 L 149.9131 163.8735 L 149.8182 163.9782 L 149.6977 164.0987 L 149.6504 164.2311 L 149.5900 164.3588 L 149.5173 164.4800 L 149.4331 164.5935 L 149.3382 164.6982 L 149.2177 164.8187 L 149.1704 164.9511 L 149.1100 165.0788 L 149.0373 165.2000 L 148.9848 165.2708 L 148.9780 165.2980 L 148.9304 165.4311 L 148.8700 165.5588 L 148.7973 165.6800 L 148.7448 165.7508 L 148.7380 165.7780 L 148.6904 165.9111 L 148.6300 166.0388 L 148.5573 166.1600 L 148.5048 166.2308 L 148.4980 166.2580 L 148.4504 166.3911 L 148.3900 166.5188 L 148.3173 166.6400 L 148.2331 166.7535 L 148.1382 166.8582 L 148.0177 166.9787 L 147.9704 167.1111 L 147.9100 167.2388 L 147.8373 167.3600 L 147.7531 167.4735 L 147.6582 167.5782 L 147.5377 167.6987 L 147.4904 167.8311 L 147.4300 167.9588 L 147.3573 168.0800 L 147.2731 168.1935 L 147.1782 168.2982 L 146.8177 168.6587 L 146.7704 168.7911 L 146.7100 168.9188 L 146.6373 169.0400 L 146.5531 169.1535 L 146.4582 169.2582 L 146.3377 169.3787 L 146.2904 169.5111 L 146.2300 169.6388 L 146.1573 169.7600 L 146.0731 169.8735 L 145.9782 169.9782 L 145.6177 170.3387 L 145.5704 170.4711 L 145.5100 170.5988 L 145.4373 170.7200 L 145.3848 170.7908 L 145.3780 170.8180 L 145.3304 170.9511 L 145.2700 171.0788 L 145.1973 171.2000 L 145.1131 171.3135 L 145.0182 171.4182 L 144.6577 171.7787 L 144.6104 171.9111 L 144.5500 172.0388 L 144.4773 172.1600 L 144.3931 172.2735 L 144.2982 172.3782 L 142.6182 174.0582 L 142.5135 174.1531 L 142.4000 174.2373 L 142.2788 174.3100 L 142.1511 174.3704 L 142.0187 174.4177 L 141.8982 174.5382 L 141.7935 174.6331 L 141.6800 174.7173 L 141.5588 174.7900 L 141.4311 174.8504 L 141.2980 174.8980 L 141.2708 174.9048 L 141.2000 174.9573 L 141.0788 175.0300 L 140.9511 175.0904 L 140.8180 175.1380 L 140.7908 175.1448 L 140.7200 175.1973 L 140.5988 175.2700 L 140.4711 175.3304 L 140.3380 175.3780 L 140.3108 175.3848 L 140.2400 175.4373 L 140.1188 175.5100 L 139.9911 175.5704 L 139.8580 175.6180 L 139.8308 175.6248 L 139.7600 175.6773 L 139.6388 175.7500 L 139.5111 175.8104 L 139.3780 175.8580 L 139.2409 175.8923 L 139.1011 175.9131 L 139.0418 175.9160 L 139.0400 175.9173 L 138.9188 175.9900 L 138.7911 176.0504 L 138.6580 176.0980 L 138.5209 176.1323 L 138.3811 176.1531 L 138.3218 176.1560 L 138.3200 176.1573 L 138.1988 176.2300 L 138.0711 176.2904 L 137.9380 176.3380 L 137.8009 176.3723 L 137.6611 176.3931 L 137.6018 176.3960 L 137.6000 176.3973 L 137.4788 176.4700 L 137.3511 176.5304 L 137.2180 176.5780 L 137.0809 176.6123 L 136.9411 176.6331 L 136.8000 176.6400 L 136.6355 176.6400 L 136.5188 176.7100 L 136.3911 176.7704 L 136.2580 176.8180 L 136.1209 176.8523 L 135.9811 176.8731 L 135.9218 176.8760 L 135.9200 176.8773 L 135.7988 176.9500 L 135.6711 177.0104 L 135.5380 177.0580 L 135.4009 177.0923 L 135.2611 177.1131 L 135.1200 177.1200 L 134.6400 177.1200 L 134.4989 177.1131 L 134.3591 177.0923 L 134.2220 177.0580 L 134.0889 177.0104 L 133.9612 176.9500 L 133.8400 176.8773 L 133.7265 176.7931 L 133.6218 176.6982 L 133.3818 176.4582 L 133.2869 176.3535 L 133.2027 176.2400 L 133.1300 176.1188 L 133.0696 175.9911 L 133.0220 175.8580 L 132.9877 175.7209 L 132.9669 175.5811 L 132.9600 175.4400 L 132.9600 174.9600 L 132.9669 174.8189 L 132.9877 174.6791 L 133.0220 174.5420 L 133.0696 174.4089 L 133.1300 174.2812 L 133.2000 174.1645 L 133.2000 173.7600 L 133.2069 173.6189 L 133.2277 173.4791 L 133.2620 173.3420 L 133.3096 173.2089 L 133.3700 173.0812 L 133.4400 172.9645 L 133.4400 172.0800 L 133.4469 171.9389 L 133.4677 171.7991 L 133.5020 171.6620 L 133.5496 171.5289 L 133.6100 171.4012 L 133.6800 171.2845 L 133.6800 170.6400 L 133.6869 170.4989 L 133.7077 170.3591 L 133.7420 170.2220 L 133.7896 170.0889 L 133.8500 169.9612 L 133.9200 169.8445 L 133.9200 169.0355 L 133.8500 168.9188 L 133.7896 168.7911 L 133.7420 168.6580 L 133.7077 168.5209 L 133.6869 168.3811 L 133.6840 168.3218 L 133.6827 168.3200 L 133.6100 168.1988 L 133.5496 168.0711 L 133.5020 167.9380 L 133.4677 167.8009 L 133.4469 167.6611 L 133.4400 167.5200 L 133.4400 166.3955 L 133.3700 166.2788 L 133.3096 166.1511 L 133.2620 166.0180 L 133.2277 165.8809 L 133.2069 165.7411 L 133.2000 165.6000 L 133.2000 165.1955 L 133.1300 165.0788 L 133.0696 164.9511 L 133.0220 164.8180 L 132.9877 164.6809 L 132.9669 164.5411 L 132.9600 164.4000 L 132.9600 163.9955 L 132.8900 163.8788 L 132.8296 163.7511 L 132.7820 163.6180 L 132.7477 163.4809 L 132.7269 163.3411 L 132.7200 163.2000 L 132.7200 163.0355 L 132.6500 162.9188 L 132.5896 162.7911 L 132.5420 162.6580 L 132.5077 162.5209 L 132.4869 162.3811 L 132.4800 162.2400 L 132.4800 162.0755 L 132.4100 161.9588 L 132.3496 161.8311 L 132.3020 161.6980 L 132.2677 161.5609 L 132.2469 161.4211 L 132.2400 161.2800 L 132.2400 160.6355 L 132.1700 160.5188 L 132.1096 160.3911 L 132.0620 160.2580 L 132.0277 160.1209 L 132.0069 159.9811 L 132.0000 159.8400 L 132.0000 159.6755 L 131.9300 159.5588 L 131.8696 159.4311 L 131.8220 159.2980 L 131.7877 159.1609 L 131.7669 159.0211 L 131.7600 158.8800 L 131.7600 158.7155 L 131.6900 158.5988 L 131.6296 158.4711 L 131.5820 158.3380 L 131.5477 158.2009 L 131.5269 158.0611 L 131.5200 157.9200 L 131.5200 157.2755 L 131.4500 157.1588 L 131.3896 157.0311 L 131.3420 156.8980 L 131.3077 156.7609 L 131.2869 156.6211 L 131.2800 156.4800 L 131.2800 156.3155 L 131.2100 156.1988 L 131.1496 156.0711 L 131.1020 155.9380 L 131.0677 155.8009 L 131.0469 155.6611 L 131.0400 155.5200 L 131.0400 154.8755 L 130.9700 154.7588 L 130.9096 154.6311 L 130.8620 154.4980 L 130.8277 154.3609 L 130.8069 154.2211 L 130.8040 154.1618 L 130.8027 154.1600 L 130.7300 154.0388 L 130.6696 153.9111 L 130.6220 153.7780 L 130.5877 153.6409 L 130.5669 153.5011 L 130.5640 153.4418 L 130.5627 153.4400 L 130.4900 153.3188 L 130.4296 153.1911 L 130.3820 153.0580 L 130.3477 152.9209 L 130.3269 152.7811 L 130.3200 152.6400 L 130.3200 152.2355 L 130.2500 152.1188 L 130.1896 151.9911 L 130.1420 151.8580 L 130.1077 151.7209 L 130.0869 151.5811 L 130.0840 151.5218 L 130.0827 151.5200 L 130.0100 151.3988 L 129.9496 151.2711 L 129.9020 151.1380 L 129.8677 151.0009 L 129.8469 150.8611 L 129.8400 150.7200 L 129.8400 150.5555 L 129.7700 150.4388 L 129.7096 150.3111 L 129.6620 150.1780 L 129.6277 150.0409 L 129.6069 149.9011 L 129.6000 149.7600 L 129.6000 149.5955 L 129.5300 149.4788 L 129.4696 149.3511 L 129.4220 149.2180 L 129.3877 149.0809 L 129.3669 148.9411 L 129.3640 148.8818 L 129.3627 148.8800 L 129.2900 148.7588 L 129.2296 148.6311 L 129.1820 148.4980 L 129.1477 148.3609 L 129.1269 148.2211 L 129.1200 148.0800 L 129.1200 147.6755 L 129.0500 147.5588 L 128.9896 147.4311 L 128.9420 147.2980 L 128.9352 147.2708 L 128.8827 147.2000 L 128.8100 147.0788 L 128.7496 146.9511 L 128.7020 146.8180 L 128.6677 146.6809 L 128.6469 146.5411 L 128.6400 146.4000 L 128.6400 146.1600 Z M 29.0400 146.9555 L 28.9700 146.8388 L 28.9096 146.7111 L 28.8620 146.5780 L 28.8277 146.4409 L 28.8069 146.3011 L 28.8000 146.1600 L 28.8000 145.9200 L 28.8069 145.7789 L 28.8277 145.6391 L 28.8620 145.5020 L 28.9096 145.3689 L 28.9700 145.2412 L 29.0427 145.1200 L 29.1269 145.0065 L 29.2218 144.9018 L 31.3818 142.7418 L 31.4865 142.6469 L 31.6000 142.5627 L 31.7212 142.4900 L 31.8489 142.4296 L 31.9813 142.3823 L 33.0618 141.3018 L 33.1665 141.2069 L 33.2800 141.1227 L 33.4012 141.0500 L 33.5289 140.9896 L 33.6613 140.9423 L 34.0218 140.5818 L 34.1265 140.4869 L 34.2400 140.4027 L 34.3612 140.3300 L 34.4889 140.2696 L 34.6213 140.2223 L 34.9818 139.8618 L 35.0865 139.7669 L 35.2000 139.6827 L 35.3212 139.6100 L 35.4489 139.5496 L 35.5813 139.5023 L 35.9418 139.1418 L 36.0465 139.0469 L 36.1600 138.9627 L 36.2812 138.8900 L 36.4089 138.8296 L 36.5413 138.7823 L 36.6618 138.6618 L 36.7665 138.5669 L 36.8800 138.4827 L 37.0012 138.4100 L 37.1289 138.3496 L 37.2613 138.3023 L 37.3818 138.1818 L 37.4865 138.0869 L 37.6000 138.0027 L 37.7212 137.9300 L 37.8489 137.8696 L 37.9813 137.8223 L 38.3418 137.4618 L 38.4465 137.3669 L 38.5600 137.2827 L 38.6812 137.2100 L 38.8089 137.1496 L 38.9413 137.1023 L 39.0618 136.9818 L 39.1665 136.8869 L 39.2800 136.8027 L 39.4012 136.7300 L 39.5289 136.6696 L 39.6613 136.6223 L 40.0218 136.2618 L 40.1265 136.1669 L 40.2400 136.0827 L 40.3612 136.0100 L 40.4889 135.9496 L 40.6213 135.9023 L 40.7418 135.7818 L 40.8465 135.6869 L 40.9600 135.6027 L 41.0812 135.5300 L 41.2089 135.4696 L 41.3413 135.4223 L 41.4618 135.3018 L 41.5665 135.2069 L 41.6800 135.1227 L 41.8012 135.0500 L 41.9289 134.9896 L 42.0613 134.9423 L 42.6618 134.3418 L 42.7665 134.2469 L 42.8800 134.1627 L 43.0012 134.0900 L 43.1289 134.0296 L 43.2613 133.9823 L 43.8618 133.3818 L 43.9665 133.2869 L 44.0800 133.2027 L 44.2012 133.1300 L 44.3289 133.0696 L 44.4613 133.0223 L 45.0618 132.4218 L 45.1665 132.3269 L 45.2800 132.2427 L 45.4012 132.1700 L 45.5289 132.1096 L 45.6613 132.0623 L 45.7818 131.9418 L 45.8865 131.8469 L 46.0000 131.7627 L 46.1212 131.6900 L 46.2489 131.6296 L 46.3820 131.5820 L 46.5191 131.5477 L 46.6589 131.5269 L 46.8000 131.5200 L 47.0400 131.5200 L 47.1811 131.5269 L 47.3209 131.5477 L 47.4580 131.5820 L 47.5911 131.6296 L 47.7188 131.6900 L 47.8400 131.7627 L 47.9535 131.8469 L 48.0582 131.9418 L 48.2982 132.1818 L 48.3931 132.2865 L 48.4773 132.4000 L 48.5500 132.5212 L 48.6104 132.6489 L 48.6580 132.7820 L 48.6648 132.8092 L 48.7173 132.8800 L 48.7900 133.0012 L 48.8504 133.1289 L 48.8980 133.2620 L 48.9323 133.3991 L 48.9531 133.5389 L 48.9560 133.5982 L 48.9573 133.6000 L 49.0300 133.7212 L 49.0904 133.8489 L 49.1377 133.9813 L 49.2582 134.1018 L 49.3531 134.2065 L 49.4373 134.3200 L 49.5100 134.4412 L 49.5704 134.5689 L 49.6180 134.7020 L 49.6523 134.8391 L 49.6731 134.9789 L 49.6760 135.0382 L 49.6773 135.0400 L 49.7500 135.1612 L 49.8104 135.2889 L 49.8580 135.4220 L 49.8648 135.4492 L 49.9173 135.5200 L 49.9900 135.6412 L 50.0504 135.7689 L 50.0980 135.9020 L 50.1323 136.0391 L 50.1531 136.1789 L 50.1560 136.2382 L 50.1573 136.2400 L 50.2300 136.3612 L 50.2904 136.4889 L 50.3380 136.6220 L 50.3723 136.7591 L 50.3931 136.8989 L 50.4000 137.0400 L 50.4000 141.1200 L 50.3931 141.2611 L 50.3723 141.4009 L 50.3380 141.5380 L 50.2904 141.6711 L 50.2300 141.7988 L 50.1600 141.9155 L 50.1600 145.8445 L 50.2300 145.9612 L 50.2904 146.0889 L 50.3380 146.2220 L 50.3723 146.3591 L 50.3931 146.4989 L 50.4000 146.6400 L 50.4000 147.5245 L 50.4700 147.6412 L 50.5304 147.7689 L 50.5780 147.9020 L 50.6123 148.0391 L 50.6331 148.1789 L 50.6400 148.3200 L 50.6400 148.7245 L 50.7100 148.8412 L 50.7704 148.9689 L 50.8180 149.1020 L 50.8523 149.2391 L 50.8731 149.3789 L 50.8800 149.5200 L 50.8800 151.9200 L 50.8731 152.0611 L 50.8523 152.2009 L 50.8180 152.3380 L 50.7704 152.4711 L 50.7100 152.5988 L 50.6400 152.7155 L 50.6400 153.1200 L 50.6331 153.2611 L 50.6123 153.4009 L 50.5780 153.5380 L 50.5304 153.6711 L 50.4700 153.7988 L 50.4000 153.9155 L 50.4000 154.5600 L 50.3931 154.7011 L 50.3723 154.8409 L 50.3380 154.9780 L 50.2904 155.1111 L 50.2300 155.2388 L 50.1600 155.3555 L 50.1600 156.2400 L 50.1531 156.3811 L 50.1323 156.5209 L 50.0980 156.6580 L 50.0504 156.7911 L 49.9900 156.9188 L 49.9200 157.0355 L 49.9200 158.4000 L 49.9131 158.5411 L 49.8923 158.6809 L 49.8580 158.8180 L 49.8104 158.9511 L 49.7500 159.0788 L 49.6800 159.1955 L 49.6800 160.5600 L 49.6731 160.7011 L 49.6523 160.8409 L 49.6180 160.9780 L 49.5704 161.1111 L 49.5100 161.2388 L 49.4400 161.3555 L 49.4400 162.0000 L 49.4331 162.1411 L 49.4123 162.2809 L 49.3780 162.4180 L 49.3304 162.5511 L 49.2700 162.6788 L 49.2000 162.7955 L 49.2000 165.3600 L 49.1931 165.5011 L 49.1723 165.6409 L 49.1380 165.7780 L 49.0904 165.9111 L 49.0300 166.0388 L 48.9600 166.1555 L 48.9600 169.9200 L 48.9531 170.0611 L 48.9323 170.2009 L 48.8980 170.3380 L 48.8504 170.4711 L 48.7900 170.5988 L 48.7200 170.7155 L 48.7200 173.2800 L 48.7131 173.4211 L 48.6923 173.5609 L 48.6580 173.6980 L 48.6104 173.8311 L 48.5500 173.9588 L 48.4773 174.0800 L 48.4248 174.1508 L 48.4180 174.1780 L 48.3704 174.3111 L 48.3100 174.4388 L 48.2373 174.5600 L 48.1531 174.6735 L 48.0582 174.7782 L 47.8182 175.0182 L 47.7135 175.1131 L 47.6000 175.1973 L 47.4788 175.2700 L 47.3511 175.3304 L 47.2180 175.3780 L 47.0809 175.4123 L 46.9411 175.4331 L 46.8000 175.4400 L 46.0800 175.4400 L 45.9389 175.4331 L 45.7991 175.4123 L 45.6620 175.3780 L 45.5289 175.3304 L 45.4012 175.2700 L 45.2800 175.1973 L 45.2782 175.1960 L 45.2189 175.1931 L 45.0791 175.1723 L 44.9420 175.1380 L 44.8089 175.0904 L 44.6812 175.0300 L 44.5600 174.9573 L 44.4892 174.9048 L 44.4620 174.8980 L 44.3289 174.8504 L 44.2012 174.7900 L 44.0800 174.7173 L 44.0092 174.6648 L 43.9820 174.6580 L 43.8489 174.6104 L 43.7212 174.5500 L 43.6000 174.4773 L 43.5292 174.4248 L 43.5020 174.4180 L 43.3689 174.3704 L 43.2412 174.3100 L 43.1200 174.2373 L 43.0065 174.1531 L 42.9018 174.0582 L 42.5413 173.6977 L 42.4089 173.6504 L 42.2812 173.5900 L 42.1600 173.5173 L 42.0465 173.4331 L 41.9418 173.3382 L 41.4618 172.8582 L 41.3669 172.7535 L 41.2827 172.6400 L 41.2100 172.5188 L 41.1496 172.3911 L 41.1023 172.2587 L 40.7418 171.8982 L 40.6469 171.7935 L 40.5627 171.6800 L 40.4900 171.5588 L 40.4296 171.4311 L 40.3823 171.2987 L 40.0218 170.9382 L 39.9269 170.8335 L 39.8427 170.7200 L 39.7700 170.5988 L 39.7096 170.4711 L 39.6623 170.3387 L 39.3018 169.9782 L 39.2069 169.8735 L 39.1227 169.7600 L 39.0500 169.6388 L 38.9896 169.5111 L 38.9423 169.3787 L 38.8218 169.2582 L 38.7269 169.1535 L 38.6427 169.0400 L 38.5700 168.9188 L 38.5096 168.7911 L 38.4620 168.6580 L 38.4552 168.6308 L 38.4027 168.5600 L 38.3300 168.4388 L 38.2696 168.3111 L 38.2220 168.1780 L 38.2152 168.1508 L 38.1627 168.0800 L 38.0900 167.9588 L 38.0296 167.8311 L 37.9820 167.6980 L 37.9752 167.6708 L 37.9227 167.6000 L 37.8500 167.4788 L 37.7896 167.3511 L 37.7420 167.2180 L 37.7352 167.1908 L 37.6827 167.1200 L 37.6100 166.9988 L 37.5496 166.8711 L 37.5020 166.7380 L 37.4952 166.7108 L 37.4427 166.6400 L 37.3700 166.5188 L 37.3096 166.3911 L 37.2620 166.2580 L 37.2552 166.2308 L 37.2027 166.1600 L 37.1300 166.0388 L 37.0696 165.9111 L 37.0220 165.7780 L 36.9877 165.6409 L 36.9669 165.5011 L 36.9660 165.4825 L 36.9018 165.4182 L 36.8069 165.3135 L 36.7227 165.2000 L 36.6500 165.0788 L 36.5896 164.9511 L 36.5420 164.8180 L 36.5352 164.7908 L 36.4827 164.7200 L 36.4100 164.5988 L 36.3496 164.4711 L 36.3020 164.3380 L 36.2952 164.3108 L 36.2427 164.2400 L 36.1700 164.1188 L 36.1096 163.9911 L 36.0620 163.8580 L 36.0552 163.8308 L 36.0027 163.7600 L 35.9300 163.6388 L 35.8696 163.5111 L 35.8220 163.3780 L 35.8152 163.3508 L 35.7627 163.2800 L 35.6900 163.1588 L 35.6296 163.0311 L 35.5820 162.8980 L 35.5752 162.8708 L 35.5227 162.8000 L 35.4500 162.6788 L 35.3896 162.5511 L 35.3420 162.4180 L 35.3352 162.3908 L 35.2827 162.3200 L 35.2100 162.1988 L 35.1496 162.0711 L 35.1020 161.9380 L 35.0952 161.9108 L 35.0427 161.8400 L 34.9700 161.7188 L 34.9096 161.5911 L 34.8620 161.4580 L 34.8552 161.4308 L 34.8027 161.3600 L 34.7300 161.2388 L 34.6696 161.1111 L 34.6220 160.9780 L 34.6152 160.9508 L 34.5627 160.8800 L 34.4900 160.7588 L 34.4296 160.6311 L 34.3823 160.4987 L 34.2618 160.3782 L 34.1669 160.2735 L 34.0827 160.1600 L 34.0100 160.0388 L 33.9496 159.9111 L 33.9020 159.7780 L 33.8952 159.7508 L 33.8427 159.6800 L 33.7700 159.5588 L 33.7096 159.4311 L 33.6620 159.2980 L 33.6552 159.2708 L 33.6027 159.2000 L 33.5300 159.0788 L 33.4696 158.9511 L 33.4220 158.8180 L 33.4152 158.7908 L 33.3627 158.7200 L 33.2900 158.5988 L 33.2296 158.4711 L 33.1820 158.3380 L 33.1752 158.3108 L 33.1227 158.2400 L 33.0500 158.1188 L 32.9896 157.9911 L 32.9420 157.8580 L 32.9352 157.8308 L 32.8827 157.7600 L 32.8100 157.6388 L 32.7496 157.5111 L 32.7020 157.3780 L 32.6952 157.3508 L 32.6427 157.2800 L 32.5700 157.1588 L 32.5096 157.0311 L 32.4620 156.8980 L 32.4552 156.8708 L 32.4027 156.8000 L 32.3300 156.6788 L 32.2696 156.5511 L 32.2220 156.4180 L 32.2152 156.3908 L 32.1627 156.3200 L 32.0900 156.1988 L 32.0296 156.0711 L 31.9820 155.9380 L 31.9752 155.9108 L 31.9227 155.8400 L 31.8500 155.7188 L 31.7896 155.5911 L 31.7420 155.4580 L 31.7352 155.4308 L 31.6827 155.3600 L 31.6100 155.2388 L 31.5496 155.1111 L 31.5020 154.9780 L 31.4952 154.9508 L 31.4427 154.8800 L 31.3700 154.7588 L 31.3096 154.6311 L 31.2620 154.4980 L 31.2552 154.4708 L 31.2027 154.4000 L 31.1300 154.2788 L 31.0696 154.1511 L 31.0220 154.0180 L 31.0152 153.9908 L 30.9627 153.9200 L 30.8900 153.7988 L 30.8296 153.6711 L 30.7820 153.5380 L 30.7752 153.5108 L 30.7227 153.4400 L 30.6500 153.3188 L 30.5896 153.1911 L 30.5420 153.0580 L 30.5077 152.9209 L 30.4869 152.7811 L 30.4840 152.7218 L 30.4827 152.7200 L 30.4100 152.5988 L 30.3496 152.4711 L 30.3020 152.3380 L 30.2677 152.2009 L 30.2469 152.0611 L 30.2440 152.0018 L 30.2427 152.0000 L 30.1700 151.8788 L 30.1096 151.7511 L 30.0620 151.6180 L 30.0277 151.4809 L 30.0069 151.3411 L 30.0040 151.2818 L 30.0027 151.2800 L 29.9300 151.1588 L 29.8696 151.0311 L 29.8220 150.8980 L 29.7877 150.7609 L 29.7669 150.6211 L 29.7640 150.5618 L 29.7627 150.5600 L 29.6900 150.4388 L 29.6296 150.3111 L 29.5820 150.1780 L 29.5477 150.0409 L 29.5269 149.9011 L 29.5240 149.8418 L 29.5227 149.8400 L 29.4500 149.7188 L 29.3896 149.5911 L 29.3420 149.4580 L 29.3077 149.3209 L 29.2869 149.1811 L 29.2800 149.0400 L 29.2800 148.1555 L 29.2100 148.0388 L 29.1496 147.9111 L 29.1020 147.7780 L 29.0677 147.6409 L 29.0469 147.5011 L 29.0400 147.3600 L 29.0400 146.9555 Z M 27.4223 122.4613 L 27.4696 122.3289 L 27.5300 122.2012 L 27.6027 122.0800 L 27.6869 121.9665 L 27.7818 121.8618 L 29.1023 120.5413 L 29.1496 120.4089 L 29.2100 120.2812 L 29.2827 120.1600 L 29.3669 120.0465 L 29.4618 119.9418 L 30.3023 119.1013 L 30.3496 118.9689 L 30.4100 118.8412 L 30.4827 118.7200 L 30.5669 118.6065 L 30.6618 118.5018 L 32.4623 116.7013 L 32.5096 116.5689 L 32.5700 116.4412 L 32.6427 116.3200 L 32.7269 116.2065 L 32.8218 116.1018 L 34.6223 114.3013 L 34.6696 114.1689 L 34.7300 114.0412 L 34.8027 113.9200 L 34.8869 113.8065 L 34.9818 113.7018 L 35.3423 113.3413 L 35.3896 113.2089 L 35.4500 113.0812 L 35.5227 112.9600 L 35.6069 112.8465 L 35.7018 112.7418 L 36.0623 112.3813 L 36.1096 112.2489 L 36.1700 112.1212 L 36.2427 112.0000 L 36.3269 111.8865 L 36.4218 111.7818 L 37.0223 111.1813 L 37.0696 111.0489 L 37.1300 110.9212 L 37.2027 110.8000 L 37.2869 110.6865 L 37.3818 110.5818 L 38.8218 109.1418 L 38.9265 109.0469 L 39.0400 108.9627 L 39.1612 108.8900 L 39.2889 108.8296 L 39.4220 108.7820 L 39.5591 108.7477 L 39.6989 108.7269 L 39.8400 108.7200 L 40.5600 108.7200 L 40.7011 108.7269 L 40.8409 108.7477 L 40.9780 108.7820 L 41.1111 108.8296 L 41.2388 108.8900 L 41.3600 108.9627 L 41.4308 109.0152 L 41.4580 109.0220 L 41.5911 109.0696 L 41.7188 109.1300 L 41.8400 109.2027 L 41.9535 109.2869 L 42.0582 109.3818 L 42.2982 109.6218 L 42.3931 109.7265 L 42.4773 109.8400 L 42.5500 109.9612 L 42.6104 110.0889 L 42.6577 110.2213 L 43.0182 110.5818 L 43.1131 110.6865 L 43.1973 110.8000 L 43.2700 110.9212 L 43.3304 111.0489 L 43.3780 111.1820 L 43.4123 111.3191 L 43.4331 111.4589 L 43.4400 111.6000 L 43.4400 112.3200 L 43.4331 112.4611 L 43.4123 112.6009 L 43.3780 112.7380 L 43.3304 112.8711 L 43.2700 112.9988 L 43.1973 113.1200 L 43.1448 113.1908 L 43.1380 113.2180 L 43.0904 113.3511 L 43.0300 113.4788 L 42.9573 113.6000 L 42.9048 113.6708 L 42.8980 113.6980 L 42.8504 113.8311 L 42.7900 113.9588 L 42.7173 114.0800 L 42.6648 114.1508 L 42.6580 114.1780 L 42.6104 114.3111 L 42.5500 114.4388 L 42.4773 114.5600 L 42.4248 114.6308 L 42.4180 114.6580 L 42.3704 114.7911 L 42.3100 114.9188 L 42.2373 115.0400 L 42.1848 115.1108 L 42.1780 115.1380 L 42.1304 115.2711 L 42.0700 115.3988 L 41.9973 115.5200 L 41.9448 115.5908 L 41.9380 115.6180 L 41.8904 115.7511 L 41.8300 115.8788 L 41.7600 115.9955 L 41.7600 116.1600 L 41.7531 116.3011 L 41.7323 116.4409 L 41.6980 116.5780 L 41.6758 116.6400 L 41.6980 116.7020 L 41.7323 116.8391 L 41.7531 116.9789 L 41.7600 117.1200 L 41.7600 117.5245 L 41.8300 117.6412 L 41.8904 117.7689 L 41.9380 117.9020 L 41.9723 118.0391 L 41.9931 118.1789 L 41.9940 118.1975 L 42.2982 118.5018 L 42.3931 118.6065 L 42.4773 118.7200 L 42.5500 118.8412 L 42.6104 118.9689 L 42.6580 119.1020 L 42.6923 119.2391 L 42.7131 119.3789 L 42.7200 119.5200 L 42.7200 119.6845 L 42.7900 119.8012 L 42.8504 119.9289 L 42.8980 120.0620 L 42.9323 120.1991 L 42.9531 120.3389 L 42.9600 120.4800 L 42.9600 120.7200 L 42.9531 120.8611 L 42.9323 121.0009 L 42.8980 121.1380 L 42.8504 121.2711 L 42.7900 121.3988 L 42.7173 121.5200 L 42.6331 121.6335 L 42.5382 121.7382 L 42.0582 122.2182 L 41.9535 122.3131 L 41.8400 122.3973 L 41.7188 122.4700 L 41.5911 122.5304 L 41.4580 122.5780 L 41.3209 122.6123 L 41.1811 122.6331 L 41.1218 122.6360 L 41.1200 122.6373 L 40.9988 122.7100 L 40.8711 122.7704 L 40.7380 122.8180 L 40.6009 122.8523 L 40.4611 122.8731 L 40.3200 122.8800 L 40.1555 122.8800 L 40.0388 122.9500 L 39.9111 123.0104 L 39.7780 123.0580 L 39.6409 123.0923 L 39.5011 123.1131 L 39.4418 123.1160 L 39.4400 123.1173 L 39.3188 123.1900 L 39.1911 123.2504 L 39.0580 123.2980 L 38.9209 123.3323 L 38.7811 123.3531 L 38.7218 123.3560 L 38.7200 123.3573 L 38.5988 123.4300 L 38.4711 123.4904 L 38.3380 123.5380 L 38.2009 123.5723 L 38.0611 123.5931 L 38.0018 123.5960 L 38.0000 123.5973 L 37.8788 123.6700 L 37.7511 123.7304 L 37.6180 123.7780 L 37.4809 123.8123 L 37.3411 123.8331 L 37.2818 123.8360 L 37.2800 123.8373 L 37.1588 123.9100 L 37.0311 123.9704 L 36.8980 124.0180 L 36.7609 124.0523 L 36.6211 124.0731 L 36.4800 124.0800 L 36.3155 124.0800 L 36.1988 124.1500 L 36.0711 124.2104 L 35.9380 124.2580 L 35.8009 124.2923 L 35.6611 124.3131 L 35.6018 124.3160 L 35.6000 124.3173 L 35.4788 124.3900 L 35.3511 124.4504 L 35.2180 124.4980 L 35.0809 124.5323 L 34.9411 124.5531 L 34.8818 124.5560 L 34.8800 124.5573 L 34.7588 124.6300 L 34.6311 124.6904 L 34.4980 124.7380 L 34.3609 124.7723 L 34.2211 124.7931 L 34.1618 124.7960 L 34.1600 124.7973 L 34.0388 124.8700 L 33.9111 124.9304 L 33.7780 124.9780 L 33.6409 125.0123 L 33.5011 125.0331 L 33.3600 125.0400 L 33.1955 125.0400 L 33.0788 125.1100 L 32.9511 125.1704 L 32.8180 125.2180 L 32.6809 125.2523 L 32.5411 125.2731 L 32.4818 125.2760 L 32.4800 125.2773 L 32.3588 125.3500 L 32.2311 125.4104 L 32.0980 125.4580 L 31.9609 125.4923 L 31.8211 125.5131 L 31.7618 125.5160 L 31.7600 125.5173 L 31.6388 125.5900 L 31.5111 125.6504 L 31.3780 125.6980 L 31.3508 125.7048 L 31.2800 125.7573 L 31.1588 125.8300 L 31.0311 125.8904 L 30.8980 125.9380 L 30.7609 125.9723 L 30.6211 125.9931 L 30.4800 126.0000 L 30.0755 126.0000 L 29.9588 126.0700 L 29.8311 126.1304 L 29.6980 126.1780 L 29.5609 126.2123 L 29.4211 126.2331 L 29.2800 126.2400 L 28.6355 126.2400 L 28.5188 126.3100 L 28.3911 126.3704 L 28.2580 126.4180 L 28.1209 126.4523 L 27.9811 126.4731 L 27.8400 126.4800 L 27.3600 126.4800 L 27.2189 126.4731 L 27.0791 126.4523 L 26.9420 126.4180 L 26.8089 126.3704 L 26.6812 126.3100 L 26.5600 126.2373 L 26.4465 126.1531 L 26.3418 126.0582 L 26.1018 125.8182 L 26.0069 125.7135 L 25.9227 125.6000 L 25.8500 125.4788 L 25.7896 125.3511 L 25.7420 125.2180 L 25.7077 125.0809 L 25.6869 124.9411 L 25.6800 124.8000 L 25.6869 124.6589 L 25.7077 124.5191 L 25.7420 124.3820 L 25.7896 124.2489 L 25.8500 124.1212 L 25.9227 124.0000 L 26.0069 123.8865 L 26.1018 123.7818 L 27.4223 122.4613 Z M 128.4000 134.4755 L 128.3300 134.3588 L 128.2696 134.2311 L 128.2220 134.0980 L 128.1877 133.9609 L 128.1669 133.8211 L 128.1600 133.6800 L 128.1600 131.5200 L 128.1669 131.3789 L 128.1877 131.2391 L 128.2220 131.1020 L 128.2696 130.9689 L 128.3300 130.8412 L 128.4027 130.7200 L 128.4552 130.6492 L 128.4620 130.6220 L 128.5096 130.4889 L 128.5700 130.3612 L 128.6427 130.2400 L 128.6952 130.1692 L 128.7020 130.1420 L 128.7496 130.0089 L 128.8100 129.8812 L 128.8827 129.7600 L 128.8840 129.7582 L 128.8869 129.6989 L 128.9077 129.5591 L 128.9420 129.4220 L 128.9896 129.2889 L 129.0500 129.1612 L 129.1227 129.0400 L 129.1752 128.9692 L 129.1820 128.9420 L 129.2296 128.8089 L 129.2900 128.6812 L 129.3627 128.5600 L 129.3640 128.5582 L 129.3669 128.4989 L 129.3877 128.3591 L 129.4220 128.2220 L 129.4696 128.0889 L 129.5300 127.9612 L 129.6027 127.8400 L 129.6552 127.7692 L 129.6620 127.7420 L 129.7096 127.6089 L 129.7700 127.4812 L 129.8427 127.3600 L 129.8440 127.3582 L 129.8469 127.2989 L 129.8677 127.1591 L 129.9020 127.0220 L 129.9496 126.8889 L 130.0100 126.7612 L 130.0827 126.6400 L 130.1352 126.5692 L 130.1420 126.5420 L 130.1896 126.4089 L 130.2500 126.2812 L 130.3227 126.1600 L 130.3240 126.1582 L 130.3269 126.0989 L 130.3477 125.9591 L 130.3820 125.8220 L 130.4296 125.6889 L 130.4900 125.5612 L 130.5627 125.4400 L 130.6469 125.3265 L 130.7418 125.2218 L 132.1818 123.7818 L 132.2865 123.6869 L 132.4000 123.6027 L 132.5138 123.5344 L 132.5420 123.4220 L 132.5896 123.2889 L 132.6500 123.1612 L 132.7200 123.0445 L 132.7200 120.7200 L 132.7269 120.5789 L 132.7477 120.4391 L 132.7820 120.3020 L 132.8296 120.1689 L 132.8900 120.0412 L 132.9627 119.9200 L 133.0469 119.8065 L 133.1418 119.7018 L 133.2000 119.6435 L 133.2000 119.0400 L 133.2069 118.8989 L 133.2277 118.7591 L 133.2620 118.6220 L 133.3096 118.4889 L 133.3700 118.3612 L 133.4427 118.2400 L 133.4952 118.1692 L 133.5020 118.1420 L 133.5496 118.0089 L 133.6100 117.8812 L 133.6800 117.7645 L 133.6800 117.6755 L 133.6100 117.5588 L 133.5496 117.4311 L 133.5020 117.2980 L 133.4677 117.1609 L 133.4469 117.0211 L 133.4400 116.8800 L 133.4400 115.5155 L 133.3700 115.3988 L 133.3096 115.2711 L 133.2620 115.1380 L 133.2277 115.0009 L 133.2069 114.8611 L 133.2000 114.7200 L 133.2000 113.5955 L 133.1300 113.4788 L 133.0696 113.3511 L 133.0220 113.2180 L 132.9877 113.0809 L 132.9669 112.9411 L 132.9600 112.8000 L 132.9600 112.3955 L 132.8900 112.2788 L 132.8296 112.1511 L 132.7820 112.0180 L 132.7477 111.8809 L 132.7269 111.7411 L 132.7200 111.6000 L 132.7200 110.4000 L 132.7269 110.2589 L 132.7477 110.1191 L 132.7820 109.9820 L 132.8296 109.8489 L 132.8900 109.7212 L 132.9627 109.6000 L 132.9640 109.5982 L 132.9669 109.5389 L 132.9877 109.3991 L 133.0220 109.2620 L 133.0696 109.1289 L 133.1300 109.0012 L 133.2000 108.8845 L 133.2000 108.7200 L 133.2069 108.5789 L 133.2277 108.4391 L 133.2620 108.3020 L 133.3096 108.1689 L 133.3700 108.0412 L 133.4427 107.9200 L 133.4440 107.9182 L 133.4469 107.8589 L 133.4677 107.7191 L 133.5020 107.5820 L 133.5496 107.4489 L 133.6100 107.3212 L 133.6827 107.2000 L 133.6840 107.1982 L 133.6869 107.1389 L 133.7077 106.9991 L 133.7420 106.8620 L 133.7896 106.7289 L 133.8500 106.6012 L 133.9227 106.4800 L 133.9752 106.4092 L 133.9820 106.3820 L 134.0296 106.2489 L 134.0900 106.1212 L 134.1627 106.0000 L 134.1640 105.9982 L 134.1669 105.9389 L 134.1877 105.7991 L 134.2220 105.6620 L 134.2696 105.5289 L 134.3300 105.4012 L 134.4027 105.2800 L 134.4040 105.2782 L 134.4069 105.2189 L 134.4277 105.0791 L 134.4620 104.9420 L 134.5096 104.8089 L 134.5700 104.6812 L 134.6427 104.5600 L 134.6952 104.4892 L 134.7020 104.4620 L 134.7496 104.3289 L 134.8100 104.2012 L 134.8827 104.0800 L 134.9352 104.0092 L 134.9420 103.9820 L 134.9896 103.8489 L 135.0500 103.7212 L 135.1227 103.6000 L 135.2069 103.4865 L 135.3018 103.3818 L 135.5418 103.1418 L 135.6465 103.0469 L 135.7600 102.9627 L 135.8812 102.8900 L 136.0089 102.8296 L 136.1420 102.7820 L 136.2791 102.7477 L 136.4189 102.7269 L 136.5600 102.7200 L 137.0400 102.7200 L 137.1811 102.7269 L 137.3209 102.7477 L 137.4580 102.7820 L 137.5911 102.8296 L 137.7188 102.8900 L 137.8400 102.9627 L 137.9535 103.0469 L 138.0582 103.1418 L 142.4987 107.5823 L 142.6311 107.6296 L 142.7588 107.6900 L 142.8800 107.7627 L 142.9935 107.8469 L 143.0982 107.9418 L 143.9387 108.7823 L 144.0711 108.8296 L 144.1988 108.8900 L 144.3200 108.9627 L 144.4335 109.0469 L 144.5382 109.1418 L 145.1387 109.7423 L 145.2711 109.7896 L 145.3988 109.8500 L 145.5200 109.9227 L 145.6335 110.0069 L 145.7382 110.1018 L 146.3387 110.7023 L 146.4711 110.7496 L 146.5988 110.8100 L 146.7200 110.8827 L 146.8335 110.9669 L 146.9382 111.0618 L 147.2987 111.4223 L 147.4311 111.4696 L 147.5588 111.5300 L 147.6800 111.6027 L 147.7935 111.6869 L 147.8982 111.7818 L 148.4987 112.3823 L 148.6311 112.4296 L 148.7588 112.4900 L 148.8800 112.5627 L 148.9935 112.6469 L 149.0982 112.7418 L 149.6987 113.3423 L 149.8311 113.3896 L 149.9588 113.4500 L 150.0800 113.5227 L 150.1935 113.6069 L 150.2982 113.7018 L 150.8987 114.3023 L 151.0311 114.3496 L 151.1588 114.4100 L 151.2800 114.4827 L 151.3935 114.5669 L 151.4982 114.6618 L 152.0987 115.2623 L 152.2311 115.3096 L 152.3588 115.3700 L 152.4800 115.4427 L 152.5935 115.5269 L 152.6982 115.6218 L 153.2987 116.2223 L 153.4311 116.2696 L 153.5588 116.3300 L 153.6800 116.4027 L 153.7935 116.4869 L 153.8982 116.5818 L 154.2587 116.9423 L 154.3911 116.9896 L 154.5188 117.0500 L 154.6400 117.1227 L 154.7535 117.2069 L 154.8582 117.3018 L 155.2187 117.6623 L 155.3511 117.7096 L 155.4788 117.7700 L 155.6000 117.8427 L 155.7135 117.9269 L 155.8182 118.0218 L 155.9387 118.1423 L 156.0711 118.1896 L 156.1988 118.2500 L 156.3200 118.3227 L 156.4335 118.4069 L 156.5382 118.5018 L 156.6587 118.6223 L 156.7911 118.6696 L 156.9188 118.7300 L 157.0400 118.8027 L 157.1535 118.8869 L 157.2582 118.9818 L 157.3787 119.1023 L 157.5111 119.1496 L 157.6388 119.2100 L 157.7600 119.2827 L 157.8735 119.3669 L 157.9782 119.4618 L 158.0987 119.5823 L 158.2311 119.6296 L 158.3588 119.6900 L 158.4800 119.7627 L 158.5508 119.8152 L 158.5780 119.8220 L 158.7111 119.8696 L 158.8388 119.9300 L 158.9600 120.0027 L 159.0308 120.0552 L 159.0580 120.0620 L 159.1911 120.1096 L 159.3188 120.1700 L 159.4400 120.2427 L 159.5535 120.3269 L 159.6582 120.4218 L 159.7787 120.5423 L 159.9111 120.5896 L 160.0388 120.6500 L 160.1600 120.7227 L 160.2308 120.7752 L 160.2580 120.7820 L 160.3911 120.8296 L 160.5188 120.8900 L 160.6400 120.9627 L 160.7108 121.0152 L 160.7380 121.0220 L 160.8711 121.0696 L 160.9988 121.1300 L 161.1200 121.2027 L 161.2335 121.2869 L 161.3382 121.3818 L 161.4587 121.5023 L 161.5911 121.5496 L 161.7188 121.6100 L 161.8400 121.6827 L 161.9108 121.7352 L 161.9380 121.7420 L 162.0711 121.7896 L 162.1988 121.8500 L 162.3200 121.9227 L 162.3908 121.9752 L 162.4180 121.9820 L 162.5511 122.0296 L 162.6788 122.0900 L 162.8000 122.1627 L 162.8708 122.2152 L 162.8980 122.2220 L 163.0311 122.2696 L 163.1588 122.3300 L 163.2800 122.4027 L 163.3935 122.4869 L 163.4982 122.5818 L 163.6187 122.7023 L 163.7511 122.7496 L 163.8788 122.8100 L 164.0000 122.8827 L 164.0708 122.9352 L 164.0980 122.9420 L 164.2311 122.9896 L 164.3588 123.0500 L 164.4800 123.1227 L 164.5508 123.1752 L 164.5780 123.1820 L 164.7111 123.2296 L 164.8388 123.2900 L 164.9600 123.3627 L 165.0308 123.4152 L 165.0580 123.4220 L 165.1911 123.4696 L 165.3188 123.5300 L 165.4400 123.6027 L 165.5535 123.6869 L 165.6582 123.7818 L 166.1382 124.2618 L 166.2331 124.3665 L 166.3173 124.4800 L 166.3900 124.6012 L 166.4504 124.7289 L 166.4980 124.8620 L 166.5323 124.9991 L 166.5531 125.1389 L 166.5600 125.2800 L 166.5531 125.4211 L 166.5323 125.5609 L 166.4980 125.6980 L 166.4504 125.8311 L 166.3900 125.9588 L 166.3173 126.0800 L 166.2331 126.1935 L 166.1382 126.2982 L 165.6582 126.7782 L 165.5535 126.8731 L 165.4400 126.9573 L 165.3188 127.0300 L 165.1911 127.0904 L 165.0580 127.1380 L 165.0308 127.1448 L 164.9600 127.1973 L 164.8388 127.2700 L 164.7111 127.3304 L 164.5780 127.3780 L 164.4409 127.4123 L 164.3011 127.4331 L 164.2418 127.4360 L 164.2400 127.4373 L 164.1188 127.5100 L 163.9911 127.5704 L 163.8580 127.6180 L 163.8308 127.6248 L 163.7600 127.6773 L 163.6388 127.7500 L 163.5111 127.8104 L 163.3780 127.8580 L 163.3508 127.8648 L 163.2800 127.9173 L 163.1588 127.9900 L 163.0311 128.0504 L 162.8980 128.0980 L 162.8708 128.1048 L 162.8000 128.1573 L 162.6788 128.2300 L 162.5511 128.2904 L 162.4180 128.3380 L 162.2809 128.3723 L 162.1411 128.3931 L 162.0818 128.3960 L 162.0800 128.3973 L 161.9588 128.4700 L 161.8311 128.5304 L 161.6980 128.5780 L 161.6708 128.5848 L 161.6000 128.6373 L 161.4788 128.7100 L 161.3511 128.7704 L 161.2180 128.8180 L 161.0809 128.8523 L 160.9411 128.8731 L 160.8818 128.8760 L 160.8800 128.8773 L 160.7588 128.9500 L 160.6311 129.0104 L 160.4980 129.0580 L 160.4708 129.0648 L 160.4000 129.1173 L 160.2788 129.1900 L 160.1511 129.2504 L 160.0180 129.2980 L 159.9908 129.3048 L 159.9200 129.3573 L 159.7988 129.4300 L 159.6711 129.4904 L 159.5380 129.5380 L 159.4009 129.5723 L 159.2611 129.5931 L 159.2018 129.5960 L 159.2000 129.5973 L 159.0788 129.6700 L 158.9511 129.7304 L 158.8180 129.7780 L 158.7908 129.7848 L 158.7200 129.8373 L 158.5988 129.9100 L 158.4711 129.9704 L 158.3380 130.0180 L 158.3108 130.0248 L 158.2400 130.0773 L 158.1188 130.1500 L 157.9911 130.2104 L 157.8580 130.2580 L 157.8308 130.2648 L 157.7600 130.3173 L 157.6388 130.3900 L 157.5111 130.4504 L 157.3780 130.4980 L 157.2409 130.5323 L 157.1011 130.5531 L 157.0418 130.5560 L 157.0400 130.5573 L 156.9188 130.6300 L 156.7911 130.6904 L 156.6580 130.7380 L 156.6308 130.7448 L 156.5600 130.7973 L 156.4388 130.8700 L 156.3111 130.9304 L 156.1780 130.9780 L 156.1508 130.9848 L 156.0800 131.0373 L 155.9588 131.1100 L 155.8311 131.1704 L 155.6980 131.2180 L 155.5609 131.2523 L 155.4211 131.2731 L 155.3618 131.2760 L 155.3600 131.2773 L 155.2388 131.3500 L 155.1111 131.4104 L 154.9780 131.4580 L 154.9508 131.4648 L 154.8800 131.5173 L 154.7588 131.5900 L 154.6311 131.6504 L 154.4980 131.6980 L 154.4708 131.7048 L 154.4000 131.7573 L 154.2788 131.8300 L 154.1511 131.8904 L 154.0180 131.9380 L 153.8809 131.9723 L 153.7411 131.9931 L 153.6818 131.9960 L 153.6800 131.9973 L 153.5588 132.0700 L 153.4311 132.1304 L 153.2980 132.1780 L 153.2708 132.1848 L 153.2000 132.2373 L 153.0788 132.3100 L 152.9511 132.3704 L 152.8180 132.4180 L 152.7908 132.4248 L 152.7200 132.4773 L 152.5988 132.5500 L 152.4711 132.6104 L 152.3380 132.6580 L 152.3108 132.6648 L 152.2400 132.7173 L 152.1188 132.7900 L 151.9911 132.8504 L 151.8580 132.8980 L 151.8308 132.9048 L 151.7600 132.9573 L 151.6388 133.0300 L 151.5111 133.0904 L 151.3780 133.1380 L 151.2409 133.1723 L 151.1011 133.1931 L 151.0418 133.1960 L 151.0400 133.1973 L 150.9188 133.2700 L 150.7911 133.3304 L 150.6580 133.3780 L 150.6308 133.3848 L 150.5600 133.4373 L 150.4388 133.5100 L 150.3111 133.5704 L 150.1780 133.6180 L 150.1508 133.6248 L 150.0800 133.6773 L 149.9588 133.7500 L 149.8311 133.8104 L 149.6980 133.8580 L 149.5609 133.8923 L 149.4211 133.9131 L 149.3618 133.9160 L 149.3600 133.9173 L 149.2388 133.9900 L 149.1111 134.0504 L 148.9780 134.0980 L 148.9508 134.1048 L 148.8800 134.1573 L 148.7588 134.2300 L 148.6311 134.2904 L 148.4980 134.3380 L 148.3609 134.3723 L 148.2211 134.3931 L 148.1618 134.3960 L 148.1600 134.3973 L 148.0388 134.4700 L 147.9111 134.5304 L 147.7780 134.5780 L 147.7508 134.5848 L 147.6800 134.6373 L 147.5588 134.7100 L 147.4311 134.7704 L 147.2980 134.8180 L 147.2708 134.8248 L 147.2000 134.8773 L 147.0788 134.9500 L 146.9511 135.0104 L 146.8180 135.0580 L 146.7908 135.0648 L 146.7200 135.1173 L 146.5988 135.1900 L 146.4711 135.2504 L 146.3380 135.2980 L 146.2009 135.3323 L 146.0611 135.3531 L 146.0018 135.3560 L 146.0000 135.3573 L 145.8788 135.4300 L 145.7511 135.4904 L 145.6180 135.5380 L 145.5908 135.5448 L 145.5200 135.5973 L 145.3988 135.6700 L 145.2711 135.7304 L 145.1380 135.7780 L 145.0009 135.8123 L 144.8611 135.8331 L 144.8018 135.8360 L 144.8000 135.8373 L 144.6788 135.9100 L 144.5511 135.9704 L 144.4180 136.0180 L 144.3908 136.0248 L 144.3200 136.0773 L 144.1988 136.1500 L 144.0711 136.2104 L 143.9380 136.2580 L 143.9108 136.2648 L 143.8400 136.3173 L 143.7188 136.3900 L 143.5911 136.4504 L 143.4580 136.4980 L 143.3209 136.5323 L 143.1811 136.5531 L 143.1218 136.5560 L 143.1200 136.5573 L 142.9988 136.6300 L 142.8711 136.6904 L 142.7380 136.7380 L 142.7108 136.7448 L 142.6400 136.7973 L 142.5188 136.8700 L 142.3911 136.9304 L 142.2580 136.9780 L 142.2308 136.9848 L 142.1600 137.0373 L 142.0388 137.1100 L 141.9111 137.1704 L 141.7780 137.2180 L 141.7508 137.2248 L 141.6800 137.2773 L 141.5588 137.3500 L 141.4311 137.4104 L 141.2980 137.4580 L 141.1609 137.4923 L 141.0211 137.5131 L 140.9618 137.5160 L 140.9600 137.5173 L 140.8388 137.5900 L 140.7111 137.6504 L 140.5780 137.6980 L 140.5508 137.7048 L 140.4800 137.7573 L 140.3588 137.8300 L 140.2311 137.8904 L 140.0980 137.9380 L 140.0708 137.9448 L 140.0000 137.9973 L 139.8788 138.0700 L 139.7511 138.1304 L 139.6180 138.1780 L 139.4809 138.2123 L 139.3411 138.2331 L 139.2818 138.2360 L 139.2800 138.2373 L 139.1588 138.3100 L 139.0311 138.3704 L 138.8980 138.4180 L 138.8708 138.4248 L 138.8000 138.4773 L 138.6788 138.5500 L 138.5511 138.6104 L 138.4180 138.6580 L 138.3908 138.6648 L 138.3200 138.7173 L 138.1988 138.7900 L 138.0711 138.8504 L 137.9380 138.8980 L 137.8009 138.9323 L 137.6611 138.9531 L 137.6018 138.9560 L 137.6000 138.9573 L 137.4788 139.0300 L 137.3511 139.0904 L 137.2180 139.1380 L 137.1908 139.1448 L 137.1200 139.1973 L 136.9988 139.2700 L 136.8711 139.3304 L 136.7380 139.3780 L 136.7108 139.3848 L 136.6400 139.4373 L 136.5188 139.5100 L 136.3911 139.5704 L 136.2580 139.6180 L 136.1209 139.6523 L 135.9811 139.6731 L 135.9218 139.6760 L 135.9200 139.6773 L 135.7988 139.7500 L 135.6711 139.8104 L 135.5380 139.8580 L 135.5108 139.8648 L 135.4400 139.9173 L 135.3188 139.9900 L 135.1911 140.0504 L 135.0580 140.0980 L 135.0308 140.1048 L 134.9600 140.1573 L 134.8388 140.2300 L 134.7111 140.2904 L 134.5780 140.3380 L 134.4409 140.3723 L 134.3011 140.3931 L 134.2418 140.3960 L 134.2400 140.3973 L 134.1188 140.4700 L 133.9911 140.5304 L 133.8580 140.5780 L 133.8308 140.5848 L 133.7600 140.6373 L 133.6388 140.7100 L 133.5111 140.7704 L 133.3780 140.8180 L 133.3508 140.8248 L 133.2800 140.8773 L 133.1588 140.9500 L 133.0311 141.0104 L 132.8980 141.0580 L 132.8708 141.0648 L 132.8000 141.1173 L 132.6788 141.1900 L 132.5511 141.2504 L 132.4180 141.2980 L 132.2809 141.3323 L 132.1411 141.3531 L 132.0818 141.3560 L 132.0800 141.3573 L 131.9588 141.4300 L 131.8311 141.4904 L 131.6980 141.5380 L 131.6708 141.5448 L 131.6000 141.5973 L 131.4788 141.6700 L 131.3511 141.7304 L 131.2180 141.7780 L 131.1908 141.7848 L 131.1200 141.8373 L 130.9988 141.9100 L 130.8711 141.9704 L 130.7380 142.0180 L 130.6009 142.0523 L 130.4611 142.0731 L 130.3200 142.0800 L 129.8400 142.0800 L 129.6989 142.0731 L 129.5591 142.0523 L 129.4220 142.0180 L 129.2889 141.9704 L 129.1612 141.9100 L 129.0400 141.8373 L 128.9265 141.7531 L 128.8218 141.6582 L 128.5818 141.4182 L 128.4869 141.3135 L 128.4027 141.2000 L 128.3300 141.0788 L 128.2696 140.9511 L 128.2220 140.8180 L 128.1877 140.6809 L 128.1669 140.5411 L 128.1600 140.4000 L 128.1600 137.5200 L 128.1669 137.3789 L 128.1877 137.2391 L 128.2220 137.1020 L 128.2696 136.9689 L 128.3300 136.8412 L 128.4000 136.7245 L 128.4000 134.4755 Z M 96.4800 48.3155 L 96.4100 48.1988 L 96.3496 48.0711 L 96.3020 47.9380 L 96.2677 47.8009 L 96.2469 47.6611 L 96.2400 47.5200 L 96.2400 47.2800 L 96.2469 47.1389 L 96.2677 46.9991 L 96.3020 46.8620 L 96.3496 46.7289 L 96.4100 46.6012 L 96.4827 46.4800 L 96.5669 46.3665 L 96.6618 46.2618 L 97.1418 45.7818 L 97.2465 45.6869 L 97.3600 45.6027 L 97.4812 45.5300 L 97.6089 45.4696 L 97.7420 45.4220 L 97.8791 45.3877 L 98.0189 45.3669 L 98.1600 45.3600 L 99.0445 45.3600 L 99.1612 45.2900 L 99.2889 45.2296 L 99.4213 45.1823 L 99.4223 45.1813 L 99.4696 45.0489 L 99.5300 44.9212 L 99.6027 44.8000 L 99.6552 44.7292 L 99.6620 44.7020 L 99.7096 44.5689 L 99.7700 44.4412 L 99.8427 44.3200 L 99.8952 44.2492 L 99.9020 44.2220 L 99.9496 44.0889 L 100.0100 43.9612 L 100.0827 43.8400 L 100.1669 43.7265 L 100.2618 43.6218 L 100.6223 43.2613 L 100.6696 43.1289 L 100.7300 43.0012 L 100.8027 42.8800 L 100.8552 42.8092 L 100.8620 42.7820 L 100.9096 42.6489 L 100.9700 42.5212 L 101.0427 42.4000 L 101.1269 42.2865 L 101.2218 42.1818 L 102.0623 41.3413 L 102.1096 41.2089 L 102.1700 41.0812 L 102.2427 40.9600 L 102.3269 40.8465 L 102.4218 40.7418 L 102.9018 40.2618 L 103.0065 40.1669 L 103.1200 40.0827 L 103.2412 40.0100 L 103.3689 39.9496 L 103.5013 39.9023 L 103.6218 39.7818 L 103.7265 39.6869 L 103.8400 39.6027 L 103.8917 39.5717 L 103.9227 39.5200 L 104.0069 39.4065 L 104.1018 39.3018 L 104.5818 38.8218 L 104.6865 38.7269 L 104.8000 38.6427 L 104.9212 38.5700 L 105.0489 38.5096 L 105.1820 38.4620 L 105.2092 38.4552 L 105.2800 38.4027 L 105.3600 38.3547 L 105.3600 37.6800 L 105.3669 37.5389 L 105.3877 37.3991 L 105.4220 37.2620 L 105.4696 37.1289 L 105.4928 37.0800 L 105.4696 37.0311 L 105.4220 36.8980 L 105.3877 36.7609 L 105.3669 36.6211 L 105.3600 36.4800 L 105.3600 35.0400 L 105.3669 34.8989 L 105.3877 34.7591 L 105.4220 34.6220 L 105.4696 34.4889 L 105.5300 34.3612 L 105.6027 34.2400 L 105.6552 34.1692 L 105.6620 34.1420 L 105.7096 34.0089 L 105.7700 33.8812 L 105.8427 33.7600 L 105.8440 33.7582 L 105.8469 33.6989 L 105.8677 33.5591 L 105.9020 33.4220 L 105.9496 33.2889 L 106.0100 33.1612 L 106.0827 33.0400 L 106.0840 33.0382 L 106.0869 32.9789 L 106.1077 32.8391 L 106.1420 32.7020 L 106.1896 32.5689 L 106.2500 32.4412 L 106.3227 32.3200 L 106.3752 32.2492 L 106.3820 32.2220 L 106.4296 32.0889 L 106.4900 31.9612 L 106.5627 31.8400 L 106.6152 31.7692 L 106.6220 31.7420 L 106.6696 31.6089 L 106.7300 31.4812 L 106.8027 31.3600 L 106.8869 31.2465 L 106.9818 31.1418 L 107.0400 31.0835 L 107.0400 28.3200 L 107.0469 28.1789 L 107.0677 28.0391 L 107.1020 27.9020 L 107.1242 27.8400 L 107.1020 27.7780 L 107.0677 27.6409 L 107.0469 27.5011 L 107.0400 27.3600 L 107.0400 26.7155 L 106.9700 26.5988 L 106.9096 26.4711 L 106.8620 26.3380 L 106.8277 26.2009 L 106.8069 26.0611 L 106.8040 26.0018 L 106.8027 26.0000 L 106.7300 25.8788 L 106.6696 25.7511 L 106.6220 25.6180 L 106.6152 25.5908 L 106.5627 25.5200 L 106.4900 25.3988 L 106.4296 25.2711 L 106.3820 25.1380 L 106.3477 25.0009 L 106.3269 24.8611 L 106.3200 24.7200 L 106.3200 24.3155 L 106.2500 24.1988 L 106.1896 24.0711 L 106.1420 23.9380 L 106.1077 23.8009 L 106.0869 23.6611 L 106.0800 23.5200 L 106.0800 21.3600 L 106.0869 21.2189 L 106.1077 21.0791 L 106.1420 20.9420 L 106.1896 20.8089 L 106.2500 20.6812 L 106.3200 20.5645 L 106.3200 20.4755 L 106.2500 20.3588 L 106.1896 20.2311 L 106.1420 20.0980 L 106.1077 19.9609 L 106.0869 19.8211 L 106.0800 19.6800 L 106.0800 18.5965 L 105.7818 18.2982 L 105.6869 18.1935 L 105.6027 18.0800 L 105.5300 17.9588 L 105.4696 17.8311 L 105.4220 17.6980 L 105.3877 17.5609 L 105.3669 17.4211 L 105.3640 17.3618 L 105.3627 17.3600 L 105.2900 17.2388 L 105.2296 17.1111 L 105.1820 16.9780 L 105.1477 16.8409 L 105.1269 16.7011 L 105.1240 16.6418 L 105.1227 16.6400 L 105.0500 16.5188 L 104.9896 16.3911 L 104.9420 16.2580 L 104.9077 16.1209 L 104.8869 15.9811 L 104.8840 15.9218 L 104.8827 15.9200 L 104.8100 15.7988 L 104.7496 15.6711 L 104.7020 15.5380 L 104.6677 15.4009 L 104.6469 15.2611 L 104.6400 15.1200 L 104.6400 13.7965 L 104.4613 13.6177 L 104.3289 13.5704 L 104.2012 13.5100 L 104.0800 13.4373 L 103.9665 13.3531 L 103.8618 13.2582 L 103.3818 12.7782 L 103.2869 12.6735 L 103.2027 12.5600 L 103.1300 12.4388 L 103.0696 12.3111 L 103.0220 12.1780 L 103.0152 12.1508 L 102.9627 12.0800 L 102.8900 11.9588 L 102.8296 11.8311 L 102.7820 11.6980 L 102.7477 11.5609 L 102.7269 11.4211 L 102.7200 11.2800 L 102.7200 11.1155 L 102.6500 10.9988 L 102.5896 10.8711 L 102.5420 10.7380 L 102.5077 10.6009 L 102.4869 10.4611 L 102.4800 10.3200 L 102.4800 10.0800 L 102.4869 9.9389 L 102.5077 9.7991 L 102.5420 9.6620 L 102.5896 9.5289 L 102.6500 9.4012 L 102.7227 9.2800 L 102.8069 9.1665 L 102.9018 9.0618 L 103.1418 8.8218 L 103.2465 8.7269 L 103.3600 8.6427 L 103.4812 8.5700 L 103.6089 8.5096 L 103.7420 8.4620 L 103.8791 8.4277 L 104.0189 8.4069 L 104.1600 8.4000 L 179.0400 8.4000 L 179.1811 8.4069 L 179.3209 8.4277 L 179.4580 8.4620 L 179.5911 8.5096 L 179.7188 8.5700 L 179.8400 8.6427 L 179.9535 8.7269 L 180.0582 8.8218 L 180.2982 9.0618 L 180.3931 9.1665 L 180.4773 9.2800 L 180.5500 9.4012 L 180.6104 9.5289 L 180.6580 9.6620 L 180.6923 9.7991 L 180.7131 9.9389 L 180.7200 10.0800 L 180.7200 104.1600 L 180.7131 104.3011 L 180.6923 104.4409 L 180.6580 104.5780 L 180.6104 104.7111 L 180.5500 104.8388 L 180.4773 104.9600 L 180.3931 105.0735 L 180.2982 105.1782 L 180.0582 105.4182 L 179.9535 105.5131 L 179.8400 105.5973 L 179.7188 105.6700 L 179.5911 105.7304 L 179.4580 105.7780 L 179.3209 105.8123 L 179.1811 105.8331 L 179.0400 105.8400 L 178.8989 105.8331 L 178.7591 105.8123 L 178.6220 105.7780 L 178.4889 105.7304 L 178.3612 105.6700 L 178.2400 105.5973 L 178.1265 105.5131 L 178.0218 105.4182 L 172.3813 99.7777 L 172.2489 99.7304 L 172.1212 99.6700 L 172.0000 99.5973 L 171.8865 99.5131 L 171.7818 99.4182 L 170.2213 97.8577 L 170.0889 97.8104 L 169.9612 97.7500 L 169.8400 97.6773 L 169.7265 97.5931 L 169.6218 97.4982 L 169.0213 96.8977 L 168.8889 96.8504 L 168.7612 96.7900 L 168.6400 96.7173 L 168.5265 96.6331 L 168.4218 96.5382 L 167.8213 95.9377 L 167.6889 95.8904 L 167.5612 95.8300 L 167.4400 95.7573 L 167.3265 95.6731 L 167.2218 95.5782 L 166.8613 95.2177 L 166.7289 95.1704 L 166.6012 95.1100 L 166.4800 95.0373 L 166.3665 94.9531 L 166.2618 94.8582 L 166.1413 94.7377 L 166.0089 94.6904 L 165.8812 94.6300 L 165.7600 94.5573 L 165.6465 94.4731 L 165.5418 94.3782 L 165.1813 94.0177 L 165.0489 93.9704 L 164.9212 93.9100 L 164.8000 93.8373 L 164.7292 93.7848 L 164.7020 93.7780 L 164.5689 93.7304 L 164.4412 93.6700 L 164.3200 93.5973 L 164.2065 93.5131 L 164.1018 93.4182 L 163.9813 93.2977 L 163.8489 93.2504 L 163.7212 93.1900 L 163.6000 93.1173 L 163.4865 93.0331 L 163.3818 92.9382 L 163.2613 92.8177 L 163.1289 92.7704 L 163.0012 92.7100 L 162.8800 92.6373 L 162.7665 92.5531 L 162.6618 92.4582 L 162.5413 92.3377 L 162.4089 92.2904 L 162.2812 92.2300 L 162.1600 92.1573 L 162.0892 92.1048 L 162.0620 92.0980 L 161.9289 92.0504 L 161.8012 91.9900 L 161.6800 91.9173 L 161.5665 91.8331 L 161.4618 91.7382 L 161.3413 91.6177 L 161.2089 91.5704 L 161.0812 91.5100 L 160.9600 91.4373 L 160.8465 91.3531 L 160.7418 91.2582 L 160.6213 91.1377 L 160.4889 91.0904 L 160.3612 91.0300 L 160.2400 90.9573 L 160.1692 90.9048 L 160.1420 90.8980 L 160.0089 90.8504 L 159.8812 90.7900 L 159.7600 90.7173 L 159.6465 90.6331 L 159.5418 90.5382 L 159.1813 90.1777 L 159.0489 90.1304 L 158.9212 90.0700 L 158.8000 89.9973 L 158.6865 89.9131 L 158.5818 89.8182 L 158.4613 89.6977 L 158.3289 89.6504 L 158.2012 89.5900 L 158.0800 89.5173 L 157.9665 89.4331 L 157.8618 89.3382 L 157.3818 88.8582 L 157.2869 88.7535 L 157.2027 88.6400 L 157.1300 88.5188 L 157.0696 88.3911 L 157.0223 88.2587 L 156.9018 88.1382 L 156.8069 88.0335 L 156.7227 87.9200 L 156.6500 87.7988 L 156.5896 87.6711 L 156.5420 87.5380 L 156.5352 87.5108 L 156.4827 87.4400 L 156.4100 87.3188 L 156.3496 87.1911 L 156.3020 87.0580 L 156.2952 87.0308 L 156.2427 86.9600 L 156.1700 86.8388 L 156.1096 86.7111 L 156.0620 86.5780 L 156.0552 86.5508 L 156.0027 86.4800 L 155.9300 86.3588 L 155.8696 86.2311 L 155.8220 86.0980 L 155.8152 86.0708 L 155.7627 86.0000 L 155.6900 85.8788 L 155.6296 85.7511 L 155.5823 85.6187 L 155.4618 85.4982 L 155.3669 85.3935 L 155.2827 85.2800 L 155.2100 85.1588 L 155.1496 85.0311 L 155.1020 84.8980 L 155.0952 84.8708 L 155.0427 84.8000 L 154.9700 84.6788 L 154.9096 84.5511 L 154.8623 84.4187 L 154.7418 84.2982 L 154.6469 84.1935 L 154.5627 84.0800 L 154.4900 83.9588 L 154.4296 83.8311 L 154.3820 83.6980 L 154.3752 83.6708 L 154.3227 83.6000 L 154.2500 83.4788 L 154.1896 83.3511 L 154.1423 83.2187 L 154.0218 83.0982 L 153.9269 82.9935 L 153.8427 82.8800 L 153.7700 82.7588 L 153.7096 82.6311 L 153.6623 82.4987 L 153.3018 82.1382 L 153.2069 82.0335 L 153.1227 81.9200 L 153.0500 81.7988 L 152.9896 81.6711 L 152.9423 81.5387 L 152.8218 81.4182 L 152.7269 81.3135 L 152.6427 81.2000 L 152.5700 81.0788 L 152.5096 80.9511 L 152.4623 80.8187 L 152.3418 80.6982 L 152.2469 80.5935 L 152.1627 80.4800 L 152.0900 80.3588 L 152.0296 80.2311 L 151.9823 80.0987 L 150.4218 78.5382 L 150.3269 78.4335 L 150.2427 78.3200 L 150.1700 78.1988 L 150.1096 78.0711 L 150.0623 77.9387 L 149.3413 77.2177 L 149.2089 77.1704 L 149.0812 77.1100 L 148.9600 77.0373 L 148.8465 76.9531 L 148.7418 76.8582 L 148.1413 76.2577 L 148.0089 76.2104 L 147.8812 76.1500 L 147.7600 76.0773 L 147.6465 75.9931 L 147.5418 75.8982 L 147.1813 75.5377 L 147.0489 75.4904 L 146.9212 75.4300 L 146.8000 75.3573 L 146.6865 75.2731 L 146.5818 75.1782 L 146.4613 75.0577 L 146.3289 75.0104 L 146.2012 74.9500 L 146.0800 74.8773 L 145.9665 74.7931 L 145.8618 74.6982 L 145.7413 74.5777 L 145.6089 74.5304 L 145.4812 74.4700 L 145.3600 74.3973 L 145.2892 74.3448 L 145.2620 74.3380 L 145.1289 74.2904 L 145.0012 74.2300 L 144.8800 74.1573 L 144.7665 74.0731 L 144.6618 73.9782 L 144.5413 73.8577 L 144.4089 73.8104 L 144.2812 73.7500 L 144.1600 73.6773 L 144.0892 73.6248 L 144.0620 73.6180 L 143.9289 73.5704 L 143.8012 73.5100 L 143.6800 73.4373 L 143.5665 73.3531 L 143.4618 73.2582 L 143.3975 73.1940 L 143.3789 73.1931 L 143.2391 73.1723 L 143.1020 73.1380 L 142.9689 73.0904 L 142.8412 73.0300 L 142.7200 72.9573 L 142.6065 72.8731 L 142.5018 72.7782 L 142.4375 72.7140 L 142.4189 72.7131 L 142.2791 72.6923 L 142.1420 72.6580 L 142.0089 72.6104 L 141.8812 72.5500 L 141.7600 72.4773 L 141.6892 72.4248 L 141.6620 72.4180 L 141.5289 72.3704 L 141.4012 72.3100 L 141.2800 72.2373 L 141.2092 72.1848 L 141.1820 72.1780 L 141.0489 72.1304 L 140.9212 72.0700 L 140.8000 71.9973 L 140.7982 71.9960 L 140.7389 71.9931 L 140.5991 71.9723 L 140.4620 71.9380 L 140.3289 71.8904 L 140.2012 71.8300 L 140.0800 71.7573 L 140.0092 71.7048 L 139.9820 71.6980 L 139.8489 71.6504 L 139.7212 71.5900 L 139.6000 71.5173 L 139.5982 71.5160 L 139.5389 71.5131 L 139.3991 71.4923 L 139.2620 71.4580 L 139.1289 71.4104 L 139.0012 71.3500 L 138.8845 71.2800 L 138.7200 71.2800 L 138.5789 71.2731 L 138.4391 71.2523 L 138.3020 71.2180 L 138.1689 71.1704 L 138.0412 71.1100 L 137.9245 71.0400 L 137.7600 71.0400 L 137.6189 71.0331 L 137.4791 71.0123 L 137.3420 70.9780 L 137.2089 70.9304 L 137.0812 70.8700 L 136.9645 70.8000 L 135.6000 70.8000 L 135.4589 70.7931 L 135.3191 70.7723 L 135.1820 70.7380 L 135.0489 70.6904 L 134.9212 70.6300 L 134.8045 70.5600 L 133.6800 70.5600 L 133.5389 70.5531 L 133.3991 70.5323 L 133.2620 70.4980 L 133.1289 70.4504 L 133.0012 70.3900 L 132.8845 70.3200 L 131.2800 70.3200 L 131.1389 70.3131 L 130.9991 70.2923 L 130.8620 70.2580 L 130.7289 70.2104 L 130.6012 70.1500 L 130.4845 70.0800 L 129.6000 70.0800 L 129.4589 70.0731 L 129.3191 70.0523 L 129.1820 70.0180 L 129.0489 69.9704 L 128.9212 69.9100 L 128.8045 69.8400 L 127.4400 69.8400 L 127.2989 69.8331 L 127.1591 69.8123 L 127.0220 69.7780 L 126.8889 69.7304 L 126.7612 69.6700 L 126.6445 69.6000 L 126.0000 69.6000 L 125.8589 69.5931 L 125.7191 69.5723 L 125.5820 69.5380 L 125.4489 69.4904 L 125.3212 69.4300 L 125.2045 69.3600 L 125.0400 69.3600 L 124.8989 69.3531 L 124.7591 69.3323 L 124.6220 69.2980 L 124.4889 69.2504 L 124.3612 69.1900 L 124.2400 69.1173 L 124.2382 69.1160 L 124.1789 69.1131 L 124.0391 69.0923 L 123.9020 69.0580 L 123.7689 69.0104 L 123.6412 68.9500 L 123.5200 68.8773 L 123.4492 68.8248 L 123.4220 68.8180 L 123.2889 68.7704 L 123.1612 68.7100 L 123.0400 68.6373 L 122.9265 68.5531 L 122.8218 68.4582 L 122.7013 68.3377 L 122.5689 68.2904 L 122.4412 68.2300 L 122.3200 68.1573 L 122.2065 68.0731 L 122.1018 67.9782 L 121.2613 67.1377 L 121.1289 67.0904 L 121.0012 67.0300 L 120.8800 66.9573 L 120.7665 66.8731 L 120.6618 66.7782 L 119.9418 66.0582 L 119.8469 65.9535 L 119.7627 65.8400 L 119.6900 65.7188 L 119.6296 65.5911 L 119.5823 65.4587 L 119.4618 65.3382 L 119.3669 65.2335 L 119.2827 65.1200 L 119.2100 64.9988 L 119.1496 64.8711 L 119.1023 64.7387 L 119.1013 64.7377 L 118.9689 64.6904 L 118.8412 64.6300 L 118.7200 64.5573 L 118.7182 64.5560 L 118.6589 64.5531 L 118.5191 64.5323 L 118.3820 64.4980 L 118.2489 64.4504 L 118.1212 64.3900 L 118.0000 64.3173 L 117.9982 64.3160 L 117.9389 64.3131 L 117.7991 64.2923 L 117.6620 64.2580 L 117.5289 64.2104 L 117.4012 64.1500 L 117.2800 64.0773 L 117.2782 64.0760 L 117.2189 64.0731 L 117.0791 64.0523 L 116.9420 64.0180 L 116.8089 63.9704 L 116.6812 63.9100 L 116.5600 63.8373 L 116.5582 63.8360 L 116.4989 63.8331 L 116.3591 63.8123 L 116.2220 63.7780 L 116.0889 63.7304 L 115.9612 63.6700 L 115.8400 63.5973 L 115.7692 63.5448 L 115.7420 63.5380 L 115.6089 63.4904 L 115.4812 63.4300 L 115.3600 63.3573 L 115.3582 63.3560 L 115.2989 63.3531 L 115.1591 63.3323 L 115.0220 63.2980 L 114.8889 63.2504 L 114.7612 63.1900 L 114.6400 63.1173 L 114.5265 63.0331 L 114.4218 62.9382 L 114.0613 62.5777 L 113.9289 62.5304 L 113.8012 62.4700 L 113.6800 62.3973 L 113.6782 62.3960 L 113.6189 62.3931 L 113.4791 62.3723 L 113.3420 62.3380 L 113.2089 62.2904 L 113.0812 62.2300 L 112.9645 62.1600 L 112.6355 62.1600 L 112.5188 62.2300 L 112.3911 62.2904 L 112.2580 62.3380 L 112.1209 62.3723 L 111.9811 62.3931 L 111.8400 62.4000 L 111.6755 62.4000 L 111.5588 62.4700 L 111.4311 62.5304 L 111.2980 62.5780 L 111.1609 62.6123 L 111.0211 62.6331 L 110.8800 62.6400 L 110.4000 62.6400 L 110.2589 62.6331 L 110.1191 62.6123 L 109.9820 62.5780 L 109.8489 62.5304 L 109.7212 62.4700 L 109.6000 62.3973 L 109.5982 62.3960 L 109.5389 62.3931 L 109.3991 62.3723 L 109.2620 62.3380 L 109.1289 62.2904 L 109.0012 62.2300 L 108.8800 62.1573 L 108.8092 62.1048 L 108.7820 62.0980 L 108.6489 62.0504 L 108.5212 61.9900 L 108.4000 61.9173 L 108.3982 61.9160 L 108.3389 61.9131 L 108.1991 61.8923 L 108.0620 61.8580 L 107.9289 61.8104 L 107.8012 61.7500 L 107.6800 61.6773 L 107.6782 61.6760 L 107.6189 61.6731 L 107.4791 61.6523 L 107.3420 61.6180 L 107.2089 61.5704 L 107.0812 61.5100 L 106.9600 61.4373 L 106.8892 61.3848 L 106.8620 61.3780 L 106.7289 61.3304 L 106.6012 61.2700 L 106.4800 61.1973 L 106.4782 61.1960 L 106.4189 61.1931 L 106.2791 61.1723 L 106.1420 61.1380 L 106.0089 61.0904 L 105.8812 61.0300 L 105.7645 60.9600 L 105.1200 60.9600 L 104.9789 60.9531 L 104.8391 60.9323 L 104.7020 60.8980 L 104.5689 60.8504 L 104.4412 60.7900 L 104.3245 60.7200 L 104.1600 60.7200 L 104.0189 60.7131 L 103.8791 60.6923 L 103.7420 60.6580 L 103.6089 60.6104 L 103.4812 60.5500 L 103.3600 60.4773 L 103.3582 60.4760 L 103.2989 60.4731 L 103.1591 60.4523 L 103.0220 60.4180 L 102.8889 60.3704 L 102.7612 60.3100 L 102.6400 60.2373 L 102.5692 60.1848 L 102.5420 60.1780 L 102.4089 60.1304 L 102.2812 60.0700 L 102.1600 59.9973 L 102.1582 59.9960 L 102.0989 59.9931 L 101.9591 59.9723 L 101.8220 59.9380 L 101.6889 59.8904 L 101.5612 59.8300 L 101.4445 59.7600 L 101.2800 59.7600 L 101.1389 59.7531 L 100.9991 59.7323 L 100.8620 59.6980 L 100.7289 59.6504 L 100.6012 59.5900 L 100.4845 59.5200 L 99.6000 59.5200 L 99.4589 59.5131 L 99.3191 59.4923 L 99.1820 59.4580 L 99.0489 59.4104 L 98.9212 59.3500 L 98.8000 59.2773 L 98.6865 59.1931 L 98.5818 59.0982 L 98.1018 58.6182 L 98.0069 58.5135 L 97.9227 58.4000 L 97.8500 58.2788 L 97.7896 58.1511 L 97.7420 58.0180 L 97.7077 57.8809 L 97.6869 57.7411 L 97.6800 57.6000 L 97.6869 57.4589 L 97.7077 57.3191 L 97.7420 57.1820 L 97.7896 57.0489 L 97.8128 57.0000 L 97.7896 56.9511 L 97.7420 56.8180 L 97.7077 56.6809 L 97.6869 56.5411 L 97.6800 56.4000 L 97.6800 55.0355 L 97.6100 54.9188 L 97.5496 54.7911 L 97.5020 54.6580 L 97.4677 54.5209 L 97.4469 54.3811 L 97.4400 54.2400 L 97.4400 53.3555 L 97.3700 53.2388 L 97.3096 53.1111 L 97.2620 52.9780 L 97.2277 52.8409 L 97.2069 52.7011 L 97.2000 52.5600 L 97.2000 51.6755 L 97.1300 51.5588 L 97.0696 51.4311 L 97.0220 51.2980 L 96.9877 51.1609 L 96.9669 51.0211 L 96.9600 50.8800 L 96.9600 50.4755 L 96.8900 50.3588 L 96.8296 50.2311 L 96.7820 50.0980 L 96.7477 49.9609 L 96.7269 49.8211 L 96.7200 49.6800 L 96.7200 49.5155 L 96.6500 49.3988 L 96.5896 49.2711 L 96.5420 49.1380 L 96.5077 49.0009 L 96.4869 48.8611 L 96.4800 48.7200 L 96.4800 48.3155 Z M 8.1600 10.0800 L 8.1669 9.9389 L 8.1877 9.7991 L 8.2220 9.6620 L 8.2696 9.5289 L 8.3300 9.4012 L 8.4027 9.2800 L 8.4869 9.1665 L 8.5818 9.0618 L 8.8218 8.8218 L 8.9265 8.7269 L 9.0400 8.6427 L 9.1612 8.5700 L 9.2889 8.5096 L 9.4220 8.4620 L 9.5591 8.4277 L 9.6989 8.4069 L 9.8400 8.4000 L 64.8000 8.4000 L 64.9411 8.4069 L 65.0809 8.4277 L 65.2180 8.4620 L 65.3511 8.5096 L 65.4788 8.5700 L 65.6000 8.6427 L 65.7135 8.7269 L 65.8182 8.8218 L 66.0582 9.0618 L 66.1531 9.1665 L 66.2373 9.2800 L 66.3100 9.4012 L 66.3704 9.5289 L 66.4180 9.6620 L 66.4523 9.7991 L 66.4731 9.9389 L 66.4800 10.0800 L 66.4731 10.2211 L 66.4523 10.3609 L 66.4180 10.4980 L 66.3704 10.6311 L 66.3100 10.7588 L 66.2373 10.8800 L 66.2360 10.8818 L 66.2331 10.9411 L 66.2123 11.0809 L 66.1780 11.2180 L 66.1304 11.3511 L 66.0700 11.4788 L 65.9973 11.6000 L 65.9131 11.7135 L 65.8182 11.8182 L 65.5140 12.1225 L 65.5131 12.1411 L 65.4923 12.2809 L 65.4580 12.4180 L 65.4104 12.5511 L 65.3500 12.6788 L 65.2800 12.7955 L 65.2800 13.2000 L 65.2731 13.3411 L 65.2523 13.4809 L 65.2180 13.6180 L 65.1704 13.7511 L 65.1100 13.8788 L 65.0400 13.9955 L 65.0400 15.1200 L 65.0331 15.2611 L 65.0123 15.4009 L 64.9780 15.5380 L 64.9304 15.6711 L 64.8700 15.7988 L 64.8000 15.9155 L 64.8000 16.0800 L 64.7931 16.2211 L 64.7723 16.3609 L 64.7380 16.4980 L 64.6904 16.6311 L 64.6300 16.7588 L 64.5573 16.8800 L 64.5560 16.8818 L 64.5531 16.9411 L 64.5323 17.0809 L 64.4980 17.2180 L 64.4504 17.3511 L 64.3900 17.4788 L 64.3200 17.5955 L 64.3200 17.7600 L 64.3131 17.9011 L 64.2923 18.0409 L 64.2580 18.1780 L 64.2104 18.3111 L 64.1500 18.4388 L 64.0773 18.5600 L 64.0248 18.6308 L 64.0180 18.6580 L 63.9704 18.7911 L 63.9100 18.9188 L 63.8373 19.0400 L 63.7848 19.1108 L 63.7780 19.1380 L 63.7304 19.2711 L 63.6700 19.3988 L 63.5973 19.5200 L 63.5960 19.5218 L 63.5931 19.5811 L 63.5723 19.7209 L 63.5380 19.8580 L 63.4904 19.9911 L 63.4300 20.1188 L 63.3600 20.2355 L 63.3600 21.6000 L 63.3531 21.7411 L 63.3323 21.8809 L 63.2980 22.0180 L 63.2504 22.1511 L 63.1900 22.2788 L 63.1173 22.4000 L 63.0648 22.4708 L 63.0580 22.4980 L 63.0104 22.6311 L 62.9500 22.7588 L 62.8773 22.8800 L 62.7931 22.9935 L 62.6982 23.0982 L 62.2182 23.5782 L 62.1367 23.6522 L 62.1573 23.6800 L 62.2300 23.8012 L 62.2904 23.9289 L 62.3380 24.0620 L 62.3448 24.0892 L 62.3973 24.1600 L 62.4700 24.2812 L 62.5304 24.4089 L 62.5780 24.5420 L 62.6123 24.6791 L 62.6331 24.8189 L 62.6360 24.8782 L 62.6373 24.8800 L 62.7100 25.0012 L 62.7704 25.1289 L 62.8180 25.2620 L 62.8523 25.3991 L 62.8731 25.5389 L 62.8800 25.6800 L 62.8800 25.9200 L 62.8731 26.0611 L 62.8523 26.2009 L 62.8180 26.3380 L 62.7704 26.4711 L 62.7100 26.5988 L 62.6400 26.7155 L 62.6400 28.4845 L 62.7100 28.6012 L 62.7704 28.7289 L 62.8180 28.8620 L 62.8523 28.9991 L 62.8731 29.1389 L 62.8800 29.2800 L 62.8800 29.4445 L 62.9500 29.5612 L 63.0104 29.6889 L 63.0580 29.8220 L 63.0923 29.9591 L 63.1131 30.0989 L 63.1200 30.2400 L 63.1200 30.3635 L 63.8982 31.1418 L 63.9931 31.2465 L 64.0773 31.3600 L 64.1500 31.4812 L 64.2104 31.6089 L 64.2580 31.7420 L 64.2923 31.8791 L 64.3131 32.0189 L 64.3200 32.1600 L 64.3200 36.4045 L 64.3900 36.5212 L 64.4504 36.6489 L 64.4980 36.7820 L 64.5323 36.9191 L 64.5531 37.0589 L 64.5600 37.2000 L 64.5600 37.3645 L 64.6300 37.4812 L 64.6904 37.6089 L 64.7380 37.7420 L 64.7723 37.8791 L 64.7931 38.0189 L 64.7960 38.0782 L 64.7973 38.0800 L 64.8700 38.2012 L 64.9304 38.3289 L 64.9780 38.4620 L 65.0123 38.5991 L 65.0331 38.7389 L 65.0360 38.7982 L 65.0373 38.8000 L 65.1100 38.9212 L 65.1704 39.0489 L 65.2180 39.1820 L 65.2523 39.3191 L 65.2731 39.4589 L 65.2800 39.6000 L 65.2800 39.7645 L 65.3500 39.8812 L 65.4104 40.0089 L 65.4580 40.1420 L 65.4923 40.2791 L 65.5131 40.4189 L 65.5200 40.5600 L 65.5200 44.4000 L 65.5131 44.5411 L 65.4923 44.6809 L 65.4580 44.8180 L 65.4104 44.9511 L 65.3500 45.0788 L 65.2800 45.1955 L 65.2800 45.2435 L 65.5782 45.5418 L 65.6731 45.6465 L 65.7573 45.7600 L 65.8300 45.8812 L 65.8904 46.0089 L 65.9380 46.1420 L 65.9448 46.1692 L 65.9973 46.2400 L 66.0700 46.3612 L 66.1304 46.4889 L 66.1780 46.6220 L 66.2123 46.7591 L 66.2331 46.8989 L 66.2360 46.9582 L 66.2373 46.9600 L 66.3100 47.0812 L 66.3704 47.2089 L 66.4180 47.3420 L 66.4523 47.4791 L 66.4731 47.6189 L 66.4800 47.7600 L 66.4800 47.9245 L 66.5500 48.0412 L 66.6104 48.1689 L 66.6580 48.3020 L 66.6923 48.4391 L 66.7131 48.5789 L 66.7200 48.7200 L 66.7200 49.1245 L 66.7900 49.2412 L 66.8504 49.3689 L 66.8980 49.5020 L 66.9323 49.6391 L 66.9531 49.7789 L 66.9560 49.8382 L 66.9573 49.8400 L 67.0300 49.9612 L 67.0904 50.0889 L 67.1380 50.2220 L 67.1448 50.2492 L 67.1973 50.3200 L 67.2700 50.4412 L 67.3304 50.5689 L 67.3780 50.7020 L 67.3848 50.7292 L 67.4373 50.8000 L 67.5100 50.9212 L 67.5704 51.0489 L 67.6180 51.1820 L 67.6248 51.2092 L 67.6773 51.2800 L 67.7500 51.4012 L 67.8104 51.5289 L 67.8580 51.6620 L 67.8648 51.6892 L 67.9173 51.7600 L 67.9900 51.8812 L 68.0504 52.0089 L 68.0980 52.1420 L 68.1323 52.2791 L 68.1531 52.4189 L 68.1600 52.5600 L 68.1600 56.4000 L 68.1531 56.5411 L 68.1323 56.6809 L 68.0980 56.8180 L 68.0504 56.9511 L 67.9900 57.0788 L 67.9200 57.1955 L 67.9200 60.9600 L 67.9131 61.1011 L 67.8923 61.2409 L 67.8580 61.3780 L 67.8104 61.5111 L 67.7500 61.6388 L 67.6773 61.7600 L 67.6248 61.8308 L 67.6180 61.8580 L 67.5704 61.9911 L 67.5100 62.1188 L 67.4373 62.2400 L 67.3531 62.3535 L 67.2582 62.4582 L 67.0182 62.6982 L 66.9135 62.7931 L 66.8000 62.8773 L 66.6788 62.9500 L 66.5511 63.0104 L 66.4180 63.0580 L 66.3908 63.0648 L 66.3200 63.1173 L 66.1988 63.1900 L 66.0711 63.2504 L 65.9380 63.2980 L 65.8009 63.3323 L 65.6611 63.3531 L 65.6425 63.3540 L 64.8582 64.1382 L 64.7535 64.2331 L 64.6400 64.3173 L 64.5188 64.3900 L 64.3911 64.4504 L 64.2580 64.4980 L 64.2308 64.5048 L 64.1600 64.5573 L 64.0388 64.6300 L 63.9111 64.6904 L 63.7780 64.7380 L 63.7508 64.7448 L 63.6800 64.7973 L 63.5588 64.8700 L 63.4311 64.9304 L 63.2980 64.9780 L 63.1609 65.0123 L 63.0211 65.0331 L 62.9618 65.0360 L 62.9600 65.0373 L 62.8388 65.1100 L 62.7111 65.1704 L 62.5780 65.2180 L 62.4409 65.2523 L 62.3011 65.2731 L 62.1600 65.2800 L 61.7555 65.2800 L 61.6388 65.3500 L 61.5111 65.4104 L 61.3780 65.4580 L 61.3508 65.4648 L 61.2800 65.5173 L 61.1588 65.5900 L 61.0311 65.6504 L 60.8980 65.6980 L 60.8708 65.7048 L 60.8000 65.7573 L 60.6788 65.8300 L 60.5511 65.8904 L 60.4180 65.9380 L 60.3908 65.9448 L 60.3200 65.9973 L 60.1988 66.0700 L 60.0711 66.1304 L 59.9380 66.1780 L 59.9108 66.1848 L 59.8400 66.2373 L 59.7188 66.3100 L 59.5911 66.3704 L 59.4580 66.4180 L 59.3209 66.4523 L 59.1811 66.4731 L 59.1218 66.4760 L 59.1200 66.4773 L 58.9988 66.5500 L 58.8711 66.6104 L 58.7380 66.6580 L 58.6009 66.6923 L 58.4611 66.7131 L 58.4018 66.7160 L 58.4000 66.7173 L 58.2788 66.7900 L 58.1511 66.8504 L 58.0180 66.8980 L 57.8809 66.9323 L 57.7411 66.9531 L 57.6000 66.9600 L 57.4355 66.9600 L 57.3188 67.0300 L 57.1911 67.0904 L 57.0580 67.1380 L 56.9209 67.1723 L 56.7811 67.1931 L 56.6400 67.2000 L 56.2355 67.2000 L 56.1188 67.2700 L 55.9911 67.3304 L 55.8580 67.3780 L 55.7209 67.4123 L 55.5811 67.4331 L 55.4400 67.4400 L 55.0355 67.4400 L 54.9188 67.5100 L 54.7911 67.5704 L 54.6580 67.6180 L 54.6308 67.6248 L 54.5600 67.6773 L 54.4388 67.7500 L 54.3111 67.8104 L 54.1780 67.8580 L 54.0409 67.8923 L 53.9011 67.9131 L 53.8825 67.9140 L 52.8582 68.9382 L 52.7535 69.0331 L 52.6400 69.1173 L 52.5188 69.1900 L 52.3911 69.2504 L 52.2580 69.2980 L 52.2308 69.3048 L 52.1600 69.3573 L 52.0388 69.4300 L 51.9111 69.4904 L 51.7780 69.5380 L 51.7508 69.5448 L 51.6800 69.5973 L 51.5588 69.6700 L 51.4311 69.7304 L 51.2987 69.7777 L 51.1782 69.8982 L 51.0735 69.9931 L 50.9600 70.0773 L 50.8388 70.1500 L 50.7111 70.2104 L 50.5780 70.2580 L 50.5508 70.2648 L 50.4800 70.3173 L 50.3588 70.3900 L 50.2311 70.4504 L 50.0980 70.4980 L 49.9609 70.5323 L 49.8211 70.5531 L 49.6800 70.5600 L 49.4400 70.5600 L 49.4400 71.0400 L 49.4331 71.1811 L 49.4123 71.3209 L 49.3780 71.4580 L 49.3304 71.5911 L 49.2700 71.7188 L 49.1973 71.8400 L 49.1448 71.9108 L 49.1380 71.9380 L 49.0904 72.0711 L 49.0300 72.1988 L 48.9573 72.3200 L 48.8731 72.4335 L 48.7782 72.5382 L 46.8582 74.4582 L 46.7535 74.5531 L 46.6400 74.6373 L 46.5188 74.7100 L 46.3911 74.7704 L 46.2580 74.8180 L 46.1209 74.8523 L 45.9811 74.8731 L 45.9218 74.8760 L 45.9200 74.8773 L 45.7988 74.9500 L 45.6711 75.0104 L 45.5380 75.0580 L 45.4009 75.0923 L 45.2611 75.1131 L 45.1200 75.1200 L 44.9555 75.1200 L 44.8388 75.1900 L 44.7111 75.2504 L 44.5780 75.2980 L 44.4409 75.3323 L 44.3011 75.3531 L 44.1600 75.3600 L 43.9955 75.3600 L 43.8788 75.4300 L 43.7511 75.4904 L 43.6180 75.5380 L 43.4809 75.5723 L 43.3411 75.5931 L 43.2818 75.5960 L 43.2800 75.5973 L 43.1588 75.6700 L 43.0311 75.7304 L 42.8980 75.7780 L 42.7609 75.8123 L 42.6211 75.8331 L 42.4800 75.8400 L 42.3155 75.8400 L 42.1988 75.9100 L 42.0711 75.9704 L 41.9380 76.0180 L 41.8009 76.0523 L 41.6611 76.0731 L 41.6018 76.0760 L 41.6000 76.0773 L 41.4788 76.1500 L 41.3511 76.2104 L 41.2180 76.2580 L 41.0809 76.2923 L 40.9411 76.3131 L 40.8000 76.3200 L 40.3955 76.3200 L 40.2788 76.3900 L 40.1511 76.4504 L 40.0180 76.4980 L 39.8809 76.5323 L 39.7411 76.5531 L 39.6818 76.5560 L 39.6800 76.5573 L 39.5588 76.6300 L 39.4311 76.6904 L 39.2980 76.7380 L 39.1609 76.7723 L 39.0211 76.7931 L 38.8800 76.8000 L 38.7155 76.8000 L 38.5988 76.8700 L 38.4711 76.9304 L 38.3380 76.9780 L 38.2009 77.0123 L 38.0611 77.0331 L 37.9200 77.0400 L 37.5155 77.0400 L 37.3988 77.1100 L 37.2711 77.1704 L 37.1380 77.2180 L 37.0009 77.2523 L 36.8611 77.2731 L 36.7200 77.2800 L 36.3155 77.2800 L 36.1988 77.3500 L 36.0711 77.4104 L 35.9380 77.4580 L 35.8009 77.4923 L 35.6611 77.5131 L 35.6018 77.5160 L 35.6000 77.5173 L 35.4788 77.5900 L 35.3511 77.6504 L 35.2180 77.6980 L 35.0809 77.7323 L 34.9411 77.7531 L 34.8000 77.7600 L 34.6355 77.7600 L 34.5188 77.8300 L 34.3911 77.8904 L 34.2580 77.9380 L 34.2308 77.9448 L 34.1600 77.9973 L 34.0388 78.0700 L 33.9111 78.1304 L 33.7780 78.1780 L 33.6409 78.2123 L 33.5011 78.2331 L 33.4418 78.2360 L 33.4400 78.2373 L 33.3188 78.3100 L 33.1911 78.3704 L 33.0580 78.4180 L 32.9209 78.4523 L 32.7811 78.4731 L 32.7625 78.4740 L 32.6982 78.5382 L 32.5935 78.6331 L 32.4800 78.7173 L 32.3588 78.7900 L 32.2311 78.8504 L 32.0980 78.8980 L 32.0708 78.9048 L 32.0000 78.9573 L 31.8788 79.0300 L 31.7511 79.0904 L 31.6180 79.1380 L 31.5908 79.1448 L 31.5200 79.1973 L 31.3988 79.2700 L 31.2711 79.3304 L 31.1380 79.3780 L 31.1108 79.3848 L 31.0400 79.4373 L 30.9188 79.5100 L 30.7911 79.5704 L 30.6587 79.6177 L 30.5382 79.7382 L 30.4335 79.8331 L 30.3200 79.9173 L 30.1988 79.9900 L 30.0711 80.0504 L 29.9387 80.0977 L 29.8182 80.2182 L 29.7135 80.3131 L 29.6000 80.3973 L 29.4788 80.4700 L 29.3511 80.5304 L 29.2187 80.5777 L 29.0982 80.6982 L 28.9935 80.7931 L 28.8800 80.8773 L 28.7588 80.9500 L 28.6311 81.0104 L 28.4987 81.0577 L 28.3782 81.1782 L 28.2735 81.2731 L 28.1600 81.3573 L 28.0388 81.4300 L 27.9111 81.4904 L 27.7787 81.5377 L 26.6982 82.6182 L 26.5935 82.7131 L 26.4800 82.7973 L 26.3588 82.8700 L 26.2311 82.9304 L 26.0987 82.9777 L 24.4177 84.6587 L 24.3704 84.7911 L 24.3100 84.9188 L 24.2373 85.0400 L 24.1531 85.1535 L 24.0582 85.2582 L 23.4577 85.8587 L 23.4104 85.9911 L 23.3500 86.1188 L 23.2773 86.2400 L 23.2248 86.3108 L 23.2180 86.3380 L 23.1704 86.4711 L 23.1100 86.5988 L 23.0373 86.7200 L 22.9531 86.8335 L 22.8582 86.9382 L 22.7377 87.0587 L 22.6904 87.1911 L 22.6300 87.3188 L 22.5573 87.4400 L 22.5048 87.5108 L 22.4980 87.5380 L 22.4504 87.6711 L 22.3900 87.7988 L 22.3173 87.9200 L 22.2331 88.0335 L 22.1382 88.1382 L 22.0177 88.2587 L 21.9704 88.3911 L 21.9100 88.5188 L 21.8373 88.6400 L 21.7848 88.7108 L 21.7780 88.7380 L 21.7304 88.8711 L 21.6700 88.9988 L 21.5973 89.1200 L 21.5448 89.1908 L 21.5380 89.2180 L 21.4904 89.3511 L 21.4300 89.4788 L 21.3573 89.6000 L 21.3560 89.6018 L 21.3531 89.6611 L 21.3323 89.8009 L 21.2980 89.9380 L 21.2504 90.0711 L 21.1900 90.1988 L 21.1173 90.3200 L 21.1160 90.3218 L 21.1131 90.3811 L 21.0923 90.5209 L 21.0580 90.6580 L 21.0104 90.7911 L 20.9500 90.9188 L 20.8773 91.0400 L 20.8760 91.0418 L 20.8731 91.1011 L 20.8523 91.2409 L 20.8180 91.3780 L 20.7704 91.5111 L 20.7100 91.6388 L 20.6400 91.7555 L 20.6400 91.9200 L 20.6331 92.0611 L 20.6123 92.2009 L 20.5780 92.3380 L 20.5304 92.4711 L 20.4700 92.5988 L 20.3973 92.7200 L 20.3960 92.7218 L 20.3931 92.7811 L 20.3723 92.9209 L 20.3380 93.0580 L 20.2904 93.1911 L 20.2300 93.3188 L 20.1600 93.4355 L 20.1600 93.8400 L 20.1531 93.9811 L 20.1323 94.1209 L 20.0980 94.2580 L 20.0504 94.3911 L 19.9900 94.5188 L 19.9200 94.6355 L 19.9200 95.0400 L 19.9131 95.1811 L 19.8923 95.3209 L 19.8580 95.4580 L 19.8104 95.5911 L 19.7500 95.7188 L 19.6800 95.8355 L 19.6800 97.2000 L 19.6731 97.3411 L 19.6523 97.4809 L 19.6180 97.6180 L 19.5704 97.7511 L 19.5100 97.8788 L 19.4373 98.0000 L 19.3848 98.0708 L 19.3780 98.0980 L 19.3304 98.2311 L 19.2700 98.3588 L 19.1973 98.4800 L 19.1131 98.5935 L 19.0182 98.6982 L 15.0577 102.6587 L 15.0104 102.7911 L 14.9500 102.9188 L 14.8773 103.0400 L 14.7931 103.1535 L 14.6982 103.2582 L 13.6177 104.3387 L 13.5704 104.4711 L 13.5100 104.5988 L 13.4373 104.7200 L 13.3531 104.8335 L 13.2582 104.9382 L 12.8977 105.2987 L 12.8504 105.4311 L 12.7900 105.5588 L 12.7173 105.6800 L 12.6331 105.7935 L 12.5382 105.8982 L 12.1777 106.2587 L 12.1304 106.3911 L 12.0700 106.5188 L 11.9973 106.6400 L 11.9448 106.7108 L 11.9380 106.7380 L 11.8904 106.8711 L 11.8300 106.9988 L 11.7573 107.1200 L 11.6731 107.2335 L 11.5782 107.3382 L 11.4577 107.4587 L 11.4104 107.5911 L 11.3500 107.7188 L 11.2773 107.8400 L 11.1931 107.9535 L 11.0982 108.0582 L 10.8582 108.2982 L 10.7535 108.3931 L 10.6400 108.4773 L 10.5188 108.5500 L 10.3911 108.6104 L 10.2580 108.6580 L 10.1209 108.6923 L 9.9811 108.7131 L 9.8400 108.7200 L 9.6989 108.7131 L 9.5591 108.6923 L 9.4220 108.6580 L 9.2889 108.6104 L 9.1612 108.5500 L 9.0400 108.4773 L 8.9265 108.3931 L 8.8218 108.2982 L 8.5818 108.0582 L 8.4869 107.9535 L 8.4027 107.8400 L 8.3300 107.7188 L 8.2696 107.5911 L 8.2220 107.4580 L 8.1877 107.3209 L 8.1669 107.1811 L 8.1600 107.0400 L 8.1600 10.0800 Z" fill="none" stroke="black" stroke-width="0.5" /></svg>