<?xml version="1.0" encoding="utf-8" ?>
<svg baseProfile="full" height="261" version="1.1" viewBox="0 0 189 261" width="189" xmlns="http://www.w3.org/2000/svg" xmlns:ev="http://www.w3.org/2001/xml-events" xmlns:xlink="http://www.w3.org/1999/xlink"><defs /><path d="M 0.0000 0.2400 L 0.0000 260.6400 L 188.6400 260.6400 L 188.6400 0.2400 L 0.0000 0.2400 Z M 8.1600 10.0800 L 8.1669 9.9389 L 8.1877 9.7991 L 8.2220 9.6620 L 8.2696 9.5289 L 8.3300 9.4012 L 8.4027 9.2800 L 8.4869 9.1665 L 8.5818 9.0618 L 8.8218 8.8218 L 8.9265 8.7269 L 9.0400 8.6427 L 9.1612 8.5700 L 9.2889 8.5096 L 9.4220 8.4620 L 9.5591 8.4277 L 9.6989 8.4069 L 9.8400 8.4000 L 179.0400 8.4000 L 179.1811 8.4069 L 179.3209 8.4277 L 179.4580 8.4620 L 179.5911 8.5096 L 179.7188 8.5700 L 179.8400 8.6427 L 179.9535 8.7269 L 180.0582 8.8218 L 180.2982 9.0618 L 180.3931 9.1665 L 180.4773 9.2800 L 180.5500 9.4012 L 180.6104 9.5289 L 180.6580 9.6620 L 180.6923 9.7991 L 180.7131 9.9389 L 180.7200 10.0800 L 180.7200 119.0400 L 180.7131 119.1811 L 180.6923 119.3209 L 180.6580 119.4580 L 180.6104 119.5911 L 180.5500 119.7188 L 180.4773 119.8400 L 180.3931 119.9535 L 180.2982 120.0582 L 179.8182 120.5382 L 179.7135 120.6331 L 179.6000 120.7173 L 179.4788 120.7900 L 179.3511 120.8504 L 179.2180 120.8980 L 179.1908 120.9048 L 179.1200 120.9573 L 178.9988 121.0300 L 178.8711 121.0904 L 178.7380 121.1380 L 178.7108 121.1448 L 178.6400 121.1973 L 178.5188 121.2700 L 178.3911 121.3304 L 178.2580 121.3780 L 178.2308 121.3848 L 178.1600 121.4373 L 178.0388 121.5100 L 177.9111 121.5704 L 177.7780 121.6180 L 177.7508 121.6248 L 177.6800 121.6773 L 177.5588 121.7500 L 177.4311 121.8104 L 177.2980 121.8580 L 177.1609 121.8923 L 177.0211 121.9131 L 176.9618 121.9160 L 176.9600 121.9173 L 176.8388 121.9900 L 176.7111 122.0504 L 176.5780 122.0980 L 176.5508 122.1048 L 176.4800 122.1573 L 176.3588 122.2300 L 176.2311 122.2904 L 176.0980 122.3380 L 176.0708 122.3448 L 176.0000 122.3973 L 175.8788 122.4700 L 175.7511 122.5304 L 175.6180 122.5780 L 175.4809 122.6123 L 175.3411 122.6331 L 175.2818 122.6360 L 175.2800 122.6373 L 175.1588 122.7100 L 175.0311 122.7704 L 174.8980 122.8180 L 174.8708 122.8248 L 174.8000 122.8773 L 174.6788 122.9500 L 174.5511 123.0104 L 174.4180 123.0580 L 174.3908 123.0648 L 174.3200 123.1173 L 174.1988 123.1900 L 174.0711 123.2504 L 173.9380 123.2980 L 173.9108 123.3048 L 173.8400 123.3573 L 173.7188 123.4300 L 173.5911 123.4904 L 173.4580 123.5380 L 173.3209 123.5723 L 173.1811 123.5931 L 173.1218 123.5960 L 173.1200 123.5973 L 172.9988 123.6700 L 172.8711 123.7304 L 172.7380 123.7780 L 172.7108 123.7848 L 172.6400 123.8373 L 172.5188 123.9100 L 172.3911 123.9704 L 172.2580 124.0180 L 172.2308 124.0248 L 172.1600 124.0773 L 172.0388 124.1500 L 171.9111 124.2104 L 171.7780 124.2580 L 171.6409 124.2923 L 171.5011 124.3131 L 171.4418 124.3160 L 171.4400 124.3173 L 171.3188 124.3900 L 171.1911 124.4504 L 171.0580 124.4980 L 171.0308 124.5048 L 170.9600 124.5573 L 170.8388 124.6300 L 170.7111 124.6904 L 170.5780 124.7380 L 170.5508 124.7448 L 170.4800 124.7973 L 170.3588 124.8700 L 170.2311 124.9304 L 170.0980 124.9780 L 169.9609 125.0123 L 169.8211 125.0331 L 169.7618 125.0360 L 169.7600 125.0373 L 169.6388 125.1100 L 169.5111 125.1704 L 169.3780 125.2180 L 169.3508 125.2248 L 169.2800 125.2773 L 169.1588 125.3500 L 169.0311 125.4104 L 168.8980 125.4580 L 168.8708 125.4648 L 168.8000 125.5173 L 168.6788 125.5900 L 168.5511 125.6504 L 168.4180 125.6980 L 168.3908 125.7048 L 168.3200 125.7573 L 168.1988 125.8300 L 168.0711 125.8904 L 167.9380 125.9380 L 167.8009 125.9723 L 167.6611 125.9931 L 167.6018 125.9960 L 167.6000 125.9973 L 167.4788 126.0700 L 167.3511 126.1304 L 167.2180 126.1780 L 167.1908 126.1848 L 167.1200 126.2373 L 166.9988 126.3100 L 166.8711 126.3704 L 166.7380 126.4180 L 166.7108 126.4248 L 166.6400 126.4773 L 166.5188 126.5500 L 166.3911 126.6104 L 166.2580 126.6580 L 166.1209 126.6923 L 165.9811 126.7131 L 165.9218 126.7160 L 165.9200 126.7173 L 165.7988 126.7900 L 165.6711 126.8504 L 165.5380 126.8980 L 165.5108 126.9048 L 165.4400 126.9573 L 165.3188 127.0300 L 165.1911 127.0904 L 165.0580 127.1380 L 165.0308 127.1448 L 164.9600 127.1973 L 164.8388 127.2700 L 164.7111 127.3304 L 164.5780 127.3780 L 164.4409 127.4123 L 164.3011 127.4331 L 164.2418 127.4360 L 164.2400 127.4373 L 164.1188 127.5100 L 163.9911 127.5704 L 163.8580 127.6180 L 163.8308 127.6248 L 163.7600 127.6773 L 163.6388 127.7500 L 163.5111 127.8104 L 163.3780 127.8580 L 163.3508 127.8648 L 163.2800 127.9173 L 163.1588 127.9900 L 163.0311 128.0504 L 162.8980 128.0980 L 162.8708 128.1048 L 162.8000 128.1573 L 162.6788 128.2300 L 162.5511 128.2904 L 162.4180 128.3380 L 162.2809 128.3723 L 162.1411 128.3931 L 162.0818 128.3960 L 162.0800 128.3973 L 161.9588 128.4700 L 161.8311 128.5304 L 161.6980 128.5780 L 161.6708 128.5848 L 161.6000 128.6373 L 161.4788 128.7100 L 161.3511 128.7704 L 161.2180 128.8180 L 161.0809 128.8523 L 160.9411 128.8731 L 160.8818 128.8760 L 160.8800 128.8773 L 160.7588 128.9500 L 160.6311 129.0104 L 160.4980 129.0580 L 160.4708 129.0648 L 160.4000 129.1173 L 160.2788 129.1900 L 160.1511 129.2504 L 160.0180 129.2980 L 159.9908 129.3048 L 159.9200 129.3573 L 159.7988 129.4300 L 159.6711 129.4904 L 159.5380 129.5380 L 159.4009 129.5723 L 159.2611 129.5931 L 159.2018 129.5960 L 159.2000 129.5973 L 159.0788 129.6700 L 158.9511 129.7304 L 158.8180 129.7780 L 158.7908 129.7848 L 158.7200 129.8373 L 158.5988 129.9100 L 158.4711 129.9704 L 158.3380 130.0180 L 158.3108 130.0248 L 158.2400 130.0773 L 158.1188 130.1500 L 157.9911 130.2104 L 157.8580 130.2580 L 157.8308 130.2648 L 157.7600 130.3173 L 157.6388 130.3900 L 157.5111 130.4504 L 157.3780 130.4980 L 157.2409 130.5323 L 157.1011 130.5531 L 157.0418 130.5560 L 157.0400 130.5573 L 156.9188 130.6300 L 156.7911 130.6904 L 156.6580 130.7380 L 156.6308 130.7448 L 156.5600 130.7973 L 156.4388 130.8700 L 156.3111 130.9304 L 156.1780 130.9780 L 156.1508 130.9848 L 156.0800 131.0373 L 155.9588 131.1100 L 155.8311 131.1704 L 155.6980 131.2180 L 155.5609 131.2523 L 155.4211 131.2731 L 155.3618 131.2760 L 155.3600 131.2773 L 155.2388 131.3500 L 155.1111 131.4104 L 154.9780 131.4580 L 154.9508 131.4648 L 154.8800 131.5173 L 154.7588 131.5900 L 154.6311 131.6504 L 154.4980 131.6980 L 154.4708 131.7048 L 154.4000 131.7573 L 154.2788 131.8300 L 154.1511 131.8904 L 154.0180 131.9380 L 153.8809 131.9723 L 153.7411 131.9931 L 153.6818 131.9960 L 153.6800 131.9973 L 153.5588 132.0700 L 153.4311 132.1304 L 153.2980 132.1780 L 153.2708 132.1848 L 153.2000 132.2373 L 153.0788 132.3100 L 152.9511 132.3704 L 152.8180 132.4180 L 152.7908 132.4248 L 152.7200 132.4773 L 152.5988 132.5500 L 152.4711 132.6104 L 152.3380 132.6580 L 152.3108 132.6648 L 152.2400 132.7173 L 152.1188 132.7900 L 151.9911 132.8504 L 151.8580 132.8980 L 151.8308 132.9048 L 151.7600 132.9573 L 151.6388 133.0300 L 151.5111 133.0904 L 151.3780 133.1380 L 151.2409 133.1723 L 151.1011 133.1931 L 151.0418 133.1960 L 151.0400 133.1973 L 150.9188 133.2700 L 150.7911 133.3304 L 150.6580 133.3780 L 150.6308 133.3848 L 150.5600 133.4373 L 150.4388 133.5100 L 150.3111 133.5704 L 150.1780 133.6180 L 150.1508 133.6248 L 150.0800 133.6773 L 149.9588 133.7500 L 149.8311 133.8104 L 149.6980 133.8580 L 149.5609 133.8923 L 149.4211 133.9131 L 149.3618 133.9160 L 149.3600 133.9173 L 149.2388 133.9900 L 149.1111 134.0504 L 148.9780 134.0980 L 148.9508 134.1048 L 148.8800 134.1573 L 148.7588 134.2300 L 148.6311 134.2904 L 148.4980 134.3380 L 148.3609 134.3723 L 148.2211 134.3931 L 148.1618 134.3960 L 148.1600 134.3973 L 148.0388 134.4700 L 147.9111 134.5304 L 147.7780 134.5780 L 147.7508 134.5848 L 147.6800 134.6373 L 147.5588 134.7100 L 147.4311 134.7704 L 147.2980 134.8180 L 147.2708 134.8248 L 147.2000 134.8773 L 147.0788 134.9500 L 146.9511 135.0104 L 146.8180 135.0580 L 146.7908 135.0648 L 146.7200 135.1173 L 146.5988 135.1900 L 146.4711 135.2504 L 146.3380 135.2980 L 146.2009 135.3323 L 146.0611 135.3531 L 146.0018 135.3560 L 146.0000 135.3573 L 145.8788 135.4300 L 145.7511 135.4904 L 145.6180 135.5380 L 145.5908 135.5448 L 145.5200 135.5973 L 145.3988 135.6700 L 145.2711 135.7304 L 145.1380 135.7780 L 145.0009 135.8123 L 144.8611 135.8331 L 144.8018 135.8360 L 144.8000 135.8373 L 144.6788 135.9100 L 144.5511 135.9704 L 144.4180 136.0180 L 144.3908 136.0248 L 144.3200 136.0773 L 144.1988 136.1500 L 144.0711 136.2104 L 143.9380 136.2580 L 143.9108 136.2648 L 143.8400 136.3173 L 143.7188 136.3900 L 143.5911 136.4504 L 143.4580 136.4980 L 143.3209 136.5323 L 143.1811 136.5531 L 143.1218 136.5560 L 143.1200 136.5573 L 142.9988 136.6300 L 142.8711 136.6904 L 142.7380 136.7380 L 142.7108 136.7448 L 142.6400 136.7973 L 142.5188 136.8700 L 142.3911 136.9304 L 142.2580 136.9780 L 142.2308 136.9848 L 142.1600 137.0373 L 142.0388 137.1100 L 141.9111 137.1704 L 141.7780 137.2180 L 141.7508 137.2248 L 141.6800 137.2773 L 141.5588 137.3500 L 141.4311 137.4104 L 141.2980 137.4580 L 141.1609 137.4923 L 141.0211 137.5131 L 140.9618 137.5160 L 140.9600 137.5173 L 140.8388 137.5900 L 140.7111 137.6504 L 140.5780 137.6980 L 140.5508 137.7048 L 140.4800 137.7573 L 140.3588 137.8300 L 140.2311 137.8904 L 140.0980 137.9380 L 140.0708 137.9448 L 140.0000 137.9973 L 139.8788 138.0700 L 139.7511 138.1304 L 139.6180 138.1780 L 139.4809 138.2123 L 139.3411 138.2331 L 139.2818 138.2360 L 139.2800 138.2373 L 139.1588 138.3100 L 139.0311 138.3704 L 138.8980 138.4180 L 138.8708 138.4248 L 138.8000 138.4773 L 138.6788 138.5500 L 138.5511 138.6104 L 138.4180 138.6580 L 138.3908 138.6648 L 138.3200 138.7173 L 138.1988 138.7900 L 138.0711 138.8504 L 137.9380 138.8980 L 137.8009 138.9323 L 137.6611 138.9531 L 137.6018 138.9560 L 137.6000 138.9573 L 137.4788 139.0300 L 137.3511 139.0904 L 137.2180 139.1380 L 137.1908 139.1448 L 137.1200 139.1973 L 136.9988 139.2700 L 136.8711 139.3304 L 136.7380 139.3780 L 136.7108 139.3848 L 136.6400 139.4373 L 136.5188 139.5100 L 136.3911 139.5704 L 136.2580 139.6180 L 136.1209 139.6523 L 135.9811 139.6731 L 135.9218 139.6760 L 135.9200 139.6773 L 135.7988 139.7500 L 135.6711 139.8104 L 135.5380 139.8580 L 135.5108 139.8648 L 135.4400 139.9173 L 135.3188 139.9900 L 135.1911 140.0504 L 135.0580 140.0980 L 135.0308 140.1048 L 134.9600 140.1573 L 134.8388 140.2300 L 134.7111 140.2904 L 134.5780 140.3380 L 134.4409 140.3723 L 134.3011 140.3931 L 134.2418 140.3960 L 134.2400 140.3973 L 134.1188 140.4700 L 133.9911 140.5304 L 133.8580 140.5780 L 133.8308 140.5848 L 133.7600 140.6373 L 133.6388 140.7100 L 133.5111 140.7704 L 133.3780 140.8180 L 133.3508 140.8248 L 133.2800 140.8773 L 133.1588 140.9500 L 133.0311 141.0104 L 132.8980 141.0580 L 132.8708 141.0648 L 132.8000 141.1173 L 132.6788 141.1900 L 132.5511 141.2504 L 132.4180 141.2980 L 132.2809 141.3323 L 132.1411 141.3531 L 132.0818 141.3560 L 132.0800 141.3573 L 131.9588 141.4300 L 131.8311 141.4904 L 131.6980 141.5380 L 131.6708 141.5448 L 131.6000 141.5973 L 131.4788 141.6700 L 131.3511 141.7304 L 131.2180 141.7780 L 131.1908 141.7848 L 131.1200 141.8373 L 130.9988 141.9100 L 130.8711 141.9704 L 130.7380 142.0180 L 130.6009 142.0523 L 130.4611 142.0731 L 130.4018 142.0760 L 130.4000 142.0773 L 130.2788 142.1500 L 130.1511 142.2104 L 130.0180 142.2580 L 129.9908 142.2648 L 129.9200 142.3173 L 129.7988 142.3900 L 129.6711 142.4504 L 129.5380 142.4980 L 129.4009 142.5323 L 129.3412 142.5412 L 129.3323 142.6009 L 129.2980 142.7380 L 129.2504 142.8711 L 129.1900 142.9988 L 129.1173 143.1200 L 129.0331 143.2335 L 128.9382 143.3382 L 128.4582 143.8182 L 128.3535 143.9131 L 128.2400 143.9973 L 128.2355 144.0000 L 128.4000 144.0000 L 128.5411 144.0069 L 128.6809 144.0277 L 128.8180 144.0620 L 128.9511 144.1096 L 129.0788 144.1700 L 129.1955 144.2400 L 129.3600 144.2400 L 129.5011 144.2469 L 129.6409 144.2677 L 129.7780 144.3020 L 129.9111 144.3496 L 130.0388 144.4100 L 130.1555 144.4800 L 130.3200 144.4800 L 130.4611 144.4869 L 130.6009 144.5077 L 130.7380 144.5420 L 130.8711 144.5896 L 130.9988 144.6500 L 131.1155 144.7200 L 131.2800 144.7200 L 131.4211 144.7269 L 131.5609 144.7477 L 131.6980 144.7820 L 131.8311 144.8296 L 131.9588 144.8900 L 132.0755 144.9600 L 132.2400 144.9600 L 132.3811 144.9669 L 132.5209 144.9877 L 132.6580 145.0220 L 132.7911 145.0696 L 132.9188 145.1300 L 133.0355 145.2000 L 133.2000 145.2000 L 133.3411 145.2069 L 133.4809 145.2277 L 133.6180 145.2620 L 133.7511 145.3096 L 133.8788 145.3700 L 134.0000 145.4427 L 134.0018 145.4440 L 134.0611 145.4469 L 134.2009 145.4677 L 134.3380 145.5020 L 134.4711 145.5496 L 134.5988 145.6100 L 134.7155 145.6800 L 134.8800 145.6800 L 135.0211 145.6869 L 135.1609 145.7077 L 135.2980 145.7420 L 135.4311 145.7896 L 135.5588 145.8500 L 135.6755 145.9200 L 136.0800 145.9200 L 136.2211 145.9269 L 136.3609 145.9477 L 136.4980 145.9820 L 136.6311 146.0296 L 136.7588 146.0900 L 136.8755 146.1600 L 137.2800 146.1600 L 137.4211 146.1669 L 137.5609 146.1877 L 137.6980 146.2220 L 137.8311 146.2696 L 137.9588 146.3300 L 138.0755 146.4000 L 139.2000 146.4000 L 139.3411 146.4069 L 139.4809 146.4277 L 139.6180 146.4620 L 139.7511 146.5096 L 139.8788 146.5700 L 139.9955 146.6400 L 141.3600 146.6400 L 141.5011 146.6469 L 141.6409 146.6677 L 141.7780 146.7020 L 141.9111 146.7496 L 142.0388 146.8100 L 142.1555 146.8800 L 143.0400 146.8800 L 143.1811 146.8869 L 143.3209 146.9077 L 143.4580 146.9420 L 143.5911 146.9896 L 143.7188 147.0500 L 143.8355 147.1200 L 144.9600 147.1200 L 145.1011 147.1269 L 145.2409 147.1477 L 145.3780 147.1820 L 145.5111 147.2296 L 145.6388 147.2900 L 145.7600 147.3627 L 145.7618 147.3640 L 145.8211 147.3669 L 145.9609 147.3877 L 146.0980 147.4220 L 146.2311 147.4696 L 146.3588 147.5300 L 146.4755 147.6000 L 146.6400 147.6000 L 146.7811 147.6069 L 146.9209 147.6277 L 147.0580 147.6620 L 147.1911 147.7096 L 147.3188 147.7700 L 147.4355 147.8400 L 147.6000 147.8400 L 147.7411 147.8469 L 147.8809 147.8677 L 148.0180 147.9020 L 148.1511 147.9496 L 148.2788 148.0100 L 148.3955 148.0800 L 148.8000 148.0800 L 148.9411 148.0869 L 149.0809 148.1077 L 149.2180 148.1420 L 149.3511 148.1896 L 149.4788 148.2500 L 149.5955 148.3200 L 150.0000 148.3200 L 150.1411 148.3269 L 150.2809 148.3477 L 150.4180 148.3820 L 150.5511 148.4296 L 150.6788 148.4900 L 150.7955 148.5600 L 151.2000 148.5600 L 151.3411 148.5669 L 151.4809 148.5877 L 151.6180 148.6220 L 151.7511 148.6696 L 151.8788 148.7300 L 151.9955 148.8000 L 152.4000 148.8000 L 152.5411 148.8069 L 152.6809 148.8277 L 152.8180 148.8620 L 152.9511 148.9096 L 153.0788 148.9700 L 153.1955 149.0400 L 153.8400 149.0400 L 153.9811 149.0469 L 154.1209 149.0677 L 154.2580 149.1020 L 154.3911 149.1496 L 154.5188 149.2100 L 154.6355 149.2800 L 154.8000 149.2800 L 154.9411 149.2869 L 155.0809 149.3077 L 155.2180 149.3420 L 155.3511 149.3896 L 155.4788 149.4500 L 155.5955 149.5200 L 156.2400 149.5200 L 156.3811 149.5269 L 156.5209 149.5477 L 156.6580 149.5820 L 156.7911 149.6296 L 156.9188 149.6900 L 157.0355 149.7600 L 157.6800 149.7600 L 157.8211 149.7669 L 157.9609 149.7877 L 158.0980 149.8220 L 158.2311 149.8696 L 158.3588 149.9300 L 158.4755 150.0000 L 159.1200 150.0000 L 159.2611 150.0069 L 159.4009 150.0277 L 159.5380 150.0620 L 159.6711 150.1096 L 159.7988 150.1700 L 159.9155 150.2400 L 160.5600 150.2400 L 160.7011 150.2469 L 160.8409 150.2677 L 160.9780 150.3020 L 161.1111 150.3496 L 161.2388 150.4100 L 161.3555 150.4800 L 162.0000 150.4800 L 162.1411 150.4869 L 162.2809 150.5077 L 162.4180 150.5420 L 162.5511 150.5896 L 162.6788 150.6500 L 162.7955 150.7200 L 163.6800 150.7200 L 163.8211 150.7269 L 163.9609 150.7477 L 164.0980 150.7820 L 164.2311 150.8296 L 164.3588 150.8900 L 164.4755 150.9600 L 165.3600 150.9600 L 165.5011 150.9669 L 165.6409 150.9877 L 165.7780 151.0220 L 165.9111 151.0696 L 166.0388 151.1300 L 166.1600 151.2027 L 166.2308 151.2552 L 166.2580 151.2620 L 166.3911 151.3096 L 166.5188 151.3700 L 166.6400 151.4427 L 166.6418 151.4440 L 166.7011 151.4469 L 166.8409 151.4677 L 166.9780 151.5020 L 167.1111 151.5496 L 167.2388 151.6100 L 167.3600 151.6827 L 167.4308 151.7352 L 167.4580 151.7420 L 167.5911 151.7896 L 167.7188 151.8500 L 167.8355 151.9200 L 168.0000 151.9200 L 168.1411 151.9269 L 168.2809 151.9477 L 168.4180 151.9820 L 168.5511 152.0296 L 168.6788 152.0900 L 168.8000 152.1627 L 168.8708 152.2152 L 168.8980 152.2220 L 169.0311 152.2696 L 169.1588 152.3300 L 169.2755 152.4000 L 169.6800 152.4000 L 169.8211 152.4069 L 169.9609 152.4277 L 170.0980 152.4620 L 170.2311 152.5096 L 170.3588 152.5700 L 170.4800 152.6427 L 170.4818 152.6440 L 170.5411 152.6469 L 170.6809 152.6677 L 170.8180 152.7020 L 170.9511 152.7496 L 171.0788 152.8100 L 171.1955 152.8800 L 171.8400 152.8800 L 171.9811 152.8869 L 172.1209 152.9077 L 172.2580 152.9420 L 172.3911 152.9896 L 172.5188 153.0500 L 172.6355 153.1200 L 173.2800 153.1200 L 173.4211 153.1269 L 173.5609 153.1477 L 173.6980 153.1820 L 173.8311 153.2296 L 173.9588 153.2900 L 174.0755 153.3600 L 174.2400 153.3600 L 174.3811 153.3669 L 174.5209 153.3877 L 174.6580 153.4220 L 174.7911 153.4696 L 174.9188 153.5300 L 175.0355 153.6000 L 175.6800 153.6000 L 175.8211 153.6069 L 175.9609 153.6277 L 176.0980 153.6620 L 176.2311 153.7096 L 176.3588 153.7700 L 176.4755 153.8400 L 177.0445 153.8400 L 177.1612 153.7700 L 177.2889 153.7096 L 177.4220 153.6620 L 177.5591 153.6277 L 177.6989 153.6069 L 177.8400 153.6000 L 177.9811 153.6069 L 178.1209 153.6277 L 178.2000 153.6475 L 178.2791 153.6277 L 178.4189 153.6069 L 178.5600 153.6000 L 179.0400 153.6000 L 179.1811 153.6069 L 179.3209 153.6277 L 179.4580 153.6620 L 179.5911 153.7096 L 179.7188 153.7700 L 179.8400 153.8427 L 179.9535 153.9269 L 180.0582 154.0218 L 180.2982 154.2618 L 180.3931 154.3665 L 180.4773 154.4800 L 180.5500 154.6012 L 180.6104 154.7289 L 180.6580 154.8620 L 180.6923 154.9991 L 180.7131 155.1389 L 180.7200 155.2800 L 180.7200 205.2000 L 180.7131 205.3411 L 180.6923 205.4809 L 180.6580 205.6180 L 180.6104 205.7511 L 180.5500 205.8788 L 180.4773 206.0000 L 180.3931 206.1135 L 180.2982 206.2182 L 179.8182 206.6982 L 179.7135 206.7931 L 179.6000 206.8773 L 179.4788 206.9500 L 179.3511 207.0104 L 179.2180 207.0580 L 179.0809 207.0923 L 178.9411 207.1131 L 178.8000 207.1200 L 124.8000 207.1200 L 124.6589 207.1131 L 124.5191 207.0923 L 124.3820 207.0580 L 124.2489 207.0104 L 124.1212 206.9500 L 124.0000 206.8773 L 123.8865 206.7931 L 123.7818 206.6982 L 123.5418 206.4582 L 123.4469 206.3535 L 123.3627 206.2400 L 123.2900 206.1188 L 123.2296 205.9911 L 123.1820 205.8580 L 123.1477 205.7209 L 123.1269 205.5811 L 123.1200 205.4400 L 123.1200 204.4800 L 123.1269 204.3389 L 123.1477 204.1991 L 123.1820 204.0620 L 123.2296 203.9289 L 123.2528 203.8800 L 123.2296 203.8311 L 123.1820 203.6980 L 123.1477 203.5609 L 123.1269 203.4211 L 123.1240 203.3618 L 123.1227 203.3600 L 123.0500 203.2388 L 122.9896 203.1111 L 122.9420 202.9780 L 122.9352 202.9508 L 122.8827 202.8800 L 122.8100 202.7588 L 122.7496 202.6311 L 122.7020 202.4980 L 122.6677 202.3609 L 122.6469 202.2211 L 122.6400 202.0800 L 122.6400 201.6755 L 122.5700 201.5588 L 122.5096 201.4311 L 122.4620 201.2980 L 122.4277 201.1609 L 122.4069 201.0211 L 122.4000 200.8800 L 122.4069 200.7389 L 122.4277 200.5991 L 122.4620 200.4620 L 122.5096 200.3289 L 122.5700 200.2012 L 122.6427 200.0800 L 122.6952 200.0092 L 122.7020 199.9820 L 122.7496 199.8489 L 122.8100 199.7212 L 122.8800 199.6045 L 122.8800 199.2000 L 122.8869 199.0589 L 122.9077 198.9191 L 122.9275 198.8400 L 122.9077 198.7609 L 122.8869 198.6211 L 122.8800 198.4800 L 122.8800 197.8355 L 122.8100 197.7188 L 122.7496 197.5911 L 122.7020 197.4580 L 122.6677 197.3209 L 122.6469 197.1811 L 122.6400 197.0400 L 122.6400 195.8400 L 122.6469 195.6989 L 122.6677 195.5591 L 122.7020 195.4220 L 122.7496 195.2889 L 122.8100 195.1612 L 122.8827 195.0400 L 122.9669 194.9265 L 123.0618 194.8218 L 124.5018 193.3818 L 124.6065 193.2869 L 124.7200 193.2027 L 124.8412 193.1300 L 124.8621 193.1201 L 124.8027 193.0400 L 124.7300 192.9188 L 124.6696 192.7911 L 124.6223 192.6587 L 123.0618 191.0982 L 122.9669 190.9935 L 122.8827 190.8800 L 122.8100 190.7588 L 122.7496 190.6311 L 122.7023 190.4987 L 122.3418 190.1382 L 122.2469 190.0335 L 122.1627 189.9200 L 122.0900 189.7988 L 122.0296 189.6711 L 121.9823 189.5387 L 121.8618 189.4182 L 121.7669 189.3135 L 121.6827 189.2000 L 121.6100 189.0788 L 121.5496 188.9511 L 121.5020 188.8180 L 121.4952 188.7908 L 121.4427 188.7200 L 121.3700 188.5988 L 121.3096 188.4711 L 121.2623 188.3387 L 121.1418 188.2182 L 121.0469 188.1135 L 120.9627 188.0000 L 120.8900 187.8788 L 120.8296 187.7511 L 120.7820 187.6180 L 120.7477 187.4809 L 120.7269 187.3411 L 120.7200 187.2000 L 120.7200 186.7200 L 120.7269 186.5789 L 120.7477 186.4391 L 120.7820 186.3020 L 120.8296 186.1689 L 120.8900 186.0412 L 120.9627 185.9200 L 121.0152 185.8492 L 121.0220 185.8220 L 121.0696 185.6889 L 121.1300 185.5612 L 121.2027 185.4400 L 121.2869 185.3265 L 121.3818 185.2218 L 124.0835 182.5200 L 124.0218 182.4582 L 123.9269 182.3535 L 123.8427 182.2400 L 123.7700 182.1188 L 123.7096 181.9911 L 123.6623 181.8587 L 123.1813 181.3777 L 123.0489 181.3304 L 122.9212 181.2700 L 122.8000 181.1973 L 122.6865 181.1131 L 122.5818 181.0182 L 121.6218 180.0582 L 121.5269 179.9535 L 121.4427 179.8400 L 121.3700 179.7188 L 121.3096 179.5911 L 121.2623 179.4587 L 120.9018 179.0982 L 120.8069 178.9935 L 120.7227 178.8800 L 120.6500 178.7588 L 120.5896 178.6311 L 120.5420 178.4980 L 120.5352 178.4708 L 120.4827 178.4000 L 120.4100 178.2788 L 120.3496 178.1511 L 120.3023 178.0187 L 120.1818 177.8982 L 120.0869 177.7935 L 120.0027 177.6800 L 119.9300 177.5588 L 119.8696 177.4311 L 119.8223 177.2987 L 119.2218 176.6982 L 119.1269 176.5935 L 119.1184 176.5821 L 119.1020 176.5780 L 118.9689 176.5304 L 118.8412 176.4700 L 118.7200 176.3973 L 118.6065 176.3131 L 118.5018 176.2182 L 117.5418 175.2582 L 117.4469 175.1535 L 117.3627 175.0400 L 117.2900 174.9188 L 117.2296 174.7911 L 117.1820 174.6580 L 117.1477 174.5209 L 117.1269 174.3811 L 117.1240 174.3218 L 117.1227 174.3200 L 117.0500 174.1988 L 116.9896 174.0711 L 116.9420 173.9380 L 116.9077 173.8009 L 116.8869 173.6611 L 116.8840 173.6018 L 116.8827 173.6000 L 116.8100 173.4788 L 116.7496 173.3511 L 116.7023 173.2187 L 116.5818 173.0982 L 116.4869 172.9935 L 116.4027 172.8800 L 116.3300 172.7588 L 116.2696 172.6311 L 116.2220 172.4980 L 116.1877 172.3609 L 116.1669 172.2211 L 116.1600 172.0800 L 116.1600 170.2355 L 116.0900 170.1188 L 116.0296 169.9911 L 115.9820 169.8580 L 115.9477 169.7209 L 115.9269 169.5811 L 115.9200 169.4400 L 115.9200 169.2000 L 115.9269 169.0589 L 115.9477 168.9191 L 115.9820 168.7820 L 116.0296 168.6489 L 116.0900 168.5212 L 116.1627 168.4000 L 116.2152 168.3292 L 116.2220 168.3020 L 116.2696 168.1689 L 116.3300 168.0412 L 116.4027 167.9200 L 116.4552 167.8492 L 116.4620 167.8220 L 116.5096 167.6889 L 116.5700 167.5612 L 116.6400 167.4445 L 116.6400 164.7155 L 116.5700 164.5988 L 116.5096 164.4711 L 116.4620 164.3380 L 116.4277 164.2009 L 116.4069 164.0611 L 116.4000 163.9200 L 116.4000 162.2400 L 116.4069 162.0989 L 116.4277 161.9591 L 116.4620 161.8220 L 116.5096 161.6889 L 116.5700 161.5612 L 116.6400 161.4445 L 116.6400 160.3200 L 116.6469 160.1789 L 116.6677 160.0391 L 116.7020 159.9020 L 116.7496 159.7689 L 116.8100 159.6412 L 116.8800 159.5245 L 116.8800 152.4755 L 116.8100 152.3588 L 116.7496 152.2311 L 116.7020 152.0980 L 116.6677 151.9609 L 116.6469 151.8211 L 116.6400 151.6800 L 116.6400 151.2755 L 116.5700 151.1588 L 116.5096 151.0311 L 116.4620 150.8980 L 116.4277 150.7609 L 116.4069 150.6211 L 116.4000 150.4800 L 116.4000 147.6000 L 116.4069 147.4589 L 116.4277 147.3191 L 116.4620 147.1820 L 116.5096 147.0489 L 116.5700 146.9212 L 116.6427 146.8000 L 116.6952 146.7292 L 116.7020 146.7020 L 116.7496 146.5689 L 116.8100 146.4412 L 116.8800 146.3245 L 116.8800 146.1600 L 116.8869 146.0189 L 116.9077 145.8791 L 116.9420 145.7420 L 116.9896 145.6089 L 117.0500 145.4812 L 117.1227 145.3600 L 117.1240 145.3582 L 117.1269 145.2989 L 117.1477 145.1591 L 117.1820 145.0220 L 117.2296 144.8889 L 117.2900 144.7612 L 117.3627 144.6400 L 117.4152 144.5692 L 117.4220 144.5420 L 117.4696 144.4089 L 117.5300 144.2812 L 117.6027 144.1600 L 117.6869 144.0465 L 117.7818 143.9418 L 117.9023 143.8213 L 117.9496 143.6889 L 118.0100 143.5612 L 118.0827 143.4400 L 118.1669 143.3265 L 118.2618 143.2218 L 118.6223 142.8613 L 118.6696 142.7289 L 118.7300 142.6012 L 118.8027 142.4800 L 118.8869 142.3665 L 118.9818 142.2618 L 119.5823 141.6613 L 119.6296 141.5289 L 119.6900 141.4012 L 119.7627 141.2800 L 119.8469 141.1665 L 119.9418 141.0618 L 120.3023 140.7013 L 120.3496 140.5689 L 120.4100 140.4412 L 120.4827 140.3200 L 120.5669 140.2065 L 120.6618 140.1018 L 121.9823 138.7813 L 122.0296 138.6489 L 122.0900 138.5212 L 122.1627 138.4000 L 122.2469 138.2865 L 122.3418 138.1818 L 123.1823 137.3413 L 123.2296 137.2089 L 123.2900 137.0812 L 123.3627 136.9600 L 123.4469 136.8465 L 123.5418 136.7418 L 123.9023 136.3813 L 123.9496 136.2489 L 124.0100 136.1212 L 124.0827 136.0000 L 124.1669 135.8865 L 124.2618 135.7818 L 124.6223 135.4213 L 124.6696 135.2889 L 124.7300 135.1612 L 124.8027 135.0400 L 124.8869 134.9265 L 124.9818 134.8218 L 125.1023 134.7013 L 125.1496 134.5689 L 125.2100 134.4412 L 125.2827 134.3200 L 125.3669 134.2065 L 125.4618 134.1018 L 125.5823 133.9813 L 125.6296 133.8489 L 125.6900 133.7212 L 125.7627 133.6000 L 125.8152 133.5292 L 125.8220 133.5020 L 125.8696 133.3689 L 125.9300 133.2412 L 126.0027 133.1200 L 126.0552 133.0492 L 126.0620 133.0220 L 126.1096 132.8889 L 126.1700 132.7612 L 126.2427 132.6400 L 126.2952 132.5692 L 126.3020 132.5420 L 126.3496 132.4089 L 126.4100 132.2812 L 126.4827 132.1600 L 126.5669 132.0465 L 126.6618 131.9418 L 127.5023 131.1013 L 127.5496 130.9689 L 127.6100 130.8412 L 127.6827 130.7200 L 127.7669 130.6065 L 127.8618 130.5018 L 128.7023 129.6613 L 128.7496 129.5289 L 128.8100 129.4012 L 128.8827 129.2800 L 128.9669 129.1665 L 129.0618 129.0618 L 129.4223 128.7013 L 129.4696 128.5689 L 129.5300 128.4412 L 129.6027 128.3200 L 129.6869 128.2065 L 129.7818 128.1018 L 131.1023 126.7813 L 131.1496 126.6489 L 131.2100 126.5212 L 131.2827 126.4000 L 131.3669 126.2865 L 131.4618 126.1818 L 131.8223 125.8213 L 131.8696 125.6889 L 131.9300 125.5612 L 132.0027 125.4400 L 132.0869 125.3265 L 132.1818 125.2218 L 133.6218 123.7818 L 133.7265 123.6869 L 133.8400 123.6027 L 133.9612 123.5300 L 134.0889 123.4696 L 134.2220 123.4220 L 134.3591 123.3877 L 134.4989 123.3669 L 134.6400 123.3600 L 134.8800 123.3600 L 135.0211 123.3669 L 135.1609 123.3877 L 135.2980 123.4220 L 135.4311 123.4696 L 135.5588 123.5300 L 135.6800 123.6027 L 135.7935 123.6869 L 135.8982 123.7818 L 136.1382 124.0218 L 136.2331 124.1265 L 136.3173 124.2400 L 136.3900 124.3612 L 136.4504 124.4889 L 136.4980 124.6220 L 136.5048 124.6492 L 136.5573 124.7200 L 136.6300 124.8412 L 136.6904 124.9689 L 136.7380 125.1020 L 136.7448 125.1292 L 136.7973 125.2000 L 136.8700 125.3212 L 136.9304 125.4489 L 136.9780 125.5820 L 137.0123 125.7191 L 137.0331 125.8589 L 137.0360 125.9182 L 137.0373 125.9200 L 137.1100 126.0412 L 137.1704 126.1689 L 137.2180 126.3020 L 137.2523 126.4391 L 137.2731 126.5789 L 137.2760 126.6382 L 137.2773 126.6400 L 137.3500 126.7612 L 137.4104 126.8889 L 137.4580 127.0220 L 137.4923 127.1591 L 137.5131 127.2989 L 137.5200 127.4400 L 137.5200 127.6045 L 137.5900 127.7212 L 137.6504 127.8489 L 137.6980 127.9820 L 137.7048 128.0092 L 137.7573 128.0800 L 137.8300 128.2012 L 137.8904 128.3289 L 137.9380 128.4620 L 137.9723 128.5991 L 137.9931 128.7389 L 137.9960 128.7982 L 137.9973 128.8000 L 138.0700 128.9212 L 138.1304 129.0489 L 138.1780 129.1820 L 138.1848 129.2092 L 138.2373 129.2800 L 138.3100 129.4012 L 138.3704 129.5289 L 138.4180 129.6620 L 138.4427 129.7608 L 138.9660 129.2375 L 138.9669 129.2189 L 138.9877 129.0791 L 139.0075 129.0000 L 138.9877 128.9209 L 138.9669 128.7811 L 138.9600 128.6400 L 138.9600 128.2355 L 138.8900 128.1188 L 138.8296 127.9911 L 138.7820 127.8580 L 138.7477 127.7209 L 138.7269 127.5811 L 138.7200 127.4400 L 138.7200 127.0355 L 138.6500 126.9188 L 138.5896 126.7911 L 138.5420 126.6580 L 138.5077 126.5209 L 138.4869 126.3811 L 138.4800 126.2400 L 138.4800 126.0755 L 138.4100 125.9588 L 138.3496 125.8311 L 138.3020 125.6980 L 138.2677 125.5609 L 138.2469 125.4211 L 138.2400 125.2800 L 138.2400 125.1155 L 138.1700 124.9988 L 138.1096 124.8711 L 138.0620 124.7380 L 138.0277 124.6009 L 138.0069 124.4611 L 138.0000 124.3200 L 138.0000 124.1555 L 137.9300 124.0388 L 137.8696 123.9111 L 137.8220 123.7780 L 137.7877 123.6409 L 137.7669 123.5011 L 137.7640 123.4418 L 137.7627 123.4400 L 137.6900 123.3188 L 137.6296 123.1911 L 137.5820 123.0580 L 137.5477 122.9209 L 137.5269 122.7811 L 137.5200 122.6400 L 137.5200 122.1600 L 137.5269 122.0189 L 137.5477 121.8791 L 137.5820 121.7420 L 137.6296 121.6089 L 137.6900 121.4812 L 137.7627 121.3600 L 137.8469 121.2465 L 137.9418 121.1418 L 138.6618 120.4218 L 138.7665 120.3269 L 138.8800 120.2427 L 139.0012 120.1700 L 139.1289 120.1096 L 139.2620 120.0620 L 139.2892 120.0552 L 139.3600 120.0027 L 139.4812 119.9300 L 139.6089 119.8696 L 139.7420 119.8220 L 139.7692 119.8152 L 139.8400 119.7627 L 139.9612 119.6900 L 140.0889 119.6296 L 140.2220 119.5820 L 140.2492 119.5752 L 140.3200 119.5227 L 140.4412 119.4500 L 140.5689 119.3896 L 140.7020 119.3420 L 140.7292 119.3352 L 140.8000 119.2827 L 140.9212 119.2100 L 141.0489 119.1496 L 141.1820 119.1020 L 141.3191 119.0677 L 141.4407 119.0496 L 141.4696 118.9689 L 141.5300 118.8412 L 141.6027 118.7200 L 141.6869 118.6065 L 141.7818 118.5018 L 142.9818 117.3018 L 143.0865 117.2069 L 143.2000 117.1227 L 143.3212 117.0500 L 143.4489 116.9896 L 143.5820 116.9420 L 143.7191 116.9077 L 143.8589 116.8869 L 144.0000 116.8800 L 146.3245 116.8800 L 146.4412 116.8100 L 146.5689 116.7496 L 146.7020 116.7020 L 146.8391 116.6677 L 146.9789 116.6469 L 147.1200 116.6400 L 152.8800 116.6400 L 153.0211 116.6469 L 153.1609 116.6677 L 153.2980 116.7020 L 153.4311 116.7496 L 153.5588 116.8100 L 153.6755 116.8800 L 160.0045 116.8800 L 160.1212 116.8100 L 160.2489 116.7496 L 160.3820 116.7020 L 160.5191 116.6677 L 160.6589 116.6469 L 160.8000 116.6400 L 163.1245 116.6400 L 163.2412 116.5700 L 163.3689 116.5096 L 163.5020 116.4620 L 163.6391 116.4277 L 163.7789 116.4069 L 163.9200 116.4000 L 164.8045 116.4000 L 164.9212 116.3300 L 165.0489 116.2696 L 165.1820 116.2220 L 165.3191 116.1877 L 165.4589 116.1669 L 165.5182 116.1640 L 165.5200 116.1627 L 165.6412 116.0900 L 165.7689 116.0296 L 165.9020 115.9820 L 166.0391 115.9477 L 166.1789 115.9269 L 166.2382 115.9240 L 166.2400 115.9227 L 166.3612 115.8500 L 166.4889 115.7896 L 166.6220 115.7420 L 166.7591 115.7077 L 166.8989 115.6869 L 166.9582 115.6840 L 166.9600 115.6827 L 167.0812 115.6100 L 167.2089 115.5496 L 167.3420 115.5020 L 167.3692 115.4952 L 167.4400 115.4427 L 167.5612 115.3700 L 167.6889 115.3096 L 167.8213 115.2623 L 167.9418 115.1418 L 168.0465 115.0469 L 168.1600 114.9627 L 168.2812 114.8900 L 168.4089 114.8296 L 168.5413 114.7823 L 168.6618 114.6618 L 168.7665 114.5669 L 168.8800 114.4827 L 169.0012 114.4100 L 169.1289 114.3496 L 169.2613 114.3023 L 169.3818 114.1818 L 169.4865 114.0869 L 169.6000 114.0027 L 169.7212 113.9300 L 169.8489 113.8696 L 169.9813 113.8223 L 171.0618 112.7418 L 171.1665 112.6469 L 171.2800 112.5627 L 171.4012 112.4900 L 171.5289 112.4296 L 171.6613 112.3823 L 171.6623 112.3813 L 171.7096 112.2489 L 171.7700 112.1212 L 171.8427 112.0000 L 171.8952 111.9292 L 171.9020 111.9020 L 171.9496 111.7689 L 172.0100 111.6412 L 172.0800 111.5245 L 172.0800 111.1200 L 172.0869 110.9789 L 172.1077 110.8391 L 172.1420 110.7020 L 172.1642 110.6400 L 172.1420 110.5780 L 172.1077 110.4409 L 172.0869 110.3011 L 172.0800 110.1600 L 172.0800 109.7555 L 172.0100 109.6388 L 171.9496 109.5111 L 171.9020 109.3780 L 171.8952 109.3508 L 171.8427 109.2800 L 171.7700 109.1588 L 171.7096 109.0311 L 171.6620 108.8980 L 171.6277 108.7609 L 171.6069 108.6211 L 171.6040 108.5618 L 171.6027 108.5600 L 171.5300 108.4388 L 171.4696 108.3111 L 171.4220 108.1780 L 171.4152 108.1508 L 171.3627 108.0800 L 171.2900 107.9588 L 171.2296 107.8311 L 171.1820 107.6980 L 171.1477 107.5609 L 171.1269 107.4211 L 171.1240 107.3618 L 171.1227 107.3600 L 171.0500 107.2388 L 170.9896 107.1111 L 170.9420 106.9780 L 170.9077 106.8409 L 170.8869 106.7011 L 170.8800 106.5600 L 170.8800 106.3955 L 170.8100 106.2788 L 170.7496 106.1511 L 170.7020 106.0180 L 170.6952 105.9908 L 170.6427 105.9200 L 170.5700 105.7988 L 170.5096 105.6711 L 170.4620 105.5380 L 170.4552 105.5108 L 170.4027 105.4400 L 170.3300 105.3188 L 170.2696 105.1911 L 170.2223 105.0587 L 170.1018 104.9382 L 170.0069 104.8335 L 169.9227 104.7200 L 169.8500 104.5988 L 169.7896 104.4711 L 169.7423 104.3387 L 169.6218 104.2182 L 169.5269 104.1135 L 169.4427 104.0000 L 169.3700 103.8788 L 169.3096 103.7511 L 169.2623 103.6187 L 169.1418 103.4982 L 169.0469 103.3935 L 168.9627 103.2800 L 168.8900 103.1588 L 168.8296 103.0311 L 168.7823 102.8987 L 168.4218 102.5382 L 168.3269 102.4335 L 168.2427 102.3200 L 168.1700 102.1988 L 168.1096 102.0711 L 168.0623 101.9387 L 167.7018 101.5782 L 167.6069 101.4735 L 167.5227 101.3600 L 167.4500 101.2388 L 167.3896 101.1111 L 167.3423 100.9787 L 166.7418 100.3782 L 166.6469 100.2735 L 166.5627 100.1600 L 166.4900 100.0388 L 166.4296 99.9111 L 166.3823 99.7787 L 165.7818 99.1782 L 165.6869 99.0735 L 165.6027 98.9600 L 165.5300 98.8388 L 165.4696 98.7111 L 165.4223 98.5787 L 164.8218 97.9782 L 164.7269 97.8735 L 164.6427 97.7600 L 164.5700 97.6388 L 164.5096 97.5111 L 164.4623 97.3787 L 164.3418 97.2582 L 164.2469 97.1535 L 164.1627 97.0400 L 164.0900 96.9188 L 164.0296 96.7911 L 163.9820 96.6580 L 163.9752 96.6308 L 163.9227 96.5600 L 163.8500 96.4388 L 163.7896 96.3111 L 163.7420 96.1780 L 163.7352 96.1508 L 163.6827 96.0800 L 163.6100 95.9588 L 163.5496 95.8311 L 163.5020 95.6980 L 163.4952 95.6708 L 163.4427 95.6000 L 163.3700 95.4788 L 163.3096 95.3511 L 163.2620 95.2180 L 163.2552 95.1908 L 163.2027 95.1200 L 163.1300 94.9988 L 163.0696 94.8711 L 163.0220 94.7380 L 163.0152 94.7108 L 162.9627 94.6400 L 162.8900 94.5188 L 162.8296 94.3911 L 162.7820 94.2580 L 162.7752 94.2308 L 162.7227 94.1600 L 162.6500 94.0388 L 162.5896 93.9111 L 162.5423 93.7787 L 162.4218 93.6582 L 162.3269 93.5535 L 162.2427 93.4400 L 162.1700 93.3188 L 162.1096 93.1911 L 162.0623 93.0587 L 161.9418 92.9382 L 161.8469 92.8335 L 161.7627 92.7200 L 161.6900 92.5988 L 161.6296 92.4711 L 161.5823 92.3387 L 161.4618 92.2182 L 161.3669 92.1135 L 161.2827 92.0000 L 161.2100 91.8788 L 161.1496 91.7511 L 161.1023 91.6187 L 160.9818 91.4982 L 160.8869 91.3935 L 160.8027 91.2800 L 160.7300 91.1588 L 160.6696 91.0311 L 160.6223 90.8987 L 160.2618 90.5382 L 160.1669 90.4335 L 160.0827 90.3200 L 160.0100 90.1988 L 159.9496 90.0711 L 159.9023 89.9387 L 159.0618 89.0982 L 158.9669 88.9935 L 158.8827 88.8800 L 158.8100 88.7588 L 158.7496 88.6311 L 158.7023 88.4987 L 156.0613 85.8577 L 155.9289 85.8104 L 155.8012 85.7500 L 155.6800 85.6773 L 155.5665 85.5931 L 155.4618 85.4982 L 154.8613 84.8977 L 154.7289 84.8504 L 154.6012 84.7900 L 154.4800 84.7173 L 154.3665 84.6331 L 154.2618 84.5382 L 154.1413 84.4177 L 154.0089 84.3704 L 153.8812 84.3100 L 153.7600 84.2373 L 153.6465 84.1531 L 153.5418 84.0582 L 153.4213 83.9377 L 153.2889 83.8904 L 153.1612 83.8300 L 153.0400 83.7573 L 152.9265 83.6731 L 152.8218 83.5782 L 152.7013 83.4577 L 152.5689 83.4104 L 152.4412 83.3500 L 152.3200 83.2773 L 152.2492 83.2248 L 152.2220 83.2180 L 152.0889 83.1704 L 151.9612 83.1100 L 151.8400 83.0373 L 151.7692 82.9848 L 151.7420 82.9780 L 151.6089 82.9304 L 151.4812 82.8700 L 151.3600 82.7973 L 151.2892 82.7448 L 151.2620 82.7380 L 151.1289 82.6904 L 151.0012 82.6300 L 150.8800 82.5573 L 150.8092 82.5048 L 150.7820 82.4980 L 150.6489 82.4504 L 150.5212 82.3900 L 150.4000 82.3173 L 150.3292 82.2648 L 150.3020 82.2580 L 150.1689 82.2104 L 150.0412 82.1500 L 149.9200 82.0773 L 149.9182 82.0760 L 149.8589 82.0731 L 149.7191 82.0523 L 149.5820 82.0180 L 149.4489 81.9704 L 149.3212 81.9100 L 149.2000 81.8373 L 149.0865 81.7531 L 148.9818 81.6582 L 148.9175 81.5940 L 148.8989 81.5931 L 148.7591 81.5723 L 148.6220 81.5380 L 148.4889 81.4904 L 148.3612 81.4300 L 148.2400 81.3573 L 148.2382 81.3560 L 148.1789 81.3531 L 148.0391 81.3323 L 147.9020 81.2980 L 147.7689 81.2504 L 147.6412 81.1900 L 147.5200 81.1173 L 147.4065 81.0331 L 147.3018 80.9382 L 146.8218 80.4582 L 146.7269 80.3535 L 146.6427 80.2400 L 146.5700 80.1188 L 146.5096 79.9911 L 146.4620 79.8580 L 146.4277 79.7209 L 146.4069 79.5811 L 146.4000 79.4400 L 146.4000 79.2000 L 146.4069 79.0589 L 146.4277 78.9191 L 146.4620 78.7820 L 146.5096 78.6489 L 146.5700 78.5212 L 146.6427 78.4000 L 146.7269 78.2865 L 146.8218 78.1818 L 147.0618 77.9418 L 147.1665 77.8469 L 147.2800 77.7627 L 147.4012 77.6900 L 147.5289 77.6296 L 147.6620 77.5820 L 147.6892 77.5752 L 147.7600 77.5227 L 147.8812 77.4500 L 148.0089 77.3896 L 148.1420 77.3420 L 148.1692 77.3352 L 148.2400 77.2827 L 148.3612 77.2100 L 148.4889 77.1496 L 148.6006 77.1096 L 148.4800 77.0373 L 148.4782 77.0360 L 148.4189 77.0331 L 148.2791 77.0123 L 148.1420 76.9780 L 148.0089 76.9304 L 147.8812 76.8700 L 147.7645 76.8000 L 147.6755 76.8000 L 147.5588 76.8700 L 147.4311 76.9304 L 147.2980 76.9780 L 147.1609 77.0123 L 147.0211 77.0331 L 146.8800 77.0400 L 142.8000 77.0400 L 142.6589 77.0331 L 142.5191 77.0123 L 142.3820 76.9780 L 142.2489 76.9304 L 142.1212 76.8700 L 142.0000 76.7973 L 141.9292 76.7448 L 141.9020 76.7380 L 141.7689 76.6904 L 141.6412 76.6300 L 141.5200 76.5573 L 141.4065 76.4731 L 141.3018 76.3782 L 141.0618 76.1382 L 140.9669 76.0335 L 140.8827 75.9200 L 140.8100 75.7988 L 140.7496 75.6711 L 140.7020 75.5380 L 140.6677 75.4009 L 140.6469 75.2611 L 140.6400 75.1200 L 140.6400 73.2000 L 140.6469 73.0589 L 140.6677 72.9191 L 140.7020 72.7820 L 140.7496 72.6489 L 140.8100 72.5212 L 140.8827 72.4000 L 140.8840 72.3982 L 140.8869 72.3389 L 140.9077 72.1991 L 140.9420 72.0620 L 140.9896 71.9289 L 141.0500 71.8012 L 141.0747 71.7600 L 141.0500 71.7188 L 140.9896 71.5911 L 140.9420 71.4580 L 140.9138 71.3456 L 140.8800 71.3253 L 140.8388 71.3500 L 140.7111 71.4104 L 140.5780 71.4580 L 140.5508 71.4648 L 140.4800 71.5173 L 140.3588 71.5900 L 140.2713 71.6313 L 140.2300 71.7188 L 140.1573 71.8400 L 140.1048 71.9108 L 140.0980 71.9380 L 140.0504 72.0711 L 139.9900 72.1988 L 139.9173 72.3200 L 139.8648 72.3908 L 139.8580 72.4180 L 139.8104 72.5511 L 139.7500 72.6788 L 139.6773 72.8000 L 139.5931 72.9135 L 139.4982 73.0182 L 139.3777 73.1387 L 139.3304 73.2711 L 139.2700 73.3988 L 139.1973 73.5200 L 139.1131 73.6335 L 139.0182 73.7382 L 138.9540 73.8025 L 138.9531 73.8211 L 138.9323 73.9609 L 138.8980 74.0980 L 138.8504 74.2311 L 138.7900 74.3588 L 138.7173 74.4800 L 138.7160 74.4818 L 138.7131 74.5411 L 138.6923 74.6809 L 138.6580 74.8180 L 138.6104 74.9511 L 138.5500 75.0788 L 138.4773 75.2000 L 138.4248 75.2708 L 138.4180 75.2980 L 138.3704 75.4311 L 138.3100 75.5588 L 138.2373 75.6800 L 138.1531 75.7935 L 138.0582 75.8982 L 137.8182 76.1382 L 137.7135 76.2331 L 137.6000 76.3173 L 137.4788 76.3900 L 137.3511 76.4504 L 137.2180 76.4980 L 137.0809 76.5323 L 136.9411 76.5531 L 136.8000 76.5600 L 136.0800 76.5600 L 135.9389 76.5531 L 135.7991 76.5323 L 135.6620 76.4980 L 135.5289 76.4504 L 135.4012 76.3900 L 135.2800 76.3173 L 135.1665 76.2331 L 135.0618 76.1382 L 134.3418 75.4182 L 134.2469 75.3135 L 134.1627 75.2000 L 134.0900 75.0788 L 134.0296 74.9511 L 133.9820 74.8180 L 133.9477 74.6809 L 133.9269 74.5411 L 133.9200 74.4000 L 133.9200 73.7555 L 133.8500 73.6388 L 133.7896 73.5111 L 133.7420 73.3780 L 133.7077 73.2409 L 133.6869 73.1011 L 133.6800 72.9600 L 133.6800 72.3155 L 133.6100 72.1988 L 133.5496 72.0711 L 133.5020 71.9380 L 133.4677 71.8009 L 133.4469 71.6611 L 133.4400 71.5200 L 133.4400 70.6355 L 133.3700 70.5188 L 133.3096 70.3911 L 133.2620 70.2580 L 133.2277 70.1209 L 133.2069 69.9811 L 133.2040 69.9218 L 133.2027 69.9200 L 133.1300 69.7988 L 133.0696 69.6711 L 133.0442 69.6000 L 133.0355 69.6000 L 132.9188 69.6700 L 132.7911 69.7304 L 132.6587 69.7777 L 132.6577 69.7787 L 132.6104 69.9111 L 132.5500 70.0388 L 132.4773 70.1600 L 132.4760 70.1618 L 132.4731 70.2211 L 132.4523 70.3609 L 132.4180 70.4980 L 132.3704 70.6311 L 132.3100 70.7588 L 132.2400 70.8755 L 132.2400 73.6045 L 132.3100 73.7212 L 132.3704 73.8489 L 132.4180 73.9820 L 132.4523 74.1191 L 132.4731 74.2589 L 132.4800 74.4000 L 132.4800 74.5645 L 132.5500 74.6812 L 132.6104 74.8089 L 132.6580 74.9420 L 132.6923 75.0791 L 132.7131 75.2189 L 132.7200 75.3600 L 132.7200 76.5600 L 132.7131 76.7011 L 132.6923 76.8409 L 132.6580 76.9780 L 132.6104 77.1111 L 132.5500 77.2388 L 132.4773 77.3600 L 132.3931 77.4735 L 132.2982 77.5782 L 131.8182 78.0582 L 131.7135 78.1531 L 131.6000 78.2373 L 131.4788 78.3100 L 131.3511 78.3704 L 131.2180 78.4180 L 131.0809 78.4523 L 130.9411 78.4731 L 130.8000 78.4800 L 130.3200 78.4800 L 130.1789 78.4731 L 130.0391 78.4523 L 129.9020 78.4180 L 129.7689 78.3704 L 129.6412 78.3100 L 129.5200 78.2373 L 129.4065 78.1531 L 129.3018 78.0582 L 129.0618 77.8182 L 128.9669 77.7135 L 128.8827 77.6000 L 128.8100 77.4788 L 128.7496 77.3511 L 128.7023 77.2187 L 128.5818 77.0982 L 128.4869 76.9935 L 128.4027 76.8800 L 128.3300 76.7588 L 128.2696 76.6311 L 128.2223 76.4987 L 128.1018 76.3782 L 128.0069 76.2735 L 127.9227 76.1600 L 127.8500 76.0388 L 127.7896 75.9111 L 127.7423 75.7787 L 127.3818 75.4182 L 127.2869 75.3135 L 127.2027 75.2000 L 127.1300 75.0788 L 127.0696 74.9511 L 127.0223 74.8187 L 126.9018 74.6982 L 126.8069 74.5935 L 126.7227 74.4800 L 126.6500 74.3588 L 126.5896 74.2311 L 126.5423 74.0987 L 126.4218 73.9782 L 126.3269 73.8735 L 126.2427 73.7600 L 126.1700 73.6388 L 126.1096 73.5111 L 126.0623 73.3787 L 125.9418 73.2582 L 125.8469 73.1535 L 125.7627 73.0400 L 125.6900 72.9188 L 125.6296 72.7911 L 125.5823 72.6587 L 125.4618 72.5382 L 125.3669 72.4335 L 125.2827 72.3200 L 125.2100 72.1988 L 125.1496 72.0711 L 125.1020 71.9380 L 125.0952 71.9108 L 125.0427 71.8400 L 124.9700 71.7188 L 124.9096 71.5911 L 124.8623 71.4587 L 124.2618 70.8582 L 124.1669 70.7535 L 124.0827 70.6400 L 124.0517 70.5883 L 124.0000 70.5573 L 123.8865 70.4731 L 123.7818 70.3782 L 123.7235 70.3200 L 123.4765 70.3200 L 123.4182 70.3782 L 123.3135 70.4731 L 123.2000 70.5573 L 123.1483 70.5883 L 123.1173 70.6400 L 123.0331 70.7535 L 122.9382 70.8582 L 122.8740 70.9225 L 122.8731 70.9411 L 122.8523 71.0809 L 122.8180 71.2180 L 122.7958 71.2800 L 122.8180 71.3420 L 122.8523 71.4791 L 122.8731 71.6189 L 122.8740 71.6375 L 123.1782 71.9418 L 123.2731 72.0465 L 123.3573 72.1600 L 123.4300 72.2812 L 123.4904 72.4089 L 123.5377 72.5413 L 123.6582 72.6618 L 123.7531 72.7665 L 123.8373 72.8800 L 123.9100 73.0012 L 123.9704 73.1289 L 124.0180 73.2620 L 124.0248 73.2892 L 124.0773 73.3600 L 124.1500 73.4812 L 124.2104 73.6089 L 124.2577 73.7413 L 124.3782 73.8618 L 124.4731 73.9665 L 124.5573 74.0800 L 124.6300 74.2012 L 124.6904 74.3289 L 124.7377 74.4613 L 126.2982 76.0218 L 126.3931 76.1265 L 126.4773 76.2400 L 126.5500 76.3612 L 126.6104 76.4889 L 126.6580 76.6220 L 126.6923 76.7591 L 126.7131 76.8989 L 126.7200 77.0400 L 126.7200 77.8835 L 127.0182 78.1818 L 127.1131 78.2865 L 127.1973 78.4000 L 127.2700 78.5212 L 127.3304 78.6489 L 127.3777 78.7813 L 127.4982 78.9018 L 127.5931 79.0065 L 127.6773 79.1200 L 127.7500 79.2412 L 127.8104 79.3689 L 127.8580 79.5020 L 127.8923 79.6391 L 127.9131 79.7789 L 127.9200 79.9200 L 127.9200 80.4000 L 127.9131 80.5411 L 127.8923 80.6809 L 127.8580 80.8180 L 127.8104 80.9511 L 127.7500 81.0788 L 127.6773 81.2000 L 127.5931 81.3135 L 127.4982 81.4182 L 126.8977 82.0187 L 126.8504 82.1511 L 126.7900 82.2788 L 126.7173 82.4000 L 126.6331 82.5135 L 126.5382 82.6182 L 125.9377 83.2187 L 125.8904 83.3511 L 125.8300 83.4788 L 125.7600 83.5955 L 125.7600 86.4000 L 125.7531 86.5411 L 125.7323 86.6809 L 125.6980 86.8180 L 125.6504 86.9511 L 125.5900 87.0788 L 125.5173 87.2000 L 125.4331 87.3135 L 125.3382 87.4182 L 125.0982 87.6582 L 124.9935 87.7531 L 124.8800 87.8373 L 124.7588 87.9100 L 124.6311 87.9704 L 124.4980 88.0180 L 124.3609 88.0523 L 124.2211 88.0731 L 124.0800 88.0800 L 123.6000 88.0800 L 123.4589 88.0731 L 123.3191 88.0523 L 123.1820 88.0180 L 123.0489 87.9704 L 122.9212 87.9100 L 122.8000 87.8373 L 122.6865 87.7531 L 122.5818 87.6582 L 120.1818 85.2582 L 120.0869 85.1535 L 120.0027 85.0400 L 119.9300 84.9188 L 119.8696 84.7911 L 119.8220 84.6580 L 119.8152 84.6308 L 119.7627 84.5600 L 119.6900 84.4388 L 119.6296 84.3111 L 119.5820 84.1780 L 119.5752 84.1508 L 119.5227 84.0800 L 119.4500 83.9588 L 119.3896 83.8311 L 119.3420 83.6980 L 119.3352 83.6708 L 119.2827 83.6000 L 119.2100 83.4788 L 119.1496 83.3511 L 119.1023 83.2187 L 118.4375 82.5540 L 118.4189 82.5531 L 118.2791 82.5323 L 118.1420 82.4980 L 118.0089 82.4504 L 117.8812 82.3900 L 117.7600 82.3173 L 117.7582 82.3160 L 117.6989 82.3131 L 117.5591 82.2923 L 117.4220 82.2580 L 117.2889 82.2104 L 117.1612 82.1500 L 117.0445 82.0800 L 116.4000 82.0800 L 116.2589 82.0731 L 116.1191 82.0523 L 115.9820 82.0180 L 115.8489 81.9704 L 115.7212 81.9100 L 115.6045 81.8400 L 113.0400 81.8400 L 112.8989 81.8331 L 112.7591 81.8123 L 112.6220 81.7780 L 112.4889 81.7304 L 112.3612 81.6700 L 112.2445 81.6000 L 110.6400 81.6000 L 110.4989 81.5931 L 110.3591 81.5723 L 110.2220 81.5380 L 110.0889 81.4904 L 109.9612 81.4300 L 109.8445 81.3600 L 108.0755 81.3600 L 107.9588 81.4300 L 107.8311 81.4904 L 107.6980 81.5380 L 107.5609 81.5723 L 107.4211 81.5931 L 107.2800 81.6000 L 107.1155 81.6000 L 106.9988 81.6700 L 106.8711 81.7304 L 106.7380 81.7780 L 106.6009 81.8123 L 106.4611 81.8331 L 106.3200 81.8400 L 106.1555 81.8400 L 106.0388 81.9100 L 105.9111 81.9704 L 105.7780 82.0180 L 105.6409 82.0523 L 105.5011 82.0731 L 105.3600 82.0800 L 105.1955 82.0800 L 105.0788 82.1500 L 104.9511 82.2104 L 104.8180 82.2580 L 104.6809 82.2923 L 104.5411 82.3131 L 104.4000 82.3200 L 104.2355 82.3200 L 104.1188 82.3900 L 103.9911 82.4504 L 103.8580 82.4980 L 103.7209 82.5323 L 103.5811 82.5531 L 103.4400 82.5600 L 103.2755 82.5600 L 103.1588 82.6300 L 103.0311 82.6904 L 102.8980 82.7380 L 102.7609 82.7723 L 102.6211 82.7931 L 102.4800 82.8000 L 101.5200 82.8000 L 101.3789 82.7931 L 101.2391 82.7723 L 101.1020 82.7380 L 100.9689 82.6904 L 100.8412 82.6300 L 100.7200 82.5573 L 100.6065 82.4731 L 100.5018 82.3782 L 100.2618 82.1382 L 100.1669 82.0335 L 100.0827 81.9200 L 100.0100 81.7988 L 99.9496 81.6711 L 99.9020 81.5380 L 99.8677 81.4009 L 99.8469 81.2611 L 99.8400 81.1200 L 99.8400 79.6800 L 99.8469 79.5389 L 99.8677 79.3991 L 99.9020 79.2620 L 99.9496 79.1289 L 100.0100 79.0012 L 100.0800 78.8845 L 100.0800 77.7600 L 100.0869 77.6189 L 100.1077 77.4791 L 100.1420 77.3420 L 100.1896 77.2089 L 100.2500 77.0812 L 100.3200 76.9645 L 100.3200 76.3200 L 100.3269 76.1789 L 100.3477 76.0391 L 100.3820 75.9020 L 100.4296 75.7689 L 100.4900 75.6412 L 100.5627 75.5200 L 100.6469 75.4065 L 100.7418 75.3018 L 101.5200 74.5235 L 101.5200 74.1600 L 101.5269 74.0189 L 101.5477 73.8791 L 101.5820 73.7420 L 101.6296 73.6089 L 101.6900 73.4812 L 101.7600 73.3645 L 101.7600 72.5555 L 101.6900 72.4388 L 101.6296 72.3111 L 101.5820 72.1780 L 101.5538 72.0656 L 101.4400 71.9973 L 101.3265 71.9131 L 101.2218 71.8182 L 100.7418 71.3382 L 100.6469 71.2335 L 100.5627 71.1200 L 100.4900 70.9988 L 100.4296 70.8711 L 100.3820 70.7380 L 100.3477 70.6009 L 100.3269 70.4611 L 100.3200 70.3200 L 100.3200 69.1200 L 100.3269 68.9789 L 100.3477 68.8391 L 100.3820 68.7020 L 100.4296 68.5689 L 100.4900 68.4412 L 100.5600 68.3245 L 100.5600 67.4400 L 100.5669 67.2989 L 100.5877 67.1591 L 100.6220 67.0220 L 100.6696 66.8889 L 100.7300 66.7612 L 100.8000 66.6445 L 100.8000 66.0000 L 100.8069 65.8589 L 100.8277 65.7191 L 100.8620 65.5820 L 100.9096 65.4489 L 100.9700 65.3212 L 101.0400 65.2045 L 101.0400 64.3200 L 101.0469 64.1789 L 101.0677 64.0391 L 101.1020 63.9020 L 101.1496 63.7689 L 101.2100 63.6412 L 101.2800 63.5245 L 101.2800 62.8800 L 101.2869 62.7389 L 101.3077 62.5991 L 101.3420 62.4620 L 101.3896 62.3289 L 101.4500 62.2012 L 101.5227 62.0800 L 101.5240 62.0782 L 101.5269 62.0189 L 101.5477 61.8791 L 101.5820 61.7420 L 101.6296 61.6089 L 101.6900 61.4812 L 101.7627 61.3600 L 101.8469 61.2465 L 101.9418 61.1418 L 102.2601 60.8235 L 102.2427 60.8000 L 102.1700 60.6788 L 102.1096 60.5511 L 102.0620 60.4180 L 102.0277 60.2809 L 102.0069 60.1411 L 102.0000 60.0000 L 102.0000 58.9110 L 101.9418 58.8582 L 101.4618 58.3782 L 101.3669 58.2735 L 101.2827 58.1600 L 101.2100 58.0388 L 101.1496 57.9111 L 101.1020 57.7780 L 101.0677 57.6409 L 101.0469 57.5011 L 101.0440 57.4418 L 101.0427 57.4400 L 100.9700 57.3188 L 100.9096 57.1911 L 100.8623 57.0587 L 100.7418 56.9382 L 100.6469 56.8335 L 100.5627 56.7200 L 100.4900 56.5988 L 100.4296 56.4711 L 100.3823 56.3387 L 100.2618 56.2182 L 100.1669 56.1135 L 100.0827 56.0000 L 100.0100 55.8788 L 99.9496 55.7511 L 99.9020 55.6180 L 99.8979 55.6016 L 99.8865 55.5931 L 99.7818 55.4982 L 99.0618 54.7782 L 98.9669 54.6735 L 98.8827 54.5600 L 98.8100 54.4388 L 98.7496 54.3111 L 98.7020 54.1780 L 98.6677 54.0409 L 98.6469 53.9011 L 98.6400 53.7600 L 98.6400 53.5955 L 98.5700 53.4788 L 98.5096 53.3511 L 98.4620 53.2180 L 98.4552 53.1908 L 98.4027 53.1200 L 98.3300 52.9988 L 98.2696 52.8711 L 98.2220 52.7380 L 98.1877 52.6009 L 98.1669 52.4611 L 98.1640 52.4018 L 98.1627 52.4000 L 98.0900 52.2788 L 98.0296 52.1511 L 97.9820 52.0180 L 97.9752 51.9908 L 97.9227 51.9200 L 97.8500 51.7988 L 97.7896 51.6711 L 97.7420 51.5380 L 97.7352 51.5108 L 97.6827 51.4400 L 97.6100 51.3188 L 97.5496 51.1911 L 97.5023 51.0587 L 97.3818 50.9382 L 97.2869 50.8335 L 97.2027 50.7200 L 97.1300 50.5988 L 97.0696 50.4711 L 97.0220 50.3380 L 97.0152 50.3108 L 96.9627 50.2400 L 96.8900 50.1188 L 96.8296 49.9911 L 96.7820 49.8580 L 96.7477 49.7209 L 96.7269 49.5811 L 96.7240 49.5218 L 96.7227 49.5200 L 96.6500 49.3988 L 96.5896 49.2711 L 96.5420 49.1380 L 96.5352 49.1108 L 96.4827 49.0400 L 96.4100 48.9188 L 96.3496 48.7911 L 96.3020 48.6580 L 96.2952 48.6308 L 96.2427 48.5600 L 96.1700 48.4388 L 96.1096 48.3111 L 96.0620 48.1780 L 96.0277 48.0409 L 96.0069 47.9011 L 96.0040 47.8418 L 96.0027 47.8400 L 95.9300 47.7188 L 95.8696 47.5911 L 95.8220 47.4580 L 95.8152 47.4308 L 95.7627 47.3600 L 95.6900 47.2388 L 95.6296 47.1111 L 95.5820 46.9780 L 95.5752 46.9508 L 95.5227 46.8800 L 95.4500 46.7588 L 95.3896 46.6311 L 95.3423 46.4987 L 95.2218 46.3782 L 95.1269 46.2735 L 95.0427 46.1600 L 94.9700 46.0388 L 94.9096 45.9111 L 94.8623 45.7787 L 94.7418 45.6582 L 94.6469 45.5535 L 94.5627 45.4400 L 94.4900 45.3188 L 94.4296 45.1911 L 94.3823 45.0587 L 94.0218 44.6982 L 93.9269 44.5935 L 93.8427 44.4800 L 93.7700 44.3588 L 93.7096 44.2311 L 93.6623 44.0987 L 91.5013 41.9377 L 91.3689 41.8904 L 91.2412 41.8300 L 91.1200 41.7573 L 91.0065 41.6731 L 90.9018 41.5782 L 89.8213 40.4977 L 89.6889 40.4504 L 89.5612 40.3900 L 89.4400 40.3173 L 89.3692 40.2648 L 89.3420 40.2580 L 89.2089 40.2104 L 89.0812 40.1500 L 88.9600 40.0773 L 88.8465 39.9931 L 88.7418 39.8982 L 88.6213 39.7777 L 88.4889 39.7304 L 88.3612 39.6700 L 88.2400 39.5973 L 88.1692 39.5448 L 88.1420 39.5380 L 88.0089 39.4904 L 87.8812 39.4300 L 87.7600 39.3573 L 87.6465 39.2731 L 87.5418 39.1782 L 87.4213 39.0577 L 87.2889 39.0104 L 87.1612 38.9500 L 87.0400 38.8773 L 86.9265 38.7931 L 86.8218 38.6982 L 86.2213 38.0977 L 86.0889 38.0504 L 85.9612 37.9900 L 85.8400 37.9173 L 85.7265 37.8331 L 85.6218 37.7382 L 85.5013 37.6177 L 85.3689 37.5704 L 85.2412 37.5100 L 85.1200 37.4373 L 85.0065 37.3531 L 84.9018 37.2582 L 84.7813 37.1377 L 84.6489 37.0904 L 84.5212 37.0300 L 84.4000 36.9573 L 84.3292 36.9048 L 84.3020 36.8980 L 84.1689 36.8504 L 84.0412 36.7900 L 83.9200 36.7173 L 83.9182 36.7160 L 83.8589 36.7131 L 83.7191 36.6923 L 83.5820 36.6580 L 83.4489 36.6104 L 83.3212 36.5500 L 83.2000 36.4773 L 83.1982 36.4760 L 83.1389 36.4731 L 82.9991 36.4523 L 82.8620 36.4180 L 82.7289 36.3704 L 82.6012 36.3100 L 82.4800 36.2373 L 82.4782 36.2360 L 82.4189 36.2331 L 82.2791 36.2123 L 82.1420 36.1780 L 82.0089 36.1304 L 81.8812 36.0700 L 81.7645 36.0000 L 81.1200 36.0000 L 80.9789 35.9931 L 80.8391 35.9723 L 80.7020 35.9380 L 80.5689 35.8904 L 80.4412 35.8300 L 80.3245 35.7600 L 79.6800 35.7600 L 79.5389 35.7531 L 79.3991 35.7323 L 79.2620 35.6980 L 79.1289 35.6504 L 79.0012 35.5900 L 78.8845 35.5200 L 75.6755 35.5200 L 75.5588 35.5900 L 75.4311 35.6504 L 75.2980 35.6980 L 75.1609 35.7323 L 75.0211 35.7531 L 74.8800 35.7600 L 73.5155 35.7600 L 73.3988 35.8300 L 73.2711 35.8904 L 73.1380 35.9380 L 73.0009 35.9723 L 72.8611 35.9931 L 72.7200 36.0000 L 72.0755 36.0000 L 71.9588 36.0700 L 71.8311 36.1304 L 71.6980 36.1780 L 71.5609 36.2123 L 71.4211 36.2331 L 71.2800 36.2400 L 70.8755 36.2400 L 70.7588 36.3100 L 70.6311 36.3704 L 70.4980 36.4180 L 70.3609 36.4523 L 70.2211 36.4731 L 70.1618 36.4760 L 70.1600 36.4773 L 70.0388 36.5500 L 69.9111 36.6104 L 69.7780 36.6580 L 69.6409 36.6923 L 69.5011 36.7131 L 69.3600 36.7200 L 69.1955 36.7200 L 69.0788 36.7900 L 68.9511 36.8504 L 68.8180 36.8980 L 68.6809 36.9323 L 68.5411 36.9531 L 68.4818 36.9560 L 68.4800 36.9573 L 68.3588 37.0300 L 68.2311 37.0904 L 68.0980 37.1380 L 67.9609 37.1723 L 67.8211 37.1931 L 67.7618 37.1960 L 67.7600 37.1973 L 67.6388 37.2700 L 67.5111 37.3304 L 67.3780 37.3780 L 67.3508 37.3848 L 67.2800 37.4373 L 67.1588 37.5100 L 67.0311 37.5704 L 66.8980 37.6180 L 66.7609 37.6523 L 66.6211 37.6731 L 66.5618 37.6760 L 66.5600 37.6773 L 66.4388 37.7500 L 66.3111 37.8104 L 66.1780 37.8580 L 66.1508 37.8648 L 66.0800 37.9173 L 65.9588 37.9900 L 65.8311 38.0504 L 65.6980 38.0980 L 65.6708 38.1048 L 65.6000 38.1573 L 65.4788 38.2300 L 65.3511 38.2904 L 65.2180 38.3380 L 65.1908 38.3448 L 65.1200 38.3973 L 64.9988 38.4700 L 64.8711 38.5304 L 64.7387 38.5777 L 64.6182 38.6982 L 64.5135 38.7931 L 64.4000 38.8773 L 64.2788 38.9500 L 64.1511 39.0104 L 64.0187 39.0577 L 63.8982 39.1782 L 63.7935 39.2731 L 63.6800 39.3573 L 63.5588 39.4300 L 63.4311 39.4904 L 63.2987 39.5377 L 63.1782 39.6582 L 63.0735 39.7531 L 62.9600 39.8373 L 62.8388 39.9100 L 62.7111 39.9704 L 62.5787 40.0177 L 60.6577 41.9387 L 60.6104 42.0711 L 60.5500 42.1988 L 60.4773 42.3200 L 60.3931 42.4335 L 60.2982 42.5382 L 59.9377 42.8987 L 59.8904 43.0311 L 59.8300 43.1588 L 59.7573 43.2800 L 59.6731 43.3935 L 59.5782 43.4982 L 59.4577 43.6187 L 59.4104 43.7511 L 59.3500 43.8788 L 59.2773 44.0000 L 59.1931 44.1135 L 59.0982 44.2182 L 58.9777 44.3387 L 58.9304 44.4711 L 58.8700 44.5988 L 58.7973 44.7200 L 58.7448 44.7908 L 58.7380 44.8180 L 58.6904 44.9511 L 58.6300 45.0788 L 58.5573 45.2000 L 58.5048 45.2708 L 58.4980 45.2980 L 58.4504 45.4311 L 58.3900 45.5588 L 58.3173 45.6800 L 58.2648 45.7508 L 58.2580 45.7780 L 58.2104 45.9111 L 58.1500 46.0388 L 58.0773 46.1600 L 57.9931 46.2735 L 57.8982 46.3782 L 57.7777 46.4987 L 57.7304 46.6311 L 57.6700 46.7588 L 57.5973 46.8800 L 57.5131 46.9935 L 57.4182 47.0982 L 56.8177 47.6987 L 56.7704 47.8311 L 56.7100 47.9588 L 56.6373 48.0800 L 56.5848 48.1508 L 56.5780 48.1780 L 56.5304 48.3111 L 56.4700 48.4388 L 56.3973 48.5600 L 56.3448 48.6308 L 56.3380 48.6580 L 56.2904 48.7911 L 56.2300 48.9188 L 56.1573 49.0400 L 56.1560 49.0418 L 56.1531 49.1011 L 56.1323 49.2409 L 56.0980 49.3780 L 56.0504 49.5111 L 55.9900 49.6388 L 55.9173 49.7600 L 55.9160 49.7618 L 55.9131 49.8211 L 55.8923 49.9609 L 55.8580 50.0980 L 55.8104 50.2311 L 55.7500 50.3588 L 55.6773 50.4800 L 55.6760 50.4818 L 55.6731 50.5411 L 55.6523 50.6809 L 55.6180 50.8180 L 55.5704 50.9511 L 55.5100 51.0788 L 55.4373 51.2000 L 55.4360 51.2018 L 55.4331 51.2611 L 55.4123 51.4009 L 55.3780 51.5380 L 55.3304 51.6711 L 55.2700 51.7988 L 55.1973 51.9200 L 55.1960 51.9218 L 55.1931 51.9811 L 55.1723 52.1209 L 55.1380 52.2580 L 55.0904 52.3911 L 55.0300 52.5188 L 54.9600 52.6355 L 54.9600 53.0400 L 54.9531 53.1811 L 54.9323 53.3209 L 54.8980 53.4580 L 54.8504 53.5911 L 54.7900 53.7188 L 54.7200 53.8355 L 54.7200 56.1600 L 54.7131 56.3011 L 54.6984 56.4000 L 54.7131 56.4989 L 54.7200 56.6400 L 54.7200 58.7245 L 54.7900 58.8412 L 54.8504 58.9689 L 54.8980 59.1020 L 54.9323 59.2391 L 54.9531 59.3789 L 54.9600 59.5200 L 54.9600 61.1245 L 55.0300 61.2412 L 55.0904 61.3689 L 55.1380 61.5020 L 55.1723 61.6391 L 55.1931 61.7789 L 55.2000 61.9200 L 55.2000 63.0445 L 55.2700 63.1612 L 55.3304 63.2889 L 55.3780 63.4220 L 55.4123 63.5591 L 55.4331 63.6989 L 55.4400 63.8400 L 55.4400 64.2445 L 55.5100 64.3612 L 55.5704 64.4889 L 55.6180 64.6220 L 55.6523 64.7591 L 55.6731 64.8989 L 55.6800 65.0400 L 55.6800 65.4445 L 55.7500 65.5612 L 55.8104 65.6889 L 55.8580 65.8220 L 55.8923 65.9591 L 55.9131 66.0989 L 55.9200 66.2400 L 55.9200 66.6445 L 55.9900 66.7612 L 56.0504 66.8889 L 56.0980 67.0220 L 56.1323 67.1591 L 56.1531 67.2989 L 56.1600 67.4400 L 56.1600 67.6045 L 56.2300 67.7212 L 56.2904 67.8489 L 56.3380 67.9820 L 56.3723 68.1191 L 56.3931 68.2589 L 56.4000 68.4000 L 56.4000 68.5645 L 56.4700 68.6812 L 56.5304 68.8089 L 56.5780 68.9420 L 56.6123 69.0791 L 56.6331 69.2189 L 56.6400 69.3600 L 56.6400 70.5600 L 56.6331 70.7011 L 56.6123 70.8409 L 56.5780 70.9780 L 56.5304 71.1111 L 56.4700 71.2388 L 56.3973 71.3600 L 56.3960 71.3618 L 56.3931 71.4211 L 56.3723 71.5609 L 56.3380 71.6980 L 56.2904 71.8311 L 56.2300 71.9588 L 56.1600 72.0755 L 56.1600 72.1645 L 56.2300 72.2812 L 56.2904 72.4089 L 56.3380 72.5420 L 56.3723 72.6791 L 56.3931 72.8189 L 56.3960 72.8782 L 56.3973 72.8800 L 56.4700 73.0012 L 56.5304 73.1289 L 56.5780 73.2620 L 56.5848 73.2892 L 56.6373 73.3600 L 56.7100 73.4812 L 56.7704 73.6089 L 56.8180 73.7420 L 56.8523 73.8791 L 56.8731 74.0189 L 56.8760 74.0782 L 56.8773 74.0800 L 56.9500 74.2012 L 57.0104 74.3289 L 57.0580 74.4620 L 57.0648 74.4892 L 57.1173 74.5600 L 57.1900 74.6812 L 57.2504 74.8089 L 57.2980 74.9420 L 57.3323 75.0791 L 57.3531 75.2189 L 57.3540 75.2375 L 57.4182 75.3018 L 57.5131 75.4065 L 57.5973 75.5200 L 57.6283 75.5717 L 57.6800 75.6027 L 57.7508 75.6552 L 57.7780 75.6620 L 57.9111 75.7096 L 58.0388 75.7700 L 58.1600 75.8427 L 58.2308 75.8952 L 58.2580 75.9020 L 58.3911 75.9496 L 58.5188 76.0100 L 58.6400 76.0827 L 58.7535 76.1669 L 58.8582 76.2618 L 59.5782 76.9818 L 59.6731 77.0865 L 59.7573 77.2000 L 59.8300 77.3212 L 59.8904 77.4489 L 59.9380 77.5820 L 59.9723 77.7191 L 59.9931 77.8589 L 60.0000 78.0000 L 60.0000 78.6445 L 60.0700 78.7612 L 60.1304 78.8889 L 60.1780 79.0220 L 60.1848 79.0492 L 60.2373 79.1200 L 60.3100 79.2412 L 60.3704 79.3689 L 60.4177 79.5013 L 60.5382 79.6218 L 60.6331 79.7265 L 60.7173 79.8400 L 60.7900 79.9612 L 60.8504 80.0889 L 60.8977 80.2213 L 61.2582 80.5818 L 61.3531 80.6865 L 61.4373 80.8000 L 61.5100 80.9212 L 61.5704 81.0489 L 61.6180 81.1820 L 61.6221 81.1984 L 61.6335 81.2069 L 61.7382 81.3018 L 62.4582 82.0218 L 62.5531 82.1265 L 62.6373 82.2400 L 62.7100 82.3612 L 62.7704 82.4889 L 62.8177 82.6213 L 62.9382 82.7418 L 63.0331 82.8465 L 63.1173 82.9600 L 63.1900 83.0812 L 63.2504 83.2089 L 63.2980 83.3420 L 63.3048 83.3692 L 63.3573 83.4400 L 63.4300 83.5612 L 63.4904 83.6889 L 63.5380 83.8220 L 63.5448 83.8492 L 63.5973 83.9200 L 63.6700 84.0412 L 63.7304 84.1689 L 63.7780 84.3020 L 63.7848 84.3292 L 63.8373 84.4000 L 63.9100 84.5212 L 63.9704 84.6489 L 64.0180 84.7820 L 64.0248 84.8092 L 64.0773 84.8800 L 64.1500 85.0012 L 64.2104 85.1289 L 64.2580 85.2620 L 64.2648 85.2892 L 64.3173 85.3600 L 64.3900 85.4812 L 64.4504 85.6089 L 64.4980 85.7420 L 64.5048 85.7692 L 64.5573 85.8400 L 64.6300 85.9612 L 64.6904 86.0889 L 64.7380 86.2220 L 64.7448 86.2492 L 64.7973 86.3200 L 64.8700 86.4412 L 64.9304 86.5689 L 64.9780 86.7020 L 64.9848 86.7292 L 65.0373 86.8000 L 65.1100 86.9212 L 65.1704 87.0489 L 65.2177 87.1813 L 65.3382 87.3018 L 65.4331 87.4065 L 65.5173 87.5200 L 65.5900 87.6412 L 65.6504 87.7689 L 65.6977 87.9013 L 65.8182 88.0218 L 65.9131 88.1265 L 65.9973 88.2400 L 66.0700 88.3612 L 66.1304 88.4889 L 66.1780 88.6220 L 66.2123 88.7591 L 66.2331 88.8989 L 66.2400 89.0400 L 66.2400 89.5200 L 66.2331 89.6611 L 66.2123 89.8009 L 66.1780 89.9380 L 66.1304 90.0711 L 66.0700 90.1988 L 65.9973 90.3200 L 65.9131 90.4335 L 65.8182 90.5382 L 65.3382 91.0182 L 65.2335 91.1131 L 65.1200 91.1973 L 64.9988 91.2700 L 64.8711 91.3304 L 64.7380 91.3780 L 64.7108 91.3848 L 64.6400 91.4373 L 64.5188 91.5100 L 64.3911 91.5704 L 64.2580 91.6180 L 64.2308 91.6248 L 64.1600 91.6773 L 64.0388 91.7500 L 63.9111 91.8104 L 63.7780 91.8580 L 63.7508 91.8648 L 63.6800 91.9173 L 63.5588 91.9900 L 63.4311 92.0504 L 63.2980 92.0980 L 63.2708 92.1048 L 63.2000 92.1573 L 63.0788 92.2300 L 62.9511 92.2904 L 62.8180 92.3380 L 62.7908 92.3448 L 62.7200 92.3973 L 62.5988 92.4700 L 62.4711 92.5304 L 62.3380 92.5780 L 62.2009 92.6123 L 62.0611 92.6331 L 62.0018 92.6360 L 62.0000 92.6373 L 61.8788 92.7100 L 61.7511 92.7704 L 61.6180 92.8180 L 61.5908 92.8248 L 61.5200 92.8773 L 61.3988 92.9500 L 61.2711 93.0104 L 61.1380 93.0580 L 61.1108 93.0648 L 61.0400 93.1173 L 60.9188 93.1900 L 60.7911 93.2504 L 60.6587 93.2977 L 60.5382 93.4182 L 60.4335 93.5131 L 60.3200 93.5973 L 60.1988 93.6700 L 60.0711 93.7304 L 59.9380 93.7780 L 59.9108 93.7848 L 59.8400 93.8373 L 59.7188 93.9100 L 59.5911 93.9704 L 59.4580 94.0180 L 59.4308 94.0248 L 59.3600 94.0773 L 59.2388 94.1500 L 59.1111 94.2104 L 58.9780 94.2580 L 58.8409 94.2923 L 58.7011 94.3131 L 58.6418 94.3160 L 58.6400 94.3173 L 58.5188 94.3900 L 58.3911 94.4504 L 58.2580 94.4980 L 58.2308 94.5048 L 58.1600 94.5573 L 58.0388 94.6300 L 57.9111 94.6904 L 57.7780 94.7380 L 57.7508 94.7448 L 57.6800 94.7973 L 57.5588 94.8700 L 57.4311 94.9304 L 57.2980 94.9780 L 57.1609 95.0123 L 57.0211 95.0331 L 56.9618 95.0360 L 56.9600 95.0373 L 56.8388 95.1100 L 56.7111 95.1704 L 56.5780 95.2180 L 56.5508 95.2248 L 56.4800 95.2773 L 56.3588 95.3500 L 56.2311 95.4104 L 56.0980 95.4580 L 55.9609 95.4923 L 55.8211 95.5131 L 55.7618 95.5160 L 55.7600 95.5173 L 55.6388 95.5900 L 55.5111 95.6504 L 55.3780 95.6980 L 55.2409 95.7323 L 55.1011 95.7531 L 55.0418 95.7560 L 55.0400 95.7573 L 54.9188 95.8300 L 54.7911 95.8904 L 54.6580 95.9380 L 54.5209 95.9723 L 54.3811 95.9931 L 54.3218 95.9960 L 54.3200 95.9973 L 54.1988 96.0700 L 54.0711 96.1304 L 53.9380 96.1780 L 53.8009 96.2123 L 53.6611 96.2331 L 53.6018 96.2360 L 53.6000 96.2373 L 53.4788 96.3100 L 53.3511 96.3704 L 53.2180 96.4180 L 53.0809 96.4523 L 52.9411 96.4731 L 52.8818 96.4760 L 52.8800 96.4773 L 52.7588 96.5500 L 52.6311 96.6104 L 52.4980 96.6580 L 52.3609 96.6923 L 52.2211 96.7131 L 52.1618 96.7160 L 52.1600 96.7173 L 52.0388 96.7900 L 51.9111 96.8504 L 51.7787 96.8977 L 51.6582 97.0182 L 51.5535 97.1131 L 51.4400 97.1973 L 51.3188 97.2700 L 51.1911 97.3304 L 51.0580 97.3780 L 51.0308 97.3848 L 50.9600 97.4373 L 50.8388 97.5100 L 50.7111 97.5704 L 50.5787 97.6177 L 50.4582 97.7382 L 50.3535 97.8331 L 50.2400 97.9173 L 50.1188 97.9900 L 49.9911 98.0504 L 49.8587 98.0977 L 48.7782 99.1782 L 48.6735 99.2731 L 48.5600 99.3573 L 48.4388 99.4300 L 48.3111 99.4904 L 48.1787 99.5377 L 47.8182 99.8982 L 47.7135 99.9931 L 47.6000 100.0773 L 47.4788 100.1500 L 47.3511 100.2104 L 47.2187 100.2577 L 47.0982 100.3782 L 46.9935 100.4731 L 46.8800 100.5573 L 46.7588 100.6300 L 46.6311 100.6904 L 46.4987 100.7377 L 46.0177 101.2187 L 45.9704 101.3511 L 45.9100 101.4788 L 45.8373 101.6000 L 45.7531 101.7135 L 45.6582 101.8182 L 45.4182 102.0582 L 45.3135 102.1531 L 45.2000 102.2373 L 45.0788 102.3100 L 44.9913 102.3513 L 44.9500 102.4388 L 44.8773 102.5600 L 44.7931 102.6735 L 44.6982 102.7782 L 44.0977 103.3787 L 44.0504 103.5111 L 43.9900 103.6388 L 43.9173 103.7600 L 43.8648 103.8308 L 43.8580 103.8580 L 43.8104 103.9911 L 43.7500 104.1188 L 43.6773 104.2400 L 43.6248 104.3108 L 43.6180 104.3380 L 43.5704 104.4711 L 43.5100 104.5988 L 43.4373 104.7200 L 43.4360 104.7218 L 43.4331 104.7811 L 43.4123 104.9209 L 43.3780 105.0580 L 43.3304 105.1911 L 43.2700 105.3188 L 43.2000 105.4355 L 43.2000 106.0800 L 43.1931 106.2211 L 43.1723 106.3609 L 43.1380 106.4980 L 43.0904 106.6311 L 43.0300 106.7588 L 42.9600 106.8755 L 42.9600 107.5200 L 42.9531 107.6611 L 42.9323 107.8009 L 42.8980 107.9380 L 42.8504 108.0711 L 42.7900 108.1988 L 42.7200 108.3155 L 42.7200 108.7200 L 42.7131 108.8611 L 42.6923 109.0009 L 42.6580 109.1380 L 42.6104 109.2711 L 42.5500 109.3988 L 42.4800 109.5155 L 42.4800 110.3245 L 42.5500 110.4412 L 42.6104 110.5689 L 42.6580 110.7020 L 42.6923 110.8391 L 42.7131 110.9789 L 42.7160 111.0382 L 42.7173 111.0400 L 42.7900 111.1612 L 42.8504 111.2889 L 42.8980 111.4220 L 42.9048 111.4492 L 42.9573 111.5200 L 43.0300 111.6412 L 43.0904 111.7689 L 43.1380 111.9020 L 43.1448 111.9292 L 43.1973 112.0000 L 43.2700 112.1212 L 43.3304 112.2489 L 43.3780 112.3820 L 43.4123 112.5191 L 43.4331 112.6589 L 43.4400 112.8000 L 43.4400 112.9645 L 43.5100 113.0812 L 43.5704 113.2089 L 43.6180 113.3420 L 43.6523 113.4791 L 43.6731 113.6189 L 43.6800 113.7600 L 43.6800 115.8445 L 43.7500 115.9612 L 43.8104 116.0889 L 43.8580 116.2220 L 43.8923 116.3591 L 43.9131 116.4989 L 43.9200 116.6400 L 43.9200 116.8045 L 43.9900 116.9212 L 44.0504 117.0489 L 44.0977 117.1813 L 44.2182 117.3018 L 44.3131 117.4065 L 44.3973 117.5200 L 44.4700 117.6412 L 44.5304 117.7689 L 44.5780 117.9020 L 44.5848 117.9292 L 44.6373 118.0000 L 44.7100 118.1212 L 44.7704 118.2489 L 44.8180 118.3820 L 44.8248 118.4092 L 44.8773 118.4800 L 44.9500 118.6012 L 45.0104 118.7289 L 45.0580 118.8620 L 45.0648 118.8892 L 45.1173 118.9600 L 45.1900 119.0812 L 45.2504 119.2089 L 45.2980 119.3420 L 45.3323 119.4791 L 45.3531 119.6189 L 45.3600 119.7600 L 45.3600 120.0000 L 45.3531 120.1411 L 45.3323 120.2809 L 45.2980 120.4180 L 45.2504 120.5511 L 45.1900 120.6788 L 45.1173 120.8000 L 45.0331 120.9135 L 44.9382 121.0182 L 44.6982 121.2582 L 44.5935 121.3531 L 44.4800 121.4373 L 44.3588 121.5100 L 44.2311 121.5704 L 44.0980 121.6180 L 43.9609 121.6523 L 43.8211 121.6731 L 43.7618 121.6760 L 43.7600 121.6773 L 43.6388 121.7500 L 43.5111 121.8104 L 43.3780 121.8580 L 43.2409 121.8923 L 43.1011 121.9131 L 43.0418 121.9160 L 43.0400 121.9173 L 42.9188 121.9900 L 42.7911 122.0504 L 42.6580 122.0980 L 42.6308 122.1048 L 42.5600 122.1573 L 42.4388 122.2300 L 42.3111 122.2904 L 42.1780 122.3380 L 42.0409 122.3723 L 41.9011 122.3931 L 41.8418 122.3960 L 41.8400 122.3973 L 41.7188 122.4700 L 41.5911 122.5304 L 41.4580 122.5780 L 41.3209 122.6123 L 41.1811 122.6331 L 41.1218 122.6360 L 41.1200 122.6373 L 40.9988 122.7100 L 40.8711 122.7704 L 40.7380 122.8180 L 40.6009 122.8523 L 40.4611 122.8731 L 40.3200 122.8800 L 40.1555 122.8800 L 40.0388 122.9500 L 39.9111 123.0104 L 39.7780 123.0580 L 39.6409 123.0923 L 39.5011 123.1131 L 39.4418 123.1160 L 39.4400 123.1173 L 39.3188 123.1900 L 39.1911 123.2504 L 39.0580 123.2980 L 38.9209 123.3323 L 38.7811 123.3531 L 38.7218 123.3560 L 38.7200 123.3573 L 38.5988 123.4300 L 38.4711 123.4904 L 38.3380 123.5380 L 38.2009 123.5723 L 38.0611 123.5931 L 38.0018 123.5960 L 38.0000 123.5973 L 37.8788 123.6700 L 37.7511 123.7304 L 37.6180 123.7780 L 37.4809 123.8123 L 37.3411 123.8331 L 37.2818 123.8360 L 37.2800 123.8373 L 37.1588 123.9100 L 37.0311 123.9704 L 36.8980 124.0180 L 36.7609 124.0523 L 36.6211 124.0731 L 36.4800 124.0800 L 36.3155 124.0800 L 36.1988 124.1500 L 36.0711 124.2104 L 35.9380 124.2580 L 35.8009 124.2923 L 35.6611 124.3131 L 35.6018 124.3160 L 35.6000 124.3173 L 35.4788 124.3900 L 35.3511 124.4504 L 35.2180 124.4980 L 35.0809 124.5323 L 34.9411 124.5531 L 34.8818 124.5560 L 34.8800 124.5573 L 34.7588 124.6300 L 34.6311 124.6904 L 34.4980 124.7380 L 34.3609 124.7723 L 34.2211 124.7931 L 34.1618 124.7960 L 34.1600 124.7973 L 34.0388 124.8700 L 33.9111 124.9304 L 33.7780 124.9780 L 33.6409 125.0123 L 33.5011 125.0331 L 33.3600 125.0400 L 33.1955 125.0400 L 33.0788 125.1100 L 32.9511 125.1704 L 32.8180 125.2180 L 32.6809 125.2523 L 32.5411 125.2731 L 32.4818 125.2760 L 32.4800 125.2773 L 32.3588 125.3500 L 32.2311 125.4104 L 32.0980 125.4580 L 31.9609 125.4923 L 31.8211 125.5131 L 31.7618 125.5160 L 31.7600 125.5173 L 31.6388 125.5900 L 31.5111 125.6504 L 31.3780 125.6980 L 31.3508 125.7048 L 31.2800 125.7573 L 31.1588 125.8300 L 31.0311 125.8904 L 30.8980 125.9380 L 30.7609 125.9723 L 30.6211 125.9931 L 30.4800 126.0000 L 30.0755 126.0000 L 29.9588 126.0700 L 29.8311 126.1304 L 29.6980 126.1780 L 29.5609 126.2123 L 29.4211 126.2331 L 29.2800 126.2400 L 28.6355 126.2400 L 28.5188 126.3100 L 28.3911 126.3704 L 28.2580 126.4180 L 28.1209 126.4523 L 27.9811 126.4731 L 27.8400 126.4800 L 27.6755 126.4800 L 27.5588 126.5500 L 27.4311 126.6104 L 27.2980 126.6580 L 27.1609 126.6923 L 27.0211 126.7131 L 26.8800 126.7200 L 26.4755 126.7200 L 26.3588 126.7900 L 26.2311 126.8504 L 26.0980 126.8980 L 25.9609 126.9323 L 25.8211 126.9531 L 25.6800 126.9600 L 9.8400 126.9600 L 9.6989 126.9531 L 9.5591 126.9323 L 9.4220 126.8980 L 9.2889 126.8504 L 9.1612 126.7900 L 9.0400 126.7173 L 8.9265 126.6331 L 8.8218 126.5382 L 8.5818 126.2982 L 8.4869 126.1935 L 8.4027 126.0800 L 8.3300 125.9588 L 8.2696 125.8311 L 8.2220 125.6980 L 8.1877 125.5609 L 8.1669 125.4211 L 8.1600 125.2800 L 8.1600 10.0800 Z M 125.2218 77.0982 L 125.1269 76.9935 L 125.0427 76.8800 L 124.9700 76.7588 L 124.9096 76.6311 L 124.8620 76.4980 L 124.8277 76.3609 L 124.8069 76.2211 L 124.8000 76.0800 L 124.8069 75.9389 L 124.8277 75.7991 L 124.8620 75.6620 L 124.9096 75.5289 L 124.9700 75.4012 L 125.0427 75.2800 L 125.1269 75.1665 L 125.2218 75.0618 L 125.4618 74.8218 L 125.5665 74.7269 L 125.6800 74.6427 L 125.8012 74.5700 L 125.9289 74.5096 L 126.0620 74.4620 L 126.1991 74.4277 L 126.3389 74.4069 L 126.4800 74.4000 L 126.7200 74.4000 L 126.8611 74.4069 L 127.0009 74.4277 L 127.1380 74.4620 L 127.2711 74.5096 L 127.3988 74.5700 L 127.5200 74.6427 L 127.6335 74.7269 L 127.7382 74.8218 L 127.9782 75.0618 L 128.0731 75.1665 L 128.1573 75.2800 L 128.2300 75.4012 L 128.2904 75.5289 L 128.3380 75.6620 L 128.3723 75.7991 L 128.3931 75.9389 L 128.4000 76.0800 L 128.4000 76.3200 L 128.3931 76.4611 L 128.3723 76.6009 L 128.3380 76.7380 L 128.2904 76.8711 L 128.2300 76.9988 L 128.1573 77.1200 L 128.0731 77.2335 L 127.9782 77.3382 L 127.7382 77.5782 L 127.6335 77.6731 L 127.5200 77.7573 L 127.3988 77.8300 L 127.2711 77.8904 L 127.1380 77.9380 L 127.0009 77.9723 L 126.8611 77.9931 L 126.7200 78.0000 L 126.5789 77.9931 L 126.4391 77.9723 L 126.3020 77.9380 L 126.1689 77.8904 L 126.0412 77.8300 L 125.9200 77.7573 L 125.8065 77.6731 L 125.7018 77.5782 L 125.2218 77.0982 Z M 70.9818 206.4582 L 70.8869 206.3535 L 70.8027 206.2400 L 70.7300 206.1188 L 70.6696 205.9911 L 70.6220 205.8580 L 70.5877 205.7209 L 70.5669 205.5811 L 70.5600 205.4400 L 70.5669 205.2989 L 70.5877 205.1591 L 70.6220 205.0220 L 70.6696 204.8889 L 70.7300 204.7612 L 70.8027 204.6400 L 70.8869 204.5265 L 70.9818 204.4218 L 71.2218 204.1818 L 71.3265 204.0869 L 71.4400 204.0027 L 71.5612 203.9300 L 71.6889 203.8696 L 71.8220 203.8220 L 71.9591 203.7877 L 72.0989 203.7669 L 72.2400 203.7600 L 72.4800 203.7600 L 72.6211 203.7669 L 72.7609 203.7877 L 72.8980 203.8220 L 73.0311 203.8696 L 73.1588 203.9300 L 73.2800 204.0027 L 73.3935 204.0869 L 73.4982 204.1818 L 73.7382 204.4218 L 73.8331 204.5265 L 73.9173 204.6400 L 73.9900 204.7612 L 74.0504 204.8889 L 74.0980 205.0220 L 74.1323 205.1591 L 74.1531 205.2989 L 74.1600 205.4400 L 74.1531 205.5811 L 74.1323 205.7209 L 74.0980 205.8580 L 74.0504 205.9911 L 73.9900 206.1188 L 73.9173 206.2400 L 73.8331 206.3535 L 73.7382 206.4582 L 73.4982 206.6982 L 73.3935 206.7931 L 73.2800 206.8773 L 73.1588 206.9500 L 73.0311 207.0104 L 72.8980 207.0580 L 72.7609 207.0923 L 72.6211 207.1131 L 72.4800 207.1200 L 72.2400 207.1200 L 72.0989 207.1131 L 71.9591 207.0923 L 71.8220 207.0580 L 71.6889 207.0104 L 71.5612 206.9500 L 71.4400 206.8773 L 71.3265 206.7931 L 71.2218 206.6982 L 70.9818 206.4582 Z M 63.6000 84.9600 L 63.6069 84.8189 L 63.6277 84.6791 L 63.6620 84.5420 L 63.7096 84.4089 L 63.7700 84.2812 L 63.8427 84.1600 L 63.9269 84.0465 L 64.0218 83.9418 L 64.2618 83.7018 L 64.3665 83.6069 L 64.4800 83.5227 L 64.6012 83.4500 L 64.7289 83.3896 L 64.8620 83.3420 L 64.9991 83.3077 L 65.1389 83.2869 L 65.2800 83.2800 L 65.5200 83.2800 L 65.6611 83.2869 L 65.8009 83.3077 L 65.9380 83.3420 L 66.0711 83.3896 L 66.1988 83.4500 L 66.3200 83.5227 L 66.4335 83.6069 L 66.5382 83.7018 L 66.8987 84.0623 L 67.0311 84.1096 L 67.1588 84.1700 L 67.2800 84.2427 L 67.2818 84.2440 L 67.3411 84.2469 L 67.4809 84.2677 L 67.6180 84.3020 L 67.7511 84.3496 L 67.8788 84.4100 L 68.0000 84.4827 L 68.1135 84.5669 L 68.2182 84.6618 L 68.6982 85.1418 L 68.7931 85.2465 L 68.8773 85.3600 L 68.9500 85.4812 L 69.0104 85.6089 L 69.0580 85.7420 L 69.0648 85.7692 L 69.1173 85.8400 L 69.1900 85.9612 L 69.2504 86.0889 L 69.2980 86.2220 L 69.3323 86.3591 L 69.3531 86.4989 L 69.3600 86.6400 L 69.3600 88.3200 L 69.3531 88.4611 L 69.3323 88.6009 L 69.2980 88.7380 L 69.2504 88.8711 L 69.1900 88.9988 L 69.1173 89.1200 L 69.0331 89.2335 L 68.9382 89.3382 L 68.4582 89.8182 L 68.3535 89.9131 L 68.2400 89.9973 L 68.1188 90.0700 L 67.9911 90.1304 L 67.8580 90.1780 L 67.7209 90.2123 L 67.5811 90.2331 L 67.5625 90.2340 L 67.4982 90.2982 L 67.3935 90.3931 L 67.2800 90.4773 L 67.1588 90.5500 L 67.0311 90.6104 L 66.8980 90.6580 L 66.7609 90.6923 L 66.6211 90.7131 L 66.4800 90.7200 L 66.3389 90.7131 L 66.1991 90.6923 L 66.0620 90.6580 L 65.9289 90.6104 L 65.8012 90.5500 L 65.6800 90.4773 L 65.6092 90.4248 L 65.5820 90.4180 L 65.4489 90.3704 L 65.3212 90.3100 L 65.2000 90.2373 L 65.0865 90.1531 L 64.9818 90.0582 L 64.5018 89.5782 L 64.4069 89.4735 L 64.3227 89.3600 L 64.2500 89.2388 L 64.1896 89.1111 L 64.1420 88.9780 L 64.1077 88.8409 L 64.0869 88.7011 L 64.0840 88.6418 L 64.0827 88.6400 L 64.0100 88.5188 L 63.9496 88.3911 L 63.9020 88.2580 L 63.8677 88.1209 L 63.8469 87.9811 L 63.8400 87.8400 L 63.8469 87.6989 L 63.8677 87.5591 L 63.9020 87.4220 L 63.9496 87.2889 L 64.0100 87.1612 L 64.0800 87.0445 L 64.0800 86.9965 L 64.0218 86.9382 L 63.9269 86.8335 L 63.8427 86.7200 L 63.7700 86.5988 L 63.7096 86.4711 L 63.6620 86.3380 L 63.6277 86.2009 L 63.6069 86.0611 L 63.6000 85.9200 L 63.6000 84.9600 Z M 62.8218 202.6182 L 62.7269 202.5135 L 62.6427 202.4000 L 62.5700 202.2788 L 62.5096 202.1511 L 62.4620 202.0180 L 62.4277 201.8809 L 62.4069 201.7411 L 62.4000 201.6000 L 62.4069 201.4589 L 62.4277 201.3191 L 62.4620 201.1820 L 62.5096 201.0489 L 62.5700 200.9212 L 62.6427 200.8000 L 62.7269 200.6865 L 62.8218 200.5818 L 63.0618 200.3418 L 63.1665 200.2469 L 63.2800 200.1627 L 63.4012 200.0900 L 63.5289 200.0296 L 63.6620 199.9820 L 63.7991 199.9477 L 63.9389 199.9269 L 64.0800 199.9200 L 64.3200 199.9200 L 64.4611 199.9269 L 64.6009 199.9477 L 64.7380 199.9820 L 64.8711 200.0296 L 64.9988 200.0900 L 65.1200 200.1627 L 65.2335 200.2469 L 65.3382 200.3418 L 65.5782 200.5818 L 65.6731 200.6865 L 65.7573 200.8000 L 65.8300 200.9212 L 65.8904 201.0489 L 65.9380 201.1820 L 65.9723 201.3191 L 65.9931 201.4589 L 66.0000 201.6000 L 65.9931 201.7411 L 65.9723 201.8809 L 65.9380 202.0180 L 65.8904 202.1511 L 65.8300 202.2788 L 65.7573 202.4000 L 65.6731 202.5135 L 65.5782 202.6182 L 65.3382 202.8582 L 65.2335 202.9531 L 65.1200 203.0373 L 64.9988 203.1100 L 64.8711 203.1704 L 64.7380 203.2180 L 64.6009 203.2523 L 64.4611 203.2731 L 64.3200 203.2800 L 64.0800 203.2800 L 63.9389 203.2731 L 63.7991 203.2523 L 63.6620 203.2180 L 63.5289 203.1704 L 63.4012 203.1100 L 63.2800 203.0373 L 63.1665 202.9531 L 63.0618 202.8582 L 62.8218 202.6182 Z M 59.2218 205.0182 L 59.1269 204.9135 L 59.0427 204.8000 L 58.9700 204.6788 L 58.9096 204.5511 L 58.8620 204.4180 L 58.8277 204.2809 L 58.8069 204.1411 L 58.8000 204.0000 L 58.8069 203.8589 L 58.8277 203.7191 L 58.8620 203.5820 L 58.9096 203.4489 L 58.9700 203.3212 L 59.0427 203.2000 L 59.1269 203.0865 L 59.2218 202.9818 L 59.7018 202.5018 L 59.8065 202.4069 L 59.9200 202.3227 L 60.0412 202.2500 L 60.1689 202.1896 L 60.3020 202.1420 L 60.4391 202.1077 L 60.5789 202.0869 L 60.7200 202.0800 L 60.8611 202.0869 L 61.0009 202.1077 L 61.1380 202.1420 L 61.2711 202.1896 L 61.3988 202.2500 L 61.5200 202.3227 L 61.6335 202.4069 L 61.7382 202.5018 L 61.9782 202.7418 L 62.0731 202.8465 L 62.1573 202.9600 L 62.2300 203.0812 L 62.2904 203.2089 L 62.3380 203.3420 L 62.3723 203.4791 L 62.3931 203.6189 L 62.4000 203.7600 L 62.3931 203.9011 L 62.3723 204.0409 L 62.3380 204.1780 L 62.2904 204.3111 L 62.2300 204.4388 L 62.1573 204.5600 L 62.0731 204.6735 L 61.9782 204.7782 L 61.4982 205.2582 L 61.3935 205.3531 L 61.2800 205.4373 L 61.1588 205.5100 L 61.0311 205.5704 L 60.8980 205.6180 L 60.7609 205.6523 L 60.6211 205.6731 L 60.4800 205.6800 L 60.3389 205.6731 L 60.1991 205.6523 L 60.0620 205.6180 L 59.9289 205.5704 L 59.8012 205.5100 L 59.6800 205.4373 L 59.5665 205.3531 L 59.4618 205.2582 L 59.2218 205.0182 Z M 8.4552 167.1292 L 8.4620 167.1020 L 8.5096 166.9689 L 8.5700 166.8412 L 8.6427 166.7200 L 8.7269 166.6065 L 8.8218 166.5018 L 9.3018 166.0218 L 9.4065 165.9269 L 9.5200 165.8427 L 9.6412 165.7700 L 9.7689 165.7096 L 9.9013 165.6623 L 10.9818 164.5818 L 11.0865 164.4869 L 11.1097 164.4697 L 11.1269 164.4465 L 11.2218 164.3418 L 11.4618 164.1018 L 11.5665 164.0069 L 11.6800 163.9227 L 11.8012 163.8500 L 11.9289 163.7896 L 12.0613 163.7423 L 12.0623 163.7413 L 12.1096 163.6089 L 12.1700 163.4812 L 12.2427 163.3600 L 12.3269 163.2465 L 12.4218 163.1418 L 13.5023 162.0613 L 13.5496 161.9289 L 13.6100 161.8012 L 13.6827 161.6800 L 13.7669 161.5665 L 13.8618 161.4618 L 14.4623 160.8613 L 14.5096 160.7289 L 14.5700 160.6012 L 14.6427 160.4800 L 14.7269 160.3665 L 14.8218 160.2618 L 15.1823 159.9013 L 15.2296 159.7689 L 15.2900 159.6412 L 15.3627 159.5200 L 15.4469 159.4065 L 15.5418 159.3018 L 15.6623 159.1813 L 15.7096 159.0489 L 15.7700 158.9212 L 15.8427 158.8000 L 15.9269 158.6865 L 16.0218 158.5818 L 16.3823 158.2213 L 16.4296 158.0889 L 16.4900 157.9612 L 16.5627 157.8400 L 16.6469 157.7265 L 16.7418 157.6218 L 17.1023 157.2613 L 17.1496 157.1289 L 17.2100 157.0012 L 17.2827 156.8800 L 17.3669 156.7665 L 17.4618 156.6618 L 19.0223 155.1013 L 19.0696 154.9689 L 19.1300 154.8412 L 19.2027 154.7200 L 19.2869 154.6065 L 19.3818 154.5018 L 19.6218 154.2618 L 19.7265 154.1669 L 19.7497 154.1497 L 19.7669 154.1265 L 19.8618 154.0218 L 20.3418 153.5418 L 20.4465 153.4469 L 20.4697 153.4297 L 20.4869 153.4065 L 20.5818 153.3018 L 23.3423 150.5413 L 23.3896 150.4089 L 23.4500 150.2812 L 23.5227 150.1600 L 23.6069 150.0465 L 23.7018 149.9418 L 23.9418 149.7018 L 24.0465 149.6069 L 24.1600 149.5227 L 24.2812 149.4500 L 24.4089 149.3896 L 24.5413 149.3423 L 24.5423 149.3413 L 24.5896 149.2089 L 24.6500 149.0812 L 24.7227 148.9600 L 24.8069 148.8465 L 24.9018 148.7418 L 25.1418 148.5018 L 25.2465 148.4069 L 25.2697 148.3897 L 25.2869 148.3665 L 25.3818 148.2618 L 25.8618 147.7818 L 25.9665 147.6869 L 25.9897 147.6697 L 26.0069 147.6465 L 26.1018 147.5418 L 26.3418 147.3018 L 26.4465 147.2069 L 26.4697 147.1897 L 26.4869 147.1665 L 26.5818 147.0618 L 26.8218 146.8218 L 26.9265 146.7269 L 27.0400 146.6427 L 27.1612 146.5700 L 27.2889 146.5096 L 27.4213 146.4623 L 28.5018 145.3818 L 28.6065 145.2869 L 28.6297 145.2697 L 28.6469 145.2465 L 28.7418 145.1418 L 28.9818 144.9018 L 29.0865 144.8069 L 29.2000 144.7227 L 29.3212 144.6500 L 29.4489 144.5896 L 29.5813 144.5423 L 31.3818 142.7418 L 31.4865 142.6469 L 31.6000 142.5627 L 31.7212 142.4900 L 31.8489 142.4296 L 31.9813 142.3823 L 33.0618 141.3018 L 33.1665 141.2069 L 33.2800 141.1227 L 33.4012 141.0500 L 33.5289 140.9896 L 33.6613 140.9423 L 34.0218 140.5818 L 34.1265 140.4869 L 34.2400 140.4027 L 34.3612 140.3300 L 34.4889 140.2696 L 34.6213 140.2223 L 34.9818 139.8618 L 35.0865 139.7669 L 35.2000 139.6827 L 35.3212 139.6100 L 35.4489 139.5496 L 35.5813 139.5023 L 35.9418 139.1418 L 36.0465 139.0469 L 36.1600 138.9627 L 36.2812 138.8900 L 36.4089 138.8296 L 36.5413 138.7823 L 36.6618 138.6618 L 36.7665 138.5669 L 36.8800 138.4827 L 37.0012 138.4100 L 37.1289 138.3496 L 37.2613 138.3023 L 37.3818 138.1818 L 37.4865 138.0869 L 37.6000 138.0027 L 37.7212 137.9300 L 37.8489 137.8696 L 37.9813 137.8223 L 38.3418 137.4618 L 38.4465 137.3669 L 38.5600 137.2827 L 38.6812 137.2100 L 38.8089 137.1496 L 38.9413 137.1023 L 39.0618 136.9818 L 39.1665 136.8869 L 39.2800 136.8027 L 39.4012 136.7300 L 39.5289 136.6696 L 39.6613 136.6223 L 40.0218 136.2618 L 40.1265 136.1669 L 40.2400 136.0827 L 40.3612 136.0100 L 40.4889 135.9496 L 40.6213 135.9023 L 40.7418 135.7818 L 40.8465 135.6869 L 40.9600 135.6027 L 41.0812 135.5300 L 41.2089 135.4696 L 41.3413 135.4223 L 41.4618 135.3018 L 41.5665 135.2069 L 41.6800 135.1227 L 41.8012 135.0500 L 41.9289 134.9896 L 42.0613 134.9423 L 42.6618 134.3418 L 42.7665 134.2469 L 42.8800 134.1627 L 43.0012 134.0900 L 43.1289 134.0296 L 43.2613 133.9823 L 43.8618 133.3818 L 43.9665 133.2869 L 44.0800 133.2027 L 44.2012 133.1300 L 44.3289 133.0696 L 44.4613 133.0223 L 45.0618 132.4218 L 45.1665 132.3269 L 45.2800 132.2427 L 45.4012 132.1700 L 45.5289 132.1096 L 45.6613 132.0623 L 46.2618 131.4618 L 46.3665 131.3669 L 46.4800 131.2827 L 46.6012 131.2100 L 46.7289 131.1496 L 46.8613 131.1023 L 47.4618 130.5018 L 47.5665 130.4069 L 47.6800 130.3227 L 47.8012 130.2500 L 47.9289 130.1896 L 48.0620 130.1420 L 48.0892 130.1352 L 48.1600 130.0827 L 48.2812 130.0100 L 48.4089 129.9496 L 48.5420 129.9020 L 48.6791 129.8677 L 48.8189 129.8469 L 48.9600 129.8400 L 49.1011 129.8469 L 49.2409 129.8677 L 49.3780 129.9020 L 49.5111 129.9496 L 49.6388 130.0100 L 49.7600 130.0827 L 49.8735 130.1669 L 49.9782 130.2618 L 50.2182 130.5018 L 50.3131 130.6065 L 50.3973 130.7200 L 50.4700 130.8412 L 50.5304 130.9689 L 50.5780 131.1020 L 50.6123 131.2391 L 50.6331 131.3789 L 50.6360 131.4382 L 50.6373 131.4400 L 50.7100 131.5612 L 50.7704 131.6889 L 50.8180 131.8220 L 50.8523 131.9591 L 50.8731 132.0989 L 50.8800 132.2400 L 50.8800 132.8845 L 50.9500 133.0012 L 51.0104 133.1289 L 51.0580 133.2620 L 51.0923 133.3991 L 51.1131 133.5389 L 51.1200 133.6800 L 51.1200 134.8045 L 51.1900 134.9212 L 51.2504 135.0489 L 51.2980 135.1820 L 51.3323 135.3191 L 51.3531 135.4589 L 51.3600 135.6000 L 51.3600 136.4845 L 51.4300 136.6012 L 51.4904 136.7289 L 51.5380 136.8620 L 51.5723 136.9991 L 51.5931 137.1389 L 51.6000 137.2800 L 51.6000 137.4445 L 51.6700 137.5612 L 51.7304 137.6889 L 51.7780 137.8220 L 51.8123 137.9591 L 51.8331 138.0989 L 51.8360 138.1582 L 51.8373 138.1600 L 51.9100 138.2812 L 51.9704 138.4089 L 52.0180 138.5420 L 52.0523 138.6791 L 52.0731 138.8189 L 52.0760 138.8782 L 52.0773 138.8800 L 52.1500 139.0012 L 52.2104 139.1289 L 52.2580 139.2620 L 52.2648 139.2892 L 52.3173 139.3600 L 52.3900 139.4812 L 52.4504 139.6089 L 52.4980 139.7420 L 52.5048 139.7692 L 52.5573 139.8400 L 52.6300 139.9612 L 52.6904 140.0889 L 52.7380 140.2220 L 52.7448 140.2492 L 52.7973 140.3200 L 52.8700 140.4412 L 52.9304 140.5689 L 52.9780 140.7020 L 52.9848 140.7292 L 53.0373 140.8000 L 53.1100 140.9212 L 53.1704 141.0489 L 53.2180 141.1820 L 53.2248 141.2092 L 53.2773 141.2800 L 53.3500 141.4012 L 53.4104 141.5289 L 53.4580 141.6620 L 53.4648 141.6892 L 53.5173 141.7600 L 53.5900 141.8812 L 53.6504 142.0089 L 53.6980 142.1420 L 53.7048 142.1692 L 53.7573 142.2400 L 53.8300 142.3612 L 53.8904 142.4889 L 53.9377 142.6213 L 54.2982 142.9818 L 54.3931 143.0865 L 54.4773 143.2000 L 54.5500 143.3212 L 54.6104 143.4489 L 54.6577 143.5813 L 55.4982 144.4218 L 55.5931 144.5265 L 55.6773 144.6400 L 55.7500 144.7612 L 55.8104 144.8889 L 55.8577 145.0213 L 55.9782 145.1418 L 56.0731 145.2465 L 56.1573 145.3600 L 56.2053 145.4400 L 56.6400 145.4400 L 56.7811 145.4469 L 56.9209 145.4677 L 57.0580 145.5020 L 57.1911 145.5496 L 57.3188 145.6100 L 57.4400 145.6827 L 57.5535 145.7669 L 57.6582 145.8618 L 58.3782 146.5818 L 58.4731 146.6865 L 58.5573 146.8000 L 58.6300 146.9212 L 58.6904 147.0489 L 58.7380 147.1820 L 58.7723 147.3191 L 58.7931 147.4589 L 58.8000 147.6000 L 58.8000 147.8400 L 58.7931 147.9811 L 58.7723 148.1209 L 58.7380 148.2580 L 58.6904 148.3911 L 58.6300 148.5188 L 58.5573 148.6400 L 58.4731 148.7535 L 58.3782 148.8582 L 58.3142 148.9223 L 58.3200 149.0400 L 58.3200 149.2800 L 58.3131 149.4211 L 58.2923 149.5609 L 58.2580 149.6980 L 58.2104 149.8311 L 58.1500 149.9588 L 58.0773 150.0800 L 58.0248 150.1508 L 58.0180 150.1780 L 57.9958 150.2400 L 58.0180 150.3020 L 58.0523 150.4391 L 58.0731 150.5789 L 58.0800 150.7200 L 58.0800 151.0890 L 58.1382 151.1418 L 58.6182 151.6218 L 58.7131 151.7265 L 58.7973 151.8400 L 58.8700 151.9612 L 58.9304 152.0889 L 58.9780 152.2220 L 58.9848 152.2492 L 59.0373 152.3200 L 59.1100 152.4412 L 59.1704 152.5689 L 59.2180 152.7020 L 59.2523 152.8391 L 59.2731 152.9789 L 59.2800 153.1200 L 59.2800 153.5245 L 59.3500 153.6412 L 59.4104 153.7689 L 59.4580 153.9020 L 59.4923 154.0391 L 59.5131 154.1789 L 59.5200 154.3200 L 59.5200 154.7245 L 59.5900 154.8412 L 59.6504 154.9689 L 59.6980 155.1020 L 59.7323 155.2391 L 59.7531 155.3789 L 59.7600 155.5200 L 59.7600 156.1645 L 59.8300 156.2812 L 59.8904 156.4089 L 59.9380 156.5420 L 59.9723 156.6791 L 59.9931 156.8189 L 60.0000 156.9600 L 60.0000 157.9200 L 59.9931 158.0611 L 59.9723 158.2009 L 59.9380 158.3380 L 59.8904 158.4711 L 59.8300 158.5988 L 59.7573 158.7200 L 59.7048 158.7908 L 59.6980 158.8180 L 59.6504 158.9511 L 59.5900 159.0788 L 59.5173 159.2000 L 59.4648 159.2708 L 59.4580 159.2980 L 59.4104 159.4311 L 59.3500 159.5588 L 59.2773 159.6800 L 59.2248 159.7508 L 59.2180 159.7780 L 59.1704 159.9111 L 59.1100 160.0388 L 59.0373 160.1600 L 58.9531 160.2735 L 58.8582 160.3782 L 58.3782 160.8582 L 58.2735 160.9531 L 58.1600 161.0373 L 58.0388 161.1100 L 57.9111 161.1704 L 57.7787 161.2177 L 57.7777 161.2187 L 57.7304 161.3511 L 57.6700 161.4788 L 57.5973 161.6000 L 57.5131 161.7135 L 57.4182 161.8182 L 57.1142 162.1223 L 57.1160 162.1582 L 57.1173 162.1600 L 57.1900 162.2812 L 57.2504 162.4089 L 57.2980 162.5420 L 57.3323 162.6791 L 57.3531 162.8189 L 57.3600 162.9600 L 57.3600 163.1245 L 57.4300 163.2412 L 57.4904 163.3689 L 57.5380 163.5020 L 57.5723 163.6391 L 57.5931 163.7789 L 57.6000 163.9200 L 57.6000 164.0845 L 57.6700 164.2012 L 57.7304 164.3289 L 57.7780 164.4620 L 57.8123 164.5991 L 57.8331 164.7389 L 57.8400 164.8800 L 57.8400 165.5245 L 57.9100 165.6412 L 57.9704 165.7689 L 58.0180 165.9020 L 58.0523 166.0391 L 58.0731 166.1789 L 58.0800 166.3200 L 58.0800 166.7245 L 58.1500 166.8412 L 58.2104 166.9689 L 58.2580 167.1020 L 58.2923 167.2391 L 58.3131 167.3789 L 58.3200 167.5200 L 58.3200 167.6845 L 58.3900 167.8012 L 58.4504 167.9289 L 58.4980 168.0620 L 58.5323 168.1991 L 58.5531 168.3389 L 58.5560 168.3982 L 58.5573 168.4000 L 58.6300 168.5212 L 58.6904 168.6489 L 58.7380 168.7820 L 58.7723 168.9191 L 58.7931 169.0589 L 58.7960 169.1182 L 58.7973 169.1200 L 58.8700 169.2412 L 58.9304 169.3689 L 58.9780 169.5020 L 58.9848 169.5292 L 59.0373 169.6000 L 59.1100 169.7212 L 59.1704 169.8489 L 59.2180 169.9820 L 59.2523 170.1191 L 59.2731 170.2589 L 59.2740 170.2775 L 59.3382 170.3418 L 59.4331 170.4465 L 59.5173 170.5600 L 59.5900 170.6812 L 59.6504 170.8089 L 59.6980 170.9420 L 59.7323 171.0791 L 59.7531 171.2189 L 59.7600 171.3600 L 59.7600 172.0800 L 59.7531 172.2211 L 59.7323 172.3609 L 59.6980 172.4980 L 59.6504 172.6311 L 59.5900 172.7588 L 59.5173 172.8800 L 59.4331 172.9935 L 59.3382 173.0982 L 59.0982 173.3382 L 58.9935 173.4331 L 58.8800 173.5173 L 58.7588 173.5900 L 58.6311 173.6504 L 58.4980 173.6980 L 58.3609 173.7323 L 58.2211 173.7531 L 58.0800 173.7600 L 57.8400 173.7600 L 57.6989 173.7531 L 57.5591 173.7323 L 57.4220 173.6980 L 57.2889 173.6504 L 57.1612 173.5900 L 57.0400 173.5173 L 56.9692 173.4648 L 56.9420 173.4580 L 56.8089 173.4104 L 56.6812 173.3500 L 56.5600 173.2773 L 56.4892 173.2248 L 56.4620 173.2180 L 56.3913 173.1927 L 56.3723 173.3209 L 56.3380 173.4580 L 56.2904 173.5911 L 56.2300 173.7188 L 56.1573 173.8400 L 56.1560 173.8418 L 56.1531 173.9011 L 56.1323 174.0409 L 56.0980 174.1780 L 56.0504 174.3111 L 55.9900 174.4388 L 55.9200 174.5555 L 55.9200 174.7200 L 55.9131 174.8611 L 55.8923 175.0009 L 55.8580 175.1380 L 55.8104 175.2711 L 55.7500 175.3988 L 55.6800 175.5155 L 55.6800 176.6400 L 55.6731 176.7811 L 55.6523 176.9209 L 55.6180 177.0580 L 55.5704 177.1911 L 55.5100 177.3188 L 55.4400 177.4355 L 55.4400 178.6442 L 55.5111 178.6696 L 55.6388 178.7300 L 55.7600 178.8027 L 55.7618 178.8040 L 55.8211 178.8069 L 55.9609 178.8277 L 56.0980 178.8620 L 56.2311 178.9096 L 56.3588 178.9700 L 56.4800 179.0427 L 56.5935 179.1269 L 56.6982 179.2218 L 56.7565 179.2800 L 57.1200 179.2800 L 57.2611 179.2869 L 57.4009 179.3077 L 57.5380 179.3420 L 57.6711 179.3896 L 57.7988 179.4500 L 57.9155 179.5200 L 58.0800 179.5200 L 58.2211 179.5269 L 58.3609 179.5477 L 58.4980 179.5820 L 58.6311 179.6296 L 58.7588 179.6900 L 58.8800 179.7627 L 58.9935 179.8469 L 59.0982 179.9418 L 59.3382 180.1818 L 59.4331 180.2865 L 59.5173 180.4000 L 59.5900 180.5212 L 59.6504 180.6489 L 59.6980 180.7820 L 59.7323 180.9191 L 59.7531 181.0589 L 59.7600 181.2000 L 59.7600 181.4400 L 59.7531 181.5811 L 59.7323 181.7209 L 59.6980 181.8580 L 59.6504 181.9911 L 59.5900 182.1188 L 59.5173 182.2400 L 59.4648 182.3108 L 59.4580 182.3380 L 59.4104 182.4711 L 59.3500 182.5988 L 59.2773 182.7200 L 59.1931 182.8335 L 59.0982 182.9382 L 58.7377 183.2987 L 58.6904 183.4311 L 58.6300 183.5588 L 58.5573 183.6800 L 58.4731 183.7935 L 58.3782 183.8982 L 58.2577 184.0187 L 58.2104 184.1511 L 58.1500 184.2788 L 58.0773 184.4000 L 57.9931 184.5135 L 57.8982 184.6182 L 57.7777 184.7387 L 57.7304 184.8711 L 57.6700 184.9988 L 57.5973 185.1200 L 57.5448 185.1908 L 57.5380 185.2180 L 57.4904 185.3511 L 57.4300 185.4788 L 57.3573 185.6000 L 57.3048 185.6708 L 57.2980 185.6980 L 57.2504 185.8311 L 57.1900 185.9588 L 57.1173 186.0800 L 57.1160 186.0818 L 57.1131 186.1411 L 57.0923 186.2809 L 57.0580 186.4180 L 57.0104 186.5511 L 56.9500 186.6788 L 56.8773 186.8000 L 56.8760 186.8018 L 56.8731 186.8611 L 56.8523 187.0009 L 56.8180 187.1380 L 56.7704 187.2711 L 56.7100 187.3988 L 56.6400 187.5155 L 56.6400 188.1600 L 56.6331 188.3011 L 56.6123 188.4409 L 56.5780 188.5780 L 56.5304 188.7111 L 56.4700 188.8388 L 56.4000 188.9555 L 56.4000 189.1200 L 56.3931 189.2611 L 56.3723 189.4009 L 56.3380 189.5380 L 56.2904 189.6711 L 56.2300 189.7988 L 56.1600 189.9155 L 56.1600 190.4845 L 56.2300 190.6012 L 56.2904 190.7289 L 56.3380 190.8620 L 56.3723 190.9991 L 56.3931 191.1389 L 56.4000 191.2800 L 56.4000 191.4445 L 56.4700 191.5612 L 56.5304 191.6889 L 56.5780 191.8220 L 56.5848 191.8492 L 56.6373 191.9200 L 56.7100 192.0412 L 56.7704 192.1689 L 56.8180 192.3020 L 56.8248 192.3292 L 56.8773 192.4000 L 56.9500 192.5212 L 57.0104 192.6489 L 57.0577 192.7813 L 57.1782 192.9018 L 57.2731 193.0065 L 57.3573 193.1200 L 57.4300 193.2412 L 57.4904 193.3689 L 57.5380 193.5020 L 57.5723 193.6391 L 57.5931 193.7789 L 57.6000 193.9200 L 57.6000 194.1600 L 57.5931 194.3011 L 57.5723 194.4409 L 57.5380 194.5780 L 57.4904 194.7111 L 57.4300 194.8388 L 57.3600 194.9555 L 57.3600 195.1200 L 57.3531 195.2611 L 57.3323 195.4009 L 57.2980 195.5380 L 57.2504 195.6711 L 57.1900 195.7988 L 57.1653 195.8400 L 57.1900 195.8812 L 57.2504 196.0089 L 57.2980 196.1420 L 57.3323 196.2791 L 57.3531 196.4189 L 57.3540 196.4375 L 57.4182 196.5018 L 57.5131 196.6065 L 57.5973 196.7200 L 57.6700 196.8412 L 57.7304 196.9689 L 57.7780 197.1020 L 57.8123 197.2391 L 57.8331 197.3789 L 57.8400 197.5200 L 57.8400 199.2000 L 57.8331 199.3411 L 57.8123 199.4809 L 57.7780 199.6180 L 57.7304 199.7511 L 57.6700 199.8788 L 57.6000 199.9955 L 57.6000 200.5645 L 57.6700 200.6812 L 57.7304 200.8089 L 57.7777 200.9413 L 57.8982 201.0618 L 57.9931 201.1665 L 58.0773 201.2800 L 58.1500 201.4012 L 58.2104 201.5289 L 58.2577 201.6613 L 58.3782 201.7818 L 58.4731 201.8865 L 58.5573 202.0000 L 58.6300 202.1212 L 58.6904 202.2489 L 58.7380 202.3820 L 58.7723 202.5191 L 58.7931 202.6589 L 58.8000 202.8000 L 58.8000 203.7600 L 58.7931 203.9011 L 58.7723 204.0409 L 58.7380 204.1780 L 58.6904 204.3111 L 58.6300 204.4388 L 58.5600 204.5555 L 58.5600 204.6445 L 58.6300 204.7612 L 58.6904 204.8889 L 58.7380 205.0220 L 58.7723 205.1591 L 58.7931 205.2989 L 58.8000 205.4400 L 58.7931 205.5811 L 58.7723 205.7209 L 58.7380 205.8580 L 58.6904 205.9911 L 58.6300 206.1188 L 58.5573 206.2400 L 58.4731 206.3535 L 58.3782 206.4582 L 58.1382 206.6982 L 58.0335 206.7931 L 57.9200 206.8773 L 57.7988 206.9500 L 57.6711 207.0104 L 57.5380 207.0580 L 57.4009 207.0923 L 57.2611 207.1131 L 57.1200 207.1200 L 10.0800 207.1200 L 9.9389 207.1131 L 9.7991 207.0923 L 9.6620 207.0580 L 9.5289 207.0104 L 9.4012 206.9500 L 9.2800 206.8773 L 9.1665 206.7931 L 9.0618 206.6982 L 8.5818 206.2182 L 8.4869 206.1135 L 8.4027 206.0000 L 8.3300 205.8788 L 8.2696 205.7511 L 8.2220 205.6180 L 8.1877 205.4809 L 8.1669 205.3411 L 8.1600 205.2000 L 8.1600 168.0000 L 8.1669 167.8589 L 8.1877 167.7191 L 8.2220 167.5820 L 8.2696 167.4489 L 8.3300 167.3212 L 8.4027 167.2000 L 8.4552 167.1292 Z" fill="none" stroke="black" stroke-width="0.5" /></svg>