<?xml version="1.0" encoding="utf-8" ?>
<svg baseProfile="full" height="261" version="1.1" viewBox="0 0 189 261" width="189" xmlns="http://www.w3.org/2000/svg" xmlns:ev="http://www.w3.org/2001/xml-events" xmlns:xlink="http://www.w3.org/1999/xlink"><defs /><path d="M 4.5600 4.5600 L 184.3200 4.5600 L 184.3200 256.3200 L 4.5600 256.3200 L 4.5600 4.5600 Z M 18.4800 157.6800 L 18.7200 157.4400 L 19.2000 157.9200 L 19.2000 158.1600 L 19.6800 158.6400 L 19.6800 158.8800 L 20.4000 159.6000 L 20.4000 159.8400 L 21.1200 160.5600 L 21.1200 160.8000 L 22.3200 162.0000 L 22.3200 162.2400 L 23.5200 163.4400 L 23.5200 163.6800 L 24.7200 164.8800 L 24.7200 165.1200 L 26.4000 166.8000 L 26.4000 167.0400 L 27.8400 168.4800 L 27.8400 168.7200 L 28.3200 169.2000 L 28.3200 169.4400 L 29.2800 170.4000 L 29.2800 170.6400 L 29.7600 171.1200 L 29.7600 171.3600 L 30.0000 171.6000 L 30.0000 171.8400 L 30.7200 172.5600 L 30.7200 172.8000 L 31.2000 173.2800 L 31.2000 173.5200 L 31.9200 174.2400 L 31.9200 174.4800 L 32.4000 174.9600 L 32.4000 175.2000 L 33.1200 175.9200 L 33.1200 176.1600 L 33.3600 176.4000 L 33.3600 176.6400 L 33.8400 177.1200 L 33.8400 177.3600 L 34.0800 177.6000 L 34.0800 177.8400 L 34.5600 178.3200 L 34.5600 178.5600 L 35.0400 179.0400 L 35.0400 179.2800 L 35.2800 179.5200 L 35.2800 179.7600 L 35.7600 180.2400 L 35.7600 180.4800 L 37.2000 181.9200 L 37.2000 182.1600 L 37.9200 182.8800 L 37.9200 183.1200 L 38.4000 183.6000 L 38.4000 183.8400 L 38.6400 184.0800 L 38.6400 184.3200 L 39.1200 184.8000 L 39.1200 185.0400 L 39.3600 185.2800 L 39.3600 185.5200 L 39.8400 186.0000 L 39.8400 186.4800 L 40.0800 186.7200 L 40.0800 186.9600 L 40.3200 187.2000 L 40.3200 187.4400 L 40.5600 187.6800 L 40.5600 188.1600 L 40.8000 188.4000 L 40.8000 189.1200 L 41.0400 189.3600 L 41.0400 189.8400 L 41.2800 190.0800 L 41.2800 190.3200 L 41.5200 190.5600 L 41.5200 190.8000 L 41.7600 191.0400 L 41.7600 191.2800 L 42.0000 191.5200 L 42.0000 191.7600 L 42.4800 192.2400 L 42.4800 192.4800 L 46.0800 196.0800 L 46.0800 196.3200 L 47.0400 197.2800 L 47.0400 197.5200 L 47.2800 197.7600 L 47.2800 198.7200 L 47.5200 198.9600 L 47.5200 199.4400 L 47.7600 199.6800 L 47.7600 199.9200 L 48.4800 200.6400 L 48.4800 200.8800 L 48.9600 201.3600 L 48.9600 201.6000 L 49.4400 202.0800 L 49.4400 202.3200 L 49.6800 202.5600 L 49.6800 202.8000 L 50.1600 203.2800 L 50.1600 203.5200 L 51.6000 204.9600 L 51.6000 205.4400 L 51.3600 205.6800 L 10.0800 205.6800 L 9.6000 205.2000 L 9.6000 168.0000 L 9.8400 167.7600 L 9.8400 167.5200 L 10.3200 167.0400 L 10.5600 167.0400 L 12.0000 165.6000 L 12.2400 165.6000 L 12.2400 165.3600 L 12.4800 165.1200 L 12.7200 165.1200 L 13.4400 164.4000 L 13.4400 164.1600 L 14.8800 162.7200 L 14.8800 162.4800 L 15.8400 161.5200 L 15.8400 161.2800 L 16.5600 160.5600 L 16.5600 160.3200 L 17.0400 159.8400 L 17.0400 159.6000 L 17.7600 158.8800 L 17.7600 158.6400 L 18.4800 157.9200 L 18.4800 157.6800 Z M 168.9600 154.0800 L 169.2000 153.8400 L 169.6800 153.8400 L 169.9200 154.0800 L 170.4000 154.0800 L 170.6400 154.3200 L 171.8400 154.3200 L 172.0800 154.5600 L 173.2800 154.5600 L 173.5200 154.8000 L 174.2400 154.8000 L 174.4800 155.0400 L 175.6800 155.0400 L 175.9200 155.2800 L 177.6000 155.2800 L 177.8400 155.0400 L 178.0800 155.2800 L 178.3200 155.2800 L 178.5600 155.0400 L 179.0400 155.0400 L 179.2800 155.2800 L 179.2800 205.2000 L 178.8000 205.6800 L 133.9200 205.6800 L 133.6800 205.4400 L 133.6800 204.9600 L 133.4400 204.7200 L 133.4400 204.4800 L 133.2000 204.2400 L 133.2000 204.0000 L 132.9600 203.7600 L 132.9600 202.5600 L 132.7200 202.3200 L 132.7200 202.0800 L 132.4800 201.8400 L 132.4800 201.3600 L 133.6800 200.1600 L 133.6800 199.9200 L 134.4000 199.2000 L 134.4000 198.9600 L 134.8800 198.4800 L 134.8800 198.2400 L 135.3600 197.7600 L 135.6000 197.7600 L 135.8400 197.5200 L 136.3200 197.5200 L 136.5600 197.2800 L 136.8000 197.2800 L 137.2800 196.8000 L 137.5200 196.8000 L 138.0000 196.3200 L 138.2400 196.3200 L 138.7200 195.8400 L 138.9600 195.8400 L 139.6800 195.1200 L 139.9200 195.1200 L 140.6400 194.4000 L 140.8800 194.4000 L 141.6000 193.6800 L 141.8400 193.6800 L 144.4800 191.0400 L 144.4800 190.8000 L 144.7200 190.5600 L 144.7200 190.3200 L 145.2000 189.8400 L 145.2000 189.6000 L 145.4400 189.3600 L 145.4400 189.1200 L 145.6800 188.8800 L 145.6800 188.4000 L 145.9200 188.1600 L 145.9200 187.6800 L 146.1600 187.4400 L 146.1600 187.2000 L 146.4000 186.9600 L 146.4000 186.4800 L 146.6400 186.2400 L 146.6400 186.0000 L 147.1200 185.5200 L 147.1200 185.2800 L 147.3600 185.0400 L 147.3600 184.8000 L 147.6000 184.5600 L 147.6000 184.3200 L 148.0800 183.8400 L 148.0800 183.6000 L 148.5600 183.1200 L 148.5600 182.8800 L 149.0400 182.4000 L 149.0400 182.1600 L 150.0000 181.2000 L 150.0000 180.9600 L 150.9600 180.0000 L 150.9600 179.7600 L 151.4400 179.2800 L 151.4400 179.0400 L 152.4000 178.0800 L 152.4000 177.8400 L 152.8800 177.3600 L 152.8800 177.1200 L 154.0800 175.9200 L 154.0800 175.6800 L 155.2800 174.4800 L 155.2800 174.2400 L 156.4800 173.0400 L 156.4800 172.8000 L 157.2000 172.0800 L 157.2000 171.8400 L 157.9200 171.1200 L 157.9200 170.8800 L 158.6400 170.1600 L 158.6400 169.9200 L 159.1200 169.4400 L 159.1200 169.2000 L 159.8400 168.4800 L 159.8400 168.2400 L 160.3200 167.7600 L 160.3200 167.5200 L 160.8000 167.0400 L 160.8000 166.8000 L 161.2800 166.3200 L 161.2800 166.0800 L 161.7600 165.6000 L 161.7600 165.3600 L 162.2400 164.8800 L 162.2400 164.6400 L 162.4800 164.4000 L 162.4800 164.1600 L 162.9600 163.6800 L 162.9600 163.4400 L 163.4400 162.9600 L 163.4400 162.7200 L 163.9200 162.2400 L 163.9200 162.0000 L 164.4000 161.5200 L 164.4000 161.2800 L 164.8800 160.8000 L 164.8800 160.5600 L 165.3600 160.0800 L 165.3600 159.8400 L 165.8400 159.3600 L 165.8400 159.1200 L 166.3200 158.6400 L 166.3200 158.4000 L 166.5600 158.1600 L 166.5600 157.9200 L 167.0400 157.4400 L 167.0400 157.2000 L 167.5200 156.7200 L 167.5200 156.4800 L 167.7600 156.2400 L 167.7600 156.0000 L 168.0000 155.7600 L 168.0000 155.5200 L 168.4800 155.0400 L 168.4800 154.8000 L 168.9600 154.3200 L 168.9600 154.0800 Z M 126.9600 145.2000 L 127.4400 145.2000 L 127.6800 145.4400 L 128.4000 145.4400 L 128.6400 145.6800 L 129.3600 145.6800 L 129.6000 145.9200 L 130.3200 145.9200 L 130.5600 146.1600 L 131.2800 146.1600 L 131.5200 146.4000 L 132.2400 146.4000 L 132.4800 146.6400 L 133.2000 146.6400 L 133.4400 146.8800 L 133.9200 146.8800 L 134.1600 147.1200 L 134.8800 147.1200 L 135.1200 147.3600 L 136.0800 147.3600 L 136.3200 147.6000 L 137.2800 147.6000 L 137.5200 147.8400 L 139.2000 147.8400 L 139.4400 148.0800 L 141.3600 148.0800 L 141.6000 148.3200 L 143.0400 148.3200 L 143.2800 148.5600 L 144.9600 148.5600 L 145.2000 148.8000 L 145.6800 148.8000 L 145.9200 149.0400 L 146.6400 149.0400 L 146.8800 149.2800 L 147.6000 149.2800 L 147.8400 149.5200 L 148.8000 149.5200 L 149.0400 149.7600 L 150.0000 149.7600 L 150.2400 150.0000 L 151.2000 150.0000 L 151.4400 150.2400 L 151.9200 150.2400 L 152.1600 150.4800 L 152.1600 151.2000 L 151.9200 151.4400 L 151.9200 151.9200 L 151.6800 152.1600 L 151.6800 152.6400 L 151.4400 152.8800 L 151.4400 153.3600 L 151.2000 153.6000 L 151.2000 153.8400 L 150.9600 154.0800 L 150.9600 154.3200 L 150.7200 154.5600 L 150.7200 155.0400 L 150.4800 155.2800 L 150.4800 155.5200 L 150.2400 155.7600 L 150.2400 156.0000 L 150.0000 156.2400 L 150.0000 156.4800 L 149.5200 156.9600 L 149.5200 157.2000 L 149.2800 157.4400 L 149.2800 157.6800 L 149.0400 157.9200 L 149.0400 158.1600 L 148.8000 158.4000 L 148.8000 158.6400 L 148.5600 158.8800 L 148.5600 159.1200 L 148.0800 159.6000 L 148.0800 159.8400 L 147.8400 160.0800 L 147.8400 160.3200 L 147.3600 160.8000 L 147.3600 161.0400 L 146.6400 161.7600 L 146.6400 162.0000 L 146.1600 162.4800 L 146.1600 162.7200 L 145.6800 163.2000 L 145.6800 163.4400 L 145.4400 163.6800 L 145.4400 163.9200 L 145.2000 164.1600 L 145.2000 164.4000 L 144.7200 164.8800 L 144.7200 165.1200 L 144.4800 165.3600 L 144.4800 165.6000 L 144.2400 165.8400 L 144.2400 166.0800 L 144.0000 166.3200 L 144.0000 166.5600 L 143.7600 166.8000 L 143.7600 167.0400 L 143.0400 167.7600 L 143.0400 168.0000 L 142.8000 168.2400 L 142.8000 168.4800 L 142.5600 168.7200 L 142.5600 168.9600 L 142.3200 169.2000 L 142.3200 169.4400 L 141.8400 169.9200 L 141.8400 170.1600 L 141.1200 170.8800 L 141.1200 171.1200 L 140.6400 171.6000 L 140.6400 171.8400 L 139.9200 172.5600 L 139.9200 172.8000 L 139.4400 173.2800 L 139.4400 173.5200 L 138.9600 174.0000 L 138.9600 174.2400 L 137.7600 175.4400 L 137.5200 175.4400 L 137.0400 175.9200 L 136.8000 175.9200 L 136.3200 176.4000 L 136.0800 176.4000 L 135.8400 176.6400 L 135.6000 176.6400 L 135.3600 176.8800 L 134.8800 176.8800 L 134.6400 177.1200 L 134.1600 177.1200 L 133.9200 177.3600 L 133.2000 177.3600 L 132.9600 177.6000 L 132.4800 177.6000 L 132.2400 177.8400 L 131.7600 177.8400 L 131.5200 178.0800 L 131.2800 178.0800 L 131.0400 177.8400 L 131.0400 176.8800 L 131.2800 176.6400 L 131.2800 175.4400 L 131.5200 175.2000 L 131.5200 174.2400 L 131.7600 174.0000 L 131.7600 171.1200 L 131.5200 170.8800 L 131.5200 169.9200 L 131.2800 169.6800 L 131.2800 168.4800 L 131.0400 168.2400 L 131.0400 167.5200 L 130.8000 167.2800 L 130.8000 166.0800 L 130.5600 165.8400 L 130.5600 165.3600 L 130.3200 165.1200 L 130.3200 163.9200 L 130.0800 163.6800 L 130.0800 162.9600 L 129.8400 162.7200 L 129.8400 161.7600 L 129.6000 161.5200 L 129.6000 160.5600 L 129.3600 160.3200 L 129.3600 159.6000 L 129.1200 159.3600 L 129.1200 158.4000 L 128.8800 158.1600 L 128.8800 157.4400 L 128.6400 157.2000 L 128.6400 156.4800 L 128.4000 156.2400 L 128.4000 155.7600 L 128.1600 155.5200 L 128.1600 155.0400 L 127.9200 154.8000 L 127.9200 153.8400 L 127.6800 153.6000 L 127.6800 153.1200 L 127.4400 152.8800 L 127.4400 151.9200 L 127.2000 151.6800 L 127.2000 151.4400 L 126.9600 151.2000 L 126.9600 150.9600 L 126.7200 150.7200 L 126.7200 150.2400 L 126.4800 150.0000 L 126.4800 149.2800 L 126.2400 149.0400 L 126.2400 147.8400 L 126.4800 147.6000 L 126.4800 145.6800 L 126.9600 145.2000 Z M 48.0000 132.0000 L 48.2400 132.2400 L 48.2400 132.4800 L 48.4800 132.7200 L 48.4800 132.9600 L 48.9600 133.4400 L 48.9600 133.9200 L 49.2000 134.1600 L 49.2000 134.6400 L 49.4400 134.8800 L 49.4400 135.1200 L 49.6800 135.3600 L 49.6800 135.6000 L 49.9200 135.8400 L 49.9200 136.0800 L 50.4000 136.5600 L 50.4000 136.8000 L 50.6400 137.0400 L 50.6400 137.5200 L 50.8800 137.7600 L 50.8800 138.0000 L 51.1200 138.2400 L 51.1200 138.4800 L 51.3600 138.7200 L 51.3600 139.2000 L 51.6000 139.4400 L 51.6000 139.6800 L 51.8400 139.9200 L 51.8400 140.1600 L 52.0800 140.4000 L 52.0800 140.6400 L 52.3200 140.8800 L 52.3200 141.3600 L 52.8000 141.8400 L 52.8000 142.3200 L 53.0400 142.5600 L 53.0400 142.8000 L 53.2800 143.0400 L 53.2800 145.2000 L 53.0400 145.4400 L 53.0400 151.9200 L 53.2800 152.1600 L 53.2800 153.8400 L 53.5200 154.0800 L 53.5200 156.4800 L 53.2800 156.7200 L 53.2800 158.1600 L 53.0400 158.4000 L 53.0400 159.8400 L 52.8000 160.0800 L 52.8000 161.2800 L 52.5600 161.5200 L 52.5600 163.2000 L 52.3200 163.4400 L 52.3200 165.1200 L 52.0800 165.3600 L 52.0800 168.4800 L 51.8400 168.7200 L 51.8400 172.5600 L 51.6000 172.8000 L 51.6000 175.9200 L 50.8800 176.6400 L 50.6400 176.4000 L 50.1600 176.4000 L 49.9200 176.1600 L 49.4400 176.1600 L 49.2000 175.9200 L 48.9600 175.9200 L 48.4800 175.4400 L 48.2400 175.4400 L 46.8000 174.0000 L 46.8000 173.7600 L 46.3200 173.2800 L 46.3200 173.0400 L 45.3600 172.0800 L 45.3600 171.8400 L 44.8800 171.3600 L 44.8800 171.1200 L 44.6400 170.8800 L 44.6400 170.6400 L 44.4000 170.4000 L 44.4000 170.1600 L 44.1600 169.9200 L 44.1600 169.6800 L 43.9200 169.4400 L 43.9200 169.2000 L 43.6800 168.9600 L 43.6800 168.7200 L 43.4400 168.4800 L 43.4400 168.2400 L 43.2000 168.0000 L 43.2000 167.7600 L 42.9600 167.5200 L 42.9600 167.2800 L 42.7200 167.0400 L 42.7200 166.8000 L 42.4800 166.5600 L 42.4800 166.3200 L 42.2400 166.0800 L 42.2400 165.8400 L 42.0000 165.6000 L 42.0000 165.3600 L 41.7600 165.1200 L 41.7600 164.8800 L 41.5200 164.6400 L 41.5200 164.4000 L 41.2800 164.1600 L 41.2800 163.9200 L 40.8000 163.4400 L 40.8000 163.2000 L 40.5600 162.9600 L 40.5600 162.7200 L 40.3200 162.4800 L 40.3200 162.2400 L 40.0800 162.0000 L 40.0800 161.7600 L 39.8400 161.5200 L 39.8400 161.2800 L 39.6000 161.0400 L 39.6000 160.8000 L 39.3600 160.5600 L 39.3600 160.3200 L 39.1200 160.0800 L 39.1200 159.8400 L 38.8800 159.6000 L 38.8800 159.3600 L 38.6400 159.1200 L 38.6400 158.8800 L 38.4000 158.6400 L 38.4000 158.4000 L 37.9200 157.9200 L 37.9200 157.4400 L 37.6800 157.2000 L 37.6800 156.7200 L 37.4400 156.4800 L 37.4400 156.2400 L 37.2000 156.0000 L 37.2000 155.5200 L 36.9600 155.2800 L 36.9600 154.8000 L 36.7200 154.5600 L 36.7200 154.0800 L 36.4800 153.8400 L 36.4800 152.4000 L 36.2400 152.1600 L 36.2400 151.2000 L 36.0000 150.9600 L 36.0000 149.0400 L 35.7600 148.8000 L 35.7600 148.0800 L 35.5200 147.8400 L 35.5200 146.8800 L 35.2800 146.6400 L 35.2800 146.1600 L 35.0400 145.9200 L 35.0400 145.4400 L 34.8000 145.2000 L 34.8000 144.9600 L 34.5600 144.7200 L 34.5600 144.4800 L 34.3200 144.2400 L 34.3200 144.0000 L 34.0800 143.7600 L 34.0800 143.5200 L 33.8400 143.2800 L 33.8400 143.0400 L 33.6000 142.8000 L 34.0800 142.3200 L 34.3200 142.3200 L 35.0400 141.6000 L 35.2800 141.6000 L 36.0000 140.8800 L 36.2400 140.8800 L 36.9600 140.1600 L 37.2000 140.1600 L 37.6800 139.6800 L 37.9200 139.6800 L 38.4000 139.2000 L 38.6400 139.2000 L 39.3600 138.4800 L 39.6000 138.4800 L 40.0800 138.0000 L 40.3200 138.0000 L 41.0400 137.2800 L 41.2800 137.2800 L 41.7600 136.8000 L 42.0000 136.8000 L 42.4800 136.3200 L 42.7200 136.3200 L 43.6800 135.3600 L 43.9200 135.3600 L 44.8800 134.4000 L 45.1200 134.4000 L 46.0800 133.4400 L 46.3200 133.4400 L 47.2800 132.4800 L 47.5200 132.4800 L 48.0000 132.0000 Z M 44.6400 118.3200 L 45.6000 118.3200 L 46.0800 118.8000 L 46.0800 119.0400 L 46.3200 119.2800 L 46.0800 119.5200 L 45.3600 119.5200 L 45.1200 119.7600 L 44.8800 119.7600 L 44.6400 120.0000 L 44.1600 120.0000 L 43.9200 120.2400 L 43.4400 120.2400 L 43.2000 120.0000 L 44.1600 119.0400 L 44.1600 118.8000 L 44.6400 118.3200 Z M 132.7200 113.0400 L 132.9600 112.8000 L 133.2000 112.8000 L 133.4400 113.0400 L 133.6800 113.0400 L 133.9200 113.2800 L 133.9200 113.5200 L 135.8400 115.4400 L 136.0800 115.4400 L 136.3200 115.6800 L 136.3200 115.9200 L 136.5600 115.9200 L 138.4800 117.8400 L 138.7200 117.8400 L 139.9200 119.0400 L 140.1600 119.0400 L 140.8800 119.7600 L 141.1200 119.7600 L 142.0800 120.7200 L 142.3200 120.7200 L 143.0400 121.4400 L 143.2800 121.4400 L 144.4800 122.6400 L 144.7200 122.6400 L 145.4400 123.3600 L 145.6800 123.3600 L 146.8800 124.5600 L 147.1200 124.5600 L 148.0800 125.5200 L 148.3200 125.5200 L 148.8000 126.0000 L 149.0400 126.0000 L 149.7600 126.7200 L 150.0000 126.7200 L 150.4800 127.2000 L 150.7200 127.2000 L 151.2000 127.6800 L 151.4400 127.6800 L 151.6800 127.9200 L 151.9200 127.9200 L 152.4000 128.4000 L 152.6400 128.4000 L 152.8800 128.6400 L 153.1200 128.6400 L 153.3600 128.8800 L 153.6000 128.8800 L 154.0800 129.3600 L 154.3200 129.3600 L 154.8000 129.8400 L 154.5600 130.0800 L 154.3200 130.0800 L 154.0800 130.3200 L 153.8400 130.3200 L 153.6000 130.5600 L 153.1200 130.5600 L 152.8800 130.8000 L 152.6400 130.8000 L 152.4000 131.0400 L 152.1600 131.0400 L 151.9200 131.2800 L 151.6800 131.2800 L 151.4400 131.5200 L 151.2000 131.5200 L 150.9600 131.7600 L 150.4800 131.7600 L 150.2400 132.0000 L 150.0000 132.0000 L 149.7600 132.2400 L 149.5200 132.2400 L 149.2800 132.4800 L 148.8000 132.4800 L 148.5600 132.7200 L 148.3200 132.7200 L 148.0800 132.9600 L 147.6000 132.9600 L 147.3600 133.2000 L 147.1200 133.2000 L 146.8800 133.4400 L 146.6400 133.4400 L 146.4000 133.6800 L 146.1600 133.6800 L 145.9200 133.9200 L 145.4400 133.9200 L 145.2000 134.1600 L 144.9600 134.1600 L 144.7200 134.4000 L 144.2400 134.4000 L 144.0000 134.6400 L 143.7600 134.6400 L 143.5200 134.8800 L 143.2800 134.8800 L 143.0400 135.1200 L 142.5600 135.1200 L 142.3200 135.3600 L 142.0800 135.3600 L 141.8400 135.6000 L 141.6000 135.6000 L 141.3600 135.8400 L 141.1200 135.8400 L 140.8800 136.0800 L 140.4000 136.0800 L 140.1600 136.3200 L 139.9200 136.3200 L 139.6800 136.5600 L 139.4400 136.5600 L 139.2000 136.8000 L 138.7200 136.8000 L 138.4800 137.0400 L 138.2400 137.0400 L 138.0000 137.2800 L 137.7600 137.2800 L 137.5200 137.5200 L 137.0400 137.5200 L 136.8000 137.7600 L 136.5600 137.7600 L 136.3200 138.0000 L 136.0800 138.0000 L 135.8400 138.2400 L 135.3600 138.2400 L 135.1200 138.4800 L 134.8800 138.4800 L 134.6400 138.7200 L 134.4000 138.7200 L 134.1600 138.9600 L 133.6800 138.9600 L 133.4400 139.2000 L 133.2000 139.2000 L 132.9600 139.4400 L 132.7200 139.4400 L 132.4800 139.6800 L 132.2400 139.6800 L 132.0000 139.9200 L 131.5200 139.9200 L 131.2800 140.1600 L 131.0400 140.1600 L 130.8000 140.4000 L 130.5600 140.4000 L 130.3200 140.6400 L 129.8400 140.6400 L 129.6000 140.8800 L 129.3600 140.8800 L 129.1200 141.1200 L 128.6400 141.1200 L 127.9200 141.8400 L 127.9200 142.3200 L 127.4400 142.8000 L 126.9600 142.8000 L 126.7200 142.5600 L 126.7200 138.9600 L 126.4800 138.7200 L 126.4800 138.2400 L 126.7200 138.0000 L 126.7200 137.5200 L 126.9600 137.2800 L 126.9600 137.0400 L 127.2000 136.8000 L 127.2000 136.3200 L 127.4400 136.0800 L 127.4400 135.8400 L 127.6800 135.6000 L 127.6800 135.1200 L 127.9200 134.8800 L 127.9200 134.4000 L 128.1600 134.1600 L 128.1600 133.9200 L 128.4000 133.6800 L 128.4000 133.4400 L 128.6400 133.2000 L 128.6400 132.9600 L 130.0800 131.5200 L 130.3200 131.5200 L 130.3200 131.2800 L 130.5600 131.0400 L 130.5600 130.5600 L 130.8000 130.3200 L 130.8000 128.6400 L 130.5600 128.4000 L 130.8000 128.1600 L 130.8000 127.9200 L 131.0400 127.6800 L 131.0400 127.2000 L 131.2800 126.9600 L 131.0400 126.7200 L 131.2800 126.4800 L 131.2800 126.2400 L 131.5200 126.0000 L 131.5200 123.8400 L 131.2800 123.6000 L 131.2800 122.1600 L 131.0400 121.9200 L 131.0400 120.4800 L 130.8000 120.2400 L 130.8000 118.0800 L 131.0400 117.8400 L 131.0400 117.3600 L 131.2800 117.1200 L 131.2800 116.6400 L 131.5200 116.4000 L 131.5200 116.1600 L 131.7600 115.9200 L 131.7600 115.4400 L 132.0000 115.2000 L 132.0000 114.7200 L 132.2400 114.4800 L 132.2400 114.0000 L 132.4800 113.7600 L 132.4800 113.5200 L 132.7200 113.2800 L 132.7200 113.0400 Z M 9.6000 10.0800 L 9.8400 9.8400 L 179.0400 9.8400 L 179.2800 10.0800 L 179.2800 119.0400 L 178.8000 119.5200 L 178.5600 119.5200 L 178.3200 119.7600 L 178.0800 119.7600 L 177.8400 120.0000 L 177.6000 120.0000 L 177.1200 119.5200 L 177.1200 119.2800 L 176.4000 118.5600 L 176.4000 118.3200 L 174.7200 116.6400 L 174.7200 116.4000 L 171.1200 112.8000 L 171.1200 112.5600 L 166.3200 107.7600 L 166.0800 107.7600 L 164.1600 105.8400 L 163.9200 105.8400 L 162.9600 104.8800 L 162.7200 104.8800 L 162.0000 104.1600 L 161.7600 104.1600 L 161.0400 103.4400 L 160.8000 103.4400 L 160.0800 102.7200 L 159.8400 102.7200 L 159.3600 102.2400 L 159.1200 102.2400 L 158.8800 102.0000 L 158.6400 102.0000 L 158.1600 101.5200 L 157.9200 101.5200 L 157.4400 101.0400 L 157.2000 101.0400 L 156.7200 100.5600 L 156.4800 100.5600 L 156.0000 100.0800 L 155.7600 100.0800 L 155.5200 99.8400 L 155.2800 99.8400 L 154.8000 99.3600 L 154.5600 99.3600 L 154.0800 98.8800 L 153.8400 98.8800 L 152.6400 97.6800 L 152.6400 97.4400 L 152.1600 96.9600 L 152.1600 96.7200 L 151.9200 96.4800 L 151.9200 96.2400 L 151.6800 96.0000 L 151.6800 95.7600 L 151.4400 95.5200 L 151.4400 95.2800 L 150.9600 94.8000 L 150.9600 94.5600 L 150.7200 94.3200 L 150.7200 94.0800 L 150.4800 93.8400 L 150.4800 93.6000 L 150.0000 93.1200 L 150.0000 92.8800 L 149.2800 92.1600 L 149.2800 91.9200 L 148.8000 91.4400 L 148.8000 91.2000 L 148.3200 90.7200 L 148.3200 90.4800 L 146.4000 88.5600 L 146.4000 88.3200 L 145.2000 87.1200 L 144.9600 87.1200 L 144.0000 86.1600 L 143.7600 86.1600 L 143.0400 85.4400 L 142.8000 85.4400 L 142.3200 84.9600 L 142.0800 84.9600 L 141.6000 84.4800 L 141.3600 84.4800 L 141.1200 84.2400 L 140.8800 84.2400 L 140.4000 83.7600 L 140.1600 83.7600 L 139.9200 83.5200 L 139.6800 83.5200 L 139.4400 83.2800 L 139.2000 83.2800 L 138.9600 83.0400 L 138.7200 83.0400 L 138.4800 82.8000 L 138.2400 82.8000 L 138.0000 82.5600 L 137.5200 82.5600 L 137.2800 82.3200 L 137.0400 82.3200 L 136.8000 82.0800 L 136.3200 82.0800 L 136.0800 81.8400 L 135.6000 81.8400 L 135.3600 81.6000 L 134.6400 81.6000 L 134.4000 81.3600 L 133.4400 81.3600 L 133.2000 81.1200 L 131.0400 81.1200 L 130.8000 80.8800 L 129.1200 80.8800 L 128.8800 80.6400 L 127.2000 80.6400 L 126.9600 80.4000 L 125.5200 80.4000 L 125.2800 80.1600 L 123.6000 80.1600 L 123.3600 79.9200 L 122.4000 79.9200 L 122.1600 79.6800 L 121.6800 79.6800 L 121.2000 79.2000 L 120.9600 79.2000 L 120.0000 78.2400 L 119.7600 78.2400 L 118.5600 77.0400 L 118.5600 76.8000 L 118.0800 76.3200 L 118.0800 76.0800 L 117.6000 75.6000 L 117.1200 75.6000 L 116.8800 75.3600 L 116.1600 75.3600 L 115.9200 75.1200 L 115.6800 75.1200 L 115.4400 74.8800 L 114.9600 74.8800 L 114.7200 74.6400 L 114.2400 74.6400 L 114.0000 74.4000 L 113.7600 74.4000 L 113.5200 74.1600 L 113.2800 74.1600 L 112.5600 73.4400 L 111.6000 73.4400 L 111.3600 73.2000 L 111.1200 73.2000 L 110.8800 73.4400 L 110.1600 73.4400 L 109.9200 73.6800 L 108.9600 73.6800 L 108.7200 73.4400 L 108.2400 73.4400 L 108.0000 73.2000 L 107.5200 73.2000 L 107.2800 72.9600 L 106.8000 72.9600 L 106.5600 72.7200 L 106.3200 72.7200 L 106.0800 72.4800 L 105.6000 72.4800 L 105.3600 72.2400 L 104.1600 72.2400 L 103.9200 72.0000 L 103.4400 72.0000 L 103.2000 71.7600 L 102.7200 71.7600 L 102.4800 71.5200 L 102.0000 71.5200 L 101.7600 71.2800 L 101.2800 71.2800 L 101.0400 71.0400 L 99.6000 71.0400 L 99.3600 70.8000 L 99.1200 70.8000 L 98.8800 70.5600 L 98.8800 67.9200 L 98.6400 67.6800 L 98.6400 66.4800 L 98.4000 66.2400 L 98.4000 64.8000 L 98.1600 64.5600 L 98.1600 63.3600 L 97.9200 63.1200 L 97.9200 62.6400 L 97.6800 62.4000 L 97.6800 61.4400 L 97.4400 61.2000 L 98.1600 60.4800 L 99.6000 60.4800 L 99.8400 60.2400 L 100.0800 60.2400 L 100.0800 60.0000 L 100.3200 59.7600 L 100.3200 59.5200 L 100.5600 59.2800 L 100.5600 59.0400 L 100.8000 58.8000 L 100.8000 58.5600 L 101.5200 57.8400 L 101.5200 57.6000 L 102.2400 56.8800 L 102.2400 56.6400 L 103.2000 55.6800 L 103.4400 55.6800 L 103.9200 55.2000 L 104.1600 55.2000 L 104.1600 54.9600 L 104.8800 54.2400 L 105.1200 54.2400 L 105.8400 53.5200 L 105.8400 49.9200 L 106.0800 49.6800 L 106.0800 49.2000 L 106.3200 48.9600 L 106.3200 48.4800 L 106.5600 48.2400 L 106.5600 48.0000 L 106.8000 47.7600 L 106.8000 47.5200 L 107.0400 47.2800 L 107.0400 47.0400 L 107.2800 46.8000 L 107.2800 46.3200 L 107.5200 46.0800 L 107.5200 45.6000 L 107.2800 45.3600 L 107.2800 44.1600 L 107.5200 43.9200 L 107.5200 42.4800 L 107.2800 42.2400 L 107.2800 41.5200 L 107.0400 41.2800 L 107.0400 41.0400 L 106.8000 40.8000 L 106.8000 40.3200 L 106.5600 40.0800 L 106.5600 35.2800 L 106.3200 35.0400 L 106.3200 34.3200 L 105.8400 33.8400 L 105.8400 33.6000 L 105.6000 33.3600 L 105.6000 32.6400 L 105.3600 32.4000 L 105.3600 31.9200 L 105.1200 31.6800 L 105.1200 30.0000 L 104.4000 29.2800 L 104.1600 29.2800 L 103.6800 28.8000 L 103.6800 28.5600 L 103.4400 28.3200 L 103.4400 27.6000 L 102.4800 26.6400 L 102.4800 26.4000 L 101.5200 25.4400 L 101.5200 24.9600 L 101.2800 24.7200 L 101.0400 24.7200 L 100.8000 24.4800 L 100.3200 24.4800 L 99.8400 24.0000 L 99.8400 23.7600 L 99.3600 23.2800 L 99.3600 23.0400 L 99.1200 22.8000 L 99.1200 21.6000 L 98.8800 21.3600 L 98.6400 21.3600 L 98.4000 21.1200 L 96.0000 21.1200 L 95.7600 20.8800 L 95.5200 20.8800 L 94.8000 20.1600 L 94.5600 20.1600 L 94.0800 19.6800 L 93.6000 19.6800 L 93.3600 19.4400 L 93.1200 19.4400 L 92.8800 19.2000 L 92.6400 19.2000 L 92.4000 18.9600 L 92.1600 18.9600 L 91.9200 18.7200 L 90.7200 18.7200 L 90.4800 18.4800 L 90.0000 18.4800 L 89.7600 18.2400 L 89.5200 18.2400 L 89.2800 18.0000 L 89.0400 18.0000 L 88.8000 17.7600 L 88.5600 17.7600 L 88.0800 17.2800 L 87.8400 17.2800 L 87.6000 17.0400 L 86.8800 17.0400 L 86.6400 16.8000 L 85.6800 16.8000 L 85.4400 16.5600 L 84.9600 16.5600 L 84.7200 16.8000 L 84.0000 16.8000 L 83.7600 17.0400 L 82.3200 17.0400 L 82.0800 17.2800 L 81.3600 17.2800 L 81.1200 17.5200 L 80.8800 17.5200 L 80.6400 17.7600 L 79.9200 17.7600 L 79.6800 18.0000 L 78.4800 18.0000 L 78.2400 18.2400 L 78.0000 18.2400 L 77.7600 18.4800 L 77.2800 18.4800 L 77.0400 18.7200 L 76.8000 18.7200 L 76.5600 18.9600 L 76.0800 18.9600 L 75.8400 19.2000 L 75.6000 19.2000 L 75.3600 19.4400 L 75.1200 19.4400 L 74.8800 19.6800 L 74.6400 19.6800 L 74.6400 19.9200 L 74.1600 20.4000 L 74.1600 20.8800 L 73.9200 21.1200 L 73.9200 21.6000 L 72.4800 23.0400 L 72.2400 23.0400 L 71.2800 24.0000 L 71.0400 24.0000 L 70.8000 24.2400 L 70.8000 24.4800 L 70.0800 25.2000 L 69.8400 25.2000 L 69.6000 25.4400 L 69.6000 25.6800 L 68.6400 26.6400 L 68.4000 26.6400 L 68.1600 26.8800 L 67.9200 26.8800 L 67.6800 27.1200 L 67.6800 27.6000 L 67.4400 27.8400 L 67.4400 28.0800 L 66.9600 28.5600 L 66.9600 28.8000 L 66.7200 29.0400 L 66.7200 30.0000 L 66.4800 30.2400 L 66.4800 31.6800 L 66.2400 31.9200 L 66.2400 32.6400 L 66.0000 32.8800 L 66.0000 33.6000 L 65.7600 33.8400 L 65.7600 34.3200 L 65.5200 34.5600 L 65.5200 34.8000 L 65.2800 35.0400 L 65.2800 35.2800 L 65.0400 35.5200 L 65.0400 37.2000 L 64.8000 37.4400 L 64.8000 37.9200 L 63.6000 39.1200 L 63.6000 39.8400 L 64.0800 40.3200 L 64.0800 40.5600 L 64.3200 40.8000 L 64.3200 44.6400 L 64.5600 44.8800 L 64.5600 45.6000 L 64.8000 45.8400 L 64.8000 46.3200 L 65.7600 47.2800 L 65.7600 51.3600 L 66.0000 51.6000 L 66.0000 52.3200 L 66.2400 52.5600 L 66.2400 53.2800 L 66.4800 53.5200 L 66.4800 54.0000 L 66.7200 54.2400 L 66.7200 55.2000 L 66.9600 55.4400 L 66.9600 58.3200 L 66.7200 58.5600 L 66.7200 59.7600 L 67.4400 60.4800 L 67.4400 60.9600 L 67.6800 61.2000 L 67.6800 61.9200 L 67.9200 62.1600 L 67.9200 62.8800 L 68.1600 63.1200 L 68.1600 63.6000 L 68.4000 63.8400 L 68.4000 64.0800 L 68.6400 64.3200 L 68.6400 64.8000 L 68.8800 65.0400 L 68.8800 65.2800 L 69.1200 65.5200 L 69.1200 65.7600 L 69.3600 66.0000 L 69.3600 69.1200 L 69.1200 69.3600 L 69.1200 73.4400 L 68.8800 73.6800 L 68.8800 73.9200 L 68.6400 74.1600 L 68.4000 74.1600 L 68.1600 74.4000 L 67.9200 74.4000 L 67.6800 74.6400 L 67.4400 74.6400 L 66.4800 75.6000 L 66.2400 75.6000 L 66.0000 75.8400 L 65.5200 75.8400 L 65.2800 76.0800 L 64.5600 76.0800 L 64.3200 76.3200 L 64.0800 76.3200 L 63.8400 76.5600 L 63.6000 76.5600 L 63.3600 76.8000 L 63.1200 76.8000 L 62.8800 77.0400 L 62.6400 77.0400 L 62.4000 77.2800 L 61.9200 77.2800 L 61.6800 77.5200 L 60.9600 77.5200 L 60.7200 77.7600 L 60.0000 77.7600 L 59.7600 78.0000 L 58.5600 78.0000 L 58.3200 78.2400 L 57.8400 78.2400 L 57.6000 78.4800 L 57.3600 78.4800 L 57.1200 78.7200 L 56.8800 78.7200 L 55.6800 79.9200 L 55.4400 79.9200 L 55.2000 80.1600 L 54.9600 80.1600 L 54.7200 80.4000 L 54.4800 80.4000 L 53.7600 81.1200 L 53.5200 81.1200 L 53.2800 80.8800 L 53.0400 80.8800 L 52.8000 81.1200 L 52.5600 81.1200 L 52.3200 81.3600 L 52.3200 82.5600 L 52.0800 82.8000 L 52.0800 83.0400 L 50.1600 84.9600 L 49.6800 84.9600 L 49.4400 85.2000 L 48.7200 85.2000 L 48.4800 85.4400 L 48.0000 85.4400 L 47.7600 85.6800 L 47.0400 85.6800 L 46.8000 85.9200 L 46.0800 85.9200 L 45.8400 86.1600 L 45.1200 86.1600 L 44.8800 86.4000 L 44.1600 86.4000 L 43.9200 86.6400 L 43.2000 86.6400 L 42.9600 86.8800 L 42.2400 86.8800 L 42.0000 87.1200 L 41.0400 87.1200 L 40.8000 87.3600 L 40.3200 87.3600 L 40.0800 87.6000 L 39.3600 87.6000 L 39.1200 87.8400 L 38.6400 87.8400 L 38.4000 88.0800 L 38.1600 88.0800 L 37.9200 88.3200 L 37.6800 88.3200 L 37.4400 88.5600 L 37.2000 88.5600 L 36.9600 88.8000 L 36.7200 88.8000 L 36.4800 89.0400 L 36.2400 89.0400 L 35.7600 89.5200 L 35.5200 89.5200 L 35.0400 90.0000 L 34.8000 90.0000 L 34.3200 90.4800 L 34.0800 90.4800 L 33.6000 90.9600 L 33.3600 90.9600 L 32.6400 91.6800 L 32.4000 91.6800 L 29.2800 94.8000 L 29.2800 95.0400 L 28.5600 95.7600 L 28.5600 96.0000 L 28.3200 96.2400 L 28.3200 96.4800 L 27.8400 96.9600 L 27.8400 97.2000 L 27.3600 97.6800 L 27.3600 97.9200 L 27.1200 98.1600 L 27.1200 98.6400 L 26.8800 98.8800 L 26.8800 99.1200 L 26.6400 99.3600 L 26.6400 99.8400 L 26.4000 100.0800 L 26.4000 100.5600 L 26.1600 100.8000 L 26.1600 101.2800 L 25.9200 101.5200 L 25.9200 102.0000 L 25.6800 102.2400 L 25.6800 102.7200 L 25.4400 102.9600 L 25.4400 104.1600 L 25.2000 104.4000 L 25.2000 106.3200 L 24.9600 106.5600 L 24.9600 106.8000 L 24.4800 107.2800 L 24.4800 107.5200 L 20.4000 111.6000 L 20.4000 111.8400 L 19.2000 113.0400 L 19.2000 113.2800 L 18.7200 113.7600 L 18.7200 114.0000 L 18.2400 114.4800 L 18.2400 114.7200 L 17.7600 115.2000 L 17.7600 115.4400 L 17.2800 115.9200 L 17.2800 116.1600 L 17.0400 116.4000 L 17.0400 116.6400 L 16.8000 116.8800 L 16.8000 117.1200 L 16.3200 117.6000 L 16.3200 117.8400 L 16.0800 118.0800 L 16.0800 118.3200 L 15.8400 118.5600 L 15.8400 118.8000 L 15.6000 119.0400 L 15.6000 119.2800 L 15.1200 119.7600 L 15.1200 120.0000 L 14.8800 120.2400 L 14.8800 120.4800 L 14.6400 120.7200 L 14.6400 120.9600 L 14.4000 121.2000 L 14.4000 121.4400 L 14.1600 121.6800 L 14.1600 121.9200 L 13.9200 122.1600 L 13.9200 122.4000 L 13.6800 122.6400 L 13.6800 122.8800 L 13.2000 123.3600 L 13.2000 123.6000 L 12.9600 123.8400 L 12.9600 124.0800 L 12.7200 124.3200 L 12.7200 124.5600 L 12.4800 124.8000 L 12.4800 125.2800 L 12.2400 125.5200 L 9.8400 125.5200 L 9.6000 125.2800 L 9.6000 10.0800 Z" fill="none" stroke="black" stroke-width="0.5" /></svg>