<?xml version="1.0" encoding="utf-8" ?>
<svg baseProfile="full" height="261" version="1.1" viewBox="0 0 189 261" width="189" xmlns="http://www.w3.org/2000/svg" xmlns:ev="http://www.w3.org/2001/xml-events" xmlns:xlink="http://www.w3.org/1999/xlink"><defs /><path d="M 0.0000 0.2400 L 0.0000 260.6400 L 188.6400 260.6400 L 188.6400 0.2400 L 0.0000 0.2400 Z M 51.4223 203.5813 L 51.4696 203.4489 L 51.5300 203.3212 L 51.6027 203.2000 L 51.6869 203.0865 L 51.7818 202.9818 L 52.9818 201.7818 L 53.0865 201.6869 L 53.2000 201.6027 L 53.3212 201.5300 L 53.4489 201.4696 L 53.5820 201.4220 L 53.6092 201.4152 L 53.6800 201.3627 L 53.8012 201.2900 L 53.9289 201.2296 L 54.0620 201.1820 L 54.1991 201.1477 L 54.3389 201.1269 L 54.4800 201.1200 L 55.3645 201.1200 L 55.4812 201.0500 L 55.6089 200.9896 L 55.7420 200.9420 L 55.8791 200.9077 L 56.0189 200.8869 L 56.1600 200.8800 L 56.3245 200.8800 L 56.4412 200.8100 L 56.5287 200.7687 L 56.5700 200.6812 L 56.6427 200.5600 L 56.6952 200.4892 L 56.7020 200.4620 L 56.7496 200.3289 L 56.8100 200.2012 L 56.8827 200.0800 L 56.9669 199.9665 L 57.0618 199.8618 L 57.1823 199.7413 L 57.2296 199.6089 L 57.2900 199.4812 L 57.3627 199.3600 L 57.4469 199.2465 L 57.5418 199.1418 L 57.7818 198.9018 L 57.8865 198.8069 L 58.0000 198.7227 L 58.1212 198.6500 L 58.2489 198.5896 L 58.3820 198.5420 L 58.4092 198.5352 L 58.4800 198.4827 L 58.5623 198.4333 L 58.5669 198.3389 L 58.5877 198.1991 L 58.6220 198.0620 L 58.6696 197.9289 L 58.7300 197.8012 L 58.8000 197.6845 L 58.8000 197.2800 L 58.8069 197.1389 L 58.8277 196.9991 L 58.8620 196.8620 L 58.9096 196.7289 L 58.9700 196.6012 L 59.0427 196.4800 L 59.0440 196.4782 L 59.0469 196.4189 L 59.0677 196.2791 L 59.1020 196.1420 L 59.1496 196.0089 L 59.2100 195.8812 L 59.2827 195.7600 L 59.2840 195.7582 L 59.2869 195.6989 L 59.3077 195.5591 L 59.3420 195.4220 L 59.3896 195.2889 L 59.4500 195.1612 L 59.5227 195.0400 L 59.5752 194.9692 L 59.5820 194.9420 L 59.6296 194.8089 L 59.6900 194.6812 L 59.7627 194.5600 L 59.8469 194.4465 L 59.9418 194.3418 L 60.1818 194.1018 L 60.2865 194.0069 L 60.4000 193.9227 L 60.5212 193.8500 L 60.6489 193.7896 L 60.7820 193.7420 L 60.8092 193.7352 L 60.8800 193.6827 L 61.0012 193.6100 L 61.1289 193.5496 L 61.2613 193.5023 L 61.6800 193.0835 L 61.6800 190.8000 L 61.6869 190.6589 L 61.7077 190.5191 L 61.7420 190.3820 L 61.7896 190.2489 L 61.8500 190.1212 L 61.9227 190.0000 L 61.9240 189.9982 L 61.9269 189.9389 L 61.9477 189.7991 L 61.9820 189.6620 L 62.0296 189.5289 L 62.0900 189.4012 L 62.1600 189.2845 L 62.1600 188.8800 L 62.1669 188.7389 L 62.1877 188.5991 L 62.2220 188.4620 L 62.2696 188.3289 L 62.3300 188.2012 L 62.4000 188.0845 L 62.4000 187.9200 L 62.4069 187.7789 L 62.4277 187.6391 L 62.4620 187.5020 L 62.5096 187.3689 L 62.5700 187.2412 L 62.6400 187.1245 L 62.6400 186.9600 L 62.6469 186.8189 L 62.6677 186.6791 L 62.7020 186.5420 L 62.7496 186.4089 L 62.8100 186.2812 L 62.8827 186.1600 L 62.9352 186.0892 L 62.9420 186.0620 L 62.9896 185.9289 L 63.0500 185.8012 L 63.1227 185.6800 L 63.2069 185.5665 L 63.3018 185.4618 L 63.4223 185.3413 L 63.4696 185.2089 L 63.5300 185.0812 L 63.6027 184.9600 L 63.6552 184.8892 L 63.6620 184.8620 L 63.7096 184.7289 L 63.7700 184.6012 L 63.8427 184.4800 L 63.9269 184.3665 L 64.0218 184.2618 L 64.1423 184.1413 L 64.1896 184.0089 L 64.2500 183.8812 L 64.3227 183.7600 L 64.3240 183.7582 L 64.3269 183.6989 L 64.3477 183.5591 L 64.3820 183.4220 L 64.4296 183.2889 L 64.4900 183.1612 L 64.5627 183.0400 L 64.6469 182.9265 L 64.7418 182.8218 L 64.8623 182.7013 L 64.9096 182.5689 L 64.9700 182.4412 L 65.0427 182.3200 L 65.0952 182.2492 L 65.1020 182.2220 L 65.1496 182.0889 L 65.2100 181.9612 L 65.2827 181.8400 L 65.3352 181.7692 L 65.3420 181.7420 L 65.3896 181.6089 L 65.4500 181.4812 L 65.5227 181.3600 L 65.5752 181.2892 L 65.5820 181.2620 L 65.6296 181.1289 L 65.6900 181.0012 L 65.7627 180.8800 L 65.8152 180.8092 L 65.8220 180.7820 L 65.8696 180.6489 L 65.9300 180.5212 L 66.0027 180.4000 L 66.0552 180.3292 L 66.0620 180.3020 L 66.1096 180.1689 L 66.1700 180.0412 L 66.2427 179.9200 L 66.2952 179.8492 L 66.3020 179.8220 L 66.3496 179.6889 L 66.4100 179.5612 L 66.4827 179.4400 L 66.5352 179.3692 L 66.5420 179.3420 L 66.5896 179.2089 L 66.6500 179.0812 L 66.7227 178.9600 L 66.7752 178.8892 L 66.7820 178.8620 L 66.8296 178.7289 L 66.8900 178.6012 L 66.9627 178.4800 L 67.0152 178.4092 L 67.0220 178.3820 L 67.0696 178.2489 L 67.1300 178.1212 L 67.2027 178.0000 L 67.2552 177.9292 L 67.2620 177.9020 L 67.3096 177.7689 L 67.3700 177.6412 L 67.4427 177.5200 L 67.4952 177.4492 L 67.5020 177.4220 L 67.5496 177.2889 L 67.6100 177.1612 L 67.6827 177.0400 L 67.7352 176.9692 L 67.7420 176.9420 L 67.7896 176.8089 L 67.8500 176.6812 L 67.9227 176.5600 L 67.9240 176.5582 L 67.9269 176.4989 L 67.9477 176.3591 L 67.9820 176.2220 L 68.0296 176.0889 L 68.0900 175.9612 L 68.1627 175.8400 L 68.1640 175.8382 L 68.1669 175.7789 L 68.1877 175.6391 L 68.2220 175.5020 L 68.2696 175.3689 L 68.3300 175.2412 L 68.4027 175.1200 L 68.4552 175.0492 L 68.4620 175.0220 L 68.5096 174.8889 L 68.5700 174.7612 L 68.6427 174.6400 L 68.6440 174.6382 L 68.6469 174.5789 L 68.6677 174.4391 L 68.7020 174.3020 L 68.7496 174.1689 L 68.8100 174.0412 L 68.8827 173.9200 L 68.8840 173.9182 L 68.8869 173.8589 L 68.9077 173.7191 L 68.9420 173.5820 L 68.9896 173.4489 L 69.0500 173.3212 L 69.1227 173.2000 L 69.1240 173.1982 L 69.1269 173.1389 L 69.1477 172.9991 L 69.1820 172.8620 L 69.2296 172.7289 L 69.2900 172.6012 L 69.3627 172.4800 L 69.3640 172.4782 L 69.3669 172.4189 L 69.3877 172.2791 L 69.4220 172.1420 L 69.4696 172.0089 L 69.5300 171.8812 L 69.6027 171.7600 L 69.6869 171.6465 L 69.7818 171.5418 L 70.5018 170.8218 L 70.6065 170.7269 L 70.7200 170.6427 L 70.8412 170.5700 L 70.9689 170.5096 L 71.1020 170.4620 L 71.2391 170.4277 L 71.3789 170.4069 L 71.5200 170.4000 L 72.4045 170.4000 L 72.5212 170.3300 L 72.6489 170.2696 L 72.7820 170.2220 L 72.9191 170.1877 L 73.0589 170.1669 L 73.2000 170.1600 L 73.6045 170.1600 L 73.7212 170.0900 L 73.8489 170.0296 L 73.9820 169.9820 L 74.1191 169.9477 L 74.2589 169.9269 L 74.4000 169.9200 L 74.8800 169.9200 L 75.0211 169.9269 L 75.1609 169.9477 L 75.2980 169.9820 L 75.4311 170.0296 L 75.5588 170.0900 L 75.6800 170.1627 L 75.7935 170.2469 L 75.8982 170.3418 L 76.1382 170.5818 L 76.2331 170.6865 L 76.3173 170.8000 L 76.3900 170.9212 L 76.4504 171.0489 L 76.4980 171.1820 L 76.5323 171.3191 L 76.5531 171.4589 L 76.5600 171.6000 L 76.5600 171.8400 L 76.5531 171.9811 L 76.5323 172.1209 L 76.4980 172.2580 L 76.4504 172.3911 L 76.3900 172.5188 L 76.3173 172.6400 L 76.2648 172.7108 L 76.2580 172.7380 L 76.2104 172.8711 L 76.1500 172.9988 L 76.0773 173.1200 L 76.0248 173.1908 L 76.0180 173.2180 L 75.9704 173.3511 L 75.9100 173.4788 L 75.8373 173.6000 L 75.7531 173.7135 L 75.6582 173.8182 L 74.8177 174.6587 L 74.7704 174.7911 L 74.7100 174.9188 L 74.6373 175.0400 L 74.5531 175.1535 L 74.4582 175.2582 L 74.3377 175.3787 L 74.2904 175.5111 L 74.2300 175.6388 L 74.1573 175.7600 L 74.1048 175.8308 L 74.0980 175.8580 L 74.0504 175.9911 L 73.9900 176.1188 L 73.9173 176.2400 L 73.8331 176.3535 L 73.7382 176.4582 L 72.2982 177.8982 L 72.1935 177.9931 L 72.0800 178.0773 L 71.9588 178.1500 L 71.8311 178.2104 L 71.7600 178.2358 L 71.7600 178.3200 L 71.7531 178.4611 L 71.7323 178.6009 L 71.6980 178.7380 L 71.6504 178.8711 L 71.5900 178.9988 L 71.5200 179.1155 L 71.5200 179.2045 L 71.5900 179.3212 L 71.6504 179.4489 L 71.6980 179.5820 L 71.6980 179.5820 L 71.6980 179.5820 L 71.8311 179.6296 L 71.9588 179.6900 L 72.0755 179.7600 L 73.4400 179.7600 L 73.5811 179.7669 L 73.7209 179.7877 L 73.8580 179.8220 L 73.9911 179.8696 L 74.1188 179.9300 L 74.2400 180.0027 L 74.2418 180.0040 L 74.3011 180.0069 L 74.4409 180.0277 L 74.5780 180.0620 L 74.7111 180.1096 L 74.8388 180.1700 L 74.9600 180.2427 L 74.9618 180.2440 L 75.0211 180.2469 L 75.1609 180.2677 L 75.2980 180.3020 L 75.4311 180.3496 L 75.5588 180.4100 L 75.6800 180.4827 L 75.6818 180.4840 L 75.7411 180.4869 L 75.8809 180.5077 L 76.0180 180.5420 L 76.1511 180.5896 L 76.2788 180.6500 L 76.3955 180.7200 L 77.0400 180.7200 L 77.1811 180.7269 L 77.3209 180.7477 L 77.4580 180.7820 L 77.5911 180.8296 L 77.7188 180.8900 L 77.8400 180.9627 L 77.9535 181.0469 L 78.0582 181.1418 L 78.5382 181.6218 L 78.6331 181.7265 L 78.7173 181.8400 L 78.7900 181.9612 L 78.8504 182.0889 L 78.8980 182.2220 L 78.9323 182.3591 L 78.9531 182.4989 L 78.9600 182.6400 L 78.9600 183.4442 L 79.0311 183.4696 L 79.1588 183.5300 L 79.2800 183.6027 L 79.3508 183.6552 L 79.3780 183.6620 L 79.5111 183.7096 L 79.6388 183.7700 L 79.7600 183.8427 L 79.8735 183.9269 L 79.9782 184.0218 L 80.2182 184.2618 L 80.3131 184.3665 L 80.3973 184.4800 L 80.4700 184.6012 L 80.5304 184.7289 L 80.5780 184.8620 L 80.6123 184.9991 L 80.6331 185.1389 L 80.6400 185.2800 L 80.6400 185.7600 L 80.6331 185.9011 L 80.6123 186.0409 L 80.5780 186.1780 L 80.5304 186.3111 L 80.4700 186.4388 L 80.3973 186.5600 L 80.3448 186.6308 L 80.3380 186.6580 L 80.2904 186.7911 L 80.2300 186.9188 L 80.1573 187.0400 L 80.1048 187.1108 L 80.0980 187.1380 L 80.0504 187.2711 L 79.9900 187.3988 L 79.9173 187.5200 L 79.9160 187.5218 L 79.9131 187.5811 L 79.8923 187.7209 L 79.8580 187.8580 L 79.8104 187.9911 L 79.7500 188.1188 L 79.6773 188.2400 L 79.6760 188.2418 L 79.6731 188.3011 L 79.6523 188.4409 L 79.6180 188.5780 L 79.5704 188.7111 L 79.5100 188.8388 L 79.4400 188.9555 L 79.4400 189.3600 L 79.4331 189.5011 L 79.4123 189.6409 L 79.3780 189.7780 L 79.3304 189.9111 L 79.2700 190.0388 L 79.2000 190.1555 L 79.2000 191.7600 L 79.1931 191.9011 L 79.1723 192.0409 L 79.1380 192.1780 L 79.0904 192.3111 L 79.0300 192.4388 L 78.9600 192.5555 L 78.9600 195.1200 L 78.9531 195.2611 L 78.9323 195.4009 L 78.8980 195.5380 L 78.8504 195.6711 L 78.7900 195.7988 L 78.7173 195.9200 L 78.7160 195.9218 L 78.7131 195.9811 L 78.6923 196.1209 L 78.6580 196.2580 L 78.6104 196.3911 L 78.5500 196.5188 L 78.4800 196.6355 L 78.4800 198.1645 L 78.5500 198.2812 L 78.6104 198.4089 L 78.6580 198.5420 L 78.6648 198.5692 L 78.7173 198.6400 L 78.7900 198.7612 L 78.8504 198.8889 L 78.8980 199.0220 L 78.9323 199.1591 L 78.9531 199.2989 L 78.9600 199.4400 L 78.9600 199.8445 L 79.0300 199.9612 L 79.0904 200.0889 L 79.1380 200.2220 L 79.1723 200.3591 L 79.1931 200.4989 L 79.2000 200.6400 L 79.2000 200.8800 L 79.1931 201.0211 L 79.1723 201.1609 L 79.1380 201.2980 L 79.0904 201.4311 L 79.0300 201.5588 L 78.9573 201.6800 L 78.9048 201.7508 L 78.8980 201.7780 L 78.8504 201.9111 L 78.7900 202.0388 L 78.7173 202.1600 L 78.6331 202.2735 L 78.6231 202.2846 L 78.6577 202.3813 L 78.7782 202.5018 L 78.8731 202.6065 L 78.9573 202.7200 L 79.0300 202.8412 L 79.0904 202.9689 L 79.1380 203.1020 L 79.1723 203.2391 L 79.1931 203.3789 L 79.2000 203.5200 L 79.2000 204.9600 L 79.1931 205.1011 L 79.1723 205.2409 L 79.1380 205.3780 L 79.0904 205.5111 L 79.0300 205.6388 L 78.9573 205.7600 L 78.8731 205.8735 L 78.7782 205.9782 L 78.0582 206.6982 L 77.9535 206.7931 L 77.8400 206.8773 L 77.7188 206.9500 L 77.5911 207.0104 L 77.4580 207.0580 L 77.3209 207.0923 L 77.1811 207.1131 L 77.0400 207.1200 L 52.5600 207.1200 L 52.4189 207.1131 L 52.2791 207.0923 L 52.1420 207.0580 L 52.0089 207.0104 L 51.8812 206.9500 L 51.7600 206.8773 L 51.6465 206.7931 L 51.5418 206.6982 L 51.0618 206.2182 L 50.9669 206.1135 L 50.8827 206.0000 L 50.8100 205.8788 L 50.7496 205.7511 L 50.7020 205.6180 L 50.6677 205.4809 L 50.6469 205.3411 L 50.6400 205.2000 L 50.6400 204.9600 L 50.6469 204.8189 L 50.6677 204.6791 L 50.7020 204.5420 L 50.7496 204.4089 L 50.8100 204.2812 L 50.8827 204.1600 L 50.9669 204.0465 L 51.0618 203.9418 L 51.4223 203.5813 Z M 71.7600 165.0445 L 71.7600 164.8800 L 71.7669 164.7389 L 71.7877 164.5991 L 71.8220 164.4620 L 71.8696 164.3289 L 71.9300 164.2012 L 72.0000 164.0845 L 72.0000 163.9200 L 72.0069 163.7789 L 72.0277 163.6391 L 72.0620 163.5020 L 72.1096 163.3689 L 72.1700 163.2412 L 72.2400 163.1245 L 72.2400 161.5955 L 72.1700 161.4788 L 72.1096 161.3511 L 72.0620 161.2180 L 72.0277 161.0809 L 72.0069 160.9411 L 72.0000 160.8000 L 72.0000 160.1555 L 71.9300 160.0388 L 71.8696 159.9111 L 71.8220 159.7780 L 71.7877 159.6409 L 71.7669 159.5011 L 71.7600 159.3600 L 71.7600 156.4800 L 71.7669 156.3389 L 71.7877 156.1991 L 71.8220 156.0620 L 71.8696 155.9289 L 71.9300 155.8012 L 72.0000 155.6845 L 72.0000 155.0400 L 72.0069 154.8989 L 72.0277 154.7591 L 72.0620 154.6220 L 72.1096 154.4889 L 72.1700 154.3612 L 72.2400 154.2445 L 72.2400 152.1600 L 72.2469 152.0189 L 72.2677 151.8791 L 72.3020 151.7420 L 72.3496 151.6089 L 72.4100 151.4812 L 72.4800 151.3645 L 72.4800 150.4800 L 72.4869 150.3389 L 72.5077 150.1991 L 72.5420 150.0620 L 72.5896 149.9289 L 72.6500 149.8012 L 72.7227 149.6800 L 72.8069 149.5665 L 72.9018 149.4618 L 73.1418 149.2218 L 73.2465 149.1269 L 73.3600 149.0427 L 73.4812 148.9700 L 73.6089 148.9096 L 73.7420 148.8620 L 73.8791 148.8277 L 74.0189 148.8069 L 74.1600 148.8000 L 74.4000 148.8000 L 74.5411 148.8069 L 74.6809 148.8277 L 74.8180 148.8620 L 74.9511 148.9096 L 75.0788 148.9700 L 75.2000 149.0427 L 75.3135 149.1269 L 75.4182 149.2218 L 76.1382 149.9418 L 76.2331 150.0465 L 76.3173 150.1600 L 76.3900 150.2812 L 76.4504 150.4089 L 76.4980 150.5420 L 76.5048 150.5692 L 76.5573 150.6400 L 76.6300 150.7612 L 76.6904 150.8889 L 76.7380 151.0220 L 76.7723 151.1591 L 76.7931 151.2989 L 76.8000 151.4400 L 76.8000 152.5645 L 76.8700 152.6812 L 76.9304 152.8089 L 76.9780 152.9420 L 77.0123 153.0791 L 77.0331 153.2189 L 77.0400 153.3600 L 77.0400 153.7645 L 77.1100 153.8812 L 77.1704 154.0089 L 77.2180 154.1420 L 77.2523 154.2791 L 77.2731 154.4189 L 77.2760 154.4782 L 77.2773 154.4800 L 77.3500 154.6012 L 77.4104 154.7289 L 77.4580 154.8620 L 77.4923 154.9991 L 77.5131 155.1389 L 77.5160 155.1982 L 77.5173 155.2000 L 77.5900 155.3212 L 77.6504 155.4489 L 77.6980 155.5820 L 77.7323 155.7191 L 77.7531 155.8589 L 77.7560 155.9182 L 77.7573 155.9200 L 77.8300 156.0412 L 77.8904 156.1689 L 77.9380 156.3020 L 77.9448 156.3292 L 77.9973 156.4000 L 78.0700 156.5212 L 78.1304 156.6489 L 78.1777 156.7813 L 78.2982 156.9018 L 78.3931 157.0065 L 78.4773 157.1200 L 78.5500 157.2412 L 78.6104 157.3689 L 78.6580 157.5020 L 78.6648 157.5292 L 78.7173 157.6000 L 78.7900 157.7212 L 78.8504 157.8489 L 78.8980 157.9820 L 78.9323 158.1191 L 78.9531 158.2589 L 78.9560 158.3182 L 78.9573 158.3200 L 79.0300 158.4412 L 79.0904 158.5689 L 79.1380 158.7020 L 79.1723 158.8391 L 79.1931 158.9789 L 79.2000 159.1200 L 79.2000 159.5245 L 79.2700 159.6412 L 79.3304 159.7689 L 79.3780 159.9020 L 79.4123 160.0391 L 79.4331 160.1789 L 79.4400 160.3200 L 79.4400 160.4845 L 79.5100 160.6012 L 79.5704 160.7289 L 79.6180 160.8620 L 79.6523 160.9991 L 79.6731 161.1389 L 79.6800 161.2800 L 79.6800 161.9245 L 79.7500 162.0412 L 79.8104 162.1689 L 79.8580 162.3020 L 79.8923 162.4391 L 79.9131 162.5789 L 79.9200 162.7200 L 79.9200 162.9600 L 79.9131 163.1011 L 79.8923 163.2409 L 79.8580 163.3780 L 79.8104 163.5111 L 79.7500 163.6388 L 79.6773 163.7600 L 79.5931 163.8735 L 79.4982 163.9782 L 78.7782 164.6982 L 78.6735 164.7931 L 78.5600 164.8773 L 78.4388 164.9500 L 78.3111 165.0104 L 78.1780 165.0580 L 78.1508 165.0648 L 78.0800 165.1173 L 77.9588 165.1900 L 77.8311 165.2504 L 77.6980 165.2980 L 77.6816 165.3021 L 77.6731 165.3135 L 77.5782 165.4182 L 76.8582 166.1382 L 76.7535 166.2331 L 76.6400 166.3173 L 76.5188 166.3900 L 76.3911 166.4504 L 76.2587 166.4977 L 74.9382 167.8182 L 74.8335 167.9131 L 74.7200 167.9973 L 74.5988 168.0700 L 74.4711 168.1304 L 74.3380 168.1780 L 74.2009 168.2123 L 74.0611 168.2331 L 73.9200 168.2400 L 73.4400 168.2400 L 73.2989 168.2331 L 73.1591 168.2123 L 73.0220 168.1780 L 72.8889 168.1304 L 72.7612 168.0700 L 72.6400 167.9973 L 72.5265 167.9131 L 72.4218 167.8182 L 71.9418 167.3382 L 71.8469 167.2335 L 71.7627 167.1200 L 71.6900 166.9988 L 71.6296 166.8711 L 71.5820 166.7380 L 71.5477 166.6009 L 71.5269 166.4611 L 71.5200 166.3200 L 71.5200 165.8400 L 71.5269 165.6989 L 71.5477 165.5591 L 71.5820 165.4220 L 71.6296 165.2889 L 71.6900 165.1612 L 71.7600 165.0445 Z M 132.4800 147.3600 L 132.4869 147.2189 L 132.5077 147.0791 L 132.5420 146.9420 L 132.5896 146.8089 L 132.6500 146.6812 L 132.7227 146.5600 L 132.8069 146.4465 L 132.9018 146.3418 L 133.1418 146.1018 L 133.2465 146.0069 L 133.3600 145.9227 L 133.4812 145.8500 L 133.6089 145.7896 L 133.7420 145.7420 L 133.8791 145.7077 L 134.0189 145.6869 L 134.1600 145.6800 L 134.8800 145.6800 L 135.0211 145.6869 L 135.1609 145.7077 L 135.2980 145.7420 L 135.4311 145.7896 L 135.5588 145.8500 L 135.6755 145.9200 L 136.0800 145.9200 L 136.2211 145.9269 L 136.3609 145.9477 L 136.4980 145.9820 L 136.6311 146.0296 L 136.7588 146.0900 L 136.8755 146.1600 L 137.2800 146.1600 L 137.4211 146.1669 L 137.5609 146.1877 L 137.6980 146.2220 L 137.8311 146.2696 L 137.9588 146.3300 L 138.0755 146.4000 L 139.2000 146.4000 L 139.3411 146.4069 L 139.4809 146.4277 L 139.6180 146.4620 L 139.7511 146.5096 L 139.8788 146.5700 L 139.9955 146.6400 L 141.3600 146.6400 L 141.5011 146.6469 L 141.6409 146.6677 L 141.7780 146.7020 L 141.9111 146.7496 L 142.0388 146.8100 L 142.1555 146.8800 L 143.0400 146.8800 L 143.1811 146.8869 L 143.3209 146.9077 L 143.4580 146.9420 L 143.5911 146.9896 L 143.7188 147.0500 L 143.8355 147.1200 L 144.9600 147.1200 L 145.1011 147.1269 L 145.2409 147.1477 L 145.3780 147.1820 L 145.5111 147.2296 L 145.6388 147.2900 L 145.7600 147.3627 L 145.7618 147.3640 L 145.8211 147.3669 L 145.9609 147.3877 L 146.0980 147.4220 L 146.2311 147.4696 L 146.3588 147.5300 L 146.4755 147.6000 L 146.6400 147.6000 L 146.7811 147.6069 L 146.9209 147.6277 L 147.0580 147.6620 L 147.1911 147.7096 L 147.3188 147.7700 L 147.4355 147.8400 L 147.6000 147.8400 L 147.7411 147.8469 L 147.8809 147.8677 L 148.0180 147.9020 L 148.1511 147.9496 L 148.2788 148.0100 L 148.3955 148.0800 L 148.8000 148.0800 L 148.9411 148.0869 L 149.0809 148.1077 L 149.2180 148.1420 L 149.3511 148.1896 L 149.4788 148.2500 L 149.5955 148.3200 L 150.0000 148.3200 L 150.1411 148.3269 L 150.2809 148.3477 L 150.4180 148.3820 L 150.5511 148.4296 L 150.6788 148.4900 L 150.7955 148.5600 L 151.2000 148.5600 L 151.3411 148.5669 L 151.4809 148.5877 L 151.6180 148.6220 L 151.7511 148.6696 L 151.8788 148.7300 L 151.9955 148.8000 L 152.4000 148.8000 L 152.5411 148.8069 L 152.6809 148.8277 L 152.8180 148.8620 L 152.9511 148.9096 L 153.0788 148.9700 L 153.1955 149.0400 L 153.8400 149.0400 L 153.9811 149.0469 L 154.1209 149.0677 L 154.2580 149.1020 L 154.3911 149.1496 L 154.5188 149.2100 L 154.6355 149.2800 L 154.8000 149.2800 L 154.9411 149.2869 L 155.0809 149.3077 L 155.2180 149.3420 L 155.3511 149.3896 L 155.4788 149.4500 L 155.5955 149.5200 L 156.2400 149.5200 L 156.3811 149.5269 L 156.5209 149.5477 L 156.6580 149.5820 L 156.7911 149.6296 L 156.9188 149.6900 L 157.0355 149.7600 L 157.6800 149.7600 L 157.8211 149.7669 L 157.9609 149.7877 L 158.0980 149.8220 L 158.2311 149.8696 L 158.3588 149.9300 L 158.4755 150.0000 L 159.1200 150.0000 L 159.2611 150.0069 L 159.4009 150.0277 L 159.5380 150.0620 L 159.6711 150.1096 L 159.7988 150.1700 L 159.9155 150.2400 L 160.5600 150.2400 L 160.7011 150.2469 L 160.8409 150.2677 L 160.9780 150.3020 L 161.1111 150.3496 L 161.2388 150.4100 L 161.3555 150.4800 L 162.0000 150.4800 L 162.1411 150.4869 L 162.2809 150.5077 L 162.4180 150.5420 L 162.5511 150.5896 L 162.6788 150.6500 L 162.7955 150.7200 L 163.6800 150.7200 L 163.8211 150.7269 L 163.9609 150.7477 L 164.0980 150.7820 L 164.2311 150.8296 L 164.3588 150.8900 L 164.4755 150.9600 L 165.3600 150.9600 L 165.5011 150.9669 L 165.6409 150.9877 L 165.7780 151.0220 L 165.9111 151.0696 L 166.0388 151.1300 L 166.1600 151.2027 L 166.2308 151.2552 L 166.2580 151.2620 L 166.3911 151.3096 L 166.5188 151.3700 L 166.6400 151.4427 L 166.6418 151.4440 L 166.7011 151.4469 L 166.8409 151.4677 L 166.9780 151.5020 L 167.1111 151.5496 L 167.2388 151.6100 L 167.3600 151.6827 L 167.4308 151.7352 L 167.4580 151.7420 L 167.5911 151.7896 L 167.7188 151.8500 L 167.8355 151.9200 L 168.0000 151.9200 L 168.1411 151.9269 L 168.2809 151.9477 L 168.4180 151.9820 L 168.5511 152.0296 L 168.6788 152.0900 L 168.8000 152.1627 L 168.8708 152.2152 L 168.8980 152.2220 L 169.0311 152.2696 L 169.1588 152.3300 L 169.2755 152.4000 L 169.6800 152.4000 L 169.8211 152.4069 L 169.9609 152.4277 L 170.0980 152.4620 L 170.2311 152.5096 L 170.3588 152.5700 L 170.4800 152.6427 L 170.4818 152.6440 L 170.5411 152.6469 L 170.6809 152.6677 L 170.8180 152.7020 L 170.9511 152.7496 L 171.0788 152.8100 L 171.1955 152.8800 L 171.8400 152.8800 L 171.9811 152.8869 L 172.1209 152.9077 L 172.2580 152.9420 L 172.3911 152.9896 L 172.5188 153.0500 L 172.6355 153.1200 L 173.2800 153.1200 L 173.4211 153.1269 L 173.5609 153.1477 L 173.6980 153.1820 L 173.8311 153.2296 L 173.9588 153.2900 L 174.0755 153.3600 L 174.2400 153.3600 L 174.3811 153.3669 L 174.5209 153.3877 L 174.6580 153.4220 L 174.7911 153.4696 L 174.9188 153.5300 L 175.0355 153.6000 L 175.6800 153.6000 L 175.8211 153.6069 L 175.9609 153.6277 L 176.0980 153.6620 L 176.2311 153.7096 L 176.3588 153.7700 L 176.4755 153.8400 L 177.0445 153.8400 L 177.1612 153.7700 L 177.2889 153.7096 L 177.4220 153.6620 L 177.5591 153.6277 L 177.6989 153.6069 L 177.8400 153.6000 L 177.9811 153.6069 L 178.1209 153.6277 L 178.2000 153.6475 L 178.2791 153.6277 L 178.4189 153.6069 L 178.5600 153.6000 L 179.0400 153.6000 L 179.1811 153.6069 L 179.3209 153.6277 L 179.4580 153.6620 L 179.5911 153.7096 L 179.7188 153.7700 L 179.8400 153.8427 L 179.9535 153.9269 L 180.0582 154.0218 L 180.2982 154.2618 L 180.3931 154.3665 L 180.4773 154.4800 L 180.5500 154.6012 L 180.6104 154.7289 L 180.6580 154.8620 L 180.6923 154.9991 L 180.7131 155.1389 L 180.7200 155.2800 L 180.7200 205.2000 L 180.7131 205.3411 L 180.6923 205.4809 L 180.6580 205.6180 L 180.6104 205.7511 L 180.5500 205.8788 L 180.4773 206.0000 L 180.3931 206.1135 L 180.2982 206.2182 L 179.8182 206.6982 L 179.7135 206.7931 L 179.6000 206.8773 L 179.4788 206.9500 L 179.3511 207.0104 L 179.2180 207.0580 L 179.0809 207.0923 L 178.9411 207.1131 L 178.8000 207.1200 L 150.4800 207.1200 L 150.3389 207.1131 L 150.1991 207.0923 L 150.0620 207.0580 L 149.9289 207.0104 L 149.8012 206.9500 L 149.6800 206.8773 L 149.5665 206.7931 L 149.4618 206.6982 L 149.2218 206.4582 L 149.1269 206.3535 L 149.0427 206.2400 L 148.9700 206.1188 L 148.9096 205.9911 L 148.8620 205.8580 L 148.8277 205.7209 L 148.8069 205.5811 L 148.8000 205.4400 L 148.8000 202.8755 L 148.7300 202.7588 L 148.6696 202.6311 L 148.6220 202.4980 L 148.5877 202.3609 L 148.5669 202.2211 L 148.5600 202.0800 L 148.5600 201.1955 L 148.4900 201.0788 L 148.4296 200.9511 L 148.3820 200.8180 L 148.3477 200.6809 L 148.3269 200.5411 L 148.3200 200.4000 L 148.3200 196.1555 L 148.2500 196.0388 L 148.1896 195.9111 L 148.1420 195.7780 L 148.1077 195.6409 L 148.0869 195.5011 L 148.0800 195.3600 L 148.0800 193.9955 L 148.0100 193.8788 L 147.9496 193.7511 L 147.9020 193.6180 L 147.8677 193.4809 L 147.8469 193.3411 L 147.8400 193.2000 L 147.8400 187.7555 L 147.7700 187.6388 L 147.7096 187.5111 L 147.6620 187.3780 L 147.6277 187.2409 L 147.6069 187.1011 L 147.6000 186.9600 L 147.6000 186.5555 L 147.5300 186.4388 L 147.4696 186.3111 L 147.4220 186.1780 L 147.4152 186.1508 L 147.3627 186.0800 L 147.2900 185.9588 L 147.2296 185.8311 L 147.1823 185.6987 L 146.2213 184.7377 L 146.0889 184.6904 L 145.9612 184.6300 L 145.8400 184.5573 L 145.7265 184.4731 L 145.6218 184.3782 L 144.9018 183.6582 L 144.8069 183.5535 L 144.7227 183.4400 L 144.6500 183.3188 L 144.5896 183.1911 L 144.5420 183.0580 L 144.5077 182.9209 L 144.4869 182.7811 L 144.4800 182.6400 L 144.4800 180.3155 L 144.4100 180.1988 L 144.3496 180.0711 L 144.3020 179.9380 L 144.2677 179.8009 L 144.2469 179.6611 L 144.2400 179.5200 L 144.2400 179.3555 L 144.1700 179.2388 L 144.1096 179.1111 L 144.0620 178.9780 L 144.0552 178.9508 L 144.0027 178.8800 L 143.9300 178.7588 L 143.8696 178.6311 L 143.8220 178.4980 L 143.7877 178.3609 L 143.7669 178.2211 L 143.7640 178.1618 L 143.7627 178.1600 L 143.6900 178.0388 L 143.6296 177.9111 L 143.5820 177.7780 L 143.5752 177.7508 L 143.5227 177.6800 L 143.4500 177.5588 L 143.3896 177.4311 L 143.3420 177.2980 L 143.3077 177.1609 L 143.2869 177.0211 L 143.2840 176.9618 L 143.2827 176.9600 L 143.2100 176.8388 L 143.1496 176.7111 L 143.1020 176.5780 L 143.0952 176.5508 L 143.0427 176.4800 L 142.9700 176.3588 L 142.9096 176.2311 L 142.8620 176.0980 L 142.8552 176.0708 L 142.8027 176.0000 L 142.7300 175.8788 L 142.6696 175.7511 L 142.6220 175.6180 L 142.5877 175.4809 L 142.5669 175.3411 L 142.5600 175.2000 L 142.5600 175.0355 L 142.4900 174.9188 L 142.4296 174.7911 L 142.3823 174.6587 L 141.7818 174.0582 L 141.6869 173.9535 L 141.6027 173.8400 L 141.5300 173.7188 L 141.4696 173.5911 L 141.4220 173.4580 L 141.4152 173.4308 L 141.3627 173.3600 L 141.2900 173.2388 L 141.2296 173.1111 L 141.1820 172.9780 L 141.1477 172.8409 L 141.1269 172.7011 L 141.1200 172.5600 L 141.1200 172.3955 L 141.0500 172.2788 L 140.9896 172.1511 L 140.9420 172.0180 L 140.9077 171.8809 L 140.8869 171.7411 L 140.8860 171.7225 L 140.8218 171.6582 L 140.7269 171.5535 L 140.6427 171.4400 L 140.5700 171.3188 L 140.5096 171.1911 L 140.4620 171.0580 L 140.4552 171.0308 L 140.4027 170.9600 L 140.3300 170.8388 L 140.2696 170.7111 L 140.2223 170.5787 L 140.1018 170.4582 L 140.0069 170.3535 L 139.9227 170.2400 L 139.8500 170.1188 L 139.7896 169.9911 L 139.7420 169.8580 L 139.7352 169.8308 L 139.6827 169.7600 L 139.6100 169.6388 L 139.5496 169.5111 L 139.5023 169.3787 L 139.3818 169.2582 L 139.2869 169.1535 L 139.2027 169.0400 L 139.1300 168.9188 L 139.0696 168.7911 L 139.0223 168.6587 L 138.9018 168.5382 L 138.8069 168.4335 L 138.7227 168.3200 L 138.6500 168.1988 L 138.5896 168.0711 L 138.5420 167.9380 L 138.5352 167.9108 L 138.4827 167.8400 L 138.4100 167.7188 L 138.3496 167.5911 L 138.3020 167.4580 L 138.2952 167.4308 L 138.2427 167.3600 L 138.1700 167.2388 L 138.1096 167.1111 L 138.0620 166.9780 L 138.0552 166.9508 L 138.0027 166.8800 L 137.9300 166.7588 L 137.8696 166.6311 L 137.8220 166.4980 L 137.7877 166.3609 L 137.7669 166.2211 L 137.7600 166.0800 L 137.7600 165.8400 L 137.7669 165.6989 L 137.7877 165.5591 L 137.8220 165.4220 L 137.8696 165.2889 L 137.9300 165.1612 L 138.0027 165.0400 L 138.0869 164.9265 L 138.1818 164.8218 L 138.3023 164.7013 L 138.3496 164.5689 L 138.4100 164.4412 L 138.4800 164.3245 L 138.4800 163.7555 L 138.4100 163.6388 L 138.3496 163.5111 L 138.3020 163.3780 L 138.2677 163.2409 L 138.2469 163.1011 L 138.2440 163.0418 L 138.2427 163.0400 L 138.1700 162.9188 L 138.1096 162.7911 L 138.0620 162.6580 L 138.0277 162.5209 L 138.0069 162.3811 L 138.0040 162.3218 L 138.0027 162.3200 L 137.9300 162.1988 L 137.8696 162.0711 L 137.8220 161.9380 L 137.8152 161.9108 L 137.7627 161.8400 L 137.6900 161.7188 L 137.6296 161.5911 L 137.5820 161.4580 L 137.5752 161.4308 L 137.5227 161.3600 L 137.4500 161.2388 L 137.3896 161.1111 L 137.3420 160.9780 L 137.3352 160.9508 L 137.2827 160.8800 L 137.2100 160.7588 L 137.1496 160.6311 L 137.1020 160.4980 L 137.0952 160.4708 L 137.0427 160.4000 L 136.9700 160.2788 L 136.9096 160.1511 L 136.8620 160.0180 L 136.8552 159.9908 L 136.8027 159.9200 L 136.7300 159.7988 L 136.6696 159.6711 L 136.6220 159.5380 L 136.5877 159.4009 L 136.5669 159.2611 L 136.5640 159.2018 L 136.5627 159.2000 L 136.4900 159.0788 L 136.4296 158.9511 L 136.3820 158.8180 L 136.3477 158.6809 L 136.3269 158.5411 L 136.3200 158.4000 L 136.3200 157.5155 L 136.2500 157.3988 L 136.1896 157.2711 L 136.1420 157.1380 L 136.1077 157.0009 L 136.0869 156.8611 L 136.0800 156.7200 L 136.0800 156.3155 L 136.0100 156.1988 L 135.9496 156.0711 L 135.9020 155.9380 L 135.8677 155.8009 L 135.8469 155.6611 L 135.8440 155.6018 L 135.8427 155.6000 L 135.7700 155.4788 L 135.7096 155.3511 L 135.6620 155.2180 L 135.6277 155.0809 L 135.6069 154.9411 L 135.6040 154.8818 L 135.6027 154.8800 L 135.5300 154.7588 L 135.4696 154.6311 L 135.4220 154.4980 L 135.4152 154.4708 L 135.3627 154.4000 L 135.2900 154.2788 L 135.2296 154.1511 L 135.1820 154.0180 L 135.1752 153.9908 L 135.1227 153.9200 L 135.0500 153.7988 L 134.9896 153.6711 L 134.9423 153.5387 L 134.5818 153.1782 L 134.4869 153.0735 L 134.4027 152.9600 L 134.3300 152.8388 L 134.2696 152.7111 L 134.2223 152.5787 L 134.1018 152.4582 L 134.0069 152.3535 L 133.9227 152.2400 L 133.8500 152.1188 L 133.7896 151.9911 L 133.7420 151.8580 L 133.7077 151.7209 L 133.6869 151.5811 L 133.6840 151.5218 L 133.6827 151.5200 L 133.6100 151.3988 L 133.5496 151.2711 L 133.5020 151.1380 L 133.4677 151.0009 L 133.4469 150.8611 L 133.4440 150.8018 L 133.4427 150.8000 L 133.3700 150.6788 L 133.3096 150.5511 L 133.2620 150.4180 L 133.2277 150.2809 L 133.2069 150.1411 L 133.2040 150.0818 L 133.2027 150.0800 L 133.1300 149.9588 L 133.0696 149.8311 L 133.0220 149.6980 L 132.9877 149.5609 L 132.9669 149.4211 L 132.9640 149.3618 L 132.9627 149.3600 L 132.8900 149.2388 L 132.8296 149.1111 L 132.7820 148.9780 L 132.7477 148.8409 L 132.7269 148.7011 L 132.7240 148.6418 L 132.7227 148.6400 L 132.6500 148.5188 L 132.5896 148.3911 L 132.5420 148.2580 L 132.5077 148.1209 L 132.4869 147.9811 L 132.4800 147.8400 L 132.4800 147.3600 Z M 8.4552 167.1292 L 8.4620 167.1020 L 8.5096 166.9689 L 8.5700 166.8412 L 8.6427 166.7200 L 8.7269 166.6065 L 8.8218 166.5018 L 9.3018 166.0218 L 9.4065 165.9269 L 9.5200 165.8427 L 9.6412 165.7700 L 9.7689 165.7096 L 9.9013 165.6623 L 10.9818 164.5818 L 11.0865 164.4869 L 11.1097 164.4697 L 11.1269 164.4465 L 11.2218 164.3418 L 11.4618 164.1018 L 11.5665 164.0069 L 11.6800 163.9227 L 11.8012 163.8500 L 11.9289 163.7896 L 12.0613 163.7423 L 12.0623 163.7413 L 12.1096 163.6089 L 12.1700 163.4812 L 12.2427 163.3600 L 12.3269 163.2465 L 12.4218 163.1418 L 13.5023 162.0613 L 13.5496 161.9289 L 13.6100 161.8012 L 13.6827 161.6800 L 13.7669 161.5665 L 13.8618 161.4618 L 14.4623 160.8613 L 14.5096 160.7289 L 14.5700 160.6012 L 14.6427 160.4800 L 14.7269 160.3665 L 14.8218 160.2618 L 15.1823 159.9013 L 15.2296 159.7689 L 15.2900 159.6412 L 15.3627 159.5200 L 15.4469 159.4065 L 15.5418 159.3018 L 15.6623 159.1813 L 15.7096 159.0489 L 15.7700 158.9212 L 15.8427 158.8000 L 15.9269 158.6865 L 16.0218 158.5818 L 16.3823 158.2213 L 16.4296 158.0889 L 16.4900 157.9612 L 16.5627 157.8400 L 16.6469 157.7265 L 16.7418 157.6218 L 17.1023 157.2613 L 17.1496 157.1289 L 17.2100 157.0012 L 17.2827 156.8800 L 17.3669 156.7665 L 17.4618 156.6618 L 19.0223 155.1013 L 19.0696 154.9689 L 19.1300 154.8412 L 19.2027 154.7200 L 19.2869 154.6065 L 19.3818 154.5018 L 19.6218 154.2618 L 19.7265 154.1669 L 19.7497 154.1497 L 19.7669 154.1265 L 19.8618 154.0218 L 20.3418 153.5418 L 20.4465 153.4469 L 20.4697 153.4297 L 20.4869 153.4065 L 20.5818 153.3018 L 23.3423 150.5413 L 23.3896 150.4089 L 23.4500 150.2812 L 23.5227 150.1600 L 23.6069 150.0465 L 23.7018 149.9418 L 23.9418 149.7018 L 24.0465 149.6069 L 24.1600 149.5227 L 24.2812 149.4500 L 24.4089 149.3896 L 24.5413 149.3423 L 24.5423 149.3413 L 24.5896 149.2089 L 24.6500 149.0812 L 24.7227 148.9600 L 24.8069 148.8465 L 24.9018 148.7418 L 25.1418 148.5018 L 25.2465 148.4069 L 25.2697 148.3897 L 25.2869 148.3665 L 25.3818 148.2618 L 25.8618 147.7818 L 25.9665 147.6869 L 25.9897 147.6697 L 26.0069 147.6465 L 26.1018 147.5418 L 26.3418 147.3018 L 26.4465 147.2069 L 26.4697 147.1897 L 26.4869 147.1665 L 26.5818 147.0618 L 26.8218 146.8218 L 26.9265 146.7269 L 27.0400 146.6427 L 27.1612 146.5700 L 27.2889 146.5096 L 27.4213 146.4623 L 28.5018 145.3818 L 28.6065 145.2869 L 28.6297 145.2697 L 28.6469 145.2465 L 28.7418 145.1418 L 28.9818 144.9018 L 29.0865 144.8069 L 29.2000 144.7227 L 29.3212 144.6500 L 29.4489 144.5896 L 29.5813 144.5423 L 31.3818 142.7418 L 31.4865 142.6469 L 31.6000 142.5627 L 31.7212 142.4900 L 31.8489 142.4296 L 31.9813 142.3823 L 33.0618 141.3018 L 33.1665 141.2069 L 33.2800 141.1227 L 33.4012 141.0500 L 33.5289 140.9896 L 33.6613 140.9423 L 34.0218 140.5818 L 34.1265 140.4869 L 34.2400 140.4027 L 34.3612 140.3300 L 34.4889 140.2696 L 34.6213 140.2223 L 34.9818 139.8618 L 35.0865 139.7669 L 35.2000 139.6827 L 35.3212 139.6100 L 35.4489 139.5496 L 35.5813 139.5023 L 35.9418 139.1418 L 36.0465 139.0469 L 36.1600 138.9627 L 36.2812 138.8900 L 36.4089 138.8296 L 36.5413 138.7823 L 36.6618 138.6618 L 36.7665 138.5669 L 36.8800 138.4827 L 37.0012 138.4100 L 37.1289 138.3496 L 37.2613 138.3023 L 37.3818 138.1818 L 37.4865 138.0869 L 37.6000 138.0027 L 37.7212 137.9300 L 37.8489 137.8696 L 37.9813 137.8223 L 38.3418 137.4618 L 38.4465 137.3669 L 38.5600 137.2827 L 38.6812 137.2100 L 38.8089 137.1496 L 38.9413 137.1023 L 39.0618 136.9818 L 39.1665 136.8869 L 39.2800 136.8027 L 39.4012 136.7300 L 39.5289 136.6696 L 39.6613 136.6223 L 40.0218 136.2618 L 40.1265 136.1669 L 40.2400 136.0827 L 40.3612 136.0100 L 40.4889 135.9496 L 40.6213 135.9023 L 40.7418 135.7818 L 40.8465 135.6869 L 40.9600 135.6027 L 41.0812 135.5300 L 41.2089 135.4696 L 41.3413 135.4223 L 41.4618 135.3018 L 41.5665 135.2069 L 41.6800 135.1227 L 41.8012 135.0500 L 41.9289 134.9896 L 42.0613 134.9423 L 42.6618 134.3418 L 42.7665 134.2469 L 42.8800 134.1627 L 43.0012 134.0900 L 43.1289 134.0296 L 43.2613 133.9823 L 43.8618 133.3818 L 43.9665 133.2869 L 44.0800 133.2027 L 44.2012 133.1300 L 44.3289 133.0696 L 44.4613 133.0223 L 45.0618 132.4218 L 45.1665 132.3269 L 45.2800 132.2427 L 45.4012 132.1700 L 45.5289 132.1096 L 45.6613 132.0623 L 46.2618 131.4618 L 46.3665 131.3669 L 46.4800 131.2827 L 46.6012 131.2100 L 46.7289 131.1496 L 46.8613 131.1023 L 47.4618 130.5018 L 47.5665 130.4069 L 47.6800 130.3227 L 47.8012 130.2500 L 47.9289 130.1896 L 48.0613 130.1423 L 48.4218 129.7818 L 48.5265 129.6869 L 48.6400 129.6027 L 48.7612 129.5300 L 48.8889 129.4696 L 49.0213 129.4223 L 49.6218 128.8218 L 49.7265 128.7269 L 49.8400 128.6427 L 49.9612 128.5700 L 50.0889 128.5096 L 50.2213 128.4623 L 50.5818 128.1018 L 50.6865 128.0069 L 50.8000 127.9227 L 50.9212 127.8500 L 51.0489 127.7896 L 51.1813 127.7423 L 51.3018 127.6218 L 51.4065 127.5269 L 51.5200 127.4427 L 51.6412 127.3700 L 51.7689 127.3096 L 51.9013 127.2623 L 52.0218 127.1418 L 52.1265 127.0469 L 52.2400 126.9627 L 52.3612 126.8900 L 52.4889 126.8296 L 52.6213 126.7823 L 52.7418 126.6618 L 52.8465 126.5669 L 52.9600 126.4827 L 53.0812 126.4100 L 53.2089 126.3496 L 53.3420 126.3020 L 53.4791 126.2677 L 53.6189 126.2469 L 53.6375 126.2460 L 53.7018 126.1818 L 53.8065 126.0869 L 53.9200 126.0027 L 54.0412 125.9300 L 54.1689 125.8696 L 54.3020 125.8220 L 54.4391 125.7877 L 54.5789 125.7669 L 54.7200 125.7600 L 54.8611 125.7669 L 55.0009 125.7877 L 55.1380 125.8220 L 55.2711 125.8696 L 55.3988 125.9300 L 55.5200 126.0027 L 55.6335 126.0869 L 55.7382 126.1818 L 56.2182 126.6618 L 56.3131 126.7665 L 56.3973 126.8800 L 56.4700 127.0012 L 56.5304 127.1289 L 56.5780 127.2620 L 56.6123 127.3991 L 56.6331 127.5389 L 56.6360 127.5982 L 56.6373 127.6000 L 56.7100 127.7212 L 56.7704 127.8489 L 56.8180 127.9820 L 56.8523 128.1191 L 56.8731 128.2589 L 56.8760 128.3182 L 56.8773 128.3200 L 56.9500 128.4412 L 57.0104 128.5689 L 57.0580 128.7020 L 57.0923 128.8391 L 57.1131 128.9789 L 57.1160 129.0382 L 57.1173 129.0400 L 57.1900 129.1612 L 57.2504 129.2889 L 57.2980 129.4220 L 57.3323 129.5591 L 57.3531 129.6989 L 57.3560 129.7582 L 57.3573 129.7600 L 57.4300 129.8812 L 57.4904 130.0089 L 57.5380 130.1420 L 57.5723 130.2791 L 57.5931 130.4189 L 57.6000 130.5600 L 57.6000 131.2045 L 57.6700 131.3212 L 57.7304 131.4489 L 57.7780 131.5820 L 57.8123 131.7191 L 57.8331 131.8589 L 57.8400 132.0000 L 57.8400 132.6445 L 57.9100 132.7612 L 57.9704 132.8889 L 58.0180 133.0220 L 58.0523 133.1591 L 58.0731 133.2989 L 58.0800 133.4400 L 58.0800 138.2400 L 58.0731 138.3811 L 58.0523 138.5209 L 58.0180 138.6580 L 57.9704 138.7911 L 57.9100 138.9188 L 57.8400 139.0355 L 57.8400 145.9200 L 57.8331 146.0611 L 57.8123 146.2009 L 57.7780 146.3380 L 57.7304 146.4711 L 57.6700 146.5988 L 57.6000 146.7155 L 57.6000 156.2400 L 57.5931 156.3811 L 57.5723 156.5209 L 57.5380 156.6580 L 57.4904 156.7911 L 57.4300 156.9188 L 57.3600 157.0355 L 57.3600 157.4400 L 57.3531 157.5811 L 57.3323 157.7209 L 57.2980 157.8580 L 57.2504 157.9911 L 57.1900 158.1188 L 57.1200 158.2355 L 57.1200 158.6400 L 57.1131 158.7811 L 57.0923 158.9209 L 57.0580 159.0580 L 57.0104 159.1911 L 56.9500 159.3188 L 56.8800 159.4355 L 56.8800 159.6000 L 56.8731 159.7411 L 56.8523 159.8809 L 56.8180 160.0180 L 56.7704 160.1511 L 56.7100 160.2788 L 56.6373 160.4000 L 56.5848 160.4708 L 56.5780 160.4980 L 56.5304 160.6311 L 56.4700 160.7588 L 56.3973 160.8800 L 56.3448 160.9508 L 56.3380 160.9780 L 56.2904 161.1111 L 56.2300 161.2388 L 56.1573 161.3600 L 56.1560 161.3618 L 56.1531 161.4211 L 56.1323 161.5609 L 56.0980 161.6980 L 56.0504 161.8311 L 55.9900 161.9588 L 55.9173 162.0800 L 55.8648 162.1508 L 55.8580 162.1780 L 55.8104 162.3111 L 55.7500 162.4388 L 55.6773 162.5600 L 55.6760 162.5618 L 55.6731 162.6211 L 55.6523 162.7609 L 55.6180 162.8980 L 55.5704 163.0311 L 55.5100 163.1588 L 55.4373 163.2800 L 55.4360 163.2818 L 55.4331 163.3411 L 55.4123 163.4809 L 55.3780 163.6180 L 55.3304 163.7511 L 55.2700 163.8788 L 55.1973 164.0000 L 55.1960 164.0018 L 55.1931 164.0611 L 55.1723 164.2009 L 55.1380 164.3380 L 55.0904 164.4711 L 55.0300 164.5988 L 54.9573 164.7200 L 54.9048 164.7908 L 54.8980 164.8180 L 54.8504 164.9511 L 54.7900 165.0788 L 54.7173 165.2000 L 54.6331 165.3135 L 54.5382 165.4182 L 54.4177 165.5387 L 54.3704 165.6711 L 54.3100 165.7988 L 54.2400 165.9155 L 54.2400 166.0800 L 54.2331 166.2211 L 54.2123 166.3609 L 54.1780 166.4980 L 54.1304 166.6311 L 54.0700 166.7588 L 53.9973 166.8800 L 53.9960 166.8818 L 53.9931 166.9411 L 53.9723 167.0809 L 53.9380 167.2180 L 53.8904 167.3511 L 53.8300 167.4788 L 53.7573 167.6000 L 53.6731 167.7135 L 53.5782 167.8182 L 53.4577 167.9387 L 53.4104 168.0711 L 53.3500 168.1988 L 53.2773 168.3200 L 53.2248 168.3908 L 53.2180 168.4180 L 53.1704 168.5511 L 53.1100 168.6788 L 53.0400 168.7955 L 53.0400 168.9600 L 53.0331 169.1011 L 53.0123 169.2409 L 52.9780 169.3780 L 52.9304 169.5111 L 52.8700 169.6388 L 52.7973 169.7600 L 52.7960 169.7618 L 52.7931 169.8211 L 52.7723 169.9609 L 52.7380 170.0980 L 52.6904 170.2311 L 52.6300 170.3588 L 52.5600 170.4755 L 52.5600 170.6400 L 52.5531 170.7811 L 52.5323 170.9209 L 52.4980 171.0580 L 52.4504 171.1911 L 52.3900 171.3188 L 52.3200 171.4355 L 52.3200 171.6000 L 52.3131 171.7411 L 52.2923 171.8809 L 52.2580 172.0180 L 52.2104 172.1511 L 52.1500 172.2788 L 52.0773 172.4000 L 52.0760 172.4018 L 52.0731 172.4611 L 52.0523 172.6009 L 52.0180 172.7380 L 51.9704 172.8711 L 51.9100 172.9988 L 51.8400 173.1155 L 51.8400 174.0000 L 51.8331 174.1411 L 51.8123 174.2809 L 51.7780 174.4180 L 51.7304 174.5511 L 51.6700 174.6788 L 51.6000 174.7955 L 51.6000 174.9600 L 51.5931 175.1011 L 51.5723 175.2409 L 51.5380 175.3780 L 51.4904 175.5111 L 51.4300 175.6388 L 51.3573 175.7600 L 51.3560 175.7618 L 51.3531 175.8211 L 51.3323 175.9609 L 51.2980 176.0980 L 51.2504 176.2311 L 51.1900 176.3588 L 51.1173 176.4800 L 51.1160 176.4818 L 51.1131 176.5411 L 51.0923 176.6809 L 51.0580 176.8180 L 51.0104 176.9511 L 50.9500 177.0788 L 50.8800 177.1955 L 50.8800 177.6000 L 50.8731 177.7411 L 50.8523 177.8809 L 50.8180 178.0180 L 50.7704 178.1511 L 50.7100 178.2788 L 50.6400 178.3955 L 50.6400 178.8000 L 50.6331 178.9411 L 50.6123 179.0809 L 50.5780 179.2180 L 50.5304 179.3511 L 50.4700 179.4788 L 50.4000 179.5955 L 50.4000 180.4800 L 50.3931 180.6211 L 50.3723 180.7609 L 50.3380 180.8980 L 50.2904 181.0311 L 50.2300 181.1588 L 50.1600 181.2755 L 50.1600 181.6800 L 50.1531 181.8211 L 50.1323 181.9609 L 50.0980 182.0980 L 50.0504 182.2311 L 49.9900 182.3588 L 49.9200 182.4755 L 49.9200 182.8800 L 49.9131 183.0211 L 49.8923 183.1609 L 49.8580 183.2980 L 49.8104 183.4311 L 49.7500 183.5588 L 49.6773 183.6800 L 49.6760 183.6818 L 49.6731 183.7411 L 49.6523 183.8809 L 49.6180 184.0180 L 49.5704 184.1511 L 49.5100 184.2788 L 49.4400 184.3955 L 49.4400 184.8000 L 49.4331 184.9411 L 49.4123 185.0809 L 49.3780 185.2180 L 49.3304 185.3511 L 49.2700 185.4788 L 49.2000 185.5955 L 49.2000 186.0000 L 49.1931 186.1411 L 49.1723 186.2809 L 49.1380 186.4180 L 49.0904 186.5511 L 49.0300 186.6788 L 48.9600 186.7955 L 48.9600 186.9600 L 48.9531 187.1011 L 48.9323 187.2409 L 48.8980 187.3780 L 48.8504 187.5111 L 48.7900 187.6388 L 48.7173 187.7600 L 48.6648 187.8308 L 48.6580 187.8580 L 48.6104 187.9911 L 48.5500 188.1188 L 48.4773 188.2400 L 48.4248 188.3108 L 48.4180 188.3380 L 48.3704 188.4711 L 48.3100 188.5988 L 48.2400 188.7155 L 48.2400 188.8800 L 48.2331 189.0211 L 48.2123 189.1609 L 48.1780 189.2980 L 48.1304 189.4311 L 48.0700 189.5588 L 48.0000 189.6755 L 48.0000 189.8400 L 47.9931 189.9811 L 47.9723 190.1209 L 47.9380 190.2580 L 47.8904 190.3911 L 47.8300 190.5188 L 47.7573 190.6400 L 47.7560 190.6418 L 47.7531 190.7011 L 47.7323 190.8409 L 47.6980 190.9780 L 47.6504 191.1111 L 47.5900 191.2388 L 47.5173 191.3600 L 47.5160 191.3618 L 47.5131 191.4211 L 47.4923 191.5609 L 47.4580 191.6980 L 47.4104 191.8311 L 47.3500 191.9588 L 47.2773 192.0800 L 47.2760 192.0818 L 47.2731 192.1411 L 47.2523 192.2809 L 47.2180 192.4180 L 47.1704 192.5511 L 47.1100 192.6788 L 47.0373 192.8000 L 47.0360 192.8018 L 47.0331 192.8611 L 47.0123 193.0009 L 46.9780 193.1380 L 46.9304 193.2711 L 46.8700 193.3988 L 46.7973 193.5200 L 46.7448 193.5908 L 46.7380 193.6180 L 46.6904 193.7511 L 46.6300 193.8788 L 46.5600 193.9955 L 46.5600 194.1600 L 46.5531 194.3011 L 46.5323 194.4409 L 46.4980 194.5780 L 46.4504 194.7111 L 46.3900 194.8388 L 46.3200 194.9555 L 46.3200 195.3600 L 46.3131 195.5011 L 46.2923 195.6409 L 46.2580 195.7780 L 46.2104 195.9111 L 46.1500 196.0388 L 46.0773 196.1600 L 46.0760 196.1618 L 46.0731 196.2211 L 46.0523 196.3609 L 46.0180 196.4980 L 45.9704 196.6311 L 45.9100 196.7588 L 45.8373 196.8800 L 45.8360 196.8818 L 45.8331 196.9411 L 45.8123 197.0809 L 45.7780 197.2180 L 45.7304 197.3511 L 45.6700 197.4788 L 45.6000 197.5955 L 45.6000 197.7600 L 45.5931 197.9011 L 45.5723 198.0409 L 45.5380 198.1780 L 45.4904 198.3111 L 45.4300 198.4388 L 45.3573 198.5600 L 45.3560 198.5618 L 45.3531 198.6211 L 45.3323 198.7609 L 45.2980 198.8980 L 45.2504 199.0311 L 45.1900 199.1588 L 45.1173 199.2800 L 45.1160 199.2818 L 45.1131 199.3411 L 45.0923 199.4809 L 45.0580 199.6180 L 45.0104 199.7511 L 44.9500 199.8788 L 44.8773 200.0000 L 44.8760 200.0018 L 44.8731 200.0611 L 44.8523 200.2009 L 44.8180 200.3380 L 44.7704 200.4711 L 44.7100 200.5988 L 44.6373 200.7200 L 44.6360 200.7218 L 44.6331 200.7811 L 44.6123 200.9209 L 44.5780 201.0580 L 44.5304 201.1911 L 44.4700 201.3188 L 44.4000 201.4355 L 44.4000 201.8400 L 44.3931 201.9811 L 44.3723 202.1209 L 44.3380 202.2580 L 44.2904 202.3911 L 44.2300 202.5188 L 44.1573 202.6400 L 44.1560 202.6418 L 44.1531 202.7011 L 44.1323 202.8409 L 44.0980 202.9780 L 44.0504 203.1111 L 43.9900 203.2388 L 43.9173 203.3600 L 43.8648 203.4308 L 43.8580 203.4580 L 43.8104 203.5911 L 43.7500 203.7188 L 43.6773 203.8400 L 43.6760 203.8418 L 43.6731 203.9011 L 43.6523 204.0409 L 43.6180 204.1780 L 43.5704 204.3111 L 43.5100 204.4388 L 43.4373 204.5600 L 43.3848 204.6308 L 43.3780 204.6580 L 43.3304 204.7911 L 43.2700 204.9188 L 43.1973 205.0400 L 43.1448 205.1108 L 43.1380 205.1380 L 43.0904 205.2711 L 43.0300 205.3988 L 42.9573 205.5200 L 42.8731 205.6335 L 42.7782 205.7382 L 41.8182 206.6982 L 41.7135 206.7931 L 41.6000 206.8773 L 41.4788 206.9500 L 41.3511 207.0104 L 41.2180 207.0580 L 41.0809 207.0923 L 40.9411 207.1131 L 40.8000 207.1200 L 10.0800 207.1200 L 9.9389 207.1131 L 9.7991 207.0923 L 9.6620 207.0580 L 9.5289 207.0104 L 9.4012 206.9500 L 9.2800 206.8773 L 9.1665 206.7931 L 9.0618 206.6982 L 8.5818 206.2182 L 8.4869 206.1135 L 8.4027 206.0000 L 8.3300 205.8788 L 8.2696 205.7511 L 8.2220 205.6180 L 8.1877 205.4809 L 8.1669 205.3411 L 8.1600 205.2000 L 8.1600 168.0000 L 8.1669 167.8589 L 8.1877 167.7191 L 8.2220 167.5820 L 8.2696 167.4489 L 8.3300 167.3212 L 8.4027 167.2000 L 8.4552 167.1292 Z M 127.7352 113.3692 L 127.7420 113.3420 L 127.7896 113.2089 L 127.8500 113.0812 L 127.9227 112.9600 L 128.0069 112.8465 L 128.1018 112.7418 L 128.5818 112.2618 L 128.6865 112.1669 L 128.8000 112.0827 L 128.9212 112.0100 L 129.0489 111.9496 L 129.1820 111.9020 L 129.3191 111.8677 L 129.4589 111.8469 L 129.6000 111.8400 L 129.7411 111.8469 L 129.8809 111.8677 L 130.0180 111.9020 L 130.1511 111.9496 L 130.2788 112.0100 L 130.4000 112.0827 L 130.5135 112.1669 L 130.6182 112.2618 L 130.8582 112.5018 L 130.9531 112.6065 L 131.0373 112.7200 L 131.1100 112.8412 L 131.1704 112.9689 L 131.2180 113.1020 L 131.2523 113.2391 L 131.2731 113.3789 L 131.2800 113.5200 L 131.2800 114.9600 L 131.2731 115.1011 L 131.2523 115.2409 L 131.2180 115.3780 L 131.1704 115.5111 L 131.1100 115.6388 L 131.0373 115.7600 L 130.9848 115.8308 L 130.9780 115.8580 L 130.9304 115.9911 L 130.8700 116.1188 L 130.7973 116.2400 L 130.7131 116.3535 L 130.6182 116.4582 L 130.3782 116.6982 L 130.2735 116.7931 L 130.1600 116.8773 L 130.0388 116.9500 L 129.9111 117.0104 L 129.7780 117.0580 L 129.6409 117.0923 L 129.5011 117.1131 L 129.3600 117.1200 L 129.1200 117.1200 L 128.9789 117.1131 L 128.8391 117.0923 L 128.7020 117.0580 L 128.5689 117.0104 L 128.4412 116.9500 L 128.3200 116.8773 L 128.2065 116.7931 L 128.1018 116.6982 L 127.8618 116.4582 L 127.7669 116.3535 L 127.6827 116.2400 L 127.6100 116.1188 L 127.5496 115.9911 L 127.5020 115.8580 L 127.4677 115.7209 L 127.4469 115.5811 L 127.4400 115.4400 L 127.4400 114.2400 L 127.4469 114.0989 L 127.4677 113.9591 L 127.5020 113.8220 L 127.5496 113.6889 L 127.6100 113.5612 L 127.6827 113.4400 L 127.7352 113.3692 Z M 129.0618 108.6618 L 129.1665 108.5669 L 129.2800 108.4827 L 129.4012 108.4100 L 129.5289 108.3496 L 129.6620 108.3020 L 129.7991 108.2677 L 129.9389 108.2469 L 130.0800 108.2400 L 130.2211 108.2469 L 130.3609 108.2677 L 130.4980 108.3020 L 130.6311 108.3496 L 130.7588 108.4100 L 130.8800 108.4827 L 130.9935 108.5669 L 131.0982 108.6618 L 131.3382 108.9018 L 131.4331 109.0065 L 131.5173 109.1200 L 131.5900 109.2412 L 131.6504 109.3689 L 131.6980 109.5020 L 131.7323 109.6391 L 131.7531 109.7789 L 131.7600 109.9200 L 131.7600 110.8800 L 131.7531 111.0211 L 131.7323 111.1609 L 131.6980 111.2980 L 131.6504 111.4311 L 131.5900 111.5588 L 131.5173 111.6800 L 131.4331 111.7935 L 131.3382 111.8982 L 130.8582 112.3782 L 130.7535 112.4731 L 130.6400 112.5573 L 130.5188 112.6300 L 130.3911 112.6904 L 130.2580 112.7380 L 130.1209 112.7723 L 129.9811 112.7931 L 129.8400 112.8000 L 129.6989 112.7931 L 129.5591 112.7723 L 129.4220 112.7380 L 129.2889 112.6904 L 129.1612 112.6300 L 129.0400 112.5573 L 128.9265 112.4731 L 128.8218 112.3782 L 128.5818 112.1382 L 128.4869 112.0335 L 128.4027 111.9200 L 128.3300 111.7988 L 128.2696 111.6711 L 128.2220 111.5380 L 128.1877 111.4009 L 128.1669 111.2611 L 128.1600 111.1200 L 128.1600 110.1600 L 128.1669 110.0189 L 128.1877 109.8791 L 128.2220 109.7420 L 128.2696 109.6089 L 128.3300 109.4812 L 128.4027 109.3600 L 128.4869 109.2465 L 128.5818 109.1418 L 129.0618 108.6618 Z M 8.1600 10.0800 L 8.1669 9.9389 L 8.1877 9.7991 L 8.2220 9.6620 L 8.2696 9.5289 L 8.3300 9.4012 L 8.4027 9.2800 L 8.4869 9.1665 L 8.5818 9.0618 L 8.8218 8.8218 L 8.9265 8.7269 L 9.0400 8.6427 L 9.1612 8.5700 L 9.2889 8.5096 L 9.4220 8.4620 L 9.5591 8.4277 L 9.6989 8.4069 L 9.8400 8.4000 L 179.0400 8.4000 L 179.1811 8.4069 L 179.3209 8.4277 L 179.4580 8.4620 L 179.5911 8.5096 L 179.7188 8.5700 L 179.8400 8.6427 L 179.9535 8.7269 L 180.0582 8.8218 L 180.2982 9.0618 L 180.3931 9.1665 L 180.4773 9.2800 L 180.5500 9.4012 L 180.6104 9.5289 L 180.6580 9.6620 L 180.6923 9.7991 L 180.7131 9.9389 L 180.7200 10.0800 L 180.7200 119.0400 L 180.7131 119.1811 L 180.6923 119.3209 L 180.6580 119.4580 L 180.6104 119.5911 L 180.5500 119.7188 L 180.4773 119.8400 L 180.3931 119.9535 L 180.2982 120.0582 L 179.8182 120.5382 L 179.7135 120.6331 L 179.6000 120.7173 L 179.4788 120.7900 L 179.3511 120.8504 L 179.2180 120.8980 L 179.1908 120.9048 L 179.1200 120.9573 L 178.9988 121.0300 L 178.8711 121.0904 L 178.7380 121.1380 L 178.7108 121.1448 L 178.6400 121.1973 L 178.5188 121.2700 L 178.3911 121.3304 L 178.2580 121.3780 L 178.2308 121.3848 L 178.1600 121.4373 L 178.0388 121.5100 L 177.9111 121.5704 L 177.7780 121.6180 L 177.7508 121.6248 L 177.6800 121.6773 L 177.5588 121.7500 L 177.4311 121.8104 L 177.2980 121.8580 L 177.1609 121.8923 L 177.0211 121.9131 L 176.9618 121.9160 L 176.9600 121.9173 L 176.8388 121.9900 L 176.7111 122.0504 L 176.5780 122.0980 L 176.5508 122.1048 L 176.4800 122.1573 L 176.3588 122.2300 L 176.2311 122.2904 L 176.0980 122.3380 L 176.0708 122.3448 L 176.0000 122.3973 L 175.8788 122.4700 L 175.7511 122.5304 L 175.6180 122.5780 L 175.4809 122.6123 L 175.3411 122.6331 L 175.2818 122.6360 L 175.2800 122.6373 L 175.1588 122.7100 L 175.0311 122.7704 L 174.8980 122.8180 L 174.8708 122.8248 L 174.8000 122.8773 L 174.6788 122.9500 L 174.5511 123.0104 L 174.4180 123.0580 L 174.3908 123.0648 L 174.3200 123.1173 L 174.1988 123.1900 L 174.0711 123.2504 L 173.9380 123.2980 L 173.9108 123.3048 L 173.8400 123.3573 L 173.7188 123.4300 L 173.5911 123.4904 L 173.4580 123.5380 L 173.3209 123.5723 L 173.1811 123.5931 L 173.1218 123.5960 L 173.1200 123.5973 L 172.9988 123.6700 L 172.8711 123.7304 L 172.7380 123.7780 L 172.7108 123.7848 L 172.6400 123.8373 L 172.5188 123.9100 L 172.3911 123.9704 L 172.2580 124.0180 L 172.2308 124.0248 L 172.1600 124.0773 L 172.0388 124.1500 L 171.9111 124.2104 L 171.7780 124.2580 L 171.6409 124.2923 L 171.5011 124.3131 L 171.4418 124.3160 L 171.4400 124.3173 L 171.3188 124.3900 L 171.1911 124.4504 L 171.0580 124.4980 L 171.0308 124.5048 L 170.9600 124.5573 L 170.8388 124.6300 L 170.7111 124.6904 L 170.5780 124.7380 L 170.5508 124.7448 L 170.4800 124.7973 L 170.3588 124.8700 L 170.2311 124.9304 L 170.0980 124.9780 L 169.9609 125.0123 L 169.8211 125.0331 L 169.7618 125.0360 L 169.7600 125.0373 L 169.6388 125.1100 L 169.5111 125.1704 L 169.3780 125.2180 L 169.3508 125.2248 L 169.2800 125.2773 L 169.1588 125.3500 L 169.0311 125.4104 L 168.8980 125.4580 L 168.8708 125.4648 L 168.8000 125.5173 L 168.6788 125.5900 L 168.5511 125.6504 L 168.4180 125.6980 L 168.3908 125.7048 L 168.3200 125.7573 L 168.1988 125.8300 L 168.0711 125.8904 L 167.9380 125.9380 L 167.8009 125.9723 L 167.6611 125.9931 L 167.6018 125.9960 L 167.6000 125.9973 L 167.4788 126.0700 L 167.3511 126.1304 L 167.2180 126.1780 L 167.1908 126.1848 L 167.1200 126.2373 L 166.9988 126.3100 L 166.8711 126.3704 L 166.7380 126.4180 L 166.7108 126.4248 L 166.6400 126.4773 L 166.5188 126.5500 L 166.3911 126.6104 L 166.2580 126.6580 L 166.1209 126.6923 L 165.9811 126.7131 L 165.9218 126.7160 L 165.9200 126.7173 L 165.7988 126.7900 L 165.6711 126.8504 L 165.5380 126.8980 L 165.5108 126.9048 L 165.4400 126.9573 L 165.3188 127.0300 L 165.1911 127.0904 L 165.0580 127.1380 L 165.0308 127.1448 L 164.9600 127.1973 L 164.8388 127.2700 L 164.7111 127.3304 L 164.5780 127.3780 L 164.4409 127.4123 L 164.3011 127.4331 L 164.2418 127.4360 L 164.2400 127.4373 L 164.1188 127.5100 L 163.9911 127.5704 L 163.8580 127.6180 L 163.8308 127.6248 L 163.7600 127.6773 L 163.6388 127.7500 L 163.5111 127.8104 L 163.3780 127.8580 L 163.3508 127.8648 L 163.2800 127.9173 L 163.1588 127.9900 L 163.0311 128.0504 L 162.8980 128.0980 L 162.8708 128.1048 L 162.8000 128.1573 L 162.6788 128.2300 L 162.5511 128.2904 L 162.4180 128.3380 L 162.2809 128.3723 L 162.1411 128.3931 L 162.0818 128.3960 L 162.0800 128.3973 L 161.9588 128.4700 L 161.8311 128.5304 L 161.6980 128.5780 L 161.6708 128.5848 L 161.6000 128.6373 L 161.4788 128.7100 L 161.3511 128.7704 L 161.2180 128.8180 L 161.0809 128.8523 L 160.9411 128.8731 L 160.8818 128.8760 L 160.8800 128.8773 L 160.7588 128.9500 L 160.6311 129.0104 L 160.4980 129.0580 L 160.4708 129.0648 L 160.4000 129.1173 L 160.2788 129.1900 L 160.1511 129.2504 L 160.0180 129.2980 L 159.9908 129.3048 L 159.9200 129.3573 L 159.7988 129.4300 L 159.6711 129.4904 L 159.5380 129.5380 L 159.4009 129.5723 L 159.2611 129.5931 L 159.2018 129.5960 L 159.2000 129.5973 L 159.0788 129.6700 L 158.9511 129.7304 L 158.8180 129.7780 L 158.7908 129.7848 L 158.7200 129.8373 L 158.5988 129.9100 L 158.4711 129.9704 L 158.3380 130.0180 L 158.3108 130.0248 L 158.2400 130.0773 L 158.1188 130.1500 L 157.9911 130.2104 L 157.8580 130.2580 L 157.8308 130.2648 L 157.7600 130.3173 L 157.6388 130.3900 L 157.5111 130.4504 L 157.3780 130.4980 L 157.2409 130.5323 L 157.1011 130.5531 L 157.0418 130.5560 L 157.0400 130.5573 L 156.9188 130.6300 L 156.7911 130.6904 L 156.6580 130.7380 L 156.6308 130.7448 L 156.5600 130.7973 L 156.4388 130.8700 L 156.3111 130.9304 L 156.1780 130.9780 L 156.1508 130.9848 L 156.0800 131.0373 L 155.9588 131.1100 L 155.8311 131.1704 L 155.6980 131.2180 L 155.5609 131.2523 L 155.4211 131.2731 L 155.3618 131.2760 L 155.3600 131.2773 L 155.2388 131.3500 L 155.1111 131.4104 L 154.9780 131.4580 L 154.9508 131.4648 L 154.8800 131.5173 L 154.7588 131.5900 L 154.6311 131.6504 L 154.4980 131.6980 L 154.4708 131.7048 L 154.4000 131.7573 L 154.2788 131.8300 L 154.1511 131.8904 L 154.0180 131.9380 L 153.8809 131.9723 L 153.7411 131.9931 L 153.6818 131.9960 L 153.6800 131.9973 L 153.5588 132.0700 L 153.4311 132.1304 L 153.2980 132.1780 L 153.2708 132.1848 L 153.2000 132.2373 L 153.0788 132.3100 L 152.9511 132.3704 L 152.8180 132.4180 L 152.7908 132.4248 L 152.7200 132.4773 L 152.5988 132.5500 L 152.4711 132.6104 L 152.3380 132.6580 L 152.3108 132.6648 L 152.2400 132.7173 L 152.1188 132.7900 L 151.9911 132.8504 L 151.8580 132.8980 L 151.8308 132.9048 L 151.7600 132.9573 L 151.6388 133.0300 L 151.5111 133.0904 L 151.3780 133.1380 L 151.2409 133.1723 L 151.1011 133.1931 L 151.0418 133.1960 L 151.0400 133.1973 L 150.9188 133.2700 L 150.7911 133.3304 L 150.6580 133.3780 L 150.6308 133.3848 L 150.5600 133.4373 L 150.4388 133.5100 L 150.3111 133.5704 L 150.1780 133.6180 L 150.1508 133.6248 L 150.0800 133.6773 L 149.9588 133.7500 L 149.8311 133.8104 L 149.6980 133.8580 L 149.5609 133.8923 L 149.4211 133.9131 L 149.3618 133.9160 L 149.3600 133.9173 L 149.2388 133.9900 L 149.1111 134.0504 L 148.9780 134.0980 L 148.9508 134.1048 L 148.8800 134.1573 L 148.7588 134.2300 L 148.6311 134.2904 L 148.4980 134.3380 L 148.3609 134.3723 L 148.2211 134.3931 L 148.1618 134.3960 L 148.1600 134.3973 L 148.0388 134.4700 L 147.9111 134.5304 L 147.7780 134.5780 L 147.7508 134.5848 L 147.6800 134.6373 L 147.5588 134.7100 L 147.4311 134.7704 L 147.2980 134.8180 L 147.2708 134.8248 L 147.2000 134.8773 L 147.0788 134.9500 L 146.9511 135.0104 L 146.8180 135.0580 L 146.7908 135.0648 L 146.7200 135.1173 L 146.5988 135.1900 L 146.4711 135.2504 L 146.3380 135.2980 L 146.2009 135.3323 L 146.0611 135.3531 L 146.0018 135.3560 L 146.0000 135.3573 L 145.8788 135.4300 L 145.7511 135.4904 L 145.6180 135.5380 L 145.5908 135.5448 L 145.5200 135.5973 L 145.3988 135.6700 L 145.2711 135.7304 L 145.1380 135.7780 L 145.0009 135.8123 L 144.8611 135.8331 L 144.8018 135.8360 L 144.8000 135.8373 L 144.6788 135.9100 L 144.5511 135.9704 L 144.4180 136.0180 L 144.3908 136.0248 L 144.3200 136.0773 L 144.1988 136.1500 L 144.0711 136.2104 L 143.9380 136.2580 L 143.9108 136.2648 L 143.8400 136.3173 L 143.7188 136.3900 L 143.5911 136.4504 L 143.4580 136.4980 L 143.3209 136.5323 L 143.1811 136.5531 L 143.1218 136.5560 L 143.1200 136.5573 L 142.9988 136.6300 L 142.8711 136.6904 L 142.7380 136.7380 L 142.7108 136.7448 L 142.6400 136.7973 L 142.5188 136.8700 L 142.3911 136.9304 L 142.2580 136.9780 L 142.2308 136.9848 L 142.1600 137.0373 L 142.0388 137.1100 L 141.9111 137.1704 L 141.7780 137.2180 L 141.7508 137.2248 L 141.6800 137.2773 L 141.5588 137.3500 L 141.4311 137.4104 L 141.2980 137.4580 L 141.1609 137.4923 L 141.0211 137.5131 L 140.9618 137.5160 L 140.9600 137.5173 L 140.8388 137.5900 L 140.7111 137.6504 L 140.5780 137.6980 L 140.5508 137.7048 L 140.4800 137.7573 L 140.3588 137.8300 L 140.2311 137.8904 L 140.0980 137.9380 L 140.0708 137.9448 L 140.0000 137.9973 L 139.8788 138.0700 L 139.7511 138.1304 L 139.6180 138.1780 L 139.4809 138.2123 L 139.3411 138.2331 L 139.2818 138.2360 L 139.2800 138.2373 L 139.1588 138.3100 L 139.0311 138.3704 L 138.8980 138.4180 L 138.8708 138.4248 L 138.8000 138.4773 L 138.6788 138.5500 L 138.5511 138.6104 L 138.4180 138.6580 L 138.3908 138.6648 L 138.3200 138.7173 L 138.1988 138.7900 L 138.0711 138.8504 L 137.9380 138.8980 L 137.8009 138.9323 L 137.6611 138.9531 L 137.6018 138.9560 L 137.6000 138.9573 L 137.4788 139.0300 L 137.3511 139.0904 L 137.2180 139.1380 L 137.1908 139.1448 L 137.1200 139.1973 L 136.9988 139.2700 L 136.8711 139.3304 L 136.7380 139.3780 L 136.7108 139.3848 L 136.6400 139.4373 L 136.5188 139.5100 L 136.3911 139.5704 L 136.2580 139.6180 L 136.1209 139.6523 L 135.9811 139.6731 L 135.9218 139.6760 L 135.9200 139.6773 L 135.7988 139.7500 L 135.6711 139.8104 L 135.5380 139.8580 L 135.5108 139.8648 L 135.4400 139.9173 L 135.3188 139.9900 L 135.1911 140.0504 L 135.0580 140.0980 L 135.0308 140.1048 L 134.9600 140.1573 L 134.8388 140.2300 L 134.7111 140.2904 L 134.5780 140.3380 L 134.4409 140.3723 L 134.3011 140.3931 L 134.2418 140.3960 L 134.2400 140.3973 L 134.1188 140.4700 L 133.9911 140.5304 L 133.8580 140.5780 L 133.7209 140.6123 L 133.5811 140.6331 L 133.4400 140.6400 L 133.2000 140.6400 L 133.0589 140.6331 L 132.9191 140.6123 L 132.7820 140.5780 L 132.6489 140.5304 L 132.5212 140.4700 L 132.4000 140.3973 L 132.2865 140.3131 L 132.1818 140.2182 L 131.9418 139.9782 L 131.8469 139.8735 L 131.7627 139.7600 L 131.6900 139.6388 L 131.6296 139.5111 L 131.5820 139.3780 L 131.5477 139.2409 L 131.5269 139.1011 L 131.5240 139.0418 L 131.5227 139.0400 L 131.4500 138.9188 L 131.3896 138.7911 L 131.3420 138.6580 L 131.3352 138.6308 L 131.2827 138.5600 L 131.2100 138.4388 L 131.1496 138.3111 L 131.1020 138.1780 L 131.0677 138.0409 L 131.0469 137.9011 L 131.0400 137.7600 L 131.0400 133.0355 L 130.9700 132.9188 L 130.9096 132.7911 L 130.8620 132.6580 L 130.8277 132.5209 L 130.8069 132.3811 L 130.8000 132.2400 L 130.8000 129.9155 L 130.7300 129.7988 L 130.6696 129.6711 L 130.6220 129.5380 L 130.5877 129.4009 L 130.5669 129.2611 L 130.5600 129.1200 L 130.5600 127.9955 L 130.4900 127.8788 L 130.4296 127.7511 L 130.3820 127.6180 L 130.3477 127.4809 L 130.3269 127.3411 L 130.3200 127.2000 L 130.3200 126.0755 L 130.2500 125.9588 L 130.1896 125.8311 L 130.1420 125.6980 L 130.1077 125.5609 L 130.0869 125.4211 L 130.0800 125.2800 L 130.0800 120.5555 L 130.0100 120.4388 L 129.9496 120.3111 L 129.9020 120.1780 L 129.8677 120.0409 L 129.8469 119.9011 L 129.8400 119.7600 L 129.8400 119.5955 L 129.7700 119.4788 L 129.7096 119.3511 L 129.6620 119.2180 L 129.6277 119.0809 L 129.6069 118.9411 L 129.6000 118.8000 L 129.6000 116.6400 L 129.6069 116.4989 L 129.6277 116.3591 L 129.6620 116.2220 L 129.7096 116.0889 L 129.7700 115.9612 L 129.8427 115.8400 L 129.8952 115.7692 L 129.9020 115.7420 L 129.9496 115.6089 L 130.0100 115.4812 L 130.0827 115.3600 L 130.1352 115.2892 L 130.1420 115.2620 L 130.1896 115.1289 L 130.2500 115.0012 L 130.3227 114.8800 L 130.3240 114.8782 L 130.3269 114.8189 L 130.3477 114.6791 L 130.3820 114.5420 L 130.4296 114.4089 L 130.4900 114.2812 L 130.5600 114.1645 L 130.5600 113.2800 L 130.5669 113.1389 L 130.5877 112.9991 L 130.6075 112.9200 L 130.5877 112.8409 L 130.5669 112.7011 L 130.5600 112.5600 L 130.5600 110.4755 L 130.4900 110.3588 L 130.4296 110.2311 L 130.3820 110.0980 L 130.3477 109.9609 L 130.3269 109.8211 L 130.3200 109.6800 L 130.3200 108.0000 L 130.3269 107.8589 L 130.3477 107.7191 L 130.3820 107.5820 L 130.4296 107.4489 L 130.4900 107.3212 L 130.5627 107.2000 L 130.6469 107.0865 L 130.7418 106.9818 L 131.2218 106.5018 L 131.3265 106.4069 L 131.4400 106.3227 L 131.5612 106.2500 L 131.6889 106.1896 L 131.8220 106.1420 L 131.8492 106.1352 L 131.9200 106.0827 L 132.0412 106.0100 L 132.1689 105.9496 L 132.3020 105.9020 L 132.3292 105.8952 L 132.4000 105.8427 L 132.5212 105.7700 L 132.6489 105.7096 L 132.7820 105.6620 L 132.8092 105.6552 L 132.8800 105.6027 L 133.0012 105.5300 L 133.1289 105.4696 L 133.2613 105.4223 L 133.6218 105.0618 L 133.7265 104.9669 L 133.8400 104.8827 L 133.9612 104.8100 L 134.0889 104.7496 L 134.2220 104.7020 L 134.2492 104.6952 L 134.3200 104.6427 L 134.4000 104.5947 L 134.4000 102.7200 L 134.4069 102.5789 L 134.4277 102.4391 L 134.4620 102.3020 L 134.5096 102.1689 L 134.5700 102.0412 L 134.6400 101.9245 L 134.6400 101.0400 L 134.6469 100.8989 L 134.6677 100.7591 L 134.7020 100.6220 L 134.7496 100.4889 L 134.8100 100.3612 L 134.8800 100.2445 L 134.8800 100.1555 L 134.8100 100.0388 L 134.7496 99.9111 L 134.7020 99.7780 L 134.6677 99.6409 L 134.6469 99.5011 L 134.6400 99.3600 L 134.6400 99.1955 L 134.5700 99.0788 L 134.5096 98.9511 L 134.4620 98.8180 L 134.4277 98.6809 L 134.4069 98.5411 L 134.4000 98.4000 L 134.4000 98.2355 L 134.3300 98.1188 L 134.2696 97.9911 L 134.2220 97.8580 L 134.1877 97.7209 L 134.1669 97.5811 L 134.1600 97.4400 L 134.1600 97.2755 L 134.0900 97.1588 L 134.0296 97.0311 L 133.9820 96.8980 L 133.9477 96.7609 L 133.9269 96.6211 L 133.9240 96.5618 L 133.9227 96.5600 L 133.8500 96.4388 L 133.7896 96.3111 L 133.7420 96.1780 L 133.7077 96.0409 L 133.6869 95.9011 L 133.6800 95.7600 L 133.6800 94.3200 L 133.6869 94.1789 L 133.7077 94.0391 L 133.7420 93.9020 L 133.7896 93.7689 L 133.8500 93.6412 L 133.9200 93.5245 L 133.9200 92.7155 L 133.8500 92.5988 L 133.7896 92.4711 L 133.7420 92.3380 L 133.7077 92.2009 L 133.6869 92.0611 L 133.6840 92.0018 L 133.6827 92.0000 L 133.6100 91.8788 L 133.5496 91.7511 L 133.5020 91.6180 L 133.4677 91.4809 L 133.4469 91.3411 L 133.4400 91.2000 L 133.4400 90.9600 L 133.4469 90.8189 L 133.4677 90.6791 L 133.5020 90.5420 L 133.5496 90.4089 L 133.6100 90.2812 L 133.6800 90.1645 L 133.6800 89.5955 L 133.6100 89.4788 L 133.5496 89.3511 L 133.5020 89.2180 L 133.4677 89.0809 L 133.4469 88.9411 L 133.4440 88.8818 L 133.4427 88.8800 L 133.3700 88.7588 L 133.3096 88.6311 L 133.2620 88.4980 L 133.2277 88.3609 L 133.2069 88.2211 L 133.2040 88.1618 L 133.2027 88.1600 L 133.1300 88.0388 L 133.0696 87.9111 L 133.0220 87.7780 L 132.9877 87.6409 L 132.9669 87.5011 L 132.9640 87.4418 L 132.9627 87.4400 L 132.8900 87.3188 L 132.8296 87.1911 L 132.7820 87.0580 L 132.7477 86.9209 L 132.7269 86.7811 L 132.7240 86.7218 L 132.7227 86.7200 L 132.6500 86.5988 L 132.5896 86.4711 L 132.5420 86.3380 L 132.5077 86.2009 L 132.4869 86.0611 L 132.4800 85.9200 L 132.4800 85.7555 L 132.4100 85.6388 L 132.3496 85.5111 L 132.3020 85.3780 L 132.2677 85.2409 L 132.2469 85.1011 L 132.2400 84.9600 L 132.2400 84.5555 L 132.1700 84.4388 L 132.1096 84.3111 L 132.0620 84.1780 L 132.0277 84.0409 L 132.0096 83.9193 L 131.9289 83.8904 L 131.8012 83.8300 L 131.6800 83.7573 L 131.6092 83.7048 L 131.5820 83.6980 L 131.4489 83.6504 L 131.3212 83.5900 L 131.2000 83.5173 L 131.1292 83.4648 L 131.1020 83.4580 L 130.9689 83.4104 L 130.8412 83.3500 L 130.7200 83.2773 L 130.6492 83.2248 L 130.6220 83.2180 L 130.4889 83.1704 L 130.3612 83.1100 L 130.2400 83.0373 L 130.2382 83.0360 L 130.1789 83.0331 L 130.0391 83.0123 L 129.9020 82.9780 L 129.7689 82.9304 L 129.6412 82.8700 L 129.5200 82.7973 L 129.5182 82.7960 L 129.4589 82.7931 L 129.3191 82.7723 L 129.1820 82.7380 L 129.0489 82.6904 L 128.9212 82.6300 L 128.8000 82.5573 L 128.7292 82.5048 L 128.7020 82.4980 L 128.5689 82.4504 L 128.4412 82.3900 L 128.3245 82.3200 L 128.1600 82.3200 L 128.0189 82.3131 L 127.8791 82.2923 L 127.7420 82.2580 L 127.6089 82.2104 L 127.4812 82.1500 L 127.3600 82.0773 L 127.3582 82.0760 L 127.2989 82.0731 L 127.1591 82.0523 L 127.0220 82.0180 L 126.8889 81.9704 L 126.7612 81.9100 L 126.6400 81.8373 L 126.6382 81.8360 L 126.5789 81.8331 L 126.4391 81.8123 L 126.3020 81.7780 L 126.1689 81.7304 L 126.0412 81.6700 L 125.9245 81.6000 L 125.7600 81.6000 L 125.6189 81.5931 L 125.4791 81.5723 L 125.3420 81.5380 L 125.2089 81.4904 L 125.0812 81.4300 L 124.9645 81.3600 L 124.8000 81.3600 L 124.6589 81.3531 L 124.5191 81.3323 L 124.3820 81.2980 L 124.2489 81.2504 L 124.1212 81.1900 L 124.0045 81.1200 L 123.8400 81.1200 L 123.6989 81.1131 L 123.5591 81.0923 L 123.4220 81.0580 L 123.2889 81.0104 L 123.1612 80.9500 L 123.0445 80.8800 L 122.8800 80.8800 L 122.7389 80.8731 L 122.5991 80.8523 L 122.4620 80.8180 L 122.3289 80.7704 L 122.2012 80.7100 L 122.0845 80.6400 L 121.6800 80.6400 L 121.5389 80.6331 L 121.3991 80.6123 L 121.2620 80.5780 L 121.1289 80.5304 L 121.0012 80.4700 L 120.8845 80.4000 L 120.2400 80.4000 L 120.0989 80.3931 L 119.9591 80.3723 L 119.8220 80.3380 L 119.6889 80.2904 L 119.5612 80.2300 L 119.4445 80.1600 L 118.3200 80.1600 L 118.1789 80.1531 L 118.0391 80.1323 L 117.9020 80.0980 L 117.7689 80.0504 L 117.6412 79.9900 L 117.5245 79.9200 L 117.3600 79.9200 L 117.2189 79.9131 L 117.0791 79.8923 L 116.9420 79.8580 L 116.8089 79.8104 L 116.6812 79.7500 L 116.5645 79.6800 L 116.1600 79.6800 L 116.0189 79.6731 L 115.8791 79.6523 L 115.7420 79.6180 L 115.6089 79.5704 L 115.4812 79.5100 L 115.3645 79.4400 L 106.0800 79.4400 L 105.9389 79.4331 L 105.7991 79.4123 L 105.6620 79.3780 L 105.5289 79.3304 L 105.4012 79.2700 L 105.2845 79.2000 L 101.7600 79.2000 L 101.6189 79.1931 L 101.4791 79.1723 L 101.3420 79.1380 L 101.2089 79.0904 L 101.0812 79.0300 L 100.9600 78.9573 L 100.8465 78.8731 L 100.7418 78.7782 L 100.2618 78.2982 L 100.1669 78.1935 L 100.0827 78.0800 L 100.0100 77.9588 L 99.9496 77.8311 L 99.9020 77.6980 L 99.8952 77.6708 L 99.8427 77.6000 L 99.7700 77.4788 L 99.7096 77.3511 L 99.6620 77.2180 L 99.6277 77.0809 L 99.6069 76.9411 L 99.6000 76.8000 L 99.6000 76.3955 L 99.5300 76.2788 L 99.4696 76.1511 L 99.4220 76.0180 L 99.3877 75.8809 L 99.3669 75.7411 L 99.3600 75.6000 L 99.3600 75.1955 L 99.2900 75.0788 L 99.2296 74.9511 L 99.1823 74.8187 L 99.0618 74.6982 L 98.9669 74.5935 L 98.8827 74.4800 L 98.8100 74.3588 L 98.7496 74.2311 L 98.7020 74.0980 L 98.6677 73.9609 L 98.6469 73.8211 L 98.6400 73.6800 L 98.6400 72.9600 L 98.6469 72.8189 L 98.6677 72.6791 L 98.7020 72.5420 L 98.7496 72.4089 L 98.8100 72.2812 L 98.8827 72.1600 L 98.9669 72.0465 L 99.0618 71.9418 L 99.1235 71.8800 L 99.0618 71.8182 L 98.9669 71.7135 L 98.8827 71.6000 L 98.8100 71.4788 L 98.7496 71.3511 L 98.7020 71.2180 L 98.6677 71.0809 L 98.6469 70.9411 L 98.6400 70.8000 L 98.6400 69.6000 L 98.6469 69.4589 L 98.6677 69.3191 L 98.7020 69.1820 L 98.7496 69.0489 L 98.8100 68.9212 L 98.8800 68.8045 L 98.8800 68.4000 L 98.8869 68.2589 L 98.9077 68.1191 L 98.9420 67.9820 L 98.9896 67.8489 L 99.0500 67.7212 L 99.1200 67.6045 L 99.1200 67.4400 L 99.1269 67.2989 L 99.1477 67.1591 L 99.1820 67.0220 L 99.2296 66.8889 L 99.2900 66.7612 L 99.3600 66.6445 L 99.3600 66.4800 L 99.3669 66.3389 L 99.3877 66.1991 L 99.4220 66.0620 L 99.4696 65.9289 L 99.5300 65.8012 L 99.6000 65.6845 L 99.6000 65.5200 L 99.6069 65.3789 L 99.6277 65.2391 L 99.6620 65.1020 L 99.7096 64.9689 L 99.7700 64.8412 L 99.8427 64.7200 L 99.8440 64.7182 L 99.8469 64.6589 L 99.8677 64.5191 L 99.9020 64.3820 L 99.9496 64.2489 L 100.0100 64.1212 L 100.0827 64.0000 L 100.1352 63.9292 L 100.1420 63.9020 L 100.1896 63.7689 L 100.2500 63.6412 L 100.3227 63.5200 L 100.3752 63.4492 L 100.3820 63.4220 L 100.4296 63.2889 L 100.4900 63.1612 L 100.5627 63.0400 L 100.6152 62.9692 L 100.6220 62.9420 L 100.6696 62.8089 L 100.7300 62.6812 L 100.8027 62.5600 L 100.8040 62.5582 L 100.8069 62.4989 L 100.8277 62.3591 L 100.8620 62.2220 L 100.9096 62.0889 L 100.9700 61.9612 L 101.0427 61.8400 L 101.0952 61.7692 L 101.1020 61.7420 L 101.1496 61.6089 L 101.2100 61.4812 L 101.2827 61.3600 L 101.2840 61.3582 L 101.2869 61.2989 L 101.3077 61.1591 L 101.3420 61.0220 L 101.3896 60.8889 L 101.4500 60.7612 L 101.5227 60.6400 L 101.5752 60.5692 L 101.5820 60.5420 L 101.6296 60.4089 L 101.6900 60.2812 L 101.7600 60.1645 L 101.7600 59.2800 L 101.7669 59.1389 L 101.7877 58.9991 L 101.8220 58.8620 L 101.8696 58.7289 L 101.9300 58.6012 L 102.0027 58.4800 L 102.0552 58.4092 L 102.0620 58.3820 L 102.1096 58.2489 L 102.1700 58.1212 L 102.2427 58.0000 L 102.2723 57.9600 L 102.2427 57.9200 L 102.1700 57.7988 L 102.1096 57.6711 L 102.0620 57.5380 L 102.0552 57.5108 L 102.0027 57.4400 L 101.9300 57.3188 L 101.8696 57.1911 L 101.8220 57.0580 L 101.7877 56.9209 L 101.7669 56.7811 L 101.7640 56.7218 L 101.7627 56.7200 L 101.6900 56.5988 L 101.6296 56.4711 L 101.5820 56.3380 L 101.5477 56.2009 L 101.5269 56.0611 L 101.5240 56.0018 L 101.5227 56.0000 L 101.4500 55.8788 L 101.3896 55.7511 L 101.3420 55.6180 L 101.3352 55.5908 L 101.2827 55.5200 L 101.2100 55.3988 L 101.1496 55.2711 L 101.1020 55.1380 L 101.0952 55.1108 L 101.0427 55.0400 L 100.9700 54.9188 L 100.9096 54.7911 L 100.8620 54.6580 L 100.8552 54.6308 L 100.8027 54.5600 L 100.7300 54.4388 L 100.6696 54.3111 L 100.6223 54.1787 L 100.5018 54.0582 L 100.4069 53.9535 L 100.3227 53.8400 L 100.2500 53.7188 L 100.1896 53.5911 L 100.1420 53.4580 L 100.1077 53.3209 L 100.0869 53.1811 L 100.0800 53.0400 L 100.0800 52.5600 L 99.9389 52.5531 L 99.7991 52.5323 L 99.6620 52.4980 L 99.5289 52.4504 L 99.4012 52.3900 L 99.2800 52.3173 L 99.1665 52.2331 L 99.0618 52.1382 L 98.8218 51.8982 L 98.7269 51.7935 L 98.6427 51.6800 L 98.5700 51.5588 L 98.5096 51.4311 L 98.4620 51.2980 L 98.4552 51.2708 L 98.4027 51.2000 L 98.3300 51.0788 L 98.2696 50.9511 L 98.2220 50.8180 L 98.2152 50.7908 L 98.1627 50.7200 L 98.0900 50.5988 L 98.0296 50.4711 L 97.9823 50.3387 L 97.8618 50.2182 L 97.7669 50.1135 L 97.6827 50.0000 L 97.6100 49.8788 L 97.5496 49.7511 L 97.5020 49.6180 L 97.4677 49.4809 L 97.4469 49.3411 L 97.4460 49.3225 L 97.3818 49.2582 L 97.2869 49.1535 L 97.2027 49.0400 L 97.1300 48.9188 L 97.0696 48.7911 L 97.0223 48.6587 L 96.9018 48.5382 L 96.8069 48.4335 L 96.7227 48.3200 L 96.6500 48.1988 L 96.5896 48.0711 L 96.5423 47.9387 L 95.8213 47.2177 L 95.6889 47.1704 L 95.5612 47.1100 L 95.4400 47.0373 L 95.3265 46.9531 L 95.2218 46.8582 L 94.7418 46.3782 L 94.6469 46.2735 L 94.5627 46.1600 L 94.4900 46.0388 L 94.4296 45.9111 L 94.3820 45.7780 L 94.3477 45.6409 L 94.3269 45.5011 L 94.3200 45.3600 L 94.3200 44.6400 L 94.3269 44.4989 L 94.3477 44.3591 L 94.3820 44.2220 L 94.4296 44.0889 L 94.4900 43.9612 L 94.5627 43.8400 L 94.6469 43.7265 L 94.7418 43.6218 L 94.8623 43.5013 L 94.9096 43.3689 L 94.9700 43.2412 L 95.0427 43.1200 L 95.0952 43.0492 L 95.1020 43.0220 L 95.1496 42.8889 L 95.2100 42.7612 L 95.2347 42.7200 L 95.2100 42.6788 L 95.1496 42.5511 L 95.1020 42.4180 L 95.0677 42.2809 L 95.0469 42.1411 L 95.0460 42.1225 L 94.9818 42.0582 L 94.8869 41.9535 L 94.8027 41.8400 L 94.7300 41.7188 L 94.6696 41.5911 L 94.6223 41.4587 L 94.5018 41.3382 L 94.4069 41.2335 L 94.3227 41.1200 L 94.2500 40.9988 L 94.1896 40.8711 L 94.1423 40.7387 L 92.5818 39.1782 L 92.4869 39.0735 L 92.4027 38.9600 L 92.3300 38.8388 L 92.2696 38.7111 L 92.2223 38.5787 L 91.8618 38.2182 L 91.7669 38.1135 L 91.7497 38.0903 L 91.7265 38.0731 L 91.6218 37.9782 L 90.0613 36.4177 L 89.9289 36.3704 L 89.8012 36.3100 L 89.6800 36.2373 L 89.6092 36.1848 L 89.5820 36.1780 L 89.4489 36.1304 L 89.3212 36.0700 L 89.2000 35.9973 L 89.1292 35.9448 L 89.1020 35.9380 L 88.9689 35.8904 L 88.8412 35.8300 L 88.7200 35.7573 L 88.6492 35.7048 L 88.6220 35.6980 L 88.4889 35.6504 L 88.3612 35.5900 L 88.2445 35.5200 L 88.0800 35.5200 L 87.9389 35.5131 L 87.7991 35.4923 L 87.7200 35.4725 L 87.6409 35.4923 L 87.5011 35.5131 L 87.3600 35.5200 L 87.1200 35.5200 L 86.9789 35.5131 L 86.8391 35.4923 L 86.7020 35.4580 L 86.5689 35.4104 L 86.4412 35.3500 L 86.3200 35.2773 L 86.2065 35.1931 L 86.1018 35.0982 L 85.7413 34.7377 L 85.6089 34.6904 L 85.4812 34.6300 L 85.3600 34.5573 L 85.2465 34.4731 L 85.1418 34.3782 L 84.0613 33.2977 L 83.9289 33.2504 L 83.8012 33.1900 L 83.6800 33.1173 L 83.6092 33.0648 L 83.5820 33.0580 L 83.4489 33.0104 L 83.3212 32.9500 L 83.2000 32.8773 L 83.1292 32.8248 L 83.1020 32.8180 L 82.9689 32.7704 L 82.8412 32.7100 L 82.7200 32.6373 L 82.6492 32.5848 L 82.6220 32.5780 L 82.4889 32.5304 L 82.3612 32.4700 L 82.2400 32.3973 L 82.1692 32.3448 L 82.1420 32.3380 L 82.0089 32.2904 L 81.8812 32.2300 L 81.7600 32.1573 L 81.6892 32.1048 L 81.6620 32.0980 L 81.5289 32.0504 L 81.4012 31.9900 L 81.2800 31.9173 L 81.2092 31.8648 L 81.1820 31.8580 L 81.0489 31.8104 L 80.9212 31.7500 L 80.8000 31.6773 L 80.7982 31.6760 L 80.7389 31.6731 L 80.5991 31.6523 L 80.4620 31.6180 L 80.3289 31.5704 L 80.2012 31.5100 L 80.0800 31.4373 L 80.0782 31.4360 L 80.0189 31.4331 L 79.8791 31.4123 L 79.7420 31.3780 L 79.6089 31.3304 L 79.4812 31.2700 L 79.3600 31.1973 L 79.3582 31.1960 L 79.2989 31.1931 L 79.1591 31.1723 L 79.0220 31.1380 L 78.8889 31.0904 L 78.7612 31.0300 L 78.6400 30.9573 L 78.6382 30.9560 L 78.5789 30.9531 L 78.4391 30.9323 L 78.3020 30.8980 L 78.1689 30.8504 L 78.0412 30.7900 L 77.9245 30.7200 L 77.7600 30.7200 L 77.6189 30.7131 L 77.4791 30.6923 L 77.3420 30.6580 L 77.2089 30.6104 L 77.0812 30.5500 L 76.9600 30.4773 L 76.9582 30.4760 L 76.8989 30.4731 L 76.7591 30.4523 L 76.6220 30.4180 L 76.4889 30.3704 L 76.3612 30.3100 L 76.2400 30.2373 L 76.2382 30.2360 L 76.1789 30.2331 L 76.0391 30.2123 L 75.9020 30.1780 L 75.7689 30.1304 L 75.6412 30.0700 L 75.5245 30.0000 L 71.8355 30.0000 L 71.7188 30.0700 L 71.5911 30.1304 L 71.4580 30.1780 L 71.3209 30.2123 L 71.1811 30.2331 L 71.0400 30.2400 L 70.3955 30.2400 L 70.2788 30.3100 L 70.1511 30.3704 L 70.0180 30.4180 L 69.9056 30.4462 L 69.8373 30.5600 L 69.7848 30.6308 L 69.7780 30.6580 L 69.7304 30.7911 L 69.6700 30.9188 L 69.5973 31.0400 L 69.5131 31.1535 L 69.4182 31.2582 L 69.1782 31.4982 L 69.0735 31.5931 L 68.9600 31.6773 L 68.8388 31.7500 L 68.7111 31.8104 L 68.5780 31.8580 L 68.5508 31.8648 L 68.4800 31.9173 L 68.3588 31.9900 L 68.2311 32.0504 L 68.0980 32.0980 L 68.0708 32.1048 L 68.0000 32.1573 L 67.8788 32.2300 L 67.7511 32.2904 L 67.6180 32.3380 L 67.5908 32.3448 L 67.5200 32.3973 L 67.3988 32.4700 L 67.2711 32.5304 L 67.1380 32.5780 L 67.0009 32.6123 L 66.8611 32.6331 L 66.8018 32.6360 L 66.8000 32.6373 L 66.6788 32.7100 L 66.5511 32.7704 L 66.4180 32.8180 L 66.3908 32.8248 L 66.3200 32.8773 L 66.1988 32.9500 L 66.0711 33.0104 L 65.9380 33.0580 L 65.9108 33.0648 L 65.8400 33.1173 L 65.7188 33.1900 L 65.5911 33.2504 L 65.4580 33.2980 L 65.4308 33.3048 L 65.3600 33.3573 L 65.2388 33.4300 L 65.1111 33.4904 L 64.9787 33.5377 L 64.9777 33.5387 L 64.9304 33.6711 L 64.8700 33.7988 L 64.7973 33.9200 L 64.7131 34.0335 L 64.6182 34.1382 L 62.6982 36.0582 L 62.5935 36.1531 L 62.4800 36.2373 L 62.3588 36.3100 L 62.2311 36.3704 L 62.0987 36.4177 L 61.7382 36.7782 L 61.6335 36.8731 L 61.5200 36.9573 L 61.3988 37.0300 L 61.3113 37.0713 L 61.2700 37.1588 L 61.1973 37.2800 L 61.1131 37.3935 L 61.0182 37.4982 L 60.6577 37.8587 L 60.6104 37.9911 L 60.5500 38.1188 L 60.4773 38.2400 L 60.4248 38.3108 L 60.4180 38.3380 L 60.3704 38.4711 L 60.3100 38.5988 L 60.2373 38.7200 L 60.1531 38.8335 L 60.0582 38.9382 L 59.5782 39.4182 L 59.4735 39.5131 L 59.3600 39.5973 L 59.2388 39.6700 L 59.1111 39.7304 L 58.9787 39.7777 L 58.8582 39.8982 L 58.7535 39.9931 L 58.6400 40.0773 L 58.5188 40.1500 L 58.3911 40.2104 L 58.2580 40.2580 L 58.2308 40.2648 L 58.1600 40.3173 L 58.0388 40.3900 L 57.9111 40.4504 L 57.7787 40.4977 L 57.4182 40.8582 L 57.3135 40.9531 L 57.3021 40.9616 L 57.2980 40.9780 L 57.2504 41.1111 L 57.1900 41.2388 L 57.1173 41.3600 L 57.0648 41.4308 L 57.0580 41.4580 L 57.0104 41.5911 L 56.9500 41.7188 L 56.8773 41.8400 L 56.8248 41.9108 L 56.8180 41.9380 L 56.7704 42.0711 L 56.7100 42.1988 L 56.6373 42.3200 L 56.5848 42.3908 L 56.5780 42.4180 L 56.5304 42.5511 L 56.4700 42.6788 L 56.3973 42.8000 L 56.3448 42.8708 L 56.3380 42.8980 L 56.2904 43.0311 L 56.2300 43.1588 L 56.1573 43.2800 L 56.0731 43.3935 L 55.9782 43.4982 L 55.8577 43.6187 L 55.8104 43.7511 L 55.7500 43.8788 L 55.6773 44.0000 L 55.6760 44.0018 L 55.6731 44.0611 L 55.6523 44.2009 L 55.6180 44.3380 L 55.5704 44.4711 L 55.5100 44.5988 L 55.4373 44.7200 L 55.3531 44.8335 L 55.2582 44.9382 L 55.1377 45.0587 L 55.0904 45.1911 L 55.0300 45.3188 L 54.9573 45.4400 L 54.9048 45.5108 L 54.8980 45.5380 L 54.8504 45.6711 L 54.7900 45.7988 L 54.7173 45.9200 L 54.7160 45.9218 L 54.7131 45.9811 L 54.6923 46.1209 L 54.6580 46.2580 L 54.6104 46.3911 L 54.5500 46.5188 L 54.4773 46.6400 L 54.4248 46.7108 L 54.4180 46.7380 L 54.3704 46.8711 L 54.3100 46.9988 L 54.2373 47.1200 L 54.1848 47.1908 L 54.1780 47.2180 L 54.1304 47.3511 L 54.0700 47.4788 L 54.0000 47.5955 L 54.0000 47.7600 L 53.9931 47.9011 L 53.9723 48.0409 L 53.9380 48.1780 L 53.8904 48.3111 L 53.8300 48.4388 L 53.7573 48.5600 L 53.7560 48.5618 L 53.7531 48.6211 L 53.7323 48.7609 L 53.6980 48.8980 L 53.6504 49.0311 L 53.5900 49.1588 L 53.5200 49.2755 L 53.5200 50.8045 L 53.5900 50.9212 L 53.6504 51.0489 L 53.6980 51.1820 L 53.7323 51.3191 L 53.7531 51.4589 L 53.7600 51.6000 L 53.7600 54.0000 L 53.7531 54.1411 L 53.7323 54.2809 L 53.6980 54.4180 L 53.6504 54.5511 L 53.5900 54.6788 L 53.5173 54.8000 L 53.4648 54.8708 L 53.4580 54.8980 L 53.4104 55.0311 L 53.3500 55.1588 L 53.2773 55.2800 L 53.2248 55.3508 L 53.2180 55.3780 L 53.1704 55.5111 L 53.1100 55.6388 L 53.0373 55.7600 L 53.0360 55.7618 L 53.0331 55.8211 L 53.0123 55.9609 L 52.9780 56.0980 L 52.9304 56.2311 L 52.8700 56.3588 L 52.7973 56.4800 L 52.7960 56.4818 L 52.7931 56.5411 L 52.7723 56.6809 L 52.7380 56.8180 L 52.6904 56.9511 L 52.6300 57.0788 L 52.5573 57.2000 L 52.4731 57.3135 L 52.3782 57.4182 L 52.1382 57.6582 L 52.0335 57.7531 L 51.9200 57.8373 L 51.7988 57.9100 L 51.6711 57.9704 L 51.5954 57.9974 L 51.5973 58.0000 L 51.6700 58.1212 L 51.7304 58.2489 L 51.7780 58.3820 L 51.8123 58.5191 L 51.8331 58.6589 L 51.8400 58.8000 L 51.8400 59.7600 L 51.8331 59.9011 L 51.8123 60.0409 L 51.7780 60.1780 L 51.7304 60.3111 L 51.6700 60.4388 L 51.5973 60.5600 L 51.5448 60.6308 L 51.5380 60.6580 L 51.4904 60.7911 L 51.4300 60.9188 L 51.3573 61.0400 L 51.3048 61.1108 L 51.2980 61.1380 L 51.2504 61.2711 L 51.1900 61.3988 L 51.1173 61.5200 L 51.0331 61.6335 L 50.9382 61.7382 L 50.8800 61.7965 L 50.8800 61.8445 L 50.9500 61.9612 L 51.0104 62.0889 L 51.0580 62.2220 L 51.0923 62.3591 L 51.1131 62.4989 L 51.1200 62.6400 L 51.1200 63.2845 L 51.1900 63.4012 L 51.2504 63.5289 L 51.2980 63.6620 L 51.3048 63.6892 L 51.3573 63.7600 L 51.4300 63.8812 L 51.4904 64.0089 L 51.5380 64.1420 L 51.5723 64.2791 L 51.5931 64.4189 L 51.5960 64.4782 L 51.5973 64.4800 L 51.6700 64.6012 L 51.7304 64.7289 L 51.7780 64.8620 L 51.8123 64.9991 L 51.8331 65.1389 L 51.8400 65.2800 L 51.8400 66.4800 L 51.8331 66.6211 L 51.8123 66.7609 L 51.7995 66.8123 L 51.8982 66.9018 L 53.5782 68.5818 L 53.6731 68.6865 L 53.7573 68.8000 L 53.8300 68.9212 L 53.8904 69.0489 L 53.9380 69.1820 L 53.9723 69.3191 L 53.9931 69.4589 L 53.9940 69.4775 L 54.0582 69.5418 L 54.1531 69.6465 L 54.2373 69.7600 L 54.3100 69.8812 L 54.3704 70.0089 L 54.4177 70.1413 L 54.5382 70.2618 L 54.6331 70.3665 L 54.7173 70.4800 L 54.7900 70.6012 L 54.8504 70.7289 L 54.8980 70.8620 L 54.9048 70.8892 L 54.9573 70.9600 L 55.0300 71.0812 L 55.0904 71.2089 L 55.1377 71.3413 L 55.2582 71.4618 L 55.3531 71.5665 L 55.4373 71.6800 L 55.5100 71.8012 L 55.5704 71.9289 L 55.6180 72.0620 L 55.6523 72.1991 L 55.6731 72.3389 L 55.6760 72.3982 L 55.6773 72.4000 L 55.7500 72.5212 L 55.8104 72.6489 L 55.8580 72.7820 L 55.8648 72.8092 L 55.9173 72.8800 L 55.9900 73.0012 L 56.0504 73.1289 L 56.0980 73.2620 L 56.1048 73.2892 L 56.1573 73.3600 L 56.2300 73.4812 L 56.2904 73.6089 L 56.3380 73.7420 L 56.3723 73.8791 L 56.3931 74.0189 L 56.3940 74.0375 L 56.4582 74.1018 L 56.5531 74.2065 L 56.6373 74.3200 L 56.7100 74.4412 L 56.7704 74.5689 L 56.8180 74.7020 L 56.8523 74.8391 L 56.8731 74.9789 L 56.8800 75.1200 L 56.8800 76.4845 L 56.9500 76.6012 L 57.0104 76.7289 L 57.0580 76.8620 L 57.0648 76.8892 L 57.1173 76.9600 L 57.1900 77.0812 L 57.2504 77.2089 L 57.2977 77.3413 L 57.4182 77.4618 L 57.5131 77.5665 L 57.5973 77.6800 L 57.6700 77.8012 L 57.7304 77.9289 L 57.7780 78.0620 L 57.7848 78.0892 L 57.8373 78.1600 L 57.9100 78.2812 L 57.9704 78.4089 L 58.0180 78.5420 L 58.0523 78.6791 L 58.0731 78.8189 L 58.0800 78.9600 L 58.0800 79.2000 L 58.0731 79.3411 L 58.0523 79.4809 L 58.0180 79.6180 L 57.9704 79.7511 L 57.9100 79.8788 L 57.8400 79.9955 L 57.8400 81.7645 L 57.9100 81.8812 L 57.9704 82.0089 L 58.0180 82.1420 L 58.0523 82.2791 L 58.0731 82.4189 L 58.0800 82.5600 L 58.0800 84.7200 L 58.0731 84.8611 L 58.0523 85.0009 L 58.0180 85.1380 L 57.9704 85.2711 L 57.9100 85.3988 L 57.8373 85.5200 L 57.7531 85.6335 L 57.6582 85.7382 L 57.4182 85.9782 L 57.3135 86.0731 L 57.2000 86.1573 L 57.0788 86.2300 L 56.9511 86.2904 L 56.8180 86.3380 L 56.6809 86.3723 L 56.5411 86.3931 L 56.4818 86.3960 L 56.4800 86.3973 L 56.3588 86.4700 L 56.2311 86.5304 L 56.0980 86.5780 L 55.9609 86.6123 L 55.8211 86.6331 L 55.6800 86.6400 L 55.2755 86.6400 L 55.1588 86.7100 L 55.0311 86.7704 L 54.8980 86.8180 L 54.7609 86.8523 L 54.6211 86.8731 L 54.4800 86.8800 L 54.0755 86.8800 L 53.9588 86.9500 L 53.8311 87.0104 L 53.6980 87.0580 L 53.5609 87.0923 L 53.4211 87.1131 L 53.2800 87.1200 L 52.6355 87.1200 L 52.5188 87.1900 L 52.3911 87.2504 L 52.2580 87.2980 L 52.1209 87.3323 L 51.9811 87.3531 L 51.9218 87.3560 L 51.9200 87.3573 L 51.7988 87.4300 L 51.6711 87.4904 L 51.5380 87.5380 L 51.4009 87.5723 L 51.2611 87.5931 L 51.2018 87.5960 L 51.2000 87.5973 L 51.0788 87.6700 L 50.9511 87.7304 L 50.8187 87.7777 L 50.6982 87.8982 L 50.5935 87.9931 L 50.4800 88.0773 L 50.3588 88.1500 L 50.2311 88.2104 L 50.0980 88.2580 L 50.0708 88.2648 L 50.0000 88.3173 L 49.8788 88.3900 L 49.7511 88.4504 L 49.6180 88.4980 L 49.5908 88.5048 L 49.5200 88.5573 L 49.3988 88.6300 L 49.2711 88.6904 L 49.1387 88.7377 L 48.7782 89.0982 L 48.6735 89.1931 L 48.5600 89.2773 L 48.4388 89.3500 L 48.3111 89.4104 L 48.1787 89.4577 L 48.0582 89.5782 L 47.9535 89.6731 L 47.8400 89.7573 L 47.7188 89.8300 L 47.5911 89.8904 L 47.4587 89.9377 L 47.0982 90.2982 L 46.9935 90.3931 L 46.8800 90.4773 L 46.7588 90.5500 L 46.6311 90.6104 L 46.4987 90.6577 L 46.3782 90.7782 L 46.2735 90.8731 L 46.1600 90.9573 L 46.0388 91.0300 L 45.9111 91.0904 L 45.7787 91.1377 L 45.4182 91.4982 L 45.3135 91.5931 L 45.2000 91.6773 L 45.0788 91.7500 L 44.9511 91.8104 L 44.8187 91.8577 L 43.4982 93.1782 L 43.3935 93.2731 L 43.2800 93.3573 L 43.1588 93.4300 L 43.0311 93.4904 L 42.8987 93.5377 L 42.2982 94.1382 L 42.1935 94.2331 L 42.0800 94.3173 L 42.0283 94.3483 L 41.9973 94.4000 L 41.9131 94.5135 L 41.8182 94.6182 L 41.4577 94.9787 L 41.4104 95.1111 L 41.3500 95.2388 L 41.2773 95.3600 L 41.1931 95.4735 L 41.0982 95.5782 L 40.0177 96.6587 L 39.9704 96.7911 L 39.9100 96.9188 L 39.8373 97.0400 L 39.7531 97.1535 L 39.6582 97.2582 L 38.5777 98.3387 L 38.5304 98.4711 L 38.4700 98.5988 L 38.3973 98.7200 L 38.3960 98.7218 L 38.3931 98.7811 L 38.3723 98.9209 L 38.3380 99.0580 L 38.2904 99.1911 L 38.2300 99.3188 L 38.1573 99.4400 L 38.1560 99.4418 L 38.1531 99.5011 L 38.1323 99.6409 L 38.1247 99.6715 L 38.2311 99.7096 L 38.3588 99.7700 L 38.4800 99.8427 L 38.5935 99.9269 L 38.6982 100.0218 L 39.1782 100.5018 L 39.2731 100.6065 L 39.3573 100.7200 L 39.4300 100.8412 L 39.4904 100.9689 L 39.5380 101.1020 L 39.5723 101.2391 L 39.5931 101.3789 L 39.6000 101.5200 L 39.6000 102.0000 L 39.5931 102.1411 L 39.5723 102.2809 L 39.5380 102.4180 L 39.4904 102.5511 L 39.4300 102.6788 L 39.3600 102.7955 L 39.3600 102.9600 L 39.3531 103.1011 L 39.3323 103.2409 L 39.2980 103.3780 L 39.2504 103.5111 L 39.1900 103.6388 L 39.1173 103.7600 L 39.1160 103.7618 L 39.1131 103.8211 L 39.0923 103.9609 L 39.0580 104.0980 L 39.0104 104.2311 L 38.9500 104.3588 L 38.8773 104.4800 L 38.8760 104.4818 L 38.8731 104.5411 L 38.8523 104.6809 L 38.8180 104.8180 L 38.7704 104.9511 L 38.7100 105.0788 L 38.6373 105.2000 L 38.5848 105.2708 L 38.5780 105.2980 L 38.5304 105.4311 L 38.4700 105.5588 L 38.3973 105.6800 L 38.3131 105.7935 L 38.2182 105.8982 L 38.1540 105.9625 L 38.1531 105.9811 L 38.1323 106.1209 L 38.0980 106.2580 L 38.0504 106.3911 L 37.9900 106.5188 L 37.9200 106.6355 L 37.9200 107.9245 L 37.9900 108.0412 L 38.0504 108.1689 L 38.0980 108.3020 L 38.1323 108.4391 L 38.1531 108.5789 L 38.1560 108.6382 L 38.1573 108.6400 L 38.2300 108.7612 L 38.2904 108.8889 L 38.3380 109.0220 L 38.3723 109.1591 L 38.3931 109.2989 L 38.3960 109.3582 L 38.3973 109.3600 L 38.4700 109.4812 L 38.5304 109.6089 L 38.5780 109.7420 L 38.6123 109.8791 L 38.6331 110.0189 L 38.6400 110.1600 L 38.6400 110.3245 L 38.7100 110.4412 L 38.7704 110.5689 L 38.8180 110.7020 L 38.8523 110.8391 L 38.8731 110.9789 L 38.8760 111.0382 L 38.8773 111.0400 L 38.9500 111.1612 L 39.0104 111.2889 L 39.0580 111.4220 L 39.0648 111.4492 L 39.1173 111.5200 L 39.1900 111.6412 L 39.2504 111.7689 L 39.2980 111.9020 L 39.3323 112.0391 L 39.3531 112.1789 L 39.3560 112.2382 L 39.3573 112.2400 L 39.4300 112.3612 L 39.4904 112.4889 L 39.5380 112.6220 L 39.5448 112.6492 L 39.5973 112.7200 L 39.6700 112.8412 L 39.7304 112.9689 L 39.7777 113.1013 L 39.8982 113.2218 L 39.9931 113.3265 L 40.0773 113.4400 L 40.1500 113.5612 L 40.2104 113.6889 L 40.2577 113.8213 L 41.0982 114.6618 L 41.1931 114.7665 L 41.2773 114.8800 L 41.3500 115.0012 L 41.4104 115.1289 L 41.4580 115.2620 L 41.4648 115.2892 L 41.5173 115.3600 L 41.5900 115.4812 L 41.6504 115.6089 L 41.6980 115.7420 L 41.7048 115.7692 L 41.7573 115.8400 L 41.8300 115.9612 L 41.8904 116.0889 L 41.9380 116.2220 L 41.9448 116.2492 L 41.9973 116.3200 L 42.0700 116.4412 L 42.1304 116.5689 L 42.1780 116.7020 L 42.1848 116.7292 L 42.2373 116.8000 L 42.3100 116.9212 L 42.3704 117.0489 L 42.4180 117.1820 L 42.4248 117.2092 L 42.4773 117.2800 L 42.5500 117.4012 L 42.6104 117.5289 L 42.6580 117.6620 L 42.6648 117.6892 L 42.7173 117.7600 L 42.7900 117.8812 L 42.8504 118.0089 L 42.8980 118.1420 L 42.9262 118.2544 L 43.0400 118.3227 L 43.1108 118.3752 L 43.1380 118.3820 L 43.2711 118.4296 L 43.3988 118.4900 L 43.5200 118.5627 L 43.6335 118.6469 L 43.7382 118.7418 L 44.2182 119.2218 L 44.3131 119.3265 L 44.3973 119.4400 L 44.4700 119.5612 L 44.5304 119.6889 L 44.5780 119.8220 L 44.6123 119.9591 L 44.6331 120.0989 L 44.6400 120.2400 L 44.6331 120.3811 L 44.6123 120.5209 L 44.5780 120.6580 L 44.5304 120.7911 L 44.4700 120.9188 L 44.3973 121.0400 L 44.3131 121.1535 L 44.2182 121.2582 L 43.9782 121.4982 L 43.8735 121.5931 L 43.7600 121.6773 L 43.6388 121.7500 L 43.5111 121.8104 L 43.3780 121.8580 L 43.2409 121.8923 L 43.1011 121.9131 L 43.0418 121.9160 L 43.0400 121.9173 L 42.9188 121.9900 L 42.7911 122.0504 L 42.6580 122.0980 L 42.6308 122.1048 L 42.5600 122.1573 L 42.4388 122.2300 L 42.3111 122.2904 L 42.1780 122.3380 L 42.0409 122.3723 L 41.9011 122.3931 L 41.8418 122.3960 L 41.8400 122.3973 L 41.7188 122.4700 L 41.5911 122.5304 L 41.4580 122.5780 L 41.3209 122.6123 L 41.1811 122.6331 L 41.1218 122.6360 L 41.1200 122.6373 L 40.9988 122.7100 L 40.8711 122.7704 L 40.7380 122.8180 L 40.6009 122.8523 L 40.4611 122.8731 L 40.3200 122.8800 L 40.1555 122.8800 L 40.0388 122.9500 L 39.9111 123.0104 L 39.7780 123.0580 L 39.6409 123.0923 L 39.5011 123.1131 L 39.4418 123.1160 L 39.4400 123.1173 L 39.3188 123.1900 L 39.1911 123.2504 L 39.0580 123.2980 L 38.9209 123.3323 L 38.7811 123.3531 L 38.7218 123.3560 L 38.7200 123.3573 L 38.5988 123.4300 L 38.4711 123.4904 L 38.3380 123.5380 L 38.2009 123.5723 L 38.0611 123.5931 L 38.0018 123.5960 L 38.0000 123.5973 L 37.8788 123.6700 L 37.7511 123.7304 L 37.6180 123.7780 L 37.4809 123.8123 L 37.3411 123.8331 L 37.2818 123.8360 L 37.2800 123.8373 L 37.1588 123.9100 L 37.0311 123.9704 L 36.8980 124.0180 L 36.7609 124.0523 L 36.6211 124.0731 L 36.4800 124.0800 L 36.3155 124.0800 L 36.1988 124.1500 L 36.0711 124.2104 L 35.9380 124.2580 L 35.8009 124.2923 L 35.6611 124.3131 L 35.6018 124.3160 L 35.6000 124.3173 L 35.4788 124.3900 L 35.3511 124.4504 L 35.2180 124.4980 L 35.0809 124.5323 L 34.9411 124.5531 L 34.8818 124.5560 L 34.8800 124.5573 L 34.7588 124.6300 L 34.6311 124.6904 L 34.4980 124.7380 L 34.3609 124.7723 L 34.2211 124.7931 L 34.1618 124.7960 L 34.1600 124.7973 L 34.0388 124.8700 L 33.9111 124.9304 L 33.7780 124.9780 L 33.6409 125.0123 L 33.5011 125.0331 L 33.3600 125.0400 L 33.1955 125.0400 L 33.0788 125.1100 L 32.9511 125.1704 L 32.8180 125.2180 L 32.6809 125.2523 L 32.5411 125.2731 L 32.4818 125.2760 L 32.4800 125.2773 L 32.3588 125.3500 L 32.2311 125.4104 L 32.0980 125.4580 L 31.9609 125.4923 L 31.8211 125.5131 L 31.7618 125.5160 L 31.7600 125.5173 L 31.6388 125.5900 L 31.5111 125.6504 L 31.3780 125.6980 L 31.3508 125.7048 L 31.2800 125.7573 L 31.1588 125.8300 L 31.0311 125.8904 L 30.8980 125.9380 L 30.7609 125.9723 L 30.6211 125.9931 L 30.4800 126.0000 L 30.0755 126.0000 L 29.9588 126.0700 L 29.8311 126.1304 L 29.6980 126.1780 L 29.5609 126.2123 L 29.4211 126.2331 L 29.2800 126.2400 L 28.6355 126.2400 L 28.5188 126.3100 L 28.3911 126.3704 L 28.2580 126.4180 L 28.1209 126.4523 L 27.9811 126.4731 L 27.8400 126.4800 L 27.6755 126.4800 L 27.5588 126.5500 L 27.4311 126.6104 L 27.2980 126.6580 L 27.1609 126.6923 L 27.0211 126.7131 L 26.8800 126.7200 L 26.4755 126.7200 L 26.3588 126.7900 L 26.2311 126.8504 L 26.0980 126.8980 L 25.9609 126.9323 L 25.8211 126.9531 L 25.6800 126.9600 L 9.8400 126.9600 L 9.6989 126.9531 L 9.5591 126.9323 L 9.4220 126.8980 L 9.2889 126.8504 L 9.1612 126.7900 L 9.0400 126.7173 L 8.9265 126.6331 L 8.8218 126.5382 L 8.5818 126.2982 L 8.4869 126.1935 L 8.4027 126.0800 L 8.3300 125.9588 L 8.2696 125.8311 L 8.2220 125.6980 L 8.1877 125.5609 L 8.1669 125.4211 L 8.1600 125.2800 L 8.1600 10.0800 Z" fill="none" stroke="black" stroke-width="0.5" /></svg>