<?xml version="1.0" encoding="utf-8" ?>
<svg baseProfile="full" height="261" version="1.1" viewBox="0 0 189 261" width="189" xmlns="http://www.w3.org/2000/svg" xmlns:ev="http://www.w3.org/2001/xml-events" xmlns:xlink="http://www.w3.org/1999/xlink"><defs /><path d="M 19.6800 110.2355 L 19.6800 111.7645 L 19.7500 111.8812 L 19.8104 112.0089 L 19.8580 112.1420 L 19.8923 112.2791 L 19.9131 112.4189 L 19.9200 112.5600 L 19.9200 112.9645 L 19.9900 113.0812 L 20.0504 113.2089 L 20.0980 113.3420 L 20.1323 113.4791 L 20.1531 113.6189 L 20.1600 113.7600 L 20.1600 113.9245 L 20.2300 114.0412 L 20.2904 114.1689 L 20.3380 114.3020 L 20.3723 114.4391 L 20.3931 114.5789 L 20.3960 114.6382 L 20.3973 114.6400 L 20.4700 114.7612 L 20.5304 114.8889 L 20.5780 115.0220 L 20.5848 115.0492 L 20.6373 115.1200 L 20.7100 115.2412 L 20.7704 115.3689 L 20.8180 115.5020 L 20.8523 115.6391 L 20.8731 115.7789 L 20.8800 115.9200 L 20.8800 116.0845 L 20.9500 116.2012 L 21.0104 116.3289 L 21.0580 116.4620 L 21.0923 116.5991 L 21.1131 116.7389 L 21.1160 116.7982 L 21.1173 116.8000 L 21.1900 116.9212 L 21.2504 117.0489 L 21.2980 117.1820 L 21.3323 117.3191 L 21.3531 117.4589 L 21.3540 117.4775 L 21.4182 117.5418 L 21.5131 117.6465 L 21.5973 117.7600 L 21.6700 117.8812 L 21.7304 118.0089 L 21.7777 118.1413 L 21.7787 118.1423 L 21.9111 118.1896 L 22.0388 118.2500 L 22.1600 118.3227 L 22.2735 118.4069 L 22.3782 118.5018 L 22.4987 118.6223 L 22.6311 118.6696 L 22.7588 118.7300 L 22.8800 118.8027 L 22.8818 118.8040 L 22.9411 118.8069 L 23.0809 118.8277 L 23.2180 118.8620 L 23.3511 118.9096 L 23.4788 118.9700 L 23.6000 119.0427 L 23.6018 119.0440 L 23.6611 119.0469 L 23.8009 119.0677 L 23.9380 119.1020 L 24.0711 119.1496 L 24.1988 119.2100 L 24.3155 119.2800 L 24.7200 119.2800 L 24.8611 119.2869 L 25.0009 119.3077 L 25.1380 119.3420 L 25.2711 119.3896 L 25.3988 119.4500 L 25.5155 119.5200 L 26.4000 119.5200 L 26.5411 119.5269 L 26.6809 119.5477 L 26.8180 119.5820 L 26.9511 119.6296 L 27.0788 119.6900 L 27.1955 119.7600 L 28.0800 119.7600 L 28.2211 119.7669 L 28.3609 119.7877 L 28.4980 119.8220 L 28.6311 119.8696 L 28.7588 119.9300 L 28.8755 120.0000 L 29.0400 120.0000 L 29.1811 120.0069 L 29.3209 120.0277 L 29.4580 120.0620 L 29.5911 120.1096 L 29.7188 120.1700 L 29.8355 120.2400 L 30.2400 120.2400 L 30.3811 120.2469 L 30.5209 120.2677 L 30.6580 120.3020 L 30.7911 120.3496 L 30.9188 120.4100 L 31.0355 120.4800 L 31.4400 120.4800 L 31.5811 120.4869 L 31.7209 120.5077 L 31.8580 120.5420 L 31.9911 120.5896 L 32.1188 120.6500 L 32.2355 120.7200 L 32.8800 120.7200 L 33.0211 120.7269 L 33.1609 120.7477 L 33.2980 120.7820 L 33.4311 120.8296 L 33.5588 120.8900 L 33.6755 120.9600 L 35.5200 120.9600 L 35.6611 120.9669 L 35.8009 120.9877 L 35.9380 121.0220 L 36.0711 121.0696 L 36.1988 121.1300 L 36.3155 121.2000 L 41.9245 121.2000 L 42.0412 121.1300 L 42.1689 121.0696 L 42.3020 121.0220 L 42.4391 120.9877 L 42.5789 120.9669 L 42.7200 120.9600 L 44.8800 120.9600 L 45.0211 120.9669 L 45.1609 120.9877 L 45.2980 121.0220 L 45.4311 121.0696 L 45.5588 121.1300 L 45.6755 121.2000 L 46.5600 121.2000 L 46.7011 121.2069 L 46.8409 121.2277 L 46.9780 121.2620 L 47.1111 121.3096 L 47.2388 121.3700 L 47.3555 121.4400 L 48.2400 121.4400 L 48.3811 121.4469 L 48.5209 121.4677 L 48.6580 121.5020 L 48.7911 121.5496 L 48.9188 121.6100 L 49.0355 121.6800 L 52.4845 121.6800 L 52.6012 121.6100 L 52.7289 121.5496 L 52.8620 121.5020 L 52.9991 121.4677 L 53.1389 121.4469 L 53.2800 121.4400 L 54.4045 121.4400 L 54.5212 121.3700 L 54.6489 121.3096 L 54.7820 121.2620 L 54.9191 121.2277 L 55.0589 121.2069 L 55.2000 121.2000 L 55.6045 121.2000 L 55.7212 121.1300 L 55.8489 121.0696 L 55.9820 121.0220 L 56.1191 120.9877 L 56.2589 120.9669 L 56.4000 120.9600 L 56.5645 120.9600 L 56.6812 120.8900 L 56.8089 120.8296 L 56.9420 120.7820 L 57.0791 120.7477 L 57.2189 120.7269 L 57.3600 120.7200 L 57.5245 120.7200 L 57.6412 120.6500 L 57.7689 120.5896 L 57.9020 120.5420 L 58.0391 120.5077 L 58.1789 120.4869 L 58.3200 120.4800 L 58.4845 120.4800 L 58.6012 120.4100 L 58.7289 120.3496 L 58.8620 120.3020 L 58.9991 120.2677 L 59.1389 120.2469 L 59.1982 120.2440 L 59.2000 120.2427 L 59.3212 120.1700 L 59.4489 120.1096 L 59.5820 120.0620 L 59.6092 120.0552 L 59.6800 120.0027 L 59.8012 119.9300 L 59.9289 119.8696 L 60.0620 119.8220 L 60.0892 119.8152 L 60.1600 119.7627 L 60.2812 119.6900 L 60.4089 119.6296 L 60.5420 119.5820 L 60.6791 119.5477 L 60.8189 119.5269 L 60.8782 119.5240 L 60.8800 119.5227 L 61.0012 119.4500 L 61.1289 119.3896 L 61.2620 119.3420 L 61.2892 119.3352 L 61.3600 119.2827 L 61.4812 119.2100 L 61.6089 119.1496 L 61.7420 119.1020 L 61.7692 119.0952 L 61.8400 119.0427 L 61.9612 118.9700 L 62.0889 118.9096 L 62.2220 118.8620 L 62.2492 118.8552 L 62.3200 118.8027 L 62.4412 118.7300 L 62.5689 118.6696 L 62.7013 118.6223 L 62.8218 118.5018 L 62.9265 118.4069 L 63.0400 118.3227 L 63.1612 118.2500 L 63.2889 118.1896 L 63.4213 118.1423 L 63.5418 118.0218 L 63.6465 117.9269 L 63.7600 117.8427 L 63.8812 117.7700 L 64.0089 117.7096 L 64.1420 117.6620 L 64.1692 117.6552 L 64.2400 117.6027 L 64.3612 117.5300 L 64.4889 117.4696 L 64.6220 117.4220 L 64.6492 117.4152 L 64.7200 117.3627 L 64.8412 117.2900 L 64.9689 117.2296 L 65.1020 117.1820 L 65.1292 117.1752 L 65.2000 117.1227 L 65.3212 117.0500 L 65.4489 116.9896 L 65.5813 116.9423 L 65.7018 116.8218 L 65.8065 116.7269 L 65.9200 116.6427 L 66.0412 116.5700 L 66.1689 116.5096 L 66.3020 116.4620 L 66.4391 116.4277 L 66.5789 116.4069 L 66.6382 116.4040 L 66.6400 116.4027 L 66.7612 116.3300 L 66.8889 116.2696 L 67.0220 116.2220 L 67.1591 116.1877 L 67.2989 116.1669 L 67.4400 116.1600 L 67.6045 116.1600 L 67.7212 116.0900 L 67.8489 116.0296 L 67.9820 115.9820 L 68.1191 115.9477 L 68.2589 115.9269 L 68.4000 115.9200 L 68.6400 115.9200 L 68.7811 115.9269 L 68.9209 115.9477 L 69.0580 115.9820 L 69.1911 116.0296 L 69.3188 116.0900 L 69.4400 116.1627 L 69.5535 116.2469 L 69.6582 116.3418 L 69.8982 116.5818 L 69.9931 116.6865 L 70.0773 116.8000 L 70.1500 116.9212 L 70.2104 117.0489 L 70.2580 117.1820 L 70.2923 117.3191 L 70.3131 117.4589 L 70.3200 117.6000 L 70.3200 119.5200 L 70.3131 119.6611 L 70.2923 119.8009 L 70.2580 119.9380 L 70.2104 120.0711 L 70.1500 120.1988 L 70.0800 120.3155 L 70.0800 121.2000 L 70.0731 121.3411 L 70.0523 121.4809 L 70.0180 121.6180 L 69.9704 121.7511 L 69.9100 121.8788 L 69.8400 121.9955 L 69.8400 123.1200 L 69.8331 123.2611 L 69.8123 123.4009 L 69.7780 123.5380 L 69.7304 123.6711 L 69.6700 123.7988 L 69.6000 123.9155 L 69.6000 125.0400 L 69.5931 125.1811 L 69.5723 125.3209 L 69.5380 125.4580 L 69.4904 125.5911 L 69.4300 125.7188 L 69.3600 125.8355 L 69.3600 127.2000 L 69.3531 127.3411 L 69.3323 127.4809 L 69.2980 127.6180 L 69.2504 127.7511 L 69.1900 127.8788 L 69.1200 127.9955 L 69.1200 128.4000 L 69.1131 128.5411 L 69.0923 128.6809 L 69.0580 128.8180 L 69.0104 128.9511 L 68.9500 129.0788 L 68.8800 129.1955 L 68.8800 129.8400 L 68.8731 129.9811 L 68.8523 130.1209 L 68.8180 130.2580 L 68.7704 130.3911 L 68.7100 130.5188 L 68.6400 130.6355 L 68.6400 132.0000 L 68.6331 132.1411 L 68.6123 132.2809 L 68.5780 132.4180 L 68.5304 132.5511 L 68.4700 132.6788 L 68.4000 132.7955 L 68.4000 134.1600 L 68.3931 134.3011 L 68.3723 134.4409 L 68.3380 134.5780 L 68.2904 134.7111 L 68.2300 134.8388 L 68.1600 134.9555 L 68.1600 136.5600 L 68.1531 136.7011 L 68.1323 136.8409 L 68.0980 136.9780 L 68.0504 137.1111 L 67.9900 137.2388 L 67.9200 137.3555 L 67.9200 138.7200 L 67.9131 138.8611 L 67.8923 139.0009 L 67.8580 139.1380 L 67.8104 139.2711 L 67.7500 139.3988 L 67.6800 139.5155 L 67.6800 139.9200 L 67.6731 140.0611 L 67.6523 140.2009 L 67.6180 140.3380 L 67.5704 140.4711 L 67.5100 140.5988 L 67.4400 140.7155 L 67.4400 142.0800 L 67.4331 142.2211 L 67.4123 142.3609 L 67.3780 142.4980 L 67.3304 142.6311 L 67.2700 142.7588 L 67.2000 142.8755 L 67.2000 144.2400 L 67.1931 144.3811 L 67.1723 144.5209 L 67.1380 144.6580 L 67.0904 144.7911 L 67.0300 144.9188 L 66.9600 145.0355 L 66.9600 146.6400 L 66.9531 146.7811 L 66.9323 146.9209 L 66.8980 147.0580 L 66.8504 147.1911 L 66.7900 147.3188 L 66.7200 147.4355 L 66.7200 148.8000 L 66.7131 148.9411 L 66.6923 149.0809 L 66.6580 149.2180 L 66.6104 149.3511 L 66.5500 149.4788 L 66.4800 149.5955 L 66.4800 152.1600 L 66.4731 152.3011 L 66.4523 152.4409 L 66.4180 152.5780 L 66.3704 152.7111 L 66.3100 152.8388 L 66.2400 152.9555 L 66.2400 154.3200 L 66.2331 154.4611 L 66.2123 154.6009 L 66.1780 154.7380 L 66.1304 154.8711 L 66.0700 154.9988 L 66.0000 155.1155 L 66.0000 165.3600 L 65.9931 165.5011 L 65.9723 165.6409 L 65.9380 165.7780 L 65.8904 165.9111 L 65.8300 166.0388 L 65.7600 166.1555 L 65.7600 167.7600 L 65.7531 167.9011 L 65.7323 168.0409 L 65.6980 168.1780 L 65.6504 168.3111 L 65.5900 168.4388 L 65.5200 168.5555 L 65.5200 173.2800 L 65.5131 173.4211 L 65.4923 173.5609 L 65.4580 173.6980 L 65.4104 173.8311 L 65.3500 173.9588 L 65.2800 174.0755 L 65.2800 174.7200 L 65.2731 174.8611 L 65.2523 175.0009 L 65.2180 175.1380 L 65.1704 175.2711 L 65.1100 175.3988 L 65.0400 175.5155 L 65.0400 178.5600 L 65.0331 178.7011 L 65.0123 178.8409 L 64.9780 178.9780 L 64.9304 179.1111 L 64.8700 179.2388 L 64.8000 179.3555 L 64.8000 181.6800 L 64.7931 181.8211 L 64.7723 181.9609 L 64.7380 182.0980 L 64.6904 182.2311 L 64.6300 182.3588 L 64.5600 182.4755 L 64.5600 184.3200 L 64.5531 184.4611 L 64.5323 184.6009 L 64.4980 184.7380 L 64.4504 184.8711 L 64.3900 184.9988 L 64.3200 185.1155 L 64.3200 186.9600 L 64.3131 187.1011 L 64.2923 187.2409 L 64.2580 187.3780 L 64.2104 187.5111 L 64.1500 187.6388 L 64.0800 187.7555 L 64.0800 188.4000 L 64.0731 188.5411 L 64.0523 188.6809 L 64.0180 188.8180 L 63.9704 188.9511 L 63.9100 189.0788 L 63.8400 189.1955 L 63.8400 189.6000 L 63.8331 189.7411 L 63.8123 189.8809 L 63.7780 190.0180 L 63.7304 190.1511 L 63.6700 190.2788 L 63.6000 190.3955 L 63.6000 190.5600 L 63.5931 190.7011 L 63.5723 190.8409 L 63.5380 190.9780 L 63.4904 191.1111 L 63.4300 191.2388 L 63.3573 191.3600 L 63.3560 191.3618 L 63.3531 191.4211 L 63.3323 191.5609 L 63.2980 191.6980 L 63.2504 191.8311 L 63.1900 191.9588 L 63.1200 192.0755 L 63.1200 192.4800 L 63.1131 192.6211 L 63.0923 192.7609 L 63.0580 192.8980 L 63.0104 193.0311 L 62.9500 193.1588 L 62.8773 193.2800 L 62.8760 193.2818 L 62.8731 193.3411 L 62.8523 193.4809 L 62.8180 193.6180 L 62.7704 193.7511 L 62.7100 193.8788 L 62.6400 193.9955 L 62.6400 194.4000 L 62.6331 194.5411 L 62.6123 194.6809 L 62.5780 194.8180 L 62.5304 194.9511 L 62.4700 195.0788 L 62.4000 195.1955 L 62.4000 195.6000 L 62.3931 195.7411 L 62.3723 195.8809 L 62.3380 196.0180 L 62.2904 196.1511 L 62.2300 196.2788 L 62.1600 196.3955 L 62.1600 196.5600 L 62.1531 196.7011 L 62.1323 196.8409 L 62.0980 196.9780 L 62.0504 197.1111 L 61.9900 197.2388 L 61.9200 197.3555 L 61.9200 197.5200 L 61.9131 197.6611 L 61.8923 197.8009 L 61.8580 197.9380 L 61.8104 198.0711 L 61.7500 198.1988 L 61.6800 198.3155 L 61.6800 199.4400 L 61.6731 199.5811 L 61.6523 199.7209 L 61.6180 199.8580 L 61.5704 199.9911 L 61.5100 200.1188 L 61.4400 200.2355 L 61.4400 202.4845 L 61.5100 202.6012 L 61.5704 202.7289 L 61.6177 202.8613 L 61.9782 203.2218 L 62.0731 203.3265 L 62.1573 203.4400 L 62.2300 203.5612 L 62.2904 203.6889 L 62.3377 203.8213 L 62.3387 203.8223 L 62.4711 203.8696 L 62.5988 203.9300 L 62.7200 204.0027 L 62.7908 204.0552 L 62.8180 204.0620 L 62.9511 204.1096 L 63.0788 204.1700 L 63.2000 204.2427 L 63.2708 204.2952 L 63.2980 204.3020 L 63.4311 204.3496 L 63.5588 204.4100 L 63.6800 204.4827 L 63.7508 204.5352 L 63.7780 204.5420 L 63.9111 204.5896 L 64.0388 204.6500 L 64.1600 204.7227 L 64.2308 204.7752 L 64.2580 204.7820 L 64.3911 204.8296 L 64.5188 204.8900 L 64.6400 204.9627 L 64.7535 205.0469 L 64.8582 205.1418 L 64.9787 205.2623 L 65.1111 205.3096 L 65.2388 205.3700 L 65.3600 205.4427 L 65.4308 205.4952 L 65.4580 205.5020 L 65.5911 205.5496 L 65.7188 205.6100 L 65.8400 205.6827 L 65.9108 205.7352 L 65.9380 205.7420 L 66.0711 205.7896 L 66.1988 205.8500 L 66.3200 205.9227 L 66.3908 205.9752 L 66.4180 205.9820 L 66.5511 206.0296 L 66.6788 206.0900 L 66.8000 206.1627 L 66.9135 206.2469 L 67.0182 206.3418 L 67.1387 206.4623 L 67.2711 206.5096 L 67.3988 206.5700 L 67.5200 206.6427 L 67.6335 206.7269 L 67.7382 206.8218 L 68.0987 207.1823 L 68.2311 207.2296 L 68.3588 207.2900 L 68.4800 207.3627 L 68.5508 207.4152 L 68.5780 207.4220 L 68.7111 207.4696 L 68.8388 207.5300 L 68.9600 207.6027 L 69.0735 207.6869 L 69.1782 207.7818 L 69.2987 207.9023 L 69.4311 207.9496 L 69.5588 208.0100 L 69.6800 208.0827 L 69.7508 208.1352 L 69.7780 208.1420 L 69.9111 208.1896 L 70.0388 208.2500 L 70.1600 208.3227 L 70.2308 208.3752 L 70.2580 208.3820 L 70.3911 208.4296 L 70.5188 208.4900 L 70.6400 208.5627 L 70.7535 208.6469 L 70.8582 208.7418 L 70.9225 208.8060 L 70.9411 208.8069 L 71.0809 208.8277 L 71.2180 208.8620 L 71.3511 208.9096 L 71.4788 208.9700 L 71.6000 209.0427 L 71.7135 209.1269 L 71.8182 209.2218 L 71.9387 209.3423 L 72.0711 209.3896 L 72.1988 209.4500 L 72.3155 209.5200 L 72.7200 209.5200 L 72.8611 209.5269 L 73.0009 209.5477 L 73.1380 209.5820 L 73.2711 209.6296 L 73.3988 209.6900 L 73.5155 209.7600 L 74.8045 209.7600 L 74.9212 209.6900 L 75.0489 209.6296 L 75.1820 209.5820 L 75.2092 209.5752 L 75.2800 209.5227 L 75.4012 209.4500 L 75.5289 209.3896 L 75.6620 209.3420 L 75.7991 209.3077 L 75.9389 209.2869 L 75.9982 209.2840 L 76.0000 209.2827 L 76.1212 209.2100 L 76.2489 209.1496 L 76.3820 209.1020 L 76.4092 209.0952 L 76.4800 209.0427 L 76.5317 209.0117 L 76.5627 208.9600 L 76.6469 208.8465 L 76.7418 208.7418 L 77.9418 207.5418 L 78.0465 207.4469 L 78.1600 207.3627 L 78.2812 207.2900 L 78.4089 207.2296 L 78.5420 207.1820 L 78.5692 207.1752 L 78.6400 207.1227 L 78.7612 207.0500 L 78.8889 206.9896 L 79.0220 206.9420 L 79.1591 206.9077 L 79.2989 206.8869 L 79.3582 206.8840 L 79.3600 206.8827 L 79.4812 206.8100 L 79.6089 206.7496 L 79.7420 206.7020 L 79.8791 206.6677 L 80.0189 206.6469 L 80.1600 206.6400 L 80.3011 206.6469 L 80.4409 206.6677 L 80.5780 206.7020 L 80.7111 206.7496 L 80.8388 206.8100 L 80.9600 206.8827 L 81.0735 206.9669 L 81.1782 207.0618 L 82.0187 207.9023 L 82.1511 207.9496 L 82.2788 208.0100 L 82.4000 208.0827 L 82.5135 208.1669 L 82.6182 208.2618 L 82.6825 208.3260 L 82.7011 208.3269 L 82.8409 208.3477 L 82.9780 208.3820 L 83.1111 208.4296 L 83.2388 208.4900 L 83.3600 208.5627 L 83.4308 208.6152 L 83.4580 208.6220 L 83.5911 208.6696 L 83.7188 208.7300 L 83.8400 208.8027 L 83.9535 208.8869 L 84.0582 208.9818 L 84.7782 209.7018 L 84.8731 209.8065 L 84.9573 209.9200 L 85.0300 210.0412 L 85.0904 210.1689 L 85.1380 210.3020 L 85.1723 210.4391 L 85.1931 210.5789 L 85.2000 210.7200 L 85.2000 212.0845 L 85.2700 212.2012 L 85.3304 212.3289 L 85.3777 212.4613 L 85.6187 212.7023 L 85.7511 212.7496 L 85.8788 212.8100 L 85.9955 212.8800 L 88.0800 212.8800 L 88.2211 212.8869 L 88.3609 212.9077 L 88.4980 212.9420 L 88.6311 212.9896 L 88.7588 213.0500 L 88.8800 213.1227 L 88.9935 213.2069 L 89.0982 213.3018 L 89.5782 213.7818 L 89.6731 213.8865 L 89.7573 214.0000 L 89.8300 214.1212 L 89.8904 214.2489 L 89.9380 214.3820 L 89.9448 214.4092 L 89.9973 214.4800 L 90.0700 214.6012 L 90.1304 214.7289 L 90.1780 214.8620 L 90.2123 214.9991 L 90.2331 215.1389 L 90.2340 215.1575 L 90.4187 215.3423 L 90.5511 215.3896 L 90.6788 215.4500 L 90.7955 215.5200 L 91.5635 215.5200 L 91.9823 215.1013 L 92.0296 214.9689 L 92.0900 214.8412 L 92.1627 214.7200 L 92.2469 214.6065 L 92.3418 214.5018 L 93.3018 213.5418 L 93.4065 213.4469 L 93.5200 213.3627 L 93.6412 213.2900 L 93.7689 213.2296 L 93.9020 213.1820 L 94.0391 213.1477 L 94.1789 213.1269 L 94.3200 213.1200 L 94.5600 213.1200 L 94.7011 213.1269 L 94.8409 213.1477 L 94.9780 213.1820 L 95.1111 213.2296 L 95.2388 213.2900 L 95.3600 213.3627 L 95.4735 213.4469 L 95.5782 213.5418 L 96.0582 214.0218 L 96.1531 214.1265 L 96.2373 214.2400 L 96.3100 214.3612 L 96.3704 214.4889 L 96.4180 214.6220 L 96.4523 214.7591 L 96.4731 214.8989 L 96.4800 215.0400 L 96.4800 215.2800 L 96.4731 215.4211 L 96.4523 215.5609 L 96.4180 215.6980 L 96.3704 215.8311 L 96.3100 215.9588 L 96.2400 216.0755 L 96.2400 216.4347 L 96.3155 216.4800 L 96.6445 216.4800 L 96.7612 216.4100 L 96.8889 216.3496 L 97.0213 216.3023 L 97.5023 215.8213 L 97.5496 215.6889 L 97.6100 215.5612 L 97.6827 215.4400 L 97.7669 215.3265 L 97.8618 215.2218 L 97.9260 215.1575 L 97.9269 215.1389 L 97.9477 214.9991 L 97.9820 214.8620 L 98.0296 214.7289 L 98.0900 214.6012 L 98.1600 214.4845 L 98.1600 214.3200 L 98.1669 214.1789 L 98.1877 214.0391 L 98.2220 213.9020 L 98.2696 213.7689 L 98.3300 213.6412 L 98.4027 213.5200 L 98.4552 213.4492 L 98.4620 213.4220 L 98.5096 213.2889 L 98.5700 213.1612 L 98.6427 213.0400 L 98.7269 212.9265 L 98.8218 212.8218 L 99.1823 212.4613 L 99.2296 212.3289 L 99.2900 212.2012 L 99.3627 212.0800 L 99.4469 211.9665 L 99.5418 211.8618 L 99.9023 211.5013 L 99.9496 211.3689 L 100.0100 211.2412 L 100.0827 211.1200 L 100.1669 211.0065 L 100.2618 210.9018 L 100.7418 210.4218 L 100.8465 210.3269 L 100.9600 210.2427 L 101.0812 210.1700 L 101.2089 210.1096 L 101.3413 210.0623 L 103.2623 208.1413 L 103.3096 208.0089 L 103.3700 207.8812 L 103.4427 207.7600 L 103.5269 207.6465 L 103.6218 207.5418 L 104.2223 206.9413 L 104.2696 206.8089 L 104.3300 206.6812 L 104.4027 206.5600 L 104.4869 206.4465 L 104.5818 206.3418 L 105.6623 205.2613 L 105.7096 205.1289 L 105.7700 205.0012 L 105.8427 204.8800 L 105.8952 204.8092 L 105.9020 204.7820 L 105.9496 204.6489 L 106.0100 204.5212 L 106.0827 204.4000 L 106.1669 204.2865 L 106.2618 204.1818 L 106.3823 204.0613 L 106.4296 203.9289 L 106.4900 203.8012 L 106.5627 203.6800 L 106.6469 203.5665 L 106.7418 203.4618 L 106.8623 203.3413 L 106.9096 203.2089 L 106.9700 203.0812 L 107.0427 202.9600 L 107.1269 202.8465 L 107.2218 202.7418 L 107.5823 202.3813 L 107.6296 202.2489 L 107.6900 202.1212 L 107.7627 202.0000 L 107.8469 201.8865 L 107.9418 201.7818 L 108.1818 201.5418 L 108.2865 201.4469 L 108.4000 201.3627 L 108.5212 201.2900 L 108.6489 201.2296 L 108.7813 201.1823 L 110.1018 199.8618 L 110.2065 199.7669 L 110.3200 199.6827 L 110.4412 199.6100 L 110.5689 199.5496 L 110.7013 199.5023 L 110.9423 199.2613 L 110.9896 199.1289 L 111.0500 199.0012 L 111.1200 198.8845 L 111.1200 198.2400 L 111.1269 198.0989 L 111.1477 197.9591 L 111.1820 197.8220 L 111.2296 197.6889 L 111.2900 197.5612 L 111.3627 197.4400 L 111.4469 197.3265 L 111.5418 197.2218 L 112.0218 196.7418 L 112.1265 196.6469 L 112.2400 196.5627 L 112.3612 196.4900 L 112.4889 196.4296 L 112.6220 196.3820 L 112.6492 196.3752 L 112.7200 196.3227 L 112.8412 196.2500 L 112.9689 196.1896 L 113.1020 196.1420 L 113.2391 196.1077 L 113.3789 196.0869 L 113.5200 196.0800 L 113.9245 196.0800 L 114.0412 196.0100 L 114.1689 195.9496 L 114.3020 195.9020 L 114.4391 195.8677 L 114.5789 195.8469 L 114.6382 195.8440 L 114.6400 195.8427 L 114.7612 195.7700 L 114.8889 195.7096 L 115.0220 195.6620 L 115.1591 195.6277 L 115.2989 195.6069 L 115.3582 195.6040 L 115.3600 195.6027 L 115.4812 195.5300 L 115.6089 195.4696 L 115.7420 195.4220 L 115.8791 195.3877 L 116.0189 195.3669 L 116.1600 195.3600 L 116.6400 195.3600 L 116.7811 195.3669 L 116.9209 195.3877 L 117.0580 195.4220 L 117.1911 195.4696 L 117.3188 195.5300 L 117.4400 195.6027 L 117.5535 195.6869 L 117.5646 195.6969 L 117.6620 195.6620 L 117.7991 195.6277 L 117.9389 195.6069 L 117.9982 195.6040 L 118.0000 195.6027 L 118.1212 195.5300 L 118.2489 195.4696 L 118.3820 195.4220 L 118.5191 195.3877 L 118.6589 195.3669 L 118.8000 195.3600 L 118.9235 195.3600 L 118.9818 195.3018 L 119.0865 195.2069 L 119.2000 195.1227 L 119.3212 195.0500 L 119.4489 194.9896 L 119.5820 194.9420 L 119.7191 194.9077 L 119.8589 194.8869 L 120.0000 194.8800 L 120.4800 194.8800 L 120.6211 194.8869 L 120.7609 194.9077 L 120.8980 194.9420 L 121.0311 194.9896 L 121.1588 195.0500 L 121.2800 195.1227 L 121.3935 195.2069 L 121.4982 195.3018 L 121.7382 195.5418 L 121.8331 195.6465 L 121.9173 195.7600 L 121.9900 195.8812 L 122.0504 196.0089 L 122.0980 196.1420 L 122.1323 196.2791 L 122.1531 196.4189 L 122.1600 196.5600 L 122.1600 197.5200 L 122.1531 197.6611 L 122.1323 197.8009 L 122.0980 197.9380 L 122.0758 198.0000 L 122.6400 198.0000 L 122.7811 198.0069 L 122.9209 198.0277 L 123.0580 198.0620 L 123.1911 198.1096 L 123.3188 198.1700 L 123.4355 198.2400 L 124.3200 198.2400 L 124.4611 198.2469 L 124.6009 198.2677 L 124.7380 198.3020 L 124.8711 198.3496 L 124.9988 198.4100 L 125.1200 198.4827 L 125.1908 198.5352 L 125.2180 198.5420 L 125.3511 198.5896 L 125.4788 198.6500 L 125.6000 198.7227 L 125.6079 198.7286 L 125.6189 198.7269 L 125.7600 198.7200 L 126.4800 198.7200 L 126.6211 198.7269 L 126.7609 198.7477 L 126.8980 198.7820 L 127.0311 198.8296 L 127.1588 198.8900 L 127.2800 198.9627 L 127.2818 198.9640 L 127.3411 198.9669 L 127.4809 198.9877 L 127.6180 199.0220 L 127.7511 199.0696 L 127.8788 199.1300 L 128.0000 199.2027 L 128.1135 199.2869 L 128.2182 199.3818 L 128.6982 199.8618 L 128.7931 199.9665 L 128.8773 200.0800 L 128.9500 200.2012 L 129.0104 200.3289 L 129.0580 200.4620 L 129.0923 200.5991 L 129.1131 200.7389 L 129.1200 200.8800 L 129.1200 214.8000 L 129.1131 214.9411 L 129.0923 215.0809 L 129.0580 215.2180 L 129.0104 215.3511 L 128.9500 215.4788 L 128.8800 215.5955 L 128.8800 219.6000 L 128.8731 219.7411 L 128.8523 219.8809 L 128.8180 220.0180 L 128.7704 220.1511 L 128.7100 220.2788 L 128.6400 220.3955 L 128.6400 222.4800 L 128.6331 222.6211 L 128.6123 222.7609 L 128.5780 222.8980 L 128.5304 223.0311 L 128.4700 223.1588 L 128.4000 223.2755 L 128.4000 223.4400 L 128.3931 223.5811 L 128.3723 223.7209 L 128.3380 223.8580 L 128.2904 223.9911 L 128.2300 224.1188 L 128.1600 224.2355 L 128.1600 224.4000 L 128.1531 224.5411 L 128.1323 224.6809 L 128.0980 224.8180 L 128.0504 224.9511 L 127.9900 225.0788 L 127.9200 225.1955 L 127.9200 225.8400 L 127.9131 225.9811 L 127.8923 226.1209 L 127.8580 226.2580 L 127.8104 226.3911 L 127.7500 226.5188 L 127.6800 226.6355 L 127.6800 227.2800 L 127.6731 227.4211 L 127.6523 227.5609 L 127.6180 227.6980 L 127.5958 227.7600 L 137.0400 227.7600 L 137.0400 225.3600 L 137.0469 225.2189 L 137.0677 225.0791 L 137.1020 224.9420 L 137.1496 224.8089 L 137.2100 224.6812 L 137.2800 224.5645 L 137.2800 219.3600 L 137.2869 219.2189 L 137.3077 219.0791 L 137.3420 218.9420 L 137.3896 218.8089 L 137.4500 218.6812 L 137.5200 218.5645 L 137.5200 216.0000 L 137.5269 215.8589 L 137.5477 215.7191 L 137.5820 215.5820 L 137.6296 215.4489 L 137.6900 215.3212 L 137.7600 215.2045 L 137.7600 214.5600 L 137.7669 214.4189 L 137.7877 214.2791 L 137.8220 214.1420 L 137.8696 214.0089 L 137.9300 213.8812 L 138.0000 213.7645 L 138.0000 212.9555 L 137.9300 212.8388 L 137.8696 212.7111 L 137.8220 212.5780 L 137.7877 212.4409 L 137.7669 212.3011 L 137.7600 212.1600 L 137.7600 211.9200 L 137.7669 211.7789 L 137.7686 211.7679 L 137.7627 211.7600 L 137.6900 211.6388 L 137.6296 211.5111 L 137.5820 211.3780 L 137.5477 211.2409 L 137.5269 211.1011 L 137.5200 210.9600 L 137.5200 209.0400 L 137.5269 208.8989 L 137.5477 208.7591 L 137.5820 208.6220 L 137.6296 208.4889 L 137.6900 208.3612 L 137.7627 208.2400 L 137.8152 208.1692 L 137.8220 208.1420 L 137.8696 208.0089 L 137.9300 207.8812 L 138.0027 207.7600 L 138.0869 207.6465 L 138.1818 207.5418 L 138.4218 207.3018 L 138.4800 207.2490 L 138.4800 206.9555 L 138.4100 206.8388 L 138.3496 206.7111 L 138.3020 206.5780 L 138.2677 206.4409 L 138.2469 206.3011 L 138.2400 206.1600 L 138.2400 205.6800 L 138.2469 205.5389 L 138.2677 205.3991 L 138.3020 205.2620 L 138.3496 205.1289 L 138.4100 205.0012 L 138.4827 204.8800 L 138.5669 204.7665 L 138.6618 204.6618 L 138.9018 204.4218 L 139.0065 204.3269 L 139.1200 204.2427 L 139.2412 204.1700 L 139.3689 204.1096 L 139.5020 204.0620 L 139.6391 204.0277 L 139.7789 204.0069 L 139.8382 204.0040 L 139.8400 204.0027 L 139.9612 203.9300 L 140.0889 203.8696 L 140.2220 203.8220 L 140.2492 203.8152 L 140.3200 203.7627 L 140.4412 203.6900 L 140.5689 203.6296 L 140.7013 203.5823 L 141.1823 203.1013 L 141.2296 202.9689 L 141.2900 202.8412 L 141.3627 202.7200 L 141.3640 202.7182 L 141.3669 202.6589 L 141.3877 202.5191 L 141.4220 202.3820 L 141.4696 202.2489 L 141.5300 202.1212 L 141.6000 202.0045 L 141.6000 198.5555 L 141.5300 198.4388 L 141.4696 198.3111 L 141.4220 198.1780 L 141.3877 198.0409 L 141.3669 197.9011 L 141.3600 197.7600 L 141.3600 197.1155 L 141.2900 196.9988 L 141.2296 196.8711 L 141.1820 196.7380 L 141.1477 196.6009 L 141.1269 196.4611 L 141.1200 196.3200 L 141.1200 196.1555 L 141.0500 196.0388 L 140.9896 195.9111 L 140.9420 195.7780 L 140.9077 195.6409 L 140.8869 195.5011 L 140.8800 195.3600 L 140.8800 195.1955 L 140.8100 195.0788 L 140.7496 194.9511 L 140.7020 194.8180 L 140.6677 194.6809 L 140.6469 194.5411 L 140.6440 194.4818 L 140.6427 194.4800 L 140.5700 194.3588 L 140.5096 194.2311 L 140.4620 194.0980 L 140.4277 193.9609 L 140.4069 193.8211 L 140.4000 193.6800 L 140.4000 193.2755 L 140.3300 193.1588 L 140.2696 193.0311 L 140.2220 192.8980 L 140.1877 192.7609 L 140.1669 192.6211 L 140.1600 192.4800 L 140.1600 191.5955 L 140.0900 191.4788 L 140.0296 191.3511 L 139.9820 191.2180 L 139.9477 191.0809 L 139.9269 190.9411 L 139.9200 190.8000 L 139.9200 188.4755 L 139.8500 188.3588 L 139.7896 188.2311 L 139.7420 188.0980 L 139.7077 187.9609 L 139.6869 187.8211 L 139.6800 187.6800 L 139.6800 187.4400 L 139.6869 187.2989 L 139.7077 187.1591 L 139.7420 187.0220 L 139.7896 186.8889 L 139.8500 186.7612 L 139.9227 186.6400 L 140.0069 186.5265 L 140.1018 186.4218 L 141.0618 185.4618 L 141.1665 185.3669 L 141.2800 185.2827 L 141.4012 185.2100 L 141.5289 185.1496 L 141.6613 185.1023 L 141.7818 184.9818 L 141.8865 184.8869 L 142.0000 184.8027 L 142.1212 184.7300 L 142.2489 184.6696 L 142.3813 184.6223 L 142.5018 184.5018 L 142.6065 184.4069 L 142.7200 184.3227 L 142.8412 184.2500 L 142.9689 184.1896 L 143.1013 184.1423 L 143.4618 183.7818 L 143.5665 183.6869 L 143.6800 183.6027 L 143.8012 183.5300 L 143.9289 183.4696 L 144.0613 183.4223 L 144.1818 183.3018 L 144.2865 183.2069 L 144.4000 183.1227 L 144.5212 183.0500 L 144.6489 182.9896 L 144.7813 182.9423 L 145.1418 182.5818 L 145.2465 182.4869 L 145.3600 182.4027 L 145.4812 182.3300 L 145.6089 182.2696 L 145.7420 182.2220 L 145.7692 182.2152 L 145.8400 182.1627 L 145.9612 182.0900 L 146.0889 182.0296 L 146.2213 181.9823 L 146.3418 181.8618 L 146.4465 181.7669 L 146.5600 181.6827 L 146.6812 181.6100 L 146.8089 181.5496 L 146.9413 181.5023 L 147.0618 181.3818 L 147.1665 181.2869 L 147.2800 181.2027 L 147.4012 181.1300 L 147.5289 181.0696 L 147.6613 181.0223 L 147.7818 180.9018 L 147.8865 180.8069 L 148.0000 180.7227 L 148.1212 180.6500 L 148.2489 180.5896 L 148.3813 180.5423 L 148.5018 180.4218 L 148.6065 180.3269 L 148.7200 180.2427 L 148.8412 180.1700 L 148.9689 180.1096 L 149.1013 180.0623 L 149.7018 179.4618 L 149.8065 179.3669 L 149.9200 179.2827 L 150.0412 179.2100 L 150.1689 179.1496 L 150.3013 179.1023 L 150.4218 178.9818 L 150.5265 178.8869 L 150.6400 178.8027 L 150.7612 178.7300 L 150.8889 178.6696 L 151.0213 178.6223 L 151.3818 178.2618 L 151.4865 178.1669 L 151.6000 178.0827 L 151.7212 178.0100 L 151.8489 177.9496 L 151.9813 177.9023 L 152.5818 177.3018 L 152.6865 177.2069 L 152.8000 177.1227 L 152.9212 177.0500 L 153.0489 176.9896 L 153.1813 176.9423 L 154.5018 175.6218 L 154.6065 175.5269 L 154.7200 175.4427 L 154.8412 175.3700 L 154.9689 175.3096 L 155.1013 175.2623 L 155.4618 174.9018 L 155.5665 174.8069 L 155.6800 174.7227 L 155.8012 174.6500 L 155.9289 174.5896 L 156.0613 174.5423 L 156.1818 174.4218 L 156.2865 174.3269 L 156.4000 174.2427 L 156.5212 174.1700 L 156.6489 174.1096 L 156.7820 174.0620 L 156.8092 174.0552 L 156.8800 174.0027 L 157.0012 173.9300 L 157.1289 173.8696 L 157.2620 173.8220 L 157.2892 173.8152 L 157.3600 173.7627 L 157.4812 173.6900 L 157.6089 173.6296 L 157.7420 173.5820 L 157.8791 173.5477 L 158.0189 173.5269 L 158.0782 173.5240 L 158.0800 173.5227 L 158.2012 173.4500 L 158.3289 173.3896 L 158.4620 173.3420 L 158.4892 173.3352 L 158.5600 173.2827 L 158.6812 173.2100 L 158.8089 173.1496 L 158.9420 173.1020 L 158.9692 173.0952 L 159.0400 173.0427 L 159.1612 172.9700 L 159.2889 172.9096 L 159.4213 172.8623 L 159.5418 172.7418 L 159.6465 172.6469 L 159.7600 172.5627 L 159.8812 172.4900 L 160.0089 172.4296 L 160.0896 172.4007 L 160.1077 172.2791 L 160.1420 172.1420 L 160.1896 172.0089 L 160.2500 171.8812 L 160.3227 171.7600 L 160.4069 171.6465 L 160.5018 171.5418 L 160.5660 171.4775 L 160.5669 171.4589 L 160.5877 171.3191 L 160.6220 171.1820 L 160.6696 171.0489 L 160.7300 170.9212 L 160.8000 170.8045 L 160.8000 168.7200 L 160.8069 168.5789 L 160.8277 168.4391 L 160.8620 168.3020 L 160.9096 168.1689 L 160.9700 168.0412 L 161.0400 167.9245 L 161.0400 167.2800 L 161.0469 167.1389 L 161.0677 166.9991 L 161.1020 166.8620 L 161.1496 166.7289 L 161.2100 166.6012 L 161.2800 166.4845 L 161.2800 165.6000 L 161.2869 165.4589 L 161.3077 165.3191 L 161.3420 165.1820 L 161.3896 165.0489 L 161.4500 164.9212 L 161.5200 164.8045 L 161.5200 164.1600 L 161.5269 164.0189 L 161.5477 163.8791 L 161.5820 163.7420 L 161.6296 163.6089 L 161.6900 163.4812 L 161.7600 163.3645 L 161.7600 163.2000 L 161.7669 163.0589 L 161.7877 162.9191 L 161.8220 162.7820 L 161.8696 162.6489 L 161.9300 162.5212 L 162.0000 162.4045 L 162.0000 161.0400 L 162.0069 160.8989 L 162.0277 160.7591 L 162.0620 160.6220 L 162.1096 160.4889 L 162.1700 160.3612 L 162.2400 160.2445 L 162.2400 159.6755 L 162.1700 159.5588 L 162.1096 159.4311 L 162.0620 159.2980 L 162.0277 159.1609 L 162.0069 159.0211 L 162.0000 158.8800 L 162.0000 157.5155 L 161.9300 157.3988 L 161.8696 157.2711 L 161.8220 157.1380 L 161.7877 157.0009 L 161.7669 156.8611 L 161.7640 156.8018 L 161.7627 156.8000 L 161.6900 156.6788 L 161.6296 156.5511 L 161.5820 156.4180 L 161.5477 156.2809 L 161.5269 156.1411 L 161.5200 156.0000 L 161.5200 155.3555 L 161.4500 155.2388 L 161.3896 155.1111 L 161.3420 154.9780 L 161.3077 154.8409 L 161.2869 154.7011 L 161.2800 154.5600 L 161.2800 154.1555 L 161.2100 154.0388 L 161.1496 153.9111 L 161.1020 153.7780 L 161.0677 153.6409 L 161.0469 153.5011 L 161.0400 153.3600 L 161.0400 152.9555 L 160.9700 152.8388 L 160.9096 152.7111 L 160.8620 152.5780 L 160.8277 152.4409 L 160.8069 152.3011 L 160.8000 152.1600 L 160.8000 151.0355 L 160.7300 150.9188 L 160.6696 150.7911 L 160.6220 150.6580 L 160.5877 150.5209 L 160.5669 150.3811 L 160.5600 150.2400 L 160.5600 149.8355 L 160.4900 149.7188 L 160.4296 149.5911 L 160.3820 149.4580 L 160.3477 149.3209 L 160.3269 149.1811 L 160.3200 149.0400 L 160.3200 147.9155 L 160.2500 147.7988 L 160.1896 147.6711 L 160.1420 147.5380 L 160.1077 147.4009 L 160.0869 147.2611 L 160.0800 147.1200 L 160.0800 146.4755 L 160.0100 146.3588 L 159.9496 146.2311 L 159.9020 146.0980 L 159.8677 145.9609 L 159.8469 145.8211 L 159.8400 145.6800 L 159.8400 143.1155 L 159.7700 142.9988 L 159.7096 142.8711 L 159.6620 142.7380 L 159.6277 142.6009 L 159.6069 142.4611 L 159.6000 142.3200 L 159.6000 140.7155 L 159.5300 140.5988 L 159.4696 140.4711 L 159.4220 140.3380 L 159.3877 140.2009 L 159.3669 140.0611 L 159.3600 139.9200 L 159.3600 139.5155 L 159.2900 139.3988 L 159.2296 139.2711 L 159.1820 139.1380 L 159.1477 139.0009 L 159.1269 138.8611 L 159.1200 138.7200 L 159.1200 138.0755 L 159.0500 137.9588 L 158.9896 137.8311 L 158.9420 137.6980 L 158.9077 137.5609 L 158.8869 137.4211 L 158.8800 137.2800 L 158.8800 134.4755 L 158.8100 134.3588 L 158.7496 134.2311 L 158.7020 134.0980 L 158.6677 133.9609 L 158.6469 133.8211 L 158.6400 133.6800 L 158.6400 132.3155 L 158.5700 132.1988 L 158.5096 132.0711 L 158.4620 131.9380 L 158.4277 131.8009 L 158.4069 131.6611 L 158.4000 131.5200 L 158.4000 130.8755 L 158.3300 130.7588 L 158.2696 130.6311 L 158.2220 130.4980 L 158.1877 130.3609 L 158.1669 130.2211 L 158.1600 130.0800 L 158.1600 129.9155 L 158.0900 129.7988 L 158.0296 129.6711 L 157.9820 129.5380 L 157.9477 129.4009 L 157.9269 129.2611 L 157.9200 129.1200 L 157.9200 128.9555 L 157.8500 128.8388 L 157.7896 128.7111 L 157.7420 128.5780 L 157.7077 128.4409 L 157.6869 128.3011 L 157.6800 128.1600 L 157.6800 127.9955 L 157.6100 127.8788 L 157.5496 127.7511 L 157.5020 127.6180 L 157.4677 127.4809 L 157.4469 127.3411 L 157.4440 127.2818 L 157.4427 127.2800 L 157.3700 127.1588 L 157.3096 127.0311 L 157.2620 126.8980 L 157.2277 126.7609 L 157.2069 126.6211 L 157.2000 126.4800 L 157.2000 126.3155 L 157.1300 126.1988 L 157.0696 126.0711 L 157.0220 125.9380 L 156.9877 125.8009 L 156.9669 125.6611 L 156.9600 125.5200 L 156.9600 125.1155 L 156.8900 124.9988 L 156.8296 124.8711 L 156.7820 124.7380 L 156.7477 124.6009 L 156.7269 124.4611 L 156.7200 124.3200 L 156.7200 123.9155 L 156.6500 123.7988 L 156.5896 123.6711 L 156.5420 123.5380 L 156.5077 123.4009 L 156.4869 123.2611 L 156.4800 123.1200 L 156.4800 122.4755 L 156.4100 122.3588 L 156.3496 122.2311 L 156.3020 122.0980 L 156.2677 121.9609 L 156.2469 121.8211 L 156.2400 121.6800 L 156.2400 121.5155 L 156.1700 121.3988 L 156.1096 121.2711 L 156.0620 121.1380 L 156.0277 121.0009 L 156.0069 120.8611 L 156.0000 120.7200 L 156.0000 119.1155 L 155.9300 118.9988 L 155.8696 118.8711 L 155.8220 118.7380 L 155.7877 118.6009 L 155.7669 118.4611 L 155.7600 118.3200 L 155.7600 115.2755 L 155.6900 115.1588 L 155.6296 115.0311 L 155.5820 114.8980 L 155.5477 114.7609 L 155.5269 114.6211 L 155.5200 114.4800 L 155.5200 112.6355 L 155.4500 112.5188 L 155.3896 112.3911 L 155.3420 112.2580 L 155.3077 112.1209 L 155.2869 111.9811 L 155.2800 111.8400 L 155.2800 111.1955 L 155.2100 111.0788 L 155.1496 110.9511 L 155.1020 110.8180 L 155.0677 110.6809 L 155.0469 110.5411 L 155.0400 110.4000 L 155.0400 109.9955 L 154.9700 109.8788 L 154.9096 109.7511 L 154.8620 109.6180 L 154.8277 109.4809 L 154.8069 109.3411 L 154.8000 109.2000 L 154.8000 109.0355 L 154.7300 108.9188 L 154.6696 108.7911 L 154.6220 108.6580 L 154.5877 108.5209 L 154.5669 108.3811 L 154.5600 108.2400 L 154.5600 108.0755 L 154.4900 107.9588 L 154.4296 107.8311 L 154.3820 107.6980 L 154.3477 107.5609 L 154.3269 107.4211 L 154.3240 107.3618 L 154.3227 107.3600 L 154.2500 107.2388 L 154.1896 107.1111 L 154.1420 106.9780 L 154.1077 106.8409 L 154.0869 106.7011 L 154.0840 106.6418 L 154.0827 106.6400 L 154.0100 106.5188 L 153.9496 106.3911 L 153.9020 106.2580 L 153.8677 106.1209 L 153.8469 105.9811 L 153.8400 105.8400 L 153.8400 105.6755 L 153.7700 105.5588 L 153.7096 105.4311 L 153.6620 105.2980 L 153.6277 105.1609 L 153.6069 105.0211 L 153.6000 104.8800 L 153.6000 104.7155 L 153.5300 104.5988 L 153.4696 104.4711 L 153.4220 104.3380 L 153.3877 104.2009 L 153.3669 104.0611 L 153.3640 104.0018 L 153.3627 104.0000 L 153.2900 103.8788 L 153.2296 103.7511 L 153.1820 103.6180 L 153.1752 103.5908 L 153.1227 103.5200 L 153.0500 103.3988 L 152.9896 103.2711 L 152.9420 103.1380 L 152.9077 103.0009 L 152.8869 102.8611 L 152.8840 102.8018 L 152.8827 102.8000 L 152.8100 102.6788 L 152.7496 102.5511 L 152.7020 102.4180 L 152.6677 102.2809 L 152.6469 102.1411 L 152.6440 102.0818 L 152.6427 102.0800 L 152.5700 101.9588 L 152.5096 101.8311 L 152.4620 101.6980 L 152.4277 101.5609 L 152.4069 101.4211 L 152.4040 101.3618 L 152.4027 101.3600 L 152.3300 101.2388 L 152.2696 101.1111 L 152.2220 100.9780 L 152.2152 100.9508 L 152.1627 100.8800 L 152.0900 100.7588 L 152.0296 100.6311 L 151.9820 100.4980 L 151.9752 100.4708 L 151.9227 100.4000 L 151.8500 100.2788 L 151.7896 100.1511 L 151.7420 100.0180 L 151.7352 99.9908 L 151.6827 99.9200 L 151.6100 99.7988 L 151.5496 99.6711 L 151.5020 99.5380 L 151.4677 99.4009 L 151.4469 99.2611 L 151.4440 99.2018 L 151.4427 99.2000 L 151.3700 99.0788 L 151.3096 98.9511 L 151.2620 98.8180 L 151.2552 98.7908 L 151.2027 98.7200 L 151.1300 98.5988 L 151.0696 98.4711 L 151.0220 98.3380 L 151.0152 98.3108 L 150.9627 98.2400 L 150.8900 98.1188 L 150.8296 97.9911 L 150.7820 97.8580 L 150.7752 97.8308 L 150.7227 97.7600 L 150.6500 97.6388 L 150.5896 97.5111 L 150.5420 97.3780 L 150.5352 97.3508 L 150.4827 97.2800 L 150.4100 97.1588 L 150.3496 97.0311 L 150.3020 96.8980 L 150.2677 96.7609 L 150.2469 96.6211 L 150.2440 96.5618 L 150.2427 96.5600 L 150.1700 96.4388 L 150.1096 96.3111 L 150.0620 96.1780 L 150.0552 96.1508 L 150.0027 96.0800 L 149.9300 95.9588 L 149.8696 95.8311 L 149.8220 95.6980 L 149.8152 95.6708 L 149.7627 95.6000 L 149.6900 95.4788 L 149.6296 95.3511 L 149.5823 95.2187 L 149.4618 95.0982 L 149.3669 94.9935 L 149.2827 94.8800 L 149.2100 94.7588 L 149.1496 94.6311 L 149.1023 94.4987 L 148.9818 94.3782 L 148.8869 94.2735 L 148.8027 94.1600 L 148.7300 94.0388 L 148.6696 93.9111 L 148.6223 93.7787 L 148.0218 93.1782 L 147.9269 93.0735 L 147.8427 92.9600 L 147.8117 92.9083 L 147.7600 92.8773 L 147.6465 92.7931 L 147.5418 92.6982 L 146.7013 91.8577 L 146.5689 91.8104 L 146.4412 91.7500 L 146.3200 91.6773 L 146.2065 91.5931 L 146.1018 91.4982 L 145.9813 91.3777 L 145.8489 91.3304 L 145.7212 91.2700 L 145.6000 91.1973 L 145.4865 91.1131 L 145.3818 91.0182 L 145.2613 90.8977 L 145.1289 90.8504 L 145.0012 90.7900 L 144.8800 90.7173 L 144.8092 90.6648 L 144.7820 90.6580 L 144.6489 90.6104 L 144.5212 90.5500 L 144.4000 90.4773 L 144.3982 90.4760 L 144.3389 90.4731 L 144.1991 90.4523 L 144.0620 90.4180 L 143.9289 90.3704 L 143.8012 90.3100 L 143.6800 90.2373 L 143.6092 90.1848 L 143.5820 90.1780 L 143.4489 90.1304 L 143.3212 90.0700 L 143.2000 89.9973 L 143.1292 89.9448 L 143.1020 89.9380 L 142.9689 89.8904 L 142.8412 89.8300 L 142.7200 89.7573 L 142.6492 89.7048 L 142.6220 89.6980 L 142.4889 89.6504 L 142.3612 89.5900 L 142.2400 89.5173 L 142.2382 89.5160 L 142.1789 89.5131 L 142.0391 89.4923 L 141.9020 89.4580 L 141.7689 89.4104 L 141.6412 89.3500 L 141.5200 89.2773 L 141.5182 89.2760 L 141.4589 89.2731 L 141.3191 89.2523 L 141.1820 89.2180 L 141.0489 89.1704 L 140.9212 89.1100 L 140.8045 89.0400 L 140.6400 89.0400 L 140.4989 89.0331 L 140.3591 89.0123 L 140.2220 88.9780 L 140.0889 88.9304 L 139.9612 88.8700 L 139.8445 88.8000 L 137.2800 88.8000 L 137.1389 88.7931 L 136.9991 88.7723 L 136.8620 88.7380 L 136.7289 88.6904 L 136.6012 88.6300 L 136.4800 88.5573 L 136.4092 88.5048 L 136.3820 88.4980 L 136.2489 88.4504 L 136.1212 88.3900 L 136.0000 88.3173 L 135.9292 88.2648 L 135.9020 88.2580 L 135.7689 88.2104 L 135.6412 88.1500 L 135.5245 88.0800 L 135.3600 88.0800 L 135.2189 88.0731 L 135.0791 88.0523 L 134.9420 88.0180 L 134.8089 87.9704 L 134.6812 87.9100 L 134.5600 87.8373 L 134.5582 87.8360 L 134.4989 87.8331 L 134.3591 87.8123 L 134.2220 87.7780 L 134.0889 87.7304 L 133.9612 87.6700 L 133.8400 87.5973 L 133.7265 87.5131 L 133.6218 87.4182 L 133.3175 87.1140 L 133.2989 87.1131 L 133.1591 87.0923 L 133.0220 87.0580 L 132.8889 87.0104 L 132.7612 86.9500 L 132.6445 86.8800 L 131.2800 86.8800 L 131.1389 86.8731 L 130.9991 86.8523 L 130.8620 86.8180 L 130.7289 86.7704 L 130.6012 86.7100 L 130.4800 86.6373 L 130.4092 86.5848 L 130.3820 86.5780 L 130.2489 86.5304 L 130.1212 86.4700 L 130.0000 86.3973 L 129.8865 86.3131 L 129.7818 86.2182 L 129.3018 85.7382 L 129.2069 85.6335 L 129.1227 85.5200 L 129.0747 85.4400 L 127.5155 85.4400 L 127.3988 85.5100 L 127.2711 85.5704 L 127.1380 85.6180 L 127.0009 85.6523 L 126.8611 85.6731 L 126.7200 85.6800 L 126.0000 85.6800 L 125.8589 85.6731 L 125.7191 85.6523 L 125.5820 85.6180 L 125.4489 85.5704 L 125.3212 85.5100 L 125.2045 85.4400 L 125.0400 85.4400 L 124.8989 85.4331 L 124.7591 85.4123 L 124.6220 85.3780 L 124.4889 85.3304 L 124.3612 85.2700 L 124.2400 85.1973 L 124.1692 85.1448 L 124.1420 85.1380 L 124.0089 85.0904 L 123.8812 85.0300 L 123.7645 84.9600 L 123.6000 84.9600 L 123.4589 84.9531 L 123.3191 84.9323 L 123.1820 84.8980 L 123.0489 84.8504 L 122.9212 84.7900 L 122.8045 84.7200 L 120.4800 84.7200 L 120.3389 84.7131 L 120.1991 84.6923 L 120.0620 84.6580 L 119.9289 84.6104 L 119.8012 84.5500 L 119.6800 84.4773 L 119.6782 84.4760 L 119.6189 84.4731 L 119.4791 84.4523 L 119.3420 84.4180 L 119.2089 84.3704 L 119.0812 84.3100 L 118.9600 84.2373 L 118.8892 84.1848 L 118.8620 84.1780 L 118.7289 84.1304 L 118.6012 84.0700 L 118.4800 83.9973 L 118.4092 83.9448 L 118.3820 83.9380 L 118.2489 83.8904 L 118.1212 83.8300 L 118.0000 83.7573 L 117.8865 83.6731 L 117.7818 83.5782 L 117.6613 83.4577 L 117.5289 83.4104 L 117.4012 83.3500 L 117.2800 83.2773 L 117.1665 83.1931 L 117.0618 83.0982 L 116.5818 82.6182 L 116.4869 82.5135 L 116.4027 82.4000 L 116.3300 82.2788 L 116.2696 82.1511 L 116.2220 82.0180 L 116.2152 81.9908 L 116.1627 81.9200 L 116.0900 81.7988 L 116.0296 81.6711 L 115.9823 81.5387 L 115.8618 81.4182 L 115.7669 81.3135 L 115.6827 81.2000 L 115.6100 81.0788 L 115.5496 80.9511 L 115.5023 80.8187 L 115.3818 80.6982 L 115.2869 80.5935 L 115.2027 80.4800 L 115.1300 80.3588 L 115.0696 80.2311 L 115.0220 80.0980 L 115.0152 80.0708 L 114.9627 80.0000 L 114.8900 79.8788 L 114.8296 79.7511 L 114.7820 79.6180 L 114.7752 79.5908 L 114.7227 79.5200 L 114.6500 79.3988 L 114.5896 79.2711 L 114.5420 79.1380 L 114.5077 79.0009 L 114.4869 78.8611 L 114.4800 78.7200 L 114.4800 78.5555 L 114.4100 78.4388 L 114.3496 78.3111 L 114.3020 78.1780 L 114.2677 78.0409 L 114.2469 77.9011 L 114.2400 77.7600 L 114.2400 77.3555 L 114.1700 77.2388 L 114.1096 77.1111 L 114.0620 76.9780 L 114.0277 76.8409 L 114.0069 76.7011 L 114.0000 76.5600 L 114.0000 75.9155 L 113.9300 75.7988 L 113.8696 75.6711 L 113.8220 75.5380 L 113.7877 75.4009 L 113.7669 75.2611 L 113.7600 75.1200 L 113.7600 69.8400 L 113.7669 69.6989 L 113.7877 69.5591 L 113.8220 69.4220 L 113.8696 69.2889 L 113.9300 69.1612 L 114.0000 69.0445 L 114.0000 66.9600 L 114.0069 66.8189 L 114.0277 66.6791 L 114.0620 66.5420 L 114.1096 66.4089 L 114.1700 66.2812 L 114.2400 66.1645 L 114.2400 64.8000 L 114.2469 64.6589 L 114.2677 64.5191 L 114.3020 64.3820 L 114.3496 64.2489 L 114.4100 64.1212 L 114.4800 64.0045 L 114.4800 63.1200 L 114.4869 62.9789 L 114.5077 62.8391 L 114.5420 62.7020 L 114.5896 62.5689 L 114.6500 62.4412 L 114.7227 62.3200 L 114.8069 62.2065 L 114.9018 62.1018 L 115.9823 61.0213 L 116.0296 60.8889 L 116.0900 60.7612 L 116.1627 60.6400 L 116.2152 60.5692 L 116.2220 60.5420 L 116.2696 60.4089 L 116.3300 60.2812 L 116.4000 60.1645 L 116.4000 60.0000 L 116.4069 59.8589 L 116.4277 59.7191 L 116.4620 59.5820 L 116.5096 59.4489 L 116.5700 59.3212 L 116.6400 59.2045 L 116.6400 58.8000 L 116.6469 58.6589 L 116.6677 58.5191 L 116.7020 58.3820 L 116.7496 58.2489 L 116.8100 58.1212 L 116.8800 58.0045 L 116.8800 55.2755 L 116.8100 55.1588 L 116.7496 55.0311 L 116.7020 54.8980 L 116.6952 54.8708 L 116.6427 54.8000 L 116.5700 54.6788 L 116.5096 54.5511 L 116.4620 54.4180 L 116.4277 54.2809 L 116.4069 54.1411 L 116.4040 54.0818 L 116.4027 54.0800 L 116.3300 53.9588 L 116.2696 53.8311 L 116.2220 53.6980 L 116.1877 53.5609 L 116.1669 53.4211 L 116.1600 53.2800 L 116.1600 52.8000 L 116.1669 52.6589 L 116.1877 52.5191 L 116.2220 52.3820 L 116.2696 52.2489 L 116.3300 52.1212 L 116.4000 52.0045 L 116.4000 48.3155 L 116.3300 48.1988 L 116.2696 48.0711 L 116.2220 47.9380 L 116.1877 47.8009 L 116.1669 47.6611 L 116.1600 47.5200 L 116.1600 47.1155 L 116.0900 46.9988 L 116.0296 46.8711 L 115.9820 46.7380 L 115.9477 46.6009 L 115.9269 46.4611 L 115.9200 46.3200 L 115.9200 45.9155 L 115.8500 45.7988 L 115.7896 45.6711 L 115.7420 45.5380 L 115.7352 45.5108 L 115.6827 45.4400 L 115.6100 45.3188 L 115.5496 45.1911 L 115.5020 45.0580 L 115.4677 44.9209 L 115.4469 44.7811 L 115.4440 44.7218 L 115.4427 44.7200 L 115.3700 44.5988 L 115.3096 44.4711 L 115.2620 44.3380 L 115.2277 44.2009 L 115.2069 44.0611 L 115.2040 44.0018 L 115.2027 44.0000 L 115.1300 43.8788 L 115.0696 43.7511 L 115.0220 43.6180 L 114.9877 43.4809 L 114.9669 43.3411 L 114.9640 43.2818 L 114.9627 43.2800 L 114.8900 43.1588 L 114.8296 43.0311 L 114.7820 42.8980 L 114.7752 42.8708 L 114.7227 42.8000 L 114.6500 42.6788 L 114.5896 42.5511 L 114.5420 42.4180 L 114.5352 42.3908 L 114.4827 42.3200 L 114.4100 42.1988 L 114.3496 42.0711 L 114.3023 41.9387 L 114.1818 41.8182 L 114.0869 41.7135 L 114.0027 41.6000 L 113.9300 41.4788 L 113.8696 41.3511 L 113.8223 41.2187 L 113.2218 40.6182 L 113.1269 40.5135 L 113.0427 40.4000 L 112.9700 40.2788 L 112.9096 40.1511 L 112.8623 40.0187 L 112.8613 40.0177 L 112.7289 39.9704 L 112.6012 39.9100 L 112.4800 39.8373 L 112.3665 39.7531 L 112.2618 39.6582 L 111.9013 39.2977 L 111.7689 39.2504 L 111.6412 39.1900 L 111.5200 39.1173 L 111.4065 39.0331 L 111.3018 38.9382 L 111.1813 38.8177 L 111.0489 38.7704 L 110.9212 38.7100 L 110.8000 38.6373 L 110.7292 38.5848 L 110.7020 38.5780 L 110.5689 38.5304 L 110.4412 38.4700 L 110.3200 38.3973 L 110.2065 38.3131 L 110.1018 38.2182 L 109.9813 38.0977 L 109.8489 38.0504 L 109.7212 37.9900 L 109.6000 37.9173 L 109.5982 37.9160 L 109.5389 37.9131 L 109.3991 37.8923 L 109.2620 37.8580 L 109.1289 37.8104 L 109.0012 37.7500 L 108.8800 37.6773 L 108.8092 37.6248 L 108.7820 37.6180 L 108.6489 37.5704 L 108.5212 37.5100 L 108.4000 37.4373 L 108.3982 37.4360 L 108.3389 37.4331 L 108.1991 37.4123 L 108.0620 37.3780 L 107.9289 37.3304 L 107.8012 37.2700 L 107.6800 37.1973 L 107.6782 37.1960 L 107.6189 37.1931 L 107.4791 37.1723 L 107.3420 37.1380 L 107.2089 37.0904 L 107.0812 37.0300 L 106.9600 36.9573 L 106.9582 36.9560 L 106.8989 36.9531 L 106.7591 36.9323 L 106.6220 36.8980 L 106.4889 36.8504 L 106.3612 36.7900 L 106.2445 36.7200 L 106.0800 36.7200 L 105.9389 36.7131 L 105.7991 36.6923 L 105.6620 36.6580 L 105.5289 36.6104 L 105.4012 36.5500 L 105.2845 36.4800 L 105.1200 36.4800 L 104.9789 36.4731 L 104.8391 36.4523 L 104.7020 36.4180 L 104.5689 36.3704 L 104.4412 36.3100 L 104.3245 36.2400 L 104.1600 36.2400 L 104.0189 36.2331 L 103.8791 36.2123 L 103.7420 36.1780 L 103.6089 36.1304 L 103.4812 36.0700 L 103.3645 36.0000 L 102.7200 36.0000 L 102.5789 35.9931 L 102.4391 35.9723 L 102.3020 35.9380 L 102.1689 35.8904 L 102.0412 35.8300 L 101.9245 35.7600 L 98.9555 35.7600 L 98.8388 35.8300 L 98.7111 35.8904 L 98.5780 35.9380 L 98.4409 35.9723 L 98.3011 35.9931 L 98.1600 36.0000 L 97.7555 36.0000 L 97.6388 36.0700 L 97.5111 36.1304 L 97.3780 36.1780 L 97.2409 36.2123 L 97.1011 36.2331 L 96.9600 36.2400 L 96.5555 36.2400 L 96.4388 36.3100 L 96.3111 36.3704 L 96.1780 36.4180 L 96.0409 36.4523 L 95.9011 36.4731 L 95.7600 36.4800 L 95.5955 36.4800 L 95.4788 36.5500 L 95.3511 36.6104 L 95.2180 36.6580 L 95.0809 36.6923 L 94.9411 36.7131 L 94.8818 36.7160 L 94.8800 36.7173 L 94.7588 36.7900 L 94.6311 36.8504 L 94.4980 36.8980 L 94.4708 36.9048 L 94.4000 36.9573 L 94.2788 37.0300 L 94.1511 37.0904 L 94.0187 37.1377 L 93.8982 37.2582 L 93.7935 37.3531 L 93.6800 37.4373 L 93.5588 37.5100 L 93.4311 37.5704 L 93.2980 37.6180 L 93.2708 37.6248 L 93.2000 37.6773 L 93.0788 37.7500 L 92.9511 37.8104 L 92.8187 37.8577 L 92.6982 37.9782 L 92.5935 38.0731 L 92.4800 38.1573 L 92.3588 38.2300 L 92.2311 38.2904 L 92.0987 38.3377 L 91.9782 38.4582 L 91.8735 38.5531 L 91.7600 38.6373 L 91.6388 38.7100 L 91.5111 38.7704 L 91.3787 38.8177 L 91.2582 38.9382 L 91.1535 39.0331 L 91.0400 39.1173 L 90.9188 39.1900 L 90.7911 39.2504 L 90.6587 39.2977 L 90.5382 39.4182 L 90.4335 39.5131 L 90.3200 39.5973 L 90.1988 39.6700 L 90.0711 39.7304 L 89.9387 39.7777 L 89.5782 40.1382 L 89.4735 40.2331 L 89.3600 40.3173 L 89.2388 40.3900 L 89.1111 40.4504 L 88.9787 40.4977 L 88.6182 40.8582 L 88.5135 40.9531 L 88.4000 41.0373 L 88.2788 41.1100 L 88.1511 41.1704 L 88.0187 41.2177 L 87.6582 41.5782 L 87.5535 41.6731 L 87.4400 41.7573 L 87.3188 41.8300 L 87.1911 41.8904 L 87.0587 41.9377 L 87.0577 41.9387 L 87.0104 42.0711 L 86.9500 42.1988 L 86.8773 42.3200 L 86.7931 42.4335 L 86.6982 42.5382 L 86.3377 42.8987 L 86.2904 43.0311 L 86.2300 43.1588 L 86.1573 43.2800 L 86.0731 43.3935 L 85.9782 43.4982 L 85.6177 43.8587 L 85.5704 43.9911 L 85.5100 44.1188 L 85.4373 44.2400 L 85.3531 44.3535 L 85.2582 44.4582 L 85.1377 44.5787 L 85.0904 44.7111 L 85.0300 44.8388 L 84.9573 44.9600 L 84.9560 44.9618 L 84.9531 45.0211 L 84.9323 45.1609 L 84.8980 45.2980 L 84.8504 45.4311 L 84.7900 45.5588 L 84.7173 45.6800 L 84.6648 45.7508 L 84.6580 45.7780 L 84.6104 45.9111 L 84.5500 46.0388 L 84.4773 46.1600 L 84.4248 46.2308 L 84.4180 46.2580 L 84.3704 46.3911 L 84.3100 46.5188 L 84.2373 46.6400 L 84.1848 46.7108 L 84.1780 46.7380 L 84.1304 46.8711 L 84.0700 46.9988 L 83.9973 47.1200 L 83.9960 47.1218 L 83.9931 47.1811 L 83.9723 47.3209 L 83.9380 47.4580 L 83.8904 47.5911 L 83.8300 47.7188 L 83.7600 47.8355 L 83.7600 48.0000 L 83.7531 48.1411 L 83.7323 48.2809 L 83.6980 48.4180 L 83.6504 48.5511 L 83.5900 48.6788 L 83.5200 48.7955 L 83.5200 49.2000 L 83.5131 49.3411 L 83.4923 49.4809 L 83.4580 49.6180 L 83.4104 49.7511 L 83.3500 49.8788 L 83.2773 50.0000 L 83.2248 50.0708 L 83.2180 50.0980 L 83.1704 50.2311 L 83.1100 50.3588 L 83.0373 50.4800 L 82.9848 50.5508 L 82.9780 50.5780 L 82.9304 50.7111 L 82.8700 50.8388 L 82.8000 50.9555 L 82.8000 54.8845 L 82.8700 55.0012 L 82.9304 55.1289 L 82.9780 55.2620 L 82.9848 55.2892 L 83.0373 55.3600 L 83.1100 55.4812 L 83.1704 55.6089 L 83.2180 55.7420 L 83.2523 55.8791 L 83.2731 56.0189 L 83.2760 56.0782 L 83.2773 56.0800 L 83.3500 56.2012 L 83.4104 56.3289 L 83.4580 56.4620 L 83.4923 56.5991 L 83.5131 56.7389 L 83.5200 56.8800 L 83.5200 57.2845 L 83.5900 57.4012 L 83.6504 57.5289 L 83.6980 57.6620 L 83.7323 57.7991 L 83.7531 57.9389 L 83.7600 58.0800 L 83.7600 60.4800 L 83.7531 60.6211 L 83.7323 60.7609 L 83.6980 60.8980 L 83.6504 61.0311 L 83.5900 61.1588 L 83.5200 61.2755 L 83.5200 63.5245 L 83.5900 63.6412 L 83.6504 63.7689 L 83.6980 63.9020 L 83.7323 64.0391 L 83.7531 64.1789 L 83.7600 64.3200 L 83.7600 64.4845 L 83.8300 64.6012 L 83.8904 64.7289 L 83.9380 64.8620 L 83.9723 64.9991 L 83.9931 65.1389 L 83.9960 65.1982 L 83.9973 65.2000 L 84.0700 65.3212 L 84.1304 65.4489 L 84.1780 65.5820 L 84.1848 65.6092 L 84.2373 65.6800 L 84.3100 65.8012 L 84.3704 65.9289 L 84.4180 66.0620 L 84.4248 66.0892 L 84.4773 66.1600 L 84.5500 66.2812 L 84.6104 66.4089 L 84.6580 66.5420 L 84.6648 66.5692 L 84.7173 66.6400 L 84.7900 66.7612 L 84.8504 66.8889 L 84.8980 67.0220 L 84.9048 67.0492 L 84.9573 67.1200 L 85.0300 67.2412 L 85.0904 67.3689 L 85.1380 67.5020 L 85.1448 67.5292 L 85.1973 67.6000 L 85.2700 67.7212 L 85.3304 67.8489 L 85.3780 67.9820 L 85.4123 68.1191 L 85.4331 68.2589 L 85.4360 68.3182 L 85.4373 68.3200 L 85.5100 68.4412 L 85.5704 68.5689 L 85.6180 68.7020 L 85.6248 68.7292 L 85.6773 68.8000 L 85.7500 68.9212 L 85.8104 69.0489 L 85.8580 69.1820 L 85.8648 69.2092 L 85.9173 69.2800 L 85.9900 69.4012 L 86.0504 69.5289 L 86.0980 69.6620 L 86.1323 69.7991 L 86.1531 69.9389 L 86.1560 69.9982 L 86.1573 70.0000 L 86.2300 70.1212 L 86.2904 70.2489 L 86.3380 70.3820 L 86.3723 70.5191 L 86.3931 70.6589 L 86.3960 70.7182 L 86.3973 70.7200 L 86.4700 70.8412 L 86.5304 70.9689 L 86.5780 71.1020 L 86.6123 71.2391 L 86.6331 71.3789 L 86.6400 71.5200 L 86.6400 71.9245 L 86.7100 72.0412 L 86.7704 72.1689 L 86.8180 72.3020 L 86.8523 72.4391 L 86.8731 72.5789 L 86.8760 72.6382 L 86.8773 72.6400 L 86.9500 72.7612 L 87.0104 72.8889 L 87.0580 73.0220 L 87.0648 73.0492 L 87.1173 73.1200 L 87.1900 73.2412 L 87.2504 73.3689 L 87.2980 73.5020 L 87.3323 73.6391 L 87.3531 73.7789 L 87.3560 73.8382 L 87.3573 73.8400 L 87.4300 73.9612 L 87.4904 74.0889 L 87.5380 74.2220 L 87.5448 74.2492 L 87.5973 74.3200 L 87.6700 74.4412 L 87.7304 74.5689 L 87.7780 74.7020 L 87.7848 74.7292 L 87.8373 74.8000 L 87.9100 74.9212 L 87.9704 75.0489 L 88.0180 75.1820 L 88.0248 75.2092 L 88.0773 75.2800 L 88.1500 75.4012 L 88.2104 75.5289 L 88.2580 75.6620 L 88.2648 75.6892 L 88.3173 75.7600 L 88.3900 75.8812 L 88.4504 76.0089 L 88.4980 76.1420 L 88.5048 76.1692 L 88.5573 76.2400 L 88.6300 76.3612 L 88.6904 76.4889 L 88.7380 76.6220 L 88.7448 76.6492 L 88.7973 76.7200 L 88.8700 76.8412 L 88.9304 76.9689 L 88.9780 77.1020 L 88.9848 77.1292 L 89.0373 77.2000 L 89.1100 77.3212 L 89.1704 77.4489 L 89.2180 77.5820 L 89.2248 77.6092 L 89.2773 77.6800 L 89.3500 77.8012 L 89.4104 77.9289 L 89.4580 78.0620 L 89.4923 78.1991 L 89.5131 78.3389 L 89.5140 78.3575 L 89.5782 78.4218 L 89.6731 78.5265 L 89.7573 78.6400 L 89.8300 78.7612 L 89.8904 78.8889 L 89.9380 79.0220 L 89.9448 79.0492 L 89.9973 79.1200 L 90.0700 79.2412 L 90.1304 79.3689 L 90.1777 79.5013 L 90.2982 79.6218 L 90.3931 79.7265 L 90.4773 79.8400 L 90.5500 79.9612 L 90.6104 80.0889 L 90.6577 80.2213 L 92.2182 81.7818 L 92.3131 81.8865 L 92.3973 82.0000 L 92.4700 82.1212 L 92.5304 82.2489 L 92.5780 82.3820 L 92.6123 82.5191 L 92.6331 82.6589 L 92.6400 82.8000 L 92.6400 88.3200 L 92.6331 88.4611 L 92.6123 88.6009 L 92.5780 88.7380 L 92.5304 88.8711 L 92.4700 88.9988 L 92.3973 89.1200 L 92.3448 89.1908 L 92.3380 89.2180 L 92.2904 89.3511 L 92.2300 89.4788 L 92.1573 89.6000 L 92.0731 89.7135 L 91.9782 89.8182 L 91.7382 90.0582 L 91.6335 90.1531 L 91.5200 90.2373 L 91.3988 90.3100 L 91.2711 90.3704 L 91.1380 90.4180 L 91.1108 90.4248 L 91.0400 90.4773 L 90.9188 90.5500 L 90.7911 90.6104 L 90.6580 90.6580 L 90.5209 90.6923 L 90.3811 90.7131 L 90.2400 90.7200 L 89.5955 90.7200 L 89.4788 90.7900 L 89.3511 90.8504 L 89.2180 90.8980 L 89.0809 90.9323 L 88.9411 90.9531 L 88.8000 90.9600 L 88.0800 90.9600 L 87.9389 90.9531 L 87.7991 90.9323 L 87.6620 90.8980 L 87.5289 90.8504 L 87.4012 90.7900 L 87.2845 90.7200 L 87.1200 90.7200 L 86.9789 90.7131 L 86.8391 90.6923 L 86.7020 90.6580 L 86.5689 90.6104 L 86.4412 90.5500 L 86.3245 90.4800 L 82.3200 90.4800 L 82.1789 90.4731 L 82.0391 90.4523 L 81.9020 90.4180 L 81.7689 90.3704 L 81.6412 90.3100 L 81.5245 90.2400 L 79.0355 90.2400 L 78.9188 90.3100 L 78.7911 90.3704 L 78.6580 90.4180 L 78.5209 90.4523 L 78.3811 90.4731 L 78.2400 90.4800 L 77.1155 90.4800 L 76.9988 90.5500 L 76.8711 90.6104 L 76.7380 90.6580 L 76.6009 90.6923 L 76.4611 90.7131 L 76.3200 90.7200 L 75.4355 90.7200 L 75.3188 90.7900 L 75.1911 90.8504 L 75.0580 90.8980 L 74.9209 90.9323 L 74.7811 90.9531 L 74.6400 90.9600 L 73.9955 90.9600 L 73.8788 91.0300 L 73.7511 91.0904 L 73.6180 91.1380 L 73.4809 91.1723 L 73.3411 91.1931 L 73.2000 91.2000 L 73.0355 91.2000 L 72.9188 91.2700 L 72.7911 91.3304 L 72.6580 91.3780 L 72.5209 91.4123 L 72.3811 91.4331 L 72.2400 91.4400 L 72.0755 91.4400 L 71.9588 91.5100 L 71.8311 91.5704 L 71.6980 91.6180 L 71.5609 91.6523 L 71.4211 91.6731 L 71.2800 91.6800 L 70.8755 91.6800 L 70.7588 91.7500 L 70.6311 91.8104 L 70.4980 91.8580 L 70.3609 91.8923 L 70.2211 91.9131 L 70.0800 91.9200 L 69.6755 91.9200 L 69.5588 91.9900 L 69.4311 92.0504 L 69.2980 92.0980 L 69.1609 92.1323 L 69.0211 92.1531 L 68.9618 92.1560 L 68.9600 92.1573 L 68.8388 92.2300 L 68.7111 92.2904 L 68.5780 92.3380 L 68.4409 92.3723 L 68.3011 92.3931 L 68.2418 92.3960 L 68.2400 92.3973 L 68.1188 92.4700 L 67.9911 92.5304 L 67.8580 92.5780 L 67.7209 92.6123 L 67.5811 92.6331 L 67.5218 92.6360 L 67.5200 92.6373 L 67.3988 92.7100 L 67.2711 92.7704 L 67.1380 92.8180 L 67.0009 92.8523 L 66.8611 92.8731 L 66.8018 92.8760 L 66.8000 92.8773 L 66.6788 92.9500 L 66.5511 93.0104 L 66.4180 93.0580 L 66.2809 93.0923 L 66.1411 93.1131 L 66.0818 93.1160 L 66.0800 93.1173 L 65.9588 93.1900 L 65.8311 93.2504 L 65.6980 93.2980 L 65.5609 93.3323 L 65.4211 93.3531 L 65.3618 93.3560 L 65.3600 93.3573 L 65.2388 93.4300 L 65.1111 93.4904 L 64.9780 93.5380 L 64.9508 93.5448 L 64.8800 93.5973 L 64.7588 93.6700 L 64.6311 93.7304 L 64.4980 93.7780 L 64.4708 93.7848 L 64.4000 93.8373 L 64.2788 93.9100 L 64.1511 93.9704 L 64.0180 94.0180 L 63.9908 94.0248 L 63.9200 94.0773 L 63.7988 94.1500 L 63.6711 94.2104 L 63.5387 94.2577 L 63.4182 94.3782 L 63.3135 94.4731 L 63.2000 94.5573 L 63.0788 94.6300 L 62.9511 94.6904 L 62.8187 94.7377 L 62.6982 94.8582 L 62.5935 94.9531 L 62.4800 95.0373 L 62.3588 95.1100 L 62.2311 95.1704 L 62.0987 95.2177 L 61.9782 95.3382 L 61.8735 95.4331 L 61.7600 95.5173 L 61.6388 95.5900 L 61.5111 95.6504 L 61.3787 95.6977 L 61.2582 95.8182 L 61.1535 95.9131 L 61.0400 95.9973 L 60.9188 96.0700 L 60.7911 96.1304 L 60.6587 96.1777 L 60.2982 96.5382 L 60.1935 96.6331 L 60.0800 96.7173 L 59.9588 96.7900 L 59.8311 96.8504 L 59.6987 96.8977 L 59.3382 97.2582 L 59.2335 97.3531 L 59.1200 97.4373 L 58.9988 97.5100 L 58.8711 97.5704 L 58.7387 97.6177 L 58.1382 98.2182 L 58.0335 98.3131 L 57.9200 98.3973 L 57.7988 98.4700 L 57.6711 98.5304 L 57.5387 98.5777 L 57.4182 98.6982 L 57.3135 98.7931 L 57.2000 98.8773 L 57.0788 98.9500 L 56.9511 99.0104 L 56.8180 99.0580 L 56.7908 99.0648 L 56.7200 99.1173 L 56.5988 99.1900 L 56.4711 99.2504 L 56.3380 99.2980 L 56.2009 99.3323 L 56.0611 99.3531 L 55.9200 99.3600 L 55.0355 99.3600 L 54.9188 99.4300 L 54.7911 99.4904 L 54.6580 99.5380 L 54.5209 99.5723 L 54.3811 99.5931 L 54.2400 99.6000 L 53.5955 99.6000 L 53.4788 99.6700 L 53.3511 99.7304 L 53.2180 99.7780 L 53.0809 99.8123 L 52.9411 99.8331 L 52.8000 99.8400 L 52.1555 99.8400 L 52.0388 99.9100 L 51.9111 99.9704 L 51.7780 100.0180 L 51.6409 100.0523 L 51.5011 100.0731 L 51.3600 100.0800 L 50.4755 100.0800 L 50.3588 100.1500 L 50.2311 100.2104 L 50.0980 100.2580 L 49.9609 100.2923 L 49.8211 100.3131 L 49.6800 100.3200 L 49.0355 100.3200 L 48.9188 100.3900 L 48.7911 100.4504 L 48.6580 100.4980 L 48.5209 100.5323 L 48.3811 100.5531 L 48.2400 100.5600 L 46.3955 100.5600 L 46.2788 100.6300 L 46.1511 100.6904 L 46.0180 100.7380 L 45.8809 100.7723 L 45.7411 100.7931 L 45.6000 100.8000 L 44.9555 100.8000 L 44.8388 100.8700 L 44.7111 100.9304 L 44.5780 100.9780 L 44.4409 101.0123 L 44.3011 101.0331 L 44.1600 101.0400 L 43.9955 101.0400 L 43.8788 101.1100 L 43.7511 101.1704 L 43.6180 101.2180 L 43.4809 101.2523 L 43.3411 101.2731 L 43.2818 101.2760 L 43.2800 101.2773 L 43.1588 101.3500 L 43.0311 101.4104 L 42.8980 101.4580 L 42.8708 101.4648 L 42.8000 101.5173 L 42.6788 101.5900 L 42.5511 101.6504 L 42.4180 101.6980 L 42.2809 101.7323 L 42.1411 101.7531 L 42.0818 101.7560 L 42.0800 101.7573 L 41.9588 101.8300 L 41.8311 101.8904 L 41.6980 101.9380 L 41.5609 101.9723 L 41.4211 101.9931 L 41.2800 102.0000 L 40.3200 102.0000 L 40.1789 101.9931 L 40.0391 101.9723 L 39.9020 101.9380 L 39.7689 101.8904 L 39.6412 101.8300 L 39.5200 101.7573 L 39.4065 101.6731 L 39.3018 101.5782 L 38.8218 101.0982 L 38.7269 100.9935 L 38.6427 100.8800 L 38.5700 100.7588 L 38.5096 100.6311 L 38.4620 100.4980 L 38.4277 100.3609 L 38.4069 100.2211 L 38.4000 100.0800 L 38.4000 93.9155 L 38.3300 93.7988 L 38.2696 93.6711 L 38.2220 93.5380 L 38.1877 93.4009 L 38.1669 93.2611 L 38.1600 93.1200 L 38.1600 88.3200 L 38.1669 88.1789 L 38.1877 88.0391 L 38.2220 87.9020 L 38.2696 87.7689 L 38.3300 87.6412 L 38.4000 87.5245 L 38.4000 86.4000 L 38.4069 86.2589 L 38.4277 86.1191 L 38.4620 85.9820 L 38.5096 85.8489 L 38.5700 85.7212 L 38.6400 85.6045 L 38.6400 85.4400 L 38.6469 85.2989 L 38.6677 85.1591 L 38.7020 85.0220 L 38.7496 84.8889 L 38.8100 84.7612 L 38.8800 84.6445 L 38.8800 84.2400 L 38.8869 84.0989 L 38.9077 83.9591 L 38.9420 83.8220 L 38.9896 83.6889 L 39.0500 83.5612 L 39.1200 83.4445 L 39.1200 82.8000 L 39.1269 82.6589 L 39.1477 82.5191 L 39.1820 82.3820 L 39.2296 82.2489 L 39.2900 82.1212 L 39.3600 82.0045 L 39.3600 81.3600 L 39.3669 81.2189 L 39.3877 81.0791 L 39.4220 80.9420 L 39.4696 80.8089 L 39.5300 80.6812 L 39.6000 80.5645 L 39.6000 80.4000 L 39.6069 80.2589 L 39.6277 80.1191 L 39.6620 79.9820 L 39.7096 79.8489 L 39.7700 79.7212 L 39.8427 79.6000 L 39.8952 79.5292 L 39.9020 79.5020 L 39.9496 79.3689 L 40.0100 79.2412 L 40.0827 79.1200 L 40.1352 79.0492 L 40.1420 79.0220 L 40.1896 78.8889 L 40.2500 78.7612 L 40.3227 78.6400 L 40.4069 78.5265 L 40.5018 78.4218 L 40.9818 77.9418 L 41.0865 77.8469 L 41.2000 77.7627 L 41.3212 77.6900 L 41.4489 77.6296 L 41.5820 77.5820 L 41.7191 77.5477 L 41.8589 77.5269 L 42.0000 77.5200 L 42.8845 77.5200 L 42.9067 77.5067 L 42.8900 77.4788 L 42.8296 77.3511 L 42.7820 77.2180 L 42.7477 77.0809 L 42.7269 76.9411 L 42.7200 76.8000 L 42.7200 76.3200 L 42.7269 76.1789 L 42.7477 76.0391 L 42.7820 75.9020 L 42.8296 75.7689 L 42.8900 75.6412 L 42.9627 75.5200 L 43.0469 75.4065 L 43.1418 75.3018 L 43.6218 74.8218 L 43.7265 74.7269 L 43.8400 74.6427 L 43.9612 74.5700 L 44.0889 74.5096 L 44.2220 74.4620 L 44.3591 74.4277 L 44.4989 74.4069 L 44.6400 74.4000 L 44.7811 74.4069 L 44.9209 74.4277 L 45.0580 74.4620 L 45.1911 74.5096 L 45.3188 74.5700 L 45.4400 74.6427 L 45.5108 74.6952 L 45.5380 74.7020 L 45.6711 74.7496 L 45.7988 74.8100 L 45.9200 74.8827 L 45.9218 74.8840 L 45.9811 74.8869 L 46.1209 74.9077 L 46.2580 74.9420 L 46.3911 74.9896 L 46.5188 75.0500 L 46.5467 75.0667 L 46.5600 75.0445 L 46.5600 74.6400 L 46.5669 74.4989 L 46.5877 74.3591 L 46.6220 74.2220 L 46.6696 74.0889 L 46.7300 73.9612 L 46.8027 73.8400 L 46.8869 73.7265 L 46.9818 73.6218 L 47.4618 73.1418 L 47.5665 73.0469 L 47.6800 72.9627 L 47.8012 72.8900 L 47.9289 72.8296 L 48.0613 72.7823 L 48.1818 72.6618 L 48.2865 72.5669 L 48.4000 72.4827 L 48.5212 72.4100 L 48.6489 72.3496 L 48.7813 72.3023 L 49.3818 71.7018 L 49.4865 71.6069 L 49.6000 71.5227 L 49.7212 71.4500 L 49.8489 71.3896 L 49.9820 71.3420 L 50.1191 71.3077 L 50.2589 71.2869 L 50.4000 71.2800 L 51.0445 71.2800 L 51.1612 71.2100 L 51.2889 71.1496 L 51.4220 71.1020 L 51.5591 71.0677 L 51.6989 71.0469 L 51.8400 71.0400 L 52.0045 71.0400 L 52.1212 70.9700 L 52.2489 70.9096 L 52.3820 70.8620 L 52.5191 70.8277 L 52.6407 70.8096 L 52.6696 70.7289 L 52.7300 70.6012 L 52.8000 70.4845 L 52.8000 70.3955 L 52.7300 70.2788 L 52.6696 70.1511 L 52.6223 70.0187 L 52.3813 69.7777 L 52.2489 69.7304 L 52.1212 69.6700 L 52.0000 69.5973 L 51.8865 69.5131 L 51.7818 69.4182 L 50.9413 68.5777 L 50.8089 68.5304 L 50.6812 68.4700 L 50.5600 68.3973 L 50.4892 68.3448 L 50.4620 68.3380 L 50.3289 68.2904 L 50.2012 68.2300 L 50.0800 68.1573 L 49.9665 68.0731 L 49.8618 67.9782 L 49.1418 67.2582 L 49.0469 67.1535 L 48.9627 67.0400 L 48.8900 66.9188 L 48.8296 66.7911 L 48.7820 66.6580 L 48.7752 66.6308 L 48.7227 66.5600 L 48.6500 66.4388 L 48.5896 66.3111 L 48.5420 66.1780 L 48.5352 66.1508 L 48.4827 66.0800 L 48.4100 65.9588 L 48.3496 65.8311 L 48.3020 65.6980 L 48.2952 65.6708 L 48.2427 65.6000 L 48.1700 65.4788 L 48.1096 65.3511 L 48.0620 65.2180 L 48.0277 65.0809 L 48.0069 64.9411 L 48.0040 64.8818 L 48.0027 64.8800 L 47.9300 64.7588 L 47.8696 64.6311 L 47.8220 64.4980 L 47.7877 64.3609 L 47.7669 64.2211 L 47.7600 64.0800 L 47.7600 63.6755 L 47.6900 63.5588 L 47.6296 63.4311 L 47.5820 63.2980 L 47.5477 63.1609 L 47.5269 63.0211 L 47.5240 62.9618 L 47.5227 62.9600 L 47.4500 62.8388 L 47.3896 62.7111 L 47.3420 62.5780 L 47.3077 62.4409 L 47.2869 62.3011 L 47.2840 62.2418 L 47.2827 62.2400 L 47.2100 62.1188 L 47.1496 61.9911 L 47.1023 61.8587 L 46.9818 61.7382 L 46.8869 61.6335 L 46.8027 61.5200 L 46.7300 61.3988 L 46.6696 61.2711 L 46.6223 61.1387 L 46.5018 61.0182 L 46.4069 60.9135 L 46.3227 60.8000 L 46.2500 60.6788 L 46.1896 60.5511 L 46.1420 60.4180 L 46.1352 60.3908 L 46.0827 60.3200 L 46.0100 60.1988 L 45.9496 60.0711 L 45.9023 59.9387 L 45.7818 59.8182 L 45.6869 59.7135 L 45.6027 59.6000 L 45.5300 59.4788 L 45.4696 59.3511 L 45.4223 59.2187 L 44.2213 58.0177 L 44.0889 57.9704 L 43.9612 57.9100 L 43.8400 57.8373 L 43.7692 57.7848 L 43.7420 57.7780 L 43.6089 57.7304 L 43.4812 57.6700 L 43.3600 57.5973 L 43.2892 57.5448 L 43.2620 57.5380 L 43.1289 57.4904 L 43.0012 57.4300 L 42.8800 57.3573 L 42.7665 57.2731 L 42.6618 57.1782 L 42.4218 56.9382 L 42.3269 56.8335 L 42.2427 56.7200 L 42.1700 56.5988 L 42.1096 56.4711 L 42.0623 56.3387 L 41.5813 55.8577 L 41.4489 55.8104 L 41.3212 55.7500 L 41.2000 55.6773 L 41.1982 55.6760 L 41.1389 55.6731 L 40.9991 55.6523 L 40.8620 55.6180 L 40.7289 55.5704 L 40.6012 55.5100 L 40.4800 55.4373 L 40.4092 55.3848 L 40.3820 55.3780 L 40.2489 55.3304 L 40.1212 55.2700 L 40.0000 55.1973 L 39.9292 55.1448 L 39.9020 55.1380 L 39.7689 55.0904 L 39.6412 55.0300 L 39.5245 54.9600 L 39.1955 54.9600 L 39.0788 55.0300 L 38.9511 55.0904 L 38.8187 55.1377 L 38.5777 55.3787 L 38.5392 55.4865 L 38.5508 55.4952 L 38.5780 55.5020 L 38.7111 55.5496 L 38.8388 55.6100 L 38.9600 55.6827 L 39.0735 55.7669 L 39.1782 55.8618 L 39.8982 56.5818 L 39.9931 56.6865 L 40.0773 56.8000 L 40.1500 56.9212 L 40.2104 57.0489 L 40.2580 57.1820 L 40.2923 57.3191 L 40.3131 57.4589 L 40.3200 57.6000 L 40.3200 58.0800 L 40.3131 58.2211 L 40.2923 58.3609 L 40.2580 58.4980 L 40.2104 58.6311 L 40.1500 58.7588 L 40.0773 58.8800 L 39.9931 58.9935 L 39.8982 59.0982 L 39.6582 59.3382 L 39.5535 59.4331 L 39.4400 59.5173 L 39.3188 59.5900 L 39.1911 59.6504 L 39.0580 59.6980 L 38.9209 59.7323 L 38.7811 59.7531 L 38.7218 59.7560 L 38.7200 59.7573 L 38.5988 59.8300 L 38.4711 59.8904 L 38.3380 59.9380 L 38.2009 59.9723 L 38.0611 59.9931 L 38.0018 59.9960 L 38.0000 59.9973 L 37.8788 60.0700 L 37.7511 60.1304 L 37.6180 60.1780 L 37.4809 60.2123 L 37.3593 60.2304 L 37.3304 60.3111 L 37.2700 60.4388 L 37.1973 60.5600 L 37.1131 60.6735 L 37.0182 60.7782 L 36.5382 61.2582 L 36.4335 61.3531 L 36.3200 61.4373 L 36.1988 61.5100 L 36.0711 61.5704 L 35.9387 61.6177 L 35.8182 61.7382 L 35.7135 61.8331 L 35.6000 61.9173 L 35.4788 61.9900 L 35.3511 62.0504 L 35.2180 62.0980 L 35.1908 62.1048 L 35.1200 62.1573 L 34.9988 62.2300 L 34.8711 62.2904 L 34.7387 62.3377 L 34.6182 62.4582 L 34.5135 62.5531 L 34.5021 62.5616 L 34.4980 62.5780 L 34.4504 62.7111 L 34.3900 62.8388 L 34.3173 62.9600 L 34.2331 63.0735 L 34.1382 63.1782 L 33.1782 64.1382 L 33.0735 64.2331 L 32.9600 64.3173 L 32.8388 64.3900 L 32.7111 64.4504 L 32.5787 64.4977 L 31.9782 65.0982 L 31.8735 65.1931 L 31.7600 65.2773 L 31.6388 65.3500 L 31.5513 65.3913 L 31.5100 65.4788 L 31.4400 65.5955 L 31.4400 67.8445 L 31.5100 67.9612 L 31.5704 68.0889 L 31.6180 68.2220 L 31.6523 68.3591 L 31.6731 68.4989 L 31.6800 68.6400 L 31.6800 68.8045 L 31.7500 68.9212 L 31.8104 69.0489 L 31.8580 69.1820 L 31.8648 69.2092 L 31.9173 69.2800 L 31.9900 69.4012 L 32.0504 69.5289 L 32.0980 69.6620 L 32.1048 69.6892 L 32.1573 69.7600 L 32.2300 69.8812 L 32.2904 70.0089 L 32.3380 70.1420 L 32.3723 70.2791 L 32.3931 70.4189 L 32.4000 70.5600 L 32.4000 71.2045 L 32.4700 71.3212 L 32.5304 71.4489 L 32.5780 71.5820 L 32.6123 71.7191 L 32.6331 71.8589 L 32.6400 72.0000 L 32.6400 73.2000 L 32.6331 73.3411 L 32.6123 73.4809 L 32.5780 73.6180 L 32.5304 73.7511 L 32.4700 73.8788 L 32.3973 74.0000 L 32.3448 74.0708 L 32.3380 74.0980 L 32.2904 74.2311 L 32.2300 74.3588 L 32.1600 74.4755 L 32.1600 75.3600 L 32.1531 75.5011 L 32.1323 75.6409 L 32.0980 75.7780 L 32.0504 75.9111 L 31.9900 76.0388 L 31.9200 76.1555 L 31.9200 76.3200 L 31.9131 76.4611 L 31.8923 76.6009 L 31.8580 76.7380 L 31.8104 76.8711 L 31.7500 76.9988 L 31.6773 77.1200 L 31.6248 77.1908 L 31.6180 77.2180 L 31.5704 77.3511 L 31.5100 77.4788 L 31.4373 77.6000 L 31.3848 77.6708 L 31.3780 77.6980 L 31.3304 77.8311 L 31.2700 77.9588 L 31.1973 78.0800 L 31.1960 78.0818 L 31.1931 78.1411 L 31.1723 78.2809 L 31.1380 78.4180 L 31.0904 78.5511 L 31.0300 78.6788 L 30.9573 78.8000 L 30.9048 78.8708 L 30.8980 78.8980 L 30.8504 79.0311 L 30.7900 79.1588 L 30.7173 79.2800 L 30.6648 79.3508 L 30.6580 79.3780 L 30.6104 79.5111 L 30.5500 79.6388 L 30.4773 79.7600 L 30.4760 79.7618 L 30.4731 79.8211 L 30.4523 79.9609 L 30.4180 80.0980 L 30.3704 80.2311 L 30.3100 80.3588 L 30.2373 80.4800 L 30.1848 80.5508 L 30.1780 80.5780 L 30.1304 80.7111 L 30.0700 80.8388 L 29.9973 80.9600 L 29.9448 81.0308 L 29.9380 81.0580 L 29.8904 81.1911 L 29.8300 81.3188 L 29.7573 81.4400 L 29.6731 81.5535 L 29.5782 81.6582 L 29.4577 81.7787 L 29.4104 81.9111 L 29.3500 82.0388 L 29.2773 82.1600 L 29.2248 82.2308 L 29.2180 82.2580 L 29.1704 82.3911 L 29.1100 82.5188 L 29.0373 82.6400 L 28.9848 82.7108 L 28.9780 82.7380 L 28.9304 82.8711 L 28.8700 82.9988 L 28.7973 83.1200 L 28.7448 83.1908 L 28.7380 83.2180 L 28.6904 83.3511 L 28.6300 83.4788 L 28.5573 83.6000 L 28.5048 83.6708 L 28.4980 83.6980 L 28.4504 83.8311 L 28.3900 83.9588 L 28.3173 84.0800 L 28.2648 84.1508 L 28.2580 84.1780 L 28.2104 84.3111 L 28.1500 84.4388 L 28.0773 84.5600 L 28.0248 84.6308 L 28.0180 84.6580 L 27.9704 84.7911 L 27.9100 84.9188 L 27.8373 85.0400 L 27.7848 85.1108 L 27.7780 85.1380 L 27.7304 85.2711 L 27.6700 85.3988 L 27.5973 85.5200 L 27.5448 85.5908 L 27.5380 85.6180 L 27.4904 85.7511 L 27.4300 85.8788 L 27.3573 86.0000 L 27.2731 86.1135 L 27.1782 86.2182 L 27.0577 86.3387 L 27.0104 86.4711 L 26.9500 86.5988 L 26.8773 86.7200 L 26.8248 86.7908 L 26.8180 86.8180 L 26.7704 86.9511 L 26.7100 87.0788 L 26.6373 87.2000 L 26.5848 87.2708 L 26.5780 87.2980 L 26.5304 87.4311 L 26.4700 87.5588 L 26.3973 87.6800 L 26.3448 87.7508 L 26.3380 87.7780 L 26.2904 87.9111 L 26.2300 88.0388 L 26.1573 88.1600 L 26.1048 88.2308 L 26.0980 88.2580 L 26.0504 88.3911 L 25.9900 88.5188 L 25.9173 88.6400 L 25.8648 88.7108 L 25.8580 88.7380 L 25.8104 88.8711 L 25.7500 88.9988 L 25.6773 89.1200 L 25.6248 89.1908 L 25.6180 89.2180 L 25.5704 89.3511 L 25.5100 89.4788 L 25.4373 89.6000 L 25.3848 89.6708 L 25.3780 89.6980 L 25.3304 89.8311 L 25.2700 89.9588 L 25.1973 90.0800 L 25.1448 90.1508 L 25.1380 90.1780 L 25.0904 90.3111 L 25.0300 90.4388 L 24.9573 90.5600 L 24.9048 90.6308 L 24.8980 90.6580 L 24.8504 90.7911 L 24.7900 90.9188 L 24.7173 91.0400 L 24.7160 91.0418 L 24.7131 91.1011 L 24.6923 91.2409 L 24.6580 91.3780 L 24.6104 91.5111 L 24.5500 91.6388 L 24.4773 91.7600 L 24.4248 91.8308 L 24.4180 91.8580 L 24.3704 91.9911 L 24.3100 92.1188 L 24.2373 92.2400 L 24.1848 92.3108 L 24.1780 92.3380 L 24.1304 92.4711 L 24.0700 92.5988 L 23.9973 92.7200 L 23.9960 92.7218 L 23.9931 92.7811 L 23.9723 92.9209 L 23.9380 93.0580 L 23.8904 93.1911 L 23.8300 93.3188 L 23.7573 93.4400 L 23.7560 93.4418 L 23.7531 93.5011 L 23.7323 93.6409 L 23.6980 93.7780 L 23.6504 93.9111 L 23.5900 94.0388 L 23.5173 94.1600 L 23.5160 94.1618 L 23.5131 94.2211 L 23.4923 94.3609 L 23.4580 94.4980 L 23.4104 94.6311 L 23.3500 94.7588 L 23.2773 94.8800 L 23.2760 94.8818 L 23.2731 94.9411 L 23.2523 95.0809 L 23.2180 95.2180 L 23.1704 95.3511 L 23.1100 95.4788 L 23.0373 95.6000 L 23.0360 95.6018 L 23.0331 95.6611 L 23.0123 95.8009 L 22.9780 95.9380 L 22.9304 96.0711 L 22.8700 96.1988 L 22.7973 96.3200 L 22.7448 96.3908 L 22.7380 96.4180 L 22.6904 96.5511 L 22.6300 96.6788 L 22.5600 96.7955 L 22.5600 96.9600 L 22.5531 97.1011 L 22.5323 97.2409 L 22.4980 97.3780 L 22.4504 97.5111 L 22.3900 97.6388 L 22.3173 97.7600 L 22.3160 97.7618 L 22.3131 97.8211 L 22.2923 97.9609 L 22.2580 98.0980 L 22.2104 98.2311 L 22.1500 98.3588 L 22.0800 98.4755 L 22.0800 98.6400 L 22.0731 98.7811 L 22.0523 98.9209 L 22.0180 99.0580 L 21.9704 99.1911 L 21.9100 99.3188 L 21.8400 99.4355 L 21.8400 99.6000 L 21.8331 99.7411 L 21.8123 99.8809 L 21.7780 100.0180 L 21.7304 100.1511 L 21.6700 100.2788 L 21.5973 100.4000 L 21.5960 100.4018 L 21.5931 100.4611 L 21.5723 100.6009 L 21.5380 100.7380 L 21.4904 100.8711 L 21.4300 100.9988 L 21.3600 101.1155 L 21.3600 101.2800 L 21.3531 101.4211 L 21.3323 101.5609 L 21.2980 101.6980 L 21.2504 101.8311 L 21.1900 101.9588 L 21.1200 102.0755 L 21.1200 102.4800 L 21.1131 102.6211 L 21.0923 102.7609 L 21.0580 102.8980 L 21.0104 103.0311 L 20.9500 103.1588 L 20.8800 103.2755 L 20.8800 103.6800 L 20.8731 103.8211 L 20.8523 103.9609 L 20.8180 104.0980 L 20.7704 104.2311 L 20.7100 104.3588 L 20.6400 104.4755 L 20.6400 104.6400 L 20.6331 104.7811 L 20.6123 104.9209 L 20.5780 105.0580 L 20.5304 105.1911 L 20.4700 105.3188 L 20.4000 105.4355 L 20.4000 105.8400 L 20.3931 105.9811 L 20.3723 106.1209 L 20.3380 106.2580 L 20.2904 106.3911 L 20.2300 106.5188 L 20.1600 106.6355 L 20.1600 107.0400 L 20.1531 107.1811 L 20.1323 107.3209 L 20.0980 107.4580 L 20.0504 107.5911 L 19.9900 107.7188 L 19.9200 107.8355 L 19.9200 109.4400 L 19.9131 109.5811 L 19.8923 109.7209 L 19.8580 109.8580 L 19.8104 109.9911 L 19.7500 110.1188 L 19.6800 110.2355 Z M 124.8000 172.4845 L 124.8000 172.0800 L 124.8069 171.9389 L 124.8277 171.7991 L 124.8620 171.6620 L 124.9096 171.5289 L 124.9700 171.4012 L 125.0427 171.2800 L 125.0440 171.2782 L 125.0469 171.2189 L 125.0677 171.0791 L 125.1020 170.9420 L 125.1496 170.8089 L 125.2100 170.6812 L 125.2827 170.5600 L 125.2840 170.5582 L 125.2869 170.4989 L 125.3077 170.3591 L 125.3420 170.2220 L 125.3896 170.0889 L 125.4500 169.9612 L 125.5227 169.8400 L 125.5752 169.7692 L 125.5820 169.7420 L 125.6296 169.6089 L 125.6900 169.4812 L 125.7600 169.3645 L 125.7600 169.2000 L 125.7669 169.0589 L 125.7877 168.9191 L 125.8220 168.7820 L 125.8696 168.6489 L 125.9300 168.5212 L 126.0027 168.4000 L 126.0040 168.3982 L 126.0069 168.3389 L 126.0277 168.1991 L 126.0620 168.0620 L 126.1096 167.9289 L 126.1700 167.8012 L 126.2427 167.6800 L 126.2440 167.6782 L 126.2469 167.6189 L 126.2677 167.4791 L 126.3020 167.3420 L 126.3496 167.2089 L 126.4100 167.0812 L 126.4827 166.9600 L 126.4840 166.9582 L 126.4869 166.8989 L 126.5077 166.7591 L 126.5420 166.6220 L 126.5896 166.4889 L 126.6500 166.3612 L 126.7227 166.2400 L 126.7752 166.1692 L 126.7820 166.1420 L 126.8296 166.0089 L 126.8900 165.8812 L 126.9627 165.7600 L 126.9640 165.7582 L 126.9669 165.6989 L 126.9877 165.5591 L 127.0220 165.4220 L 127.0696 165.2889 L 127.1300 165.1612 L 127.2000 165.0445 L 127.2000 164.8800 L 127.2069 164.7389 L 127.2277 164.5991 L 127.2620 164.4620 L 127.3096 164.3289 L 127.3700 164.2012 L 127.4400 164.0845 L 127.4400 163.9200 L 127.4469 163.7789 L 127.4677 163.6391 L 127.5020 163.5020 L 127.5496 163.3689 L 127.6100 163.2412 L 127.6827 163.1200 L 127.6840 163.1182 L 127.6869 163.0589 L 127.7077 162.9191 L 127.7420 162.7820 L 127.7896 162.6489 L 127.8500 162.5212 L 127.9200 162.4045 L 127.9200 161.5200 L 127.9269 161.3789 L 127.9477 161.2391 L 127.9820 161.1020 L 128.0296 160.9689 L 128.0900 160.8412 L 128.1600 160.7245 L 128.1600 160.5600 L 128.1669 160.4189 L 128.1877 160.2791 L 128.2220 160.1420 L 128.2696 160.0089 L 128.3300 159.8812 L 128.4000 159.7645 L 128.4000 159.6000 L 128.4069 159.4589 L 128.4277 159.3191 L 128.4620 159.1820 L 128.5096 159.0489 L 128.5700 158.9212 L 128.6400 158.8045 L 128.6400 158.4755 L 128.5700 158.3588 L 128.5096 158.2311 L 128.4620 158.0980 L 128.4277 157.9609 L 128.4069 157.8211 L 128.4000 157.6800 L 128.4000 156.2400 L 128.4069 156.0989 L 128.4277 155.9591 L 128.4620 155.8220 L 128.5096 155.6889 L 128.5700 155.5612 L 128.6400 155.4445 L 128.6400 154.3200 L 128.6469 154.1789 L 128.6677 154.0391 L 128.7020 153.9020 L 128.7496 153.7689 L 128.8100 153.6412 L 128.8800 153.5245 L 128.8800 153.1200 L 128.8869 152.9789 L 128.9077 152.8391 L 128.9420 152.7020 L 128.9896 152.5689 L 129.0500 152.4412 L 129.1200 152.3245 L 129.1200 150.9600 L 129.1269 150.8189 L 129.1477 150.6791 L 129.1820 150.5420 L 129.2296 150.4089 L 129.2900 150.2812 L 129.3627 150.1600 L 129.3640 150.1582 L 129.3669 150.0989 L 129.3877 149.9591 L 129.4220 149.8220 L 129.4696 149.6889 L 129.5300 149.5612 L 129.6000 149.4445 L 129.6000 148.5600 L 129.6069 148.4189 L 129.6277 148.2791 L 129.6620 148.1420 L 129.7096 148.0089 L 129.7700 147.8812 L 129.8400 147.7645 L 129.8400 147.3600 L 129.8469 147.2189 L 129.8677 147.0791 L 129.9020 146.9420 L 129.9496 146.8089 L 130.0100 146.6812 L 130.0800 146.5645 L 130.0800 145.6800 L 130.0869 145.5389 L 130.1077 145.3991 L 130.1420 145.2620 L 130.1896 145.1289 L 130.2500 145.0012 L 130.3200 144.8845 L 130.3200 144.2400 L 130.3269 144.0989 L 130.3477 143.9591 L 130.3820 143.8220 L 130.4296 143.6889 L 130.4900 143.5612 L 130.5600 143.4445 L 130.5600 142.8000 L 130.5669 142.6589 L 130.5877 142.5191 L 130.6220 142.3820 L 130.6696 142.2489 L 130.7300 142.1212 L 130.8027 142.0000 L 130.8040 141.9982 L 130.8069 141.9389 L 130.8277 141.7991 L 130.8620 141.6620 L 130.9096 141.5289 L 130.9700 141.4012 L 131.0427 141.2800 L 131.0440 141.2782 L 131.0469 141.2189 L 131.0677 141.0791 L 131.1020 140.9420 L 131.1496 140.8089 L 131.2100 140.6812 L 131.2827 140.5600 L 131.2840 140.5582 L 131.2869 140.4989 L 131.3077 140.3591 L 131.3420 140.2220 L 131.3896 140.0889 L 131.4500 139.9612 L 131.5227 139.8400 L 131.5240 139.8382 L 131.5269 139.7789 L 131.5477 139.6391 L 131.5820 139.5020 L 131.6296 139.3689 L 131.6900 139.2412 L 131.7600 139.1245 L 131.7600 138.9600 L 131.7669 138.8189 L 131.7877 138.6791 L 131.8220 138.5420 L 131.8696 138.4089 L 131.9300 138.2812 L 132.0000 138.1645 L 132.0000 131.7600 L 132.0069 131.6189 L 132.0277 131.4791 L 132.0620 131.3420 L 132.1096 131.2089 L 132.1700 131.0812 L 132.2427 130.9600 L 132.3269 130.8465 L 132.4218 130.7418 L 133.1418 130.0218 L 133.2465 129.9269 L 133.3600 129.8427 L 133.4812 129.7700 L 133.6089 129.7096 L 133.7420 129.6620 L 133.8791 129.6277 L 134.0189 129.6069 L 134.1600 129.6000 L 134.4000 129.6000 L 134.5411 129.6069 L 134.6809 129.6277 L 134.8180 129.6620 L 134.9511 129.7096 L 135.0788 129.7700 L 135.2000 129.8427 L 135.3135 129.9269 L 135.4182 130.0218 L 135.8982 130.5018 L 135.9931 130.6065 L 136.0103 130.6297 L 136.0335 130.6469 L 136.1382 130.7418 L 136.6182 131.2218 L 136.7131 131.3265 L 136.7973 131.4400 L 136.8700 131.5612 L 136.9304 131.6889 L 136.9780 131.8220 L 137.0123 131.9591 L 137.0331 132.0989 L 137.0360 132.1582 L 137.0373 132.1600 L 137.1100 132.2812 L 137.1704 132.4089 L 137.2180 132.5420 L 137.2523 132.6791 L 137.2731 132.8189 L 137.2760 132.8782 L 137.2773 132.8800 L 137.3500 133.0012 L 137.4104 133.1289 L 137.4580 133.2620 L 137.4923 133.3991 L 137.5131 133.5389 L 137.5200 133.6800 L 137.5200 134.0845 L 137.5900 134.2012 L 137.6504 134.3289 L 137.6980 134.4620 L 137.7323 134.5991 L 137.7531 134.7389 L 137.7600 134.8800 L 137.7600 135.7645 L 137.8300 135.8812 L 137.8904 136.0089 L 137.9380 136.1420 L 137.9723 136.2791 L 137.9931 136.4189 L 138.0000 136.5600 L 138.0000 136.7245 L 138.0700 136.8412 L 138.1304 136.9689 L 138.1780 137.1020 L 138.2123 137.2391 L 138.2331 137.3789 L 138.2400 137.5200 L 138.2400 139.8445 L 138.3100 139.9612 L 138.3704 140.0889 L 138.4180 140.2220 L 138.4523 140.3591 L 138.4731 140.4989 L 138.4760 140.5582 L 138.4773 140.5600 L 138.5500 140.6812 L 138.6104 140.8089 L 138.6580 140.9420 L 138.6923 141.0791 L 138.7131 141.2189 L 138.7200 141.3600 L 138.7200 141.7645 L 138.7900 141.8812 L 138.8504 142.0089 L 138.8980 142.1420 L 138.9323 142.2791 L 138.9531 142.4189 L 138.9600 142.5600 L 138.9600 143.2045 L 139.0300 143.3212 L 139.0904 143.4489 L 139.1380 143.5820 L 139.1723 143.7191 L 139.1931 143.8589 L 139.2000 144.0000 L 139.2000 144.1645 L 139.2700 144.2812 L 139.3304 144.4089 L 139.3780 144.5420 L 139.4123 144.6791 L 139.4331 144.8189 L 139.4400 144.9600 L 139.4400 145.1245 L 139.5100 145.2412 L 139.5704 145.3689 L 139.6180 145.5020 L 139.6248 145.5292 L 139.6773 145.6000 L 139.7500 145.7212 L 139.8104 145.8489 L 139.8580 145.9820 L 139.8648 146.0092 L 139.9173 146.0800 L 139.9900 146.2012 L 140.0504 146.3289 L 140.0980 146.4620 L 140.1323 146.5991 L 140.1531 146.7389 L 140.1600 146.8800 L 140.1600 147.2845 L 140.2300 147.4012 L 140.2904 147.5289 L 140.3380 147.6620 L 140.3723 147.7991 L 140.3931 147.9389 L 140.4000 148.0800 L 140.4000 148.2445 L 140.4700 148.3612 L 140.5304 148.4889 L 140.5780 148.6220 L 140.6123 148.7591 L 140.6331 148.8989 L 140.6360 148.9582 L 140.6373 148.9600 L 140.7100 149.0812 L 140.7704 149.2089 L 140.8180 149.3420 L 140.8523 149.4791 L 140.8731 149.6189 L 140.8760 149.6782 L 140.8773 149.6800 L 140.9500 149.8012 L 141.0104 149.9289 L 141.0580 150.0620 L 141.0923 150.1991 L 141.1131 150.3389 L 141.1160 150.3982 L 141.1173 150.4000 L 141.1900 150.5212 L 141.2504 150.6489 L 141.2980 150.7820 L 141.3323 150.9191 L 141.3531 151.0589 L 141.3600 151.2000 L 141.3600 151.3645 L 141.4300 151.4812 L 141.4904 151.6089 L 141.5380 151.7420 L 141.5448 151.7692 L 141.5973 151.8400 L 141.6700 151.9612 L 141.7304 152.0889 L 141.7780 152.2220 L 141.8123 152.3591 L 141.8331 152.4989 L 141.8360 152.5582 L 141.8373 152.5600 L 141.9100 152.6812 L 141.9704 152.8089 L 142.0180 152.9420 L 142.0523 153.0791 L 142.0731 153.2189 L 142.0760 153.2782 L 142.0773 153.2800 L 142.1500 153.4012 L 142.2104 153.5289 L 142.2580 153.6620 L 142.2923 153.7991 L 142.3131 153.9389 L 142.3160 153.9982 L 142.3173 154.0000 L 142.3900 154.1212 L 142.4504 154.2489 L 142.4980 154.3820 L 142.5323 154.5191 L 142.5531 154.6589 L 142.5560 154.7182 L 142.5573 154.7200 L 142.6300 154.8412 L 142.6904 154.9689 L 142.7380 155.1020 L 142.7448 155.1292 L 142.7973 155.2000 L 142.8700 155.3212 L 142.9304 155.4489 L 142.9780 155.5820 L 143.0123 155.7191 L 143.0331 155.8589 L 143.0360 155.9182 L 143.0373 155.9200 L 143.1100 156.0412 L 143.1704 156.1689 L 143.2180 156.3020 L 143.2248 156.3292 L 143.2773 156.4000 L 143.3500 156.5212 L 143.4104 156.6489 L 143.4580 156.7820 L 143.4648 156.8092 L 143.5173 156.8800 L 143.5900 157.0012 L 143.6504 157.1289 L 143.6980 157.2620 L 143.7323 157.3991 L 143.7531 157.5389 L 143.7600 157.6800 L 143.7600 158.0845 L 143.8300 158.2012 L 143.8904 158.3289 L 143.9380 158.4620 L 143.9723 158.5991 L 143.9931 158.7389 L 144.0000 158.8800 L 144.0000 160.0800 L 143.9931 160.2211 L 143.9723 160.3609 L 143.9380 160.4980 L 143.8904 160.6311 L 143.8300 160.7588 L 143.7573 160.8800 L 143.7048 160.9508 L 143.6980 160.9780 L 143.6504 161.1111 L 143.5900 161.2388 L 143.5173 161.3600 L 143.4331 161.4735 L 143.3382 161.5782 L 142.6182 162.2982 L 142.5135 162.3931 L 142.4000 162.4773 L 142.2788 162.5500 L 142.1511 162.6104 L 142.0187 162.6577 L 140.6982 163.9782 L 140.5935 164.0731 L 140.5821 164.0816 L 140.5780 164.0980 L 140.5304 164.2311 L 140.4700 164.3588 L 140.3973 164.4800 L 140.3131 164.5935 L 140.2182 164.6982 L 139.9782 164.9382 L 139.8735 165.0331 L 139.7600 165.1173 L 139.6388 165.1900 L 139.5111 165.2504 L 139.3787 165.2977 L 138.0582 166.6182 L 137.9535 166.7131 L 137.8400 166.7973 L 137.7188 166.8700 L 137.5911 166.9304 L 137.4587 166.9777 L 136.3782 168.0582 L 136.2735 168.1531 L 136.1600 168.2373 L 136.0388 168.3100 L 135.9111 168.3704 L 135.7787 168.4177 L 134.9382 169.2582 L 134.8335 169.3531 L 134.7200 169.4373 L 134.5988 169.5100 L 134.4711 169.5704 L 134.3387 169.6177 L 133.2582 170.6982 L 133.1535 170.7931 L 133.0400 170.8773 L 132.9188 170.9500 L 132.7911 171.0104 L 132.6587 171.0577 L 130.6182 173.0982 L 130.5135 173.1931 L 130.4000 173.2773 L 130.2788 173.3500 L 130.1511 173.4104 L 130.0187 173.4577 L 129.6582 173.8182 L 129.5535 173.9131 L 129.4400 173.9973 L 129.3188 174.0700 L 129.1911 174.1304 L 129.0587 174.1777 L 128.2182 175.0182 L 128.1135 175.1131 L 128.0000 175.1973 L 127.8788 175.2700 L 127.7511 175.3304 L 127.6180 175.3780 L 127.5908 175.3848 L 127.5200 175.4373 L 127.3988 175.5100 L 127.2711 175.5704 L 127.1380 175.6180 L 127.0009 175.6523 L 126.8611 175.6731 L 126.7200 175.6800 L 126.4800 175.6800 L 126.3389 175.6731 L 126.1991 175.6523 L 126.0620 175.6180 L 125.9289 175.5704 L 125.8012 175.5100 L 125.6800 175.4373 L 125.5665 175.3531 L 125.4618 175.2582 L 124.9818 174.7782 L 124.8869 174.6735 L 124.8027 174.5600 L 124.7300 174.4388 L 124.6696 174.3111 L 124.6220 174.1780 L 124.5877 174.0409 L 124.5669 173.9011 L 124.5600 173.7600 L 124.5600 173.2800 L 124.5669 173.1389 L 124.5877 172.9991 L 124.6220 172.8620 L 124.6696 172.7289 L 124.7300 172.6012 L 124.8000 172.4845 Z M 123.6582 176.1018 L 123.7531 176.2065 L 123.8373 176.3200 L 123.9100 176.4412 L 123.9704 176.5689 L 124.0180 176.7020 L 124.0523 176.8391 L 124.0731 176.9789 L 124.0800 177.1200 L 124.0731 177.2611 L 124.0523 177.4009 L 124.0180 177.5380 L 123.9704 177.6711 L 123.9100 177.7988 L 123.8373 177.9200 L 123.7531 178.0335 L 123.6582 178.1382 L 122.9382 178.8582 L 122.8335 178.9531 L 122.7200 179.0373 L 122.5988 179.1100 L 122.4711 179.1704 L 122.3380 179.2180 L 122.2009 179.2523 L 122.0611 179.2731 L 121.9200 179.2800 L 121.7789 179.2731 L 121.6391 179.2523 L 121.5020 179.2180 L 121.3689 179.1704 L 121.2412 179.1100 L 121.1200 179.0373 L 121.0065 178.9531 L 120.9018 178.8582 L 120.6618 178.6182 L 120.5669 178.5135 L 120.4827 178.4000 L 120.4100 178.2788 L 120.3496 178.1511 L 120.3020 178.0180 L 120.2677 177.8809 L 120.2469 177.7411 L 120.2400 177.6000 L 120.2400 177.3600 L 120.2469 177.2189 L 120.2677 177.0791 L 120.3020 176.9420 L 120.3496 176.8089 L 120.4100 176.6812 L 120.4827 176.5600 L 120.5669 176.4465 L 120.6618 176.3418 L 121.1418 175.8618 L 121.2465 175.7669 L 121.3600 175.6827 L 121.4812 175.6100 L 121.6089 175.5496 L 121.7420 175.5020 L 121.8791 175.4677 L 122.0189 175.4469 L 122.1600 175.4400 L 122.4000 175.4400 L 122.5411 175.4469 L 122.6809 175.4677 L 122.8180 175.5020 L 122.9511 175.5496 L 123.0788 175.6100 L 123.2000 175.6827 L 123.3135 175.7669 L 123.4182 175.8618 L 123.6582 176.1018 Z" fill="none" stroke="black" stroke-width="0.5" /></svg>