<?xml version="1.0" encoding="utf-8" ?>
<svg baseProfile="full" height="261" version="1.1" viewBox="0 0 189 261" width="189" xmlns="http://www.w3.org/2000/svg" xmlns:ev="http://www.w3.org/2001/xml-events" xmlns:xlink="http://www.w3.org/1999/xlink"><defs /><path d="M 97.2000 34.5600 L 96.9600 34.8000 L 96.0000 34.8000 L 95.7600 35.0400 L 95.0400 35.0400 L 94.8000 35.2800 L 94.3200 35.2800 L 94.0800 35.5200 L 93.8400 35.5200 L 93.6000 35.7600 L 93.3600 35.7600 L 92.8800 36.2400 L 92.6400 36.2400 L 92.4000 36.4800 L 92.1600 36.4800 L 91.6800 36.9600 L 91.4400 36.9600 L 90.9600 37.4400 L 90.7200 37.4400 L 90.2400 37.9200 L 90.0000 37.9200 L 89.5200 38.4000 L 89.2800 38.4000 L 88.5600 39.1200 L 88.3200 39.1200 L 87.6000 39.8400 L 87.3600 39.8400 L 86.6400 40.5600 L 86.4000 40.5600 L 85.6800 41.2800 L 85.6800 41.5200 L 84.9600 42.2400 L 84.9600 42.4800 L 84.2400 43.2000 L 84.2400 43.4400 L 83.7600 43.9200 L 83.7600 44.1600 L 83.5200 44.4000 L 83.5200 44.8800 L 83.2800 45.1200 L 83.2800 45.3600 L 83.0400 45.6000 L 83.0400 45.8400 L 82.8000 46.0800 L 82.8000 46.3200 L 82.5600 46.5600 L 82.5600 47.0400 L 82.3200 47.2800 L 82.3200 48.0000 L 82.0800 48.2400 L 82.0800 49.2000 L 81.8400 49.4400 L 81.8400 49.6800 L 81.6000 49.9200 L 81.6000 50.1600 L 81.3600 50.4000 L 81.3600 55.4400 L 81.6000 55.6800 L 81.6000 55.9200 L 81.8400 56.1600 L 81.8400 56.6400 L 82.0800 56.8800 L 82.0800 57.8400 L 82.3200 58.0800 L 82.3200 60.4800 L 82.0800 60.7200 L 82.0800 64.0800 L 82.3200 64.3200 L 82.3200 65.0400 L 82.5600 65.2800 L 82.5600 65.7600 L 82.8000 66.0000 L 82.8000 66.2400 L 83.0400 66.4800 L 83.0400 66.7200 L 83.2800 66.9600 L 83.2800 67.2000 L 83.5200 67.4400 L 83.5200 67.6800 L 83.7600 67.9200 L 83.7600 68.1600 L 84.0000 68.4000 L 84.0000 68.8800 L 84.2400 69.1200 L 84.2400 69.3600 L 84.4800 69.6000 L 84.4800 69.8400 L 84.7200 70.0800 L 84.7200 70.5600 L 84.9600 70.8000 L 84.9600 71.2800 L 85.2000 71.5200 L 85.2000 72.4800 L 85.4400 72.7200 L 85.4400 73.2000 L 85.6800 73.4400 L 85.6800 73.6800 L 85.9200 73.9200 L 85.9200 74.4000 L 86.1600 74.6400 L 86.1600 74.8800 L 86.4000 75.1200 L 86.4000 75.3600 L 86.6400 75.6000 L 86.6400 75.8400 L 86.8800 76.0800 L 86.8800 76.3200 L 87.1200 76.5600 L 87.1200 76.8000 L 87.3600 77.0400 L 87.3600 77.2800 L 87.6000 77.5200 L 87.6000 77.7600 L 87.8400 78.0000 L 87.8400 78.2400 L 88.0800 78.4800 L 88.0800 78.9600 L 88.5600 79.4400 L 88.5600 79.6800 L 88.8000 79.9200 L 88.8000 80.1600 L 89.2800 80.6400 L 89.2800 80.8800 L 91.2000 82.8000 L 91.2000 88.3200 L 90.9600 88.5600 L 90.9600 88.8000 L 90.7200 89.0400 L 90.4800 89.0400 L 90.2400 89.2800 L 89.0400 89.2800 L 88.8000 89.5200 L 88.0800 89.5200 L 87.8400 89.2800 L 87.1200 89.2800 L 86.8800 89.0400 L 82.3200 89.0400 L 82.0800 88.8000 L 78.4800 88.8000 L 78.2400 89.0400 L 76.5600 89.0400 L 76.3200 89.2800 L 74.8800 89.2800 L 74.6400 89.5200 L 73.4400 89.5200 L 73.2000 89.7600 L 72.4800 89.7600 L 72.2400 90.0000 L 71.5200 90.0000 L 71.2800 90.2400 L 70.3200 90.2400 L 70.0800 90.4800 L 69.1200 90.4800 L 68.8800 90.7200 L 68.4000 90.7200 L 68.1600 90.9600 L 67.6800 90.9600 L 67.4400 91.2000 L 66.9600 91.2000 L 66.7200 91.4400 L 66.2400 91.4400 L 66.0000 91.6800 L 65.5200 91.6800 L 65.2800 91.9200 L 64.8000 91.9200 L 64.5600 92.1600 L 64.3200 92.1600 L 64.0800 92.4000 L 63.8400 92.4000 L 63.6000 92.6400 L 63.3600 92.6400 L 63.1200 92.8800 L 62.8800 92.8800 L 62.4000 93.3600 L 62.1600 93.3600 L 61.6800 93.8400 L 61.4400 93.8400 L 60.9600 94.3200 L 60.7200 94.3200 L 60.2400 94.8000 L 60.0000 94.8000 L 59.2800 95.5200 L 59.0400 95.5200 L 58.3200 96.2400 L 58.0800 96.2400 L 57.1200 97.2000 L 56.8800 97.2000 L 56.4000 97.6800 L 56.1600 97.6800 L 55.9200 97.9200 L 54.4800 97.9200 L 54.2400 98.1600 L 53.0400 98.1600 L 52.8000 98.4000 L 51.6000 98.4000 L 51.3600 98.6400 L 49.9200 98.6400 L 49.6800 98.8800 L 48.4800 98.8800 L 48.2400 99.1200 L 45.8400 99.1200 L 45.6000 99.3600 L 44.4000 99.3600 L 44.1600 99.6000 L 43.4400 99.6000 L 43.2000 99.8400 L 42.7200 99.8400 L 42.4800 100.0800 L 42.2400 100.0800 L 42.0000 100.3200 L 41.5200 100.3200 L 41.2800 100.5600 L 40.3200 100.5600 L 39.8400 100.0800 L 39.8400 93.3600 L 39.6000 93.1200 L 39.6000 88.3200 L 39.8400 88.0800 L 39.8400 86.4000 L 40.0800 86.1600 L 40.0800 85.4400 L 40.3200 85.2000 L 40.3200 84.2400 L 40.5600 84.0000 L 40.5600 82.8000 L 40.8000 82.5600 L 40.8000 81.3600 L 41.0400 81.1200 L 41.0400 80.4000 L 41.2800 80.1600 L 41.2800 79.9200 L 41.5200 79.6800 L 41.5200 79.4400 L 42.0000 78.9600 L 43.4400 78.9600 L 43.6800 78.7200 L 43.9200 78.7200 L 44.1600 78.4800 L 44.1600 78.2400 L 44.4000 78.0000 L 44.4000 77.0400 L 44.1600 76.8000 L 44.1600 76.3200 L 44.6400 75.8400 L 44.8800 76.0800 L 45.1200 76.0800 L 45.3600 76.3200 L 45.8400 76.3200 L 46.0800 76.5600 L 47.0400 76.5600 L 47.2800 76.3200 L 47.5200 76.3200 L 47.7600 76.0800 L 47.7600 75.8400 L 48.0000 75.6000 L 48.0000 74.6400 L 48.4800 74.1600 L 48.7200 74.1600 L 49.2000 73.6800 L 49.4400 73.6800 L 50.4000 72.7200 L 51.6000 72.7200 L 51.8400 72.4800 L 52.5600 72.4800 L 52.8000 72.2400 L 53.2800 72.2400 L 54.0000 71.5200 L 54.0000 71.2800 L 54.2400 71.0400 L 54.2400 69.8400 L 54.0000 69.6000 L 54.0000 69.3600 L 53.0400 68.4000 L 52.8000 68.4000 L 51.6000 67.2000 L 51.3600 67.2000 L 51.1200 66.9600 L 50.8800 66.9600 L 50.1600 66.2400 L 50.1600 66.0000 L 49.9200 65.7600 L 49.9200 65.5200 L 49.6800 65.2800 L 49.6800 65.0400 L 49.4400 64.8000 L 49.4400 64.3200 L 49.2000 64.0800 L 49.2000 63.1200 L 48.9600 62.8800 L 48.9600 62.4000 L 48.7200 62.1600 L 48.7200 61.6800 L 48.4800 61.4400 L 48.4800 61.2000 L 48.0000 60.7200 L 48.0000 60.4800 L 47.5200 60.0000 L 47.5200 59.7600 L 47.2800 59.5200 L 47.2800 59.2800 L 46.8000 58.8000 L 46.8000 58.5600 L 44.8800 56.6400 L 44.6400 56.6400 L 44.4000 56.4000 L 44.1600 56.4000 L 43.9200 56.1600 L 43.6800 56.1600 L 43.4400 55.9200 L 43.4400 55.6800 L 42.2400 54.4800 L 42.0000 54.4800 L 41.7600 54.2400 L 41.2800 54.2400 L 41.0400 54.0000 L 40.8000 54.0000 L 40.5600 53.7600 L 40.3200 53.7600 L 40.0800 53.5200 L 38.6400 53.5200 L 38.4000 53.7600 L 38.1600 53.7600 L 37.2000 54.7200 L 37.2000 54.9600 L 36.9600 55.2000 L 36.9600 55.9200 L 37.2000 56.1600 L 37.2000 56.4000 L 37.4400 56.6400 L 37.6800 56.6400 L 37.9200 56.8800 L 38.1600 56.8800 L 38.8800 57.6000 L 38.8800 58.0800 L 38.6400 58.3200 L 38.1600 58.3200 L 37.9200 58.5600 L 37.4400 58.5600 L 37.2000 58.8000 L 36.7200 58.8000 L 36.0000 59.5200 L 36.0000 59.7600 L 35.5200 60.2400 L 35.2800 60.2400 L 34.8000 60.7200 L 34.5600 60.7200 L 34.3200 60.9600 L 34.0800 60.9600 L 33.6000 61.4400 L 33.3600 61.4400 L 33.3600 61.6800 L 33.1200 61.9200 L 33.1200 62.1600 L 32.1600 63.1200 L 31.9200 63.1200 L 30.9600 64.0800 L 30.7200 64.0800 L 30.2400 64.5600 L 30.2400 64.8000 L 30.0000 65.0400 L 30.0000 68.4000 L 30.2400 68.6400 L 30.2400 69.3600 L 30.4800 69.6000 L 30.4800 69.8400 L 30.7200 70.0800 L 30.7200 70.3200 L 30.9600 70.5600 L 30.9600 71.7600 L 31.2000 72.0000 L 31.2000 73.2000 L 30.9600 73.4400 L 30.9600 73.6800 L 30.7200 73.9200 L 30.7200 75.3600 L 30.4800 75.6000 L 30.4800 76.3200 L 30.2400 76.5600 L 30.2400 76.8000 L 30.0000 77.0400 L 30.0000 77.2800 L 29.7600 77.5200 L 29.7600 78.0000 L 29.5200 78.2400 L 29.5200 78.4800 L 29.2800 78.7200 L 29.2800 78.9600 L 29.0400 79.2000 L 29.0400 79.6800 L 28.8000 79.9200 L 28.8000 80.1600 L 28.5600 80.4000 L 28.5600 80.6400 L 28.0800 81.1200 L 28.0800 81.3600 L 27.8400 81.6000 L 27.8400 81.8400 L 27.6000 82.0800 L 27.6000 82.3200 L 27.3600 82.5600 L 27.3600 82.8000 L 27.1200 83.0400 L 27.1200 83.2800 L 26.8800 83.5200 L 26.8800 83.7600 L 26.6400 84.0000 L 26.6400 84.2400 L 26.4000 84.4800 L 26.4000 84.7200 L 26.1600 84.9600 L 26.1600 85.2000 L 25.6800 85.6800 L 25.6800 85.9200 L 25.4400 86.1600 L 25.4400 86.4000 L 25.2000 86.6400 L 25.2000 86.8800 L 24.9600 87.1200 L 24.9600 87.3600 L 24.7200 87.6000 L 24.7200 87.8400 L 24.4800 88.0800 L 24.4800 88.3200 L 24.2400 88.5600 L 24.2400 88.8000 L 24.0000 89.0400 L 24.0000 89.2800 L 23.7600 89.5200 L 23.7600 89.7600 L 23.5200 90.0000 L 23.5200 90.2400 L 23.2800 90.4800 L 23.2800 90.9600 L 23.0400 91.2000 L 23.0400 91.4400 L 22.8000 91.6800 L 22.8000 91.9200 L 22.5600 92.1600 L 22.5600 92.6400 L 22.3200 92.8800 L 22.3200 93.3600 L 22.0800 93.6000 L 22.0800 94.0800 L 21.8400 94.3200 L 21.8400 94.8000 L 21.6000 95.0400 L 21.6000 95.5200 L 21.3600 95.7600 L 21.3600 96.0000 L 21.1200 96.2400 L 21.1200 96.9600 L 20.8800 97.2000 L 20.8800 97.6800 L 20.6400 97.9200 L 20.6400 98.6400 L 20.4000 98.8800 L 20.4000 99.6000 L 20.1600 99.8400 L 20.1600 100.3200 L 19.9200 100.5600 L 19.9200 101.2800 L 19.6800 101.5200 L 19.6800 102.4800 L 19.4400 102.7200 L 19.4400 103.6800 L 19.2000 103.9200 L 19.2000 104.6400 L 18.9600 104.8800 L 18.9600 105.8400 L 18.7200 106.0800 L 18.7200 107.0400 L 18.4800 107.2800 L 18.4800 109.4400 L 18.2400 109.6800 L 18.2400 112.3200 L 18.4800 112.5600 L 18.4800 113.5200 L 18.7200 113.7600 L 18.7200 114.4800 L 18.9600 114.7200 L 18.9600 115.2000 L 19.2000 115.4400 L 19.2000 115.6800 L 19.4400 115.9200 L 19.4400 116.6400 L 19.6800 116.8800 L 19.6800 117.3600 L 19.9200 117.6000 L 19.9200 118.0800 L 20.4000 118.5600 L 20.4000 118.8000 L 21.1200 119.5200 L 21.3600 119.5200 L 21.8400 120.0000 L 22.0800 120.0000 L 22.3200 120.2400 L 22.8000 120.2400 L 23.0400 120.4800 L 23.5200 120.4800 L 23.7600 120.7200 L 24.7200 120.7200 L 24.9600 120.9600 L 26.4000 120.9600 L 26.6400 121.2000 L 28.0800 121.2000 L 28.3200 121.4400 L 29.0400 121.4400 L 29.2800 121.6800 L 30.2400 121.6800 L 30.4800 121.9200 L 31.4400 121.9200 L 31.6800 122.1600 L 32.8800 122.1600 L 33.1200 122.4000 L 35.5200 122.4000 L 35.7600 122.6400 L 42.4800 122.6400 L 42.7200 122.4000 L 44.8800 122.4000 L 45.1200 122.6400 L 46.5600 122.6400 L 46.8000 122.8800 L 48.2400 122.8800 L 48.4800 123.1200 L 53.0400 123.1200 L 53.2800 122.8800 L 54.9600 122.8800 L 55.2000 122.6400 L 56.1600 122.6400 L 56.4000 122.4000 L 57.1200 122.4000 L 57.3600 122.1600 L 58.0800 122.1600 L 58.3200 121.9200 L 59.0400 121.9200 L 59.2800 121.6800 L 59.7600 121.6800 L 60.0000 121.4400 L 60.2400 121.4400 L 60.4800 121.2000 L 60.7200 121.2000 L 60.9600 120.9600 L 61.4400 120.9600 L 61.6800 120.7200 L 61.9200 120.7200 L 62.1600 120.4800 L 62.4000 120.4800 L 62.6400 120.2400 L 62.8800 120.2400 L 63.1200 120.0000 L 63.3600 120.0000 L 63.8400 119.5200 L 64.0800 119.5200 L 64.5600 119.0400 L 64.8000 119.0400 L 65.0400 118.8000 L 65.2800 118.8000 L 65.5200 118.5600 L 65.7600 118.5600 L 66.0000 118.3200 L 66.2400 118.3200 L 66.7200 117.8400 L 67.2000 117.8400 L 67.4400 117.6000 L 68.1600 117.6000 L 68.4000 117.3600 L 68.6400 117.3600 L 68.8800 117.6000 L 68.8800 119.5200 L 68.6400 119.7600 L 68.6400 121.2000 L 68.4000 121.4400 L 68.4000 123.1200 L 68.1600 123.3600 L 68.1600 125.0400 L 67.9200 125.2800 L 67.9200 127.2000 L 67.6800 127.4400 L 67.6800 128.4000 L 67.4400 128.6400 L 67.4400 129.8400 L 67.2000 130.0800 L 67.2000 132.0000 L 66.9600 132.2400 L 66.9600 134.1600 L 66.7200 134.4000 L 66.7200 136.5600 L 66.4800 136.8000 L 66.4800 138.7200 L 66.2400 138.9600 L 66.2400 139.9200 L 66.0000 140.1600 L 66.0000 142.0800 L 65.7600 142.3200 L 65.7600 144.2400 L 65.5200 144.4800 L 65.5200 146.6400 L 65.2800 146.8800 L 65.2800 148.8000 L 65.0400 149.0400 L 65.0400 152.1600 L 64.8000 152.4000 L 64.8000 154.3200 L 64.5600 154.5600 L 64.5600 165.3600 L 64.3200 165.6000 L 64.3200 167.7600 L 64.0800 168.0000 L 64.0800 173.2800 L 63.8400 173.5200 L 63.8400 174.7200 L 63.6000 174.9600 L 63.6000 178.5600 L 63.3600 178.8000 L 63.3600 181.6800 L 63.1200 181.9200 L 63.1200 184.3200 L 62.8800 184.5600 L 62.8800 186.9600 L 62.6400 187.2000 L 62.6400 188.4000 L 62.4000 188.6400 L 62.4000 189.6000 L 62.1600 189.8400 L 62.1600 190.5600 L 61.9200 190.8000 L 61.9200 191.2800 L 61.6800 191.5200 L 61.6800 192.4800 L 61.4400 192.7200 L 61.4400 193.2000 L 61.2000 193.4400 L 61.2000 194.4000 L 60.9600 194.6400 L 60.9600 195.6000 L 60.7200 195.8400 L 60.7200 196.5600 L 60.4800 196.8000 L 60.4800 197.5200 L 60.2400 197.7600 L 60.2400 199.4400 L 60.0000 199.6800 L 60.0000 203.0400 L 60.2400 203.2800 L 60.2400 203.5200 L 60.9600 204.2400 L 60.9600 204.4800 L 61.6800 205.2000 L 61.9200 205.2000 L 62.1600 205.4400 L 62.4000 205.4400 L 62.6400 205.6800 L 62.8800 205.6800 L 63.1200 205.9200 L 63.3600 205.9200 L 63.6000 206.1600 L 63.8400 206.1600 L 64.3200 206.6400 L 64.5600 206.6400 L 64.8000 206.8800 L 65.0400 206.8800 L 65.2800 207.1200 L 65.5200 207.1200 L 65.7600 207.3600 L 66.0000 207.3600 L 66.4800 207.8400 L 66.7200 207.8400 L 67.4400 208.5600 L 67.6800 208.5600 L 67.9200 208.8000 L 68.1600 208.8000 L 68.6400 209.2800 L 68.8800 209.2800 L 69.1200 209.5200 L 69.3600 209.5200 L 69.6000 209.7600 L 69.8400 209.7600 L 70.3200 210.2400 L 70.8000 210.2400 L 71.2800 210.7200 L 71.5200 210.7200 L 71.7600 210.9600 L 72.7200 210.9600 L 72.9600 211.2000 L 75.3600 211.2000 L 75.6000 210.9600 L 75.8400 210.9600 L 76.0800 210.7200 L 76.5600 210.7200 L 76.8000 210.4800 L 77.0400 210.4800 L 77.2800 210.2400 L 77.5200 210.2400 L 77.7600 210.0000 L 77.7600 209.7600 L 78.9600 208.5600 L 79.2000 208.5600 L 79.4400 208.3200 L 79.9200 208.3200 L 80.1600 208.0800 L 81.3600 209.2800 L 81.6000 209.2800 L 82.0800 209.7600 L 82.5600 209.7600 L 82.8000 210.0000 L 83.0400 210.0000 L 83.7600 210.7200 L 83.7600 212.6400 L 84.0000 212.8800 L 84.0000 213.1200 L 84.9600 214.0800 L 85.2000 214.0800 L 85.4400 214.3200 L 88.0800 214.3200 L 88.5600 214.8000 L 88.5600 215.0400 L 88.8000 215.2800 L 88.8000 215.7600 L 89.7600 216.7200 L 90.0000 216.7200 L 90.2400 216.9600 L 92.1600 216.9600 L 93.3600 215.7600 L 93.3600 215.5200 L 94.3200 214.5600 L 94.5600 214.5600 L 95.0400 215.0400 L 95.0400 215.2800 L 94.8000 215.5200 L 94.8000 217.2000 L 95.2800 217.6800 L 95.5200 217.6800 L 95.7600 217.9200 L 97.2000 217.9200 L 97.4400 217.6800 L 97.6800 217.6800 L 98.8800 216.4800 L 98.8800 216.2400 L 99.3600 215.7600 L 99.3600 215.2800 L 99.6000 215.0400 L 99.6000 214.3200 L 99.8400 214.0800 L 99.8400 213.8400 L 100.5600 213.1200 L 100.5600 212.8800 L 101.2800 212.1600 L 101.2800 211.9200 L 101.7600 211.4400 L 102.0000 211.4400 L 104.6400 208.8000 L 104.6400 208.5600 L 105.6000 207.6000 L 105.6000 207.3600 L 107.0400 205.9200 L 107.0400 205.6800 L 107.2800 205.4400 L 107.2800 205.2000 L 107.7600 204.7200 L 107.7600 204.4800 L 108.2400 204.0000 L 108.2400 203.7600 L 108.9600 203.0400 L 108.9600 202.8000 L 109.2000 202.5600 L 109.4400 202.5600 L 111.1200 200.8800 L 111.3600 200.8800 L 112.3200 199.9200 L 112.3200 199.6800 L 112.5600 199.4400 L 112.5600 198.2400 L 113.0400 197.7600 L 113.2800 197.7600 L 113.5200 197.5200 L 114.4800 197.5200 L 114.7200 197.2800 L 115.2000 197.2800 L 115.4400 197.0400 L 115.9200 197.0400 L 116.1600 196.8000 L 116.6400 196.8000 L 117.1200 197.2800 L 116.8800 197.5200 L 116.8800 197.7600 L 116.6400 198.0000 L 116.6400 198.4800 L 116.4000 198.7200 L 116.4000 198.9600 L 116.8800 198.4800 L 117.1200 198.4800 L 117.1200 198.0000 L 117.3600 197.7600 L 117.3600 197.5200 L 117.6000 197.2800 L 117.8400 197.2800 L 118.0800 197.0400 L 118.5600 197.0400 L 118.8000 196.8000 L 119.5200 196.8000 L 120.0000 196.3200 L 120.4800 196.3200 L 120.7200 196.5600 L 120.7200 197.5200 L 120.2400 198.0000 L 120.2400 198.2400 L 119.5200 198.9600 L 119.5200 199.4400 L 120.7200 199.4400 L 120.9600 199.6800 L 121.4400 199.6800 L 121.6800 199.4400 L 122.6400 199.4400 L 122.8800 199.6800 L 124.3200 199.6800 L 124.5600 199.9200 L 124.8000 199.9200 L 125.0400 200.1600 L 125.2800 200.1600 L 125.5200 200.4000 L 125.7600 200.1600 L 126.4800 200.1600 L 126.7200 200.4000 L 127.2000 200.4000 L 127.6800 200.8800 L 127.6800 214.8000 L 127.4400 215.0400 L 127.4400 219.6000 L 127.2000 219.8400 L 127.2000 222.4800 L 126.9600 222.7200 L 126.9600 223.4400 L 126.7200 223.6800 L 126.7200 224.4000 L 126.4800 224.6400 L 126.4800 225.8400 L 126.2400 226.0800 L 126.2400 227.2800 L 126.0000 227.5200 L 125.7600 227.5200 L 125.5200 227.2800 L 125.2800 227.5200 L 125.2800 228.0000 L 125.0400 228.2400 L 125.0400 228.4800 L 124.3200 229.2000 L 138.4800 229.2000 L 138.4800 225.3600 L 138.7200 225.1200 L 138.7200 219.3600 L 138.9600 219.1200 L 138.9600 216.0000 L 139.2000 215.7600 L 139.2000 214.5600 L 139.4400 214.3200 L 139.4400 212.4000 L 139.2000 212.1600 L 139.2000 211.9200 L 139.4400 211.6800 L 139.4400 211.4400 L 138.9600 210.9600 L 138.9600 209.0400 L 139.2000 208.8000 L 139.2000 208.5600 L 139.4400 208.3200 L 139.9200 208.3200 L 139.9200 206.4000 L 139.6800 206.1600 L 139.6800 205.6800 L 139.9200 205.4400 L 140.4000 205.4400 L 140.6400 205.2000 L 140.8800 205.2000 L 141.1200 204.9600 L 141.3600 204.9600 L 142.5600 203.7600 L 142.5600 203.5200 L 142.8000 203.2800 L 142.8000 202.8000 L 143.0400 202.5600 L 143.0400 198.0000 L 142.8000 197.7600 L 142.8000 196.5600 L 142.5600 196.3200 L 142.5600 195.6000 L 142.3200 195.3600 L 142.3200 194.6400 L 142.0800 194.4000 L 142.0800 193.9200 L 141.8400 193.6800 L 141.8400 192.7200 L 141.6000 192.4800 L 141.6000 191.0400 L 141.3600 190.8000 L 141.3600 187.9200 L 141.1200 187.6800 L 141.1200 187.4400 L 142.0800 186.4800 L 142.3200 186.4800 L 142.8000 186.0000 L 143.0400 186.0000 L 143.5200 185.5200 L 143.7600 185.5200 L 144.4800 184.8000 L 144.7200 184.8000 L 145.2000 184.3200 L 145.4400 184.3200 L 146.1600 183.6000 L 146.4000 183.6000 L 146.6400 183.3600 L 146.8800 183.3600 L 147.3600 182.8800 L 147.6000 182.8800 L 148.0800 182.4000 L 148.3200 182.4000 L 148.8000 181.9200 L 149.0400 181.9200 L 149.5200 181.4400 L 149.7600 181.4400 L 150.7200 180.4800 L 150.9600 180.4800 L 151.4400 180.0000 L 151.6800 180.0000 L 152.4000 179.2800 L 152.6400 179.2800 L 153.6000 178.3200 L 153.8400 178.3200 L 155.5200 176.6400 L 155.7600 176.6400 L 156.4800 175.9200 L 156.7200 175.9200 L 157.2000 175.4400 L 157.4400 175.4400 L 157.6800 175.2000 L 157.9200 175.2000 L 158.1600 174.9600 L 158.6400 174.9600 L 158.8800 174.7200 L 159.1200 174.7200 L 159.3600 174.4800 L 159.6000 174.4800 L 159.8400 174.2400 L 160.0800 174.2400 L 160.5600 173.7600 L 160.8000 173.7600 L 161.5200 173.0400 L 161.5200 172.5600 L 162.0000 172.0800 L 162.0000 171.6000 L 162.2400 171.3600 L 162.2400 168.7200 L 162.4800 168.4800 L 162.4800 167.2800 L 162.7200 167.0400 L 162.7200 165.6000 L 162.9600 165.3600 L 162.9600 164.1600 L 163.2000 163.9200 L 163.2000 163.2000 L 163.4400 162.9600 L 163.4400 161.0400 L 163.6800 160.8000 L 163.6800 159.1200 L 163.4400 158.8800 L 163.4400 156.9600 L 163.2000 156.7200 L 163.2000 156.2400 L 162.9600 156.0000 L 162.9600 154.8000 L 162.7200 154.5600 L 162.7200 153.6000 L 162.4800 153.3600 L 162.4800 152.4000 L 162.2400 152.1600 L 162.2400 150.4800 L 162.0000 150.2400 L 162.0000 149.2800 L 161.7600 149.0400 L 161.7600 147.3600 L 161.5200 147.1200 L 161.5200 145.9200 L 161.2800 145.6800 L 161.2800 142.5600 L 161.0400 142.3200 L 161.0400 140.1600 L 160.8000 139.9200 L 160.8000 138.9600 L 160.5600 138.7200 L 160.5600 137.5200 L 160.3200 137.2800 L 160.3200 133.9200 L 160.0800 133.6800 L 160.0800 131.7600 L 159.8400 131.5200 L 159.8400 130.3200 L 159.6000 130.0800 L 159.6000 129.3600 L 159.3600 129.1200 L 159.3600 128.4000 L 159.1200 128.1600 L 159.1200 127.4400 L 158.8800 127.2000 L 158.8800 126.7200 L 158.6400 126.4800 L 158.6400 125.7600 L 158.4000 125.5200 L 158.4000 124.5600 L 158.1600 124.3200 L 158.1600 123.3600 L 157.9200 123.1200 L 157.9200 121.9200 L 157.6800 121.6800 L 157.6800 120.9600 L 157.4400 120.7200 L 157.4400 118.5600 L 157.2000 118.3200 L 157.2000 114.7200 L 156.9600 114.4800 L 156.9600 112.0800 L 156.7200 111.8400 L 156.7200 110.6400 L 156.4800 110.4000 L 156.4800 109.4400 L 156.2400 109.2000 L 156.2400 108.4800 L 156.0000 108.2400 L 156.0000 107.5200 L 155.7600 107.2800 L 155.7600 106.8000 L 155.5200 106.5600 L 155.5200 106.0800 L 155.2800 105.8400 L 155.2800 105.1200 L 155.0400 104.8800 L 155.0400 104.1600 L 154.8000 103.9200 L 154.8000 103.4400 L 154.5600 103.2000 L 154.5600 102.9600 L 154.3200 102.7200 L 154.3200 102.2400 L 154.0800 102.0000 L 154.0800 101.5200 L 153.8400 101.2800 L 153.8400 100.8000 L 153.6000 100.5600 L 153.6000 100.3200 L 153.3600 100.0800 L 153.3600 99.8400 L 153.1200 99.6000 L 153.1200 99.3600 L 152.8800 99.1200 L 152.8800 98.6400 L 152.6400 98.4000 L 152.6400 98.1600 L 152.4000 97.9200 L 152.4000 97.6800 L 152.1600 97.4400 L 152.1600 97.2000 L 151.9200 96.9600 L 151.9200 96.7200 L 151.6800 96.4800 L 151.6800 96.0000 L 151.4400 95.7600 L 151.4400 95.5200 L 151.2000 95.2800 L 151.2000 95.0400 L 150.9600 94.8000 L 150.9600 94.5600 L 150.4800 94.0800 L 150.4800 93.8400 L 150.0000 93.3600 L 150.0000 93.1200 L 149.0400 92.1600 L 149.0400 91.9200 L 148.8000 91.6800 L 148.5600 91.6800 L 147.3600 90.4800 L 147.1200 90.4800 L 146.6400 90.0000 L 146.4000 90.0000 L 145.9200 89.5200 L 145.6800 89.5200 L 145.4400 89.2800 L 145.2000 89.2800 L 144.9600 89.0400 L 144.4800 89.0400 L 144.2400 88.8000 L 144.0000 88.8000 L 143.7600 88.5600 L 143.5200 88.5600 L 143.2800 88.3200 L 143.0400 88.3200 L 142.8000 88.0800 L 142.3200 88.0800 L 142.0800 87.8400 L 141.6000 87.8400 L 141.3600 87.6000 L 140.6400 87.6000 L 140.4000 87.3600 L 137.2800 87.3600 L 137.0400 87.1200 L 136.8000 87.1200 L 136.5600 86.8800 L 136.3200 86.8800 L 136.0800 86.6400 L 135.3600 86.6400 L 135.1200 86.4000 L 134.6400 86.4000 L 133.9200 85.6800 L 133.4400 85.6800 L 133.2000 85.4400 L 131.2800 85.4400 L 131.0400 85.2000 L 130.8000 85.2000 L 130.3200 84.7200 L 130.3200 84.4800 L 129.8400 84.0000 L 126.9600 84.0000 L 126.7200 84.2400 L 126.0000 84.2400 L 125.7600 84.0000 L 125.0400 84.0000 L 124.8000 83.7600 L 124.5600 83.7600 L 124.3200 83.5200 L 123.6000 83.5200 L 123.3600 83.2800 L 120.4800 83.2800 L 120.2400 83.0400 L 119.7600 83.0400 L 119.5200 82.8000 L 119.2800 82.8000 L 119.0400 82.5600 L 118.8000 82.5600 L 118.3200 82.0800 L 118.0800 82.0800 L 117.6000 81.6000 L 117.6000 81.3600 L 117.3600 81.1200 L 117.3600 80.8800 L 116.8800 80.4000 L 116.8800 80.1600 L 116.4000 79.6800 L 116.4000 79.4400 L 116.1600 79.2000 L 116.1600 78.9600 L 115.9200 78.7200 L 115.9200 78.0000 L 115.6800 77.7600 L 115.6800 76.8000 L 115.4400 76.5600 L 115.4400 75.3600 L 115.2000 75.1200 L 115.2000 69.8400 L 115.4400 69.6000 L 115.4400 66.9600 L 115.6800 66.7200 L 115.6800 64.8000 L 115.9200 64.5600 L 115.9200 63.1200 L 117.3600 61.6800 L 117.3600 61.4400 L 117.6000 61.2000 L 117.6000 60.9600 L 117.8400 60.7200 L 117.8400 60.0000 L 118.0800 59.7600 L 118.0800 58.8000 L 118.3200 58.5600 L 118.3200 54.7200 L 118.0800 54.4800 L 118.0800 54.2400 L 117.8400 54.0000 L 117.8400 53.5200 L 117.6000 53.2800 L 117.6000 52.8000 L 117.8400 52.5600 L 117.8400 47.7600 L 117.6000 47.5200 L 117.6000 46.5600 L 117.3600 46.3200 L 117.3600 45.3600 L 117.1200 45.1200 L 117.1200 44.8800 L 116.8800 44.6400 L 116.8800 44.1600 L 116.6400 43.9200 L 116.6400 43.4400 L 116.4000 43.2000 L 116.4000 42.7200 L 116.1600 42.4800 L 116.1600 42.2400 L 115.9200 42.0000 L 115.9200 41.7600 L 115.6800 41.5200 L 115.6800 41.2800 L 115.2000 40.8000 L 115.2000 40.5600 L 114.2400 39.6000 L 114.2400 39.3600 L 113.5200 38.6400 L 113.2800 38.6400 L 112.5600 37.9200 L 112.3200 37.9200 L 111.8400 37.4400 L 111.6000 37.4400 L 111.3600 37.2000 L 111.1200 37.2000 L 110.6400 36.7200 L 110.4000 36.7200 L 110.1600 36.4800 L 109.6800 36.4800 L 109.4400 36.2400 L 109.2000 36.2400 L 108.9600 36.0000 L 108.4800 36.0000 L 108.2400 35.7600 L 107.7600 35.7600 L 107.5200 35.5200 L 107.0400 35.5200 L 106.8000 35.2800 L 106.0800 35.2800 L 105.8400 35.0400 L 105.1200 35.0400 L 104.8800 34.8000 L 104.1600 34.8000 L 103.9200 34.5600 L 102.7200 34.5600 L 102.4800 34.3200 L 98.4000 34.3200 L 98.1600 34.5600 L 97.2000 34.5600 Z M 134.8800 131.5200 L 134.8800 131.7600 L 135.1200 131.7600 L 135.6000 132.2400 L 135.6000 132.7200 L 135.8400 132.9600 L 135.8400 133.4400 L 136.0800 133.6800 L 136.0800 134.6400 L 136.3200 134.8800 L 136.3200 136.3200 L 136.5600 136.5600 L 136.5600 137.2800 L 136.8000 137.5200 L 136.8000 140.4000 L 137.0400 140.6400 L 137.0400 141.1200 L 137.2800 141.3600 L 137.2800 142.3200 L 137.5200 142.5600 L 137.5200 143.7600 L 137.7600 144.0000 L 137.7600 144.7200 L 138.0000 144.9600 L 138.0000 145.6800 L 138.2400 145.9200 L 138.2400 146.1600 L 138.4800 146.4000 L 138.4800 146.6400 L 138.7200 146.8800 L 138.7200 147.8400 L 138.9600 148.0800 L 138.9600 148.8000 L 139.2000 149.0400 L 139.2000 149.5200 L 139.4400 149.7600 L 139.4400 150.2400 L 139.6800 150.4800 L 139.6800 150.9600 L 139.9200 151.2000 L 139.9200 151.9200 L 140.1600 152.1600 L 140.1600 152.4000 L 140.4000 152.6400 L 140.4000 153.1200 L 140.6400 153.3600 L 140.6400 153.8400 L 140.8800 154.0800 L 140.8800 154.5600 L 141.1200 154.8000 L 141.1200 155.2800 L 141.3600 155.5200 L 141.3600 155.7600 L 141.6000 156.0000 L 141.6000 156.4800 L 141.8400 156.7200 L 141.8400 156.9600 L 142.0800 157.2000 L 142.0800 157.4400 L 142.3200 157.6800 L 142.3200 158.6400 L 142.5600 158.8800 L 142.5600 160.0800 L 142.3200 160.3200 L 142.3200 160.5600 L 141.6000 161.2800 L 141.3600 161.2800 L 139.6800 162.9600 L 139.4400 162.9600 L 139.4400 163.2000 L 139.2000 163.4400 L 139.2000 163.6800 L 138.9600 163.9200 L 138.7200 163.9200 L 137.0400 165.6000 L 136.8000 165.6000 L 135.3600 167.0400 L 135.1200 167.0400 L 133.9200 168.2400 L 133.6800 168.2400 L 132.2400 169.6800 L 132.0000 169.6800 L 129.6000 172.0800 L 129.3600 172.0800 L 128.6400 172.8000 L 128.4000 172.8000 L 127.2000 174.0000 L 126.9600 174.0000 L 126.7200 174.2400 L 126.4800 174.2400 L 126.0000 173.7600 L 126.0000 173.2800 L 126.2400 173.0400 L 126.2400 172.0800 L 126.4800 171.8400 L 126.4800 171.3600 L 126.7200 171.1200 L 126.7200 170.6400 L 126.9600 170.4000 L 126.9600 170.1600 L 127.2000 169.9200 L 127.2000 169.2000 L 127.4400 168.9600 L 127.4400 168.4800 L 127.6800 168.2400 L 127.6800 167.7600 L 127.9200 167.5200 L 127.9200 167.0400 L 128.1600 166.8000 L 128.1600 166.5600 L 128.4000 166.3200 L 128.4000 165.8400 L 128.6400 165.6000 L 128.6400 164.8800 L 128.8800 164.6400 L 128.8800 163.9200 L 129.1200 163.6800 L 129.1200 163.2000 L 129.3600 162.9600 L 129.3600 161.5200 L 129.6000 161.2800 L 129.6000 160.5600 L 129.8400 160.3200 L 129.8400 159.6000 L 130.0800 159.3600 L 130.0800 157.9200 L 129.8400 157.6800 L 129.8400 156.2400 L 130.0800 156.0000 L 130.0800 154.3200 L 130.3200 154.0800 L 130.3200 153.1200 L 130.5600 152.8800 L 130.5600 150.9600 L 130.8000 150.7200 L 130.8000 150.2400 L 131.0400 150.0000 L 131.0400 148.5600 L 131.2800 148.3200 L 131.2800 147.3600 L 131.5200 147.1200 L 131.5200 145.6800 L 131.7600 145.4400 L 131.7600 144.2400 L 132.0000 144.0000 L 132.0000 142.8000 L 132.2400 142.5600 L 132.2400 142.0800 L 132.4800 141.8400 L 132.4800 141.3600 L 132.7200 141.1200 L 132.7200 140.6400 L 132.9600 140.4000 L 132.9600 139.9200 L 133.2000 139.6800 L 133.2000 138.9600 L 133.4400 138.7200 L 133.4400 131.7600 L 134.1600 131.0400 L 134.4000 131.0400 L 134.8800 131.5200 Z M 122.6400 177.1200 L 121.9200 177.8400 L 121.6800 177.6000 L 121.6800 177.3600 L 122.1600 176.8800 L 122.4000 176.8800 L 122.6400 177.1200 Z M 135.3600 140.8800 L 135.8400 141.3600 L 136.0800 141.3600 L 136.0800 139.6800 L 135.6000 139.6800 L 135.3600 139.9200 L 135.3600 140.8800 Z M 124.8000 204.7200 L 124.8000 205.4400 L 125.0400 205.6800 L 125.0400 206.6400 L 125.2800 206.4000 L 125.2800 203.7600 L 125.0400 203.7600 L 125.0400 204.4800 L 124.8000 204.7200 Z M 124.0800 226.3200 L 124.0800 226.5600 L 124.3200 226.8000 L 124.3200 227.5200 L 124.5600 227.5200 L 124.8000 227.2800 L 124.5600 227.0400 L 124.5600 226.5600 L 124.8000 226.3200 L 124.5600 226.0800 L 124.5600 225.6000 L 124.3200 225.3600 L 124.3200 223.9200 L 124.0800 223.6800 L 124.0800 223.2000 L 123.8400 223.2000 L 123.8400 226.0800 L 124.0800 226.3200 Z" fill="none" stroke="black" stroke-width="0.5" /></svg>