<?xml version="1.0" encoding="utf-8" ?>
<svg baseProfile="full" height="261" version="1.1" viewBox="0 0 189 261" width="189" xmlns="http://www.w3.org/2000/svg" xmlns:ev="http://www.w3.org/2001/xml-events" xmlns:xlink="http://www.w3.org/1999/xlink"><defs /><path d="M 1.4400 1.6800 L 1.4400 259.2000 L 187.2000 259.2000 L 187.2000 1.6800 L 1.4400 1.6800 Z M 8.1600 10.0800 L 8.1669 9.9389 L 8.1877 9.7991 L 8.2220 9.6620 L 8.2696 9.5289 L 8.3300 9.4012 L 8.4027 9.2800 L 8.4869 9.1665 L 8.5818 9.0618 L 8.8218 8.8218 L 8.9265 8.7269 L 9.0400 8.6427 L 9.1612 8.5700 L 9.2889 8.5096 L 9.4220 8.4620 L 9.5591 8.4277 L 9.6989 8.4069 L 9.8400 8.4000 L 179.0400 8.4000 L 179.1811 8.4069 L 179.3209 8.4277 L 179.4580 8.4620 L 179.5911 8.5096 L 179.7188 8.5700 L 179.8400 8.6427 L 179.9535 8.7269 L 180.0582 8.8218 L 180.2982 9.0618 L 180.3931 9.1665 L 180.4773 9.2800 L 180.5500 9.4012 L 180.6104 9.5289 L 180.6580 9.6620 L 180.6923 9.7991 L 180.7131 9.9389 L 180.7200 10.0800 L 180.7200 119.0400 L 180.7131 119.1811 L 180.6923 119.3209 L 180.6580 119.4580 L 180.6104 119.5911 L 180.5500 119.7188 L 180.4773 119.8400 L 180.3931 119.9535 L 180.2982 120.0582 L 179.8182 120.5382 L 179.7135 120.6331 L 179.6000 120.7173 L 179.4788 120.7900 L 179.3511 120.8504 L 179.2180 120.8980 L 179.1908 120.9048 L 179.1200 120.9573 L 178.9988 121.0300 L 178.8711 121.0904 L 178.7380 121.1380 L 178.7108 121.1448 L 178.6400 121.1973 L 178.5188 121.2700 L 178.3911 121.3304 L 178.2580 121.3780 L 178.2308 121.3848 L 178.1600 121.4373 L 178.0388 121.5100 L 177.9111 121.5704 L 177.7780 121.6180 L 177.7508 121.6248 L 177.6800 121.6773 L 177.5588 121.7500 L 177.4311 121.8104 L 177.2980 121.8580 L 177.1609 121.8923 L 177.0211 121.9131 L 176.9618 121.9160 L 176.9600 121.9173 L 176.8388 121.9900 L 176.7111 122.0504 L 176.5780 122.0980 L 176.5508 122.1048 L 176.4800 122.1573 L 176.3588 122.2300 L 176.2311 122.2904 L 176.0980 122.3380 L 176.0708 122.3448 L 176.0000 122.3973 L 175.8788 122.4700 L 175.7511 122.5304 L 175.6180 122.5780 L 175.4809 122.6123 L 175.3411 122.6331 L 175.2818 122.6360 L 175.2800 122.6373 L 175.1588 122.7100 L 175.0311 122.7704 L 174.8980 122.8180 L 174.8708 122.8248 L 174.8000 122.8773 L 174.6788 122.9500 L 174.5511 123.0104 L 174.4180 123.0580 L 174.3908 123.0648 L 174.3200 123.1173 L 174.1988 123.1900 L 174.0711 123.2504 L 173.9380 123.2980 L 173.9108 123.3048 L 173.8400 123.3573 L 173.7188 123.4300 L 173.5911 123.4904 L 173.4580 123.5380 L 173.3209 123.5723 L 173.1811 123.5931 L 173.1218 123.5960 L 173.1200 123.5973 L 172.9988 123.6700 L 172.8711 123.7304 L 172.7380 123.7780 L 172.7108 123.7848 L 172.6400 123.8373 L 172.5188 123.9100 L 172.3911 123.9704 L 172.2580 124.0180 L 172.2308 124.0248 L 172.1600 124.0773 L 172.0388 124.1500 L 171.9111 124.2104 L 171.7780 124.2580 L 171.6409 124.2923 L 171.5011 124.3131 L 171.4418 124.3160 L 171.4400 124.3173 L 171.3188 124.3900 L 171.1911 124.4504 L 171.0580 124.4980 L 171.0308 124.5048 L 170.9600 124.5573 L 170.8388 124.6300 L 170.7111 124.6904 L 170.5780 124.7380 L 170.5508 124.7448 L 170.4800 124.7973 L 170.3588 124.8700 L 170.2311 124.9304 L 170.0980 124.9780 L 169.9609 125.0123 L 169.8211 125.0331 L 169.7618 125.0360 L 169.7600 125.0373 L 169.6388 125.1100 L 169.5111 125.1704 L 169.3780 125.2180 L 169.3508 125.2248 L 169.2800 125.2773 L 169.1588 125.3500 L 169.0311 125.4104 L 168.8980 125.4580 L 168.8708 125.4648 L 168.8000 125.5173 L 168.6788 125.5900 L 168.5511 125.6504 L 168.4180 125.6980 L 168.3908 125.7048 L 168.3200 125.7573 L 168.1988 125.8300 L 168.0711 125.8904 L 167.9380 125.9380 L 167.8009 125.9723 L 167.6611 125.9931 L 167.6018 125.9960 L 167.6000 125.9973 L 167.4788 126.0700 L 167.3511 126.1304 L 167.2180 126.1780 L 167.1908 126.1848 L 167.1200 126.2373 L 166.9988 126.3100 L 166.8711 126.3704 L 166.7380 126.4180 L 166.7108 126.4248 L 166.6400 126.4773 L 166.5188 126.5500 L 166.3911 126.6104 L 166.2580 126.6580 L 166.1209 126.6923 L 165.9811 126.7131 L 165.9218 126.7160 L 165.9200 126.7173 L 165.7988 126.7900 L 165.6711 126.8504 L 165.5380 126.8980 L 165.5108 126.9048 L 165.4400 126.9573 L 165.3188 127.0300 L 165.1911 127.0904 L 165.0580 127.1380 L 165.0308 127.1448 L 164.9600 127.1973 L 164.8388 127.2700 L 164.7111 127.3304 L 164.5780 127.3780 L 164.4409 127.4123 L 164.3011 127.4331 L 164.2418 127.4360 L 164.2400 127.4373 L 164.1188 127.5100 L 163.9911 127.5704 L 163.8580 127.6180 L 163.8308 127.6248 L 163.7600 127.6773 L 163.6388 127.7500 L 163.5111 127.8104 L 163.3780 127.8580 L 163.3508 127.8648 L 163.2800 127.9173 L 163.1588 127.9900 L 163.0311 128.0504 L 162.8980 128.0980 L 162.8708 128.1048 L 162.8000 128.1573 L 162.6788 128.2300 L 162.5511 128.2904 L 162.4180 128.3380 L 162.2809 128.3723 L 162.1411 128.3931 L 162.0818 128.3960 L 162.0800 128.3973 L 161.9588 128.4700 L 161.8311 128.5304 L 161.6980 128.5780 L 161.6708 128.5848 L 161.6000 128.6373 L 161.4788 128.7100 L 161.3511 128.7704 L 161.2180 128.8180 L 161.0809 128.8523 L 160.9411 128.8731 L 160.8818 128.8760 L 160.8800 128.8773 L 160.7588 128.9500 L 160.6311 129.0104 L 160.4980 129.0580 L 160.4708 129.0648 L 160.4000 129.1173 L 160.2788 129.1900 L 160.1511 129.2504 L 160.0180 129.2980 L 159.9908 129.3048 L 159.9200 129.3573 L 159.7988 129.4300 L 159.6711 129.4904 L 159.5380 129.5380 L 159.4009 129.5723 L 159.2611 129.5931 L 159.2018 129.5960 L 159.2000 129.5973 L 159.0788 129.6700 L 158.9511 129.7304 L 158.8180 129.7780 L 158.7908 129.7848 L 158.7200 129.8373 L 158.5988 129.9100 L 158.4711 129.9704 L 158.3380 130.0180 L 158.3108 130.0248 L 158.2400 130.0773 L 158.1188 130.1500 L 157.9911 130.2104 L 157.8580 130.2580 L 157.8308 130.2648 L 157.7600 130.3173 L 157.6388 130.3900 L 157.5111 130.4504 L 157.3780 130.4980 L 157.2409 130.5323 L 157.1011 130.5531 L 157.0418 130.5560 L 157.0400 130.5573 L 156.9188 130.6300 L 156.7911 130.6904 L 156.6580 130.7380 L 156.6308 130.7448 L 156.5600 130.7973 L 156.4388 130.8700 L 156.3111 130.9304 L 156.1780 130.9780 L 156.1508 130.9848 L 156.0800 131.0373 L 155.9588 131.1100 L 155.8311 131.1704 L 155.6980 131.2180 L 155.5609 131.2523 L 155.4211 131.2731 L 155.3618 131.2760 L 155.3600 131.2773 L 155.2388 131.3500 L 155.1111 131.4104 L 154.9780 131.4580 L 154.9508 131.4648 L 154.8800 131.5173 L 154.7588 131.5900 L 154.6311 131.6504 L 154.4980 131.6980 L 154.4708 131.7048 L 154.4000 131.7573 L 154.2788 131.8300 L 154.1511 131.8904 L 154.0180 131.9380 L 153.8809 131.9723 L 153.7411 131.9931 L 153.6818 131.9960 L 153.6800 131.9973 L 153.5588 132.0700 L 153.4311 132.1304 L 153.2980 132.1780 L 153.2708 132.1848 L 153.2000 132.2373 L 153.0788 132.3100 L 152.9511 132.3704 L 152.8180 132.4180 L 152.7908 132.4248 L 152.7200 132.4773 L 152.5988 132.5500 L 152.4711 132.6104 L 152.3380 132.6580 L 152.3108 132.6648 L 152.2400 132.7173 L 152.1188 132.7900 L 151.9911 132.8504 L 151.8580 132.8980 L 151.8308 132.9048 L 151.7600 132.9573 L 151.6388 133.0300 L 151.5111 133.0904 L 151.3780 133.1380 L 151.2409 133.1723 L 151.1011 133.1931 L 151.0418 133.1960 L 151.0400 133.1973 L 150.9188 133.2700 L 150.7911 133.3304 L 150.6580 133.3780 L 150.6308 133.3848 L 150.5600 133.4373 L 150.4388 133.5100 L 150.3111 133.5704 L 150.1780 133.6180 L 150.1508 133.6248 L 150.0800 133.6773 L 149.9588 133.7500 L 149.8311 133.8104 L 149.6980 133.8580 L 149.5609 133.8923 L 149.4211 133.9131 L 149.3618 133.9160 L 149.3600 133.9173 L 149.2388 133.9900 L 149.1111 134.0504 L 148.9780 134.0980 L 148.9508 134.1048 L 148.8800 134.1573 L 148.7588 134.2300 L 148.6311 134.2904 L 148.4980 134.3380 L 148.3609 134.3723 L 148.2211 134.3931 L 148.1618 134.3960 L 148.1600 134.3973 L 148.0388 134.4700 L 147.9111 134.5304 L 147.7780 134.5780 L 147.7508 134.5848 L 147.6800 134.6373 L 147.5588 134.7100 L 147.4311 134.7704 L 147.2980 134.8180 L 147.2708 134.8248 L 147.2000 134.8773 L 147.0788 134.9500 L 146.9511 135.0104 L 146.8180 135.0580 L 146.7908 135.0648 L 146.7200 135.1173 L 146.5988 135.1900 L 146.4711 135.2504 L 146.3380 135.2980 L 146.2009 135.3323 L 146.0611 135.3531 L 146.0018 135.3560 L 146.0000 135.3573 L 145.8788 135.4300 L 145.7511 135.4904 L 145.6180 135.5380 L 145.5908 135.5448 L 145.5200 135.5973 L 145.3988 135.6700 L 145.2711 135.7304 L 145.1380 135.7780 L 145.0009 135.8123 L 144.8611 135.8331 L 144.8018 135.8360 L 144.8000 135.8373 L 144.6788 135.9100 L 144.5511 135.9704 L 144.4180 136.0180 L 144.3908 136.0248 L 144.3200 136.0773 L 144.1988 136.1500 L 144.0711 136.2104 L 143.9380 136.2580 L 143.9108 136.2648 L 143.8400 136.3173 L 143.7188 136.3900 L 143.5911 136.4504 L 143.4580 136.4980 L 143.3209 136.5323 L 143.1811 136.5531 L 143.1218 136.5560 L 143.1200 136.5573 L 142.9988 136.6300 L 142.8711 136.6904 L 142.7380 136.7380 L 142.7108 136.7448 L 142.6400 136.7973 L 142.5188 136.8700 L 142.3911 136.9304 L 142.2580 136.9780 L 142.2308 136.9848 L 142.1600 137.0373 L 142.0388 137.1100 L 141.9111 137.1704 L 141.7780 137.2180 L 141.7508 137.2248 L 141.6800 137.2773 L 141.5588 137.3500 L 141.4311 137.4104 L 141.2980 137.4580 L 141.1609 137.4923 L 141.0211 137.5131 L 140.9618 137.5160 L 140.9600 137.5173 L 140.8388 137.5900 L 140.7111 137.6504 L 140.5780 137.6980 L 140.5508 137.7048 L 140.4800 137.7573 L 140.3588 137.8300 L 140.2311 137.8904 L 140.0980 137.9380 L 140.0708 137.9448 L 140.0000 137.9973 L 139.8788 138.0700 L 139.7511 138.1304 L 139.6180 138.1780 L 139.4809 138.2123 L 139.3411 138.2331 L 139.2818 138.2360 L 139.2800 138.2373 L 139.1588 138.3100 L 139.0311 138.3704 L 138.8980 138.4180 L 138.8708 138.4248 L 138.8000 138.4773 L 138.6788 138.5500 L 138.5511 138.6104 L 138.4180 138.6580 L 138.3908 138.6648 L 138.3200 138.7173 L 138.1988 138.7900 L 138.0711 138.8504 L 137.9380 138.8980 L 137.8009 138.9323 L 137.6611 138.9531 L 137.6018 138.9560 L 137.6000 138.9573 L 137.4788 139.0300 L 137.3511 139.0904 L 137.2180 139.1380 L 137.1908 139.1448 L 137.1200 139.1973 L 136.9988 139.2700 L 136.8711 139.3304 L 136.7380 139.3780 L 136.7108 139.3848 L 136.6400 139.4373 L 136.5188 139.5100 L 136.3911 139.5704 L 136.2580 139.6180 L 136.1209 139.6523 L 135.9811 139.6731 L 135.9218 139.6760 L 135.9200 139.6773 L 135.7988 139.7500 L 135.6711 139.8104 L 135.5380 139.8580 L 135.5108 139.8648 L 135.4400 139.9173 L 135.3188 139.9900 L 135.1911 140.0504 L 135.0580 140.0980 L 135.0308 140.1048 L 134.9600 140.1573 L 134.8388 140.2300 L 134.7111 140.2904 L 134.5780 140.3380 L 134.4409 140.3723 L 134.3011 140.3931 L 134.2418 140.3960 L 134.2400 140.3973 L 134.1188 140.4700 L 133.9911 140.5304 L 133.8580 140.5780 L 133.8308 140.5848 L 133.7600 140.6373 L 133.6388 140.7100 L 133.5111 140.7704 L 133.3780 140.8180 L 133.3508 140.8248 L 133.2800 140.8773 L 133.1588 140.9500 L 133.0311 141.0104 L 132.8980 141.0580 L 132.8708 141.0648 L 132.8000 141.1173 L 132.6788 141.1900 L 132.5511 141.2504 L 132.4180 141.2980 L 132.2809 141.3323 L 132.1411 141.3531 L 132.0818 141.3560 L 132.0800 141.3573 L 131.9588 141.4300 L 131.8311 141.4904 L 131.6980 141.5380 L 131.6708 141.5448 L 131.6000 141.5973 L 131.4788 141.6700 L 131.3511 141.7304 L 131.2180 141.7780 L 131.1908 141.7848 L 131.1200 141.8373 L 130.9988 141.9100 L 130.8711 141.9704 L 130.7380 142.0180 L 130.6009 142.0523 L 130.4611 142.0731 L 130.4018 142.0760 L 130.4000 142.0773 L 130.2788 142.1500 L 130.1511 142.2104 L 130.0180 142.2580 L 129.9908 142.2648 L 129.9200 142.3173 L 129.7988 142.3900 L 129.6711 142.4504 L 129.5380 142.4980 L 129.4009 142.5323 L 129.3412 142.5412 L 129.3323 142.6009 L 129.2980 142.7380 L 129.2504 142.8711 L 129.1900 142.9988 L 129.1173 143.1200 L 129.0331 143.2335 L 128.9382 143.3382 L 128.4582 143.8182 L 128.3535 143.9131 L 128.2400 143.9973 L 128.2355 144.0000 L 128.4000 144.0000 L 128.5411 144.0069 L 128.6809 144.0277 L 128.8180 144.0620 L 128.9511 144.1096 L 129.0788 144.1700 L 129.1955 144.2400 L 129.3600 144.2400 L 129.5011 144.2469 L 129.6409 144.2677 L 129.7780 144.3020 L 129.9111 144.3496 L 130.0388 144.4100 L 130.1555 144.4800 L 130.3200 144.4800 L 130.4611 144.4869 L 130.6009 144.5077 L 130.7380 144.5420 L 130.8711 144.5896 L 130.9988 144.6500 L 131.1155 144.7200 L 131.2800 144.7200 L 131.4211 144.7269 L 131.5609 144.7477 L 131.6980 144.7820 L 131.8311 144.8296 L 131.9588 144.8900 L 132.0755 144.9600 L 132.2400 144.9600 L 132.3811 144.9669 L 132.5209 144.9877 L 132.6580 145.0220 L 132.7911 145.0696 L 132.9188 145.1300 L 133.0355 145.2000 L 133.2000 145.2000 L 133.3411 145.2069 L 133.4809 145.2277 L 133.6180 145.2620 L 133.7511 145.3096 L 133.8788 145.3700 L 134.0000 145.4427 L 134.0018 145.4440 L 134.0611 145.4469 L 134.2009 145.4677 L 134.3380 145.5020 L 134.4711 145.5496 L 134.5988 145.6100 L 134.7155 145.6800 L 134.8800 145.6800 L 135.0211 145.6869 L 135.1609 145.7077 L 135.2980 145.7420 L 135.4311 145.7896 L 135.5588 145.8500 L 135.6755 145.9200 L 136.0800 145.9200 L 136.2211 145.9269 L 136.3609 145.9477 L 136.4980 145.9820 L 136.6311 146.0296 L 136.7588 146.0900 L 136.8755 146.1600 L 137.2800 146.1600 L 137.4211 146.1669 L 137.5609 146.1877 L 137.6980 146.2220 L 137.8311 146.2696 L 137.9588 146.3300 L 138.0755 146.4000 L 139.2000 146.4000 L 139.3411 146.4069 L 139.4809 146.4277 L 139.6180 146.4620 L 139.7511 146.5096 L 139.8788 146.5700 L 139.9955 146.6400 L 141.3600 146.6400 L 141.5011 146.6469 L 141.6409 146.6677 L 141.7780 146.7020 L 141.9111 146.7496 L 142.0388 146.8100 L 142.1555 146.8800 L 143.0400 146.8800 L 143.1811 146.8869 L 143.3209 146.9077 L 143.4580 146.9420 L 143.5911 146.9896 L 143.7188 147.0500 L 143.8355 147.1200 L 144.9600 147.1200 L 145.1011 147.1269 L 145.2409 147.1477 L 145.3780 147.1820 L 145.5111 147.2296 L 145.6388 147.2900 L 145.7600 147.3627 L 145.7618 147.3640 L 145.8211 147.3669 L 145.9609 147.3877 L 146.0980 147.4220 L 146.2311 147.4696 L 146.3588 147.5300 L 146.4755 147.6000 L 146.6400 147.6000 L 146.7811 147.6069 L 146.9209 147.6277 L 147.0580 147.6620 L 147.1911 147.7096 L 147.3188 147.7700 L 147.4355 147.8400 L 147.6000 147.8400 L 147.7411 147.8469 L 147.8809 147.8677 L 148.0180 147.9020 L 148.1511 147.9496 L 148.2788 148.0100 L 148.3955 148.0800 L 148.8000 148.0800 L 148.9411 148.0869 L 149.0809 148.1077 L 149.2180 148.1420 L 149.3511 148.1896 L 149.4788 148.2500 L 149.5955 148.3200 L 150.0000 148.3200 L 150.1411 148.3269 L 150.2809 148.3477 L 150.4180 148.3820 L 150.5511 148.4296 L 150.6788 148.4900 L 150.7955 148.5600 L 151.2000 148.5600 L 151.3411 148.5669 L 151.4809 148.5877 L 151.6180 148.6220 L 151.7511 148.6696 L 151.8788 148.7300 L 151.9955 148.8000 L 152.4000 148.8000 L 152.5411 148.8069 L 152.6809 148.8277 L 152.8180 148.8620 L 152.9511 148.9096 L 153.0788 148.9700 L 153.1955 149.0400 L 153.8400 149.0400 L 153.9811 149.0469 L 154.1209 149.0677 L 154.2580 149.1020 L 154.3911 149.1496 L 154.5188 149.2100 L 154.6355 149.2800 L 154.8000 149.2800 L 154.9411 149.2869 L 155.0809 149.3077 L 155.2180 149.3420 L 155.3511 149.3896 L 155.4788 149.4500 L 155.5955 149.5200 L 156.2400 149.5200 L 156.3811 149.5269 L 156.5209 149.5477 L 156.6580 149.5820 L 156.7911 149.6296 L 156.9188 149.6900 L 157.0355 149.7600 L 157.6800 149.7600 L 157.8211 149.7669 L 157.9609 149.7877 L 158.0980 149.8220 L 158.2311 149.8696 L 158.3588 149.9300 L 158.4755 150.0000 L 159.1200 150.0000 L 159.2611 150.0069 L 159.4009 150.0277 L 159.5380 150.0620 L 159.6711 150.1096 L 159.7988 150.1700 L 159.9155 150.2400 L 160.5600 150.2400 L 160.7011 150.2469 L 160.8409 150.2677 L 160.9780 150.3020 L 161.1111 150.3496 L 161.2388 150.4100 L 161.3555 150.4800 L 162.0000 150.4800 L 162.1411 150.4869 L 162.2809 150.5077 L 162.4180 150.5420 L 162.5511 150.5896 L 162.6788 150.6500 L 162.7955 150.7200 L 163.6800 150.7200 L 163.8211 150.7269 L 163.9609 150.7477 L 164.0980 150.7820 L 164.2311 150.8296 L 164.3588 150.8900 L 164.4755 150.9600 L 165.3600 150.9600 L 165.5011 150.9669 L 165.6409 150.9877 L 165.7780 151.0220 L 165.9111 151.0696 L 166.0388 151.1300 L 166.1600 151.2027 L 166.2308 151.2552 L 166.2580 151.2620 L 166.3911 151.3096 L 166.5188 151.3700 L 166.6400 151.4427 L 166.6418 151.4440 L 166.7011 151.4469 L 166.8409 151.4677 L 166.9780 151.5020 L 167.1111 151.5496 L 167.2388 151.6100 L 167.3600 151.6827 L 167.4308 151.7352 L 167.4580 151.7420 L 167.5911 151.7896 L 167.7188 151.8500 L 167.8355 151.9200 L 168.0000 151.9200 L 168.1411 151.9269 L 168.2809 151.9477 L 168.4180 151.9820 L 168.5511 152.0296 L 168.6788 152.0900 L 168.8000 152.1627 L 168.8708 152.2152 L 168.8980 152.2220 L 169.0311 152.2696 L 169.1588 152.3300 L 169.2755 152.4000 L 169.6800 152.4000 L 169.8211 152.4069 L 169.9609 152.4277 L 170.0980 152.4620 L 170.2311 152.5096 L 170.3588 152.5700 L 170.4800 152.6427 L 170.4818 152.6440 L 170.5411 152.6469 L 170.6809 152.6677 L 170.8180 152.7020 L 170.9511 152.7496 L 171.0788 152.8100 L 171.1955 152.8800 L 171.8400 152.8800 L 171.9811 152.8869 L 172.1209 152.9077 L 172.2580 152.9420 L 172.3911 152.9896 L 172.5188 153.0500 L 172.6355 153.1200 L 173.2800 153.1200 L 173.4211 153.1269 L 173.5609 153.1477 L 173.6980 153.1820 L 173.8311 153.2296 L 173.9588 153.2900 L 174.0755 153.3600 L 174.2400 153.3600 L 174.3811 153.3669 L 174.5209 153.3877 L 174.6580 153.4220 L 174.7911 153.4696 L 174.9188 153.5300 L 175.0355 153.6000 L 175.6800 153.6000 L 175.8211 153.6069 L 175.9609 153.6277 L 176.0980 153.6620 L 176.2311 153.7096 L 176.3588 153.7700 L 176.4755 153.8400 L 177.0445 153.8400 L 177.1612 153.7700 L 177.2889 153.7096 L 177.4220 153.6620 L 177.5591 153.6277 L 177.6989 153.6069 L 177.8400 153.6000 L 177.9811 153.6069 L 178.1209 153.6277 L 178.2000 153.6475 L 178.2791 153.6277 L 178.4189 153.6069 L 178.5600 153.6000 L 179.0400 153.6000 L 179.1811 153.6069 L 179.3209 153.6277 L 179.4580 153.6620 L 179.5911 153.7096 L 179.7188 153.7700 L 179.8400 153.8427 L 179.9535 153.9269 L 180.0582 154.0218 L 180.2982 154.2618 L 180.3931 154.3665 L 180.4773 154.4800 L 180.5500 154.6012 L 180.6104 154.7289 L 180.6580 154.8620 L 180.6923 154.9991 L 180.7131 155.1389 L 180.7200 155.2800 L 180.7200 205.2000 L 180.7131 205.3411 L 180.6923 205.4809 L 180.6580 205.6180 L 180.6104 205.7511 L 180.5500 205.8788 L 180.4773 206.0000 L 180.3931 206.1135 L 180.2982 206.2182 L 179.8182 206.6982 L 179.7135 206.7931 L 179.6000 206.8773 L 179.4788 206.9500 L 179.3511 207.0104 L 179.2180 207.0580 L 179.0809 207.0923 L 178.9411 207.1131 L 178.8000 207.1200 L 10.0800 207.1200 L 9.9389 207.1131 L 9.7991 207.0923 L 9.6620 207.0580 L 9.5289 207.0104 L 9.4012 206.9500 L 9.2800 206.8773 L 9.1665 206.7931 L 9.0618 206.6982 L 8.5818 206.2182 L 8.4869 206.1135 L 8.4027 206.0000 L 8.3300 205.8788 L 8.2696 205.7511 L 8.2220 205.6180 L 8.1877 205.4809 L 8.1669 205.3411 L 8.1600 205.2000 L 8.1600 168.0000 L 8.1669 167.8589 L 8.1877 167.7191 L 8.2220 167.5820 L 8.2696 167.4489 L 8.3300 167.3212 L 8.4027 167.2000 L 8.4552 167.1292 L 8.4620 167.1020 L 8.5096 166.9689 L 8.5700 166.8412 L 8.6427 166.7200 L 8.7269 166.6065 L 8.8218 166.5018 L 9.3018 166.0218 L 9.4065 165.9269 L 9.5200 165.8427 L 9.6412 165.7700 L 9.7689 165.7096 L 9.9013 165.6623 L 10.9818 164.5818 L 11.0865 164.4869 L 11.1097 164.4697 L 11.1269 164.4465 L 11.2218 164.3418 L 11.4618 164.1018 L 11.5665 164.0069 L 11.6800 163.9227 L 11.8012 163.8500 L 11.9289 163.7896 L 12.0613 163.7423 L 12.0623 163.7413 L 12.1096 163.6089 L 12.1700 163.4812 L 12.2427 163.3600 L 12.3269 163.2465 L 12.4218 163.1418 L 13.5023 162.0613 L 13.5496 161.9289 L 13.6100 161.8012 L 13.6827 161.6800 L 13.7669 161.5665 L 13.8618 161.4618 L 14.4623 160.8613 L 14.5096 160.7289 L 14.5700 160.6012 L 14.6427 160.4800 L 14.7269 160.3665 L 14.8218 160.2618 L 15.1823 159.9013 L 15.2296 159.7689 L 15.2900 159.6412 L 15.3627 159.5200 L 15.4469 159.4065 L 15.5418 159.3018 L 15.6623 159.1813 L 15.7096 159.0489 L 15.7700 158.9212 L 15.8427 158.8000 L 15.9269 158.6865 L 16.0218 158.5818 L 16.3823 158.2213 L 16.4296 158.0889 L 16.4900 157.9612 L 16.5627 157.8400 L 16.6469 157.7265 L 16.7418 157.6218 L 17.1023 157.2613 L 17.1496 157.1289 L 17.2100 157.0012 L 17.2827 156.8800 L 17.3669 156.7665 L 17.4618 156.6618 L 19.0223 155.1013 L 19.0696 154.9689 L 19.1300 154.8412 L 19.2027 154.7200 L 19.2869 154.6065 L 19.3818 154.5018 L 19.6218 154.2618 L 19.7265 154.1669 L 19.7497 154.1497 L 19.7669 154.1265 L 19.8618 154.0218 L 20.3418 153.5418 L 20.4465 153.4469 L 20.4697 153.4297 L 20.4869 153.4065 L 20.5818 153.3018 L 23.3423 150.5413 L 23.3896 150.4089 L 23.4500 150.2812 L 23.5227 150.1600 L 23.6069 150.0465 L 23.7018 149.9418 L 23.9418 149.7018 L 24.0465 149.6069 L 24.1600 149.5227 L 24.2812 149.4500 L 24.4089 149.3896 L 24.5413 149.3423 L 24.5423 149.3413 L 24.5896 149.2089 L 24.6500 149.0812 L 24.7227 148.9600 L 24.8069 148.8465 L 24.9018 148.7418 L 25.1418 148.5018 L 25.2465 148.4069 L 25.2697 148.3897 L 25.2869 148.3665 L 25.3818 148.2618 L 25.8618 147.7818 L 25.9665 147.6869 L 25.9897 147.6697 L 26.0069 147.6465 L 26.1018 147.5418 L 26.3418 147.3018 L 26.4465 147.2069 L 26.4697 147.1897 L 26.4869 147.1665 L 26.5818 147.0618 L 26.8218 146.8218 L 26.9265 146.7269 L 27.0400 146.6427 L 27.1612 146.5700 L 27.2889 146.5096 L 27.4213 146.4623 L 28.5018 145.3818 L 28.6065 145.2869 L 28.6297 145.2697 L 28.6469 145.2465 L 28.7418 145.1418 L 28.9818 144.9018 L 29.0865 144.8069 L 29.2000 144.7227 L 29.3212 144.6500 L 29.4489 144.5896 L 29.5813 144.5423 L 31.3818 142.7418 L 31.4865 142.6469 L 31.6000 142.5627 L 31.7212 142.4900 L 31.8489 142.4296 L 31.9813 142.3823 L 33.0618 141.3018 L 33.1665 141.2069 L 33.2800 141.1227 L 33.4012 141.0500 L 33.5289 140.9896 L 33.6613 140.9423 L 34.0218 140.5818 L 34.1265 140.4869 L 34.2400 140.4027 L 34.3612 140.3300 L 34.4889 140.2696 L 34.6213 140.2223 L 34.9818 139.8618 L 35.0865 139.7669 L 35.2000 139.6827 L 35.3212 139.6100 L 35.4489 139.5496 L 35.5813 139.5023 L 35.9418 139.1418 L 36.0465 139.0469 L 36.1600 138.9627 L 36.2812 138.8900 L 36.4089 138.8296 L 36.5413 138.7823 L 36.6618 138.6618 L 36.7665 138.5669 L 36.8800 138.4827 L 37.0012 138.4100 L 37.1289 138.3496 L 37.2613 138.3023 L 37.3818 138.1818 L 37.4865 138.0869 L 37.6000 138.0027 L 37.7212 137.9300 L 37.8489 137.8696 L 37.9813 137.8223 L 38.3418 137.4618 L 38.4465 137.3669 L 38.5600 137.2827 L 38.6812 137.2100 L 38.8089 137.1496 L 38.9413 137.1023 L 39.0618 136.9818 L 39.1665 136.8869 L 39.2800 136.8027 L 39.4012 136.7300 L 39.5289 136.6696 L 39.6613 136.6223 L 40.0218 136.2618 L 40.1265 136.1669 L 40.2400 136.0827 L 40.3612 136.0100 L 40.4889 135.9496 L 40.6213 135.9023 L 40.7418 135.7818 L 40.8465 135.6869 L 40.9600 135.6027 L 41.0812 135.5300 L 41.2089 135.4696 L 41.3413 135.4223 L 41.4618 135.3018 L 41.5665 135.2069 L 41.6800 135.1227 L 41.8012 135.0500 L 41.9289 134.9896 L 42.0613 134.9423 L 42.6618 134.3418 L 42.7665 134.2469 L 42.8800 134.1627 L 43.0012 134.0900 L 43.1289 134.0296 L 43.2613 133.9823 L 43.8618 133.3818 L 43.9665 133.2869 L 44.0800 133.2027 L 44.2012 133.1300 L 44.3289 133.0696 L 44.4613 133.0223 L 45.0618 132.4218 L 45.1665 132.3269 L 45.2800 132.2427 L 45.4012 132.1700 L 45.5289 132.1096 L 45.6613 132.0623 L 46.2618 131.4618 L 46.3665 131.3669 L 46.4800 131.2827 L 46.6012 131.2100 L 46.7289 131.1496 L 46.8613 131.1023 L 47.4618 130.5018 L 47.5665 130.4069 L 47.6800 130.3227 L 47.8012 130.2500 L 47.9289 130.1896 L 48.0613 130.1423 L 48.4218 129.7818 L 48.5265 129.6869 L 48.6400 129.6027 L 48.7612 129.5300 L 48.8889 129.4696 L 49.0213 129.4223 L 49.6218 128.8218 L 49.7265 128.7269 L 49.8400 128.6427 L 49.9612 128.5700 L 50.0889 128.5096 L 50.2213 128.4623 L 50.5818 128.1018 L 50.6865 128.0069 L 50.8000 127.9227 L 50.9212 127.8500 L 51.0489 127.7896 L 51.1813 127.7423 L 51.3018 127.6218 L 51.4065 127.5269 L 51.5200 127.4427 L 51.6412 127.3700 L 51.7689 127.3096 L 51.9013 127.2623 L 52.0218 127.1418 L 52.1265 127.0469 L 52.2400 126.9627 L 52.3612 126.8900 L 52.4889 126.8296 L 52.6213 126.7823 L 52.7418 126.6618 L 52.8465 126.5669 L 52.9600 126.4827 L 53.0812 126.4100 L 53.2089 126.3496 L 53.3420 126.3020 L 53.4791 126.2677 L 53.6189 126.2469 L 53.6375 126.2460 L 53.7018 126.1818 L 53.8065 126.0869 L 53.9200 126.0027 L 54.0412 125.9300 L 54.1689 125.8696 L 54.3020 125.8220 L 54.3292 125.8152 L 54.4000 125.7627 L 54.5212 125.6900 L 54.6489 125.6296 L 54.7820 125.5820 L 54.8092 125.5752 L 54.8800 125.5227 L 55.0012 125.4500 L 55.1289 125.3896 L 55.2620 125.3420 L 55.2892 125.3352 L 55.3600 125.2827 L 55.4812 125.2100 L 55.6089 125.1496 L 55.7413 125.1023 L 55.8618 124.9818 L 55.9665 124.8869 L 56.0800 124.8027 L 56.2012 124.7300 L 56.3289 124.6696 L 56.4613 124.6223 L 57.0618 124.0218 L 57.1665 123.9269 L 57.2800 123.8427 L 57.4012 123.7700 L 57.5289 123.7096 L 57.6613 123.6623 L 58.2618 123.0618 L 58.3665 122.9669 L 58.4800 122.8827 L 58.6012 122.8100 L 58.7289 122.7496 L 58.8613 122.7023 L 60.4218 121.1418 L 60.5265 121.0469 L 60.6400 120.9627 L 60.7612 120.8900 L 60.8889 120.8296 L 61.0213 120.7823 L 63.6623 118.1413 L 63.6842 118.0800 L 63.6755 118.0800 L 63.5588 118.1500 L 63.4311 118.2104 L 63.2980 118.2580 L 63.1609 118.2923 L 63.0211 118.3131 L 62.8800 118.3200 L 62.4755 118.3200 L 62.3588 118.3900 L 62.2311 118.4504 L 62.0980 118.4980 L 61.9609 118.5323 L 61.8211 118.5531 L 61.6800 118.5600 L 61.2755 118.5600 L 61.1588 118.6300 L 61.0311 118.6904 L 60.8980 118.7380 L 60.7609 118.7723 L 60.6211 118.7931 L 60.4800 118.8000 L 59.8355 118.8000 L 59.7188 118.8700 L 59.5911 118.9304 L 59.4580 118.9780 L 59.3209 119.0123 L 59.1811 119.0331 L 59.0400 119.0400 L 58.6355 119.0400 L 58.5188 119.1100 L 58.3911 119.1704 L 58.2580 119.2180 L 58.1209 119.2523 L 57.9811 119.2731 L 57.8400 119.2800 L 57.1955 119.2800 L 57.0788 119.3500 L 56.9511 119.4104 L 56.8180 119.4580 L 56.6809 119.4923 L 56.5411 119.5131 L 56.4000 119.5200 L 55.7555 119.5200 L 55.6388 119.5900 L 55.5111 119.6504 L 55.3780 119.6980 L 55.2409 119.7323 L 55.1011 119.7531 L 54.9600 119.7600 L 54.7955 119.7600 L 54.6788 119.8300 L 54.5511 119.8904 L 54.4180 119.9380 L 54.2809 119.9723 L 54.1411 119.9931 L 54.0000 120.0000 L 52.6355 120.0000 L 52.5188 120.0700 L 52.3911 120.1304 L 52.2580 120.1780 L 52.1209 120.2123 L 51.9811 120.2331 L 51.8400 120.2400 L 49.7555 120.2400 L 49.6388 120.3100 L 49.5111 120.3704 L 49.3780 120.4180 L 49.2409 120.4523 L 49.1011 120.4731 L 48.9600 120.4800 L 48.0755 120.4800 L 47.9588 120.5500 L 47.8311 120.6104 L 47.6980 120.6580 L 47.5609 120.6923 L 47.4211 120.7131 L 47.2800 120.7200 L 46.8755 120.7200 L 46.7588 120.7900 L 46.6311 120.8504 L 46.4980 120.8980 L 46.3609 120.9323 L 46.2211 120.9531 L 46.0800 120.9600 L 45.9155 120.9600 L 45.7988 121.0300 L 45.6711 121.0904 L 45.5380 121.1380 L 45.5108 121.1448 L 45.4400 121.1973 L 45.3188 121.2700 L 45.1911 121.3304 L 45.0580 121.3780 L 44.9209 121.4123 L 44.7811 121.4331 L 44.7218 121.4360 L 44.7200 121.4373 L 44.5988 121.5100 L 44.4711 121.5704 L 44.3380 121.6180 L 44.2009 121.6523 L 44.0611 121.6731 L 43.9200 121.6800 L 43.7555 121.6800 L 43.6388 121.7500 L 43.5111 121.8104 L 43.3780 121.8580 L 43.2409 121.8923 L 43.1011 121.9131 L 43.0418 121.9160 L 43.0400 121.9173 L 42.9188 121.9900 L 42.7911 122.0504 L 42.6580 122.0980 L 42.6308 122.1048 L 42.5600 122.1573 L 42.4388 122.2300 L 42.3111 122.2904 L 42.1780 122.3380 L 42.0409 122.3723 L 41.9011 122.3931 L 41.8418 122.3960 L 41.8400 122.3973 L 41.7188 122.4700 L 41.5911 122.5304 L 41.4580 122.5780 L 41.3209 122.6123 L 41.1811 122.6331 L 41.1218 122.6360 L 41.1200 122.6373 L 40.9988 122.7100 L 40.8711 122.7704 L 40.7380 122.8180 L 40.6009 122.8523 L 40.4611 122.8731 L 40.3200 122.8800 L 40.1555 122.8800 L 40.0388 122.9500 L 39.9111 123.0104 L 39.7780 123.0580 L 39.6409 123.0923 L 39.5011 123.1131 L 39.4418 123.1160 L 39.4400 123.1173 L 39.3188 123.1900 L 39.1911 123.2504 L 39.0580 123.2980 L 38.9209 123.3323 L 38.7811 123.3531 L 38.7218 123.3560 L 38.7200 123.3573 L 38.5988 123.4300 L 38.4711 123.4904 L 38.3380 123.5380 L 38.2009 123.5723 L 38.0611 123.5931 L 38.0018 123.5960 L 38.0000 123.5973 L 37.8788 123.6700 L 37.7511 123.7304 L 37.6180 123.7780 L 37.4809 123.8123 L 37.3411 123.8331 L 37.2818 123.8360 L 37.2800 123.8373 L 37.1588 123.9100 L 37.0311 123.9704 L 36.8980 124.0180 L 36.7609 124.0523 L 36.6211 124.0731 L 36.4800 124.0800 L 36.3155 124.0800 L 36.1988 124.1500 L 36.0711 124.2104 L 35.9380 124.2580 L 35.8009 124.2923 L 35.6611 124.3131 L 35.6018 124.3160 L 35.6000 124.3173 L 35.4788 124.3900 L 35.3511 124.4504 L 35.2180 124.4980 L 35.0809 124.5323 L 34.9411 124.5531 L 34.8818 124.5560 L 34.8800 124.5573 L 34.7588 124.6300 L 34.6311 124.6904 L 34.4980 124.7380 L 34.3609 124.7723 L 34.2211 124.7931 L 34.1618 124.7960 L 34.1600 124.7973 L 34.0388 124.8700 L 33.9111 124.9304 L 33.7780 124.9780 L 33.6409 125.0123 L 33.5011 125.0331 L 33.3600 125.0400 L 33.1955 125.0400 L 33.0788 125.1100 L 32.9511 125.1704 L 32.8180 125.2180 L 32.6809 125.2523 L 32.5411 125.2731 L 32.4818 125.2760 L 32.4800 125.2773 L 32.3588 125.3500 L 32.2311 125.4104 L 32.0980 125.4580 L 31.9609 125.4923 L 31.8211 125.5131 L 31.7618 125.5160 L 31.7600 125.5173 L 31.6388 125.5900 L 31.5111 125.6504 L 31.3780 125.6980 L 31.3508 125.7048 L 31.2800 125.7573 L 31.1588 125.8300 L 31.0311 125.8904 L 30.8980 125.9380 L 30.7609 125.9723 L 30.6211 125.9931 L 30.4800 126.0000 L 30.0755 126.0000 L 29.9588 126.0700 L 29.8311 126.1304 L 29.6980 126.1780 L 29.5609 126.2123 L 29.4211 126.2331 L 29.2800 126.2400 L 28.6355 126.2400 L 28.5188 126.3100 L 28.3911 126.3704 L 28.2580 126.4180 L 28.1209 126.4523 L 27.9811 126.4731 L 27.8400 126.4800 L 27.6755 126.4800 L 27.5588 126.5500 L 27.4311 126.6104 L 27.2980 126.6580 L 27.1609 126.6923 L 27.0211 126.7131 L 26.8800 126.7200 L 26.4755 126.7200 L 26.3588 126.7900 L 26.2311 126.8504 L 26.0980 126.8980 L 25.9609 126.9323 L 25.8211 126.9531 L 25.6800 126.9600 L 9.8400 126.9600 L 9.6989 126.9531 L 9.5591 126.9323 L 9.4220 126.8980 L 9.2889 126.8504 L 9.1612 126.7900 L 9.0400 126.7173 L 8.9265 126.6331 L 8.8218 126.5382 L 8.5818 126.2982 L 8.4869 126.1935 L 8.4027 126.0800 L 8.3300 125.9588 L 8.2696 125.8311 L 8.2220 125.6980 L 8.1877 125.5609 L 8.1669 125.4211 L 8.1600 125.2800 L 8.1600 10.0800 Z" fill="none" stroke="black" stroke-width="0.5" /></svg>