<?xml version="1.0" encoding="utf-8" ?>
<svg baseProfile="full" height="261" version="1.1" viewBox="0 0 189 261" width="189" xmlns="http://www.w3.org/2000/svg" xmlns:ev="http://www.w3.org/2001/xml-events" xmlns:xlink="http://www.w3.org/1999/xlink"><defs /><path d="M 0.0000 0.2400 L 0.0000 260.6400 L 188.6400 260.6400 L 188.6400 0.2400 L 0.0000 0.2400 Z M 10.0800 9.8400 L 178.8000 9.8400 L 179.2800 10.3200 L 179.2800 119.2800 L 179.0400 119.5200 L 178.8000 119.5200 L 178.5600 119.7600 L 178.3200 119.7600 L 178.0800 120.0000 L 177.8400 120.0000 L 177.6000 120.2400 L 177.3600 120.2400 L 177.1200 120.4800 L 176.8800 120.4800 L 176.6400 120.7200 L 176.4000 120.7200 L 176.1600 120.9600 L 175.6800 120.9600 L 175.4400 121.2000 L 175.2000 121.2000 L 174.9600 121.4400 L 174.7200 121.4400 L 174.4800 121.6800 L 174.2400 121.6800 L 174.0000 121.9200 L 173.7600 121.9200 L 173.5200 122.1600 L 173.0400 122.1600 L 172.8000 122.4000 L 172.5600 122.4000 L 172.3200 122.6400 L 172.0800 122.6400 L 171.8400 122.8800 L 171.3600 122.8800 L 171.1200 123.1200 L 170.8800 123.1200 L 170.6400 123.3600 L 170.1600 123.3600 L 169.9200 123.6000 L 169.6800 123.6000 L 169.4400 123.8400 L 169.2000 123.8400 L 168.9600 124.0800 L 168.7200 124.0800 L 168.4800 124.3200 L 168.0000 124.3200 L 167.7600 124.5600 L 167.5200 124.5600 L 167.2800 124.8000 L 167.0400 124.8000 L 166.8000 125.0400 L 166.3200 125.0400 L 166.0800 125.2800 L 165.8400 125.2800 L 165.6000 125.5200 L 165.3600 125.5200 L 165.1200 125.7600 L 164.6400 125.7600 L 164.4000 126.0000 L 164.1600 126.0000 L 163.9200 126.2400 L 163.6800 126.2400 L 163.4400 126.4800 L 163.2000 126.4800 L 162.9600 126.7200 L 162.4800 126.7200 L 162.2400 126.9600 L 162.0000 126.9600 L 161.7600 127.2000 L 161.5200 127.2000 L 161.2800 127.4400 L 160.8000 127.4400 L 160.5600 127.6800 L 160.3200 127.6800 L 160.0800 127.9200 L 159.8400 127.9200 L 159.6000 128.1600 L 159.1200 128.1600 L 158.8800 128.4000 L 158.6400 128.4000 L 158.4000 128.6400 L 158.1600 128.6400 L 157.9200 128.8800 L 157.4400 128.8800 L 157.2000 129.1200 L 156.9600 129.1200 L 156.7200 129.3600 L 156.2400 129.3600 L 156.0000 129.6000 L 155.7600 129.6000 L 155.5200 129.8400 L 155.2800 129.8400 L 155.0400 130.0800 L 154.8000 130.0800 L 154.5600 130.3200 L 154.0800 130.3200 L 153.8400 130.5600 L 153.6000 130.5600 L 153.3600 130.8000 L 153.1200 130.8000 L 152.8800 131.0400 L 152.6400 131.0400 L 152.4000 131.2800 L 151.9200 131.2800 L 151.6800 131.5200 L 151.4400 131.5200 L 151.2000 131.7600 L 150.9600 131.7600 L 150.7200 132.0000 L 150.4800 132.0000 L 150.2400 132.2400 L 149.7600 132.2400 L 149.5200 132.4800 L 149.2800 132.4800 L 149.0400 132.7200 L 148.5600 132.7200 L 148.3200 132.9600 L 148.0800 132.9600 L 147.8400 133.2000 L 147.6000 133.2000 L 147.3600 133.4400 L 147.1200 133.4400 L 146.8800 133.6800 L 146.4000 133.6800 L 146.1600 133.9200 L 145.9200 133.9200 L 145.6800 134.1600 L 145.4400 134.1600 L 145.2000 134.4000 L 144.7200 134.4000 L 144.4800 134.6400 L 144.2400 134.6400 L 144.0000 134.8800 L 143.7600 134.8800 L 143.5200 135.1200 L 143.0400 135.1200 L 142.8000 135.3600 L 142.5600 135.3600 L 142.3200 135.6000 L 142.0800 135.6000 L 141.8400 135.8400 L 141.3600 135.8400 L 141.1200 136.0800 L 140.8800 136.0800 L 140.6400 136.3200 L 140.4000 136.3200 L 140.1600 136.5600 L 139.6800 136.5600 L 139.4400 136.8000 L 139.2000 136.8000 L 138.9600 137.0400 L 138.7200 137.0400 L 138.4800 137.2800 L 138.2400 137.2800 L 138.0000 137.5200 L 137.7600 137.5200 L 137.5200 137.7600 L 137.0400 137.7600 L 136.8000 138.0000 L 136.5600 138.0000 L 136.3200 138.2400 L 135.8400 138.2400 L 135.6000 138.4800 L 135.3600 138.4800 L 135.1200 138.7200 L 134.6400 138.7200 L 134.4000 138.9600 L 134.1600 138.9600 L 133.9200 139.2000 L 133.6800 139.2000 L 133.4400 139.4400 L 133.2000 139.4400 L 132.9600 139.6800 L 132.7200 139.6800 L 132.4800 139.9200 L 132.0000 139.9200 L 131.7600 140.1600 L 131.5200 140.1600 L 131.2800 140.4000 L 131.0400 140.4000 L 130.8000 140.6400 L 130.3200 140.6400 L 130.0800 140.8800 L 129.8400 140.8800 L 129.6000 141.1200 L 129.3600 141.1200 L 129.1200 141.3600 L 128.6400 141.3600 L 128.1600 141.8400 L 127.9200 141.8400 L 127.9200 142.5600 L 127.4400 143.0400 L 126.9600 143.0400 L 126.7200 143.2800 L 126.4800 143.2800 L 126.2400 143.5200 L 126.2400 143.7600 L 126.0000 144.0000 L 126.0000 144.4800 L 126.2400 144.7200 L 126.2400 144.9600 L 126.4800 145.2000 L 126.7200 145.2000 L 126.9600 145.4400 L 127.4400 145.4400 L 127.6800 145.6800 L 128.6400 145.6800 L 128.8800 145.9200 L 129.6000 145.9200 L 129.8400 146.1600 L 130.5600 146.1600 L 130.8000 146.4000 L 131.5200 146.4000 L 131.7600 146.6400 L 132.2400 146.6400 L 132.4800 146.8800 L 133.2000 146.8800 L 133.4400 147.1200 L 134.1600 147.1200 L 134.4000 147.3600 L 135.1200 147.3600 L 135.3600 147.6000 L 136.3200 147.6000 L 136.5600 147.8400 L 137.5200 147.8400 L 137.7600 148.0800 L 139.4400 148.0800 L 139.6800 148.3200 L 141.6000 148.3200 L 141.8400 148.5600 L 143.5200 148.5600 L 143.7600 148.8000 L 144.9600 148.8000 L 145.2000 149.0400 L 145.9200 149.0400 L 146.1600 149.2800 L 146.8800 149.2800 L 147.1200 149.5200 L 147.8400 149.5200 L 148.0800 149.7600 L 149.0400 149.7600 L 149.2800 150.0000 L 150.2400 150.0000 L 150.4800 150.2400 L 151.4400 150.2400 L 151.6800 150.4800 L 152.6400 150.4800 L 152.8800 150.7200 L 153.8400 150.7200 L 154.0800 150.9600 L 155.0400 150.9600 L 155.2800 151.2000 L 156.4800 151.2000 L 156.7200 151.4400 L 157.6800 151.4400 L 157.9200 151.6800 L 159.3600 151.6800 L 159.6000 151.9200 L 160.5600 151.9200 L 160.8000 152.1600 L 162.2400 152.1600 L 162.4800 152.4000 L 163.9200 152.4000 L 164.1600 152.6400 L 165.6000 152.6400 L 166.0800 153.1200 L 166.8000 153.1200 L 167.0400 153.3600 L 167.2800 153.3600 L 167.5200 153.6000 L 168.0000 153.6000 L 168.2400 153.8400 L 168.7200 153.8400 L 168.9600 154.0800 L 169.6800 154.0800 L 169.9200 154.3200 L 170.6400 154.3200 L 170.8800 154.5600 L 171.8400 154.5600 L 172.0800 154.8000 L 173.5200 154.8000 L 173.7600 155.0400 L 174.4800 155.0400 L 174.7200 155.2800 L 175.9200 155.2800 L 176.1600 155.5200 L 177.6000 155.5200 L 177.8400 155.2800 L 179.0400 155.2800 L 179.2800 155.5200 L 179.2800 205.6800 L 179.0400 205.9200 L 9.8400 205.9200 L 9.6000 205.6800 L 9.6000 168.2400 L 9.8400 168.0000 L 9.8400 167.7600 L 10.3200 167.2800 L 10.5600 167.2800 L 12.4800 165.3600 L 12.7200 165.3600 L 13.4400 164.6400 L 13.4400 164.4000 L 14.8800 162.9600 L 14.8800 162.7200 L 15.8400 161.7600 L 15.8400 161.5200 L 16.3200 161.0400 L 16.3200 160.8000 L 17.0400 160.0800 L 17.0400 159.8400 L 17.7600 159.1200 L 17.7600 158.8800 L 18.4800 158.1600 L 18.4800 157.9200 L 20.4000 156.0000 L 20.4000 155.7600 L 24.7200 151.4400 L 24.7200 151.2000 L 25.2000 150.7200 L 25.4400 150.7200 L 25.4400 150.4800 L 26.1600 149.7600 L 26.4000 149.7600 L 26.4000 149.5200 L 26.8800 149.0400 L 27.1200 149.0400 L 27.1200 148.8000 L 27.8400 148.0800 L 28.0800 148.0800 L 30.0000 146.1600 L 30.2400 146.1600 L 30.2400 145.9200 L 30.7200 145.4400 L 30.9600 145.4400 L 32.6400 143.7600 L 32.8800 143.7600 L 34.0800 142.5600 L 34.3200 142.5600 L 35.2800 141.6000 L 35.5200 141.6000 L 36.2400 140.8800 L 36.4800 140.8800 L 37.2000 140.1600 L 37.4400 140.1600 L 37.9200 139.6800 L 38.1600 139.6800 L 38.6400 139.2000 L 38.8800 139.2000 L 39.3600 138.7200 L 39.6000 138.7200 L 40.0800 138.2400 L 40.3200 138.2400 L 41.2800 137.2800 L 41.5200 137.2800 L 41.7600 137.0400 L 42.0000 137.0400 L 42.7200 136.3200 L 42.9600 136.3200 L 43.9200 135.3600 L 44.1600 135.3600 L 44.8800 134.6400 L 45.1200 134.6400 L 46.3200 133.4400 L 46.5600 133.4400 L 47.5200 132.4800 L 47.7600 132.4800 L 48.9600 131.2800 L 49.2000 131.2800 L 49.6800 130.8000 L 49.9200 130.8000 L 50.8800 129.8400 L 51.1200 129.8400 L 51.6000 129.3600 L 51.8400 129.3600 L 52.3200 128.8800 L 52.5600 128.8800 L 53.2800 128.1600 L 53.5200 128.1600 L 53.7600 127.9200 L 54.0000 127.9200 L 54.4800 127.4400 L 54.7200 127.4400 L 54.9600 127.2000 L 55.4400 127.2000 L 55.6800 126.9600 L 55.9200 126.9600 L 56.4000 126.4800 L 56.6400 126.4800 L 57.1200 126.0000 L 57.3600 126.0000 L 58.3200 125.0400 L 58.5600 125.0400 L 60.0000 123.6000 L 60.2400 123.6000 L 62.1600 121.6800 L 62.4000 121.6800 L 62.4000 121.4400 L 62.6400 121.2000 L 62.8800 121.2000 L 64.8000 119.2800 L 64.8000 119.0400 L 65.7600 118.0800 L 65.7600 117.8400 L 66.2400 117.3600 L 66.2400 117.1200 L 65.7600 116.6400 L 63.8400 116.6400 L 63.6000 116.8800 L 62.8800 116.8800 L 62.6400 117.1200 L 61.4400 117.1200 L 61.2000 117.3600 L 60.2400 117.3600 L 60.0000 117.6000 L 59.0400 117.6000 L 58.8000 117.8400 L 57.6000 117.8400 L 57.3600 118.0800 L 56.4000 118.0800 L 56.1600 118.3200 L 54.9600 118.3200 L 54.7200 118.5600 L 53.5200 118.5600 L 53.2800 118.8000 L 51.6000 118.8000 L 51.3600 119.0400 L 51.1200 118.8000 L 50.8800 118.8000 L 50.6400 119.0400 L 48.7200 119.0400 L 48.4800 119.2800 L 47.2800 119.2800 L 47.0400 119.5200 L 46.3200 119.5200 L 46.0800 119.7600 L 45.1200 119.7600 L 44.8800 120.0000 L 44.6400 120.0000 L 44.4000 120.2400 L 43.9200 120.2400 L 43.6800 120.4800 L 42.9600 120.4800 L 42.7200 120.7200 L 42.4800 120.7200 L 42.2400 120.9600 L 41.7600 120.9600 L 41.5200 121.2000 L 41.0400 121.2000 L 40.8000 121.4400 L 40.3200 121.4400 L 40.0800 121.6800 L 39.3600 121.6800 L 39.1200 121.9200 L 38.6400 121.9200 L 38.4000 122.1600 L 38.1600 122.1600 L 37.9200 122.4000 L 37.2000 122.4000 L 36.9600 122.6400 L 36.4800 122.6400 L 36.2400 122.8800 L 35.5200 122.8800 L 35.2800 123.1200 L 34.8000 123.1200 L 34.5600 123.3600 L 34.0800 123.3600 L 33.8400 123.6000 L 33.3600 123.6000 L 33.1200 123.8400 L 32.6400 123.8400 L 32.4000 124.0800 L 31.9200 124.0800 L 31.6800 124.3200 L 31.2000 124.3200 L 30.9600 124.5600 L 30.7200 124.3200 L 30.2400 124.8000 L 29.2800 124.8000 L 29.0400 125.0400 L 27.6000 125.0400 L 27.3600 125.2800 L 26.8800 125.2800 L 26.6400 125.5200 L 25.4400 125.5200 L 25.2000 125.7600 L 21.6000 125.7600 L 21.3600 125.5200 L 21.1200 125.7600 L 20.8800 125.5200 L 14.8800 125.5200 L 14.6400 125.7600 L 14.4000 125.5200 L 14.1600 125.5200 L 13.9200 125.7600 L 13.6800 125.5200 L 13.4400 125.7600 L 13.2000 125.7600 L 12.9600 125.5200 L 12.7200 125.7600 L 12.4800 125.7600 L 12.2400 125.5200 L 12.0000 125.7600 L 11.7600 125.7600 L 11.5200 125.5200 L 11.2800 125.7600 L 10.0800 125.7600 L 9.6000 125.2800 L 9.6000 10.3200 L 10.0800 9.8400 Z" fill="none" stroke="black" stroke-width="0.5" /></svg>