<?xml version="1.0" encoding="utf-8" ?>
<svg baseProfile="full" height="261" version="1.1" viewBox="0 0 189 261" width="189" xmlns="http://www.w3.org/2000/svg" xmlns:ev="http://www.w3.org/2001/xml-events" xmlns:xlink="http://www.w3.org/1999/xlink"><defs /><path d="M 1.4400 1.6800 L 1.4400 259.2000 L 187.2000 259.2000 L 187.2000 1.6800 L 1.4400 1.6800 Z M 8.4552 167.3692 L 8.4620 167.3420 L 8.5096 167.2089 L 8.5700 167.0812 L 8.6427 166.9600 L 8.7269 166.8465 L 8.8218 166.7418 L 9.3018 166.2618 L 9.4065 166.1669 L 9.5200 166.0827 L 9.6412 166.0100 L 9.7689 165.9496 L 9.9013 165.9023 L 11.4618 164.3418 L 11.5665 164.2469 L 11.6800 164.1627 L 11.8012 164.0900 L 11.9289 164.0296 L 12.0613 163.9823 L 12.0623 163.9813 L 12.1096 163.8489 L 12.1700 163.7212 L 12.2427 163.6000 L 12.3269 163.4865 L 12.4218 163.3818 L 13.5023 162.3013 L 13.5496 162.1689 L 13.6100 162.0412 L 13.6827 161.9200 L 13.7669 161.8065 L 13.8618 161.7018 L 14.4623 161.1013 L 14.5096 160.9689 L 14.5700 160.8412 L 14.6427 160.7200 L 14.7269 160.6065 L 14.8218 160.5018 L 14.9423 160.3813 L 14.9896 160.2489 L 15.0500 160.1212 L 15.1227 160.0000 L 15.2069 159.8865 L 15.3018 159.7818 L 15.6623 159.4213 L 15.7096 159.2889 L 15.7700 159.1612 L 15.8427 159.0400 L 15.9269 158.9265 L 16.0218 158.8218 L 16.3823 158.4613 L 16.4296 158.3289 L 16.4900 158.2012 L 16.5627 158.0800 L 16.6469 157.9665 L 16.7418 157.8618 L 17.1023 157.5013 L 17.1496 157.3689 L 17.2100 157.2412 L 17.2827 157.1200 L 17.3669 157.0065 L 17.4618 156.9018 L 19.0223 155.3413 L 19.0696 155.2089 L 19.1300 155.0812 L 19.2027 154.9600 L 19.2869 154.8465 L 19.3818 154.7418 L 23.3423 150.7813 L 23.3896 150.6489 L 23.4500 150.5212 L 23.5227 150.4000 L 23.6069 150.2865 L 23.7018 150.1818 L 24.1818 149.7018 L 24.2865 149.6069 L 24.3097 149.5897 L 24.3269 149.5665 L 24.4218 149.4618 L 25.1418 148.7418 L 25.2465 148.6469 L 25.2697 148.6297 L 25.2869 148.6065 L 25.3818 148.5018 L 25.8618 148.0218 L 25.9665 147.9269 L 25.9897 147.9097 L 26.0069 147.8865 L 26.1018 147.7818 L 26.8218 147.0618 L 26.9265 146.9669 L 27.0400 146.8827 L 27.1612 146.8100 L 27.2889 146.7496 L 27.4213 146.7023 L 28.9818 145.1418 L 29.0865 145.0469 L 29.1097 145.0297 L 29.1269 145.0065 L 29.2218 144.9018 L 29.7018 144.4218 L 29.8065 144.3269 L 29.9200 144.2427 L 30.0412 144.1700 L 30.1689 144.1096 L 30.3013 144.0623 L 31.6218 142.7418 L 31.7265 142.6469 L 31.8400 142.5627 L 31.9612 142.4900 L 32.0889 142.4296 L 32.2213 142.3823 L 33.0618 141.5418 L 33.1665 141.4469 L 33.2800 141.3627 L 33.4012 141.2900 L 33.5289 141.2296 L 33.6613 141.1823 L 34.2618 140.5818 L 34.3665 140.4869 L 34.4800 140.4027 L 34.6012 140.3300 L 34.7289 140.2696 L 34.8613 140.2223 L 35.2218 139.8618 L 35.3265 139.7669 L 35.4400 139.6827 L 35.5612 139.6100 L 35.6889 139.5496 L 35.8213 139.5023 L 36.1818 139.1418 L 36.2865 139.0469 L 36.4000 138.9627 L 36.5212 138.8900 L 36.6489 138.8296 L 36.7813 138.7823 L 36.9018 138.6618 L 37.0065 138.5669 L 37.1200 138.4827 L 37.2412 138.4100 L 37.3689 138.3496 L 37.5013 138.3023 L 37.6218 138.1818 L 37.7265 138.0869 L 37.8400 138.0027 L 37.9612 137.9300 L 38.0889 137.8696 L 38.2213 137.8223 L 38.3418 137.7018 L 38.4465 137.6069 L 38.5600 137.5227 L 38.6812 137.4500 L 38.8089 137.3896 L 38.9413 137.3423 L 39.0618 137.2218 L 39.1665 137.1269 L 39.2800 137.0427 L 39.4012 136.9700 L 39.5289 136.9096 L 39.6613 136.8623 L 40.2618 136.2618 L 40.3665 136.1669 L 40.4800 136.0827 L 40.6012 136.0100 L 40.7289 135.9496 L 40.8620 135.9020 L 40.8892 135.8952 L 40.9600 135.8427 L 41.0812 135.7700 L 41.2089 135.7096 L 41.3413 135.6623 L 41.7018 135.3018 L 41.8065 135.2069 L 41.9200 135.1227 L 42.0412 135.0500 L 42.1689 134.9896 L 42.3013 134.9423 L 42.9018 134.3418 L 43.0065 134.2469 L 43.1200 134.1627 L 43.2412 134.0900 L 43.3689 134.0296 L 43.5013 133.9823 L 43.8618 133.6218 L 43.9665 133.5269 L 44.0800 133.4427 L 44.2012 133.3700 L 44.3289 133.3096 L 44.4613 133.2623 L 45.3018 132.4218 L 45.4065 132.3269 L 45.5200 132.2427 L 45.6412 132.1700 L 45.7689 132.1096 L 45.9013 132.0623 L 46.5018 131.4618 L 46.6065 131.3669 L 46.7200 131.2827 L 46.8412 131.2100 L 46.9689 131.1496 L 47.1013 131.1023 L 47.9418 130.2618 L 48.0465 130.1669 L 48.1600 130.0827 L 48.2812 130.0100 L 48.4089 129.9496 L 48.5413 129.9023 L 48.6618 129.7818 L 48.7665 129.6869 L 48.8800 129.6027 L 49.0012 129.5300 L 49.1289 129.4696 L 49.2613 129.4223 L 49.8618 128.8218 L 49.9665 128.7269 L 50.0800 128.6427 L 50.2012 128.5700 L 50.3289 128.5096 L 50.4613 128.4623 L 50.5818 128.3418 L 50.6865 128.2469 L 50.8000 128.1627 L 50.9212 128.0900 L 51.0489 128.0296 L 51.1813 127.9823 L 51.3018 127.8618 L 51.4065 127.7669 L 51.5200 127.6827 L 51.6412 127.6100 L 51.7689 127.5496 L 51.9013 127.5023 L 52.2618 127.1418 L 52.3665 127.0469 L 52.4800 126.9627 L 52.6012 126.8900 L 52.7289 126.8296 L 52.8620 126.7820 L 52.8892 126.7752 L 52.9600 126.7227 L 53.0812 126.6500 L 53.2089 126.5896 L 53.3413 126.5423 L 53.4618 126.4218 L 53.5665 126.3269 L 53.6800 126.2427 L 53.8012 126.1700 L 53.9289 126.1096 L 54.0620 126.0620 L 54.0892 126.0552 L 54.1600 126.0027 L 54.2812 125.9300 L 54.4089 125.8696 L 54.5420 125.8220 L 54.6791 125.7877 L 54.8189 125.7669 L 54.8782 125.7640 L 54.8800 125.7627 L 55.0012 125.6900 L 55.1289 125.6296 L 55.2613 125.5823 L 55.3818 125.4618 L 55.4865 125.3669 L 55.6000 125.2827 L 55.7212 125.2100 L 55.8489 125.1496 L 55.9813 125.1023 L 56.1018 124.9818 L 56.2065 124.8869 L 56.3200 124.8027 L 56.4412 124.7300 L 56.5689 124.6696 L 56.7013 124.6223 L 57.3018 124.0218 L 57.4065 123.9269 L 57.5200 123.8427 L 57.6412 123.7700 L 57.7689 123.7096 L 57.9013 123.6623 L 58.9818 122.5818 L 59.0865 122.4869 L 59.2000 122.4027 L 59.3212 122.3300 L 59.4489 122.2696 L 59.5813 122.2223 L 61.1418 120.6618 L 61.2465 120.5669 L 61.2697 120.5497 L 61.2869 120.5265 L 61.3818 120.4218 L 61.6218 120.1818 L 61.7265 120.0869 L 61.8400 120.0027 L 61.9612 119.9300 L 62.0889 119.8696 L 62.2213 119.8223 L 63.4223 118.6213 L 63.4696 118.4889 L 63.5300 118.3612 L 63.5547 118.3200 L 63.4355 118.3200 L 63.3188 118.3900 L 63.1911 118.4504 L 63.0580 118.4980 L 62.9209 118.5323 L 62.7811 118.5531 L 62.6400 118.5600 L 61.9955 118.5600 L 61.8788 118.6300 L 61.7511 118.6904 L 61.6180 118.7380 L 61.4809 118.7723 L 61.3411 118.7931 L 61.2000 118.8000 L 60.7955 118.8000 L 60.6788 118.8700 L 60.5511 118.9304 L 60.4180 118.9780 L 60.2809 119.0123 L 60.1411 119.0331 L 60.0000 119.0400 L 59.5955 119.0400 L 59.4788 119.1100 L 59.3511 119.1704 L 59.2180 119.2180 L 59.0809 119.2523 L 58.9411 119.2731 L 58.8000 119.2800 L 58.1555 119.2800 L 58.0388 119.3500 L 57.9111 119.4104 L 57.7780 119.4580 L 57.6409 119.4923 L 57.5011 119.5131 L 57.3600 119.5200 L 56.9555 119.5200 L 56.8388 119.5900 L 56.7111 119.6504 L 56.5780 119.6980 L 56.4409 119.7323 L 56.3011 119.7531 L 56.1600 119.7600 L 55.5155 119.7600 L 55.3988 119.8300 L 55.2711 119.8904 L 55.1380 119.9380 L 55.0009 119.9723 L 54.8611 119.9931 L 54.7200 120.0000 L 54.0755 120.0000 L 53.9588 120.0700 L 53.8311 120.1304 L 53.6980 120.1780 L 53.5609 120.2123 L 53.4211 120.2331 L 53.2800 120.2400 L 52.1555 120.2400 L 52.0388 120.3100 L 51.9111 120.3704 L 51.7780 120.4180 L 51.6409 120.4523 L 51.5011 120.4731 L 51.3600 120.4800 L 51.2189 120.4731 L 51.0791 120.4523 L 51.0000 120.4325 L 50.9209 120.4523 L 50.7811 120.4731 L 50.6400 120.4800 L 49.2755 120.4800 L 49.1588 120.5500 L 49.0311 120.6104 L 48.8980 120.6580 L 48.7609 120.6923 L 48.6211 120.7131 L 48.4800 120.7200 L 47.8355 120.7200 L 47.7188 120.7900 L 47.5911 120.8504 L 47.4580 120.8980 L 47.3209 120.9323 L 47.1811 120.9531 L 47.0400 120.9600 L 46.8755 120.9600 L 46.7588 121.0300 L 46.6311 121.0904 L 46.4980 121.1380 L 46.3609 121.1723 L 46.2211 121.1931 L 46.0800 121.2000 L 45.6755 121.2000 L 45.5588 121.2700 L 45.4311 121.3304 L 45.2980 121.3780 L 45.2708 121.3848 L 45.2000 121.4373 L 45.0788 121.5100 L 44.9511 121.5704 L 44.8180 121.6180 L 44.6809 121.6523 L 44.5411 121.6731 L 44.4818 121.6760 L 44.4800 121.6773 L 44.3588 121.7500 L 44.2311 121.8104 L 44.0980 121.8580 L 43.9609 121.8923 L 43.8211 121.9131 L 43.6800 121.9200 L 43.5155 121.9200 L 43.3988 121.9900 L 43.2711 122.0504 L 43.1380 122.0980 L 43.1108 122.1048 L 43.0400 122.1573 L 42.9188 122.2300 L 42.7911 122.2904 L 42.6580 122.3380 L 42.5209 122.3723 L 42.3811 122.3931 L 42.3218 122.3960 L 42.3200 122.3973 L 42.1988 122.4700 L 42.0711 122.5304 L 41.9380 122.5780 L 41.8009 122.6123 L 41.6611 122.6331 L 41.6018 122.6360 L 41.6000 122.6373 L 41.4788 122.7100 L 41.3511 122.7704 L 41.2180 122.8180 L 41.0809 122.8523 L 40.9411 122.8731 L 40.8818 122.8760 L 40.8800 122.8773 L 40.7588 122.9500 L 40.6311 123.0104 L 40.4980 123.0580 L 40.3609 123.0923 L 40.2211 123.1131 L 40.0800 123.1200 L 39.9155 123.1200 L 39.7988 123.1900 L 39.6711 123.2504 L 39.5380 123.2980 L 39.4009 123.3323 L 39.2611 123.3531 L 39.2018 123.3560 L 39.2000 123.3573 L 39.0788 123.4300 L 38.9511 123.4904 L 38.8180 123.5380 L 38.7908 123.5448 L 38.7200 123.5973 L 38.5988 123.6700 L 38.4711 123.7304 L 38.3380 123.7780 L 38.2009 123.8123 L 38.0611 123.8331 L 37.9200 123.8400 L 37.7555 123.8400 L 37.6388 123.9100 L 37.5111 123.9704 L 37.3780 124.0180 L 37.2409 124.0523 L 37.1011 124.0731 L 37.0418 124.0760 L 37.0400 124.0773 L 36.9188 124.1500 L 36.7911 124.2104 L 36.6580 124.2580 L 36.5209 124.2923 L 36.3811 124.3131 L 36.2400 124.3200 L 36.0755 124.3200 L 35.9588 124.3900 L 35.8311 124.4504 L 35.6980 124.4980 L 35.5609 124.5323 L 35.4211 124.5531 L 35.3618 124.5560 L 35.3600 124.5573 L 35.2388 124.6300 L 35.1111 124.6904 L 34.9780 124.7380 L 34.8409 124.7723 L 34.7011 124.7931 L 34.6418 124.7960 L 34.6400 124.7973 L 34.5188 124.8700 L 34.3911 124.9304 L 34.2580 124.9780 L 34.1209 125.0123 L 33.9811 125.0331 L 33.9218 125.0360 L 33.9200 125.0373 L 33.7988 125.1100 L 33.6711 125.1704 L 33.5380 125.2180 L 33.4009 125.2523 L 33.2611 125.2731 L 33.2018 125.2760 L 33.2000 125.2773 L 33.0788 125.3500 L 32.9511 125.4104 L 32.8180 125.4580 L 32.6809 125.4923 L 32.5411 125.5131 L 32.4818 125.5160 L 32.4800 125.5173 L 32.3588 125.5900 L 32.2311 125.6504 L 32.0980 125.6980 L 31.9609 125.7323 L 31.8211 125.7531 L 31.7618 125.7560 L 31.7600 125.7573 L 31.6388 125.8300 L 31.5111 125.8904 L 31.3780 125.9380 L 31.2409 125.9723 L 31.1011 125.9931 L 31.0418 125.9960 L 31.0400 125.9973 L 30.9188 126.0700 L 30.7911 126.1304 L 30.6580 126.1780 L 30.5209 126.2123 L 30.3811 126.2331 L 30.2400 126.2400 L 29.8355 126.2400 L 29.7188 126.3100 L 29.5911 126.3704 L 29.4580 126.4180 L 29.3209 126.4523 L 29.1811 126.4731 L 29.0400 126.4800 L 28.1555 126.4800 L 28.0388 126.5500 L 27.9111 126.6104 L 27.7780 126.6580 L 27.6409 126.6923 L 27.5011 126.7131 L 27.4418 126.7160 L 27.4400 126.7173 L 27.3188 126.7900 L 27.1911 126.8504 L 27.0580 126.8980 L 26.9209 126.9323 L 26.7811 126.9531 L 26.6400 126.9600 L 25.9955 126.9600 L 25.8788 127.0300 L 25.7511 127.0904 L 25.6180 127.1380 L 25.4809 127.1723 L 25.3411 127.1931 L 25.2000 127.2000 L 21.6000 127.2000 L 21.4589 127.1931 L 21.3600 127.1784 L 21.2611 127.1931 L 21.1200 127.2000 L 20.9789 127.1931 L 20.8391 127.1723 L 20.7020 127.1380 L 20.5689 127.0904 L 20.4412 127.0300 L 20.3245 126.9600 L 15.4355 126.9600 L 15.3188 127.0300 L 15.1911 127.0904 L 15.0580 127.1380 L 14.9209 127.1723 L 14.7811 127.1931 L 14.6400 127.2000 L 14.4989 127.1931 L 14.3591 127.1723 L 14.2800 127.1525 L 14.2009 127.1723 L 14.0611 127.1931 L 13.9200 127.2000 L 13.7789 127.1931 L 13.6800 127.1784 L 13.5811 127.1931 L 13.4400 127.2000 L 13.2000 127.2000 L 13.0589 127.1931 L 12.9600 127.1784 L 12.8611 127.1931 L 12.7200 127.2000 L 12.4800 127.2000 L 12.3389 127.1931 L 12.2400 127.1784 L 12.1411 127.1931 L 12.0000 127.2000 L 11.7600 127.2000 L 11.6189 127.1931 L 11.5200 127.1784 L 11.4211 127.1931 L 11.2800 127.2000 L 10.0800 127.2000 L 9.9389 127.1931 L 9.7991 127.1723 L 9.6620 127.1380 L 9.5289 127.0904 L 9.4012 127.0300 L 9.2800 126.9573 L 9.1665 126.8731 L 9.0618 126.7782 L 8.5818 126.2982 L 8.4869 126.1935 L 8.4027 126.0800 L 8.3300 125.9588 L 8.2696 125.8311 L 8.2220 125.6980 L 8.1877 125.5609 L 8.1669 125.4211 L 8.1600 125.2800 L 8.1600 10.3200 L 8.1669 10.1789 L 8.1877 10.0391 L 8.2220 9.9020 L 8.2696 9.7689 L 8.3300 9.6412 L 8.4027 9.5200 L 8.4869 9.4065 L 8.5818 9.3018 L 9.0618 8.8218 L 9.1665 8.7269 L 9.2800 8.6427 L 9.4012 8.5700 L 9.5289 8.5096 L 9.6620 8.4620 L 9.7991 8.4277 L 9.9389 8.4069 L 10.0800 8.4000 L 178.8000 8.4000 L 178.9411 8.4069 L 179.0809 8.4277 L 179.2180 8.4620 L 179.3511 8.5096 L 179.4788 8.5700 L 179.6000 8.6427 L 179.7135 8.7269 L 179.8182 8.8218 L 180.2982 9.3018 L 180.3931 9.4065 L 180.4773 9.5200 L 180.5500 9.6412 L 180.6104 9.7689 L 180.6580 9.9020 L 180.6923 10.0391 L 180.7131 10.1789 L 180.7200 10.3200 L 180.7200 119.2800 L 180.7131 119.4211 L 180.6923 119.5609 L 180.6580 119.6980 L 180.6104 119.8311 L 180.5500 119.9588 L 180.4773 120.0800 L 180.3931 120.1935 L 180.2982 120.2982 L 180.0582 120.5382 L 179.9535 120.6331 L 179.8400 120.7173 L 179.7188 120.7900 L 179.5911 120.8504 L 179.4580 120.8980 L 179.4308 120.9048 L 179.3600 120.9573 L 179.2388 121.0300 L 179.1111 121.0904 L 178.9780 121.1380 L 178.9508 121.1448 L 178.8800 121.1973 L 178.7588 121.2700 L 178.6311 121.3304 L 178.4980 121.3780 L 178.4708 121.3848 L 178.4000 121.4373 L 178.2788 121.5100 L 178.1511 121.5704 L 178.0180 121.6180 L 177.9908 121.6248 L 177.9200 121.6773 L 177.7988 121.7500 L 177.6711 121.8104 L 177.5380 121.8580 L 177.5108 121.8648 L 177.4400 121.9173 L 177.3188 121.9900 L 177.1911 122.0504 L 177.0580 122.0980 L 177.0308 122.1048 L 176.9600 122.1573 L 176.8388 122.2300 L 176.7111 122.2904 L 176.5780 122.3380 L 176.4409 122.3723 L 176.3011 122.3931 L 176.2418 122.3960 L 176.2400 122.3973 L 176.1188 122.4700 L 175.9911 122.5304 L 175.8580 122.5780 L 175.8308 122.5848 L 175.7600 122.6373 L 175.6388 122.7100 L 175.5111 122.7704 L 175.3780 122.8180 L 175.3508 122.8248 L 175.2800 122.8773 L 175.1588 122.9500 L 175.0311 123.0104 L 174.8980 123.0580 L 174.8708 123.0648 L 174.8000 123.1173 L 174.6788 123.1900 L 174.5511 123.2504 L 174.4180 123.2980 L 174.3908 123.3048 L 174.3200 123.3573 L 174.1988 123.4300 L 174.0711 123.4904 L 173.9380 123.5380 L 173.8009 123.5723 L 173.6611 123.5931 L 173.6018 123.5960 L 173.6000 123.5973 L 173.4788 123.6700 L 173.3511 123.7304 L 173.2180 123.7780 L 173.1908 123.7848 L 173.1200 123.8373 L 172.9988 123.9100 L 172.8711 123.9704 L 172.7380 124.0180 L 172.7108 124.0248 L 172.6400 124.0773 L 172.5188 124.1500 L 172.3911 124.2104 L 172.2580 124.2580 L 172.1209 124.2923 L 171.9811 124.3131 L 171.9218 124.3160 L 171.9200 124.3173 L 171.7988 124.3900 L 171.6711 124.4504 L 171.5380 124.4980 L 171.5108 124.5048 L 171.4400 124.5573 L 171.3188 124.6300 L 171.1911 124.6904 L 171.0580 124.7380 L 170.9209 124.7723 L 170.7811 124.7931 L 170.7218 124.7960 L 170.7200 124.7973 L 170.5988 124.8700 L 170.4711 124.9304 L 170.3380 124.9780 L 170.3108 124.9848 L 170.2400 125.0373 L 170.1188 125.1100 L 169.9911 125.1704 L 169.8580 125.2180 L 169.8308 125.2248 L 169.7600 125.2773 L 169.6388 125.3500 L 169.5111 125.4104 L 169.3780 125.4580 L 169.3508 125.4648 L 169.2800 125.5173 L 169.1588 125.5900 L 169.0311 125.6504 L 168.8980 125.6980 L 168.7609 125.7323 L 168.6211 125.7531 L 168.5618 125.7560 L 168.5600 125.7573 L 168.4388 125.8300 L 168.3111 125.8904 L 168.1780 125.9380 L 168.1508 125.9448 L 168.0800 125.9973 L 167.9588 126.0700 L 167.8311 126.1304 L 167.6980 126.1780 L 167.6708 126.1848 L 167.6000 126.2373 L 167.4788 126.3100 L 167.3511 126.3704 L 167.2180 126.4180 L 167.0809 126.4523 L 166.9411 126.4731 L 166.8818 126.4760 L 166.8800 126.4773 L 166.7588 126.5500 L 166.6311 126.6104 L 166.4980 126.6580 L 166.4708 126.6648 L 166.4000 126.7173 L 166.2788 126.7900 L 166.1511 126.8504 L 166.0180 126.8980 L 165.9908 126.9048 L 165.9200 126.9573 L 165.7988 127.0300 L 165.6711 127.0904 L 165.5380 127.1380 L 165.4009 127.1723 L 165.2611 127.1931 L 165.2018 127.1960 L 165.2000 127.1973 L 165.0788 127.2700 L 164.9511 127.3304 L 164.8180 127.3780 L 164.7908 127.3848 L 164.7200 127.4373 L 164.5988 127.5100 L 164.4711 127.5704 L 164.3380 127.6180 L 164.3108 127.6248 L 164.2400 127.6773 L 164.1188 127.7500 L 163.9911 127.8104 L 163.8580 127.8580 L 163.8308 127.8648 L 163.7600 127.9173 L 163.6388 127.9900 L 163.5111 128.0504 L 163.3780 128.0980 L 163.2409 128.1323 L 163.1011 128.1531 L 163.0418 128.1560 L 163.0400 128.1573 L 162.9188 128.2300 L 162.7911 128.2904 L 162.6580 128.3380 L 162.6308 128.3448 L 162.5600 128.3973 L 162.4388 128.4700 L 162.3111 128.5304 L 162.1780 128.5780 L 162.1508 128.5848 L 162.0800 128.6373 L 161.9588 128.7100 L 161.8311 128.7704 L 161.6980 128.8180 L 161.5609 128.8523 L 161.4211 128.8731 L 161.3618 128.8760 L 161.3600 128.8773 L 161.2388 128.9500 L 161.1111 129.0104 L 160.9780 129.0580 L 160.9508 129.0648 L 160.8800 129.1173 L 160.7588 129.1900 L 160.6311 129.2504 L 160.4980 129.2980 L 160.4708 129.3048 L 160.4000 129.3573 L 160.2788 129.4300 L 160.1511 129.4904 L 160.0180 129.5380 L 159.8809 129.5723 L 159.7411 129.5931 L 159.6818 129.5960 L 159.6800 129.5973 L 159.5588 129.6700 L 159.4311 129.7304 L 159.2980 129.7780 L 159.2708 129.7848 L 159.2000 129.8373 L 159.0788 129.9100 L 158.9511 129.9704 L 158.8180 130.0180 L 158.7908 130.0248 L 158.7200 130.0773 L 158.5988 130.1500 L 158.4711 130.2104 L 158.3380 130.2580 L 158.2009 130.2923 L 158.0611 130.3131 L 158.0018 130.3160 L 158.0000 130.3173 L 157.8788 130.3900 L 157.7511 130.4504 L 157.6180 130.4980 L 157.5908 130.5048 L 157.5200 130.5573 L 157.3988 130.6300 L 157.2711 130.6904 L 157.1380 130.7380 L 157.0009 130.7723 L 156.8611 130.7931 L 156.8018 130.7960 L 156.8000 130.7973 L 156.6788 130.8700 L 156.5511 130.9304 L 156.4180 130.9780 L 156.3908 130.9848 L 156.3200 131.0373 L 156.1988 131.1100 L 156.0711 131.1704 L 155.9380 131.2180 L 155.9108 131.2248 L 155.8400 131.2773 L 155.7188 131.3500 L 155.5911 131.4104 L 155.4580 131.4580 L 155.4308 131.4648 L 155.3600 131.5173 L 155.2388 131.5900 L 155.1111 131.6504 L 154.9780 131.6980 L 154.8409 131.7323 L 154.7011 131.7531 L 154.6418 131.7560 L 154.6400 131.7573 L 154.5188 131.8300 L 154.3911 131.8904 L 154.2580 131.9380 L 154.2308 131.9448 L 154.1600 131.9973 L 154.0388 132.0700 L 153.9111 132.1304 L 153.7780 132.1780 L 153.7508 132.1848 L 153.6800 132.2373 L 153.5588 132.3100 L 153.4311 132.3704 L 153.2980 132.4180 L 153.2708 132.4248 L 153.2000 132.4773 L 153.0788 132.5500 L 152.9511 132.6104 L 152.8180 132.6580 L 152.6809 132.6923 L 152.5411 132.7131 L 152.4818 132.7160 L 152.4800 132.7173 L 152.3588 132.7900 L 152.2311 132.8504 L 152.0980 132.8980 L 152.0708 132.9048 L 152.0000 132.9573 L 151.8788 133.0300 L 151.7511 133.0904 L 151.6180 133.1380 L 151.5908 133.1448 L 151.5200 133.1973 L 151.3988 133.2700 L 151.2711 133.3304 L 151.1380 133.3780 L 151.1108 133.3848 L 151.0400 133.4373 L 150.9188 133.5100 L 150.7911 133.5704 L 150.6580 133.6180 L 150.5209 133.6523 L 150.3811 133.6731 L 150.3218 133.6760 L 150.3200 133.6773 L 150.1988 133.7500 L 150.0711 133.8104 L 149.9380 133.8580 L 149.9108 133.8648 L 149.8400 133.9173 L 149.7188 133.9900 L 149.5911 134.0504 L 149.4580 134.0980 L 149.3209 134.1323 L 149.1811 134.1531 L 149.1218 134.1560 L 149.1200 134.1573 L 148.9988 134.2300 L 148.8711 134.2904 L 148.7380 134.3380 L 148.7108 134.3448 L 148.6400 134.3973 L 148.5188 134.4700 L 148.3911 134.5304 L 148.2580 134.5780 L 148.2308 134.5848 L 148.1600 134.6373 L 148.0388 134.7100 L 147.9111 134.7704 L 147.7780 134.8180 L 147.7508 134.8248 L 147.6800 134.8773 L 147.5588 134.9500 L 147.4311 135.0104 L 147.2980 135.0580 L 147.1609 135.0923 L 147.0211 135.1131 L 146.9618 135.1160 L 146.9600 135.1173 L 146.8388 135.1900 L 146.7111 135.2504 L 146.5780 135.2980 L 146.5508 135.3048 L 146.4800 135.3573 L 146.3588 135.4300 L 146.2311 135.4904 L 146.0980 135.5380 L 146.0708 135.5448 L 146.0000 135.5973 L 145.8788 135.6700 L 145.7511 135.7304 L 145.6180 135.7780 L 145.4809 135.8123 L 145.3411 135.8331 L 145.2818 135.8360 L 145.2800 135.8373 L 145.1588 135.9100 L 145.0311 135.9704 L 144.8980 136.0180 L 144.8708 136.0248 L 144.8000 136.0773 L 144.6788 136.1500 L 144.5511 136.2104 L 144.4180 136.2580 L 144.3908 136.2648 L 144.3200 136.3173 L 144.1988 136.3900 L 144.0711 136.4504 L 143.9380 136.4980 L 143.8009 136.5323 L 143.6611 136.5531 L 143.6018 136.5560 L 143.6000 136.5573 L 143.4788 136.6300 L 143.3511 136.6904 L 143.2180 136.7380 L 143.1908 136.7448 L 143.1200 136.7973 L 142.9988 136.8700 L 142.8711 136.9304 L 142.7380 136.9780 L 142.7108 136.9848 L 142.6400 137.0373 L 142.5188 137.1100 L 142.3911 137.1704 L 142.2580 137.2180 L 142.1209 137.2523 L 141.9811 137.2731 L 141.9218 137.2760 L 141.9200 137.2773 L 141.7988 137.3500 L 141.6711 137.4104 L 141.5380 137.4580 L 141.5108 137.4648 L 141.4400 137.5173 L 141.3188 137.5900 L 141.1911 137.6504 L 141.0580 137.6980 L 141.0308 137.7048 L 140.9600 137.7573 L 140.8388 137.8300 L 140.7111 137.8904 L 140.5780 137.9380 L 140.4409 137.9723 L 140.3011 137.9931 L 140.2418 137.9960 L 140.2400 137.9973 L 140.1188 138.0700 L 139.9911 138.1304 L 139.8580 138.1780 L 139.8308 138.1848 L 139.7600 138.2373 L 139.6388 138.3100 L 139.5111 138.3704 L 139.3780 138.4180 L 139.3508 138.4248 L 139.2800 138.4773 L 139.1588 138.5500 L 139.0311 138.6104 L 138.8980 138.6580 L 138.8708 138.6648 L 138.8000 138.7173 L 138.6788 138.7900 L 138.5511 138.8504 L 138.4180 138.8980 L 138.3908 138.9048 L 138.3200 138.9573 L 138.1988 139.0300 L 138.0711 139.0904 L 137.9380 139.1380 L 137.8009 139.1723 L 137.6611 139.1931 L 137.6018 139.1960 L 137.6000 139.1973 L 137.4788 139.2700 L 137.3511 139.3304 L 137.2180 139.3780 L 137.1908 139.3848 L 137.1200 139.4373 L 136.9988 139.5100 L 136.8711 139.5704 L 136.7380 139.6180 L 136.6009 139.6523 L 136.4611 139.6731 L 136.4018 139.6760 L 136.4000 139.6773 L 136.2788 139.7500 L 136.1511 139.8104 L 136.0180 139.8580 L 135.9908 139.8648 L 135.9200 139.9173 L 135.7988 139.9900 L 135.6711 140.0504 L 135.5380 140.0980 L 135.4009 140.1323 L 135.2611 140.1531 L 135.2018 140.1560 L 135.2000 140.1573 L 135.0788 140.2300 L 134.9511 140.2904 L 134.8180 140.3380 L 134.7908 140.3448 L 134.7200 140.3973 L 134.5988 140.4700 L 134.4711 140.5304 L 134.3380 140.5780 L 134.3108 140.5848 L 134.2400 140.6373 L 134.1188 140.7100 L 133.9911 140.7704 L 133.8580 140.8180 L 133.8308 140.8248 L 133.7600 140.8773 L 133.6388 140.9500 L 133.5111 141.0104 L 133.3780 141.0580 L 133.3508 141.0648 L 133.2800 141.1173 L 133.1588 141.1900 L 133.0311 141.2504 L 132.8980 141.2980 L 132.7609 141.3323 L 132.6211 141.3531 L 132.5618 141.3560 L 132.5600 141.3573 L 132.4388 141.4300 L 132.3111 141.4904 L 132.1780 141.5380 L 132.1508 141.5448 L 132.0800 141.5973 L 131.9588 141.6700 L 131.8311 141.7304 L 131.6980 141.7780 L 131.6708 141.7848 L 131.6000 141.8373 L 131.4788 141.9100 L 131.3511 141.9704 L 131.2180 142.0180 L 131.0809 142.0523 L 130.9411 142.0731 L 130.8818 142.0760 L 130.8800 142.0773 L 130.7588 142.1500 L 130.6311 142.2104 L 130.4980 142.2580 L 130.4708 142.2648 L 130.4000 142.3173 L 130.2788 142.3900 L 130.1511 142.4504 L 130.0180 142.4980 L 129.9908 142.5048 L 129.9200 142.5573 L 129.7988 142.6300 L 129.6711 142.6904 L 129.5380 142.7380 L 129.4009 142.7723 L 129.3412 142.7812 L 129.3323 142.8409 L 129.2980 142.9780 L 129.2504 143.1111 L 129.1900 143.2388 L 129.1173 143.3600 L 129.0331 143.4735 L 128.9382 143.5782 L 128.4582 144.0582 L 128.3535 144.1531 L 128.2400 144.2373 L 128.2355 144.2400 L 128.6400 144.2400 L 128.7811 144.2469 L 128.9209 144.2677 L 129.0580 144.3020 L 129.1911 144.3496 L 129.3188 144.4100 L 129.4355 144.4800 L 129.6000 144.4800 L 129.7411 144.4869 L 129.8809 144.5077 L 130.0180 144.5420 L 130.1511 144.5896 L 130.2788 144.6500 L 130.3955 144.7200 L 130.5600 144.7200 L 130.7011 144.7269 L 130.8409 144.7477 L 130.9780 144.7820 L 131.1111 144.8296 L 131.2388 144.8900 L 131.3555 144.9600 L 131.5200 144.9600 L 131.6611 144.9669 L 131.8009 144.9877 L 131.9380 145.0220 L 132.0711 145.0696 L 132.1988 145.1300 L 132.3200 145.2027 L 132.3218 145.2040 L 132.3811 145.2069 L 132.5209 145.2277 L 132.6580 145.2620 L 132.7911 145.3096 L 132.9188 145.3700 L 133.0355 145.4400 L 133.2000 145.4400 L 133.3411 145.4469 L 133.4809 145.4677 L 133.6180 145.5020 L 133.7511 145.5496 L 133.8788 145.6100 L 133.9955 145.6800 L 134.1600 145.6800 L 134.3011 145.6869 L 134.4409 145.7077 L 134.5780 145.7420 L 134.7111 145.7896 L 134.8388 145.8500 L 134.9555 145.9200 L 135.1200 145.9200 L 135.2611 145.9269 L 135.4009 145.9477 L 135.5380 145.9820 L 135.6711 146.0296 L 135.7988 146.0900 L 135.9155 146.1600 L 136.3200 146.1600 L 136.4611 146.1669 L 136.6009 146.1877 L 136.7380 146.2220 L 136.8711 146.2696 L 136.9988 146.3300 L 137.1155 146.4000 L 137.5200 146.4000 L 137.6611 146.4069 L 137.8009 146.4277 L 137.9380 146.4620 L 138.0711 146.5096 L 138.1988 146.5700 L 138.3155 146.6400 L 139.4400 146.6400 L 139.5811 146.6469 L 139.7209 146.6677 L 139.8580 146.7020 L 139.9911 146.7496 L 140.1188 146.8100 L 140.2355 146.8800 L 141.6000 146.8800 L 141.7411 146.8869 L 141.8809 146.9077 L 142.0180 146.9420 L 142.1511 146.9896 L 142.2788 147.0500 L 142.3955 147.1200 L 143.5200 147.1200 L 143.6611 147.1269 L 143.8009 147.1477 L 143.9380 147.1820 L 144.0711 147.2296 L 144.1988 147.2900 L 144.3155 147.3600 L 144.9600 147.3600 L 145.1011 147.3669 L 145.2409 147.3877 L 145.3780 147.4220 L 145.5111 147.4696 L 145.6388 147.5300 L 145.7555 147.6000 L 145.9200 147.6000 L 146.0611 147.6069 L 146.2009 147.6277 L 146.3380 147.6620 L 146.4711 147.7096 L 146.5988 147.7700 L 146.7155 147.8400 L 146.8800 147.8400 L 147.0211 147.8469 L 147.1609 147.8677 L 147.2980 147.9020 L 147.4311 147.9496 L 147.5588 148.0100 L 147.6755 148.0800 L 147.8400 148.0800 L 147.9811 148.0869 L 148.1209 148.1077 L 148.2580 148.1420 L 148.3911 148.1896 L 148.5188 148.2500 L 148.6355 148.3200 L 149.0400 148.3200 L 149.1811 148.3269 L 149.3209 148.3477 L 149.4580 148.3820 L 149.5911 148.4296 L 149.7188 148.4900 L 149.8355 148.5600 L 150.2400 148.5600 L 150.3811 148.5669 L 150.5209 148.5877 L 150.6580 148.6220 L 150.7911 148.6696 L 150.9188 148.7300 L 151.0355 148.8000 L 151.4400 148.8000 L 151.5811 148.8069 L 151.7209 148.8277 L 151.8580 148.8620 L 151.9911 148.9096 L 152.1188 148.9700 L 152.2355 149.0400 L 152.6400 149.0400 L 152.7811 149.0469 L 152.9209 149.0677 L 153.0580 149.1020 L 153.1911 149.1496 L 153.3188 149.2100 L 153.4355 149.2800 L 153.8400 149.2800 L 153.9811 149.2869 L 154.1209 149.3077 L 154.2580 149.3420 L 154.3911 149.3896 L 154.5188 149.4500 L 154.6355 149.5200 L 155.0400 149.5200 L 155.1811 149.5269 L 155.3209 149.5477 L 155.4580 149.5820 L 155.5911 149.6296 L 155.7188 149.6900 L 155.8355 149.7600 L 156.4800 149.7600 L 156.6211 149.7669 L 156.7609 149.7877 L 156.8980 149.8220 L 157.0311 149.8696 L 157.1588 149.9300 L 157.2755 150.0000 L 157.6800 150.0000 L 157.8211 150.0069 L 157.9609 150.0277 L 158.0980 150.0620 L 158.2311 150.1096 L 158.3588 150.1700 L 158.4755 150.2400 L 159.3600 150.2400 L 159.5011 150.2469 L 159.6409 150.2677 L 159.7780 150.3020 L 159.9111 150.3496 L 160.0388 150.4100 L 160.1555 150.4800 L 160.5600 150.4800 L 160.7011 150.4869 L 160.8409 150.5077 L 160.9780 150.5420 L 161.1111 150.5896 L 161.2388 150.6500 L 161.3555 150.7200 L 162.2400 150.7200 L 162.3811 150.7269 L 162.5209 150.7477 L 162.6580 150.7820 L 162.7911 150.8296 L 162.9188 150.8900 L 163.0355 150.9600 L 163.9200 150.9600 L 164.0611 150.9669 L 164.2009 150.9877 L 164.3380 151.0220 L 164.4711 151.0696 L 164.5988 151.1300 L 164.7155 151.2000 L 165.6000 151.2000 L 165.7411 151.2069 L 165.8809 151.2277 L 166.0180 151.2620 L 166.1511 151.3096 L 166.2788 151.3700 L 166.4000 151.4427 L 166.5135 151.5269 L 166.6182 151.6218 L 166.6765 151.6800 L 166.8000 151.6800 L 166.9411 151.6869 L 167.0809 151.7077 L 167.2180 151.7420 L 167.3511 151.7896 L 167.4788 151.8500 L 167.6000 151.9227 L 167.6708 151.9752 L 167.6980 151.9820 L 167.8311 152.0296 L 167.9588 152.0900 L 168.0800 152.1627 L 168.0818 152.1640 L 168.1411 152.1669 L 168.2809 152.1877 L 168.4180 152.2220 L 168.5511 152.2696 L 168.6788 152.3300 L 168.8000 152.4027 L 168.8018 152.4040 L 168.8611 152.4069 L 169.0009 152.4277 L 169.1380 152.4620 L 169.2711 152.5096 L 169.3988 152.5700 L 169.5155 152.6400 L 169.6800 152.6400 L 169.8211 152.6469 L 169.9609 152.6677 L 170.0980 152.7020 L 170.2311 152.7496 L 170.3588 152.8100 L 170.4755 152.8800 L 170.6400 152.8800 L 170.7811 152.8869 L 170.9209 152.9077 L 171.0580 152.9420 L 171.1911 152.9896 L 171.3188 153.0500 L 171.4355 153.1200 L 171.8400 153.1200 L 171.9811 153.1269 L 172.1209 153.1477 L 172.2580 153.1820 L 172.3911 153.2296 L 172.5188 153.2900 L 172.6355 153.3600 L 173.5200 153.3600 L 173.6611 153.3669 L 173.8009 153.3877 L 173.9380 153.4220 L 174.0711 153.4696 L 174.1988 153.5300 L 174.3155 153.6000 L 174.4800 153.6000 L 174.6211 153.6069 L 174.7609 153.6277 L 174.8980 153.6620 L 175.0311 153.7096 L 175.1588 153.7700 L 175.2755 153.8400 L 175.9200 153.8400 L 176.0611 153.8469 L 176.2009 153.8677 L 176.3380 153.9020 L 176.4711 153.9496 L 176.5988 154.0100 L 176.7155 154.0800 L 177.0445 154.0800 L 177.1612 154.0100 L 177.2889 153.9496 L 177.4220 153.9020 L 177.5591 153.8677 L 177.6989 153.8469 L 177.8400 153.8400 L 179.0400 153.8400 L 179.1811 153.8469 L 179.3209 153.8677 L 179.4580 153.9020 L 179.5911 153.9496 L 179.7188 154.0100 L 179.8400 154.0827 L 179.9535 154.1669 L 180.0582 154.2618 L 180.2982 154.5018 L 180.3931 154.6065 L 180.4773 154.7200 L 180.5500 154.8412 L 180.6104 154.9689 L 180.6580 155.1020 L 180.6923 155.2391 L 180.7131 155.3789 L 180.7200 155.5200 L 180.7200 205.6800 L 180.7131 205.8211 L 180.6923 205.9609 L 180.6580 206.0980 L 180.6104 206.2311 L 180.5500 206.3588 L 180.4773 206.4800 L 180.3931 206.5935 L 180.2982 206.6982 L 180.0582 206.9382 L 179.9535 207.0331 L 179.8400 207.1173 L 179.7188 207.1900 L 179.5911 207.2504 L 179.4580 207.2980 L 179.3209 207.3323 L 179.1811 207.3531 L 179.0400 207.3600 L 9.8400 207.3600 L 9.6989 207.3531 L 9.5591 207.3323 L 9.4220 207.2980 L 9.2889 207.2504 L 9.1612 207.1900 L 9.0400 207.1173 L 8.9265 207.0331 L 8.8218 206.9382 L 8.5818 206.6982 L 8.4869 206.5935 L 8.4027 206.4800 L 8.3300 206.3588 L 8.2696 206.2311 L 8.2220 206.0980 L 8.1877 205.9609 L 8.1669 205.8211 L 8.1600 205.6800 L 8.1600 168.2400 L 8.1669 168.0989 L 8.1877 167.9591 L 8.2220 167.8220 L 8.2696 167.6889 L 8.3300 167.5612 L 8.4027 167.4400 L 8.4552 167.3692 Z" fill="none" stroke="black" stroke-width="0.5" /></svg>