<?xml version="1.0" encoding="utf-8" ?>
<svg baseProfile="full" height="261" version="1.1" viewBox="0 0 189 261" width="189" xmlns="http://www.w3.org/2000/svg" xmlns:ev="http://www.w3.org/2001/xml-events" xmlns:xlink="http://www.w3.org/1999/xlink"><defs /><path d="M 73.9200 32.1600 L 73.6800 32.4000 L 71.7600 32.4000 L 71.5200 32.6400 L 70.3200 32.6400 L 70.0800 32.8800 L 69.3600 32.8800 L 69.1200 33.1200 L 68.1600 33.1200 L 67.9200 33.3600 L 67.4400 33.3600 L 67.2000 33.6000 L 66.7200 33.6000 L 66.4800 33.8400 L 66.0000 33.8400 L 65.7600 34.0800 L 65.5200 34.0800 L 65.2800 34.3200 L 64.8000 34.3200 L 64.5600 34.5600 L 64.3200 34.5600 L 64.0800 34.8000 L 63.8400 34.8000 L 63.6000 35.0400 L 63.3600 35.0400 L 63.1200 35.2800 L 62.8800 35.2800 L 62.4000 35.7600 L 62.1600 35.7600 L 61.9200 36.0000 L 61.6800 36.0000 L 61.2000 36.4800 L 60.9600 36.4800 L 60.2400 37.2000 L 60.0000 37.2000 L 58.3200 38.8800 L 58.3200 39.1200 L 57.3600 40.0800 L 57.3600 40.3200 L 56.8800 40.8000 L 56.8800 41.0400 L 56.4000 41.5200 L 56.4000 41.7600 L 56.1600 42.0000 L 56.1600 42.2400 L 55.9200 42.4800 L 55.9200 42.7200 L 55.6800 42.9600 L 55.6800 43.2000 L 55.4400 43.4400 L 55.4400 43.6800 L 54.4800 44.6400 L 54.4800 44.8800 L 53.7600 45.6000 L 53.7600 45.8400 L 53.5200 46.0800 L 53.5200 46.5600 L 53.2800 46.8000 L 53.2800 47.0400 L 53.0400 47.2800 L 53.0400 47.7600 L 52.8000 48.0000 L 52.8000 48.4800 L 52.5600 48.7200 L 52.5600 49.2000 L 52.3200 49.4400 L 52.3200 49.9200 L 52.0800 50.1600 L 52.0800 50.6400 L 51.8400 50.8800 L 51.8400 52.3200 L 51.6000 52.5600 L 51.6000 57.1200 L 51.8400 57.3600 L 51.8400 59.2800 L 52.0800 59.5200 L 52.0800 61.4400 L 52.3200 61.6800 L 52.3200 63.1200 L 52.5600 63.3600 L 52.5600 64.0800 L 52.8000 64.3200 L 52.8000 65.2800 L 53.0400 65.5200 L 53.0400 66.2400 L 53.2800 66.4800 L 53.2800 67.4400 L 53.5200 67.6800 L 53.5200 68.1600 L 53.7600 68.4000 L 53.7600 69.3600 L 53.2800 69.8400 L 53.2800 72.0000 L 53.5200 72.2400 L 53.5200 72.4800 L 53.7600 72.7200 L 53.7600 73.2000 L 54.0000 73.4400 L 54.0000 73.9200 L 54.2400 74.1600 L 54.2400 74.4000 L 54.4800 74.6400 L 54.4800 74.8800 L 54.7200 75.1200 L 54.7200 75.3600 L 55.4400 76.0800 L 55.9200 76.0800 L 56.1600 76.3200 L 56.4000 76.3200 L 57.1200 77.0400 L 57.1200 78.4800 L 57.3600 78.7200 L 57.3600 78.9600 L 57.8400 79.4400 L 57.8400 79.6800 L 58.3200 80.1600 L 58.3200 80.4000 L 58.8000 80.8800 L 58.8000 81.1200 L 60.4800 82.8000 L 60.4800 83.0400 L 60.7200 83.2800 L 60.7200 83.5200 L 60.9600 83.7600 L 60.9600 84.0000 L 61.2000 84.2400 L 61.2000 84.4800 L 61.4400 84.7200 L 61.4400 84.9600 L 61.6800 85.2000 L 61.6800 85.4400 L 61.9200 85.6800 L 61.9200 85.9200 L 62.1600 86.1600 L 62.1600 86.4000 L 62.4000 86.6400 L 62.4000 86.8800 L 62.6400 87.1200 L 62.6400 87.3600 L 63.3600 88.0800 L 63.3600 88.8000 L 62.6400 89.5200 L 62.1600 89.5200 L 61.9200 89.7600 L 61.6800 89.7600 L 61.4400 90.0000 L 61.2000 90.0000 L 60.9600 90.2400 L 60.7200 90.2400 L 60.4800 90.4800 L 60.2400 90.4800 L 60.0000 90.7200 L 59.5200 90.7200 L 59.2800 90.9600 L 59.0400 90.9600 L 58.5600 91.4400 L 58.3200 91.4400 L 58.0800 91.6800 L 57.8400 91.6800 L 57.6000 91.9200 L 57.3600 91.9200 L 57.1200 92.1600 L 56.8800 92.1600 L 56.6400 92.4000 L 56.4000 92.4000 L 56.1600 92.6400 L 55.9200 92.6400 L 55.6800 92.8800 L 55.2000 92.8800 L 54.9600 93.1200 L 54.7200 93.1200 L 54.4800 93.3600 L 54.0000 93.3600 L 53.7600 93.6000 L 53.2800 93.6000 L 53.0400 93.8400 L 52.5600 93.8400 L 52.3200 94.0800 L 51.8400 94.0800 L 51.6000 94.3200 L 51.1200 94.3200 L 50.8800 94.5600 L 50.4000 94.5600 L 50.1600 94.8000 L 49.9200 94.8000 L 49.6800 95.0400 L 49.4400 95.0400 L 49.2000 95.2800 L 48.9600 95.2800 L 48.7200 95.5200 L 48.4800 95.5200 L 48.2400 95.7600 L 48.0000 95.7600 L 46.3200 97.4400 L 46.0800 97.4400 L 45.3600 98.1600 L 45.1200 98.1600 L 44.6400 98.6400 L 44.4000 98.6400 L 43.9200 99.1200 L 43.6800 99.1200 L 43.4400 99.3600 L 43.4400 99.6000 L 41.5200 101.5200 L 41.5200 101.7600 L 40.8000 102.4800 L 40.8000 102.7200 L 40.5600 102.9600 L 40.5600 103.2000 L 40.3200 103.4400 L 40.3200 103.6800 L 40.0800 103.9200 L 40.0800 104.4000 L 39.8400 104.6400 L 39.8400 106.3200 L 39.6000 106.5600 L 39.6000 107.5200 L 39.3600 107.7600 L 39.3600 108.7200 L 39.1200 108.9600 L 39.1200 110.4000 L 39.3600 110.6400 L 39.3600 111.1200 L 39.6000 111.3600 L 39.6000 111.6000 L 39.8400 111.8400 L 39.8400 112.3200 L 40.0800 112.5600 L 40.0800 113.0400 L 40.3200 113.2800 L 40.3200 115.6800 L 40.5600 115.9200 L 40.5600 116.8800 L 40.8000 117.1200 L 40.8000 117.6000 L 41.2800 118.0800 L 41.2800 118.3200 L 41.5200 118.5600 L 41.5200 118.8000 L 41.7600 119.0400 L 41.7600 119.2800 L 42.0000 119.5200 L 42.0000 119.7600 L 42.2400 120.0000 L 42.2400 120.4800 L 42.4800 120.7200 L 42.4800 120.9600 L 42.7200 121.2000 L 42.7200 121.6800 L 42.9600 121.9200 L 42.9600 122.4000 L 43.4400 122.8800 L 43.6800 122.8800 L 44.8800 124.0800 L 44.8800 124.3200 L 45.1200 124.5600 L 45.1200 124.8000 L 45.6000 125.2800 L 45.6000 125.5200 L 46.0800 126.0000 L 46.5600 126.0000 L 47.0400 126.4800 L 47.0400 126.7200 L 47.2800 126.9600 L 47.2800 127.4400 L 47.5200 127.6800 L 47.5200 130.0800 L 47.2800 130.3200 L 47.2800 130.8000 L 47.5200 131.0400 L 47.5200 132.2400 L 47.7600 132.4800 L 47.7600 133.6800 L 48.0000 133.9200 L 48.0000 135.6000 L 48.2400 135.8400 L 48.2400 137.2800 L 48.4800 137.5200 L 48.4800 138.2400 L 48.7200 138.4800 L 48.7200 138.9600 L 48.9600 139.2000 L 48.9600 139.6800 L 49.2000 139.9200 L 49.2000 140.1600 L 49.4400 140.4000 L 49.4400 140.8800 L 49.6800 141.1200 L 49.6800 141.3600 L 49.9200 141.6000 L 49.9200 141.8400 L 50.1600 142.0800 L 50.1600 142.3200 L 50.6400 142.8000 L 50.6400 143.0400 L 50.8800 143.2800 L 50.8800 143.5200 L 51.3600 144.0000 L 51.3600 144.2400 L 51.8400 144.7200 L 51.8400 144.9600 L 53.2800 146.4000 L 53.2800 146.6400 L 54.0000 147.3600 L 54.9600 147.3600 L 55.2000 147.6000 L 55.4400 147.6000 L 55.9200 148.0800 L 55.9200 148.3200 L 55.4400 148.8000 L 55.2000 148.8000 L 55.2000 150.2400 L 54.9600 150.4800 L 54.9600 151.6800 L 55.2000 151.9200 L 55.2000 152.6400 L 55.4400 152.8800 L 55.6800 152.8800 L 56.1600 153.3600 L 56.1600 153.6000 L 56.4000 153.8400 L 56.4000 155.2800 L 56.6400 155.5200 L 56.6400 156.2400 L 56.8800 156.4800 L 56.8800 159.1200 L 56.4000 159.6000 L 56.4000 160.0800 L 55.9200 160.5600 L 55.6800 160.5600 L 54.9600 161.2800 L 54.9600 161.5200 L 54.4800 162.0000 L 54.2400 162.0000 L 54.0000 162.2400 L 54.0000 163.2000 L 54.2400 163.4400 L 54.2400 163.6800 L 54.4800 163.9200 L 54.4800 164.8800 L 54.7200 165.1200 L 54.7200 165.8400 L 54.9600 166.0800 L 54.9600 167.2800 L 55.2000 167.5200 L 55.2000 168.4800 L 55.4400 168.7200 L 55.4400 169.4400 L 55.6800 169.6800 L 55.6800 170.1600 L 55.9200 170.4000 L 55.9200 170.8800 L 56.1600 171.1200 L 56.1600 171.3600 L 56.4000 171.6000 L 56.4000 172.0800 L 56.8800 172.5600 L 56.8800 173.0400 L 56.6400 173.2800 L 56.1600 173.2800 L 55.9200 173.0400 L 55.6800 173.0400 L 55.4400 172.8000 L 55.2000 172.8000 L 54.9600 172.5600 L 54.7200 172.5600 L 54.2400 172.0800 L 54.0000 172.0800 L 54.0000 172.5600 L 53.7600 172.8000 L 53.7600 173.2800 L 53.5200 173.5200 L 53.5200 173.7600 L 53.2800 174.0000 L 53.2800 174.4800 L 53.0400 174.7200 L 53.0400 175.4400 L 52.8000 175.6800 L 52.8000 176.8800 L 52.5600 177.1200 L 52.5600 178.8000 L 52.3200 179.0400 L 52.3200 180.0000 L 52.5600 180.2400 L 52.5600 180.7200 L 53.2800 181.4400 L 54.0000 181.4400 L 54.4800 181.9200 L 54.9600 181.9200 L 55.2000 182.1600 L 56.4000 182.1600 L 56.8800 182.6400 L 56.8800 182.8800 L 55.9200 183.8400 L 55.9200 184.0800 L 55.4400 184.5600 L 55.4400 184.8000 L 54.9600 185.2800 L 54.9600 185.5200 L 54.7200 185.7600 L 54.7200 186.0000 L 54.4800 186.2400 L 54.4800 186.4800 L 54.2400 186.7200 L 54.2400 186.9600 L 54.0000 187.2000 L 54.0000 187.9200 L 53.7600 188.1600 L 53.7600 189.1200 L 53.5200 189.3600 L 53.5200 190.3200 L 53.2800 190.5600 L 53.2800 192.9600 L 53.5200 193.2000 L 53.5200 193.6800 L 53.7600 193.9200 L 53.7600 194.4000 L 54.2400 194.8800 L 54.2400 195.1200 L 54.4800 195.3600 L 54.4800 196.3200 L 54.2400 196.5600 L 54.2400 198.2400 L 54.4800 198.4800 L 54.4800 198.7200 L 54.7200 198.9600 L 54.7200 199.2000 L 54.9600 199.4400 L 54.9600 200.4000 L 54.7200 200.6400 L 54.7200 201.6000 L 54.4800 201.8400 L 54.4800 202.3200 L 54.7200 202.5600 L 54.7200 203.0400 L 54.9600 203.2800 L 54.9600 203.5200 L 55.6800 204.2400 L 55.6800 209.2800 L 55.9200 209.5200 L 55.9200 219.8400 L 55.6800 220.0800 L 55.6800 220.8000 L 55.4400 221.0400 L 55.4400 224.8800 L 55.2000 225.1200 L 55.2000 226.0800 L 54.9600 226.3200 L 54.9600 227.2800 L 127.4400 227.2800 L 127.4400 226.3200 L 127.2000 226.0800 L 127.2000 225.3600 L 126.9600 225.1200 L 126.9600 220.0800 L 126.7200 219.8400 L 126.7200 219.1200 L 126.4800 218.8800 L 126.4800 216.4800 L 126.2400 216.2400 L 126.2400 215.5200 L 126.0000 215.2800 L 126.0000 214.5600 L 125.7600 214.3200 L 125.7600 212.8800 L 125.5200 212.6400 L 125.5200 212.1600 L 125.2800 211.9200 L 125.2800 210.0000 L 125.0400 209.7600 L 125.0400 209.0400 L 124.8000 208.8000 L 124.8000 208.0800 L 124.5600 207.8400 L 124.5600 206.1600 L 124.8000 205.9200 L 124.8000 205.4400 L 124.5600 205.2000 L 124.5600 204.7200 L 124.3200 204.4800 L 124.3200 204.2400 L 124.0800 204.0000 L 124.0800 203.5200 L 123.8400 203.2800 L 123.8400 202.3200 L 124.0800 202.0800 L 124.0800 201.8400 L 124.3200 201.6000 L 124.3200 199.2000 L 124.0800 198.9600 L 124.0800 197.2800 L 124.8000 196.5600 L 125.0400 196.5600 L 125.7600 195.8400 L 126.0000 195.8400 L 126.7200 195.1200 L 126.7200 194.6400 L 126.2400 194.1600 L 126.2400 193.9200 L 126.0000 193.6800 L 126.0000 193.4400 L 123.8400 191.2800 L 123.8400 191.0400 L 123.1200 190.3200 L 123.1200 190.0800 L 122.6400 189.6000 L 122.6400 189.3600 L 122.1600 188.8800 L 122.1600 187.9200 L 122.6400 187.4400 L 122.6400 187.2000 L 125.0400 184.8000 L 125.2800 184.8000 L 125.7600 184.3200 L 125.7600 183.6000 L 125.2800 183.1200 L 125.2800 182.8800 L 124.8000 182.4000 L 124.8000 182.1600 L 124.3200 181.6800 L 124.0800 181.6800 L 122.1600 179.7600 L 122.1600 179.5200 L 121.6800 179.0400 L 121.6800 178.8000 L 121.2000 178.3200 L 121.2000 178.0800 L 120.4800 177.3600 L 120.4800 177.1200 L 119.7600 176.4000 L 119.5200 176.4000 L 119.0400 175.9200 L 118.8000 175.9200 L 118.5600 175.6800 L 118.5600 175.4400 L 118.3200 175.2000 L 118.3200 174.7200 L 118.0800 174.4800 L 118.0800 174.0000 L 117.6000 173.5200 L 117.6000 173.2800 L 117.3600 173.0400 L 117.3600 172.3200 L 117.6000 172.0800 L 117.6000 171.8400 L 117.3600 171.6000 L 117.3600 170.6400 L 117.1200 170.4000 L 117.1200 170.1600 L 117.6000 169.6800 L 117.6000 169.4400 L 117.8400 169.2000 L 117.8400 168.7200 L 118.0800 168.4800 L 118.0800 167.2800 L 117.8400 167.0400 L 117.8400 165.1200 L 117.6000 164.8800 L 117.6000 163.4400 L 117.8400 163.2000 L 117.8400 161.5200 L 118.0800 161.2800 L 118.0800 152.1600 L 117.8400 151.9200 L 117.8400 151.2000 L 117.6000 150.9600 L 117.6000 148.3200 L 117.8400 148.0800 L 117.8400 147.8400 L 118.0800 147.6000 L 118.0800 146.8800 L 118.3200 146.6400 L 118.3200 146.1600 L 118.5600 145.9200 L 118.5600 145.6800 L 118.8000 145.4400 L 118.8000 145.2000 L 119.2800 144.7200 L 119.2800 144.4800 L 120.0000 143.7600 L 120.0000 143.5200 L 120.9600 142.5600 L 120.9600 142.3200 L 121.6800 141.6000 L 121.6800 141.3600 L 123.3600 139.6800 L 123.3600 139.4400 L 124.5600 138.2400 L 124.5600 138.0000 L 125.2800 137.2800 L 125.2800 137.0400 L 126.0000 136.3200 L 126.0000 136.0800 L 126.4800 135.6000 L 126.4800 135.3600 L 126.9600 134.8800 L 126.9600 134.6400 L 127.2000 134.4000 L 127.2000 134.1600 L 127.4400 133.9200 L 127.4400 133.6800 L 127.6800 133.4400 L 127.6800 133.2000 L 129.1200 131.7600 L 129.1200 131.5200 L 130.0800 130.5600 L 130.0800 130.3200 L 131.0400 129.3600 L 131.0400 129.1200 L 132.4800 127.6800 L 132.4800 127.4400 L 133.2000 126.7200 L 133.2000 126.4800 L 134.8800 124.8000 L 135.6000 125.5200 L 135.6000 126.0000 L 135.8400 126.2400 L 135.8400 126.7200 L 136.0800 126.9600 L 136.0800 127.4400 L 136.3200 127.6800 L 136.3200 128.1600 L 136.5600 128.4000 L 136.5600 128.8800 L 136.8000 129.1200 L 136.8000 129.6000 L 137.0400 129.8400 L 137.0400 130.3200 L 137.2800 130.5600 L 137.2800 131.0400 L 137.5200 131.2800 L 137.5200 131.5200 L 137.7600 131.7600 L 137.7600 132.0000 L 138.0000 132.2400 L 138.4800 132.2400 L 138.7200 132.0000 L 138.9600 132.0000 L 139.4400 131.5200 L 139.4400 131.2800 L 140.6400 130.0800 L 140.6400 129.8400 L 140.8800 129.6000 L 140.8800 128.6400 L 140.6400 128.4000 L 140.6400 127.6800 L 140.4000 127.4400 L 140.4000 126.4800 L 140.1600 126.2400 L 140.1600 125.2800 L 139.9200 125.0400 L 139.9200 124.3200 L 139.6800 124.0800 L 139.6800 123.6000 L 139.4400 123.3600 L 139.4400 122.6400 L 139.2000 122.4000 L 139.2000 122.1600 L 139.9200 121.4400 L 140.1600 121.4400 L 140.4000 121.2000 L 140.6400 121.2000 L 140.8800 120.9600 L 141.1200 120.9600 L 141.3600 120.7200 L 141.6000 120.7200 L 141.8400 120.4800 L 142.3200 120.4800 L 143.2800 119.5200 L 143.2800 119.2800 L 144.2400 118.3200 L 144.9600 118.3200 L 145.2000 118.0800 L 155.2800 118.0800 L 155.5200 118.3200 L 160.8000 118.3200 L 161.0400 118.0800 L 163.6800 118.0800 L 163.9200 117.8400 L 165.6000 117.8400 L 165.8400 117.6000 L 166.8000 117.6000 L 167.0400 117.3600 L 167.2800 117.3600 L 167.5200 117.1200 L 168.2400 117.1200 L 168.4800 116.8800 L 168.7200 116.8800 L 168.9600 116.6400 L 169.2000 116.6400 L 169.6800 116.1600 L 169.9200 116.1600 L 170.4000 115.6800 L 170.6400 115.6800 L 171.1200 115.2000 L 171.3600 115.2000 L 172.5600 114.0000 L 172.8000 114.0000 L 174.0000 112.8000 L 174.0000 112.5600 L 174.2400 112.3200 L 174.2400 112.0800 L 174.4800 111.8400 L 174.4800 111.1200 L 174.7200 110.8800 L 174.7200 109.9200 L 174.4800 109.6800 L 174.4800 108.9600 L 174.2400 108.7200 L 174.2400 108.2400 L 174.0000 108.0000 L 174.0000 107.5200 L 173.7600 107.2800 L 173.7600 107.0400 L 173.5200 106.8000 L 173.5200 106.3200 L 173.2800 106.0800 L 173.2800 105.3600 L 173.0400 105.1200 L 173.0400 104.8800 L 172.8000 104.6400 L 172.8000 104.4000 L 172.3200 103.9200 L 172.3200 103.6800 L 171.8400 103.2000 L 171.8400 102.9600 L 171.3600 102.4800 L 171.3600 102.2400 L 170.8800 101.7600 L 170.8800 101.5200 L 169.9200 100.5600 L 169.9200 100.3200 L 169.4400 99.8400 L 169.4400 99.6000 L 168.4800 98.6400 L 168.4800 98.4000 L 167.5200 97.4400 L 167.5200 97.2000 L 166.5600 96.2400 L 166.5600 96.0000 L 166.3200 95.7600 L 166.3200 95.5200 L 166.0800 95.2800 L 166.0800 95.0400 L 165.8400 94.8000 L 165.8400 94.5600 L 165.6000 94.3200 L 165.6000 94.0800 L 165.3600 93.8400 L 165.3600 93.6000 L 164.8800 93.1200 L 164.8800 92.8800 L 164.6400 92.6400 L 164.6400 92.4000 L 164.1600 91.9200 L 164.1600 91.6800 L 163.9200 91.4400 L 163.9200 91.2000 L 163.4400 90.7200 L 163.4400 90.4800 L 162.9600 90.0000 L 162.9600 89.7600 L 162.2400 89.0400 L 162.2400 88.8000 L 161.2800 87.8400 L 161.2800 87.6000 L 159.8400 86.1600 L 159.8400 85.9200 L 159.6000 85.6800 L 159.3600 85.6800 L 157.2000 83.5200 L 156.9600 83.5200 L 156.0000 82.5600 L 155.7600 82.5600 L 155.2800 82.0800 L 155.0400 82.0800 L 154.5600 81.6000 L 154.3200 81.6000 L 154.0800 81.3600 L 153.8400 81.3600 L 153.6000 81.1200 L 153.3600 81.1200 L 152.8800 80.6400 L 152.6400 80.6400 L 152.4000 80.4000 L 152.1600 80.4000 L 151.9200 80.1600 L 151.6800 80.1600 L 151.4400 79.9200 L 151.2000 79.9200 L 150.9600 79.6800 L 150.4800 79.6800 L 150.2400 79.4400 L 150.0000 79.4400 L 149.7600 79.2000 L 149.5200 79.2000 L 149.2800 78.9600 L 148.8000 78.9600 L 148.3200 78.4800 L 148.3200 78.2400 L 148.5600 78.0000 L 148.8000 78.0000 L 149.0400 77.7600 L 149.2800 77.7600 L 149.5200 77.5200 L 149.7600 77.5200 L 150.0000 77.2800 L 150.2400 77.2800 L 150.4800 77.0400 L 150.7200 77.0400 L 151.2000 76.5600 L 151.2000 75.8400 L 150.9600 75.6000 L 150.9600 75.3600 L 150.7200 75.1200 L 150.4800 75.1200 L 150.2400 74.8800 L 150.0000 74.8800 L 149.7600 74.6400 L 149.2800 74.6400 L 149.0400 74.4000 L 147.1200 74.4000 L 146.8800 74.6400 L 143.5200 74.6400 L 143.2800 74.4000 L 142.8000 74.4000 L 142.3200 73.9200 L 142.3200 73.2000 L 142.5600 72.9600 L 142.5600 71.7600 L 142.8000 71.5200 L 142.8000 71.0400 L 143.0400 70.8000 L 143.0400 70.3200 L 142.8000 70.0800 L 142.8000 69.8400 L 142.5600 69.6000 L 142.5600 69.3600 L 142.0800 68.8800 L 141.6000 68.8800 L 141.3600 68.6400 L 140.8800 68.6400 L 140.6400 68.8800 L 140.1600 68.8800 L 139.6800 69.3600 L 139.4400 69.3600 L 139.2000 69.6000 L 139.2000 69.8400 L 138.9600 70.0800 L 138.9600 70.3200 L 138.7200 70.5600 L 138.7200 70.8000 L 138.4800 71.0400 L 138.4800 71.2800 L 138.0000 71.7600 L 138.0000 72.0000 L 137.7600 72.2400 L 137.7600 72.7200 L 137.5200 72.9600 L 137.5200 73.4400 L 136.8000 74.1600 L 136.3200 74.1600 L 135.6000 73.4400 L 135.6000 72.2400 L 135.3600 72.0000 L 135.3600 71.0400 L 135.1200 70.8000 L 135.1200 69.3600 L 134.8800 69.1200 L 134.8800 68.6400 L 134.6400 68.4000 L 134.6400 67.9200 L 134.4000 67.6800 L 134.4000 67.4400 L 134.1600 67.2000 L 133.9200 67.2000 L 133.6800 66.9600 L 132.7200 66.9600 L 132.4800 67.2000 L 132.2400 67.2000 L 132.0000 67.4400 L 131.7600 67.4400 L 131.5200 67.6800 L 131.5200 67.9200 L 131.2800 68.1600 L 131.2800 68.4000 L 131.0400 68.6400 L 131.0400 69.3600 L 130.8000 69.6000 L 130.8000 71.2800 L 131.0400 71.5200 L 131.0400 73.9200 L 131.2800 74.1600 L 131.2800 74.6400 L 131.5200 74.8800 L 131.5200 75.3600 L 131.2800 75.6000 L 131.2800 75.8400 L 131.0400 76.0800 L 130.5600 76.0800 L 130.0800 75.6000 L 130.0800 75.3600 L 129.6000 74.8800 L 129.6000 74.6400 L 128.8800 73.9200 L 128.8800 73.6800 L 128.1600 72.9600 L 128.1600 72.7200 L 127.9200 72.4800 L 127.9200 72.2400 L 127.2000 71.5200 L 127.2000 71.2800 L 126.7200 70.8000 L 126.7200 70.5600 L 126.4800 70.3200 L 126.4800 70.0800 L 125.7600 69.3600 L 125.7600 69.1200 L 124.3200 67.6800 L 122.8800 67.6800 L 122.4000 68.1600 L 122.1600 68.1600 L 121.4400 68.8800 L 121.4400 69.1200 L 121.2000 69.3600 L 121.2000 70.8000 L 121.4400 71.0400 L 121.4400 71.2800 L 122.1600 72.0000 L 122.1600 72.2400 L 122.4000 72.4800 L 122.4000 72.7200 L 122.8800 73.2000 L 122.8800 73.4400 L 123.3600 73.9200 L 123.3600 74.1600 L 125.2800 76.0800 L 125.2800 76.3200 L 125.0400 76.5600 L 125.0400 77.0400 L 125.2800 77.2800 L 125.2800 77.5200 L 126.0000 78.2400 L 126.0000 78.4800 L 126.4800 78.9600 L 126.4800 79.4400 L 125.5200 80.4000 L 125.5200 80.6400 L 124.8000 81.3600 L 124.8000 81.6000 L 124.3200 82.0800 L 124.3200 82.5600 L 124.0800 82.8000 L 124.0800 84.4800 L 124.3200 84.7200 L 124.3200 84.9600 L 124.0800 85.2000 L 124.0800 85.6800 L 123.8400 85.9200 L 123.6000 85.6800 L 123.3600 85.6800 L 121.2000 83.5200 L 121.2000 83.2800 L 120.9600 83.0400 L 120.9600 82.8000 L 120.7200 82.5600 L 120.7200 82.3200 L 120.2400 81.8400 L 120.2400 81.6000 L 118.8000 80.1600 L 118.3200 80.1600 L 118.0800 79.9200 L 117.6000 79.9200 L 117.3600 79.6800 L 115.9200 79.6800 L 115.6800 79.4400 L 112.3200 79.4400 L 112.0800 79.2000 L 109.9200 79.2000 L 109.6800 78.9600 L 107.5200 78.9600 L 107.2800 79.2000 L 106.3200 79.2000 L 106.0800 79.4400 L 105.3600 79.4400 L 105.1200 79.6800 L 104.1600 79.6800 L 103.9200 79.9200 L 103.2000 79.9200 L 102.9600 80.1600 L 102.2400 80.1600 L 102.0000 80.4000 L 101.0400 80.4000 L 100.8000 80.1600 L 100.8000 78.4800 L 101.0400 78.2400 L 101.0400 76.3200 L 101.2800 76.0800 L 101.2800 75.1200 L 102.0000 74.4000 L 102.2400 74.4000 L 102.2400 74.1600 L 102.4800 73.9200 L 102.4800 73.2000 L 102.7200 72.9600 L 102.7200 70.8000 L 102.4800 70.5600 L 102.4800 70.3200 L 102.2400 70.0800 L 102.2400 69.8400 L 101.7600 69.8400 L 101.2800 69.3600 L 101.2800 67.4400 L 101.5200 67.2000 L 101.5200 66.0000 L 101.7600 65.7600 L 101.7600 64.3200 L 102.0000 64.0800 L 102.0000 62.8800 L 102.2400 62.6400 L 102.2400 61.4400 L 102.4800 61.2000 L 102.4800 60.7200 L 103.4400 59.7600 L 103.4400 59.2800 L 103.2000 59.0400 L 103.2000 58.8000 L 102.9600 58.5600 L 102.9600 56.6400 L 102.7200 56.6400 L 102.0000 55.9200 L 102.0000 55.6800 L 101.7600 55.4400 L 101.7600 55.2000 L 101.5200 54.9600 L 101.5200 54.7200 L 101.0400 54.2400 L 101.0400 54.0000 L 100.8000 53.7600 L 100.8000 53.5200 L 100.5600 53.2800 L 100.5600 53.0400 L 100.3200 53.0400 L 99.6000 52.3200 L 99.6000 51.8400 L 99.3600 51.6000 L 99.3600 51.1200 L 99.1200 50.8800 L 99.1200 50.4000 L 98.8800 50.1600 L 98.8800 49.9200 L 98.6400 49.6800 L 98.6400 49.4400 L 98.1600 48.9600 L 98.1600 48.7200 L 97.6800 48.2400 L 97.6800 47.7600 L 97.4400 47.5200 L 97.4400 47.2800 L 97.2000 47.0400 L 97.2000 46.5600 L 96.9600 46.3200 L 96.9600 46.0800 L 96.7200 45.8400 L 96.7200 45.6000 L 96.4800 45.3600 L 96.4800 45.1200 L 96.2400 44.8800 L 96.2400 44.6400 L 96.0000 44.4000 L 96.0000 44.1600 L 95.7600 43.9200 L 95.7600 43.6800 L 95.2800 43.2000 L 95.2800 42.9600 L 94.5600 42.2400 L 94.5600 42.0000 L 93.1200 40.5600 L 93.1200 40.3200 L 92.4000 39.6000 L 92.1600 39.6000 L 90.9600 38.4000 L 90.7200 38.4000 L 89.5200 37.2000 L 89.2800 37.2000 L 89.0400 36.9600 L 88.8000 36.9600 L 88.3200 36.4800 L 88.0800 36.4800 L 87.8400 36.2400 L 87.6000 36.2400 L 86.8800 35.5200 L 86.6400 35.5200 L 85.9200 34.8000 L 85.6800 34.8000 L 85.2000 34.3200 L 84.9600 34.3200 L 84.7200 34.0800 L 84.4800 34.0800 L 84.0000 33.6000 L 83.5200 33.6000 L 83.2800 33.3600 L 83.0400 33.3600 L 82.8000 33.1200 L 82.3200 33.1200 L 82.0800 32.8800 L 81.3600 32.8800 L 81.1200 32.6400 L 80.1600 32.6400 L 79.9200 32.4000 L 78.7200 32.4000 L 78.4800 32.1600 L 73.9200 32.1600 Z M 126.2400 75.1200 L 126.4800 74.8800 L 126.7200 74.8800 L 126.9600 75.1200 L 126.7200 75.3600 L 126.4800 75.3600 L 126.2400 75.1200 Z M 78.2400 207.8400 L 78.4800 207.6000 L 78.7200 207.8400 L 78.9600 207.8400 L 79.2000 208.0800 L 79.2000 208.3200 L 78.9600 208.5600 L 78.7200 208.5600 L 78.2400 208.0800 L 78.2400 207.8400 Z M 70.3200 207.3600 L 70.5600 207.1200 L 71.5200 207.1200 L 71.7600 207.3600 L 71.7600 207.6000 L 71.5200 207.8400 L 71.2800 207.8400 L 71.0400 208.0800 L 70.5600 208.0800 L 70.3200 207.8400 L 70.3200 207.3600 Z M 64.0800 83.7600 L 65.0400 84.7200 L 65.2800 84.7200 L 65.5200 84.9600 L 66.0000 84.9600 L 66.2400 85.2000 L 66.2400 85.4400 L 66.4800 85.6800 L 66.4800 86.1600 L 66.7200 86.4000 L 66.7200 87.3600 L 66.0000 88.0800 L 65.7600 88.0800 L 65.5200 88.3200 L 65.2800 88.3200 L 65.0400 88.5600 L 64.0800 87.6000 L 64.0800 85.4400 L 63.8400 85.2000 L 63.8400 84.9600 L 63.6000 84.7200 L 63.6000 84.2400 L 64.0800 83.7600 Z M 64.0800 202.8000 L 64.3200 202.5600 L 64.5600 202.8000 L 64.3200 203.0400 L 64.0800 202.8000 Z M 62.4000 203.2800 L 62.6400 203.0400 L 62.8800 203.0400 L 63.1200 203.2800 L 62.8800 203.5200 L 62.6400 203.5200 L 62.4000 203.2800 Z M 58.8000 205.6800 L 59.0400 205.4400 L 59.2800 205.2000 L 59.5200 205.4400 L 59.2800 205.6800 L 59.0400 205.9200 L 58.8000 205.6800 Z" fill="none" stroke="black" stroke-width="0.5" /></svg>