<?xml version="1.0" encoding="utf-8" ?>
<svg baseProfile="full" height="261" version="1.1" viewBox="0 0 189 261" width="189" xmlns="http://www.w3.org/2000/svg" xmlns:ev="http://www.w3.org/2001/xml-events" xmlns:xlink="http://www.w3.org/1999/xlink"><defs /><path d="M 40.5600 109.5155 L 40.5600 109.8445 L 40.6300 109.9612 L 40.6904 110.0889 L 40.7380 110.2220 L 40.7723 110.3591 L 40.7931 110.4989 L 40.7960 110.5582 L 40.7973 110.5600 L 40.8700 110.6812 L 40.9304 110.8089 L 40.9780 110.9420 L 40.9848 110.9692 L 41.0373 111.0400 L 41.1100 111.1612 L 41.1704 111.2889 L 41.2180 111.4220 L 41.2523 111.5591 L 41.2731 111.6989 L 41.2760 111.7582 L 41.2773 111.7600 L 41.3500 111.8812 L 41.4104 112.0089 L 41.4580 112.1420 L 41.4923 112.2791 L 41.5131 112.4189 L 41.5160 112.4782 L 41.5173 112.4800 L 41.5900 112.6012 L 41.6504 112.7289 L 41.6980 112.8620 L 41.7323 112.9991 L 41.7531 113.1389 L 41.7600 113.2800 L 41.7600 115.1245 L 41.8300 115.2412 L 41.8904 115.3689 L 41.9380 115.5020 L 41.9723 115.6391 L 41.9931 115.7789 L 42.0000 115.9200 L 42.0000 116.3245 L 42.0700 116.4412 L 42.1304 116.5689 L 42.1780 116.7020 L 42.2123 116.8391 L 42.2331 116.9789 L 42.2340 116.9975 L 42.2982 117.0618 L 42.3931 117.1665 L 42.4773 117.2800 L 42.5500 117.4012 L 42.6104 117.5289 L 42.6580 117.6620 L 42.6648 117.6892 L 42.7173 117.7600 L 42.7900 117.8812 L 42.8504 118.0089 L 42.8980 118.1420 L 42.9048 118.1692 L 42.9573 118.2400 L 43.0300 118.3612 L 43.0904 118.4889 L 43.1380 118.6220 L 43.1448 118.6492 L 43.1973 118.7200 L 43.2700 118.8412 L 43.3304 118.9689 L 43.3780 119.1020 L 43.3848 119.1292 L 43.4373 119.2000 L 43.5100 119.3212 L 43.5704 119.4489 L 43.6180 119.5820 L 43.6523 119.7191 L 43.6731 119.8589 L 43.6760 119.9182 L 43.6773 119.9200 L 43.7500 120.0412 L 43.8104 120.1689 L 43.8580 120.3020 L 43.8648 120.3292 L 43.9173 120.4000 L 43.9900 120.5212 L 44.0504 120.6489 L 44.0980 120.7820 L 44.1323 120.9191 L 44.1531 121.0589 L 44.1560 121.1182 L 44.1573 121.1200 L 44.2300 121.2412 L 44.2904 121.3689 L 44.3380 121.5020 L 44.3662 121.6144 L 44.4800 121.6827 L 44.5935 121.7669 L 44.6982 121.8618 L 45.8982 123.0618 L 45.9931 123.1665 L 46.0773 123.2800 L 46.1500 123.4012 L 46.2104 123.5289 L 46.2580 123.6620 L 46.2648 123.6892 L 46.3173 123.7600 L 46.3900 123.8812 L 46.4504 124.0089 L 46.4977 124.1413 L 46.6182 124.2618 L 46.7131 124.3665 L 46.7973 124.4800 L 46.8656 124.5938 L 46.9780 124.6220 L 47.1111 124.6696 L 47.2388 124.7300 L 47.3600 124.8027 L 47.4735 124.8869 L 47.5782 124.9818 L 48.0582 125.4618 L 48.1531 125.5665 L 48.2373 125.6800 L 48.3100 125.8012 L 48.3704 125.9289 L 48.4180 126.0620 L 48.4248 126.0892 L 48.4773 126.1600 L 48.5500 126.2812 L 48.6104 126.4089 L 48.6580 126.5420 L 48.6923 126.6791 L 48.7131 126.8189 L 48.7160 126.8782 L 48.7173 126.8800 L 48.7900 127.0012 L 48.8504 127.1289 L 48.8980 127.2620 L 48.9323 127.3991 L 48.9531 127.5389 L 48.9600 127.6800 L 48.9600 130.0800 L 48.9531 130.2211 L 48.9323 130.3609 L 48.8980 130.4980 L 48.8758 130.5600 L 48.8980 130.6220 L 48.9323 130.7591 L 48.9531 130.8989 L 48.9600 131.0400 L 48.9600 131.6845 L 49.0300 131.8012 L 49.0904 131.9289 L 49.1380 132.0620 L 49.1723 132.1991 L 49.1931 132.3389 L 49.2000 132.4800 L 49.2000 133.1245 L 49.2700 133.2412 L 49.3304 133.3689 L 49.3780 133.5020 L 49.4123 133.6391 L 49.4331 133.7789 L 49.4400 133.9200 L 49.4400 135.0445 L 49.5100 135.1612 L 49.5704 135.2889 L 49.6180 135.4220 L 49.6523 135.5591 L 49.6731 135.6989 L 49.6800 135.8400 L 49.6800 136.7245 L 49.7500 136.8412 L 49.8104 136.9689 L 49.8580 137.1020 L 49.8923 137.2391 L 49.9131 137.3789 L 49.9200 137.5200 L 49.9200 137.6845 L 49.9900 137.8012 L 50.0504 137.9289 L 50.0980 138.0620 L 50.1323 138.1991 L 50.1531 138.3389 L 50.1560 138.3982 L 50.1573 138.4000 L 50.2300 138.5212 L 50.2904 138.6489 L 50.3380 138.7820 L 50.3723 138.9191 L 50.3931 139.0589 L 50.3960 139.1182 L 50.3973 139.1200 L 50.4700 139.2412 L 50.5304 139.3689 L 50.5780 139.5020 L 50.5848 139.5292 L 50.6373 139.6000 L 50.7100 139.7212 L 50.7704 139.8489 L 50.8180 139.9820 L 50.8523 140.1191 L 50.8731 140.2589 L 50.8760 140.3182 L 50.8773 140.3200 L 50.9500 140.4412 L 51.0104 140.5689 L 51.0580 140.7020 L 51.0648 140.7292 L 51.1173 140.8000 L 51.1900 140.9212 L 51.2504 141.0489 L 51.2980 141.1820 L 51.3048 141.2092 L 51.3573 141.2800 L 51.4300 141.4012 L 51.4904 141.5289 L 51.5377 141.6613 L 51.6582 141.7818 L 51.7531 141.8865 L 51.8373 142.0000 L 51.9100 142.1212 L 51.9704 142.2489 L 52.0180 142.3820 L 52.0248 142.4092 L 52.0773 142.4800 L 52.1500 142.6012 L 52.2104 142.7289 L 52.2577 142.8613 L 52.3782 142.9818 L 52.4731 143.0865 L 52.5573 143.2000 L 52.6300 143.3212 L 52.6904 143.4489 L 52.7377 143.5813 L 52.8582 143.7018 L 52.9531 143.8065 L 53.0373 143.9200 L 53.1100 144.0412 L 53.1704 144.1689 L 53.2177 144.3013 L 54.2982 145.3818 L 54.3931 145.4865 L 54.4773 145.6000 L 54.5500 145.7212 L 54.6104 145.8489 L 54.6358 145.9200 L 54.9600 145.9200 L 55.1011 145.9269 L 55.2409 145.9477 L 55.3780 145.9820 L 55.5111 146.0296 L 55.6388 146.0900 L 55.7600 146.1627 L 55.8308 146.2152 L 55.8580 146.2220 L 55.9911 146.2696 L 56.1188 146.3300 L 56.2400 146.4027 L 56.3535 146.4869 L 56.4582 146.5818 L 56.9382 147.0618 L 57.0331 147.1665 L 57.1173 147.2800 L 57.1900 147.4012 L 57.2504 147.5289 L 57.2980 147.6620 L 57.3323 147.7991 L 57.3531 147.9389 L 57.3600 148.0800 L 57.3600 148.3200 L 57.3531 148.4611 L 57.3323 148.6009 L 57.2980 148.7380 L 57.2504 148.8711 L 57.1900 148.9988 L 57.1173 149.1200 L 57.0331 149.2335 L 56.9382 149.3382 L 56.6400 149.6365 L 56.6400 150.2400 L 56.6331 150.3811 L 56.6123 150.5209 L 56.5780 150.6580 L 56.5304 150.7911 L 56.4700 150.9188 L 56.4000 151.0355 L 56.4000 151.1245 L 56.4700 151.2412 L 56.5304 151.3689 L 56.5780 151.5020 L 56.6123 151.6391 L 56.6331 151.7789 L 56.6343 151.8038 L 56.6982 151.8618 L 57.1782 152.3418 L 57.2731 152.4465 L 57.3573 152.5600 L 57.4300 152.6812 L 57.4904 152.8089 L 57.5380 152.9420 L 57.5448 152.9692 L 57.5973 153.0400 L 57.6700 153.1612 L 57.7304 153.2889 L 57.7780 153.4220 L 57.8123 153.5591 L 57.8331 153.6989 L 57.8400 153.8400 L 57.8400 154.7245 L 57.9100 154.8412 L 57.9704 154.9689 L 58.0180 155.1020 L 58.0523 155.2391 L 58.0731 155.3789 L 58.0800 155.5200 L 58.0800 155.6845 L 58.1500 155.8012 L 58.2104 155.9289 L 58.2580 156.0620 L 58.2923 156.1991 L 58.3131 156.3389 L 58.3200 156.4800 L 58.3200 159.1200 L 58.3131 159.2611 L 58.2923 159.4009 L 58.2580 159.5380 L 58.2104 159.6711 L 58.1500 159.7988 L 58.0773 159.9200 L 57.9931 160.0335 L 57.8982 160.1382 L 57.8340 160.2025 L 57.8331 160.2211 L 57.8123 160.3609 L 57.7780 160.4980 L 57.7304 160.6311 L 57.6700 160.7588 L 57.5973 160.8800 L 57.5131 160.9935 L 57.4182 161.0982 L 56.9382 161.5782 L 56.8335 161.6731 L 56.7200 161.7573 L 56.5988 161.8300 L 56.4711 161.8904 L 56.3387 161.9377 L 56.3377 161.9387 L 56.2904 162.0711 L 56.2300 162.1988 L 56.1573 162.3200 L 56.0731 162.4335 L 55.9782 162.5382 L 55.5854 162.9310 L 55.6180 163.0220 L 55.6248 163.0492 L 55.6773 163.1200 L 55.7500 163.2412 L 55.8104 163.3689 L 55.8580 163.5020 L 55.8923 163.6391 L 55.9131 163.7789 L 55.9200 163.9200 L 55.9200 164.3245 L 55.9900 164.4412 L 56.0504 164.5689 L 56.0980 164.7020 L 56.1323 164.8391 L 56.1531 164.9789 L 56.1600 165.1200 L 56.1600 165.2845 L 56.2300 165.4012 L 56.2904 165.5289 L 56.3380 165.6620 L 56.3723 165.7991 L 56.3931 165.9389 L 56.4000 166.0800 L 56.4000 166.7245 L 56.4700 166.8412 L 56.5304 166.9689 L 56.5780 167.1020 L 56.6123 167.2391 L 56.6331 167.3789 L 56.6400 167.5200 L 56.6400 167.9245 L 56.7100 168.0412 L 56.7704 168.1689 L 56.8180 168.3020 L 56.8523 168.4391 L 56.8731 168.5789 L 56.8800 168.7200 L 56.8800 168.8845 L 56.9500 169.0012 L 57.0104 169.1289 L 57.0580 169.2620 L 57.0923 169.3991 L 57.1131 169.5389 L 57.1160 169.5982 L 57.1173 169.6000 L 57.1900 169.7212 L 57.2504 169.8489 L 57.2980 169.9820 L 57.3323 170.1191 L 57.3531 170.2589 L 57.3560 170.3182 L 57.3573 170.3200 L 57.4300 170.4412 L 57.4904 170.5689 L 57.5380 170.7020 L 57.5448 170.7292 L 57.5973 170.8000 L 57.6700 170.9212 L 57.7304 171.0489 L 57.7780 171.1820 L 57.8123 171.3191 L 57.8331 171.4589 L 57.8340 171.4775 L 57.8982 171.5418 L 57.9931 171.6465 L 58.0773 171.7600 L 58.1500 171.8812 L 58.2104 172.0089 L 58.2580 172.1420 L 58.2923 172.2791 L 58.3131 172.4189 L 58.3200 172.5600 L 58.3200 173.0400 L 58.3131 173.1811 L 58.2923 173.3209 L 58.2580 173.4580 L 58.2104 173.5911 L 58.1500 173.7188 L 58.0773 173.8400 L 57.9931 173.9535 L 57.8982 174.0582 L 57.6582 174.2982 L 57.5535 174.3931 L 57.4400 174.4773 L 57.3188 174.5500 L 57.1911 174.6104 L 57.0580 174.6580 L 56.9209 174.6923 L 56.7811 174.7131 L 56.6400 174.7200 L 56.1600 174.7200 L 56.0189 174.7131 L 55.8791 174.6923 L 55.7420 174.6580 L 55.6089 174.6104 L 55.4812 174.5500 L 55.3600 174.4773 L 55.2892 174.4248 L 55.2620 174.4180 L 55.1289 174.3704 L 55.0012 174.3100 L 54.8800 174.2373 L 54.8774 174.2354 L 54.8504 174.3111 L 54.7900 174.4388 L 54.7173 174.5600 L 54.7160 174.5618 L 54.7131 174.6211 L 54.6923 174.7609 L 54.6580 174.8980 L 54.6104 175.0311 L 54.5500 175.1588 L 54.4800 175.2755 L 54.4800 175.4400 L 54.4731 175.5811 L 54.4523 175.7209 L 54.4180 175.8580 L 54.3704 175.9911 L 54.3100 176.1188 L 54.2400 176.2355 L 54.2400 176.8800 L 54.2331 177.0211 L 54.2123 177.1609 L 54.1780 177.2980 L 54.1304 177.4311 L 54.0700 177.5588 L 54.0000 177.6755 L 54.0000 178.8000 L 53.9931 178.9411 L 53.9723 179.0809 L 53.9380 179.2180 L 53.8904 179.3511 L 53.8300 179.4788 L 53.8053 179.5200 L 53.8300 179.5612 L 53.8904 179.6889 L 53.9380 179.8220 L 53.9723 179.9591 L 53.9784 180.0000 L 54.0000 180.0000 L 54.1411 180.0069 L 54.2809 180.0277 L 54.4180 180.0620 L 54.5511 180.1096 L 54.6788 180.1700 L 54.8000 180.2427 L 54.9135 180.3269 L 55.0182 180.4218 L 55.0825 180.4860 L 55.1011 180.4869 L 55.2409 180.5077 L 55.3780 180.5420 L 55.5111 180.5896 L 55.6388 180.6500 L 55.7555 180.7200 L 56.4000 180.7200 L 56.5411 180.7269 L 56.6809 180.7477 L 56.8180 180.7820 L 56.9511 180.8296 L 57.0788 180.8900 L 57.2000 180.9627 L 57.3135 181.0469 L 57.4182 181.1418 L 57.8982 181.6218 L 57.9931 181.7265 L 58.0773 181.8400 L 58.1500 181.9612 L 58.2104 182.0889 L 58.2580 182.2220 L 58.2923 182.3591 L 58.3131 182.4989 L 58.3200 182.6400 L 58.3200 182.8800 L 58.3131 183.0211 L 58.2923 183.1609 L 58.2580 183.2980 L 58.2104 183.4311 L 58.1500 183.5588 L 58.0773 183.6800 L 57.9931 183.7935 L 57.8982 183.8982 L 57.2977 184.4987 L 57.2504 184.6311 L 57.1900 184.7588 L 57.1173 184.8800 L 57.0331 184.9935 L 56.9382 185.0982 L 56.8177 185.2187 L 56.7704 185.3511 L 56.7100 185.4788 L 56.6373 185.6000 L 56.5531 185.7135 L 56.4582 185.8182 L 56.3377 185.9387 L 56.2904 186.0711 L 56.2300 186.1988 L 56.1573 186.3200 L 56.1048 186.3908 L 56.0980 186.4180 L 56.0504 186.5511 L 55.9900 186.6788 L 55.9173 186.8000 L 55.8648 186.8708 L 55.8580 186.8980 L 55.8104 187.0311 L 55.7500 187.1588 L 55.6773 187.2800 L 55.6248 187.3508 L 55.6180 187.3780 L 55.5704 187.5111 L 55.5100 187.6388 L 55.4400 187.7555 L 55.4400 187.9200 L 55.4331 188.0611 L 55.4123 188.2009 L 55.3780 188.3380 L 55.3304 188.4711 L 55.2700 188.5988 L 55.2000 188.7155 L 55.2000 189.1200 L 55.1931 189.2611 L 55.1723 189.4009 L 55.1380 189.5380 L 55.0904 189.6711 L 55.0300 189.7988 L 54.9600 189.9155 L 54.9600 190.3200 L 54.9531 190.4611 L 54.9323 190.6009 L 54.8980 190.7380 L 54.8504 190.8711 L 54.7900 190.9988 L 54.7200 191.1155 L 54.7200 192.4045 L 54.7900 192.5212 L 54.8504 192.6489 L 54.8980 192.7820 L 54.9323 192.9191 L 54.9531 193.0589 L 54.9560 193.1182 L 54.9573 193.1200 L 55.0300 193.2412 L 55.0904 193.3689 L 55.1380 193.5020 L 55.1723 193.6391 L 55.1931 193.7789 L 55.1940 193.7975 L 55.2582 193.8618 L 55.3531 193.9665 L 55.4373 194.0800 L 55.5100 194.2012 L 55.5704 194.3289 L 55.6180 194.4620 L 55.6248 194.4892 L 55.6773 194.5600 L 55.7500 194.6812 L 55.8104 194.8089 L 55.8580 194.9420 L 55.8923 195.0791 L 55.9131 195.2189 L 55.9200 195.3600 L 55.9200 196.3200 L 55.9131 196.4611 L 55.8923 196.6009 L 55.8580 196.7380 L 55.8104 196.8711 L 55.7500 196.9988 L 55.6800 197.1155 L 55.6800 197.6845 L 55.7500 197.8012 L 55.8104 197.9289 L 55.8580 198.0620 L 55.8648 198.0892 L 55.9173 198.1600 L 55.9900 198.2812 L 56.0504 198.4089 L 56.0980 198.5420 L 56.1048 198.5692 L 56.1573 198.6400 L 56.2300 198.7612 L 56.2904 198.8889 L 56.3380 199.0220 L 56.3723 199.1591 L 56.3931 199.2989 L 56.4000 199.4400 L 56.4000 200.4000 L 56.3931 200.5411 L 56.3723 200.6809 L 56.3380 200.8180 L 56.2904 200.9511 L 56.2300 201.0788 L 56.1600 201.1955 L 56.1600 201.6000 L 56.1531 201.7411 L 56.1323 201.8809 L 56.0980 202.0180 L 56.0758 202.0800 L 56.0980 202.1420 L 56.1323 202.2791 L 56.1531 202.4189 L 56.1560 202.4782 L 56.1573 202.4800 L 56.2300 202.6012 L 56.2904 202.7289 L 56.3377 202.8613 L 56.6982 203.2218 L 56.7931 203.3265 L 56.8773 203.4400 L 56.9500 203.5612 L 57.0104 203.6889 L 57.0580 203.8220 L 57.0923 203.9591 L 57.1131 204.0989 L 57.1200 204.2400 L 57.1200 208.7245 L 57.1900 208.8412 L 57.2504 208.9689 L 57.2980 209.1020 L 57.3323 209.2391 L 57.3531 209.3789 L 57.3600 209.5200 L 57.3600 219.8400 L 57.3531 219.9811 L 57.3323 220.1209 L 57.2980 220.2580 L 57.2504 220.3911 L 57.1900 220.5188 L 57.1200 220.6355 L 57.1200 220.8000 L 57.1131 220.9411 L 57.0923 221.0809 L 57.0580 221.2180 L 57.0104 221.3511 L 56.9500 221.4788 L 56.8800 221.5955 L 56.8800 224.8800 L 56.8731 225.0211 L 56.8523 225.1609 L 56.8180 225.2980 L 56.7704 225.4311 L 56.7100 225.5588 L 56.6400 225.6755 L 56.6400 225.8400 L 125.7147 225.8400 L 125.6900 225.7988 L 125.6296 225.6711 L 125.5820 225.5380 L 125.5477 225.4009 L 125.5269 225.2611 L 125.5200 225.1200 L 125.5200 220.6355 L 125.4500 220.5188 L 125.3896 220.3911 L 125.3420 220.2580 L 125.3077 220.1209 L 125.2869 219.9811 L 125.2800 219.8400 L 125.2800 219.6755 L 125.2100 219.5588 L 125.1496 219.4311 L 125.1020 219.2980 L 125.0677 219.1609 L 125.0469 219.0211 L 125.0400 218.8800 L 125.0400 217.0355 L 124.9700 216.9188 L 124.9096 216.7911 L 124.8620 216.6580 L 124.8277 216.5209 L 124.8069 216.3811 L 124.8000 216.2400 L 124.8000 216.0755 L 124.7300 215.9588 L 124.6696 215.8311 L 124.6220 215.6980 L 124.5877 215.5609 L 124.5669 215.4211 L 124.5600 215.2800 L 124.5600 215.1155 L 124.4900 214.9988 L 124.4296 214.8711 L 124.3820 214.7380 L 124.3477 214.6009 L 124.3269 214.4611 L 124.3200 214.3200 L 124.3200 213.4355 L 124.2500 213.3188 L 124.1896 213.1911 L 124.1420 213.0580 L 124.1077 212.9209 L 124.0869 212.7811 L 124.0840 212.7218 L 124.0827 212.7200 L 124.0100 212.5988 L 123.9496 212.4711 L 123.9020 212.3380 L 123.8677 212.2009 L 123.8469 212.0611 L 123.8400 211.9200 L 123.8400 210.5555 L 123.7700 210.4388 L 123.7096 210.3111 L 123.6620 210.1780 L 123.6277 210.0409 L 123.6069 209.9011 L 123.6000 209.7600 L 123.6000 209.5955 L 123.5300 209.4788 L 123.4696 209.3511 L 123.4220 209.2180 L 123.3877 209.0809 L 123.3669 208.9411 L 123.3600 208.8000 L 123.3600 208.6355 L 123.2900 208.5188 L 123.2296 208.3911 L 123.1820 208.2580 L 123.1477 208.1209 L 123.1269 207.9811 L 123.1200 207.8400 L 123.1200 206.1600 L 123.1269 206.0189 L 123.1477 205.8791 L 123.1820 205.7420 L 123.2042 205.6800 L 123.1820 205.6180 L 123.1477 205.4809 L 123.1269 205.3411 L 123.1240 205.2818 L 123.1227 205.2800 L 123.0500 205.1588 L 122.9896 205.0311 L 122.9420 204.8980 L 122.9352 204.8708 L 122.8827 204.8000 L 122.8100 204.6788 L 122.7496 204.5511 L 122.7020 204.4180 L 122.6677 204.2809 L 122.6469 204.1411 L 122.6440 204.0818 L 122.6427 204.0800 L 122.5700 203.9588 L 122.5096 203.8311 L 122.4620 203.6980 L 122.4277 203.5609 L 122.4069 203.4211 L 122.4000 203.2800 L 122.4000 202.3200 L 122.4069 202.1789 L 122.4277 202.0391 L 122.4620 201.9020 L 122.5096 201.7689 L 122.5700 201.6412 L 122.6427 201.5200 L 122.6952 201.4492 L 122.7020 201.4220 L 122.7496 201.2889 L 122.8100 201.1612 L 122.8800 201.0445 L 122.8800 199.7555 L 122.8100 199.6388 L 122.7496 199.5111 L 122.7020 199.3780 L 122.6677 199.2409 L 122.6469 199.1011 L 122.6400 198.9600 L 122.6400 197.2800 L 122.6469 197.1389 L 122.6677 196.9991 L 122.7020 196.8620 L 122.7496 196.7289 L 122.8100 196.6012 L 122.8827 196.4800 L 122.9669 196.3665 L 123.0618 196.2618 L 123.7818 195.5418 L 123.8865 195.4469 L 124.0000 195.3627 L 124.1212 195.2900 L 124.2489 195.2296 L 124.3813 195.1823 L 124.7418 194.8218 L 124.8465 194.7269 L 124.9008 194.6865 L 124.8620 194.5780 L 124.8552 194.5508 L 124.8027 194.4800 L 124.7300 194.3588 L 124.6696 194.2311 L 124.6223 194.0987 L 122.8218 192.2982 L 122.7269 192.1935 L 122.6427 192.0800 L 122.5700 191.9588 L 122.5096 191.8311 L 122.4623 191.6987 L 122.1018 191.3382 L 122.0069 191.2335 L 121.9227 191.1200 L 121.8500 190.9988 L 121.7896 190.8711 L 121.7423 190.7387 L 121.6218 190.6182 L 121.5269 190.5135 L 121.4427 190.4000 L 121.3700 190.2788 L 121.3096 190.1511 L 121.2623 190.0187 L 121.1418 189.8982 L 121.0469 189.7935 L 120.9627 189.6800 L 120.8900 189.5588 L 120.8296 189.4311 L 120.7820 189.2980 L 120.7477 189.1609 L 120.7269 189.0211 L 120.7200 188.8800 L 120.7200 187.9200 L 120.7269 187.7789 L 120.7477 187.6391 L 120.7820 187.5020 L 120.8296 187.3689 L 120.8900 187.2412 L 120.9627 187.1200 L 121.0469 187.0065 L 121.1418 186.9018 L 121.2623 186.7813 L 121.3096 186.6489 L 121.3700 186.5212 L 121.4427 186.4000 L 121.5269 186.2865 L 121.6218 186.1818 L 124.0083 183.7952 L 123.9496 183.6711 L 123.9023 183.5387 L 123.7818 183.4182 L 123.6869 183.3135 L 123.6027 183.2000 L 123.5300 183.0788 L 123.4887 182.9913 L 123.4012 182.9500 L 123.2800 182.8773 L 123.1665 182.7931 L 123.0618 182.6982 L 121.1418 180.7782 L 121.0469 180.6735 L 120.9627 180.5600 L 120.8900 180.4388 L 120.8296 180.3111 L 120.7823 180.1787 L 120.6618 180.0582 L 120.5669 179.9535 L 120.4827 179.8400 L 120.4100 179.7188 L 120.3496 179.5911 L 120.3023 179.4587 L 120.1818 179.3382 L 120.0869 179.2335 L 120.0027 179.1200 L 119.9300 178.9988 L 119.8696 178.8711 L 119.8223 178.7387 L 119.4618 178.3782 L 119.3669 178.2735 L 119.2827 178.1600 L 119.2100 178.0388 L 119.1496 177.9111 L 119.1023 177.7787 L 119.1013 177.7777 L 118.9689 177.7304 L 118.8412 177.6700 L 118.7200 177.5973 L 118.6065 177.5131 L 118.5018 177.4182 L 118.3813 177.2977 L 118.2489 177.2504 L 118.1212 177.1900 L 118.0000 177.1173 L 117.8865 177.0331 L 117.7818 176.9382 L 117.5418 176.6982 L 117.4469 176.5935 L 117.3627 176.4800 L 117.2900 176.3588 L 117.2296 176.2311 L 117.1820 176.0980 L 117.1752 176.0708 L 117.1227 176.0000 L 117.0500 175.8788 L 116.9896 175.7511 L 116.9420 175.6180 L 116.9077 175.4809 L 116.8869 175.3411 L 116.8840 175.2818 L 116.8827 175.2800 L 116.8100 175.1588 L 116.7496 175.0311 L 116.7020 174.8980 L 116.6677 174.7609 L 116.6469 174.6211 L 116.6460 174.6025 L 116.5818 174.5382 L 116.4869 174.4335 L 116.4027 174.3200 L 116.3300 174.1988 L 116.2696 174.0711 L 116.2220 173.9380 L 116.2152 173.9108 L 116.1627 173.8400 L 116.0900 173.7188 L 116.0296 173.5911 L 115.9820 173.4580 L 115.9477 173.3209 L 115.9269 173.1811 L 115.9200 173.0400 L 115.9200 172.3200 L 115.9269 172.1789 L 115.9477 172.0391 L 115.9675 171.9600 L 115.9477 171.8809 L 115.9269 171.7411 L 115.9200 171.6000 L 115.9200 171.1955 L 115.8500 171.0788 L 115.7896 170.9511 L 115.7420 170.8180 L 115.7077 170.6809 L 115.6869 170.5411 L 115.6800 170.4000 L 115.6800 170.1600 L 115.6869 170.0189 L 115.7077 169.8791 L 115.7420 169.7420 L 115.7896 169.6089 L 115.8500 169.4812 L 115.9227 169.3600 L 116.0069 169.2465 L 116.1018 169.1418 L 116.2223 169.0213 L 116.2696 168.8889 L 116.3300 168.7612 L 116.4027 168.6400 L 116.4040 168.6382 L 116.4069 168.5789 L 116.4277 168.4391 L 116.4620 168.3020 L 116.5096 168.1689 L 116.5700 168.0412 L 116.6400 167.9245 L 116.6400 167.8355 L 116.5700 167.7188 L 116.5096 167.5911 L 116.4620 167.4580 L 116.4277 167.3209 L 116.4069 167.1811 L 116.4000 167.0400 L 116.4000 165.6755 L 116.3300 165.5588 L 116.2696 165.4311 L 116.2220 165.2980 L 116.1877 165.1609 L 116.1669 165.0211 L 116.1600 164.8800 L 116.1600 163.4400 L 116.1669 163.2989 L 116.1877 163.1591 L 116.2220 163.0220 L 116.2696 162.8889 L 116.3300 162.7612 L 116.4000 162.6445 L 116.4000 161.5200 L 116.4069 161.3789 L 116.4277 161.2391 L 116.4620 161.1020 L 116.5096 160.9689 L 116.5700 160.8412 L 116.6400 160.7245 L 116.6400 152.7155 L 116.5700 152.5988 L 116.5096 152.4711 L 116.4620 152.3380 L 116.4277 152.2009 L 116.4069 152.0611 L 116.4000 151.9200 L 116.4000 151.7555 L 116.3300 151.6388 L 116.2696 151.5111 L 116.2220 151.3780 L 116.1877 151.2409 L 116.1669 151.1011 L 116.1600 150.9600 L 116.1600 148.3200 L 116.1669 148.1789 L 116.1877 148.0391 L 116.2220 147.9020 L 116.2696 147.7689 L 116.3300 147.6412 L 116.4027 147.5200 L 116.4552 147.4492 L 116.4620 147.4220 L 116.5096 147.2889 L 116.5700 147.1612 L 116.6400 147.0445 L 116.6400 146.8800 L 116.6469 146.7389 L 116.6677 146.5991 L 116.7020 146.4620 L 116.7496 146.3289 L 116.8100 146.2012 L 116.8827 146.0800 L 116.8840 146.0782 L 116.8869 146.0189 L 116.9077 145.8791 L 116.9420 145.7420 L 116.9896 145.6089 L 117.0500 145.4812 L 117.1227 145.3600 L 117.1752 145.2892 L 117.1820 145.2620 L 117.2296 145.1289 L 117.2900 145.0012 L 117.3627 144.8800 L 117.4152 144.8092 L 117.4220 144.7820 L 117.4696 144.6489 L 117.5300 144.5212 L 117.6027 144.4000 L 117.6869 144.2865 L 117.7818 144.1818 L 117.9023 144.0613 L 117.9496 143.9289 L 118.0100 143.8012 L 118.0827 143.6800 L 118.1669 143.5665 L 118.2618 143.4618 L 118.6223 143.1013 L 118.6696 142.9689 L 118.7300 142.8412 L 118.8027 142.7200 L 118.8869 142.6065 L 118.9818 142.5018 L 119.5823 141.9013 L 119.6296 141.7689 L 119.6900 141.6412 L 119.7627 141.5200 L 119.8469 141.4065 L 119.9418 141.3018 L 120.3023 140.9413 L 120.3496 140.8089 L 120.4100 140.6812 L 120.4827 140.5600 L 120.5669 140.4465 L 120.6618 140.3418 L 121.9823 139.0213 L 122.0296 138.8889 L 122.0900 138.7612 L 122.1627 138.6400 L 122.2469 138.5265 L 122.3418 138.4218 L 123.1823 137.5813 L 123.2296 137.4489 L 123.2900 137.3212 L 123.3627 137.2000 L 123.4469 137.0865 L 123.5418 136.9818 L 123.9023 136.6213 L 123.9496 136.4889 L 124.0100 136.3612 L 124.0827 136.2400 L 124.1669 136.1265 L 124.2618 136.0218 L 124.6223 135.6613 L 124.6696 135.5289 L 124.7300 135.4012 L 124.8027 135.2800 L 124.8869 135.1665 L 124.9818 135.0618 L 125.1023 134.9413 L 125.1496 134.8089 L 125.2100 134.6812 L 125.2827 134.5600 L 125.3669 134.4465 L 125.4618 134.3418 L 125.5823 134.2213 L 125.6296 134.0889 L 125.6900 133.9612 L 125.7627 133.8400 L 125.8152 133.7692 L 125.8220 133.7420 L 125.8696 133.6089 L 125.9300 133.4812 L 126.0027 133.3600 L 126.0552 133.2892 L 126.0620 133.2620 L 126.1096 133.1289 L 126.1700 133.0012 L 126.2427 132.8800 L 126.2952 132.8092 L 126.3020 132.7820 L 126.3496 132.6489 L 126.4100 132.5212 L 126.4827 132.4000 L 126.5669 132.2865 L 126.6618 132.1818 L 127.7423 131.1013 L 127.7896 130.9689 L 127.8500 130.8412 L 127.9227 130.7200 L 128.0069 130.6065 L 128.1018 130.5018 L 128.7023 129.9013 L 128.7496 129.7689 L 128.8100 129.6412 L 128.8827 129.5200 L 128.9669 129.4065 L 129.0618 129.3018 L 129.6623 128.7013 L 129.7096 128.5689 L 129.7700 128.4412 L 129.8427 128.3200 L 129.9269 128.2065 L 130.0218 128.1018 L 131.1023 127.0213 L 131.1496 126.8889 L 131.2100 126.7612 L 131.2827 126.6400 L 131.3669 126.5265 L 131.4618 126.4218 L 131.8223 126.0613 L 131.8696 125.9289 L 131.9300 125.8012 L 132.0027 125.6800 L 132.0869 125.5665 L 132.1818 125.4618 L 133.8618 123.7818 L 133.9665 123.6869 L 134.0800 123.6027 L 134.2012 123.5300 L 134.3289 123.4696 L 134.4620 123.4220 L 134.5991 123.3877 L 134.7389 123.3669 L 134.8800 123.3600 L 135.0211 123.3669 L 135.1609 123.3877 L 135.2980 123.4220 L 135.4311 123.4696 L 135.5588 123.5300 L 135.6800 123.6027 L 135.7935 123.6869 L 135.8982 123.7818 L 136.6182 124.5018 L 136.7131 124.6065 L 136.7973 124.7200 L 136.8700 124.8412 L 136.9304 124.9689 L 136.9780 125.1020 L 137.0123 125.2391 L 137.0331 125.3789 L 137.0360 125.4382 L 137.0373 125.4400 L 137.1100 125.5612 L 137.1704 125.6889 L 137.2180 125.8220 L 137.2523 125.9591 L 137.2731 126.0989 L 137.2760 126.1582 L 137.2773 126.1600 L 137.3500 126.2812 L 137.4104 126.4089 L 137.4580 126.5420 L 137.4923 126.6791 L 137.5131 126.8189 L 137.5160 126.8782 L 137.5173 126.8800 L 137.5900 127.0012 L 137.6504 127.1289 L 137.6980 127.2620 L 137.7323 127.3991 L 137.7531 127.5389 L 137.7560 127.5982 L 137.7573 127.6000 L 137.8300 127.7212 L 137.8904 127.8489 L 137.9380 127.9820 L 137.9723 128.1191 L 137.9931 128.2589 L 137.9960 128.3182 L 137.9973 128.3200 L 138.0700 128.4412 L 138.1304 128.5689 L 138.1780 128.7020 L 138.2123 128.8391 L 138.2331 128.9789 L 138.2360 129.0382 L 138.2373 129.0400 L 138.3100 129.1612 L 138.3704 129.2889 L 138.4180 129.4220 L 138.4523 129.5591 L 138.4731 129.6989 L 138.4760 129.7582 L 138.4773 129.7600 L 138.5500 129.8812 L 138.6104 130.0089 L 138.6273 130.0562 L 139.2623 129.4213 L 139.3096 129.2889 L 139.3700 129.1612 L 139.3947 129.1200 L 139.3700 129.0788 L 139.3096 128.9511 L 139.2620 128.8180 L 139.2277 128.6809 L 139.2069 128.5411 L 139.2000 128.4000 L 139.2000 128.2355 L 139.1300 128.1188 L 139.0696 127.9911 L 139.0220 127.8580 L 138.9877 127.7209 L 138.9669 127.5811 L 138.9600 127.4400 L 138.9600 127.0355 L 138.8900 126.9188 L 138.8296 126.7911 L 138.7820 126.6580 L 138.7477 126.5209 L 138.7269 126.3811 L 138.7200 126.2400 L 138.7200 125.8355 L 138.6500 125.7188 L 138.5896 125.5911 L 138.5420 125.4580 L 138.5077 125.3209 L 138.4869 125.1811 L 138.4800 125.0400 L 138.4800 124.8755 L 138.4100 124.7588 L 138.3496 124.6311 L 138.3020 124.4980 L 138.2677 124.3609 L 138.2469 124.2211 L 138.2440 124.1618 L 138.2427 124.1600 L 138.1700 124.0388 L 138.1096 123.9111 L 138.0620 123.7780 L 138.0277 123.6409 L 138.0069 123.5011 L 138.0000 123.3600 L 138.0000 123.1955 L 137.9300 123.0788 L 137.8696 122.9511 L 137.8220 122.8180 L 137.7877 122.6809 L 137.7669 122.5411 L 137.7600 122.4000 L 137.7600 122.1600 L 137.7669 122.0189 L 137.7877 121.8791 L 137.8220 121.7420 L 137.8696 121.6089 L 137.9300 121.4812 L 138.0027 121.3600 L 138.0869 121.2465 L 138.1818 121.1418 L 138.9018 120.4218 L 139.0065 120.3269 L 139.1200 120.2427 L 139.2412 120.1700 L 139.3689 120.1096 L 139.5020 120.0620 L 139.5292 120.0552 L 139.6000 120.0027 L 139.7212 119.9300 L 139.8489 119.8696 L 139.9820 119.8220 L 140.0092 119.8152 L 140.0800 119.7627 L 140.2012 119.6900 L 140.3289 119.6296 L 140.4620 119.5820 L 140.4892 119.5752 L 140.5600 119.5227 L 140.6812 119.4500 L 140.8089 119.3896 L 140.9420 119.3420 L 140.9692 119.3352 L 141.0400 119.2827 L 141.1612 119.2100 L 141.2889 119.1496 L 141.4220 119.1020 L 141.5591 119.0677 L 141.6989 119.0469 L 141.7175 119.0460 L 141.9023 118.8613 L 141.9496 118.7289 L 142.0100 118.6012 L 142.0827 118.4800 L 142.1669 118.3665 L 142.2618 118.2618 L 143.2218 117.3018 L 143.3265 117.2069 L 143.4400 117.1227 L 143.5612 117.0500 L 143.6889 116.9896 L 143.8220 116.9420 L 143.9591 116.9077 L 144.0989 116.8869 L 144.2400 116.8800 L 144.4045 116.8800 L 144.5212 116.8100 L 144.6489 116.7496 L 144.7820 116.7020 L 144.9191 116.6677 L 145.0589 116.6469 L 145.2000 116.6400 L 155.2800 116.6400 L 155.4211 116.6469 L 155.5609 116.6677 L 155.6980 116.7020 L 155.8311 116.7496 L 155.9588 116.8100 L 156.0755 116.8800 L 160.2445 116.8800 L 160.3612 116.8100 L 160.4889 116.7496 L 160.6220 116.7020 L 160.7591 116.6677 L 160.8989 116.6469 L 161.0400 116.6400 L 163.1245 116.6400 L 163.2412 116.5700 L 163.3689 116.5096 L 163.5020 116.4620 L 163.6391 116.4277 L 163.7789 116.4069 L 163.9200 116.4000 L 165.0445 116.4000 L 165.1612 116.3300 L 165.2889 116.2696 L 165.4220 116.2220 L 165.5591 116.1877 L 165.6989 116.1669 L 165.8400 116.1600 L 166.2445 116.1600 L 166.3612 116.0900 L 166.4889 116.0296 L 166.6220 115.9820 L 166.6492 115.9752 L 166.7200 115.9227 L 166.8412 115.8500 L 166.9689 115.7896 L 167.1020 115.7420 L 167.2391 115.7077 L 167.3789 115.6869 L 167.5200 115.6800 L 167.6845 115.6800 L 167.8012 115.6100 L 167.9289 115.5496 L 168.0620 115.5020 L 168.0892 115.4952 L 168.1600 115.4427 L 168.2812 115.3700 L 168.4089 115.3096 L 168.5413 115.2623 L 168.6618 115.1418 L 168.7665 115.0469 L 168.8800 114.9627 L 169.0012 114.8900 L 169.1289 114.8296 L 169.2613 114.7823 L 169.3818 114.6618 L 169.4865 114.5669 L 169.6000 114.4827 L 169.7212 114.4100 L 169.8489 114.3496 L 169.9813 114.3023 L 170.1018 114.1818 L 170.2065 114.0869 L 170.3200 114.0027 L 170.4412 113.9300 L 170.5689 113.8696 L 170.7013 113.8223 L 171.5418 112.9818 L 171.6465 112.8869 L 171.7600 112.8027 L 171.8812 112.7300 L 172.0089 112.6696 L 172.1413 112.6223 L 172.6223 112.1413 L 172.6696 112.0089 L 172.7300 111.8812 L 172.8027 111.7600 L 172.8552 111.6892 L 172.8620 111.6620 L 172.9096 111.5289 L 172.9700 111.4012 L 173.0400 111.2845 L 173.0400 111.1200 L 173.0469 110.9789 L 173.0677 110.8391 L 173.1020 110.7020 L 173.1496 110.5689 L 173.2100 110.4412 L 173.2347 110.4000 L 173.2100 110.3588 L 173.1496 110.2311 L 173.1020 110.0980 L 173.0677 109.9609 L 173.0469 109.8211 L 173.0400 109.6800 L 173.0400 109.5155 L 172.9700 109.3988 L 172.9096 109.2711 L 172.8620 109.1380 L 172.8277 109.0009 L 172.8069 108.8611 L 172.8040 108.8018 L 172.8027 108.8000 L 172.7300 108.6788 L 172.6696 108.5511 L 172.6220 108.4180 L 172.5877 108.2809 L 172.5669 108.1411 L 172.5640 108.0818 L 172.5627 108.0800 L 172.4900 107.9588 L 172.4296 107.8311 L 172.3820 107.6980 L 172.3752 107.6708 L 172.3227 107.6000 L 172.2500 107.4788 L 172.1896 107.3511 L 172.1420 107.2180 L 172.1077 107.0809 L 172.0869 106.9411 L 172.0840 106.8818 L 172.0827 106.8800 L 172.0100 106.7588 L 171.9496 106.6311 L 171.9020 106.4980 L 171.8677 106.3609 L 171.8469 106.2211 L 171.8400 106.0800 L 171.8400 105.9155 L 171.7700 105.7988 L 171.7096 105.6711 L 171.6620 105.5380 L 171.6552 105.5108 L 171.6027 105.4400 L 171.5300 105.3188 L 171.4696 105.1911 L 171.4223 105.0587 L 171.3018 104.9382 L 171.2069 104.8335 L 171.1227 104.7200 L 171.0500 104.5988 L 170.9896 104.4711 L 170.9423 104.3387 L 170.8218 104.2182 L 170.7269 104.1135 L 170.6427 104.0000 L 170.5700 103.8788 L 170.5096 103.7511 L 170.4623 103.6187 L 170.3418 103.4982 L 170.2469 103.3935 L 170.1627 103.2800 L 170.0900 103.1588 L 170.0296 103.0311 L 169.9823 102.8987 L 169.8618 102.7782 L 169.7669 102.6735 L 169.6827 102.5600 L 169.6100 102.4388 L 169.5496 102.3111 L 169.5023 102.1787 L 168.9018 101.5782 L 168.8069 101.4735 L 168.7227 101.3600 L 168.6500 101.2388 L 168.5896 101.1111 L 168.5423 100.9787 L 168.4218 100.8582 L 168.3269 100.7535 L 168.2427 100.6400 L 168.1700 100.5188 L 168.1096 100.3911 L 168.0623 100.2587 L 167.4618 99.6582 L 167.3669 99.5535 L 167.2827 99.4400 L 167.2100 99.3188 L 167.1496 99.1911 L 167.1023 99.0587 L 166.5018 98.4582 L 166.4069 98.3535 L 166.3227 98.2400 L 166.2500 98.1188 L 166.1896 97.9911 L 166.1423 97.8587 L 165.5418 97.2582 L 165.4469 97.1535 L 165.3627 97.0400 L 165.2900 96.9188 L 165.2296 96.7911 L 165.1820 96.6580 L 165.1752 96.6308 L 165.1227 96.5600 L 165.0500 96.4388 L 164.9896 96.3111 L 164.9420 96.1780 L 164.9352 96.1508 L 164.8827 96.0800 L 164.8100 95.9588 L 164.7496 95.8311 L 164.7020 95.6980 L 164.6952 95.6708 L 164.6427 95.6000 L 164.5700 95.4788 L 164.5096 95.3511 L 164.4620 95.2180 L 164.4552 95.1908 L 164.4027 95.1200 L 164.3300 94.9988 L 164.2696 94.8711 L 164.2220 94.7380 L 164.2152 94.7108 L 164.1627 94.6400 L 164.0900 94.5188 L 164.0296 94.3911 L 163.9823 94.2587 L 163.8618 94.1382 L 163.7669 94.0335 L 163.6827 93.9200 L 163.6100 93.7988 L 163.5496 93.6711 L 163.5020 93.5380 L 163.4952 93.5108 L 163.4427 93.4400 L 163.3700 93.3188 L 163.3096 93.1911 L 163.2623 93.0587 L 163.1418 92.9382 L 163.0469 92.8335 L 162.9627 92.7200 L 162.8900 92.5988 L 162.8296 92.4711 L 162.7820 92.3380 L 162.7752 92.3108 L 162.7227 92.2400 L 162.6500 92.1188 L 162.5896 91.9911 L 162.5423 91.8587 L 162.4218 91.7382 L 162.3269 91.6335 L 162.2427 91.5200 L 162.1700 91.3988 L 162.1096 91.2711 L 162.0623 91.1387 L 161.9418 91.0182 L 161.8469 90.9135 L 161.7627 90.8000 L 161.6900 90.6788 L 161.6296 90.5511 L 161.5823 90.4187 L 161.2218 90.0582 L 161.1269 89.9535 L 161.0427 89.8400 L 160.9700 89.7188 L 160.9096 89.5911 L 160.8623 89.4587 L 160.2618 88.8582 L 160.1669 88.7535 L 160.0827 88.6400 L 160.0100 88.5188 L 159.9496 88.3911 L 159.9023 88.2587 L 158.8218 87.1782 L 158.7269 87.0735 L 158.6427 86.9600 L 158.6117 86.9083 L 158.5600 86.8773 L 158.4465 86.7931 L 158.3418 86.6982 L 156.5413 84.8977 L 156.4089 84.8504 L 156.2812 84.7900 L 156.1600 84.7173 L 156.0465 84.6331 L 155.9418 84.5382 L 155.3413 83.9377 L 155.2089 83.8904 L 155.0812 83.8300 L 154.9600 83.7573 L 154.8465 83.6731 L 154.7418 83.5782 L 154.6213 83.4577 L 154.4889 83.4104 L 154.3612 83.3500 L 154.2400 83.2773 L 154.1265 83.1931 L 154.0218 83.0982 L 153.9013 82.9777 L 153.7689 82.9304 L 153.6412 82.8700 L 153.5200 82.7973 L 153.4492 82.7448 L 153.4220 82.7380 L 153.2889 82.6904 L 153.1612 82.6300 L 153.0400 82.5573 L 152.9692 82.5048 L 152.9420 82.4980 L 152.8089 82.4504 L 152.6812 82.3900 L 152.5600 82.3173 L 152.4465 82.2331 L 152.3418 82.1382 L 152.2213 82.0177 L 152.0889 81.9704 L 151.9612 81.9100 L 151.8400 81.8373 L 151.7692 81.7848 L 151.7420 81.7780 L 151.6089 81.7304 L 151.4812 81.6700 L 151.3600 81.5973 L 151.2892 81.5448 L 151.2620 81.5380 L 151.1289 81.4904 L 151.0012 81.4300 L 150.8800 81.3573 L 150.8092 81.3048 L 150.7820 81.2980 L 150.6489 81.2504 L 150.5212 81.1900 L 150.4000 81.1173 L 150.3982 81.1160 L 150.3389 81.1131 L 150.1991 81.0923 L 150.0620 81.0580 L 149.9289 81.0104 L 149.8012 80.9500 L 149.6800 80.8773 L 149.6092 80.8248 L 149.5820 80.8180 L 149.4489 80.7704 L 149.3212 80.7100 L 149.2000 80.6373 L 149.1292 80.5848 L 149.1020 80.5780 L 148.9689 80.5304 L 148.8412 80.4700 L 148.7200 80.3973 L 148.7182 80.3960 L 148.6589 80.3931 L 148.5191 80.3723 L 148.3820 80.3380 L 148.2489 80.2904 L 148.1212 80.2300 L 148.0000 80.1573 L 147.8865 80.0731 L 147.7818 79.9782 L 147.3018 79.4982 L 147.2069 79.3935 L 147.1227 79.2800 L 147.0500 79.1588 L 146.9896 79.0311 L 146.9420 78.8980 L 146.9077 78.7609 L 146.8869 78.6211 L 146.8800 78.4800 L 146.8800 78.2400 L 146.8869 78.0989 L 146.9077 77.9591 L 146.9420 77.8220 L 146.9896 77.6889 L 147.0500 77.5612 L 147.1227 77.4400 L 147.2069 77.3265 L 147.3018 77.2218 L 147.5418 76.9818 L 147.6465 76.8869 L 147.7600 76.8027 L 147.8812 76.7300 L 148.0089 76.6696 L 148.1420 76.6220 L 148.1692 76.6152 L 148.2400 76.5627 L 148.3612 76.4900 L 148.4889 76.4296 L 148.6220 76.3820 L 148.6492 76.3752 L 148.7200 76.3227 L 148.8412 76.2500 L 148.9689 76.1896 L 149.1020 76.1420 L 149.1292 76.1352 L 149.2000 76.0827 L 149.2045 76.0800 L 149.2000 76.0773 L 149.1982 76.0760 L 149.1389 76.0731 L 148.9991 76.0523 L 148.8620 76.0180 L 148.7289 75.9704 L 148.6012 75.9100 L 148.4845 75.8400 L 147.6755 75.8400 L 147.5588 75.9100 L 147.4311 75.9704 L 147.2980 76.0180 L 147.1609 76.0523 L 147.0211 76.0731 L 146.8800 76.0800 L 143.5200 76.0800 L 143.3789 76.0731 L 143.2391 76.0523 L 143.1020 76.0180 L 142.9689 75.9704 L 142.8412 75.9100 L 142.7200 75.8373 L 142.7182 75.8360 L 142.6589 75.8331 L 142.5191 75.8123 L 142.3820 75.7780 L 142.2489 75.7304 L 142.1212 75.6700 L 142.0000 75.5973 L 141.8865 75.5131 L 141.7818 75.4182 L 141.3018 74.9382 L 141.2069 74.8335 L 141.1227 74.7200 L 141.0500 74.5988 L 140.9896 74.4711 L 140.9420 74.3380 L 140.9077 74.2009 L 140.8869 74.0611 L 140.8800 73.9200 L 140.8800 73.2000 L 140.8869 73.0589 L 140.9077 72.9191 L 140.9420 72.7820 L 140.9896 72.6489 L 141.0500 72.5212 L 141.1200 72.4045 L 141.1200 71.7600 L 141.1269 71.6189 L 141.1477 71.4791 L 141.1820 71.3420 L 141.2296 71.2089 L 141.2900 71.0812 L 141.3627 70.9600 L 141.3640 70.9582 L 141.3669 70.8989 L 141.3877 70.7591 L 141.4220 70.6220 L 141.4442 70.5600 L 141.4220 70.4980 L 141.4152 70.4708 L 141.3627 70.4000 L 141.2944 70.2862 L 141.1820 70.2580 L 141.1200 70.2358 L 141.0580 70.2580 L 140.9209 70.2923 L 140.7811 70.3131 L 140.7625 70.3140 L 140.6982 70.3782 L 140.5935 70.4731 L 140.4800 70.5573 L 140.4283 70.5883 L 140.3973 70.6400 L 140.3448 70.7108 L 140.3380 70.7380 L 140.2904 70.8711 L 140.2300 70.9988 L 140.1573 71.1200 L 140.1048 71.1908 L 140.0980 71.2180 L 140.0504 71.3511 L 139.9900 71.4788 L 139.9173 71.6000 L 139.8648 71.6708 L 139.8580 71.6980 L 139.8104 71.8311 L 139.7500 71.9588 L 139.6773 72.0800 L 139.5931 72.1935 L 139.4982 72.2982 L 139.3777 72.4187 L 139.3304 72.5511 L 139.2700 72.6788 L 139.1973 72.8000 L 139.1960 72.8018 L 139.1931 72.8611 L 139.1723 73.0009 L 139.1380 73.1380 L 139.0904 73.2711 L 139.0300 73.3988 L 138.9573 73.5200 L 138.9560 73.5218 L 138.9531 73.5811 L 138.9323 73.7209 L 138.8980 73.8580 L 138.8504 73.9911 L 138.7900 74.1188 L 138.7173 74.2400 L 138.6331 74.3535 L 138.5382 74.4582 L 137.8182 75.1782 L 137.7135 75.2731 L 137.6000 75.3573 L 137.4788 75.4300 L 137.3511 75.4904 L 137.2180 75.5380 L 137.0809 75.5723 L 136.9411 75.5931 L 136.8000 75.6000 L 136.3200 75.6000 L 136.1789 75.5931 L 136.0391 75.5723 L 135.9020 75.5380 L 135.7689 75.4904 L 135.6412 75.4300 L 135.5200 75.3573 L 135.4065 75.2731 L 135.3018 75.1782 L 134.5818 74.4582 L 134.4869 74.3535 L 134.4027 74.2400 L 134.3300 74.1188 L 134.2696 73.9911 L 134.2220 73.8580 L 134.1877 73.7209 L 134.1669 73.5811 L 134.1600 73.4400 L 134.1600 72.7955 L 134.0900 72.6788 L 134.0296 72.5511 L 133.9820 72.4180 L 133.9477 72.2809 L 133.9269 72.1411 L 133.9200 72.0000 L 133.9200 71.5955 L 133.8500 71.4788 L 133.7896 71.3511 L 133.7420 71.2180 L 133.7077 71.0809 L 133.6869 70.9411 L 133.6800 70.8000 L 133.6800 69.9155 L 133.6100 69.7988 L 133.5496 69.6711 L 133.5020 69.5380 L 133.4677 69.4009 L 133.4469 69.2611 L 133.4440 69.2018 L 133.4427 69.2000 L 133.3700 69.0788 L 133.3096 68.9511 L 133.2620 68.8180 L 133.2277 68.6809 L 133.2069 68.5411 L 133.2040 68.4818 L 133.2027 68.4800 L 133.1867 68.4533 L 133.1588 68.4700 L 133.0311 68.5304 L 132.8980 68.5780 L 132.8708 68.5848 L 132.8000 68.6373 L 132.7483 68.6683 L 132.7173 68.7200 L 132.6648 68.7908 L 132.6580 68.8180 L 132.6104 68.9511 L 132.5500 69.0788 L 132.4800 69.1955 L 132.4800 69.3600 L 132.4731 69.5011 L 132.4523 69.6409 L 132.4180 69.7780 L 132.3704 69.9111 L 132.3100 70.0388 L 132.2400 70.1555 L 132.2400 70.7245 L 132.3100 70.8412 L 132.3704 70.9689 L 132.4180 71.1020 L 132.4523 71.2391 L 132.4731 71.3789 L 132.4800 71.5200 L 132.4800 73.3645 L 132.5500 73.4812 L 132.6104 73.6089 L 132.6580 73.7420 L 132.6923 73.8791 L 132.7131 74.0189 L 132.7160 74.0782 L 132.7173 74.0800 L 132.7900 74.2012 L 132.8504 74.3289 L 132.8980 74.4620 L 132.9323 74.5991 L 132.9531 74.7389 L 132.9600 74.8800 L 132.9600 75.3600 L 132.9531 75.5011 L 132.9323 75.6409 L 132.8980 75.7780 L 132.8504 75.9111 L 132.7900 76.0388 L 132.7173 76.1600 L 132.6648 76.2308 L 132.6580 76.2580 L 132.6104 76.3911 L 132.5500 76.5188 L 132.4773 76.6400 L 132.3931 76.7535 L 132.2982 76.8582 L 132.0582 77.0982 L 131.9535 77.1931 L 131.8400 77.2773 L 131.7188 77.3500 L 131.5911 77.4104 L 131.4580 77.4580 L 131.3209 77.4923 L 131.1811 77.5131 L 131.0400 77.5200 L 130.5600 77.5200 L 130.4189 77.5131 L 130.2791 77.4923 L 130.1420 77.4580 L 130.0089 77.4104 L 129.8812 77.3500 L 129.7600 77.2773 L 129.6465 77.1931 L 129.5418 77.0982 L 129.0618 76.6182 L 128.9669 76.5135 L 128.8827 76.4000 L 128.8100 76.2788 L 128.7496 76.1511 L 128.7023 76.0187 L 128.5818 75.8982 L 128.4869 75.7935 L 128.4027 75.6800 L 128.3304 75.5594 L 128.2904 75.6711 L 128.2300 75.7988 L 128.1573 75.9200 L 128.0731 76.0335 L 127.9782 76.1382 L 127.7382 76.3782 L 127.6335 76.4731 L 127.5200 76.5573 L 127.3988 76.6300 L 127.2711 76.6904 L 127.1380 76.7380 L 127.0009 76.7723 L 126.8611 76.7931 L 126.7200 76.8000 L 126.6358 76.8000 L 126.6577 76.8613 L 127.0182 77.2218 L 127.1131 77.3265 L 127.1973 77.4400 L 127.2700 77.5612 L 127.3304 77.6889 L 127.3777 77.8213 L 127.4982 77.9418 L 127.5931 78.0465 L 127.6773 78.1600 L 127.7500 78.2812 L 127.8104 78.4089 L 127.8580 78.5420 L 127.8923 78.6791 L 127.9131 78.8189 L 127.9200 78.9600 L 127.9200 79.4400 L 127.9131 79.5811 L 127.8923 79.7209 L 127.8580 79.8580 L 127.8104 79.9911 L 127.7500 80.1188 L 127.6773 80.2400 L 127.5931 80.3535 L 127.4982 80.4582 L 126.8977 81.0587 L 126.8504 81.1911 L 126.7900 81.3188 L 126.7173 81.4400 L 126.6331 81.5535 L 126.5382 81.6582 L 126.1777 82.0187 L 126.1304 82.1511 L 126.0700 82.2788 L 125.9973 82.4000 L 125.9131 82.5135 L 125.8182 82.6182 L 125.7540 82.6825 L 125.7531 82.7011 L 125.7323 82.8409 L 125.6980 82.9780 L 125.6504 83.1111 L 125.5900 83.2388 L 125.5200 83.3555 L 125.5200 83.9245 L 125.5900 84.0412 L 125.6504 84.1689 L 125.6980 84.3020 L 125.7323 84.4391 L 125.7531 84.5789 L 125.7600 84.7200 L 125.7600 84.9600 L 125.7531 85.1011 L 125.7323 85.2409 L 125.6980 85.3780 L 125.6504 85.5111 L 125.5900 85.6388 L 125.5173 85.7600 L 125.5160 85.7618 L 125.5131 85.8211 L 125.4923 85.9609 L 125.4580 86.0980 L 125.4104 86.2311 L 125.3500 86.3588 L 125.2773 86.4800 L 125.1931 86.5935 L 125.0982 86.6982 L 124.8582 86.9382 L 124.7535 87.0331 L 124.6400 87.1173 L 124.5188 87.1900 L 124.3911 87.2504 L 124.2580 87.2980 L 124.1209 87.3323 L 123.9811 87.3531 L 123.8400 87.3600 L 123.6989 87.3531 L 123.5591 87.3323 L 123.4220 87.2980 L 123.2889 87.2504 L 123.1612 87.1900 L 123.0400 87.1173 L 122.9692 87.0648 L 122.9420 87.0580 L 122.8089 87.0104 L 122.6812 86.9500 L 122.5600 86.8773 L 122.4465 86.7931 L 122.3418 86.6982 L 120.1818 84.5382 L 120.0869 84.4335 L 120.0027 84.3200 L 119.9300 84.1988 L 119.8696 84.0711 L 119.8220 83.9380 L 119.8152 83.9108 L 119.7627 83.8400 L 119.6900 83.7188 L 119.6296 83.5911 L 119.5820 83.4580 L 119.5752 83.4308 L 119.5227 83.3600 L 119.4500 83.2388 L 119.3896 83.1111 L 119.3423 82.9787 L 119.2218 82.8582 L 119.1269 82.7535 L 119.0427 82.6400 L 118.9700 82.5188 L 118.9096 82.3911 L 118.8623 82.2587 L 118.1975 81.5940 L 118.1789 81.5931 L 118.0391 81.5723 L 117.9020 81.5380 L 117.7689 81.4904 L 117.6412 81.4300 L 117.5200 81.3573 L 117.5182 81.3560 L 117.4589 81.3531 L 117.3191 81.3323 L 117.1820 81.2980 L 117.0489 81.2504 L 116.9212 81.1900 L 116.8045 81.1200 L 115.9200 81.1200 L 115.7789 81.1131 L 115.6391 81.0923 L 115.5020 81.0580 L 115.3689 81.0104 L 115.2412 80.9500 L 115.1245 80.8800 L 112.3200 80.8800 L 112.1789 80.8731 L 112.0391 80.8523 L 111.9020 80.8180 L 111.7689 80.7704 L 111.6412 80.7100 L 111.5245 80.6400 L 109.9200 80.6400 L 109.7789 80.6331 L 109.6391 80.6123 L 109.5020 80.5780 L 109.3689 80.5304 L 109.2412 80.4700 L 109.1245 80.4000 L 108.0755 80.4000 L 107.9588 80.4700 L 107.8311 80.5304 L 107.6980 80.5780 L 107.5609 80.6123 L 107.4211 80.6331 L 107.2800 80.6400 L 106.8755 80.6400 L 106.7588 80.7100 L 106.6311 80.7704 L 106.4980 80.8180 L 106.3609 80.8523 L 106.2211 80.8731 L 106.0800 80.8800 L 105.9155 80.8800 L 105.7988 80.9500 L 105.6711 81.0104 L 105.5380 81.0580 L 105.4009 81.0923 L 105.2611 81.1131 L 105.1200 81.1200 L 104.7155 81.1200 L 104.5988 81.1900 L 104.4711 81.2504 L 104.3380 81.2980 L 104.2009 81.3323 L 104.0611 81.3531 L 103.9200 81.3600 L 103.7555 81.3600 L 103.6388 81.4300 L 103.5111 81.4904 L 103.3780 81.5380 L 103.2409 81.5723 L 103.1011 81.5931 L 102.9600 81.6000 L 102.7955 81.6000 L 102.6788 81.6700 L 102.5511 81.7304 L 102.4180 81.7780 L 102.2809 81.8123 L 102.1411 81.8331 L 102.0000 81.8400 L 101.0400 81.8400 L 100.8989 81.8331 L 100.7591 81.8123 L 100.6220 81.7780 L 100.4889 81.7304 L 100.3612 81.6700 L 100.2400 81.5973 L 100.1265 81.5131 L 100.0218 81.4182 L 99.7818 81.1782 L 99.6869 81.0735 L 99.6027 80.9600 L 99.5300 80.8388 L 99.4696 80.7111 L 99.4220 80.5780 L 99.3877 80.4409 L 99.3669 80.3011 L 99.3600 80.1600 L 99.3600 78.4800 L 99.3669 78.3389 L 99.3877 78.1991 L 99.4220 78.0620 L 99.4696 77.9289 L 99.5300 77.8012 L 99.6000 77.6845 L 99.6000 76.3200 L 99.6069 76.1789 L 99.6277 76.0391 L 99.6620 75.9020 L 99.7096 75.7689 L 99.7700 75.6412 L 99.8400 75.5245 L 99.8400 75.1200 L 99.8469 74.9789 L 99.8677 74.8391 L 99.9020 74.7020 L 99.9496 74.5689 L 100.0100 74.4412 L 100.0827 74.3200 L 100.1669 74.2065 L 100.2618 74.1018 L 100.9818 73.3818 L 101.0400 73.3290 L 101.0400 73.2000 L 101.0469 73.0589 L 101.0677 72.9191 L 101.1020 72.7820 L 101.1496 72.6489 L 101.2100 72.5212 L 101.2800 72.4045 L 101.2800 71.3555 L 101.2100 71.2388 L 101.1687 71.1513 L 101.0812 71.1100 L 100.9600 71.0373 L 100.8465 70.9531 L 100.7418 70.8582 L 100.2618 70.3782 L 100.1669 70.2735 L 100.0827 70.1600 L 100.0100 70.0388 L 99.9496 69.9111 L 99.9020 69.7780 L 99.8677 69.6409 L 99.8469 69.5011 L 99.8400 69.3600 L 99.8400 67.4400 L 99.8469 67.2989 L 99.8677 67.1591 L 99.9020 67.0220 L 99.9496 66.8889 L 100.0100 66.7612 L 100.0800 66.6445 L 100.0800 66.0000 L 100.0869 65.8589 L 100.1077 65.7191 L 100.1420 65.5820 L 100.1896 65.4489 L 100.2500 65.3212 L 100.3200 65.2045 L 100.3200 64.3200 L 100.3269 64.1789 L 100.3477 64.0391 L 100.3820 63.9020 L 100.4296 63.7689 L 100.4900 63.6412 L 100.5600 63.5245 L 100.5600 62.8800 L 100.5669 62.7389 L 100.5877 62.5991 L 100.6220 62.4620 L 100.6696 62.3289 L 100.7300 62.2012 L 100.8000 62.0845 L 100.8000 61.4400 L 100.8069 61.2989 L 100.8277 61.1591 L 100.8620 61.0220 L 100.9096 60.8889 L 100.9700 60.7612 L 101.0427 60.6400 L 101.0440 60.6382 L 101.0469 60.5789 L 101.0677 60.4391 L 101.1020 60.3020 L 101.1496 60.1689 L 101.2100 60.0412 L 101.2827 59.9200 L 101.3669 59.8065 L 101.4618 59.7018 L 101.7801 59.3835 L 101.7627 59.3600 L 101.6900 59.2388 L 101.6296 59.1111 L 101.5820 58.9780 L 101.5477 58.8409 L 101.5269 58.7011 L 101.5200 58.5600 L 101.5200 57.4765 L 100.9818 56.9382 L 100.8869 56.8335 L 100.8027 56.7200 L 100.7300 56.5988 L 100.6696 56.4711 L 100.6220 56.3380 L 100.6152 56.3108 L 100.5627 56.2400 L 100.4900 56.1188 L 100.4296 55.9911 L 100.3820 55.8580 L 100.3752 55.8308 L 100.3227 55.7600 L 100.2500 55.6388 L 100.1896 55.5111 L 100.1423 55.3787 L 100.0218 55.2582 L 99.9269 55.1535 L 99.8427 55.0400 L 99.7700 54.9188 L 99.7096 54.7911 L 99.6620 54.6580 L 99.6552 54.6308 L 99.6027 54.5600 L 99.5300 54.4388 L 99.4696 54.3111 L 99.4220 54.1780 L 99.4179 54.1616 L 99.4065 54.1531 L 99.3018 54.0582 L 98.5818 53.3382 L 98.4869 53.2335 L 98.4027 53.1200 L 98.3300 52.9988 L 98.2696 52.8711 L 98.2220 52.7380 L 98.1877 52.6009 L 98.1669 52.4611 L 98.1640 52.4018 L 98.1627 52.4000 L 98.0900 52.2788 L 98.0296 52.1511 L 97.9820 52.0180 L 97.9477 51.8809 L 97.9269 51.7411 L 97.9240 51.6818 L 97.9227 51.6800 L 97.8500 51.5588 L 97.7896 51.4311 L 97.7420 51.2980 L 97.7077 51.1609 L 97.6869 51.0211 L 97.6840 50.9618 L 97.6827 50.9600 L 97.6100 50.8388 L 97.5496 50.7111 L 97.5020 50.5780 L 97.4952 50.5508 L 97.4427 50.4800 L 97.3700 50.3588 L 97.3096 50.2311 L 97.2623 50.0987 L 97.1418 49.9782 L 97.0469 49.8735 L 96.9627 49.7600 L 96.8900 49.6388 L 96.8296 49.5111 L 96.7823 49.3787 L 96.6618 49.2582 L 96.5669 49.1535 L 96.4827 49.0400 L 96.4100 48.9188 L 96.3496 48.7911 L 96.3020 48.6580 L 96.2677 48.5209 L 96.2469 48.3811 L 96.2440 48.3218 L 96.2427 48.3200 L 96.1700 48.1988 L 96.1096 48.0711 L 96.0620 47.9380 L 96.0552 47.9108 L 96.0027 47.8400 L 95.9300 47.7188 L 95.8696 47.5911 L 95.8220 47.4580 L 95.7877 47.3209 L 95.7669 47.1811 L 95.7640 47.1218 L 95.7627 47.1200 L 95.6900 46.9988 L 95.6296 46.8711 L 95.5820 46.7380 L 95.5752 46.7108 L 95.5227 46.6400 L 95.4500 46.5188 L 95.3896 46.3911 L 95.3420 46.2580 L 95.3352 46.2308 L 95.2827 46.1600 L 95.2100 46.0388 L 95.1496 45.9111 L 95.1020 45.7780 L 95.0952 45.7508 L 95.0427 45.6800 L 94.9700 45.5588 L 94.9096 45.4311 L 94.8620 45.2980 L 94.8552 45.2708 L 94.8027 45.2000 L 94.7300 45.0788 L 94.6696 44.9511 L 94.6220 44.8180 L 94.6152 44.7908 L 94.5627 44.7200 L 94.4900 44.5988 L 94.4296 44.4711 L 94.3823 44.3387 L 94.2618 44.2182 L 94.1669 44.1135 L 94.0827 44.0000 L 94.0100 43.8788 L 93.9496 43.7511 L 93.9023 43.6187 L 93.5418 43.2582 L 93.4469 43.1535 L 93.3627 43.0400 L 93.2900 42.9188 L 93.2296 42.7911 L 93.1823 42.6587 L 92.1018 41.5782 L 92.0069 41.4735 L 91.9227 41.3600 L 91.8500 41.2388 L 91.7896 41.1111 L 91.7423 40.9787 L 91.7413 40.9777 L 91.6089 40.9304 L 91.4812 40.8700 L 91.3600 40.7973 L 91.2465 40.7131 L 91.1418 40.6182 L 90.3013 39.7777 L 90.1689 39.7304 L 90.0412 39.6700 L 89.9200 39.5973 L 89.8065 39.5131 L 89.7018 39.4182 L 88.8613 38.5777 L 88.7289 38.5304 L 88.6012 38.4700 L 88.4800 38.3973 L 88.4092 38.3448 L 88.3820 38.3380 L 88.2489 38.2904 L 88.1212 38.2300 L 88.0000 38.1573 L 87.8865 38.0731 L 87.7818 37.9782 L 87.6613 37.8577 L 87.5289 37.8104 L 87.4012 37.7500 L 87.2800 37.6773 L 87.2092 37.6248 L 87.1820 37.6180 L 87.0489 37.5704 L 86.9212 37.5100 L 86.8000 37.4373 L 86.6865 37.3531 L 86.5818 37.2582 L 86.2213 36.8977 L 86.0889 36.8504 L 85.9612 36.7900 L 85.8400 36.7173 L 85.7265 36.6331 L 85.6218 36.5382 L 85.2613 36.1777 L 85.1289 36.1304 L 85.0012 36.0700 L 84.8800 35.9973 L 84.7665 35.9131 L 84.6618 35.8182 L 84.5413 35.6977 L 84.4089 35.6504 L 84.2812 35.5900 L 84.1600 35.5173 L 84.0892 35.4648 L 84.0620 35.4580 L 83.9289 35.4104 L 83.8012 35.3500 L 83.6800 35.2773 L 83.5665 35.1931 L 83.4618 35.0982 L 83.3975 35.0340 L 83.3789 35.0331 L 83.2391 35.0123 L 83.1020 34.9780 L 82.9689 34.9304 L 82.8412 34.8700 L 82.7200 34.7973 L 82.6492 34.7448 L 82.6220 34.7380 L 82.4889 34.6904 L 82.3612 34.6300 L 82.2400 34.5573 L 82.2382 34.5560 L 82.1789 34.5531 L 82.0391 34.5323 L 81.9020 34.4980 L 81.7689 34.4504 L 81.6412 34.3900 L 81.5245 34.3200 L 81.3600 34.3200 L 81.2189 34.3131 L 81.0791 34.2923 L 80.9420 34.2580 L 80.8089 34.2104 L 80.6812 34.1500 L 80.5645 34.0800 L 80.1600 34.0800 L 80.0189 34.0731 L 79.8791 34.0523 L 79.7420 34.0180 L 79.6089 33.9704 L 79.4812 33.9100 L 79.3645 33.8400 L 78.7200 33.8400 L 78.5789 33.8331 L 78.4391 33.8123 L 78.3020 33.7780 L 78.1689 33.7304 L 78.0412 33.6700 L 77.9245 33.6000 L 74.4755 33.6000 L 74.3588 33.6700 L 74.2311 33.7304 L 74.0980 33.7780 L 73.9609 33.8123 L 73.8211 33.8331 L 73.6800 33.8400 L 72.3155 33.8400 L 72.1988 33.9100 L 72.0711 33.9704 L 71.9380 34.0180 L 71.8009 34.0523 L 71.6611 34.0731 L 71.5200 34.0800 L 70.8755 34.0800 L 70.7588 34.1500 L 70.6311 34.2104 L 70.4980 34.2580 L 70.3609 34.2923 L 70.2211 34.3131 L 70.0800 34.3200 L 69.9155 34.3200 L 69.7988 34.3900 L 69.6711 34.4504 L 69.5380 34.4980 L 69.4009 34.5323 L 69.2611 34.5531 L 69.1200 34.5600 L 68.7155 34.5600 L 68.5988 34.6300 L 68.4711 34.6904 L 68.3380 34.7380 L 68.2009 34.7723 L 68.0611 34.7931 L 68.0018 34.7960 L 68.0000 34.7973 L 67.8788 34.8700 L 67.7511 34.9304 L 67.6180 34.9780 L 67.4809 35.0123 L 67.3411 35.0331 L 67.2818 35.0360 L 67.2800 35.0373 L 67.1588 35.1100 L 67.0311 35.1704 L 66.8980 35.2180 L 66.7609 35.2523 L 66.6211 35.2731 L 66.5618 35.2760 L 66.5600 35.2773 L 66.4388 35.3500 L 66.3111 35.4104 L 66.1780 35.4580 L 66.1508 35.4648 L 66.0800 35.5173 L 65.9588 35.5900 L 65.8311 35.6504 L 65.6980 35.6980 L 65.5609 35.7323 L 65.4211 35.7531 L 65.3618 35.7560 L 65.3600 35.7573 L 65.2388 35.8300 L 65.1111 35.8904 L 64.9780 35.9380 L 64.9508 35.9448 L 64.8800 35.9973 L 64.7588 36.0700 L 64.6311 36.1304 L 64.4980 36.1780 L 64.4708 36.1848 L 64.4000 36.2373 L 64.2788 36.3100 L 64.1511 36.3704 L 64.0180 36.4180 L 63.9908 36.4248 L 63.9200 36.4773 L 63.7988 36.5500 L 63.6711 36.6104 L 63.5387 36.6577 L 63.4182 36.7782 L 63.3135 36.8731 L 63.2000 36.9573 L 63.0788 37.0300 L 62.9511 37.0904 L 62.8180 37.1380 L 62.7908 37.1448 L 62.7200 37.1973 L 62.5988 37.2700 L 62.4711 37.3304 L 62.3387 37.3777 L 62.2182 37.4982 L 62.1135 37.5931 L 62.0000 37.6773 L 61.8788 37.7500 L 61.7511 37.8104 L 61.6187 37.8577 L 61.2582 38.2182 L 61.1535 38.3131 L 61.0400 38.3973 L 60.9188 38.4700 L 60.7911 38.5304 L 60.6587 38.5777 L 59.6977 39.5387 L 59.6504 39.6711 L 59.5900 39.7988 L 59.5173 39.9200 L 59.4331 40.0335 L 59.3382 40.1382 L 58.7377 40.7387 L 58.6904 40.8711 L 58.6300 40.9988 L 58.5573 41.1200 L 58.4731 41.2335 L 58.3782 41.3382 L 58.2577 41.4587 L 58.2104 41.5911 L 58.1500 41.7188 L 58.0773 41.8400 L 57.9931 41.9535 L 57.8982 42.0582 L 57.7777 42.1787 L 57.7304 42.3111 L 57.6700 42.4388 L 57.5973 42.5600 L 57.5448 42.6308 L 57.5380 42.6580 L 57.4904 42.7911 L 57.4300 42.9188 L 57.3573 43.0400 L 57.3048 43.1108 L 57.2980 43.1380 L 57.2504 43.2711 L 57.1900 43.3988 L 57.1173 43.5200 L 57.0648 43.5908 L 57.0580 43.6180 L 57.0104 43.7511 L 56.9500 43.8788 L 56.8773 44.0000 L 56.8248 44.0708 L 56.8180 44.0980 L 56.7704 44.2311 L 56.7100 44.3588 L 56.6373 44.4800 L 56.5531 44.5935 L 56.4582 44.6982 L 55.8577 45.2987 L 55.8104 45.4311 L 55.7500 45.5588 L 55.6773 45.6800 L 55.5931 45.7935 L 55.4982 45.8982 L 55.1377 46.2587 L 55.0904 46.3911 L 55.0300 46.5188 L 54.9573 46.6400 L 54.9560 46.6418 L 54.9531 46.7011 L 54.9323 46.8409 L 54.8980 46.9780 L 54.8504 47.1111 L 54.7900 47.2388 L 54.7173 47.3600 L 54.6648 47.4308 L 54.6580 47.4580 L 54.6104 47.5911 L 54.5500 47.7188 L 54.4773 47.8400 L 54.4760 47.8418 L 54.4731 47.9011 L 54.4523 48.0409 L 54.4180 48.1780 L 54.3704 48.3111 L 54.3100 48.4388 L 54.2373 48.5600 L 54.2360 48.5618 L 54.2331 48.6211 L 54.2123 48.7609 L 54.1780 48.8980 L 54.1304 49.0311 L 54.0700 49.1588 L 53.9973 49.2800 L 53.9960 49.2818 L 53.9931 49.3411 L 53.9723 49.4809 L 53.9380 49.6180 L 53.8904 49.7511 L 53.8300 49.8788 L 53.7573 50.0000 L 53.7560 50.0018 L 53.7531 50.0611 L 53.7323 50.2009 L 53.6980 50.3380 L 53.6504 50.4711 L 53.5900 50.5988 L 53.5173 50.7200 L 53.5160 50.7218 L 53.5131 50.7811 L 53.4923 50.9209 L 53.4580 51.0580 L 53.4104 51.1911 L 53.3500 51.3188 L 53.2800 51.4355 L 53.2800 52.3200 L 53.2731 52.4611 L 53.2523 52.6009 L 53.2180 52.7380 L 53.1704 52.8711 L 53.1100 52.9988 L 53.0400 53.1155 L 53.0400 56.5645 L 53.1100 56.6812 L 53.1704 56.8089 L 53.2180 56.9420 L 53.2523 57.0791 L 53.2731 57.2189 L 53.2800 57.3600 L 53.2800 58.7245 L 53.3500 58.8412 L 53.4104 58.9689 L 53.4580 59.1020 L 53.4923 59.2391 L 53.5131 59.3789 L 53.5200 59.5200 L 53.5200 60.8845 L 53.5900 61.0012 L 53.6504 61.1289 L 53.6980 61.2620 L 53.7323 61.3991 L 53.7531 61.5389 L 53.7600 61.6800 L 53.7600 62.5645 L 53.8300 62.6812 L 53.8904 62.8089 L 53.9380 62.9420 L 53.9723 63.0791 L 53.9931 63.2189 L 54.0000 63.3600 L 54.0000 63.5245 L 54.0700 63.6412 L 54.1304 63.7689 L 54.1780 63.9020 L 54.2123 64.0391 L 54.2331 64.1789 L 54.2400 64.3200 L 54.2400 64.7245 L 54.3100 64.8412 L 54.3704 64.9689 L 54.4180 65.1020 L 54.4523 65.2391 L 54.4731 65.3789 L 54.4800 65.5200 L 54.4800 65.6845 L 54.5500 65.8012 L 54.6104 65.9289 L 54.6580 66.0620 L 54.6923 66.1991 L 54.7131 66.3389 L 54.7200 66.4800 L 54.7200 66.8845 L 54.7900 67.0012 L 54.8504 67.1289 L 54.8980 67.2620 L 54.9323 67.3991 L 54.9531 67.5389 L 54.9560 67.5982 L 54.9573 67.6000 L 55.0300 67.7212 L 55.0904 67.8489 L 55.1380 67.9820 L 55.1723 68.1191 L 55.1931 68.2589 L 55.2000 68.4000 L 55.2000 69.3600 L 55.1931 69.5011 L 55.1723 69.6409 L 55.1380 69.7780 L 55.0904 69.9111 L 55.0300 70.0388 L 54.9573 70.1600 L 54.8731 70.2735 L 54.7782 70.3782 L 54.7200 70.4365 L 54.7200 71.4445 L 54.7900 71.5612 L 54.8504 71.6889 L 54.8980 71.8220 L 54.9048 71.8492 L 54.9573 71.9200 L 55.0300 72.0412 L 55.0904 72.1689 L 55.1380 72.3020 L 55.1723 72.4391 L 55.1931 72.5789 L 55.1960 72.6382 L 55.1973 72.6400 L 55.2700 72.7612 L 55.3304 72.8889 L 55.3780 73.0220 L 55.4123 73.1591 L 55.4331 73.2989 L 55.4360 73.3582 L 55.4373 73.3600 L 55.5100 73.4812 L 55.5704 73.6089 L 55.6180 73.7420 L 55.6248 73.7692 L 55.6773 73.8400 L 55.7500 73.9612 L 55.8104 74.0889 L 55.8580 74.2220 L 55.8648 74.2492 L 55.9173 74.3200 L 55.9900 74.4412 L 56.0504 74.5689 L 56.0793 74.6496 L 56.2009 74.6677 L 56.3380 74.7020 L 56.4711 74.7496 L 56.5988 74.8100 L 56.7200 74.8827 L 56.7908 74.9352 L 56.8180 74.9420 L 56.9511 74.9896 L 57.0788 75.0500 L 57.2000 75.1227 L 57.3135 75.2069 L 57.4182 75.3018 L 58.1382 76.0218 L 58.2331 76.1265 L 58.3173 76.2400 L 58.3900 76.3612 L 58.4504 76.4889 L 58.4980 76.6220 L 58.5323 76.7591 L 58.5531 76.8989 L 58.5600 77.0400 L 58.5600 77.9245 L 58.6300 78.0412 L 58.6904 78.1689 L 58.7377 78.3013 L 58.8582 78.4218 L 58.9531 78.5265 L 59.0373 78.6400 L 59.1100 78.7612 L 59.1704 78.8889 L 59.2177 79.0213 L 59.3382 79.1418 L 59.4331 79.2465 L 59.5173 79.3600 L 59.5900 79.4812 L 59.6504 79.6089 L 59.6977 79.7413 L 59.8182 79.8618 L 59.9131 79.9665 L 59.9973 80.0800 L 60.0700 80.2012 L 60.1304 80.3289 L 60.1777 80.4613 L 61.4982 81.7818 L 61.5931 81.8865 L 61.6773 82.0000 L 61.7500 82.1212 L 61.8104 82.2489 L 61.8580 82.3820 L 61.8648 82.4092 L 61.9173 82.4800 L 61.9900 82.6012 L 62.0504 82.7289 L 62.0980 82.8620 L 62.1048 82.8892 L 62.1573 82.9600 L 62.2300 83.0812 L 62.2904 83.2089 L 62.3380 83.3420 L 62.3448 83.3692 L 62.3973 83.4400 L 62.4000 83.4445 L 62.4027 83.4400 L 62.4869 83.3265 L 62.5818 83.2218 L 63.0618 82.7418 L 63.1665 82.6469 L 63.2800 82.5627 L 63.4012 82.4900 L 63.5289 82.4296 L 63.6620 82.3820 L 63.7991 82.3477 L 63.9389 82.3269 L 64.0800 82.3200 L 64.2211 82.3269 L 64.3609 82.3477 L 64.4980 82.3820 L 64.6311 82.4296 L 64.7588 82.4900 L 64.8800 82.5627 L 64.9935 82.6469 L 65.0982 82.7418 L 65.6987 83.3423 L 65.8311 83.3896 L 65.9588 83.4500 L 66.0800 83.5227 L 66.0818 83.5240 L 66.1411 83.5269 L 66.2809 83.5477 L 66.4180 83.5820 L 66.5511 83.6296 L 66.6788 83.6900 L 66.8000 83.7627 L 66.9135 83.8469 L 67.0182 83.9418 L 67.2582 84.1818 L 67.3531 84.2865 L 67.4373 84.4000 L 67.5100 84.5212 L 67.5704 84.6489 L 67.6180 84.7820 L 67.6248 84.8092 L 67.6773 84.8800 L 67.7500 85.0012 L 67.8104 85.1289 L 67.8580 85.2620 L 67.8923 85.3991 L 67.9131 85.5389 L 67.9160 85.5982 L 67.9173 85.6000 L 67.9900 85.7212 L 68.0504 85.8489 L 68.0980 85.9820 L 68.1323 86.1191 L 68.1531 86.2589 L 68.1600 86.4000 L 68.1600 87.3600 L 68.1531 87.5011 L 68.1323 87.6409 L 68.0980 87.7780 L 68.0504 87.9111 L 67.9900 88.0388 L 67.9173 88.1600 L 67.8331 88.2735 L 67.7382 88.3782 L 67.0182 89.0982 L 66.9135 89.1931 L 66.8000 89.2773 L 66.6788 89.3500 L 66.5511 89.4104 L 66.4180 89.4580 L 66.3908 89.4648 L 66.3200 89.5173 L 66.1988 89.5900 L 66.0711 89.6504 L 65.9380 89.6980 L 65.9108 89.7048 L 65.8400 89.7573 L 65.7188 89.8300 L 65.5911 89.8904 L 65.4580 89.9380 L 65.3209 89.9723 L 65.1811 89.9931 L 65.0400 90.0000 L 64.8989 89.9931 L 64.7591 89.9723 L 64.6220 89.9380 L 64.4889 89.8904 L 64.3648 89.8317 L 63.6582 90.5382 L 63.5535 90.6331 L 63.4400 90.7173 L 63.3188 90.7900 L 63.1911 90.8504 L 63.0580 90.8980 L 62.9209 90.9323 L 62.7811 90.9531 L 62.7218 90.9560 L 62.7200 90.9573 L 62.5988 91.0300 L 62.4711 91.0904 L 62.3380 91.1380 L 62.3108 91.1448 L 62.2400 91.1973 L 62.1188 91.2700 L 61.9911 91.3304 L 61.8580 91.3780 L 61.8308 91.3848 L 61.7600 91.4373 L 61.6388 91.5100 L 61.5111 91.5704 L 61.3780 91.6180 L 61.3508 91.6248 L 61.2800 91.6773 L 61.1588 91.7500 L 61.0311 91.8104 L 60.8980 91.8580 L 60.8708 91.8648 L 60.8000 91.9173 L 60.6788 91.9900 L 60.5511 92.0504 L 60.4180 92.0980 L 60.2809 92.1323 L 60.1411 92.1531 L 60.0818 92.1560 L 60.0800 92.1573 L 59.9588 92.2300 L 59.8311 92.2904 L 59.6987 92.3377 L 59.5782 92.4582 L 59.4735 92.5531 L 59.3600 92.6373 L 59.2388 92.7100 L 59.1111 92.7704 L 58.9780 92.8180 L 58.9508 92.8248 L 58.8800 92.8773 L 58.7588 92.9500 L 58.6311 93.0104 L 58.4980 93.0580 L 58.4708 93.0648 L 58.4000 93.1173 L 58.2788 93.1900 L 58.1511 93.2504 L 58.0180 93.2980 L 57.9908 93.3048 L 57.9200 93.3573 L 57.7988 93.4300 L 57.6711 93.4904 L 57.5380 93.5380 L 57.5108 93.5448 L 57.4400 93.5973 L 57.3188 93.6700 L 57.1911 93.7304 L 57.0580 93.7780 L 57.0308 93.7848 L 56.9600 93.8373 L 56.8388 93.9100 L 56.7111 93.9704 L 56.5780 94.0180 L 56.5508 94.0248 L 56.4800 94.0773 L 56.3588 94.1500 L 56.2311 94.2104 L 56.0980 94.2580 L 55.9609 94.2923 L 55.8211 94.3131 L 55.7618 94.3160 L 55.7600 94.3173 L 55.6388 94.3900 L 55.5111 94.4504 L 55.3780 94.4980 L 55.3508 94.5048 L 55.2800 94.5573 L 55.1588 94.6300 L 55.0311 94.6904 L 54.8980 94.7380 L 54.7609 94.7723 L 54.6211 94.7931 L 54.5618 94.7960 L 54.5600 94.7973 L 54.4388 94.8700 L 54.3111 94.9304 L 54.1780 94.9780 L 54.0409 95.0123 L 53.9011 95.0331 L 53.8418 95.0360 L 53.8400 95.0373 L 53.7188 95.1100 L 53.5911 95.1704 L 53.4580 95.2180 L 53.3209 95.2523 L 53.1811 95.2731 L 53.1218 95.2760 L 53.1200 95.2773 L 52.9988 95.3500 L 52.8711 95.4104 L 52.7380 95.4580 L 52.6009 95.4923 L 52.4611 95.5131 L 52.4018 95.5160 L 52.4000 95.5173 L 52.2788 95.5900 L 52.1511 95.6504 L 52.0180 95.6980 L 51.8809 95.7323 L 51.7411 95.7531 L 51.6818 95.7560 L 51.6800 95.7573 L 51.5588 95.8300 L 51.4311 95.8904 L 51.2980 95.9380 L 51.1609 95.9723 L 51.0211 95.9931 L 50.9618 95.9960 L 50.9600 95.9973 L 50.8388 96.0700 L 50.7111 96.1304 L 50.5780 96.1780 L 50.5508 96.1848 L 50.4800 96.2373 L 50.3588 96.3100 L 50.2311 96.3704 L 50.0980 96.4180 L 50.0708 96.4248 L 50.0000 96.4773 L 49.8788 96.5500 L 49.7511 96.6104 L 49.6180 96.6580 L 49.5908 96.6648 L 49.5200 96.7173 L 49.3988 96.7900 L 49.2711 96.8504 L 49.1380 96.8980 L 49.1108 96.9048 L 49.0400 96.9573 L 48.9188 97.0300 L 48.7911 97.0904 L 48.6587 97.1377 L 47.3382 98.4582 L 47.2335 98.5531 L 47.1200 98.6373 L 46.9988 98.7100 L 46.8711 98.7704 L 46.7387 98.8177 L 46.3782 99.1782 L 46.2735 99.2731 L 46.1600 99.3573 L 46.0388 99.4300 L 45.9111 99.4904 L 45.7787 99.5377 L 45.6582 99.6582 L 45.5535 99.7531 L 45.4400 99.8373 L 45.3188 99.9100 L 45.1911 99.9704 L 45.0587 100.0177 L 44.9382 100.1382 L 44.8335 100.2331 L 44.7200 100.3173 L 44.6683 100.3483 L 44.6373 100.4000 L 44.5531 100.5135 L 44.4582 100.6182 L 42.8977 102.1787 L 42.8504 102.3111 L 42.7900 102.4388 L 42.7173 102.5600 L 42.6331 102.6735 L 42.5382 102.7782 L 42.1777 103.1387 L 42.1304 103.2711 L 42.0700 103.3988 L 41.9973 103.5200 L 41.9448 103.5908 L 41.9380 103.6180 L 41.8904 103.7511 L 41.8300 103.8788 L 41.7573 104.0000 L 41.7048 104.0708 L 41.6980 104.0980 L 41.6504 104.2311 L 41.5900 104.3588 L 41.5173 104.4800 L 41.5160 104.4818 L 41.5131 104.5411 L 41.4923 104.6809 L 41.4580 104.8180 L 41.4104 104.9511 L 41.3500 105.0788 L 41.2800 105.1955 L 41.2800 106.3200 L 41.2731 106.4611 L 41.2523 106.6009 L 41.2180 106.7380 L 41.1704 106.8711 L 41.1100 106.9988 L 41.0400 107.1155 L 41.0400 107.5200 L 41.0331 107.6611 L 41.0123 107.8009 L 40.9780 107.9380 L 40.9304 108.0711 L 40.8700 108.1988 L 40.8000 108.3155 L 40.8000 108.7200 L 40.7931 108.8611 L 40.7723 109.0009 L 40.7380 109.1380 L 40.6904 109.2711 L 40.6300 109.3988 L 40.5600 109.5155 Z M 76.8000 207.8400 L 76.8069 207.6989 L 76.8277 207.5591 L 76.8620 207.4220 L 76.9096 207.2889 L 76.9700 207.1612 L 77.0427 207.0400 L 77.1269 206.9265 L 77.2218 206.8218 L 77.4618 206.5818 L 77.5665 206.4869 L 77.6800 206.4027 L 77.8012 206.3300 L 77.9289 206.2696 L 78.0620 206.2220 L 78.1991 206.1877 L 78.3389 206.1669 L 78.4800 206.1600 L 78.6211 206.1669 L 78.7609 206.1877 L 78.8980 206.2220 L 79.0311 206.2696 L 79.1588 206.3300 L 79.2800 206.4027 L 79.3508 206.4552 L 79.3780 206.4620 L 79.5111 206.5096 L 79.6388 206.5700 L 79.7600 206.6427 L 79.8735 206.7269 L 79.9782 206.8218 L 80.2182 207.0618 L 80.3131 207.1665 L 80.3973 207.2800 L 80.4700 207.4012 L 80.5304 207.5289 L 80.5780 207.6620 L 80.6123 207.7991 L 80.6331 207.9389 L 80.6400 208.0800 L 80.6400 208.3200 L 80.6331 208.4611 L 80.6123 208.6009 L 80.5780 208.7380 L 80.5304 208.8711 L 80.4700 208.9988 L 80.3973 209.1200 L 80.3131 209.2335 L 80.2182 209.3382 L 79.9782 209.5782 L 79.8735 209.6731 L 79.7600 209.7573 L 79.6388 209.8300 L 79.5111 209.8904 L 79.3780 209.9380 L 79.2409 209.9723 L 79.1011 209.9931 L 78.9600 210.0000 L 78.7200 210.0000 L 78.5789 209.9931 L 78.4391 209.9723 L 78.3020 209.9380 L 78.1689 209.8904 L 78.0412 209.8300 L 77.9200 209.7573 L 77.8065 209.6731 L 77.7018 209.5782 L 77.2218 209.0982 L 77.1269 208.9935 L 77.0427 208.8800 L 76.9700 208.7588 L 76.9096 208.6311 L 76.8620 208.4980 L 76.8277 208.3609 L 76.8069 208.2211 L 76.8000 208.0800 L 76.8000 207.8400 Z M 68.8800 207.3600 L 68.8869 207.2189 L 68.9077 207.0791 L 68.9420 206.9420 L 68.9896 206.8089 L 69.0500 206.6812 L 69.1227 206.5600 L 69.2069 206.4465 L 69.3018 206.3418 L 69.5418 206.1018 L 69.6465 206.0069 L 69.7600 205.9227 L 69.8812 205.8500 L 70.0089 205.7896 L 70.1420 205.7420 L 70.2791 205.7077 L 70.4189 205.6869 L 70.5600 205.6800 L 71.5200 205.6800 L 71.6611 205.6869 L 71.8009 205.7077 L 71.9380 205.7420 L 72.0711 205.7896 L 72.1988 205.8500 L 72.3200 205.9227 L 72.4335 206.0069 L 72.5382 206.1018 L 72.7782 206.3418 L 72.8731 206.4465 L 72.9573 206.5600 L 73.0300 206.6812 L 73.0904 206.8089 L 73.1380 206.9420 L 73.1723 207.0791 L 73.1931 207.2189 L 73.2000 207.3600 L 73.2000 207.6000 L 73.1931 207.7411 L 73.1723 207.8809 L 73.1380 208.0180 L 73.0904 208.1511 L 73.0300 208.2788 L 72.9573 208.4000 L 72.8731 208.5135 L 72.7782 208.6182 L 72.5382 208.8582 L 72.4335 208.9531 L 72.3200 209.0373 L 72.1988 209.1100 L 72.0711 209.1704 L 71.9380 209.2180 L 71.9108 209.2248 L 71.8400 209.2773 L 71.7188 209.3500 L 71.5911 209.4104 L 71.4580 209.4580 L 71.3209 209.4923 L 71.1811 209.5131 L 71.0400 209.5200 L 70.5600 209.5200 L 70.4189 209.5131 L 70.2791 209.4923 L 70.1420 209.4580 L 70.0089 209.4104 L 69.8812 209.3500 L 69.7600 209.2773 L 69.6465 209.1931 L 69.5418 209.0982 L 69.3018 208.8582 L 69.2069 208.7535 L 69.1227 208.6400 L 69.0500 208.5188 L 68.9896 208.3911 L 68.9420 208.2580 L 68.9077 208.1209 L 68.8869 207.9811 L 68.8800 207.8400 L 68.8800 207.3600 Z M 61.3818 204.2982 L 61.2869 204.1935 L 61.2027 204.0800 L 61.1300 203.9588 L 61.0696 203.8311 L 61.0220 203.6980 L 60.9877 203.5609 L 60.9669 203.4211 L 60.9600 203.2800 L 60.9669 203.1389 L 60.9877 202.9991 L 61.0220 202.8620 L 61.0696 202.7289 L 61.1300 202.6012 L 61.2027 202.4800 L 61.2869 202.3665 L 61.3818 202.2618 L 61.6218 202.0218 L 61.7265 201.9269 L 61.8400 201.8427 L 61.9612 201.7700 L 62.0889 201.7096 L 62.2220 201.6620 L 62.3591 201.6277 L 62.4989 201.6069 L 62.6400 201.6000 L 62.8800 201.6000 L 63.0211 201.6069 L 63.1609 201.6277 L 63.2049 201.6387 L 63.3018 201.5418 L 63.4065 201.4469 L 63.5200 201.3627 L 63.6412 201.2900 L 63.7689 201.2296 L 63.9020 201.1820 L 64.0391 201.1477 L 64.1789 201.1269 L 64.3200 201.1200 L 64.4611 201.1269 L 64.6009 201.1477 L 64.7380 201.1820 L 64.8711 201.2296 L 64.9988 201.2900 L 65.1200 201.3627 L 65.2335 201.4469 L 65.3382 201.5418 L 65.5782 201.7818 L 65.6731 201.8865 L 65.7573 202.0000 L 65.8300 202.1212 L 65.8904 202.2489 L 65.9380 202.3820 L 65.9723 202.5191 L 65.9931 202.6589 L 66.0000 202.8000 L 65.9931 202.9411 L 65.9723 203.0809 L 65.9380 203.2180 L 65.8904 203.3511 L 65.8300 203.4788 L 65.7573 203.6000 L 65.6731 203.7135 L 65.5782 203.8182 L 65.3382 204.0582 L 65.2335 204.1531 L 65.1200 204.2373 L 64.9988 204.3100 L 64.8711 204.3704 L 64.7380 204.4180 L 64.6009 204.4523 L 64.4611 204.4731 L 64.3200 204.4800 L 64.1789 204.4731 L 64.0391 204.4523 L 63.9951 204.4413 L 63.8982 204.5382 L 63.7935 204.6331 L 63.6800 204.7173 L 63.5588 204.7900 L 63.4311 204.8504 L 63.2980 204.8980 L 63.1609 204.9323 L 63.0211 204.9531 L 62.8800 204.9600 L 62.6400 204.9600 L 62.4989 204.9531 L 62.3591 204.9323 L 62.2220 204.8980 L 62.0889 204.8504 L 61.9612 204.7900 L 61.8400 204.7173 L 61.7265 204.6331 L 61.6218 204.5382 L 61.3818 204.2982 Z M 57.7818 206.6982 L 57.6869 206.5935 L 57.6027 206.4800 L 57.5300 206.3588 L 57.4696 206.2311 L 57.4220 206.0980 L 57.3877 205.9609 L 57.3669 205.8211 L 57.3600 205.6800 L 57.3669 205.5389 L 57.3877 205.3991 L 57.4220 205.2620 L 57.4696 205.1289 L 57.5300 205.0012 L 57.6027 204.8800 L 57.6869 204.7665 L 57.7818 204.6618 L 58.2618 204.1818 L 58.3665 204.0869 L 58.4800 204.0027 L 58.6012 203.9300 L 58.7289 203.8696 L 58.8620 203.8220 L 58.9991 203.7877 L 59.1389 203.7669 L 59.2800 203.7600 L 59.4211 203.7669 L 59.5609 203.7877 L 59.6980 203.8220 L 59.8311 203.8696 L 59.9588 203.9300 L 60.0800 204.0027 L 60.1935 204.0869 L 60.2982 204.1818 L 60.5382 204.4218 L 60.6331 204.5265 L 60.7173 204.6400 L 60.7900 204.7612 L 60.8504 204.8889 L 60.8980 205.0220 L 60.9323 205.1591 L 60.9531 205.2989 L 60.9600 205.4400 L 60.9531 205.5811 L 60.9323 205.7209 L 60.8980 205.8580 L 60.8504 205.9911 L 60.7900 206.1188 L 60.7173 206.2400 L 60.6331 206.3535 L 60.5382 206.4582 L 60.0582 206.9382 L 59.9535 207.0331 L 59.8400 207.1173 L 59.7188 207.1900 L 59.5911 207.2504 L 59.4580 207.2980 L 59.3209 207.3323 L 59.1811 207.3531 L 59.0400 207.3600 L 58.8989 207.3531 L 58.7591 207.3323 L 58.6220 207.2980 L 58.4889 207.2504 L 58.3612 207.1900 L 58.2400 207.1173 L 58.1265 207.0331 L 58.0218 206.9382 L 57.7818 206.6982 Z M 125.2800 74.0435 L 125.4618 73.8618 L 125.5665 73.7669 L 125.6800 73.6827 L 125.8012 73.6100 L 125.9289 73.5496 L 126.0620 73.5020 L 126.1991 73.4677 L 126.3389 73.4469 L 126.4800 73.4400 L 126.7200 73.4400 L 126.8057 73.4442 L 126.7820 73.3780 L 126.7752 73.3508 L 126.7227 73.2800 L 126.6500 73.1588 L 126.5896 73.0311 L 126.5423 72.8987 L 126.1818 72.5382 L 126.0869 72.4335 L 126.0027 72.3200 L 125.9300 72.1988 L 125.8696 72.0711 L 125.8223 71.9387 L 125.7018 71.8182 L 125.6069 71.7135 L 125.5227 71.6000 L 125.4500 71.4788 L 125.3896 71.3511 L 125.3420 71.2180 L 125.3352 71.1908 L 125.2827 71.1200 L 125.2100 70.9988 L 125.1496 70.8711 L 125.1023 70.7387 L 124.7418 70.3782 L 124.6469 70.2735 L 124.5627 70.1600 L 124.4900 70.0388 L 124.4296 69.9111 L 124.3823 69.7787 L 123.7235 69.1200 L 123.4765 69.1200 L 123.4182 69.1782 L 123.3135 69.2731 L 123.2000 69.3573 L 123.0788 69.4300 L 122.9511 69.4904 L 122.8187 69.5377 L 122.8177 69.5387 L 122.7704 69.6711 L 122.7100 69.7988 L 122.6400 69.9155 L 122.6400 70.2445 L 122.7100 70.3612 L 122.7704 70.4889 L 122.8177 70.6213 L 123.1782 70.9818 L 123.2731 71.0865 L 123.3573 71.2000 L 123.4300 71.3212 L 123.4904 71.4489 L 123.5380 71.5820 L 123.5448 71.6092 L 123.5973 71.6800 L 123.6700 71.8012 L 123.7304 71.9289 L 123.7777 72.0613 L 123.8982 72.1818 L 123.9931 72.2865 L 124.0773 72.4000 L 124.1500 72.5212 L 124.2104 72.6489 L 124.2577 72.7813 L 124.3782 72.9018 L 124.4731 73.0065 L 124.5573 73.1200 L 124.6300 73.2412 L 124.6904 73.3689 L 124.7377 73.5013 L 125.2800 74.0435 Z" fill="none" stroke="black" stroke-width="0.5" /></svg>