<?xml version="1.0" encoding="utf-8" ?>
<svg baseProfile="full" height="261" version="1.1" viewBox="0 0 189 261" width="189" xmlns="http://www.w3.org/2000/svg" xmlns:ev="http://www.w3.org/2001/xml-events" xmlns:xlink="http://www.w3.org/1999/xlink"><defs /><path d="M 0.0000 0.0000 L 0.0000 260.6400 L 188.6400 260.6400 L 188.6400 0.0000 L 0.0000 0.0000 Z M 9.6000 9.8400 L 9.8400 9.6000 L 178.8000 9.6000 L 179.0400 9.8400 L 179.0400 118.8000 L 178.5600 119.2800 L 178.3200 119.2800 L 178.0800 119.5200 L 177.8400 119.5200 L 177.6000 119.7600 L 177.3600 119.7600 L 177.1200 120.0000 L 176.8800 120.0000 L 176.6400 120.2400 L 176.1600 120.2400 L 175.9200 120.4800 L 175.6800 120.4800 L 175.4400 120.7200 L 175.2000 120.7200 L 174.9600 120.9600 L 174.4800 120.9600 L 174.2400 121.2000 L 174.0000 121.2000 L 173.7600 121.4400 L 173.5200 121.4400 L 173.2800 121.6800 L 173.0400 121.6800 L 172.8000 121.9200 L 172.3200 121.9200 L 172.0800 122.1600 L 171.8400 122.1600 L 171.6000 122.4000 L 171.3600 122.4000 L 171.1200 122.6400 L 170.6400 122.6400 L 170.4000 122.8800 L 170.1600 122.8800 L 169.9200 123.1200 L 169.6800 123.1200 L 169.4400 123.3600 L 168.9600 123.3600 L 168.7200 123.6000 L 168.4800 123.6000 L 168.2400 123.8400 L 168.0000 123.8400 L 167.7600 124.0800 L 167.5200 124.0800 L 167.2800 124.3200 L 166.8000 124.3200 L 166.5600 124.5600 L 166.3200 124.5600 L 166.0800 124.8000 L 165.6000 124.8000 L 165.3600 125.0400 L 165.1200 125.0400 L 164.8800 125.2800 L 164.6400 125.2800 L 164.4000 125.5200 L 164.1600 125.5200 L 163.9200 125.7600 L 163.4400 125.7600 L 163.2000 126.0000 L 162.9600 126.0000 L 162.7200 126.2400 L 162.4800 126.2400 L 162.2400 126.4800 L 162.0000 126.4800 L 161.7600 126.7200 L 161.2800 126.7200 L 161.0400 126.9600 L 160.8000 126.9600 L 160.5600 127.2000 L 160.0800 127.2000 L 159.8400 127.4400 L 159.6000 127.4400 L 159.3600 127.6800 L 159.1200 127.6800 L 158.8800 127.9200 L 158.4000 127.9200 L 158.1600 128.1600 L 157.9200 128.1600 L 157.6800 128.4000 L 157.4400 128.4000 L 157.2000 128.6400 L 156.9600 128.6400 L 156.7200 128.8800 L 156.2400 128.8800 L 156.0000 129.1200 L 155.7600 129.1200 L 155.5200 129.3600 L 155.2800 129.3600 L 155.0400 129.6000 L 154.5600 129.6000 L 154.3200 129.8400 L 154.0800 129.8400 L 153.8400 130.0800 L 153.6000 130.0800 L 153.3600 130.3200 L 152.8800 130.3200 L 152.6400 130.5600 L 152.4000 130.5600 L 152.1600 130.8000 L 151.9200 130.8000 L 151.6800 131.0400 L 151.4400 131.0400 L 151.2000 131.2800 L 150.9600 131.2800 L 150.7200 131.5200 L 150.2400 131.5200 L 150.0000 131.7600 L 149.7600 131.7600 L 149.5200 132.0000 L 149.0400 132.0000 L 148.8000 132.2400 L 148.5600 132.2400 L 148.3200 132.4800 L 148.0800 132.4800 L 147.8400 132.7200 L 147.3600 132.7200 L 147.1200 132.9600 L 146.8800 132.9600 L 146.6400 133.2000 L 146.4000 133.2000 L 146.1600 133.4400 L 145.9200 133.4400 L 145.6800 133.6800 L 145.2000 133.6800 L 144.9600 133.9200 L 144.7200 133.9200 L 144.4800 134.1600 L 144.0000 134.1600 L 143.7600 134.4000 L 143.5200 134.4000 L 143.2800 134.6400 L 143.0400 134.6400 L 142.8000 134.8800 L 142.3200 134.8800 L 142.0800 135.1200 L 141.8400 135.1200 L 141.6000 135.3600 L 141.3600 135.3600 L 141.1200 135.6000 L 140.8800 135.6000 L 140.6400 135.8400 L 140.1600 135.8400 L 139.9200 136.0800 L 139.6800 136.0800 L 139.4400 136.3200 L 139.2000 136.3200 L 138.9600 136.5600 L 138.4800 136.5600 L 138.2400 136.8000 L 138.0000 136.8000 L 137.7600 137.0400 L 137.5200 137.0400 L 137.2800 137.2800 L 136.8000 137.2800 L 136.5600 137.5200 L 136.3200 137.5200 L 136.0800 137.7600 L 135.8400 137.7600 L 135.6000 138.0000 L 135.1200 138.0000 L 134.8800 138.2400 L 134.6400 138.2400 L 134.4000 138.4800 L 134.1600 138.4800 L 133.9200 138.7200 L 133.4400 138.7200 L 133.2000 138.9600 L 132.9600 138.9600 L 132.7200 139.2000 L 132.4800 139.2000 L 132.2400 139.4400 L 132.0000 139.4400 L 131.7600 139.6800 L 131.2800 139.6800 L 131.0400 139.9200 L 130.8000 139.9200 L 130.5600 140.1600 L 130.3200 140.1600 L 130.0800 140.4000 L 129.6000 140.4000 L 129.3600 140.6400 L 129.1200 140.6400 L 128.8800 140.8800 L 128.4000 140.8800 L 127.6800 141.6000 L 127.6800 142.3200 L 127.4400 142.5600 L 126.9600 142.5600 L 126.7200 142.8000 L 126.4800 142.8000 L 126.0000 143.2800 L 126.0000 144.4800 L 126.2400 144.7200 L 126.4800 144.7200 L 126.7200 144.9600 L 127.4400 144.9600 L 127.6800 145.2000 L 128.4000 145.2000 L 128.6400 145.4400 L 129.3600 145.4400 L 129.6000 145.6800 L 130.3200 145.6800 L 130.5600 145.9200 L 131.2800 145.9200 L 131.5200 146.1600 L 132.2400 146.1600 L 132.4800 146.4000 L 132.9600 146.4000 L 133.2000 146.6400 L 133.9200 146.6400 L 134.1600 146.8800 L 134.8800 146.8800 L 135.1200 147.1200 L 136.0800 147.1200 L 136.3200 147.3600 L 137.5200 147.3600 L 137.7600 147.6000 L 139.2000 147.6000 L 139.4400 147.8400 L 141.3600 147.8400 L 141.6000 148.0800 L 143.2800 148.0800 L 143.5200 148.3200 L 144.7200 148.3200 L 144.9600 148.5600 L 145.6800 148.5600 L 145.9200 148.8000 L 146.6400 148.8000 L 146.8800 149.0400 L 147.6000 149.0400 L 147.8400 149.2800 L 148.8000 149.2800 L 149.0400 149.5200 L 150.0000 149.5200 L 150.2400 149.7600 L 151.2000 149.7600 L 151.4400 150.0000 L 152.4000 150.0000 L 152.6400 150.2400 L 153.6000 150.2400 L 153.8400 150.4800 L 154.8000 150.4800 L 155.0400 150.7200 L 156.2400 150.7200 L 156.4800 150.9600 L 157.4400 150.9600 L 157.6800 151.2000 L 159.1200 151.2000 L 159.3600 151.4400 L 160.3200 151.4400 L 160.5600 151.6800 L 162.0000 151.6800 L 162.2400 151.9200 L 163.9200 151.9200 L 164.1600 152.1600 L 165.3600 152.1600 L 165.8400 152.6400 L 166.5600 152.6400 L 166.8000 152.8800 L 167.0400 152.8800 L 167.2800 153.1200 L 167.7600 153.1200 L 168.0000 153.3600 L 168.4800 153.3600 L 168.7200 153.6000 L 169.4400 153.6000 L 169.6800 153.8400 L 170.4000 153.8400 L 170.6400 154.0800 L 171.6000 154.0800 L 171.8400 154.3200 L 173.2800 154.3200 L 173.5200 154.5600 L 174.4800 154.5600 L 174.7200 154.8000 L 175.6800 154.8000 L 175.9200 155.0400 L 177.3600 155.0400 L 177.6000 154.8000 L 178.8000 154.8000 L 179.0400 155.0400 L 179.0400 204.9600 L 178.8000 205.2000 L 9.8400 205.2000 L 9.6000 204.9600 L 9.6000 167.5200 L 10.3200 166.8000 L 10.5600 166.8000 L 12.4800 164.8800 L 12.7200 164.8800 L 12.9600 164.6400 L 12.9600 164.4000 L 14.8800 162.4800 L 14.8800 162.2400 L 15.6000 161.5200 L 15.6000 161.2800 L 16.3200 160.5600 L 16.3200 160.3200 L 16.8000 159.8400 L 16.8000 159.6000 L 17.5200 158.8800 L 17.5200 158.6400 L 18.4800 157.6800 L 18.4800 157.4400 L 19.9200 156.0000 L 19.9200 155.7600 L 20.1600 155.5200 L 20.4000 155.5200 L 20.4000 155.2800 L 22.5600 153.1200 L 22.5600 152.8800 L 23.0400 152.4000 L 23.2800 152.4000 L 23.7600 151.9200 L 23.7600 151.6800 L 24.0000 151.4400 L 24.2400 151.4400 L 24.2400 151.2000 L 26.8800 148.5600 L 27.1200 148.5600 L 27.1200 148.3200 L 27.8400 147.6000 L 28.0800 147.6000 L 30.7200 144.9600 L 30.9600 144.9600 L 33.1200 142.8000 L 33.3600 142.8000 L 34.0800 142.0800 L 34.3200 142.0800 L 35.2800 141.1200 L 35.5200 141.1200 L 36.2400 140.4000 L 36.4800 140.4000 L 37.2000 139.6800 L 37.4400 139.6800 L 37.9200 139.2000 L 38.1600 139.2000 L 38.6400 138.7200 L 38.8800 138.7200 L 39.3600 138.2400 L 39.6000 138.2400 L 40.3200 137.5200 L 40.5600 137.5200 L 41.2800 136.8000 L 41.5200 136.8000 L 42.0000 136.3200 L 42.2400 136.3200 L 42.7200 135.8400 L 42.9600 135.8400 L 43.9200 134.8800 L 44.1600 134.8800 L 45.1200 133.9200 L 45.3600 133.9200 L 46.5600 132.7200 L 46.8000 132.7200 L 47.5200 132.0000 L 47.7600 132.0000 L 48.9600 130.8000 L 49.2000 130.8000 L 49.6800 130.3200 L 49.9200 130.3200 L 50.8800 129.3600 L 51.1200 129.3600 L 51.8400 128.6400 L 52.0800 128.6400 L 52.5600 128.1600 L 52.8000 128.1600 L 53.2800 127.6800 L 53.5200 127.6800 L 53.7600 127.4400 L 54.0000 127.4400 L 54.2400 127.2000 L 54.4800 127.2000 L 54.9600 126.7200 L 55.4400 126.7200 L 55.6800 126.4800 L 55.9200 126.4800 L 56.4000 126.0000 L 56.6400 126.0000 L 57.1200 125.5200 L 57.3600 125.5200 L 58.5600 124.3200 L 58.8000 124.3200 L 60.0000 123.1200 L 60.2400 123.1200 L 62.8800 120.4800 L 63.1200 120.4800 L 64.3200 119.2800 L 64.3200 119.0400 L 65.5200 117.8400 L 65.5200 117.6000 L 66.0000 117.1200 L 66.0000 116.4000 L 65.7600 116.1600 L 64.3200 116.1600 L 64.0800 116.4000 L 62.8800 116.4000 L 62.6400 116.6400 L 61.9200 116.6400 L 61.6800 116.8800 L 60.4800 116.8800 L 60.2400 117.1200 L 59.0400 117.1200 L 58.8000 117.3600 L 57.8400 117.3600 L 57.6000 117.6000 L 56.6400 117.6000 L 56.4000 117.8400 L 55.2000 117.8400 L 54.9600 118.0800 L 54.0000 118.0800 L 53.7600 118.3200 L 53.5200 118.0800 L 53.2800 118.3200 L 51.8400 118.3200 L 51.6000 118.5600 L 49.2000 118.5600 L 48.9600 118.8000 L 47.5200 118.8000 L 47.2800 119.0400 L 46.3200 119.0400 L 46.0800 119.2800 L 45.3600 119.2800 L 45.1200 119.5200 L 44.6400 119.5200 L 44.4000 119.7600 L 43.9200 119.7600 L 43.6800 120.0000 L 43.2000 120.0000 L 42.9600 120.2400 L 42.4800 120.2400 L 42.2400 120.4800 L 42.0000 120.4800 L 41.7600 120.7200 L 41.2800 120.7200 L 41.0400 120.9600 L 40.3200 120.9600 L 40.0800 121.2000 L 39.6000 121.2000 L 39.3600 121.4400 L 38.8800 121.4400 L 38.6400 121.6800 L 38.1600 121.6800 L 37.9200 121.9200 L 37.2000 121.9200 L 36.9600 122.1600 L 36.4800 122.1600 L 36.2400 122.4000 L 35.7600 122.4000 L 35.5200 122.6400 L 34.8000 122.6400 L 34.5600 122.8800 L 34.0800 122.8800 L 33.8400 123.1200 L 33.3600 123.1200 L 33.1200 123.3600 L 32.6400 123.3600 L 32.4000 123.6000 L 31.9200 123.6000 L 31.6800 123.8400 L 31.2000 123.8400 L 30.9600 124.0800 L 30.7200 123.8400 L 30.2400 124.3200 L 29.2800 124.3200 L 29.0400 124.5600 L 27.8400 124.5600 L 27.6000 124.8000 L 26.8800 124.8000 L 26.6400 125.0400 L 25.6800 125.0400 L 25.4400 125.2800 L 20.4000 125.2800 L 20.1600 125.0400 L 19.6800 125.0400 L 19.4400 125.2800 L 9.8400 125.2800 L 9.6000 125.0400 L 9.6000 9.8400 Z" fill="none" stroke="black" stroke-width="0.5" /></svg>