<?xml version="1.0" encoding="utf-8" ?>
<svg baseProfile="full" height="261" version="1.1" viewBox="0 0 189 261" width="189" xmlns="http://www.w3.org/2000/svg" xmlns:ev="http://www.w3.org/2001/xml-events" xmlns:xlink="http://www.w3.org/1999/xlink"><defs /><path d="M 1.4400 1.4400 L 1.4400 259.2000 L 187.2000 259.2000 L 187.2000 1.4400 L 1.4400 1.4400 Z M 8.1600 9.8400 L 8.1669 9.6989 L 8.1877 9.5591 L 8.2220 9.4220 L 8.2696 9.2889 L 8.3300 9.1612 L 8.4027 9.0400 L 8.4869 8.9265 L 8.5818 8.8218 L 8.8218 8.5818 L 8.9265 8.4869 L 9.0400 8.4027 L 9.1612 8.3300 L 9.2889 8.2696 L 9.4220 8.2220 L 9.5591 8.1877 L 9.6989 8.1669 L 9.8400 8.1600 L 178.8000 8.1600 L 178.9411 8.1669 L 179.0809 8.1877 L 179.2180 8.2220 L 179.3511 8.2696 L 179.4788 8.3300 L 179.6000 8.4027 L 179.7135 8.4869 L 179.8182 8.5818 L 180.0582 8.8218 L 180.1531 8.9265 L 180.2373 9.0400 L 180.3100 9.1612 L 180.3704 9.2889 L 180.4180 9.4220 L 180.4523 9.5591 L 180.4731 9.6989 L 180.4800 9.8400 L 180.4800 118.8000 L 180.4731 118.9411 L 180.4523 119.0809 L 180.4180 119.2180 L 180.3704 119.3511 L 180.3100 119.4788 L 180.2373 119.6000 L 180.1531 119.7135 L 180.0582 119.8182 L 179.5782 120.2982 L 179.4735 120.3931 L 179.3600 120.4773 L 179.2388 120.5500 L 179.1111 120.6104 L 178.9780 120.6580 L 178.9508 120.6648 L 178.8800 120.7173 L 178.7588 120.7900 L 178.6311 120.8504 L 178.4980 120.8980 L 178.4708 120.9048 L 178.4000 120.9573 L 178.2788 121.0300 L 178.1511 121.0904 L 178.0180 121.1380 L 177.9908 121.1448 L 177.9200 121.1973 L 177.7988 121.2700 L 177.6711 121.3304 L 177.5380 121.3780 L 177.5108 121.3848 L 177.4400 121.4373 L 177.3188 121.5100 L 177.1911 121.5704 L 177.0580 121.6180 L 176.9209 121.6523 L 176.7811 121.6731 L 176.7218 121.6760 L 176.7200 121.6773 L 176.5988 121.7500 L 176.4711 121.8104 L 176.3380 121.8580 L 176.3108 121.8648 L 176.2400 121.9173 L 176.1188 121.9900 L 175.9911 122.0504 L 175.8580 122.0980 L 175.8308 122.1048 L 175.7600 122.1573 L 175.6388 122.2300 L 175.5111 122.2904 L 175.3780 122.3380 L 175.2409 122.3723 L 175.1011 122.3931 L 175.0418 122.3960 L 175.0400 122.3973 L 174.9188 122.4700 L 174.7911 122.5304 L 174.6580 122.5780 L 174.6308 122.5848 L 174.5600 122.6373 L 174.4388 122.7100 L 174.3111 122.7704 L 174.1780 122.8180 L 174.1508 122.8248 L 174.0800 122.8773 L 173.9588 122.9500 L 173.8311 123.0104 L 173.6980 123.0580 L 173.6708 123.0648 L 173.6000 123.1173 L 173.4788 123.1900 L 173.3511 123.2504 L 173.2180 123.2980 L 173.0809 123.3323 L 172.9411 123.3531 L 172.8818 123.3560 L 172.8800 123.3573 L 172.7588 123.4300 L 172.6311 123.4904 L 172.4980 123.5380 L 172.4708 123.5448 L 172.4000 123.5973 L 172.2788 123.6700 L 172.1511 123.7304 L 172.0180 123.7780 L 171.9908 123.7848 L 171.9200 123.8373 L 171.7988 123.9100 L 171.6711 123.9704 L 171.5380 124.0180 L 171.4009 124.0523 L 171.2611 124.0731 L 171.2018 124.0760 L 171.2000 124.0773 L 171.0788 124.1500 L 170.9511 124.2104 L 170.8180 124.2580 L 170.7908 124.2648 L 170.7200 124.3173 L 170.5988 124.3900 L 170.4711 124.4504 L 170.3380 124.4980 L 170.3108 124.5048 L 170.2400 124.5573 L 170.1188 124.6300 L 169.9911 124.6904 L 169.8580 124.7380 L 169.7209 124.7723 L 169.5811 124.7931 L 169.5218 124.7960 L 169.5200 124.7973 L 169.3988 124.8700 L 169.2711 124.9304 L 169.1380 124.9780 L 169.1108 124.9848 L 169.0400 125.0373 L 168.9188 125.1100 L 168.7911 125.1704 L 168.6580 125.2180 L 168.6308 125.2248 L 168.5600 125.2773 L 168.4388 125.3500 L 168.3111 125.4104 L 168.1780 125.4580 L 168.1508 125.4648 L 168.0800 125.5173 L 167.9588 125.5900 L 167.8311 125.6504 L 167.6980 125.6980 L 167.5609 125.7323 L 167.4211 125.7531 L 167.3618 125.7560 L 167.3600 125.7573 L 167.2388 125.8300 L 167.1111 125.8904 L 166.9780 125.9380 L 166.9508 125.9448 L 166.8800 125.9973 L 166.7588 126.0700 L 166.6311 126.1304 L 166.4980 126.1780 L 166.3609 126.2123 L 166.2211 126.2331 L 166.1618 126.2360 L 166.1600 126.2373 L 166.0388 126.3100 L 165.9111 126.3704 L 165.7780 126.4180 L 165.7508 126.4248 L 165.6800 126.4773 L 165.5588 126.5500 L 165.4311 126.6104 L 165.2980 126.6580 L 165.2708 126.6648 L 165.2000 126.7173 L 165.0788 126.7900 L 164.9511 126.8504 L 164.8180 126.8980 L 164.7908 126.9048 L 164.7200 126.9573 L 164.5988 127.0300 L 164.4711 127.0904 L 164.3380 127.1380 L 164.2009 127.1723 L 164.0611 127.1931 L 164.0018 127.1960 L 164.0000 127.1973 L 163.8788 127.2700 L 163.7511 127.3304 L 163.6180 127.3780 L 163.5908 127.3848 L 163.5200 127.4373 L 163.3988 127.5100 L 163.2711 127.5704 L 163.1380 127.6180 L 163.1108 127.6248 L 163.0400 127.6773 L 162.9188 127.7500 L 162.7911 127.8104 L 162.6580 127.8580 L 162.6308 127.8648 L 162.5600 127.9173 L 162.4388 127.9900 L 162.3111 128.0504 L 162.1780 128.0980 L 162.0409 128.1323 L 161.9011 128.1531 L 161.8418 128.1560 L 161.8400 128.1573 L 161.7188 128.2300 L 161.5911 128.2904 L 161.4580 128.3380 L 161.4308 128.3448 L 161.3600 128.3973 L 161.2388 128.4700 L 161.1111 128.5304 L 160.9780 128.5780 L 160.8409 128.6123 L 160.7011 128.6331 L 160.6418 128.6360 L 160.6400 128.6373 L 160.5188 128.7100 L 160.3911 128.7704 L 160.2580 128.8180 L 160.2308 128.8248 L 160.1600 128.8773 L 160.0388 128.9500 L 159.9111 129.0104 L 159.7780 129.0580 L 159.7508 129.0648 L 159.6800 129.1173 L 159.5588 129.1900 L 159.4311 129.2504 L 159.2980 129.2980 L 159.1609 129.3323 L 159.0211 129.3531 L 158.9618 129.3560 L 158.9600 129.3573 L 158.8388 129.4300 L 158.7111 129.4904 L 158.5780 129.5380 L 158.5508 129.5448 L 158.4800 129.5973 L 158.3588 129.6700 L 158.2311 129.7304 L 158.0980 129.7780 L 158.0708 129.7848 L 158.0000 129.8373 L 157.8788 129.9100 L 157.7511 129.9704 L 157.6180 130.0180 L 157.5908 130.0248 L 157.5200 130.0773 L 157.3988 130.1500 L 157.2711 130.2104 L 157.1380 130.2580 L 157.0009 130.2923 L 156.8611 130.3131 L 156.8018 130.3160 L 156.8000 130.3173 L 156.6788 130.3900 L 156.5511 130.4504 L 156.4180 130.4980 L 156.3908 130.5048 L 156.3200 130.5573 L 156.1988 130.6300 L 156.0711 130.6904 L 155.9380 130.7380 L 155.9108 130.7448 L 155.8400 130.7973 L 155.7188 130.8700 L 155.5911 130.9304 L 155.4580 130.9780 L 155.3209 131.0123 L 155.1811 131.0331 L 155.1218 131.0360 L 155.1200 131.0373 L 154.9988 131.1100 L 154.8711 131.1704 L 154.7380 131.2180 L 154.7108 131.2248 L 154.6400 131.2773 L 154.5188 131.3500 L 154.3911 131.4104 L 154.2580 131.4580 L 154.2308 131.4648 L 154.1600 131.5173 L 154.0388 131.5900 L 153.9111 131.6504 L 153.7780 131.6980 L 153.6409 131.7323 L 153.5011 131.7531 L 153.4418 131.7560 L 153.4400 131.7573 L 153.3188 131.8300 L 153.1911 131.8904 L 153.0580 131.9380 L 153.0308 131.9448 L 152.9600 131.9973 L 152.8388 132.0700 L 152.7111 132.1304 L 152.5780 132.1780 L 152.5508 132.1848 L 152.4800 132.2373 L 152.3588 132.3100 L 152.2311 132.3704 L 152.0980 132.4180 L 152.0708 132.4248 L 152.0000 132.4773 L 151.8788 132.5500 L 151.7511 132.6104 L 151.6180 132.6580 L 151.5908 132.6648 L 151.5200 132.7173 L 151.3988 132.7900 L 151.2711 132.8504 L 151.1380 132.8980 L 151.0009 132.9323 L 150.8611 132.9531 L 150.8018 132.9560 L 150.8000 132.9573 L 150.6788 133.0300 L 150.5511 133.0904 L 150.4180 133.1380 L 150.3908 133.1448 L 150.3200 133.1973 L 150.1988 133.2700 L 150.0711 133.3304 L 149.9380 133.3780 L 149.8009 133.4123 L 149.6611 133.4331 L 149.6018 133.4360 L 149.6000 133.4373 L 149.4788 133.5100 L 149.3511 133.5704 L 149.2180 133.6180 L 149.1908 133.6248 L 149.1200 133.6773 L 148.9988 133.7500 L 148.8711 133.8104 L 148.7380 133.8580 L 148.7108 133.8648 L 148.6400 133.9173 L 148.5188 133.9900 L 148.3911 134.0504 L 148.2580 134.0980 L 148.1209 134.1323 L 147.9811 134.1531 L 147.9218 134.1560 L 147.9200 134.1573 L 147.7988 134.2300 L 147.6711 134.2904 L 147.5380 134.3380 L 147.5108 134.3448 L 147.4400 134.3973 L 147.3188 134.4700 L 147.1911 134.5304 L 147.0580 134.5780 L 147.0308 134.5848 L 146.9600 134.6373 L 146.8388 134.7100 L 146.7111 134.7704 L 146.5780 134.8180 L 146.5508 134.8248 L 146.4800 134.8773 L 146.3588 134.9500 L 146.2311 135.0104 L 146.0980 135.0580 L 145.9609 135.0923 L 145.8211 135.1131 L 145.7618 135.1160 L 145.7600 135.1173 L 145.6388 135.1900 L 145.5111 135.2504 L 145.3780 135.2980 L 145.3508 135.3048 L 145.2800 135.3573 L 145.1588 135.4300 L 145.0311 135.4904 L 144.8980 135.5380 L 144.7609 135.5723 L 144.6211 135.5931 L 144.5618 135.5960 L 144.5600 135.5973 L 144.4388 135.6700 L 144.3111 135.7304 L 144.1780 135.7780 L 144.1508 135.7848 L 144.0800 135.8373 L 143.9588 135.9100 L 143.8311 135.9704 L 143.6980 136.0180 L 143.6708 136.0248 L 143.6000 136.0773 L 143.4788 136.1500 L 143.3511 136.2104 L 143.2180 136.2580 L 143.0809 136.2923 L 142.9411 136.3131 L 142.8818 136.3160 L 142.8800 136.3173 L 142.7588 136.3900 L 142.6311 136.4504 L 142.4980 136.4980 L 142.4708 136.5048 L 142.4000 136.5573 L 142.2788 136.6300 L 142.1511 136.6904 L 142.0180 136.7380 L 141.9908 136.7448 L 141.9200 136.7973 L 141.7988 136.8700 L 141.6711 136.9304 L 141.5380 136.9780 L 141.5108 136.9848 L 141.4400 137.0373 L 141.3188 137.1100 L 141.1911 137.1704 L 141.0580 137.2180 L 140.9209 137.2523 L 140.7811 137.2731 L 140.7218 137.2760 L 140.7200 137.2773 L 140.5988 137.3500 L 140.4711 137.4104 L 140.3380 137.4580 L 140.3108 137.4648 L 140.2400 137.5173 L 140.1188 137.5900 L 139.9911 137.6504 L 139.8580 137.6980 L 139.8308 137.7048 L 139.7600 137.7573 L 139.6388 137.8300 L 139.5111 137.8904 L 139.3780 137.9380 L 139.2409 137.9723 L 139.1011 137.9931 L 139.0418 137.9960 L 139.0400 137.9973 L 138.9188 138.0700 L 138.7911 138.1304 L 138.6580 138.1780 L 138.6308 138.1848 L 138.5600 138.2373 L 138.4388 138.3100 L 138.3111 138.3704 L 138.1780 138.4180 L 138.1508 138.4248 L 138.0800 138.4773 L 137.9588 138.5500 L 137.8311 138.6104 L 137.6980 138.6580 L 137.5609 138.6923 L 137.4211 138.7131 L 137.3618 138.7160 L 137.3600 138.7173 L 137.2388 138.7900 L 137.1111 138.8504 L 136.9780 138.8980 L 136.9508 138.9048 L 136.8800 138.9573 L 136.7588 139.0300 L 136.6311 139.0904 L 136.4980 139.1380 L 136.4708 139.1448 L 136.4000 139.1973 L 136.2788 139.2700 L 136.1511 139.3304 L 136.0180 139.3780 L 135.8809 139.4123 L 135.7411 139.4331 L 135.6818 139.4360 L 135.6800 139.4373 L 135.5588 139.5100 L 135.4311 139.5704 L 135.2980 139.6180 L 135.2708 139.6248 L 135.2000 139.6773 L 135.0788 139.7500 L 134.9511 139.8104 L 134.8180 139.8580 L 134.7908 139.8648 L 134.7200 139.9173 L 134.5988 139.9900 L 134.4711 140.0504 L 134.3380 140.0980 L 134.2009 140.1323 L 134.0611 140.1531 L 134.0018 140.1560 L 134.0000 140.1573 L 133.8788 140.2300 L 133.7511 140.2904 L 133.6180 140.3380 L 133.5908 140.3448 L 133.5200 140.3973 L 133.3988 140.4700 L 133.2711 140.5304 L 133.1380 140.5780 L 133.1108 140.5848 L 133.0400 140.6373 L 132.9188 140.7100 L 132.7911 140.7704 L 132.6580 140.8180 L 132.6308 140.8248 L 132.5600 140.8773 L 132.4388 140.9500 L 132.3111 141.0104 L 132.1780 141.0580 L 132.0409 141.0923 L 131.9011 141.1131 L 131.8418 141.1160 L 131.8400 141.1173 L 131.7188 141.1900 L 131.5911 141.2504 L 131.4580 141.2980 L 131.4308 141.3048 L 131.3600 141.3573 L 131.2388 141.4300 L 131.1111 141.4904 L 130.9780 141.5380 L 130.9508 141.5448 L 130.8800 141.5973 L 130.7588 141.6700 L 130.6311 141.7304 L 130.4980 141.7780 L 130.3609 141.8123 L 130.2211 141.8331 L 130.1618 141.8360 L 130.1600 141.8373 L 130.0388 141.9100 L 129.9111 141.9704 L 129.7780 142.0180 L 129.7508 142.0248 L 129.6800 142.0773 L 129.5588 142.1500 L 129.4311 142.2104 L 129.2980 142.2580 L 129.1609 142.2923 L 129.1200 142.2984 L 129.1200 142.3200 L 129.1131 142.4611 L 129.0923 142.6009 L 129.0580 142.7380 L 129.0104 142.8711 L 128.9500 142.9988 L 128.8773 143.1200 L 128.7931 143.2335 L 128.6982 143.3382 L 128.4582 143.5782 L 128.3535 143.6731 L 128.2400 143.7573 L 128.2355 143.7600 L 128.4000 143.7600 L 128.5411 143.7669 L 128.6809 143.7877 L 128.8180 143.8220 L 128.9511 143.8696 L 129.0788 143.9300 L 129.1955 144.0000 L 129.3600 144.0000 L 129.5011 144.0069 L 129.6409 144.0277 L 129.7780 144.0620 L 129.9111 144.1096 L 130.0388 144.1700 L 130.1555 144.2400 L 130.3200 144.2400 L 130.4611 144.2469 L 130.6009 144.2677 L 130.7380 144.3020 L 130.8711 144.3496 L 130.9988 144.4100 L 131.1155 144.4800 L 131.2800 144.4800 L 131.4211 144.4869 L 131.5609 144.5077 L 131.6980 144.5420 L 131.8311 144.5896 L 131.9588 144.6500 L 132.0755 144.7200 L 132.2400 144.7200 L 132.3811 144.7269 L 132.5209 144.7477 L 132.6580 144.7820 L 132.7911 144.8296 L 132.9188 144.8900 L 133.0400 144.9627 L 133.0418 144.9640 L 133.1011 144.9669 L 133.2409 144.9877 L 133.3780 145.0220 L 133.5111 145.0696 L 133.6388 145.1300 L 133.7555 145.2000 L 133.9200 145.2000 L 134.0611 145.2069 L 134.2009 145.2277 L 134.3380 145.2620 L 134.4711 145.3096 L 134.5988 145.3700 L 134.7155 145.4400 L 134.8800 145.4400 L 135.0211 145.4469 L 135.1609 145.4677 L 135.2980 145.5020 L 135.4311 145.5496 L 135.5588 145.6100 L 135.6755 145.6800 L 136.0800 145.6800 L 136.2211 145.6869 L 136.3609 145.7077 L 136.4980 145.7420 L 136.6311 145.7896 L 136.7588 145.8500 L 136.8755 145.9200 L 137.5200 145.9200 L 137.6611 145.9269 L 137.8009 145.9477 L 137.9380 145.9820 L 138.0711 146.0296 L 138.1988 146.0900 L 138.3155 146.1600 L 139.2000 146.1600 L 139.3411 146.1669 L 139.4809 146.1877 L 139.6180 146.2220 L 139.7511 146.2696 L 139.8788 146.3300 L 139.9955 146.4000 L 141.3600 146.4000 L 141.5011 146.4069 L 141.6409 146.4277 L 141.7780 146.4620 L 141.9111 146.5096 L 142.0388 146.5700 L 142.1555 146.6400 L 143.2800 146.6400 L 143.4211 146.6469 L 143.5609 146.6677 L 143.6980 146.7020 L 143.8311 146.7496 L 143.9588 146.8100 L 144.0755 146.8800 L 144.7200 146.8800 L 144.8611 146.8869 L 145.0009 146.9077 L 145.1380 146.9420 L 145.2711 146.9896 L 145.3988 147.0500 L 145.5155 147.1200 L 145.6800 147.1200 L 145.8211 147.1269 L 145.9609 147.1477 L 146.0980 147.1820 L 146.2311 147.2296 L 146.3588 147.2900 L 146.4755 147.3600 L 146.6400 147.3600 L 146.7811 147.3669 L 146.9209 147.3877 L 147.0580 147.4220 L 147.1911 147.4696 L 147.3188 147.5300 L 147.4355 147.6000 L 147.6000 147.6000 L 147.7411 147.6069 L 147.8809 147.6277 L 148.0180 147.6620 L 148.1511 147.7096 L 148.2788 147.7700 L 148.3955 147.8400 L 148.8000 147.8400 L 148.9411 147.8469 L 149.0809 147.8677 L 149.2180 147.9020 L 149.3511 147.9496 L 149.4788 148.0100 L 149.5955 148.0800 L 150.0000 148.0800 L 150.1411 148.0869 L 150.2809 148.1077 L 150.4180 148.1420 L 150.5511 148.1896 L 150.6788 148.2500 L 150.7955 148.3200 L 151.2000 148.3200 L 151.3411 148.3269 L 151.4809 148.3477 L 151.6180 148.3820 L 151.7511 148.4296 L 151.8788 148.4900 L 151.9955 148.5600 L 152.4000 148.5600 L 152.5411 148.5669 L 152.6809 148.5877 L 152.8180 148.6220 L 152.9511 148.6696 L 153.0788 148.7300 L 153.1955 148.8000 L 153.6000 148.8000 L 153.7411 148.8069 L 153.8809 148.8277 L 154.0180 148.8620 L 154.1511 148.9096 L 154.2788 148.9700 L 154.3955 149.0400 L 154.8000 149.0400 L 154.9411 149.0469 L 155.0809 149.0677 L 155.2180 149.1020 L 155.3511 149.1496 L 155.4788 149.2100 L 155.5955 149.2800 L 156.2400 149.2800 L 156.3811 149.2869 L 156.5209 149.3077 L 156.6580 149.3420 L 156.7911 149.3896 L 156.9188 149.4500 L 157.0355 149.5200 L 157.4400 149.5200 L 157.5811 149.5269 L 157.7209 149.5477 L 157.8580 149.5820 L 157.9911 149.6296 L 158.1188 149.6900 L 158.2355 149.7600 L 159.1200 149.7600 L 159.2611 149.7669 L 159.4009 149.7877 L 159.5380 149.8220 L 159.6711 149.8696 L 159.7988 149.9300 L 159.9155 150.0000 L 160.3200 150.0000 L 160.4611 150.0069 L 160.6009 150.0277 L 160.7380 150.0620 L 160.8711 150.1096 L 160.9988 150.1700 L 161.1155 150.2400 L 162.0000 150.2400 L 162.1411 150.2469 L 162.2809 150.2677 L 162.4180 150.3020 L 162.5511 150.3496 L 162.6788 150.4100 L 162.7955 150.4800 L 163.9200 150.4800 L 164.0611 150.4869 L 164.2009 150.5077 L 164.3380 150.5420 L 164.4711 150.5896 L 164.5988 150.6500 L 164.7155 150.7200 L 165.3600 150.7200 L 165.5011 150.7269 L 165.6409 150.7477 L 165.7780 150.7820 L 165.9111 150.8296 L 166.0388 150.8900 L 166.1600 150.9627 L 166.2735 151.0469 L 166.3782 151.1418 L 166.4365 151.2000 L 166.5600 151.2000 L 166.7011 151.2069 L 166.8409 151.2277 L 166.9780 151.2620 L 167.1111 151.3096 L 167.2388 151.3700 L 167.3600 151.4427 L 167.4308 151.4952 L 167.4580 151.5020 L 167.5911 151.5496 L 167.7188 151.6100 L 167.8400 151.6827 L 167.8418 151.6840 L 167.9011 151.6869 L 168.0409 151.7077 L 168.1780 151.7420 L 168.3111 151.7896 L 168.4388 151.8500 L 168.5600 151.9227 L 168.5618 151.9240 L 168.6211 151.9269 L 168.7609 151.9477 L 168.8980 151.9820 L 169.0311 152.0296 L 169.1588 152.0900 L 169.2755 152.1600 L 169.4400 152.1600 L 169.5811 152.1669 L 169.7209 152.1877 L 169.8580 152.2220 L 169.9911 152.2696 L 170.1188 152.3300 L 170.2355 152.4000 L 170.4000 152.4000 L 170.5411 152.4069 L 170.6809 152.4277 L 170.8180 152.4620 L 170.9511 152.5096 L 171.0788 152.5700 L 171.1955 152.6400 L 171.6000 152.6400 L 171.7411 152.6469 L 171.8809 152.6677 L 172.0180 152.7020 L 172.1511 152.7496 L 172.2788 152.8100 L 172.3955 152.8800 L 173.2800 152.8800 L 173.4211 152.8869 L 173.5609 152.9077 L 173.6980 152.9420 L 173.8311 152.9896 L 173.9588 153.0500 L 174.0755 153.1200 L 174.4800 153.1200 L 174.6211 153.1269 L 174.7609 153.1477 L 174.8980 153.1820 L 175.0311 153.2296 L 175.1588 153.2900 L 175.2755 153.3600 L 175.6800 153.3600 L 175.8211 153.3669 L 175.9609 153.3877 L 176.0980 153.4220 L 176.2311 153.4696 L 176.3588 153.5300 L 176.4755 153.6000 L 176.8045 153.6000 L 176.9212 153.5300 L 177.0489 153.4696 L 177.1820 153.4220 L 177.3191 153.3877 L 177.4589 153.3669 L 177.6000 153.3600 L 178.8000 153.3600 L 178.9411 153.3669 L 179.0809 153.3877 L 179.2180 153.4220 L 179.3511 153.4696 L 179.4788 153.5300 L 179.6000 153.6027 L 179.7135 153.6869 L 179.8182 153.7818 L 180.0582 154.0218 L 180.1531 154.1265 L 180.2373 154.2400 L 180.3100 154.3612 L 180.3704 154.4889 L 180.4180 154.6220 L 180.4523 154.7591 L 180.4731 154.8989 L 180.4800 155.0400 L 180.4800 204.9600 L 180.4731 205.1011 L 180.4523 205.2409 L 180.4180 205.3780 L 180.3704 205.5111 L 180.3100 205.6388 L 180.2373 205.7600 L 180.1531 205.8735 L 180.0582 205.9782 L 179.8182 206.2182 L 179.7135 206.3131 L 179.6000 206.3973 L 179.4788 206.4700 L 179.3511 206.5304 L 179.2180 206.5780 L 179.0809 206.6123 L 178.9411 206.6331 L 178.8000 206.6400 L 9.8400 206.6400 L 9.6989 206.6331 L 9.5591 206.6123 L 9.4220 206.5780 L 9.2889 206.5304 L 9.1612 206.4700 L 9.0400 206.3973 L 8.9265 206.3131 L 8.8218 206.2182 L 8.5818 205.9782 L 8.4869 205.8735 L 8.4027 205.7600 L 8.3300 205.6388 L 8.2696 205.5111 L 8.2220 205.3780 L 8.1877 205.2409 L 8.1669 205.1011 L 8.1600 204.9600 L 8.1600 167.5200 L 8.1669 167.3789 L 8.1877 167.2391 L 8.2220 167.1020 L 8.2696 166.9689 L 8.3300 166.8412 L 8.4027 166.7200 L 8.4869 166.6065 L 8.5818 166.5018 L 9.3018 165.7818 L 9.4065 165.6869 L 9.5200 165.6027 L 9.6412 165.5300 L 9.7689 165.4696 L 9.9013 165.4223 L 11.4618 163.8618 L 11.5665 163.7669 L 11.6800 163.6827 L 11.7317 163.6517 L 11.7627 163.6000 L 11.8469 163.4865 L 11.9418 163.3818 L 13.5023 161.8213 L 13.5496 161.6889 L 13.6100 161.5612 L 13.6827 161.4400 L 13.7669 161.3265 L 13.8618 161.2218 L 14.2223 160.8613 L 14.2696 160.7289 L 14.3300 160.6012 L 14.4027 160.4800 L 14.4869 160.3665 L 14.5818 160.2618 L 14.9423 159.9013 L 14.9896 159.7689 L 15.0500 159.6412 L 15.1227 159.5200 L 15.2069 159.4065 L 15.3018 159.3018 L 15.4223 159.1813 L 15.4696 159.0489 L 15.5300 158.9212 L 15.6027 158.8000 L 15.6869 158.6865 L 15.7818 158.5818 L 16.1423 158.2213 L 16.1896 158.0889 L 16.2500 157.9612 L 16.3227 157.8400 L 16.4069 157.7265 L 16.5018 157.6218 L 17.1023 157.0213 L 17.1496 156.8889 L 17.2100 156.7612 L 17.2827 156.6400 L 17.3669 156.5265 L 17.4618 156.4218 L 18.5423 155.3413 L 18.5896 155.2089 L 18.6500 155.0812 L 18.7227 154.9600 L 18.8069 154.8465 L 18.9018 154.7418 L 19.1418 154.5018 L 19.2465 154.4069 L 19.2697 154.3897 L 19.2869 154.3665 L 19.3818 154.2618 L 21.1823 152.4613 L 21.2296 152.3289 L 21.2900 152.2012 L 21.3627 152.0800 L 21.4469 151.9665 L 21.5418 151.8618 L 22.0218 151.3818 L 22.1265 151.2869 L 22.2400 151.2027 L 22.3612 151.1300 L 22.4487 151.0887 L 22.4900 151.0012 L 22.5627 150.8800 L 22.6469 150.7665 L 22.7418 150.6618 L 22.9818 150.4218 L 23.0865 150.3269 L 23.1097 150.3097 L 23.1269 150.2865 L 23.2218 150.1818 L 25.8618 147.5418 L 25.9665 147.4469 L 25.9897 147.4297 L 26.0069 147.4065 L 26.1018 147.3018 L 26.8218 146.5818 L 26.9265 146.4869 L 27.0400 146.4027 L 27.1612 146.3300 L 27.2889 146.2696 L 27.4213 146.2223 L 29.7018 143.9418 L 29.8065 143.8469 L 29.9200 143.7627 L 30.0412 143.6900 L 30.1689 143.6296 L 30.3013 143.5823 L 32.1018 141.7818 L 32.2065 141.6869 L 32.3200 141.6027 L 32.4412 141.5300 L 32.5689 141.4696 L 32.7013 141.4223 L 33.0618 141.0618 L 33.1665 140.9669 L 33.2800 140.8827 L 33.4012 140.8100 L 33.5289 140.7496 L 33.6613 140.7023 L 34.2618 140.1018 L 34.3665 140.0069 L 34.4800 139.9227 L 34.6012 139.8500 L 34.7289 139.7896 L 34.8613 139.7423 L 35.2218 139.3818 L 35.3265 139.2869 L 35.4400 139.2027 L 35.5612 139.1300 L 35.6889 139.0696 L 35.8213 139.0223 L 36.1818 138.6618 L 36.2865 138.5669 L 36.4000 138.4827 L 36.5212 138.4100 L 36.6489 138.3496 L 36.7813 138.3023 L 36.9018 138.1818 L 37.0065 138.0869 L 37.1200 138.0027 L 37.2412 137.9300 L 37.3689 137.8696 L 37.5013 137.8223 L 37.6218 137.7018 L 37.7265 137.6069 L 37.8400 137.5227 L 37.9612 137.4500 L 38.0889 137.3896 L 38.2213 137.3423 L 38.3418 137.2218 L 38.4465 137.1269 L 38.5600 137.0427 L 38.6812 136.9700 L 38.8089 136.9096 L 38.9413 136.8623 L 39.3018 136.5018 L 39.4065 136.4069 L 39.5200 136.3227 L 39.6412 136.2500 L 39.7689 136.1896 L 39.9013 136.1423 L 40.2618 135.7818 L 40.3665 135.6869 L 40.4800 135.6027 L 40.6012 135.5300 L 40.7289 135.4696 L 40.8613 135.4223 L 40.9818 135.3018 L 41.0865 135.2069 L 41.2000 135.1227 L 41.3212 135.0500 L 41.4489 134.9896 L 41.5813 134.9423 L 41.7018 134.8218 L 41.8065 134.7269 L 41.9200 134.6427 L 42.0412 134.5700 L 42.1689 134.5096 L 42.3013 134.4623 L 42.9018 133.8618 L 43.0065 133.7669 L 43.1200 133.6827 L 43.2412 133.6100 L 43.3689 133.5496 L 43.5013 133.5023 L 44.1018 132.9018 L 44.2065 132.8069 L 44.3200 132.7227 L 44.4412 132.6500 L 44.5689 132.5896 L 44.7013 132.5423 L 45.5418 131.7018 L 45.6465 131.6069 L 45.7600 131.5227 L 45.8812 131.4500 L 46.0089 131.3896 L 46.1413 131.3423 L 46.5018 130.9818 L 46.6065 130.8869 L 46.7200 130.8027 L 46.8412 130.7300 L 46.9689 130.6696 L 47.1013 130.6223 L 47.9418 129.7818 L 48.0465 129.6869 L 48.1600 129.6027 L 48.2812 129.5300 L 48.4089 129.4696 L 48.5413 129.4223 L 48.6618 129.3018 L 48.7665 129.2069 L 48.8800 129.1227 L 49.0012 129.0500 L 49.1289 128.9896 L 49.2613 128.9423 L 49.8618 128.3418 L 49.9665 128.2469 L 50.0800 128.1627 L 50.2012 128.0900 L 50.3289 128.0296 L 50.4613 127.9823 L 50.8218 127.6218 L 50.9265 127.5269 L 51.0400 127.4427 L 51.1612 127.3700 L 51.2889 127.3096 L 51.4213 127.2623 L 51.5418 127.1418 L 51.6465 127.0469 L 51.7600 126.9627 L 51.8812 126.8900 L 52.0089 126.8296 L 52.1413 126.7823 L 52.2618 126.6618 L 52.3665 126.5669 L 52.4800 126.4827 L 52.6012 126.4100 L 52.7289 126.3496 L 52.8620 126.3020 L 52.8892 126.2952 L 52.9600 126.2427 L 53.0812 126.1700 L 53.2089 126.1096 L 53.3420 126.0620 L 53.3692 126.0552 L 53.4400 126.0027 L 53.5612 125.9300 L 53.6889 125.8696 L 53.8213 125.8223 L 53.9418 125.7018 L 54.0465 125.6069 L 54.1600 125.5227 L 54.2812 125.4500 L 54.4089 125.3896 L 54.5420 125.3420 L 54.6791 125.3077 L 54.8189 125.2869 L 54.8782 125.2840 L 54.8800 125.2827 L 55.0012 125.2100 L 55.1289 125.1496 L 55.2613 125.1023 L 55.3818 124.9818 L 55.4865 124.8869 L 55.6000 124.8027 L 55.7212 124.7300 L 55.8489 124.6696 L 55.9813 124.6223 L 56.1018 124.5018 L 56.2065 124.4069 L 56.3200 124.3227 L 56.4412 124.2500 L 56.5689 124.1896 L 56.7013 124.1423 L 57.5418 123.3018 L 57.6465 123.2069 L 57.7600 123.1227 L 57.8812 123.0500 L 58.0089 122.9896 L 58.1413 122.9423 L 58.9818 122.1018 L 59.0865 122.0069 L 59.2000 121.9227 L 59.3212 121.8500 L 59.4489 121.7896 L 59.5813 121.7423 L 61.8618 119.4618 L 61.9665 119.3669 L 62.0800 119.2827 L 62.2012 119.2100 L 62.3289 119.1496 L 62.4613 119.1023 L 62.9423 118.6213 L 62.9896 118.4889 L 63.0500 118.3612 L 63.1227 118.2400 L 63.2069 118.1265 L 63.3018 118.0218 L 63.4835 117.8400 L 63.4355 117.8400 L 63.3188 117.9100 L 63.1911 117.9704 L 63.0580 118.0180 L 62.9209 118.0523 L 62.7811 118.0731 L 62.6400 118.0800 L 62.4755 118.0800 L 62.3588 118.1500 L 62.2311 118.2104 L 62.0980 118.2580 L 61.9609 118.2923 L 61.8211 118.3131 L 61.6800 118.3200 L 61.0355 118.3200 L 60.9188 118.3900 L 60.7911 118.4504 L 60.6580 118.4980 L 60.5209 118.5323 L 60.3811 118.5531 L 60.2400 118.5600 L 59.5955 118.5600 L 59.4788 118.6300 L 59.3511 118.6904 L 59.2180 118.7380 L 59.0809 118.7723 L 58.9411 118.7931 L 58.8000 118.8000 L 58.3955 118.8000 L 58.2788 118.8700 L 58.1511 118.9304 L 58.0180 118.9780 L 57.8809 119.0123 L 57.7411 119.0331 L 57.6000 119.0400 L 57.1955 119.0400 L 57.0788 119.1100 L 56.9511 119.1704 L 56.8180 119.2180 L 56.6809 119.2523 L 56.5411 119.2731 L 56.4000 119.2800 L 55.7555 119.2800 L 55.6388 119.3500 L 55.5111 119.4104 L 55.3780 119.4580 L 55.2409 119.4923 L 55.1011 119.5131 L 54.9600 119.5200 L 54.5555 119.5200 L 54.4388 119.5900 L 54.3111 119.6504 L 54.1780 119.6980 L 54.0409 119.7323 L 53.9011 119.7531 L 53.7600 119.7600 L 53.6189 119.7531 L 53.5200 119.7384 L 53.4211 119.7531 L 53.2800 119.7600 L 52.3955 119.7600 L 52.2788 119.8300 L 52.1511 119.8904 L 52.0180 119.9380 L 51.8809 119.9723 L 51.7411 119.9931 L 51.6000 120.0000 L 49.7555 120.0000 L 49.6388 120.0700 L 49.5111 120.1304 L 49.3780 120.1780 L 49.2409 120.2123 L 49.1011 120.2331 L 48.9600 120.2400 L 48.0755 120.2400 L 47.9588 120.3100 L 47.8311 120.3704 L 47.6980 120.4180 L 47.5609 120.4523 L 47.4211 120.4731 L 47.2800 120.4800 L 46.8755 120.4800 L 46.7588 120.5500 L 46.6311 120.6104 L 46.4980 120.6580 L 46.3609 120.6923 L 46.2211 120.7131 L 46.0800 120.7200 L 45.9155 120.7200 L 45.7988 120.7900 L 45.6711 120.8504 L 45.5380 120.8980 L 45.4009 120.9323 L 45.2611 120.9531 L 45.2018 120.9560 L 45.2000 120.9573 L 45.0788 121.0300 L 44.9511 121.0904 L 44.8180 121.1380 L 44.6809 121.1723 L 44.5411 121.1931 L 44.4818 121.1960 L 44.4800 121.1973 L 44.3588 121.2700 L 44.2311 121.3304 L 44.0980 121.3780 L 43.9609 121.4123 L 43.8211 121.4331 L 43.7618 121.4360 L 43.7600 121.4373 L 43.6388 121.5100 L 43.5111 121.5704 L 43.3780 121.6180 L 43.2409 121.6523 L 43.1011 121.6731 L 43.0418 121.6760 L 43.0400 121.6773 L 42.9188 121.7500 L 42.7911 121.8104 L 42.6580 121.8580 L 42.6308 121.8648 L 42.5600 121.9173 L 42.4388 121.9900 L 42.3111 122.0504 L 42.1780 122.0980 L 42.0409 122.1323 L 41.9011 122.1531 L 41.8418 122.1560 L 41.8400 122.1573 L 41.7188 122.2300 L 41.5911 122.2904 L 41.4580 122.3380 L 41.3209 122.3723 L 41.1811 122.3931 L 41.0400 122.4000 L 40.8755 122.4000 L 40.7588 122.4700 L 40.6311 122.5304 L 40.4980 122.5780 L 40.3609 122.6123 L 40.2211 122.6331 L 40.1618 122.6360 L 40.1600 122.6373 L 40.0388 122.7100 L 39.9111 122.7704 L 39.7780 122.8180 L 39.6409 122.8523 L 39.5011 122.8731 L 39.4418 122.8760 L 39.4400 122.8773 L 39.3188 122.9500 L 39.1911 123.0104 L 39.0580 123.0580 L 38.9209 123.0923 L 38.7811 123.1131 L 38.7218 123.1160 L 38.7200 123.1173 L 38.5988 123.1900 L 38.4711 123.2504 L 38.3380 123.2980 L 38.2009 123.3323 L 38.0611 123.3531 L 37.9200 123.3600 L 37.7555 123.3600 L 37.6388 123.4300 L 37.5111 123.4904 L 37.3780 123.5380 L 37.2409 123.5723 L 37.1011 123.5931 L 37.0418 123.5960 L 37.0400 123.5973 L 36.9188 123.6700 L 36.7911 123.7304 L 36.6580 123.7780 L 36.5209 123.8123 L 36.3811 123.8331 L 36.3218 123.8360 L 36.3200 123.8373 L 36.1988 123.9100 L 36.0711 123.9704 L 35.9380 124.0180 L 35.8009 124.0523 L 35.6611 124.0731 L 35.5200 124.0800 L 35.3555 124.0800 L 35.2388 124.1500 L 35.1111 124.2104 L 34.9780 124.2580 L 34.8409 124.2923 L 34.7011 124.3131 L 34.6418 124.3160 L 34.6400 124.3173 L 34.5188 124.3900 L 34.3911 124.4504 L 34.2580 124.4980 L 34.1209 124.5323 L 33.9811 124.5531 L 33.9218 124.5560 L 33.9200 124.5573 L 33.7988 124.6300 L 33.6711 124.6904 L 33.5380 124.7380 L 33.4009 124.7723 L 33.2611 124.7931 L 33.2018 124.7960 L 33.2000 124.7973 L 33.0788 124.8700 L 32.9511 124.9304 L 32.8180 124.9780 L 32.6809 125.0123 L 32.5411 125.0331 L 32.4818 125.0360 L 32.4800 125.0373 L 32.3588 125.1100 L 32.2311 125.1704 L 32.0980 125.2180 L 31.9609 125.2523 L 31.8211 125.2731 L 31.7618 125.2760 L 31.7600 125.2773 L 31.6388 125.3500 L 31.5111 125.4104 L 31.3780 125.4580 L 31.2409 125.4923 L 31.1011 125.5131 L 31.0418 125.5160 L 31.0400 125.5173 L 30.9188 125.5900 L 30.7911 125.6504 L 30.6580 125.6980 L 30.5209 125.7323 L 30.3811 125.7531 L 30.2400 125.7600 L 29.8355 125.7600 L 29.7188 125.8300 L 29.5911 125.8904 L 29.4580 125.9380 L 29.3209 125.9723 L 29.1811 125.9931 L 29.0400 126.0000 L 28.3955 126.0000 L 28.2788 126.0700 L 28.1511 126.1304 L 28.0180 126.1780 L 27.8809 126.2123 L 27.7411 126.2331 L 27.6000 126.2400 L 27.4355 126.2400 L 27.3188 126.3100 L 27.1911 126.3704 L 27.0580 126.4180 L 26.9209 126.4523 L 26.7811 126.4731 L 26.6400 126.4800 L 26.2355 126.4800 L 26.1188 126.5500 L 25.9911 126.6104 L 25.8580 126.6580 L 25.7209 126.6923 L 25.5811 126.7131 L 25.4400 126.7200 L 20.4000 126.7200 L 20.2589 126.7131 L 20.1191 126.6923 L 19.9820 126.6580 L 19.9200 126.6358 L 19.8580 126.6580 L 19.7209 126.6923 L 19.5811 126.7131 L 19.4400 126.7200 L 9.8400 126.7200 L 9.6989 126.7131 L 9.5591 126.6923 L 9.4220 126.6580 L 9.2889 126.6104 L 9.1612 126.5500 L 9.0400 126.4773 L 8.9265 126.3931 L 8.8218 126.2982 L 8.5818 126.0582 L 8.4869 125.9535 L 8.4027 125.8400 L 8.3300 125.7188 L 8.2696 125.5911 L 8.2220 125.4580 L 8.1877 125.3209 L 8.1669 125.1811 L 8.1600 125.0400 L 8.1600 9.8400 Z" fill="none" stroke="black" stroke-width="0.5" /></svg>