<?xml version="1.0" encoding="utf-8" ?>
<svg baseProfile="full" height="261" version="1.1" viewBox="0 0 189 261" width="189" xmlns="http://www.w3.org/2000/svg" xmlns:ev="http://www.w3.org/2001/xml-events" xmlns:xlink="http://www.w3.org/1999/xlink"><defs /><path d="M 69.1200 25.6800 L 68.8800 25.9200 L 67.4400 25.9200 L 67.2000 26.1600 L 66.2400 26.1600 L 66.0000 26.4000 L 65.0400 26.4000 L 64.8000 26.6400 L 64.0800 26.6400 L 63.8400 26.8800 L 63.3600 26.8800 L 63.1200 27.1200 L 62.4000 27.1200 L 62.1600 27.3600 L 61.9200 27.3600 L 61.6800 27.6000 L 61.2000 27.6000 L 60.9600 27.8400 L 60.7200 27.8400 L 60.4800 28.0800 L 60.2400 28.0800 L 60.0000 28.3200 L 59.7600 28.3200 L 59.5200 28.5600 L 59.2800 28.5600 L 59.0400 28.8000 L 58.8000 28.8000 L 58.5600 29.0400 L 58.3200 29.0400 L 57.8400 29.5200 L 57.6000 29.5200 L 57.3600 29.7600 L 57.1200 29.7600 L 56.6400 30.2400 L 56.4000 30.2400 L 55.6800 30.9600 L 55.4400 30.9600 L 53.5200 32.8800 L 53.5200 33.1200 L 52.8000 33.8400 L 52.8000 34.0800 L 52.0800 34.8000 L 52.0800 35.0400 L 51.6000 35.5200 L 51.6000 35.7600 L 51.3600 36.0000 L 51.3600 36.2400 L 51.1200 36.4800 L 51.1200 36.7200 L 50.8800 36.9600 L 50.8800 37.2000 L 50.6400 37.4400 L 50.6400 37.6800 L 49.9200 38.4000 L 49.9200 38.6400 L 48.9600 39.6000 L 48.9600 39.8400 L 48.7200 40.0800 L 48.7200 40.3200 L 48.4800 40.5600 L 48.4800 40.8000 L 48.2400 41.0400 L 48.2400 41.5200 L 48.0000 41.7600 L 48.0000 42.2400 L 47.7600 42.4800 L 47.7600 42.9600 L 47.5200 43.2000 L 47.5200 43.6800 L 47.2800 43.9200 L 47.2800 44.4000 L 47.0400 44.6400 L 47.0400 45.1200 L 46.8000 45.3600 L 46.8000 46.3200 L 46.5600 46.5600 L 46.5600 49.2000 L 46.3200 49.4400 L 46.3200 50.1600 L 46.5600 50.4000 L 46.5600 53.0400 L 46.8000 53.2800 L 46.8000 55.6800 L 47.0400 55.9200 L 47.0400 57.3600 L 47.2800 57.6000 L 47.2800 58.8000 L 47.5200 59.0400 L 47.5200 59.7600 L 47.7600 60.0000 L 47.7600 60.9600 L 48.0000 61.2000 L 48.0000 61.9200 L 48.2400 62.1600 L 48.2400 62.8800 L 48.4800 63.1200 L 48.4800 63.8400 L 48.7200 64.0800 L 48.7200 65.2800 L 48.4800 65.5200 L 48.4800 65.7600 L 48.2400 66.0000 L 48.2400 67.9200 L 48.4800 68.1600 L 48.4800 68.6400 L 48.7200 68.8800 L 48.7200 69.1200 L 48.9600 69.3600 L 48.9600 69.8400 L 49.2000 70.0800 L 49.2000 70.3200 L 49.4400 70.5600 L 49.4400 71.0400 L 49.9200 71.5200 L 49.9200 71.7600 L 50.4000 72.2400 L 50.6400 72.2400 L 50.8800 72.4800 L 51.1200 72.4800 L 51.3600 72.7200 L 51.6000 72.7200 L 52.3200 73.4400 L 52.3200 74.6400 L 52.5600 74.8800 L 52.5600 75.3600 L 53.0400 75.8400 L 53.0400 76.0800 L 53.5200 76.5600 L 53.5200 76.8000 L 54.2400 77.5200 L 54.2400 77.7600 L 55.6800 79.2000 L 55.6800 79.4400 L 56.1600 79.9200 L 56.1600 80.4000 L 56.6400 80.8800 L 56.6400 81.3600 L 56.8800 81.6000 L 56.8800 81.8400 L 57.1200 82.0800 L 57.1200 82.3200 L 57.3600 82.5600 L 57.3600 82.8000 L 57.6000 83.0400 L 57.6000 83.2800 L 57.8400 83.5200 L 57.8400 83.7600 L 58.3200 84.2400 L 58.3200 84.4800 L 58.8000 84.9600 L 58.8000 85.2000 L 59.0400 85.4400 L 59.0400 85.9200 L 58.3200 86.6400 L 58.0800 86.6400 L 57.8400 86.8800 L 57.6000 86.8800 L 57.3600 87.1200 L 57.1200 87.1200 L 56.8800 87.3600 L 56.6400 87.3600 L 56.4000 87.6000 L 56.1600 87.6000 L 55.9200 87.8400 L 55.4400 87.8400 L 55.2000 88.0800 L 54.7200 88.0800 L 54.2400 88.5600 L 54.0000 88.5600 L 53.7600 88.8000 L 53.5200 88.8000 L 53.0400 89.2800 L 52.5600 89.2800 L 52.3200 89.5200 L 52.0800 89.5200 L 51.8400 89.7600 L 51.6000 89.7600 L 51.3600 90.0000 L 51.1200 90.0000 L 50.8800 90.2400 L 50.6400 90.2400 L 50.4000 90.4800 L 49.9200 90.4800 L 49.6800 90.7200 L 49.2000 90.7200 L 48.9600 90.9600 L 48.4800 90.9600 L 48.2400 91.2000 L 47.7600 91.2000 L 47.5200 91.4400 L 47.2800 91.4400 L 47.0400 91.6800 L 46.3200 91.6800 L 46.0800 91.9200 L 45.6000 91.9200 L 45.3600 92.1600 L 45.1200 92.1600 L 44.8800 92.4000 L 44.6400 92.4000 L 44.4000 92.6400 L 44.1600 92.6400 L 43.9200 92.8800 L 43.6800 92.8800 L 43.4400 93.1200 L 43.2000 93.1200 L 42.9600 93.3600 L 42.7200 93.3600 L 41.7600 94.3200 L 41.5200 94.3200 L 40.0800 95.7600 L 39.8400 95.7600 L 39.3600 96.2400 L 39.1200 96.2400 L 38.6400 96.7200 L 38.4000 96.7200 L 37.4400 97.6800 L 37.4400 97.9200 L 36.4800 98.8800 L 36.2400 98.8800 L 36.2400 99.1200 L 35.2800 100.0800 L 35.2800 100.3200 L 34.8000 100.8000 L 34.8000 101.0400 L 34.5600 101.2800 L 34.5600 101.5200 L 34.3200 101.7600 L 34.3200 102.0000 L 34.0800 102.2400 L 34.0800 102.9600 L 33.8400 103.2000 L 33.8400 104.8800 L 33.6000 105.1200 L 33.6000 106.3200 L 33.3600 106.5600 L 33.3600 107.2800 L 33.1200 107.5200 L 33.1200 108.9600 L 33.3600 109.2000 L 33.3600 109.6800 L 33.6000 109.9200 L 33.6000 110.1600 L 33.8400 110.4000 L 33.8400 110.8800 L 34.0800 111.1200 L 34.0800 111.6000 L 34.3200 111.8400 L 34.3200 113.0400 L 34.5600 113.2800 L 34.5600 115.4400 L 34.8000 115.6800 L 34.8000 116.1600 L 35.0400 116.4000 L 35.0400 116.8800 L 35.5200 117.3600 L 35.5200 117.6000 L 36.0000 118.0800 L 36.0000 118.5600 L 36.2400 118.8000 L 36.2400 119.0400 L 36.4800 119.2800 L 36.4800 119.5200 L 36.7200 119.7600 L 36.7200 120.2400 L 36.9600 120.4800 L 36.9600 120.9600 L 37.2000 121.2000 L 37.2000 121.6800 L 37.9200 122.4000 L 38.1600 122.4000 L 39.1200 123.3600 L 39.1200 123.6000 L 39.6000 124.0800 L 39.6000 124.3200 L 39.8400 124.5600 L 39.8400 124.8000 L 40.3200 125.2800 L 40.3200 125.5200 L 40.5600 125.5200 L 40.8000 125.7600 L 41.0400 125.7600 L 41.7600 126.4800 L 41.7600 126.9600 L 42.0000 127.2000 L 42.0000 127.6800 L 42.2400 127.9200 L 42.2400 129.3600 L 42.0000 129.6000 L 42.0000 131.7600 L 42.2400 132.0000 L 42.2400 132.7200 L 42.4800 132.9600 L 42.4800 134.4000 L 42.7200 134.6400 L 42.7200 136.3200 L 42.9600 136.5600 L 42.9600 138.0000 L 43.2000 138.2400 L 43.2000 138.7200 L 43.4400 138.9600 L 43.4400 139.4400 L 43.6800 139.6800 L 43.6800 140.1600 L 43.9200 140.4000 L 43.9200 140.8800 L 44.1600 141.1200 L 44.1600 141.3600 L 44.4000 141.6000 L 44.4000 142.0800 L 44.6400 142.3200 L 44.6400 142.5600 L 45.1200 143.0400 L 45.1200 143.2800 L 45.3600 143.5200 L 45.3600 143.7600 L 45.8400 144.2400 L 45.8400 144.4800 L 46.0800 144.7200 L 46.0800 144.9600 L 46.8000 145.6800 L 46.8000 145.9200 L 48.2400 147.3600 L 48.2400 147.6000 L 48.4800 147.8400 L 48.4800 148.0800 L 48.7200 148.3200 L 48.9600 148.3200 L 49.2000 148.5600 L 50.4000 148.5600 L 51.1200 149.2800 L 50.4000 150.0000 L 50.1600 150.0000 L 50.1600 150.4800 L 50.4000 150.7200 L 50.4000 151.2000 L 50.1600 151.4400 L 50.1600 153.6000 L 50.4000 153.8400 L 50.4000 154.0800 L 51.3600 155.0400 L 51.3600 155.2800 L 51.6000 155.5200 L 51.6000 156.7200 L 51.8400 156.9600 L 51.8400 157.9200 L 52.0800 158.1600 L 52.0800 159.6000 L 52.3200 159.8400 L 52.3200 160.3200 L 52.0800 160.5600 L 52.0800 161.0400 L 51.6000 161.5200 L 51.6000 162.0000 L 51.1200 162.4800 L 50.8800 162.4800 L 49.9200 163.4400 L 49.9200 163.6800 L 49.4400 164.1600 L 49.2000 164.1600 L 49.2000 164.4000 L 48.9600 164.6400 L 48.9600 165.1200 L 49.2000 165.3600 L 49.2000 165.6000 L 49.4400 165.8400 L 49.4400 166.8000 L 49.6800 167.0400 L 49.6800 167.7600 L 49.9200 168.0000 L 49.9200 168.9600 L 50.1600 169.2000 L 50.1600 169.9200 L 50.4000 170.1600 L 50.4000 171.1200 L 50.6400 171.3600 L 50.6400 172.0800 L 50.8800 172.3200 L 50.8800 172.8000 L 51.1200 173.0400 L 51.1200 173.5200 L 51.3600 173.7600 L 51.3600 174.0000 L 51.6000 174.2400 L 51.6000 174.7200 L 52.0800 175.2000 L 52.0800 175.9200 L 51.8400 176.1600 L 51.6000 176.1600 L 51.3600 175.9200 L 51.1200 175.9200 L 50.8800 175.6800 L 50.6400 175.6800 L 50.4000 175.4400 L 50.1600 175.4400 L 49.4400 174.7200 L 49.2000 174.7200 L 48.9600 174.9600 L 48.9600 175.4400 L 48.7200 175.6800 L 48.7200 176.1600 L 48.4800 176.4000 L 48.4800 176.8800 L 48.2400 177.1200 L 48.2400 177.6000 L 48.0000 177.8400 L 48.0000 178.5600 L 47.7600 178.8000 L 47.7600 179.5200 L 47.5200 179.7600 L 47.5200 181.4400 L 47.2800 181.6800 L 47.2800 183.6000 L 47.5200 183.8400 L 47.5200 184.0800 L 48.2400 184.8000 L 48.9600 184.8000 L 49.2000 185.0400 L 49.4400 185.0400 L 49.6800 185.2800 L 49.9200 185.2800 L 50.1600 185.5200 L 51.6000 185.5200 L 52.0800 186.0000 L 52.0800 186.2400 L 51.1200 187.2000 L 51.1200 187.4400 L 50.8800 187.6800 L 50.8800 187.9200 L 50.4000 188.4000 L 50.4000 188.6400 L 49.9200 189.1200 L 49.9200 189.3600 L 49.6800 189.6000 L 49.6800 189.8400 L 49.4400 190.0800 L 49.4400 190.3200 L 49.2000 190.5600 L 49.2000 191.0400 L 48.9600 191.2800 L 48.9600 191.7600 L 48.7200 192.0000 L 48.7200 193.2000 L 48.4800 193.4400 L 48.4800 194.4000 L 48.2400 194.6400 L 48.2400 196.8000 L 48.4800 197.0400 L 48.4800 197.7600 L 48.7200 198.0000 L 48.7200 198.4800 L 49.2000 198.9600 L 49.2000 199.2000 L 49.6800 199.6800 L 49.6800 199.9200 L 49.4400 200.1600 L 49.4400 200.8800 L 49.2000 201.1200 L 49.2000 202.5600 L 49.4400 202.8000 L 49.4400 203.0400 L 49.6800 203.2800 L 49.6800 203.5200 L 49.9200 203.7600 L 49.9200 204.0000 L 50.1600 204.2400 L 50.1600 204.4800 L 49.9200 204.7200 L 49.9200 205.4400 L 49.6800 205.6800 L 49.6800 207.6000 L 49.9200 207.8400 L 49.9200 208.0800 L 50.6400 208.8000 L 50.6400 209.0400 L 50.8800 209.2800 L 50.8800 214.5600 L 51.1200 214.8000 L 51.1200 216.4800 L 50.8800 216.7200 L 50.8800 217.4400 L 51.1200 217.6800 L 51.1200 225.6000 L 50.8800 225.8400 L 50.8800 226.5600 L 50.6400 226.8000 L 50.6400 229.4400 L 50.4000 229.6800 L 50.4000 232.0800 L 50.1600 232.3200 L 50.1600 233.2800 L 49.9200 233.5200 L 49.9200 233.7600 L 127.4400 233.7600 L 127.4400 233.0400 L 127.2000 232.8000 L 127.2000 232.0800 L 126.9600 231.8400 L 126.9600 229.2000 L 126.7200 228.9600 L 126.7200 227.7600 L 126.9600 227.5200 L 126.9600 226.5600 L 126.7200 226.3200 L 126.7200 225.6000 L 126.4800 225.3600 L 126.4800 223.6800 L 126.2400 223.4400 L 126.2400 221.5200 L 126.0000 221.2800 L 126.0000 220.8000 L 125.7600 220.5600 L 125.7600 218.6400 L 125.5200 218.4000 L 125.5200 217.9200 L 125.2800 217.6800 L 125.2800 217.2000 L 125.0400 216.9600 L 125.0400 215.0400 L 124.8000 214.8000 L 124.8000 214.0800 L 124.5600 213.8400 L 124.5600 213.1200 L 124.3200 212.8800 L 124.3200 211.2000 L 124.5600 210.9600 L 124.5600 210.2400 L 124.3200 210.0000 L 124.3200 209.5200 L 124.0800 209.2800 L 124.0800 209.0400 L 123.8400 208.8000 L 123.8400 208.5600 L 123.6000 208.3200 L 123.6000 207.1200 L 123.8400 206.8800 L 123.8400 206.4000 L 124.0800 206.1600 L 124.0800 203.7600 L 123.8400 203.5200 L 123.8400 201.6000 L 124.5600 200.8800 L 124.8000 200.8800 L 125.5200 200.1600 L 125.7600 200.1600 L 126.2400 199.6800 L 126.4800 199.6800 L 126.4800 198.7200 L 126.2400 198.4800 L 126.2400 198.2400 L 125.7600 197.7600 L 125.7600 197.5200 L 123.6000 195.3600 L 123.6000 195.1200 L 122.8800 194.4000 L 122.8800 194.1600 L 122.4000 193.6800 L 122.4000 193.4400 L 122.1600 193.2000 L 122.1600 192.9600 L 121.6800 192.4800 L 121.6800 191.7600 L 122.1600 191.2800 L 122.1600 191.0400 L 124.8000 188.4000 L 125.0400 188.4000 L 125.5200 187.9200 L 125.5200 186.9600 L 125.0400 186.4800 L 125.0400 186.2400 L 124.5600 185.7600 L 124.5600 185.5200 L 124.3200 185.2800 L 124.0800 185.2800 L 121.6800 182.8800 L 121.6800 182.6400 L 121.2000 182.1600 L 121.2000 181.9200 L 120.7200 181.4400 L 120.7200 181.2000 L 120.2400 180.7200 L 120.2400 180.4800 L 119.0400 179.2800 L 118.8000 179.2800 L 118.3200 178.8000 L 118.0800 178.8000 L 117.8400 178.5600 L 117.8400 178.3200 L 117.6000 178.0800 L 117.6000 177.3600 L 117.3600 177.1200 L 117.3600 176.8800 L 117.1200 176.6400 L 117.1200 176.4000 L 116.6400 175.9200 L 116.6400 174.9600 L 116.8800 174.7200 L 116.8800 174.4800 L 116.6400 174.2400 L 116.6400 173.2800 L 116.4000 173.0400 L 116.4000 172.8000 L 116.6400 172.5600 L 116.6400 172.3200 L 116.8800 172.0800 L 116.8800 171.8400 L 117.1200 171.6000 L 117.1200 171.3600 L 117.3600 171.1200 L 117.3600 169.4400 L 117.1200 169.2000 L 117.1200 167.0400 L 116.8800 166.8000 L 116.8800 165.6000 L 117.1200 165.3600 L 117.1200 163.9200 L 117.3600 163.6800 L 117.3600 156.9600 L 117.6000 156.7200 L 117.6000 155.0400 L 117.3600 154.8000 L 117.3600 153.6000 L 117.1200 153.3600 L 117.1200 152.1600 L 116.8800 151.9200 L 116.8800 149.5200 L 117.1200 149.2800 L 117.1200 149.0400 L 117.3600 148.8000 L 117.3600 148.0800 L 117.6000 147.8400 L 117.6000 147.3600 L 117.8400 147.1200 L 117.8400 146.8800 L 118.0800 146.6400 L 118.0800 146.4000 L 118.3200 146.1600 L 118.3200 145.9200 L 118.8000 145.4400 L 118.8000 145.2000 L 119.7600 144.2400 L 119.7600 144.0000 L 120.4800 143.2800 L 120.4800 143.0400 L 121.4400 142.0800 L 121.4400 141.8400 L 123.1200 140.1600 L 123.1200 139.9200 L 124.3200 138.7200 L 124.3200 138.4800 L 125.0400 137.7600 L 125.0400 137.5200 L 125.7600 136.8000 L 125.7600 136.5600 L 126.2400 136.0800 L 126.2400 135.8400 L 126.7200 135.3600 L 126.7200 135.1200 L 127.2000 134.6400 L 127.2000 134.1600 L 127.4400 133.9200 L 127.4400 133.6800 L 127.6800 133.4400 L 127.6800 133.2000 L 127.9200 132.9600 L 128.1600 132.9600 L 128.6400 132.4800 L 128.6400 132.2400 L 129.3600 131.5200 L 129.3600 131.2800 L 130.5600 130.0800 L 130.5600 129.8400 L 131.2800 129.1200 L 131.2800 128.8800 L 132.9600 127.2000 L 132.9600 126.9600 L 133.6800 126.2400 L 133.6800 126.0000 L 135.3600 124.3200 L 135.8400 124.8000 L 135.8400 125.0400 L 136.0800 125.2800 L 136.0800 125.7600 L 136.3200 126.0000 L 136.3200 126.4800 L 136.5600 126.7200 L 136.5600 127.2000 L 136.8000 127.4400 L 136.8000 127.9200 L 137.0400 128.1600 L 137.0400 128.6400 L 137.2800 128.8800 L 137.2800 129.3600 L 137.5200 129.6000 L 137.5200 129.8400 L 137.7600 130.0800 L 137.7600 130.5600 L 138.0000 130.8000 L 138.0000 131.2800 L 138.2400 131.5200 L 138.2400 132.0000 L 138.7200 132.4800 L 138.9600 132.4800 L 139.2000 132.2400 L 139.4400 132.2400 L 140.1600 131.5200 L 140.1600 131.2800 L 141.6000 129.8400 L 141.6000 127.9200 L 141.3600 127.6800 L 141.3600 126.9600 L 141.1200 126.7200 L 141.1200 125.7600 L 140.8800 125.5200 L 140.8800 124.8000 L 140.6400 124.5600 L 140.6400 123.8400 L 140.4000 123.6000 L 140.4000 122.8800 L 140.1600 122.6400 L 140.1600 122.1600 L 139.9200 121.9200 L 139.9200 121.4400 L 140.4000 120.9600 L 140.6400 120.9600 L 140.8800 120.7200 L 141.1200 120.7200 L 141.3600 120.4800 L 141.6000 120.4800 L 141.8400 120.2400 L 142.0800 120.2400 L 142.3200 120.0000 L 142.5600 120.0000 L 142.8000 119.7600 L 143.2800 119.7600 L 144.2400 118.8000 L 144.2400 118.5600 L 144.4800 118.3200 L 144.4800 118.0800 L 144.7200 117.8400 L 144.9600 117.8400 L 145.4400 117.3600 L 148.8000 117.3600 L 149.0400 117.1200 L 154.5600 117.1200 L 154.8000 117.3600 L 163.4400 117.3600 L 163.6800 117.1200 L 166.8000 117.1200 L 167.0400 116.8800 L 168.4800 116.8800 L 168.7200 116.6400 L 169.4400 116.6400 L 169.6800 116.4000 L 170.1600 116.4000 L 170.4000 116.1600 L 170.8800 116.1600 L 171.1200 115.9200 L 171.3600 115.9200 L 171.6000 115.6800 L 171.8400 115.6800 L 172.3200 115.2000 L 172.5600 115.2000 L 173.0400 114.7200 L 173.2800 114.7200 L 173.7600 114.2400 L 174.0000 114.2400 L 174.4800 113.7600 L 174.7200 113.7600 L 176.1600 112.3200 L 176.4000 112.3200 L 176.8800 111.8400 L 176.8800 111.6000 L 177.3600 111.1200 L 177.3600 110.6400 L 177.6000 110.4000 L 177.6000 109.4400 L 177.8400 109.2000 L 177.8400 108.7200 L 177.6000 108.4800 L 177.6000 107.5200 L 177.3600 107.2800 L 177.3600 107.0400 L 177.1200 106.8000 L 177.1200 106.3200 L 176.8800 106.0800 L 176.8800 105.8400 L 176.6400 105.6000 L 176.6400 105.1200 L 176.4000 104.8800 L 176.4000 104.4000 L 176.1600 104.1600 L 176.1600 103.4400 L 175.9200 103.2000 L 175.9200 102.9600 L 175.6800 102.7200 L 175.6800 102.4800 L 175.2000 102.0000 L 175.2000 101.7600 L 174.7200 101.2800 L 174.7200 101.0400 L 174.2400 100.5600 L 174.2400 100.3200 L 173.7600 99.8400 L 173.7600 99.6000 L 172.8000 98.6400 L 172.8000 98.4000 L 172.0800 97.6800 L 172.0800 97.4400 L 171.1200 96.4800 L 171.1200 96.2400 L 170.4000 95.5200 L 170.4000 95.2800 L 169.2000 94.0800 L 169.2000 93.8400 L 168.9600 93.6000 L 168.9600 93.3600 L 168.4800 92.8800 L 168.4800 92.6400 L 168.2400 92.4000 L 168.2400 91.9200 L 168.0000 91.6800 L 168.0000 91.4400 L 167.7600 91.2000 L 167.7600 90.9600 L 167.2800 90.4800 L 167.2800 90.2400 L 167.0400 90.0000 L 167.0400 89.7600 L 166.5600 89.2800 L 166.5600 89.0400 L 166.0800 88.5600 L 166.0800 88.3200 L 165.6000 87.8400 L 165.6000 87.6000 L 165.1200 87.1200 L 165.1200 86.8800 L 164.6400 86.4000 L 164.6400 86.1600 L 163.6800 85.2000 L 163.6800 84.9600 L 162.2400 83.5200 L 162.2400 83.2800 L 160.3200 81.3600 L 160.0800 81.3600 L 158.6400 79.9200 L 158.4000 79.9200 L 157.6800 79.2000 L 157.4400 79.2000 L 156.9600 78.7200 L 156.7200 78.7200 L 156.2400 78.2400 L 156.0000 78.2400 L 155.7600 78.0000 L 155.5200 78.0000 L 155.2800 77.7600 L 155.0400 77.7600 L 154.5600 77.2800 L 154.3200 77.2800 L 154.0800 77.0400 L 153.8400 77.0400 L 153.6000 76.8000 L 153.3600 76.8000 L 153.1200 76.5600 L 152.8800 76.5600 L 152.6400 76.3200 L 152.4000 76.3200 L 152.1600 76.0800 L 151.6800 76.0800 L 151.4400 75.8400 L 151.2000 75.8400 L 150.9600 75.6000 L 150.4800 75.6000 L 150.2400 75.3600 L 149.7600 75.3600 L 149.5200 75.1200 L 149.5200 74.8800 L 150.0000 74.4000 L 150.2400 74.4000 L 150.4800 74.1600 L 150.7200 74.1600 L 150.9600 73.9200 L 151.2000 73.9200 L 151.4400 73.6800 L 151.6800 73.6800 L 151.9200 73.4400 L 152.1600 73.4400 L 152.6400 72.9600 L 152.6400 72.0000 L 151.9200 71.2800 L 151.6800 71.2800 L 151.4400 71.0400 L 151.2000 71.0400 L 150.9600 70.8000 L 150.4800 70.8000 L 150.2400 70.5600 L 148.5600 70.5600 L 148.3200 70.8000 L 144.2400 70.8000 L 144.0000 70.5600 L 143.5200 70.5600 L 143.2800 70.3200 L 143.2800 69.1200 L 143.5200 68.8800 L 143.5200 67.6800 L 143.7600 67.4400 L 143.7600 67.2000 L 144.0000 66.9600 L 144.0000 66.2400 L 143.7600 66.0000 L 143.7600 65.7600 L 143.5200 65.5200 L 143.5200 65.2800 L 143.2800 65.0400 L 143.2800 64.8000 L 142.8000 64.8000 L 142.5600 64.5600 L 141.3600 64.5600 L 141.1200 64.8000 L 140.8800 64.8000 L 140.6400 65.0400 L 140.4000 65.0400 L 139.9200 65.5200 L 139.9200 65.7600 L 139.6800 66.0000 L 139.6800 66.2400 L 139.4400 66.4800 L 139.4400 66.7200 L 139.2000 66.9600 L 139.2000 67.2000 L 138.7200 67.6800 L 138.7200 67.9200 L 138.4800 68.1600 L 138.4800 68.4000 L 138.2400 68.6400 L 138.2400 69.3600 L 137.2800 70.3200 L 136.8000 70.3200 L 136.0800 69.6000 L 136.0800 68.4000 L 135.8400 68.1600 L 135.8400 67.2000 L 135.6000 66.9600 L 135.6000 65.5200 L 135.3600 65.2800 L 135.3600 64.5600 L 135.1200 64.3200 L 135.1200 63.8400 L 134.8800 63.6000 L 134.8800 63.3600 L 134.1600 62.6400 L 133.2000 62.6400 L 132.9600 62.8800 L 132.4800 62.8800 L 132.0000 63.3600 L 131.7600 63.3600 L 131.7600 63.6000 L 131.2800 64.0800 L 131.2800 64.8000 L 131.0400 65.0400 L 131.0400 69.3600 L 131.2800 69.6000 L 131.2800 70.3200 L 131.5200 70.5600 L 131.5200 72.0000 L 131.0400 72.4800 L 130.8000 72.4800 L 130.0800 71.7600 L 130.0800 71.5200 L 129.6000 71.0400 L 129.6000 70.8000 L 128.8800 70.0800 L 128.8800 69.8400 L 128.1600 69.1200 L 128.1600 68.8800 L 127.9200 68.6400 L 127.9200 68.4000 L 127.2000 67.6800 L 127.2000 67.4400 L 126.7200 66.9600 L 126.7200 66.7200 L 126.4800 66.4800 L 126.4800 66.2400 L 126.0000 65.7600 L 126.0000 65.5200 L 125.0400 64.5600 L 125.0400 64.3200 L 124.3200 63.6000 L 124.0800 63.6000 L 123.8400 63.3600 L 122.8800 63.3600 L 122.6400 63.6000 L 122.1600 63.6000 L 120.7200 65.0400 L 120.7200 66.9600 L 121.2000 67.4400 L 121.2000 67.6800 L 121.9200 68.4000 L 121.9200 68.6400 L 122.1600 68.8800 L 122.1600 69.1200 L 122.6400 69.6000 L 122.6400 69.8400 L 123.1200 70.3200 L 123.1200 70.5600 L 123.6000 71.0400 L 123.8400 71.0400 L 124.3200 71.5200 L 124.3200 71.7600 L 124.5600 71.7600 L 124.8000 72.0000 L 124.8000 72.2400 L 125.0400 72.4800 L 125.0400 72.7200 L 124.8000 72.9600 L 124.8000 73.4400 L 125.0400 73.6800 L 125.0400 73.9200 L 125.7600 74.6400 L 125.7600 74.8800 L 126.2400 75.3600 L 126.2400 76.0800 L 125.2800 77.0400 L 125.2800 77.2800 L 124.5600 78.0000 L 124.5600 78.2400 L 124.0800 78.7200 L 124.0800 78.9600 L 123.8400 79.2000 L 123.8400 82.5600 L 123.6000 82.8000 L 123.3600 82.8000 L 122.1600 81.6000 L 121.9200 81.6000 L 120.7200 80.4000 L 120.7200 80.1600 L 120.4800 79.9200 L 120.4800 79.6800 L 120.2400 79.4400 L 120.2400 79.2000 L 120.0000 78.9600 L 120.0000 78.7200 L 119.2800 78.0000 L 119.2800 77.7600 L 118.5600 77.0400 L 118.3200 77.0400 L 118.0800 76.8000 L 117.8400 76.8000 L 117.6000 76.5600 L 117.1200 76.5600 L 116.8800 76.3200 L 116.1600 76.3200 L 115.9200 76.0800 L 113.7600 76.0800 L 113.5200 75.8400 L 110.1600 75.8400 L 109.9200 75.6000 L 107.7600 75.6000 L 107.5200 75.3600 L 106.8000 75.3600 L 106.5600 75.6000 L 105.1200 75.6000 L 104.8800 75.8400 L 104.1600 75.8400 L 103.9200 76.0800 L 103.2000 76.0800 L 102.9600 76.3200 L 102.2400 76.3200 L 102.0000 76.5600 L 101.2800 76.5600 L 101.0400 76.8000 L 100.3200 76.8000 L 100.0800 77.0400 L 99.1200 77.0400 L 98.8800 76.8000 L 98.8800 75.3600 L 99.1200 75.1200 L 99.1200 73.4400 L 99.3600 73.2000 L 99.3600 71.7600 L 99.6000 71.5200 L 99.6000 71.2800 L 100.0800 70.8000 L 100.3200 70.8000 L 100.5600 70.5600 L 100.5600 70.3200 L 100.8000 70.0800 L 100.8000 69.1200 L 101.0400 68.8800 L 101.0400 66.9600 L 100.8000 66.7200 L 100.8000 66.2400 L 100.3200 65.7600 L 100.0800 65.7600 L 99.3600 65.0400 L 99.3600 64.3200 L 99.6000 64.0800 L 99.6000 62.4000 L 99.8400 62.1600 L 99.8400 61.2000 L 100.0800 60.9600 L 100.0800 59.5200 L 100.3200 59.2800 L 100.3200 58.0800 L 100.5600 57.8400 L 100.5600 56.4000 L 100.8000 56.1600 L 100.8000 55.9200 L 101.2800 55.4400 L 101.5200 55.4400 L 101.7600 55.2000 L 101.7600 54.4800 L 101.5200 54.2400 L 101.5200 54.0000 L 101.2800 53.7600 L 101.2800 51.8400 L 100.3200 50.8800 L 100.3200 50.6400 L 100.0800 50.4000 L 100.0800 50.1600 L 99.6000 49.6800 L 99.6000 49.4400 L 99.1200 48.9600 L 99.1200 48.7200 L 98.8800 48.4800 L 98.8800 48.0000 L 98.6400 47.7600 L 98.4000 47.7600 L 97.6800 47.0400 L 97.6800 46.5600 L 97.4400 46.3200 L 97.4400 45.8400 L 97.2000 45.6000 L 97.2000 45.1200 L 96.9600 44.8800 L 96.9600 44.6400 L 96.7200 44.4000 L 96.7200 44.1600 L 96.4800 43.9200 L 96.4800 43.6800 L 96.0000 43.2000 L 96.0000 42.9600 L 95.7600 42.7200 L 95.7600 42.4800 L 95.5200 42.2400 L 95.5200 41.7600 L 95.2800 41.5200 L 95.2800 41.2800 L 95.0400 41.0400 L 95.0400 40.8000 L 94.8000 40.5600 L 94.8000 40.0800 L 94.5600 39.8400 L 94.5600 39.6000 L 94.3200 39.3600 L 94.3200 39.1200 L 93.8400 38.6400 L 93.8400 38.4000 L 93.6000 38.1600 L 93.6000 37.9200 L 93.3600 37.6800 L 93.3600 37.4400 L 92.6400 36.7200 L 92.6400 36.4800 L 91.9200 35.7600 L 91.9200 35.5200 L 89.2800 32.8800 L 89.0400 32.8800 L 87.6000 31.4400 L 87.3600 31.4400 L 86.8800 30.9600 L 86.6400 30.9600 L 86.1600 30.4800 L 85.9200 30.4800 L 85.6800 30.2400 L 85.4400 30.2400 L 85.2000 30.0000 L 84.9600 30.0000 L 84.0000 29.0400 L 83.7600 29.0400 L 83.0400 28.3200 L 82.8000 28.3200 L 82.3200 27.8400 L 82.0800 27.8400 L 81.8400 27.6000 L 81.6000 27.6000 L 81.1200 27.1200 L 80.6400 27.1200 L 80.4000 26.8800 L 80.1600 26.8800 L 79.9200 26.6400 L 79.4400 26.6400 L 79.2000 26.4000 L 78.4800 26.4000 L 78.2400 26.1600 L 77.5200 26.1600 L 77.2800 25.9200 L 75.8400 25.9200 L 75.6000 25.6800 L 69.1200 25.6800 Z M 74.8800 212.8800 L 75.1200 212.6400 L 75.3600 212.8800 L 75.6000 212.8800 L 76.0800 213.3600 L 75.6000 213.8400 L 74.8800 213.1200 L 74.8800 212.8800 Z M 66.7200 212.1600 L 67.9200 212.1600 L 68.1600 212.4000 L 67.4400 213.1200 L 66.7200 213.1200 L 66.2400 212.6400 L 66.7200 212.1600 Z M 54.7200 210.0000 L 54.9600 210.2400 L 54.9600 210.4800 L 54.4800 210.9600 L 54.2400 210.7200 L 54.2400 210.4800 L 54.7200 210.0000 Z M 58.0800 208.0800 L 58.3200 207.8400 L 58.5600 207.8400 L 58.8000 208.0800 L 58.8000 208.3200 L 58.5600 208.5600 L 58.0800 208.0800 Z M 60.0000 207.3600 L 60.2400 207.1200 L 60.4800 207.3600 L 60.2400 207.6000 L 60.0000 207.3600 Z M 59.5200 80.8800 L 59.7600 80.6400 L 60.7200 81.6000 L 60.9600 81.6000 L 61.2000 81.8400 L 61.6800 81.8400 L 62.4000 82.5600 L 62.4000 83.2800 L 62.6400 83.5200 L 62.6400 84.4800 L 61.9200 85.2000 L 61.4400 85.2000 L 60.9600 85.6800 L 60.7200 85.6800 L 60.0000 84.9600 L 60.0000 84.7200 L 59.7600 84.4800 L 59.7600 83.5200 L 60.0000 83.2800 L 60.0000 82.5600 L 59.5200 82.0800 L 59.5200 80.8800 Z M 126.2400 71.2800 L 126.4800 71.0400 L 126.7200 71.2800 L 126.7200 71.5200 L 126.4800 71.7600 L 126.2400 71.5200 L 126.2400 71.2800 Z" fill="none" stroke="black" stroke-width="0.5" /></svg>