<?xml version="1.0" encoding="utf-8" ?>
<svg baseProfile="full" height="261" version="1.1" viewBox="0 0 189 261" width="189" xmlns="http://www.w3.org/2000/svg" xmlns:ev="http://www.w3.org/2001/xml-events" xmlns:xlink="http://www.w3.org/1999/xlink"><defs /><path d="M 34.5600 108.0755 L 34.5600 108.4045 L 34.6300 108.5212 L 34.6904 108.6489 L 34.7380 108.7820 L 34.7723 108.9191 L 34.7931 109.0589 L 34.7960 109.1182 L 34.7973 109.1200 L 34.8700 109.2412 L 34.9304 109.3689 L 34.9780 109.5020 L 34.9848 109.5292 L 35.0373 109.6000 L 35.1100 109.7212 L 35.1704 109.8489 L 35.2180 109.9820 L 35.2523 110.1191 L 35.2731 110.2589 L 35.2760 110.3182 L 35.2773 110.3200 L 35.3500 110.4412 L 35.4104 110.5689 L 35.4580 110.7020 L 35.4923 110.8391 L 35.5131 110.9789 L 35.5160 111.0382 L 35.5173 111.0400 L 35.5900 111.1612 L 35.6504 111.2889 L 35.6980 111.4220 L 35.7323 111.5591 L 35.7531 111.6989 L 35.7600 111.8400 L 35.7600 112.4845 L 35.8300 112.6012 L 35.8904 112.7289 L 35.9380 112.8620 L 35.9723 112.9991 L 35.9931 113.1389 L 36.0000 113.2800 L 36.0000 114.8845 L 36.0700 115.0012 L 36.1304 115.1289 L 36.1780 115.2620 L 36.2123 115.3991 L 36.2331 115.5389 L 36.2360 115.5982 L 36.2373 115.6000 L 36.3100 115.7212 L 36.3704 115.8489 L 36.4180 115.9820 L 36.4523 116.1191 L 36.4731 116.2589 L 36.4740 116.2775 L 36.5382 116.3418 L 36.6331 116.4465 L 36.7173 116.5600 L 36.7900 116.6812 L 36.8504 116.8089 L 36.8977 116.9413 L 37.0182 117.0618 L 37.1131 117.1665 L 37.1973 117.2800 L 37.2700 117.4012 L 37.3304 117.5289 L 37.3780 117.6620 L 37.4123 117.7991 L 37.4331 117.9389 L 37.4360 117.9982 L 37.4373 118.0000 L 37.5100 118.1212 L 37.5704 118.2489 L 37.6180 118.3820 L 37.6248 118.4092 L 37.6773 118.4800 L 37.7500 118.6012 L 37.8104 118.7289 L 37.8580 118.8620 L 37.8648 118.8892 L 37.9173 118.9600 L 37.9900 119.0812 L 38.0504 119.2089 L 38.0980 119.3420 L 38.1323 119.4791 L 38.1531 119.6189 L 38.1560 119.6782 L 38.1573 119.6800 L 38.2300 119.8012 L 38.2904 119.9289 L 38.3380 120.0620 L 38.3723 120.1991 L 38.3931 120.3389 L 38.3960 120.3982 L 38.3973 120.4000 L 38.4700 120.5212 L 38.5304 120.6489 L 38.5780 120.7820 L 38.6123 120.9191 L 38.6304 121.0407 L 38.7111 121.0696 L 38.8388 121.1300 L 38.9600 121.2027 L 39.0735 121.2869 L 39.1782 121.3818 L 40.1382 122.3418 L 40.2331 122.4465 L 40.3173 122.5600 L 40.3900 122.6812 L 40.4504 122.8089 L 40.4977 122.9413 L 40.6182 123.0618 L 40.7131 123.1665 L 40.7973 123.2800 L 40.8700 123.4012 L 40.9304 123.5289 L 40.9780 123.6620 L 40.9848 123.6892 L 41.0373 123.7600 L 41.1100 123.8812 L 41.1704 124.0089 L 41.2177 124.1413 L 41.3382 124.2618 L 41.4331 124.3665 L 41.4416 124.3779 L 41.4580 124.3820 L 41.5911 124.4296 L 41.7188 124.4900 L 41.8400 124.5627 L 41.9535 124.6469 L 42.0582 124.7418 L 42.7782 125.4618 L 42.8731 125.5665 L 42.9573 125.6800 L 43.0300 125.8012 L 43.0904 125.9289 L 43.1380 126.0620 L 43.1723 126.1991 L 43.1931 126.3389 L 43.1960 126.3982 L 43.1973 126.4000 L 43.2700 126.5212 L 43.3304 126.6489 L 43.3780 126.7820 L 43.4123 126.9191 L 43.4331 127.0589 L 43.4360 127.1182 L 43.4373 127.1200 L 43.5100 127.2412 L 43.5704 127.3689 L 43.6180 127.5020 L 43.6523 127.6391 L 43.6731 127.7789 L 43.6800 127.9200 L 43.6800 129.3600 L 43.6731 129.5011 L 43.6523 129.6409 L 43.6180 129.7780 L 43.5704 129.9111 L 43.5100 130.0388 L 43.4400 130.1555 L 43.4400 131.2045 L 43.5100 131.3212 L 43.5704 131.4489 L 43.6180 131.5820 L 43.6523 131.7191 L 43.6731 131.8589 L 43.6800 132.0000 L 43.6800 132.1645 L 43.7500 132.2812 L 43.8104 132.4089 L 43.8580 132.5420 L 43.8923 132.6791 L 43.9131 132.8189 L 43.9200 132.9600 L 43.9200 133.8445 L 43.9900 133.9612 L 44.0504 134.0889 L 44.0980 134.2220 L 44.1323 134.3591 L 44.1531 134.4989 L 44.1600 134.6400 L 44.1600 135.7645 L 44.2300 135.8812 L 44.2904 136.0089 L 44.3380 136.1420 L 44.3723 136.2791 L 44.3931 136.4189 L 44.4000 136.5600 L 44.4000 137.4445 L 44.4700 137.5612 L 44.5304 137.6889 L 44.5780 137.8220 L 44.6123 137.9591 L 44.6331 138.0989 L 44.6360 138.1582 L 44.6373 138.1600 L 44.7100 138.2812 L 44.7704 138.4089 L 44.8180 138.5420 L 44.8523 138.6791 L 44.8731 138.8189 L 44.8760 138.8782 L 44.8773 138.8800 L 44.9500 139.0012 L 45.0104 139.1289 L 45.0580 139.2620 L 45.0923 139.3991 L 45.1131 139.5389 L 45.1160 139.5982 L 45.1173 139.6000 L 45.1900 139.7212 L 45.2504 139.8489 L 45.2980 139.9820 L 45.3323 140.1191 L 45.3531 140.2589 L 45.3560 140.3182 L 45.3573 140.3200 L 45.4300 140.4412 L 45.4904 140.5689 L 45.5380 140.7020 L 45.5448 140.7292 L 45.5973 140.8000 L 45.6700 140.9212 L 45.7304 141.0489 L 45.7780 141.1820 L 45.8123 141.3191 L 45.8331 141.4589 L 45.8360 141.5182 L 45.8373 141.5200 L 45.9100 141.6412 L 45.9704 141.7689 L 46.0177 141.9013 L 46.1382 142.0218 L 46.2331 142.1265 L 46.3173 142.2400 L 46.3900 142.3612 L 46.4504 142.4889 L 46.4980 142.6220 L 46.5048 142.6492 L 46.5573 142.7200 L 46.6300 142.8412 L 46.6904 142.9689 L 46.7377 143.1013 L 46.8582 143.2218 L 46.9531 143.3265 L 47.0373 143.4400 L 47.1100 143.5612 L 47.1704 143.6889 L 47.2180 143.8220 L 47.2248 143.8492 L 47.2773 143.9200 L 47.3500 144.0412 L 47.4104 144.1689 L 47.4577 144.3013 L 47.8182 144.6618 L 47.9131 144.7665 L 47.9973 144.8800 L 48.0700 145.0012 L 48.1304 145.1289 L 48.1777 145.2613 L 49.2582 146.3418 L 49.3531 146.4465 L 49.4373 146.5600 L 49.5100 146.6812 L 49.5704 146.8089 L 49.6180 146.9420 L 49.6248 146.9692 L 49.6773 147.0400 L 49.7083 147.0917 L 49.7555 147.1200 L 50.4000 147.1200 L 50.5411 147.1269 L 50.6809 147.1477 L 50.8180 147.1820 L 50.9511 147.2296 L 51.0788 147.2900 L 51.2000 147.3627 L 51.3135 147.4469 L 51.4182 147.5418 L 52.1382 148.2618 L 52.2331 148.3665 L 52.3173 148.4800 L 52.3900 148.6012 L 52.4504 148.7289 L 52.4980 148.8620 L 52.5323 148.9991 L 52.5531 149.1389 L 52.5600 149.2800 L 52.5531 149.4211 L 52.5323 149.5609 L 52.4980 149.6980 L 52.4504 149.8311 L 52.3900 149.9588 L 52.3173 150.0800 L 52.2331 150.1935 L 52.1382 150.2982 L 51.8342 150.6023 L 51.8400 150.7200 L 51.8400 151.2000 L 51.8331 151.3411 L 51.8123 151.4809 L 51.7780 151.6180 L 51.7304 151.7511 L 51.6700 151.8788 L 51.6000 151.9955 L 51.6000 153.0445 L 51.6700 153.1612 L 51.7304 153.2889 L 51.7777 153.4213 L 52.3782 154.0218 L 52.4731 154.1265 L 52.5573 154.2400 L 52.6300 154.3612 L 52.6904 154.4889 L 52.7380 154.6220 L 52.7448 154.6492 L 52.7973 154.7200 L 52.8700 154.8412 L 52.9304 154.9689 L 52.9780 155.1020 L 53.0123 155.2391 L 53.0331 155.3789 L 53.0400 155.5200 L 53.0400 156.1645 L 53.1100 156.2812 L 53.1704 156.4089 L 53.2180 156.5420 L 53.2523 156.6791 L 53.2731 156.8189 L 53.2800 156.9600 L 53.2800 157.3645 L 53.3500 157.4812 L 53.4104 157.6089 L 53.4580 157.7420 L 53.4923 157.8791 L 53.5131 158.0189 L 53.5200 158.1600 L 53.5200 159.0445 L 53.5900 159.1612 L 53.6504 159.2889 L 53.6980 159.4220 L 53.7323 159.5591 L 53.7531 159.6989 L 53.7600 159.8400 L 53.7600 160.3200 L 53.7531 160.4611 L 53.7323 160.6009 L 53.6980 160.7380 L 53.6504 160.8711 L 53.5900 160.9988 L 53.5173 161.1200 L 53.5160 161.1218 L 53.5131 161.1811 L 53.4923 161.3209 L 53.4580 161.4580 L 53.4104 161.5911 L 53.3500 161.7188 L 53.2773 161.8400 L 53.1931 161.9535 L 53.0982 162.0582 L 53.0340 162.1225 L 53.0331 162.1411 L 53.0123 162.2809 L 52.9780 162.4180 L 52.9304 162.5511 L 52.8700 162.6788 L 52.7973 162.8000 L 52.7131 162.9135 L 52.6182 163.0182 L 52.1382 163.4982 L 52.0335 163.5931 L 51.9200 163.6773 L 51.7988 163.7500 L 51.6711 163.8104 L 51.5387 163.8577 L 51.2977 164.0987 L 51.2504 164.2311 L 51.1900 164.3588 L 51.1173 164.4800 L 51.0331 164.5935 L 50.9382 164.6982 L 50.6199 165.0165 L 50.6373 165.0400 L 50.7100 165.1612 L 50.7704 165.2889 L 50.8180 165.4220 L 50.8523 165.5591 L 50.8731 165.6989 L 50.8800 165.8400 L 50.8800 166.2445 L 50.9500 166.3612 L 51.0104 166.4889 L 51.0580 166.6220 L 51.0923 166.7591 L 51.1131 166.8989 L 51.1200 167.0400 L 51.1200 167.2045 L 51.1900 167.3212 L 51.2504 167.4489 L 51.2980 167.5820 L 51.3323 167.7191 L 51.3531 167.8589 L 51.3600 168.0000 L 51.3600 168.4045 L 51.4300 168.5212 L 51.4904 168.6489 L 51.5380 168.7820 L 51.5723 168.9191 L 51.5931 169.0589 L 51.6000 169.2000 L 51.6000 169.3645 L 51.6700 169.4812 L 51.7304 169.6089 L 51.7780 169.7420 L 51.8123 169.8791 L 51.8331 170.0189 L 51.8400 170.1600 L 51.8400 170.5645 L 51.9100 170.6812 L 51.9704 170.8089 L 52.0180 170.9420 L 52.0523 171.0791 L 52.0731 171.2189 L 52.0800 171.3600 L 52.0800 171.5245 L 52.1500 171.6412 L 52.2104 171.7689 L 52.2580 171.9020 L 52.2923 172.0391 L 52.3131 172.1789 L 52.3160 172.2382 L 52.3173 172.2400 L 52.3900 172.3612 L 52.4504 172.4889 L 52.4980 172.6220 L 52.5323 172.7591 L 52.5531 172.8989 L 52.5560 172.9582 L 52.5573 172.9600 L 52.6300 173.0812 L 52.6904 173.2089 L 52.7380 173.3420 L 52.7448 173.3692 L 52.7973 173.4400 L 52.8700 173.5612 L 52.9304 173.6889 L 52.9780 173.8220 L 53.0123 173.9591 L 53.0331 174.0989 L 53.0340 174.1175 L 53.0982 174.1818 L 53.1931 174.2865 L 53.2773 174.4000 L 53.3500 174.5212 L 53.4104 174.6489 L 53.4580 174.7820 L 53.4923 174.9191 L 53.5131 175.0589 L 53.5200 175.2000 L 53.5200 175.9200 L 53.5131 176.0611 L 53.4923 176.2009 L 53.4580 176.3380 L 53.4104 176.4711 L 53.3500 176.5988 L 53.2773 176.7200 L 53.1931 176.8335 L 53.0982 176.9382 L 52.8582 177.1782 L 52.7535 177.2731 L 52.6400 177.3573 L 52.5188 177.4300 L 52.3911 177.4904 L 52.2580 177.5380 L 52.1209 177.5723 L 51.9811 177.5931 L 51.8400 177.6000 L 51.6000 177.6000 L 51.4589 177.5931 L 51.3191 177.5723 L 51.1820 177.5380 L 51.0489 177.4904 L 50.9212 177.4300 L 50.8000 177.3573 L 50.7292 177.3048 L 50.7020 177.2980 L 50.5689 177.2504 L 50.4412 177.1900 L 50.3200 177.1173 L 50.2492 177.0648 L 50.2220 177.0580 L 50.0889 177.0104 L 49.9612 176.9500 L 49.9333 176.9333 L 49.9173 176.9600 L 49.9160 176.9618 L 49.9131 177.0211 L 49.8923 177.1609 L 49.8580 177.2980 L 49.8104 177.4311 L 49.7500 177.5588 L 49.6773 177.6800 L 49.6760 177.6818 L 49.6731 177.7411 L 49.6523 177.8809 L 49.6180 178.0180 L 49.5704 178.1511 L 49.5100 178.2788 L 49.4400 178.3955 L 49.4400 178.5600 L 49.4331 178.7011 L 49.4123 178.8409 L 49.3780 178.9780 L 49.3304 179.1111 L 49.2700 179.2388 L 49.2000 179.3555 L 49.2000 179.5200 L 49.1931 179.6611 L 49.1723 179.8009 L 49.1380 179.9380 L 49.0904 180.0711 L 49.0300 180.1988 L 48.9600 180.3155 L 48.9600 181.4400 L 48.9531 181.5811 L 48.9323 181.7209 L 48.8980 181.8580 L 48.8504 181.9911 L 48.7900 182.1188 L 48.7200 182.2355 L 48.7200 183.0445 L 48.7900 183.1612 L 48.8504 183.2889 L 48.8758 183.3600 L 48.9600 183.3600 L 49.1011 183.3669 L 49.2409 183.3877 L 49.3780 183.4220 L 49.5111 183.4696 L 49.6388 183.5300 L 49.7600 183.6027 L 49.8308 183.6552 L 49.8580 183.6620 L 49.9911 183.7096 L 50.1188 183.7700 L 50.2400 183.8427 L 50.3108 183.8952 L 50.3380 183.9020 L 50.4711 183.9496 L 50.5988 184.0100 L 50.7155 184.0800 L 51.6000 184.0800 L 51.7411 184.0869 L 51.8809 184.1077 L 52.0180 184.1420 L 52.1511 184.1896 L 52.2788 184.2500 L 52.4000 184.3227 L 52.5135 184.4069 L 52.6182 184.5018 L 53.0982 184.9818 L 53.1931 185.0865 L 53.2773 185.2000 L 53.3500 185.3212 L 53.4104 185.4489 L 53.4580 185.5820 L 53.4923 185.7191 L 53.5131 185.8589 L 53.5200 186.0000 L 53.5200 186.2400 L 53.5131 186.3811 L 53.4923 186.5209 L 53.4580 186.6580 L 53.4104 186.7911 L 53.3500 186.9188 L 53.2773 187.0400 L 53.1931 187.1535 L 53.0982 187.2582 L 52.4977 187.8587 L 52.4504 187.9911 L 52.3900 188.1188 L 52.3173 188.2400 L 52.2648 188.3108 L 52.2580 188.3380 L 52.2104 188.4711 L 52.1500 188.5988 L 52.0773 188.7200 L 51.9931 188.8335 L 51.8982 188.9382 L 51.7777 189.0587 L 51.7304 189.1911 L 51.6700 189.3188 L 51.5973 189.4400 L 51.5131 189.5535 L 51.4182 189.6582 L 51.2977 189.7787 L 51.2504 189.9111 L 51.1900 190.0388 L 51.1173 190.1600 L 51.0648 190.2308 L 51.0580 190.2580 L 51.0104 190.3911 L 50.9500 190.5188 L 50.8773 190.6400 L 50.8248 190.7108 L 50.8180 190.7380 L 50.7704 190.8711 L 50.7100 190.9988 L 50.6373 191.1200 L 50.6360 191.1218 L 50.6331 191.1811 L 50.6123 191.3209 L 50.5780 191.4580 L 50.5304 191.5911 L 50.4700 191.7188 L 50.3973 191.8400 L 50.3960 191.8418 L 50.3931 191.9011 L 50.3723 192.0409 L 50.3380 192.1780 L 50.2904 192.3111 L 50.2300 192.4388 L 50.1600 192.5555 L 50.1600 193.2000 L 50.1531 193.3411 L 50.1323 193.4809 L 50.0980 193.6180 L 50.0504 193.7511 L 49.9900 193.8788 L 49.9200 193.9955 L 49.9200 194.4000 L 49.9131 194.5411 L 49.8923 194.6809 L 49.8580 194.8180 L 49.8104 194.9511 L 49.7500 195.0788 L 49.6800 195.1955 L 49.6800 196.2445 L 49.7500 196.3612 L 49.8104 196.4889 L 49.8580 196.6220 L 49.8923 196.7591 L 49.9131 196.8989 L 49.9200 197.0400 L 49.9200 197.2045 L 49.9900 197.3212 L 50.0504 197.4489 L 50.0980 197.5820 L 50.1323 197.7191 L 50.1531 197.8589 L 50.1540 197.8775 L 50.2182 197.9418 L 50.3131 198.0465 L 50.3973 198.1600 L 50.4700 198.2812 L 50.5304 198.4089 L 50.5777 198.5413 L 50.6982 198.6618 L 50.7931 198.7665 L 50.8773 198.8800 L 50.9500 199.0012 L 51.0104 199.1289 L 51.0580 199.2620 L 51.0923 199.3991 L 51.1131 199.5389 L 51.1200 199.6800 L 51.1200 199.9200 L 51.1131 200.0611 L 51.0923 200.2009 L 51.0580 200.3380 L 51.0104 200.4711 L 50.9500 200.5988 L 50.8800 200.7155 L 50.8800 200.8800 L 50.8731 201.0211 L 50.8523 201.1609 L 50.8180 201.2980 L 50.7704 201.4311 L 50.7100 201.5588 L 50.6400 201.6755 L 50.6400 202.0045 L 50.7100 202.1212 L 50.7704 202.2489 L 50.8180 202.3820 L 50.8248 202.4092 L 50.8773 202.4800 L 50.9500 202.6012 L 51.0104 202.7289 L 51.0580 202.8620 L 51.0648 202.8892 L 51.1173 202.9600 L 51.1900 203.0812 L 51.2504 203.2089 L 51.2980 203.3420 L 51.3048 203.3692 L 51.3573 203.4400 L 51.4300 203.5612 L 51.4904 203.6889 L 51.5380 203.8220 L 51.5723 203.9591 L 51.5931 204.0989 L 51.6000 204.2400 L 51.6000 204.4800 L 51.5931 204.6211 L 51.5723 204.7609 L 51.5380 204.8980 L 51.4904 205.0311 L 51.4300 205.1588 L 51.3600 205.2755 L 51.3600 205.4400 L 51.3531 205.5811 L 51.3323 205.7209 L 51.2980 205.8580 L 51.2504 205.9911 L 51.1900 206.1188 L 51.1200 206.2355 L 51.1200 207.0445 L 51.1900 207.1612 L 51.2504 207.2889 L 51.2977 207.4213 L 51.6582 207.7818 L 51.7531 207.8865 L 51.8373 208.0000 L 51.9100 208.1212 L 51.9704 208.2489 L 52.0180 208.3820 L 52.0248 208.4092 L 52.0773 208.4800 L 52.1500 208.6012 L 52.2104 208.7289 L 52.2580 208.8620 L 52.2923 208.9991 L 52.3131 209.1389 L 52.3200 209.2800 L 52.3200 214.0045 L 52.3900 214.1212 L 52.4504 214.2489 L 52.4980 214.3820 L 52.5323 214.5191 L 52.5531 214.6589 L 52.5600 214.8000 L 52.5600 216.4800 L 52.5531 216.6211 L 52.5323 216.7609 L 52.4980 216.8980 L 52.4504 217.0311 L 52.4272 217.0800 L 52.4504 217.1289 L 52.4980 217.2620 L 52.5323 217.3991 L 52.5531 217.5389 L 52.5600 217.6800 L 52.5600 225.6000 L 52.5531 225.7411 L 52.5323 225.8809 L 52.4980 226.0180 L 52.4504 226.1511 L 52.3900 226.2788 L 52.3200 226.3955 L 52.3200 226.5600 L 52.3131 226.7011 L 52.2923 226.8409 L 52.2580 226.9780 L 52.2104 227.1111 L 52.1500 227.2388 L 52.0800 227.3555 L 52.0800 229.4400 L 52.0731 229.5811 L 52.0523 229.7209 L 52.0180 229.8580 L 51.9704 229.9911 L 51.9100 230.1188 L 51.8400 230.2355 L 51.8400 232.0800 L 51.8331 232.2211 L 51.8184 232.3200 L 125.6042 232.3200 L 125.5820 232.2580 L 125.5477 232.1209 L 125.5269 231.9811 L 125.5200 231.8400 L 125.5200 229.7555 L 125.4500 229.6388 L 125.3896 229.5111 L 125.3420 229.3780 L 125.3077 229.2409 L 125.2869 229.1011 L 125.2800 228.9600 L 125.2800 227.7600 L 125.2869 227.6189 L 125.3077 227.4791 L 125.3420 227.3420 L 125.3896 227.2089 L 125.4500 227.0812 L 125.4747 227.0400 L 125.4500 226.9988 L 125.3896 226.8711 L 125.3420 226.7380 L 125.3077 226.6009 L 125.2869 226.4611 L 125.2800 226.3200 L 125.2800 226.1555 L 125.2100 226.0388 L 125.1496 225.9111 L 125.1020 225.7780 L 125.0677 225.6409 L 125.0469 225.5011 L 125.0400 225.3600 L 125.0400 224.2355 L 124.9700 224.1188 L 124.9096 223.9911 L 124.8620 223.8580 L 124.8277 223.7209 L 124.8069 223.5811 L 124.8000 223.4400 L 124.8000 222.0755 L 124.7300 221.9588 L 124.6696 221.8311 L 124.6220 221.6980 L 124.5877 221.5609 L 124.5669 221.4211 L 124.5640 221.3618 L 124.5627 221.3600 L 124.4900 221.2388 L 124.4296 221.1111 L 124.3820 220.9780 L 124.3477 220.8409 L 124.3269 220.7011 L 124.3200 220.5600 L 124.3200 219.1955 L 124.2500 219.0788 L 124.1896 218.9511 L 124.1420 218.8180 L 124.1077 218.6809 L 124.0869 218.5411 L 124.0840 218.4818 L 124.0827 218.4800 L 124.0100 218.3588 L 123.9496 218.2311 L 123.9020 218.0980 L 123.8677 217.9609 L 123.8469 217.8211 L 123.8440 217.7618 L 123.8427 217.7600 L 123.7700 217.6388 L 123.7096 217.5111 L 123.6620 217.3780 L 123.6277 217.2409 L 123.6069 217.1011 L 123.6000 216.9600 L 123.6000 215.5955 L 123.5300 215.4788 L 123.4696 215.3511 L 123.4220 215.2180 L 123.3877 215.0809 L 123.3669 214.9411 L 123.3600 214.8000 L 123.3600 214.6355 L 123.2900 214.5188 L 123.2296 214.3911 L 123.1820 214.2580 L 123.1477 214.1209 L 123.1269 213.9811 L 123.1200 213.8400 L 123.1200 213.6755 L 123.0500 213.5588 L 122.9896 213.4311 L 122.9420 213.2980 L 122.9077 213.1609 L 122.8869 213.0211 L 122.8800 212.8800 L 122.8800 211.2000 L 122.8869 211.0589 L 122.9077 210.9191 L 122.9420 210.7820 L 122.9896 210.6489 L 123.0128 210.6000 L 122.9896 210.5511 L 122.9420 210.4180 L 122.9077 210.2809 L 122.8869 210.1411 L 122.8840 210.0818 L 122.8827 210.0800 L 122.8100 209.9588 L 122.7496 209.8311 L 122.7020 209.6980 L 122.6952 209.6708 L 122.6427 209.6000 L 122.5700 209.4788 L 122.5096 209.3511 L 122.4620 209.2180 L 122.4552 209.1908 L 122.4027 209.1200 L 122.3300 208.9988 L 122.2696 208.8711 L 122.2220 208.7380 L 122.1877 208.6009 L 122.1669 208.4611 L 122.1600 208.3200 L 122.1600 207.1200 L 122.1669 206.9789 L 122.1877 206.8391 L 122.2220 206.7020 L 122.2696 206.5689 L 122.3300 206.4412 L 122.4027 206.3200 L 122.4040 206.3182 L 122.4069 206.2589 L 122.4277 206.1191 L 122.4620 205.9820 L 122.5096 205.8489 L 122.5700 205.7212 L 122.6400 205.6045 L 122.6400 204.3155 L 122.5700 204.1988 L 122.5096 204.0711 L 122.4620 203.9380 L 122.4277 203.8009 L 122.4069 203.6611 L 122.4000 203.5200 L 122.4000 201.6000 L 122.4069 201.4589 L 122.4277 201.3191 L 122.4620 201.1820 L 122.5096 201.0489 L 122.5700 200.9212 L 122.6427 200.8000 L 122.7269 200.6865 L 122.8218 200.5818 L 123.5418 199.8618 L 123.6465 199.7669 L 123.7600 199.6827 L 123.8812 199.6100 L 124.0089 199.5496 L 124.1413 199.5023 L 124.5018 199.1418 L 124.6065 199.0469 L 124.7200 198.9627 L 124.8412 198.8900 L 124.8496 198.8861 L 124.7418 198.7782 L 124.6469 198.6735 L 124.5627 198.5600 L 124.4900 198.4388 L 124.4296 198.3111 L 124.3823 198.1787 L 122.5818 196.3782 L 122.4869 196.2735 L 122.4027 196.1600 L 122.3300 196.0388 L 122.2696 195.9111 L 122.2223 195.7787 L 121.8618 195.4182 L 121.7669 195.3135 L 121.6827 195.2000 L 121.6100 195.0788 L 121.5496 194.9511 L 121.5023 194.8187 L 121.3818 194.6982 L 121.2869 194.5935 L 121.2027 194.4800 L 121.1300 194.3588 L 121.0696 194.2311 L 121.0220 194.0980 L 121.0152 194.0708 L 120.9627 194.0000 L 120.8900 193.8788 L 120.8296 193.7511 L 120.7823 193.6187 L 120.6618 193.4982 L 120.5669 193.3935 L 120.4827 193.2800 L 120.4100 193.1588 L 120.3496 193.0311 L 120.3020 192.8980 L 120.2677 192.7609 L 120.2469 192.6211 L 120.2400 192.4800 L 120.2400 191.7600 L 120.2469 191.6189 L 120.2677 191.4791 L 120.3020 191.3420 L 120.3496 191.2089 L 120.4100 191.0812 L 120.4827 190.9600 L 120.5669 190.8465 L 120.6618 190.7418 L 120.7823 190.6213 L 120.8296 190.4889 L 120.8900 190.3612 L 120.9627 190.2400 L 121.0469 190.1265 L 121.1418 190.0218 L 123.7818 187.3818 L 123.8633 187.3078 L 123.8427 187.2800 L 123.7700 187.1588 L 123.7096 187.0311 L 123.6623 186.8987 L 123.5418 186.7782 L 123.4469 186.6735 L 123.3627 186.5600 L 123.3317 186.5083 L 123.2800 186.4773 L 123.1665 186.3931 L 123.0618 186.2982 L 120.6618 183.8982 L 120.5669 183.7935 L 120.4827 183.6800 L 120.4100 183.5588 L 120.3496 183.4311 L 120.3023 183.2987 L 120.1818 183.1782 L 120.0869 183.0735 L 120.0027 182.9600 L 119.9300 182.8388 L 119.8696 182.7111 L 119.8223 182.5787 L 119.7018 182.4582 L 119.6069 182.3535 L 119.5227 182.2400 L 119.4500 182.1188 L 119.3896 181.9911 L 119.3423 181.8587 L 119.2218 181.7382 L 119.1269 181.6335 L 119.0427 181.5200 L 118.9700 181.3988 L 118.9096 181.2711 L 118.8623 181.1387 L 118.3813 180.6577 L 118.2489 180.6104 L 118.1212 180.5500 L 118.0000 180.4773 L 117.8865 180.3931 L 117.7818 180.2982 L 117.6613 180.1777 L 117.5289 180.1304 L 117.4012 180.0700 L 117.2800 179.9973 L 117.1665 179.9131 L 117.0618 179.8182 L 116.8218 179.5782 L 116.7269 179.4735 L 116.6427 179.3600 L 116.5700 179.2388 L 116.5096 179.1111 L 116.4620 178.9780 L 116.4552 178.9508 L 116.4027 178.8800 L 116.3300 178.7588 L 116.2696 178.6311 L 116.2220 178.4980 L 116.1877 178.3609 L 116.1669 178.2211 L 116.1600 178.0800 L 116.1600 177.9155 L 116.0900 177.7988 L 116.0296 177.6711 L 115.9820 177.5380 L 115.9752 177.5108 L 115.9227 177.4400 L 115.8500 177.3188 L 115.7896 177.1911 L 115.7423 177.0587 L 115.6218 176.9382 L 115.5269 176.8335 L 115.4427 176.7200 L 115.3700 176.5988 L 115.3096 176.4711 L 115.2620 176.3380 L 115.2277 176.2009 L 115.2069 176.0611 L 115.2000 175.9200 L 115.2000 174.9600 L 115.2069 174.8189 L 115.2277 174.6791 L 115.2475 174.6000 L 115.2277 174.5209 L 115.2069 174.3811 L 115.2000 174.2400 L 115.2000 173.8355 L 115.1300 173.7188 L 115.0696 173.5911 L 115.0220 173.4580 L 114.9877 173.3209 L 114.9669 173.1811 L 114.9600 173.0400 L 114.9600 172.8000 L 114.9669 172.6589 L 114.9877 172.5191 L 115.0220 172.3820 L 115.0696 172.2489 L 115.1300 172.1212 L 115.2027 172.0000 L 115.2552 171.9292 L 115.2620 171.9020 L 115.3096 171.7689 L 115.3700 171.6412 L 115.4427 171.5200 L 115.4952 171.4492 L 115.5020 171.4220 L 115.5496 171.2889 L 115.6100 171.1612 L 115.6827 171.0400 L 115.7352 170.9692 L 115.7420 170.9420 L 115.7896 170.8089 L 115.8500 170.6812 L 115.9200 170.5645 L 115.9200 169.9955 L 115.8500 169.8788 L 115.7896 169.7511 L 115.7420 169.6180 L 115.7077 169.4809 L 115.6869 169.3411 L 115.6800 169.2000 L 115.6800 167.5955 L 115.6100 167.4788 L 115.5496 167.3511 L 115.5020 167.2180 L 115.4677 167.0809 L 115.4469 166.9411 L 115.4400 166.8000 L 115.4400 165.6000 L 115.4469 165.4589 L 115.4677 165.3191 L 115.5020 165.1820 L 115.5496 165.0489 L 115.6100 164.9212 L 115.6800 164.8045 L 115.6800 163.9200 L 115.6869 163.7789 L 115.7077 163.6391 L 115.7420 163.5020 L 115.7896 163.3689 L 115.8500 163.2412 L 115.9200 163.1245 L 115.9200 156.9600 L 115.9269 156.8189 L 115.9477 156.6791 L 115.9820 156.5420 L 116.0296 156.4089 L 116.0900 156.2812 L 116.1600 156.1645 L 116.1600 155.5955 L 116.0900 155.4788 L 116.0296 155.3511 L 115.9820 155.2180 L 115.9477 155.0809 L 115.9269 154.9411 L 115.9200 154.8000 L 115.9200 154.1555 L 115.8500 154.0388 L 115.7896 153.9111 L 115.7420 153.7780 L 115.7077 153.6409 L 115.6869 153.5011 L 115.6800 153.3600 L 115.6800 152.7155 L 115.6100 152.5988 L 115.5496 152.4711 L 115.5020 152.3380 L 115.4677 152.2009 L 115.4469 152.0611 L 115.4400 151.9200 L 115.4400 149.5200 L 115.4469 149.3789 L 115.4677 149.2391 L 115.5020 149.1020 L 115.5496 148.9689 L 115.6100 148.8412 L 115.6827 148.7200 L 115.7352 148.6492 L 115.7420 148.6220 L 115.7896 148.4889 L 115.8500 148.3612 L 115.9200 148.2445 L 115.9200 148.0800 L 115.9269 147.9389 L 115.9477 147.7991 L 115.9820 147.6620 L 116.0296 147.5289 L 116.0900 147.4012 L 116.1627 147.2800 L 116.1640 147.2782 L 116.1669 147.2189 L 116.1877 147.0791 L 116.2220 146.9420 L 116.2696 146.8089 L 116.3300 146.6812 L 116.4027 146.5600 L 116.4552 146.4892 L 116.4620 146.4620 L 116.5096 146.3289 L 116.5700 146.2012 L 116.6427 146.0800 L 116.6952 146.0092 L 116.7020 145.9820 L 116.7496 145.8489 L 116.8100 145.7212 L 116.8827 145.6000 L 116.9352 145.5292 L 116.9420 145.5020 L 116.9896 145.3689 L 117.0500 145.2412 L 117.1227 145.1200 L 117.2069 145.0065 L 117.3018 144.9018 L 117.4223 144.7813 L 117.4696 144.6489 L 117.5300 144.5212 L 117.6027 144.4000 L 117.6869 144.2865 L 117.7818 144.1818 L 118.3823 143.5813 L 118.4296 143.4489 L 118.4900 143.3212 L 118.5627 143.2000 L 118.6469 143.0865 L 118.7418 142.9818 L 119.1023 142.6213 L 119.1496 142.4889 L 119.2100 142.3612 L 119.2827 142.2400 L 119.3669 142.1265 L 119.4618 142.0218 L 120.0623 141.4213 L 120.1096 141.2889 L 120.1700 141.1612 L 120.2427 141.0400 L 120.3269 140.9265 L 120.4218 140.8218 L 121.7423 139.5013 L 121.7896 139.3689 L 121.8500 139.2412 L 121.9227 139.1200 L 122.0069 139.0065 L 122.1018 138.9018 L 122.9423 138.0613 L 122.9896 137.9289 L 123.0500 137.8012 L 123.1227 137.6800 L 123.2069 137.5665 L 123.3018 137.4618 L 123.6623 137.1013 L 123.7096 136.9689 L 123.7700 136.8412 L 123.8427 136.7200 L 123.9269 136.6065 L 124.0218 136.5018 L 124.3823 136.1413 L 124.4296 136.0089 L 124.4900 135.8812 L 124.5627 135.7600 L 124.6469 135.6465 L 124.7418 135.5418 L 124.8623 135.4213 L 124.9096 135.2889 L 124.9700 135.1612 L 125.0427 135.0400 L 125.1269 134.9265 L 125.2218 134.8218 L 125.3423 134.7013 L 125.3896 134.5689 L 125.4500 134.4412 L 125.5227 134.3200 L 125.6069 134.2065 L 125.7018 134.1018 L 125.7660 134.0375 L 125.7669 134.0189 L 125.7877 133.8791 L 125.8220 133.7420 L 125.8696 133.6089 L 125.9300 133.4812 L 126.0027 133.3600 L 126.0552 133.2892 L 126.0620 133.2620 L 126.1096 133.1289 L 126.1700 133.0012 L 126.2427 132.8800 L 126.2952 132.8092 L 126.3020 132.7820 L 126.3496 132.6489 L 126.4100 132.5212 L 126.4827 132.4000 L 126.5669 132.2865 L 126.6618 132.1818 L 126.9018 131.9418 L 127.0065 131.8469 L 127.1200 131.7627 L 127.2412 131.6900 L 127.3287 131.6487 L 127.3700 131.5612 L 127.4427 131.4400 L 127.5269 131.3265 L 127.6218 131.2218 L 127.9823 130.8613 L 128.0296 130.7289 L 128.0900 130.6012 L 128.1627 130.4800 L 128.2469 130.3665 L 128.3418 130.2618 L 129.1823 129.4213 L 129.2296 129.2889 L 129.2900 129.1612 L 129.3627 129.0400 L 129.4469 128.9265 L 129.5418 128.8218 L 129.9023 128.4613 L 129.9496 128.3289 L 130.0100 128.2012 L 130.0827 128.0800 L 130.1669 127.9665 L 130.2618 127.8618 L 131.5823 126.5413 L 131.6296 126.4089 L 131.6900 126.2812 L 131.7627 126.1600 L 131.8469 126.0465 L 131.9418 125.9418 L 132.3023 125.5813 L 132.3496 125.4489 L 132.4100 125.3212 L 132.4827 125.2000 L 132.5669 125.0865 L 132.6618 124.9818 L 134.3418 123.3018 L 134.4465 123.2069 L 134.5600 123.1227 L 134.6812 123.0500 L 134.8089 122.9896 L 134.9420 122.9420 L 135.0791 122.9077 L 135.2189 122.8869 L 135.3600 122.8800 L 135.5011 122.8869 L 135.6409 122.9077 L 135.7780 122.9420 L 135.9111 122.9896 L 136.0388 123.0500 L 136.1600 123.1227 L 136.2735 123.2069 L 136.3782 123.3018 L 136.8582 123.7818 L 136.9531 123.8865 L 137.0373 124.0000 L 137.1100 124.1212 L 137.1704 124.2489 L 137.2180 124.3820 L 137.2248 124.4092 L 137.2773 124.4800 L 137.3500 124.6012 L 137.4104 124.7289 L 137.4580 124.8620 L 137.4923 124.9991 L 137.5131 125.1389 L 137.5160 125.1982 L 137.5173 125.2000 L 137.5900 125.3212 L 137.6504 125.4489 L 137.6980 125.5820 L 137.7323 125.7191 L 137.7531 125.8589 L 137.7560 125.9182 L 137.7573 125.9200 L 137.8300 126.0412 L 137.8904 126.1689 L 137.9380 126.3020 L 137.9723 126.4391 L 137.9931 126.5789 L 137.9960 126.6382 L 137.9973 126.6400 L 138.0700 126.7612 L 138.1304 126.8889 L 138.1780 127.0220 L 138.2123 127.1591 L 138.2331 127.2989 L 138.2360 127.3582 L 138.2373 127.3600 L 138.3100 127.4812 L 138.3704 127.6089 L 138.4180 127.7420 L 138.4523 127.8791 L 138.4731 128.0189 L 138.4760 128.0782 L 138.4773 128.0800 L 138.5500 128.2012 L 138.6104 128.3289 L 138.6580 128.4620 L 138.6923 128.5991 L 138.7131 128.7389 L 138.7160 128.7982 L 138.7173 128.8000 L 138.7900 128.9212 L 138.8504 129.0489 L 138.8980 129.1820 L 138.9048 129.2092 L 138.9573 129.2800 L 139.0300 129.4012 L 139.0904 129.5289 L 139.1380 129.6620 L 139.1723 129.7991 L 139.1931 129.9389 L 139.1960 129.9982 L 139.1973 130.0000 L 139.2700 130.1212 L 139.2739 130.1296 L 140.1600 129.2435 L 140.1600 128.4755 L 140.0900 128.3588 L 140.0296 128.2311 L 139.9820 128.0980 L 139.9477 127.9609 L 139.9269 127.8211 L 139.9200 127.6800 L 139.9200 127.5155 L 139.8500 127.3988 L 139.7896 127.2711 L 139.7420 127.1380 L 139.7077 127.0009 L 139.6869 126.8611 L 139.6800 126.7200 L 139.6800 126.3155 L 139.6100 126.1988 L 139.5496 126.0711 L 139.5020 125.9380 L 139.4677 125.8009 L 139.4469 125.6611 L 139.4400 125.5200 L 139.4400 125.3555 L 139.3700 125.2388 L 139.3096 125.1111 L 139.2620 124.9780 L 139.2277 124.8409 L 139.2069 124.7011 L 139.2000 124.5600 L 139.2000 124.3955 L 139.1300 124.2788 L 139.0696 124.1511 L 139.0220 124.0180 L 138.9877 123.8809 L 138.9669 123.7411 L 138.9600 123.6000 L 138.9600 123.4355 L 138.8900 123.3188 L 138.8296 123.1911 L 138.7820 123.0580 L 138.7477 122.9209 L 138.7269 122.7811 L 138.7240 122.7218 L 138.7227 122.7200 L 138.6500 122.5988 L 138.5896 122.4711 L 138.5420 122.3380 L 138.5077 122.2009 L 138.4869 122.0611 L 138.4800 121.9200 L 138.4800 121.4400 L 138.4869 121.2989 L 138.5077 121.1591 L 138.5420 121.0220 L 138.5896 120.8889 L 138.6500 120.7612 L 138.7227 120.6400 L 138.8069 120.5265 L 138.9018 120.4218 L 139.3818 119.9418 L 139.4865 119.8469 L 139.6000 119.7627 L 139.7212 119.6900 L 139.8489 119.6296 L 139.9820 119.5820 L 140.0092 119.5752 L 140.0800 119.5227 L 140.2012 119.4500 L 140.3289 119.3896 L 140.4620 119.3420 L 140.4892 119.3352 L 140.5600 119.2827 L 140.6812 119.2100 L 140.8089 119.1496 L 140.9420 119.1020 L 140.9692 119.0952 L 141.0400 119.0427 L 141.1612 118.9700 L 141.2889 118.9096 L 141.4220 118.8620 L 141.4492 118.8552 L 141.5200 118.8027 L 141.6412 118.7300 L 141.7689 118.6696 L 141.9020 118.6220 L 141.9292 118.6152 L 142.0000 118.5627 L 142.1212 118.4900 L 142.2489 118.4296 L 142.3820 118.3820 L 142.5191 118.3477 L 142.6589 118.3269 L 142.6775 118.3260 L 142.8623 118.1413 L 142.9096 118.0089 L 142.9700 117.8812 L 143.0427 117.7600 L 143.0952 117.6892 L 143.1020 117.6620 L 143.1496 117.5289 L 143.2100 117.4012 L 143.2827 117.2800 L 143.3669 117.1665 L 143.4618 117.0618 L 143.7018 116.8218 L 143.8065 116.7269 L 143.9200 116.6427 L 144.0412 116.5700 L 144.1689 116.5096 L 144.3013 116.4623 L 144.4218 116.3418 L 144.5265 116.2469 L 144.6400 116.1627 L 144.7612 116.0900 L 144.8889 116.0296 L 145.0220 115.9820 L 145.1591 115.9477 L 145.2989 115.9269 L 145.4400 115.9200 L 148.2445 115.9200 L 148.3612 115.8500 L 148.4889 115.7896 L 148.6220 115.7420 L 148.7591 115.7077 L 148.8989 115.6869 L 149.0400 115.6800 L 154.5600 115.6800 L 154.7011 115.6869 L 154.8409 115.7077 L 154.9780 115.7420 L 155.1111 115.7896 L 155.2388 115.8500 L 155.3555 115.9200 L 162.8845 115.9200 L 163.0012 115.8500 L 163.1289 115.7896 L 163.2620 115.7420 L 163.3991 115.7077 L 163.5389 115.6869 L 163.6800 115.6800 L 166.2445 115.6800 L 166.3612 115.6100 L 166.4889 115.5496 L 166.6220 115.5020 L 166.7591 115.4677 L 166.8989 115.4469 L 167.0400 115.4400 L 167.9245 115.4400 L 168.0412 115.3700 L 168.1689 115.3096 L 168.3020 115.2620 L 168.4391 115.2277 L 168.5789 115.2069 L 168.7200 115.2000 L 168.8845 115.2000 L 169.0012 115.1300 L 169.1289 115.0696 L 169.2620 115.0220 L 169.3991 114.9877 L 169.5389 114.9669 L 169.5982 114.9640 L 169.6000 114.9627 L 169.7212 114.8900 L 169.8489 114.8296 L 169.9820 114.7820 L 170.1191 114.7477 L 170.2589 114.7269 L 170.3182 114.7240 L 170.3200 114.7227 L 170.4412 114.6500 L 170.5689 114.5896 L 170.7020 114.5420 L 170.7292 114.5352 L 170.8000 114.4827 L 170.9212 114.4100 L 171.0489 114.3496 L 171.1813 114.3023 L 171.3018 114.1818 L 171.4065 114.0869 L 171.5200 114.0027 L 171.6412 113.9300 L 171.7689 113.8696 L 171.9013 113.8223 L 172.0218 113.7018 L 172.1265 113.6069 L 172.2400 113.5227 L 172.3612 113.4500 L 172.4889 113.3896 L 172.6213 113.3423 L 172.7418 113.2218 L 172.8465 113.1269 L 172.9600 113.0427 L 173.0812 112.9700 L 173.2089 112.9096 L 173.3413 112.8623 L 173.4618 112.7418 L 173.5665 112.6469 L 173.6800 112.5627 L 173.8012 112.4900 L 173.9289 112.4296 L 174.0613 112.3823 L 175.1418 111.3018 L 175.2465 111.2069 L 175.3600 111.1227 L 175.4812 111.0500 L 175.5687 111.0087 L 175.6100 110.9212 L 175.6827 110.8000 L 175.7669 110.6865 L 175.8618 110.5818 L 175.9260 110.5175 L 175.9269 110.4989 L 175.9477 110.3591 L 175.9820 110.2220 L 176.0296 110.0889 L 176.0900 109.9612 L 176.1600 109.8445 L 176.1600 109.4400 L 176.1669 109.2989 L 176.1877 109.1591 L 176.2220 109.0220 L 176.2442 108.9600 L 176.2220 108.8980 L 176.1877 108.7609 L 176.1669 108.6211 L 176.1600 108.4800 L 176.1600 108.0755 L 176.0900 107.9588 L 176.0296 107.8311 L 175.9820 107.6980 L 175.9752 107.6708 L 175.9227 107.6000 L 175.8500 107.4788 L 175.7896 107.3511 L 175.7420 107.2180 L 175.7077 107.0809 L 175.6869 106.9411 L 175.6840 106.8818 L 175.6827 106.8800 L 175.6100 106.7588 L 175.5496 106.6311 L 175.5020 106.4980 L 175.4952 106.4708 L 175.4427 106.4000 L 175.3700 106.2788 L 175.3096 106.1511 L 175.2620 106.0180 L 175.2277 105.8809 L 175.2069 105.7411 L 175.2040 105.6818 L 175.2027 105.6800 L 175.1300 105.5588 L 175.0696 105.4311 L 175.0220 105.2980 L 174.9877 105.1609 L 174.9669 105.0211 L 174.9640 104.9618 L 174.9627 104.9600 L 174.8900 104.8388 L 174.8296 104.7111 L 174.7820 104.5780 L 174.7477 104.4409 L 174.7269 104.3011 L 174.7200 104.1600 L 174.7200 103.9955 L 174.6500 103.8788 L 174.5896 103.7511 L 174.5420 103.6180 L 174.5352 103.5908 L 174.4827 103.5200 L 174.4100 103.3988 L 174.3496 103.2711 L 174.3023 103.1387 L 174.1818 103.0182 L 174.0869 102.9135 L 174.0027 102.8000 L 173.9300 102.6788 L 173.8696 102.5511 L 173.8223 102.4187 L 173.7018 102.2982 L 173.6069 102.1935 L 173.5227 102.0800 L 173.4500 101.9588 L 173.3896 101.8311 L 173.3423 101.6987 L 173.2218 101.5782 L 173.1269 101.4735 L 173.0427 101.3600 L 172.9700 101.2388 L 172.9096 101.1111 L 172.8623 100.9787 L 172.7418 100.8582 L 172.6469 100.7535 L 172.5627 100.6400 L 172.4900 100.5188 L 172.4296 100.3911 L 172.3823 100.2587 L 171.7818 99.6582 L 171.6869 99.5535 L 171.6027 99.4400 L 171.5300 99.3188 L 171.4696 99.1911 L 171.4223 99.0587 L 171.0618 98.6982 L 170.9669 98.5935 L 170.8827 98.4800 L 170.8100 98.3588 L 170.7496 98.2311 L 170.7023 98.0987 L 170.1018 97.4982 L 170.0069 97.3935 L 169.9227 97.2800 L 169.8500 97.1588 L 169.7896 97.0311 L 169.7423 96.8987 L 169.3818 96.5382 L 169.2869 96.4335 L 169.2027 96.3200 L 169.1300 96.1988 L 169.0696 96.0711 L 169.0223 95.9387 L 168.1818 95.0982 L 168.0869 94.9935 L 168.0027 94.8800 L 167.9300 94.7588 L 167.8696 94.6311 L 167.8220 94.4980 L 167.8152 94.4708 L 167.7627 94.4000 L 167.6900 94.2788 L 167.6296 94.1511 L 167.5823 94.0187 L 167.4618 93.8982 L 167.3669 93.7935 L 167.2827 93.6800 L 167.2100 93.5588 L 167.1496 93.4311 L 167.1020 93.2980 L 167.0952 93.2708 L 167.0427 93.2000 L 166.9700 93.0788 L 166.9096 92.9511 L 166.8620 92.8180 L 166.8277 92.6809 L 166.8069 92.5411 L 166.8040 92.4818 L 166.8027 92.4800 L 166.7300 92.3588 L 166.6696 92.2311 L 166.6220 92.0980 L 166.6152 92.0708 L 166.5627 92.0000 L 166.4900 91.8788 L 166.4296 91.7511 L 166.3823 91.6187 L 166.2618 91.4982 L 166.1669 91.3935 L 166.0827 91.2800 L 166.0100 91.1588 L 165.9496 91.0311 L 165.9020 90.8980 L 165.8952 90.8708 L 165.8427 90.8000 L 165.7700 90.6788 L 165.7096 90.5511 L 165.6623 90.4187 L 165.5418 90.2982 L 165.4469 90.1935 L 165.3627 90.0800 L 165.2900 89.9588 L 165.2296 89.8311 L 165.1823 89.6987 L 165.0618 89.5782 L 164.9669 89.4735 L 164.8827 89.3600 L 164.8100 89.2388 L 164.7496 89.1111 L 164.7023 88.9787 L 164.5818 88.8582 L 164.4869 88.7535 L 164.4027 88.6400 L 164.3300 88.5188 L 164.2696 88.3911 L 164.2223 88.2587 L 164.1018 88.1382 L 164.0069 88.0335 L 163.9227 87.9200 L 163.8500 87.7988 L 163.7896 87.6711 L 163.7423 87.5387 L 163.6218 87.4182 L 163.5269 87.3135 L 163.4427 87.2000 L 163.3700 87.0788 L 163.3096 86.9511 L 163.2623 86.8187 L 162.6618 86.2182 L 162.5669 86.1135 L 162.4827 86.0000 L 162.4100 85.8788 L 162.3496 85.7511 L 162.3023 85.6187 L 161.2218 84.5382 L 161.1269 84.4335 L 161.0427 84.3200 L 160.9700 84.1988 L 160.9096 84.0711 L 160.8623 83.9387 L 159.6613 82.7377 L 159.5289 82.6904 L 159.4012 82.6300 L 159.2800 82.5573 L 159.1665 82.4731 L 159.0618 82.3782 L 157.9813 81.2977 L 157.8489 81.2504 L 157.7212 81.1900 L 157.6000 81.1173 L 157.4865 81.0331 L 157.3818 80.9382 L 157.0213 80.5777 L 156.8889 80.5304 L 156.7612 80.4700 L 156.6400 80.3973 L 156.5265 80.3131 L 156.4218 80.2182 L 156.3013 80.0977 L 156.1689 80.0504 L 156.0412 79.9900 L 155.9200 79.9173 L 155.8065 79.8331 L 155.7018 79.7382 L 155.5813 79.6177 L 155.4489 79.5704 L 155.3212 79.5100 L 155.2000 79.4373 L 155.1292 79.3848 L 155.1020 79.3780 L 154.9689 79.3304 L 154.8412 79.2700 L 154.7200 79.1973 L 154.6492 79.1448 L 154.6220 79.1380 L 154.4889 79.0904 L 154.3612 79.0300 L 154.2400 78.9573 L 154.1265 78.8731 L 154.0218 78.7782 L 153.9013 78.6577 L 153.7689 78.6104 L 153.6412 78.5500 L 153.5200 78.4773 L 153.4492 78.4248 L 153.4220 78.4180 L 153.2889 78.3704 L 153.1612 78.3100 L 153.0400 78.2373 L 152.9692 78.1848 L 152.9420 78.1780 L 152.8089 78.1304 L 152.6812 78.0700 L 152.5600 77.9973 L 152.4892 77.9448 L 152.4620 77.9380 L 152.3289 77.8904 L 152.2012 77.8300 L 152.0800 77.7573 L 152.0092 77.7048 L 151.9820 77.6980 L 151.8489 77.6504 L 151.7212 77.5900 L 151.6000 77.5173 L 151.5982 77.5160 L 151.5389 77.5131 L 151.3991 77.4923 L 151.2620 77.4580 L 151.1289 77.4104 L 151.0012 77.3500 L 150.8800 77.2773 L 150.8092 77.2248 L 150.7820 77.2180 L 150.6489 77.1704 L 150.5212 77.1100 L 150.4000 77.0373 L 150.3982 77.0360 L 150.3389 77.0331 L 150.1991 77.0123 L 150.0620 76.9780 L 149.9289 76.9304 L 149.8012 76.8700 L 149.6800 76.7973 L 149.6782 76.7960 L 149.6189 76.7931 L 149.4791 76.7723 L 149.3420 76.7380 L 149.2089 76.6904 L 149.0812 76.6300 L 148.9600 76.5573 L 148.8465 76.4731 L 148.7418 76.3782 L 148.5018 76.1382 L 148.4069 76.0335 L 148.3227 75.9200 L 148.2500 75.7988 L 148.1896 75.6711 L 148.1420 75.5380 L 148.1077 75.4009 L 148.0869 75.2611 L 148.0800 75.1200 L 148.0800 74.8800 L 148.0869 74.7389 L 148.1077 74.5991 L 148.1420 74.4620 L 148.1896 74.3289 L 148.2500 74.2012 L 148.3227 74.0800 L 148.4069 73.9665 L 148.5018 73.8618 L 148.9818 73.3818 L 149.0865 73.2869 L 149.2000 73.2027 L 149.3212 73.1300 L 149.4489 73.0696 L 149.5820 73.0220 L 149.6092 73.0152 L 149.6800 72.9627 L 149.8012 72.8900 L 149.9289 72.8296 L 150.0620 72.7820 L 150.0892 72.7752 L 150.1600 72.7227 L 150.2812 72.6500 L 150.4089 72.5896 L 150.5420 72.5420 L 150.5692 72.5352 L 150.6400 72.4827 L 150.7606 72.4104 L 150.6489 72.3704 L 150.5212 72.3100 L 150.4000 72.2373 L 150.3982 72.2360 L 150.3389 72.2331 L 150.1991 72.2123 L 150.0620 72.1780 L 149.9289 72.1304 L 149.8012 72.0700 L 149.6845 72.0000 L 149.1155 72.0000 L 148.9988 72.0700 L 148.8711 72.1304 L 148.7380 72.1780 L 148.6009 72.2123 L 148.4611 72.2331 L 148.3200 72.2400 L 144.2400 72.2400 L 144.0989 72.2331 L 143.9591 72.2123 L 143.8220 72.1780 L 143.6889 72.1304 L 143.5612 72.0700 L 143.4400 71.9973 L 143.4382 71.9960 L 143.3789 71.9931 L 143.2391 71.9723 L 143.1020 71.9380 L 142.9689 71.8904 L 142.8412 71.8300 L 142.7200 71.7573 L 142.6065 71.6731 L 142.5018 71.5782 L 142.2618 71.3382 L 142.1669 71.2335 L 142.0827 71.1200 L 142.0100 70.9988 L 141.9496 70.8711 L 141.9020 70.7380 L 141.8677 70.6009 L 141.8469 70.4611 L 141.8400 70.3200 L 141.8400 69.1200 L 141.8469 68.9789 L 141.8677 68.8391 L 141.9020 68.7020 L 141.9496 68.5689 L 142.0100 68.4412 L 142.0800 68.3245 L 142.0800 67.6800 L 142.0869 67.5389 L 142.1077 67.3991 L 142.1420 67.2620 L 142.1896 67.1289 L 142.2500 67.0012 L 142.3227 66.8800 L 142.3752 66.8092 L 142.3820 66.7820 L 142.4296 66.6489 L 142.4528 66.6000 L 142.4296 66.5511 L 142.3820 66.4180 L 142.3752 66.3908 L 142.3227 66.3200 L 142.2500 66.1988 L 142.2087 66.1113 L 142.1212 66.0700 L 142.0045 66.0000 L 141.9155 66.0000 L 141.7988 66.0700 L 141.6711 66.1304 L 141.5380 66.1780 L 141.5108 66.1848 L 141.4400 66.2373 L 141.3188 66.3100 L 141.2313 66.3513 L 141.1900 66.4388 L 141.1173 66.5600 L 141.0648 66.6308 L 141.0580 66.6580 L 141.0104 66.7911 L 140.9500 66.9188 L 140.8773 67.0400 L 140.8248 67.1108 L 140.8180 67.1380 L 140.7704 67.2711 L 140.7100 67.3988 L 140.6373 67.5200 L 140.5848 67.5908 L 140.5780 67.6180 L 140.5304 67.7511 L 140.4700 67.8788 L 140.3973 68.0000 L 140.3131 68.1135 L 140.2182 68.2182 L 140.0977 68.3387 L 140.0504 68.4711 L 139.9900 68.5988 L 139.9173 68.7200 L 139.8648 68.7908 L 139.8580 68.8180 L 139.8104 68.9511 L 139.7500 69.0788 L 139.6800 69.1955 L 139.6800 69.3600 L 139.6731 69.5011 L 139.6523 69.6409 L 139.6180 69.7780 L 139.5704 69.9111 L 139.5100 70.0388 L 139.4373 70.1600 L 139.3531 70.2735 L 139.2582 70.3782 L 138.2982 71.3382 L 138.1935 71.4331 L 138.0800 71.5173 L 137.9588 71.5900 L 137.8311 71.6504 L 137.6980 71.6980 L 137.5609 71.7323 L 137.4211 71.7531 L 137.2800 71.7600 L 136.8000 71.7600 L 136.6589 71.7531 L 136.5191 71.7323 L 136.3820 71.6980 L 136.2489 71.6504 L 136.1212 71.5900 L 136.0000 71.5173 L 135.8865 71.4331 L 135.7818 71.3382 L 135.0618 70.6182 L 134.9669 70.5135 L 134.8827 70.4000 L 134.8100 70.2788 L 134.7496 70.1511 L 134.7020 70.0180 L 134.6677 69.8809 L 134.6469 69.7411 L 134.6400 69.6000 L 134.6400 68.9555 L 134.5700 68.8388 L 134.5096 68.7111 L 134.4620 68.5780 L 134.4277 68.4409 L 134.4069 68.3011 L 134.4000 68.1600 L 134.4000 67.7555 L 134.3300 67.6388 L 134.2696 67.5111 L 134.2220 67.3780 L 134.1877 67.2409 L 134.1669 67.1011 L 134.1600 66.9600 L 134.1600 66.0755 L 134.0900 65.9588 L 134.0296 65.8311 L 133.9820 65.6980 L 133.9477 65.5609 L 133.9269 65.4211 L 133.9200 65.2800 L 133.9200 65.1155 L 133.8500 64.9988 L 133.7896 64.8711 L 133.7420 64.7380 L 133.7077 64.6009 L 133.6869 64.4611 L 133.6840 64.4018 L 133.6827 64.4000 L 133.6100 64.2788 L 133.5655 64.1846 L 133.5111 64.2104 L 133.3780 64.2580 L 133.2409 64.2923 L 133.1011 64.3131 L 133.0825 64.3140 L 133.0182 64.3782 L 132.9135 64.4731 L 132.8903 64.4903 L 132.8731 64.5135 L 132.7782 64.6182 L 132.7200 64.6765 L 132.7200 64.8000 L 132.7131 64.9411 L 132.6923 65.0809 L 132.6580 65.2180 L 132.6104 65.3511 L 132.5500 65.4788 L 132.4800 65.5955 L 132.4800 68.8045 L 132.5500 68.9212 L 132.6104 69.0489 L 132.6580 69.1820 L 132.6923 69.3191 L 132.7131 69.4589 L 132.7200 69.6000 L 132.7200 69.7645 L 132.7900 69.8812 L 132.8504 70.0089 L 132.8980 70.1420 L 132.9323 70.2791 L 132.9531 70.4189 L 132.9600 70.5600 L 132.9600 72.0000 L 132.9531 72.1411 L 132.9323 72.2809 L 132.8980 72.4180 L 132.8504 72.5511 L 132.7900 72.6788 L 132.7173 72.8000 L 132.6331 72.9135 L 132.5382 73.0182 L 132.0582 73.4982 L 131.9535 73.5931 L 131.8400 73.6773 L 131.7188 73.7500 L 131.5911 73.8104 L 131.4580 73.8580 L 131.3209 73.8923 L 131.1811 73.9131 L 131.0400 73.9200 L 130.8000 73.9200 L 130.6589 73.9131 L 130.5191 73.8923 L 130.3820 73.8580 L 130.2489 73.8104 L 130.1212 73.7500 L 130.0000 73.6773 L 129.8865 73.5931 L 129.7818 73.4982 L 129.0618 72.7782 L 128.9669 72.6735 L 128.8827 72.5600 L 128.8100 72.4388 L 128.7496 72.3111 L 128.7023 72.1787 L 128.5818 72.0582 L 128.4869 71.9535 L 128.4027 71.8400 L 128.3300 71.7188 L 128.2696 71.5911 L 128.2223 71.4587 L 128.1600 71.3965 L 128.1600 71.5200 L 128.1531 71.6611 L 128.1323 71.8009 L 128.0980 71.9380 L 128.0504 72.0711 L 127.9900 72.1988 L 127.9173 72.3200 L 127.8331 72.4335 L 127.7382 72.5382 L 127.4982 72.7782 L 127.3935 72.8731 L 127.2800 72.9573 L 127.1588 73.0300 L 127.0311 73.0904 L 126.8980 73.1380 L 126.7609 73.1723 L 126.6211 73.1931 L 126.4800 73.2000 L 126.3973 73.1959 L 126.3958 73.2000 L 126.4177 73.2613 L 126.7782 73.6218 L 126.8731 73.7265 L 126.9573 73.8400 L 127.0300 73.9612 L 127.0904 74.0889 L 127.1377 74.2213 L 127.2582 74.3418 L 127.3531 74.4465 L 127.4373 74.5600 L 127.5100 74.6812 L 127.5704 74.8089 L 127.6180 74.9420 L 127.6523 75.0791 L 127.6731 75.2189 L 127.6800 75.3600 L 127.6800 76.0800 L 127.6731 76.2211 L 127.6523 76.3609 L 127.6180 76.4980 L 127.5704 76.6311 L 127.5100 76.7588 L 127.4373 76.8800 L 127.3531 76.9935 L 127.2582 77.0982 L 126.6577 77.6987 L 126.6104 77.8311 L 126.5500 77.9588 L 126.4773 78.0800 L 126.3931 78.1935 L 126.2982 78.2982 L 125.9377 78.6587 L 125.8904 78.7911 L 125.8300 78.9188 L 125.7573 79.0400 L 125.6731 79.1535 L 125.5782 79.2582 L 125.4577 79.3787 L 125.4104 79.5111 L 125.3500 79.6388 L 125.2800 79.7555 L 125.2800 82.5600 L 125.2731 82.7011 L 125.2523 82.8409 L 125.2180 82.9780 L 125.1704 83.1111 L 125.1100 83.2388 L 125.0373 83.3600 L 124.9531 83.4735 L 124.8582 83.5782 L 124.6182 83.8182 L 124.5135 83.9131 L 124.4000 83.9973 L 124.2788 84.0700 L 124.1511 84.1304 L 124.0180 84.1780 L 123.8809 84.2123 L 123.7411 84.2331 L 123.6000 84.2400 L 123.3600 84.2400 L 123.2189 84.2331 L 123.0791 84.2123 L 122.9420 84.1780 L 122.8089 84.1304 L 122.6812 84.0700 L 122.5600 83.9973 L 122.4465 83.9131 L 122.3418 83.8182 L 121.5013 82.9777 L 121.3689 82.9304 L 121.2412 82.8700 L 121.1200 82.7973 L 121.0065 82.7131 L 120.9018 82.6182 L 119.7018 81.4182 L 119.6069 81.3135 L 119.5227 81.2000 L 119.4500 81.0788 L 119.3896 80.9511 L 119.3420 80.8180 L 119.3352 80.7908 L 119.2827 80.7200 L 119.2100 80.5988 L 119.1496 80.4711 L 119.1020 80.3380 L 119.0952 80.3108 L 119.0427 80.2400 L 118.9700 80.1188 L 118.9096 79.9911 L 118.8620 79.8580 L 118.8552 79.8308 L 118.8027 79.7600 L 118.7300 79.6388 L 118.6696 79.5111 L 118.6223 79.3787 L 118.2618 79.0182 L 118.1669 78.9135 L 118.0827 78.8000 L 118.0100 78.6788 L 117.9496 78.5511 L 117.9023 78.4187 L 117.9013 78.4177 L 117.7689 78.3704 L 117.6412 78.3100 L 117.5200 78.2373 L 117.4492 78.1848 L 117.4220 78.1780 L 117.2889 78.1304 L 117.1612 78.0700 L 117.0400 77.9973 L 117.0382 77.9960 L 116.9789 77.9931 L 116.8391 77.9723 L 116.7020 77.9380 L 116.5689 77.8904 L 116.4412 77.8300 L 116.3245 77.7600 L 116.1600 77.7600 L 116.0189 77.7531 L 115.8791 77.7323 L 115.7420 77.6980 L 115.6089 77.6504 L 115.4812 77.5900 L 115.3645 77.5200 L 113.7600 77.5200 L 113.6189 77.5131 L 113.4791 77.4923 L 113.3420 77.4580 L 113.2089 77.4104 L 113.0812 77.3500 L 112.9645 77.2800 L 110.1600 77.2800 L 110.0189 77.2731 L 109.8791 77.2523 L 109.7420 77.2180 L 109.6089 77.1704 L 109.4812 77.1100 L 109.3645 77.0400 L 107.7600 77.0400 L 107.6189 77.0331 L 107.4791 77.0123 L 107.3420 76.9780 L 107.2089 76.9304 L 107.1600 76.9072 L 107.1111 76.9304 L 106.9780 76.9780 L 106.8409 77.0123 L 106.7011 77.0331 L 106.5600 77.0400 L 105.6755 77.0400 L 105.5588 77.1100 L 105.4311 77.1704 L 105.2980 77.2180 L 105.1609 77.2523 L 105.0211 77.2731 L 104.8800 77.2800 L 104.7155 77.2800 L 104.5988 77.3500 L 104.4711 77.4104 L 104.3380 77.4580 L 104.2009 77.4923 L 104.0611 77.5131 L 103.9200 77.5200 L 103.7555 77.5200 L 103.6388 77.5900 L 103.5111 77.6504 L 103.3780 77.6980 L 103.2409 77.7323 L 103.1011 77.7531 L 102.9600 77.7600 L 102.7955 77.7600 L 102.6788 77.8300 L 102.5511 77.8904 L 102.4180 77.9380 L 102.2809 77.9723 L 102.1411 77.9931 L 102.0000 78.0000 L 101.8355 78.0000 L 101.7188 78.0700 L 101.5911 78.1304 L 101.4580 78.1780 L 101.3209 78.2123 L 101.1811 78.2331 L 101.0400 78.2400 L 100.8755 78.2400 L 100.7588 78.3100 L 100.6311 78.3704 L 100.4980 78.4180 L 100.3609 78.4523 L 100.2211 78.4731 L 100.0800 78.4800 L 99.1200 78.4800 L 98.9789 78.4731 L 98.8391 78.4523 L 98.7020 78.4180 L 98.5689 78.3704 L 98.4412 78.3100 L 98.3200 78.2373 L 98.2065 78.1531 L 98.1018 78.0582 L 97.8618 77.8182 L 97.7669 77.7135 L 97.6827 77.6000 L 97.6100 77.4788 L 97.5496 77.3511 L 97.5020 77.2180 L 97.4677 77.0809 L 97.4469 76.9411 L 97.4400 76.8000 L 97.4400 75.3600 L 97.4469 75.2189 L 97.4677 75.0791 L 97.5020 74.9420 L 97.5496 74.8089 L 97.6100 74.6812 L 97.6800 74.5645 L 97.6800 73.4400 L 97.6869 73.2989 L 97.7077 73.1591 L 97.7420 73.0220 L 97.7896 72.8889 L 97.8500 72.7612 L 97.9200 72.6445 L 97.9200 71.7600 L 97.9269 71.6189 L 97.9477 71.4791 L 97.9820 71.3420 L 98.0296 71.2089 L 98.0900 71.0812 L 98.1627 70.9600 L 98.2152 70.8892 L 98.2220 70.8620 L 98.2696 70.7289 L 98.3300 70.6012 L 98.4027 70.4800 L 98.4869 70.3665 L 98.5818 70.2618 L 99.0618 69.7818 L 99.1665 69.6869 L 99.2800 69.6027 L 99.3317 69.5717 L 99.3600 69.5245 L 99.3600 69.1200 L 99.3669 68.9789 L 99.3877 68.8391 L 99.4220 68.7020 L 99.4696 68.5689 L 99.5300 68.4412 L 99.6000 68.3245 L 99.6000 67.5155 L 99.5300 67.3988 L 99.4696 67.2711 L 99.4220 67.1380 L 99.3938 67.0256 L 99.2800 66.9573 L 99.1665 66.8731 L 99.0618 66.7782 L 98.3418 66.0582 L 98.2469 65.9535 L 98.1627 65.8400 L 98.0900 65.7188 L 98.0296 65.5911 L 97.9820 65.4580 L 97.9477 65.3209 L 97.9269 65.1811 L 97.9200 65.0400 L 97.9200 64.3200 L 97.9269 64.1789 L 97.9477 64.0391 L 97.9820 63.9020 L 98.0296 63.7689 L 98.0900 63.6412 L 98.1600 63.5245 L 98.1600 62.4000 L 98.1669 62.2589 L 98.1877 62.1191 L 98.2220 61.9820 L 98.2696 61.8489 L 98.3300 61.7212 L 98.4000 61.6045 L 98.4000 61.2000 L 98.4069 61.0589 L 98.4277 60.9191 L 98.4620 60.7820 L 98.5096 60.6489 L 98.5700 60.5212 L 98.6400 60.4045 L 98.6400 59.5200 L 98.6469 59.3789 L 98.6677 59.2391 L 98.7020 59.1020 L 98.7496 58.9689 L 98.8100 58.8412 L 98.8800 58.7245 L 98.8800 58.0800 L 98.8869 57.9389 L 98.9077 57.7991 L 98.9420 57.6620 L 98.9896 57.5289 L 99.0500 57.4012 L 99.1200 57.2845 L 99.1200 56.4000 L 99.1269 56.2589 L 99.1477 56.1191 L 99.1820 55.9820 L 99.2296 55.8489 L 99.2900 55.7212 L 99.3627 55.6000 L 99.4152 55.5292 L 99.4220 55.5020 L 99.4696 55.3689 L 99.5300 55.2412 L 99.6027 55.1200 L 99.6869 55.0065 L 99.7818 54.9018 L 100.1001 54.5835 L 100.0827 54.5600 L 100.0100 54.4388 L 99.9496 54.3111 L 99.9020 54.1780 L 99.8677 54.0409 L 99.8469 53.9011 L 99.8400 53.7600 L 99.8400 52.4365 L 99.3018 51.8982 L 99.2069 51.7935 L 99.1227 51.6800 L 99.0500 51.5588 L 98.9896 51.4311 L 98.9420 51.2980 L 98.9352 51.2708 L 98.8827 51.2000 L 98.8100 51.0788 L 98.7496 50.9511 L 98.7023 50.8187 L 98.5818 50.6982 L 98.4869 50.5935 L 98.4027 50.4800 L 98.3300 50.3588 L 98.2696 50.2311 L 98.2223 50.0987 L 98.1018 49.9782 L 98.0069 49.8735 L 97.9227 49.7600 L 97.8500 49.6388 L 97.7896 49.5111 L 97.7420 49.3780 L 97.7352 49.3508 L 97.6827 49.2800 L 97.6100 49.1588 L 97.5496 49.0311 L 97.5020 48.8980 L 97.4979 48.8816 L 97.4865 48.8731 L 97.3818 48.7782 L 96.6618 48.0582 L 96.5669 47.9535 L 96.4827 47.8400 L 96.4100 47.7188 L 96.3496 47.5911 L 96.3020 47.4580 L 96.2677 47.3209 L 96.2469 47.1811 L 96.2440 47.1218 L 96.2427 47.1200 L 96.1700 46.9988 L 96.1096 46.8711 L 96.0620 46.7380 L 96.0277 46.6009 L 96.0069 46.4611 L 96.0040 46.4018 L 96.0027 46.4000 L 95.9300 46.2788 L 95.8696 46.1511 L 95.8220 46.0180 L 95.7877 45.8809 L 95.7669 45.7411 L 95.7640 45.6818 L 95.7627 45.6800 L 95.6900 45.5588 L 95.6296 45.4311 L 95.5820 45.2980 L 95.5752 45.2708 L 95.5227 45.2000 L 95.4500 45.0788 L 95.3896 44.9511 L 95.3420 44.8180 L 95.3352 44.7908 L 95.2827 44.7200 L 95.2100 44.5988 L 95.1496 44.4711 L 95.1023 44.3387 L 94.9818 44.2182 L 94.8869 44.1135 L 94.8027 44.0000 L 94.7300 43.8788 L 94.6696 43.7511 L 94.6220 43.6180 L 94.6152 43.5908 L 94.5627 43.5200 L 94.4900 43.3988 L 94.4296 43.2711 L 94.3820 43.1380 L 94.3752 43.1108 L 94.3227 43.0400 L 94.2500 42.9188 L 94.1896 42.7911 L 94.1420 42.6580 L 94.1077 42.5209 L 94.0869 42.3811 L 94.0840 42.3218 L 94.0827 42.3200 L 94.0100 42.1988 L 93.9496 42.0711 L 93.9020 41.9380 L 93.8952 41.9108 L 93.8427 41.8400 L 93.7700 41.7188 L 93.7096 41.5911 L 93.6620 41.4580 L 93.6552 41.4308 L 93.6027 41.3600 L 93.5300 41.2388 L 93.4696 41.1111 L 93.4220 40.9780 L 93.3877 40.8409 L 93.3669 40.7011 L 93.3640 40.6418 L 93.3627 40.6400 L 93.2900 40.5188 L 93.2296 40.3911 L 93.1820 40.2580 L 93.1752 40.2308 L 93.1227 40.1600 L 93.0500 40.0388 L 92.9896 39.9111 L 92.9423 39.7787 L 92.8218 39.6582 L 92.7269 39.5535 L 92.6427 39.4400 L 92.5700 39.3188 L 92.5096 39.1911 L 92.4620 39.0580 L 92.4552 39.0308 L 92.4027 38.9600 L 92.3300 38.8388 L 92.2696 38.7111 L 92.2220 38.5780 L 92.2152 38.5508 L 92.1627 38.4800 L 92.0900 38.3588 L 92.0296 38.2311 L 91.9823 38.0987 L 91.6218 37.7382 L 91.5269 37.6335 L 91.4427 37.5200 L 91.3700 37.3988 L 91.3096 37.2711 L 91.2623 37.1387 L 90.9018 36.7782 L 90.8069 36.6735 L 90.7227 36.5600 L 90.6500 36.4388 L 90.5896 36.3111 L 90.5423 36.1787 L 88.6213 34.2577 L 88.4889 34.2104 L 88.3612 34.1500 L 88.2400 34.0773 L 88.1265 33.9931 L 88.0218 33.8982 L 86.9413 32.8177 L 86.8089 32.7704 L 86.6812 32.7100 L 86.5600 32.6373 L 86.4465 32.5531 L 86.3418 32.4582 L 86.2213 32.3377 L 86.0889 32.2904 L 85.9612 32.2300 L 85.8400 32.1573 L 85.7265 32.0731 L 85.6218 31.9782 L 85.5013 31.8577 L 85.3689 31.8104 L 85.2412 31.7500 L 85.1200 31.6773 L 85.0492 31.6248 L 85.0220 31.6180 L 84.8889 31.5704 L 84.7612 31.5100 L 84.6400 31.4373 L 84.5692 31.3848 L 84.5420 31.3780 L 84.4089 31.3304 L 84.2812 31.2700 L 84.1600 31.1973 L 84.0465 31.1131 L 83.9418 31.0182 L 83.3413 30.4177 L 83.2089 30.3704 L 83.0812 30.3100 L 82.9600 30.2373 L 82.8465 30.1531 L 82.7418 30.0582 L 82.3813 29.6977 L 82.2489 29.6504 L 82.1212 29.5900 L 82.0000 29.5173 L 81.8865 29.4331 L 81.7818 29.3382 L 81.6613 29.2177 L 81.5289 29.1704 L 81.4012 29.1100 L 81.2800 29.0373 L 81.2092 28.9848 L 81.1820 28.9780 L 81.0489 28.9304 L 80.9212 28.8700 L 80.8000 28.7973 L 80.6865 28.7131 L 80.5818 28.6182 L 80.5175 28.5540 L 80.4989 28.5531 L 80.3591 28.5323 L 80.2220 28.4980 L 80.0889 28.4504 L 79.9612 28.3900 L 79.8400 28.3173 L 79.7692 28.2648 L 79.7420 28.2580 L 79.6089 28.2104 L 79.4812 28.1500 L 79.3600 28.0773 L 79.3582 28.0760 L 79.2989 28.0731 L 79.1591 28.0523 L 79.0220 28.0180 L 78.8889 27.9704 L 78.7612 27.9100 L 78.6445 27.8400 L 78.4800 27.8400 L 78.3389 27.8331 L 78.1991 27.8123 L 78.0620 27.7780 L 77.9289 27.7304 L 77.8012 27.6700 L 77.6845 27.6000 L 77.5200 27.6000 L 77.3789 27.5931 L 77.2391 27.5723 L 77.1020 27.5380 L 76.9689 27.4904 L 76.8412 27.4300 L 76.7245 27.3600 L 75.8400 27.3600 L 75.6989 27.3531 L 75.5591 27.3323 L 75.4220 27.2980 L 75.2889 27.2504 L 75.1612 27.1900 L 75.0445 27.1200 L 69.6755 27.1200 L 69.5588 27.1900 L 69.4311 27.2504 L 69.2980 27.2980 L 69.1609 27.3323 L 69.0211 27.3531 L 68.8800 27.3600 L 67.9955 27.3600 L 67.8788 27.4300 L 67.7511 27.4904 L 67.6180 27.5380 L 67.4809 27.5723 L 67.3411 27.5931 L 67.2000 27.6000 L 66.7955 27.6000 L 66.6788 27.6700 L 66.5511 27.7304 L 66.4180 27.7780 L 66.2809 27.8123 L 66.1411 27.8331 L 66.0000 27.8400 L 65.5955 27.8400 L 65.4788 27.9100 L 65.3511 27.9704 L 65.2180 28.0180 L 65.0809 28.0523 L 64.9411 28.0731 L 64.8000 28.0800 L 64.6355 28.0800 L 64.5188 28.1500 L 64.3911 28.2104 L 64.2580 28.2580 L 64.1209 28.2923 L 63.9811 28.3131 L 63.9218 28.3160 L 63.9200 28.3173 L 63.7988 28.3900 L 63.6711 28.4504 L 63.5380 28.4980 L 63.4009 28.5323 L 63.2611 28.5531 L 63.1200 28.5600 L 62.9555 28.5600 L 62.8388 28.6300 L 62.7111 28.6904 L 62.5780 28.7380 L 62.5508 28.7448 L 62.4800 28.7973 L 62.3588 28.8700 L 62.2311 28.9304 L 62.0980 28.9780 L 61.9609 29.0123 L 61.8211 29.0331 L 61.7618 29.0360 L 61.7600 29.0373 L 61.6388 29.1100 L 61.5111 29.1704 L 61.3780 29.2180 L 61.3508 29.2248 L 61.2800 29.2773 L 61.1588 29.3500 L 61.0311 29.4104 L 60.8980 29.4580 L 60.8708 29.4648 L 60.8000 29.5173 L 60.6788 29.5900 L 60.5511 29.6504 L 60.4180 29.6980 L 60.3908 29.7048 L 60.3200 29.7573 L 60.1988 29.8300 L 60.0711 29.8904 L 59.9380 29.9380 L 59.9108 29.9448 L 59.8400 29.9973 L 59.7188 30.0700 L 59.5911 30.1304 L 59.4580 30.1780 L 59.4308 30.1848 L 59.3600 30.2373 L 59.2388 30.3100 L 59.1111 30.3704 L 58.9787 30.4177 L 58.8582 30.5382 L 58.7535 30.6331 L 58.6400 30.7173 L 58.5188 30.7900 L 58.3911 30.8504 L 58.2580 30.8980 L 58.2308 30.9048 L 58.1600 30.9573 L 58.0388 31.0300 L 57.9111 31.0904 L 57.7787 31.1377 L 57.6582 31.2582 L 57.5535 31.3531 L 57.4400 31.4373 L 57.3188 31.5100 L 57.1911 31.5704 L 57.0587 31.6177 L 56.6982 31.9782 L 56.5935 32.0731 L 56.4800 32.1573 L 56.3588 32.2300 L 56.2311 32.2904 L 56.0987 32.3377 L 54.8977 33.5387 L 54.8504 33.6711 L 54.7900 33.7988 L 54.7173 33.9200 L 54.6331 34.0335 L 54.5382 34.1382 L 54.1777 34.4987 L 54.1304 34.6311 L 54.0700 34.7588 L 53.9973 34.8800 L 53.9131 34.9935 L 53.8182 35.0982 L 53.4577 35.4587 L 53.4104 35.5911 L 53.3500 35.7188 L 53.2773 35.8400 L 53.1931 35.9535 L 53.0982 36.0582 L 52.9777 36.1787 L 52.9304 36.3111 L 52.8700 36.4388 L 52.7973 36.5600 L 52.7448 36.6308 L 52.7380 36.6580 L 52.6904 36.7911 L 52.6300 36.9188 L 52.5573 37.0400 L 52.5048 37.1108 L 52.4980 37.1380 L 52.4504 37.2711 L 52.3900 37.3988 L 52.3173 37.5200 L 52.2648 37.5908 L 52.2580 37.6180 L 52.2104 37.7511 L 52.1500 37.8788 L 52.0773 38.0000 L 52.0248 38.0708 L 52.0180 38.0980 L 51.9704 38.2311 L 51.9100 38.3588 L 51.8373 38.4800 L 51.7531 38.5935 L 51.6582 38.6982 L 51.2977 39.0587 L 51.2504 39.1911 L 51.1900 39.3188 L 51.1173 39.4400 L 51.0331 39.5535 L 50.9382 39.6582 L 50.3377 40.2587 L 50.2904 40.3911 L 50.2300 40.5188 L 50.1573 40.6400 L 50.1048 40.7108 L 50.0980 40.7380 L 50.0504 40.8711 L 49.9900 40.9988 L 49.9173 41.1200 L 49.8648 41.1908 L 49.8580 41.2180 L 49.8104 41.3511 L 49.7500 41.4788 L 49.6773 41.6000 L 49.6760 41.6018 L 49.6731 41.6611 L 49.6523 41.8009 L 49.6180 41.9380 L 49.5704 42.0711 L 49.5100 42.1988 L 49.4373 42.3200 L 49.4360 42.3218 L 49.4331 42.3811 L 49.4123 42.5209 L 49.3780 42.6580 L 49.3304 42.7911 L 49.2700 42.9188 L 49.1973 43.0400 L 49.1960 43.0418 L 49.1931 43.1011 L 49.1723 43.2409 L 49.1380 43.3780 L 49.0904 43.5111 L 49.0300 43.6388 L 48.9573 43.7600 L 48.9560 43.7618 L 48.9531 43.8211 L 48.9323 43.9609 L 48.8980 44.0980 L 48.8504 44.2311 L 48.7900 44.3588 L 48.7173 44.4800 L 48.7160 44.4818 L 48.7131 44.5411 L 48.6923 44.6809 L 48.6580 44.8180 L 48.6104 44.9511 L 48.5500 45.0788 L 48.4773 45.2000 L 48.4760 45.2018 L 48.4731 45.2611 L 48.4523 45.4009 L 48.4180 45.5380 L 48.3704 45.6711 L 48.3100 45.7988 L 48.2400 45.9155 L 48.2400 46.3200 L 48.2331 46.4611 L 48.2123 46.6009 L 48.1780 46.7380 L 48.1304 46.8711 L 48.0700 46.9988 L 48.0000 47.1155 L 48.0000 49.2000 L 47.9931 49.3411 L 47.9723 49.4809 L 47.9380 49.6180 L 47.8904 49.7511 L 47.8672 49.8000 L 47.8904 49.8489 L 47.9380 49.9820 L 47.9723 50.1191 L 47.9931 50.2589 L 48.0000 50.4000 L 48.0000 52.4845 L 48.0700 52.6012 L 48.1304 52.7289 L 48.1780 52.8620 L 48.2123 52.9991 L 48.2331 53.1389 L 48.2400 53.2800 L 48.2400 55.1245 L 48.3100 55.2412 L 48.3704 55.3689 L 48.4180 55.5020 L 48.4523 55.6391 L 48.4731 55.7789 L 48.4800 55.9200 L 48.4800 56.8045 L 48.5500 56.9212 L 48.6104 57.0489 L 48.6580 57.1820 L 48.6923 57.3191 L 48.7131 57.4589 L 48.7200 57.6000 L 48.7200 58.2445 L 48.7900 58.3612 L 48.8504 58.4889 L 48.8980 58.6220 L 48.9323 58.7591 L 48.9531 58.8989 L 48.9600 59.0400 L 48.9600 59.2045 L 49.0300 59.3212 L 49.0904 59.4489 L 49.1380 59.5820 L 49.1723 59.7191 L 49.1931 59.8589 L 49.2000 60.0000 L 49.2000 60.4045 L 49.2700 60.5212 L 49.3304 60.6489 L 49.3780 60.7820 L 49.4123 60.9191 L 49.4331 61.0589 L 49.4400 61.2000 L 49.4400 61.3645 L 49.5100 61.4812 L 49.5704 61.6089 L 49.6180 61.7420 L 49.6523 61.8791 L 49.6731 62.0189 L 49.6800 62.1600 L 49.6800 62.3245 L 49.7500 62.4412 L 49.8104 62.5689 L 49.8580 62.7020 L 49.8923 62.8391 L 49.9131 62.9789 L 49.9200 63.1200 L 49.9200 63.2845 L 49.9900 63.4012 L 50.0504 63.5289 L 50.0980 63.6620 L 50.1323 63.7991 L 50.1531 63.9389 L 50.1600 64.0800 L 50.1600 65.2800 L 50.1531 65.4211 L 50.1323 65.5609 L 50.0980 65.6980 L 50.0504 65.8311 L 49.9900 65.9588 L 49.9173 66.0800 L 49.8648 66.1508 L 49.8580 66.1780 L 49.8104 66.3111 L 49.7500 66.4388 L 49.6800 66.5555 L 49.6800 67.3645 L 49.7500 67.4812 L 49.8104 67.6089 L 49.8580 67.7420 L 49.8923 67.8791 L 49.9131 68.0189 L 49.9160 68.0782 L 49.9173 68.0800 L 49.9900 68.2012 L 50.0504 68.3289 L 50.0980 68.4620 L 50.1048 68.4892 L 50.1573 68.5600 L 50.2300 68.6812 L 50.2904 68.8089 L 50.3380 68.9420 L 50.3723 69.0791 L 50.3931 69.2189 L 50.3960 69.2782 L 50.3973 69.2800 L 50.4700 69.4012 L 50.5304 69.5289 L 50.5780 69.6620 L 50.5848 69.6892 L 50.6373 69.7600 L 50.7100 69.8812 L 50.7704 70.0089 L 50.8180 70.1420 L 50.8523 70.2791 L 50.8731 70.4189 L 50.8740 70.4375 L 50.9382 70.5018 L 51.0331 70.6065 L 51.1173 70.7200 L 51.1900 70.8412 L 51.2313 70.9287 L 51.3188 70.9700 L 51.4400 71.0427 L 51.5108 71.0952 L 51.5380 71.1020 L 51.6711 71.1496 L 51.7988 71.2100 L 51.9200 71.2827 L 51.9908 71.3352 L 52.0180 71.3420 L 52.1511 71.3896 L 52.2788 71.4500 L 52.4000 71.5227 L 52.5135 71.6069 L 52.6182 71.7018 L 53.3382 72.4218 L 53.4331 72.5265 L 53.5173 72.6400 L 53.5900 72.7612 L 53.6504 72.8889 L 53.6980 73.0220 L 53.7323 73.1591 L 53.7531 73.2989 L 53.7600 73.4400 L 53.7600 74.0845 L 53.8300 74.2012 L 53.8904 74.3289 L 53.9380 74.4620 L 53.9723 74.5991 L 53.9931 74.7389 L 53.9940 74.7575 L 54.0582 74.8218 L 54.1531 74.9265 L 54.2373 75.0400 L 54.3100 75.1612 L 54.3704 75.2889 L 54.4177 75.4213 L 54.5382 75.5418 L 54.6331 75.6465 L 54.7173 75.7600 L 54.7900 75.8812 L 54.8504 76.0089 L 54.8977 76.1413 L 55.2582 76.5018 L 55.3531 76.6065 L 55.4373 76.7200 L 55.5100 76.8412 L 55.5704 76.9689 L 55.6177 77.1013 L 56.6982 78.1818 L 56.7931 78.2865 L 56.8773 78.4000 L 56.9500 78.5212 L 57.0104 78.6489 L 57.0577 78.7813 L 57.1782 78.9018 L 57.2731 79.0065 L 57.3573 79.1200 L 57.4300 79.2412 L 57.4904 79.3689 L 57.5380 79.5020 L 57.5723 79.6391 L 57.5931 79.7789 L 57.5940 79.7975 L 57.6582 79.8618 L 57.7531 79.9665 L 57.8373 80.0800 L 57.9100 80.2012 L 57.9704 80.3289 L 58.0180 80.4620 L 58.0523 80.5991 L 58.0731 80.7389 L 58.0760 80.7982 L 58.0773 80.8000 L 58.0834 80.8102 L 58.0869 80.7389 L 58.1077 80.5991 L 58.1420 80.4620 L 58.1896 80.3289 L 58.2500 80.2012 L 58.3227 80.0800 L 58.4069 79.9665 L 58.5018 79.8618 L 58.7418 79.6218 L 58.8465 79.5269 L 58.9600 79.4427 L 59.0812 79.3700 L 59.2089 79.3096 L 59.3420 79.2620 L 59.4791 79.2277 L 59.6189 79.2069 L 59.7600 79.2000 L 59.9011 79.2069 L 60.0409 79.2277 L 60.1780 79.2620 L 60.3111 79.3096 L 60.4388 79.3700 L 60.5600 79.4427 L 60.6735 79.5269 L 60.7782 79.6218 L 61.3787 80.2223 L 61.5111 80.2696 L 61.6388 80.3300 L 61.7600 80.4027 L 61.7618 80.4040 L 61.8211 80.4069 L 61.9609 80.4277 L 62.0980 80.4620 L 62.2311 80.5096 L 62.3588 80.5700 L 62.4800 80.6427 L 62.5935 80.7269 L 62.6982 80.8218 L 63.4182 81.5418 L 63.5131 81.6465 L 63.5973 81.7600 L 63.6700 81.8812 L 63.7304 82.0089 L 63.7780 82.1420 L 63.8123 82.2791 L 63.8331 82.4189 L 63.8400 82.5600 L 63.8400 82.7245 L 63.9100 82.8412 L 63.9704 82.9689 L 64.0180 83.1020 L 64.0523 83.2391 L 64.0731 83.3789 L 64.0800 83.5200 L 64.0800 84.4800 L 64.0731 84.6211 L 64.0523 84.7609 L 64.0180 84.8980 L 63.9704 85.0311 L 63.9100 85.1588 L 63.8373 85.2800 L 63.7531 85.3935 L 63.6582 85.4982 L 62.9382 86.2182 L 62.8335 86.3131 L 62.7200 86.3973 L 62.5988 86.4700 L 62.4711 86.5304 L 62.3380 86.5780 L 62.2009 86.6123 L 62.0611 86.6331 L 62.0425 86.6340 L 61.9782 86.6982 L 61.8735 86.7931 L 61.7600 86.8773 L 61.6388 86.9500 L 61.5111 87.0104 L 61.3780 87.0580 L 61.2409 87.0923 L 61.1011 87.1131 L 60.9600 87.1200 L 60.7200 87.1200 L 60.5789 87.1131 L 60.4391 87.0923 L 60.3020 87.0580 L 60.1689 87.0104 L 60.0448 86.9517 L 59.3382 87.6582 L 59.2335 87.7531 L 59.1200 87.8373 L 58.9988 87.9100 L 58.8711 87.9704 L 58.7380 88.0180 L 58.7108 88.0248 L 58.6400 88.0773 L 58.5188 88.1500 L 58.3911 88.2104 L 58.2580 88.2580 L 58.2308 88.2648 L 58.1600 88.3173 L 58.0388 88.3900 L 57.9111 88.4504 L 57.7780 88.4980 L 57.7508 88.5048 L 57.6800 88.5573 L 57.5588 88.6300 L 57.4311 88.6904 L 57.2980 88.7380 L 57.2708 88.7448 L 57.2000 88.7973 L 57.0788 88.8700 L 56.9511 88.9304 L 56.8180 88.9780 L 56.7908 88.9848 L 56.7200 89.0373 L 56.5988 89.1100 L 56.4711 89.1704 L 56.3380 89.2180 L 56.2009 89.2523 L 56.0611 89.2731 L 56.0018 89.2760 L 56.0000 89.2773 L 55.8788 89.3500 L 55.7511 89.4104 L 55.6180 89.4580 L 55.4809 89.4923 L 55.3411 89.5131 L 55.3225 89.5140 L 55.2582 89.5782 L 55.1535 89.6731 L 55.0400 89.7573 L 54.9188 89.8300 L 54.7911 89.8904 L 54.6580 89.9380 L 54.6308 89.9448 L 54.5600 89.9973 L 54.4388 90.0700 L 54.3111 90.1304 L 54.1787 90.1777 L 54.0582 90.2982 L 53.9535 90.3931 L 53.8400 90.4773 L 53.7188 90.5500 L 53.5911 90.6104 L 53.4580 90.6580 L 53.3209 90.6923 L 53.1811 90.7131 L 53.1218 90.7160 L 53.1200 90.7173 L 52.9988 90.7900 L 52.8711 90.8504 L 52.7380 90.8980 L 52.7108 90.9048 L 52.6400 90.9573 L 52.5188 91.0300 L 52.3911 91.0904 L 52.2580 91.1380 L 52.2308 91.1448 L 52.1600 91.1973 L 52.0388 91.2700 L 51.9111 91.3304 L 51.7780 91.3780 L 51.7508 91.3848 L 51.6800 91.4373 L 51.5588 91.5100 L 51.4311 91.5704 L 51.2980 91.6180 L 51.2708 91.6248 L 51.2000 91.6773 L 51.0788 91.7500 L 50.9511 91.8104 L 50.8180 91.8580 L 50.6809 91.8923 L 50.5411 91.9131 L 50.4818 91.9160 L 50.4800 91.9173 L 50.3588 91.9900 L 50.2311 92.0504 L 50.0980 92.0980 L 49.9609 92.1323 L 49.8211 92.1531 L 49.7618 92.1560 L 49.7600 92.1573 L 49.6388 92.2300 L 49.5111 92.2904 L 49.3780 92.3380 L 49.2409 92.3723 L 49.1011 92.3931 L 49.0418 92.3960 L 49.0400 92.3973 L 48.9188 92.4700 L 48.7911 92.5304 L 48.6580 92.5780 L 48.5209 92.6123 L 48.3811 92.6331 L 48.3218 92.6360 L 48.3200 92.6373 L 48.1988 92.7100 L 48.0711 92.7704 L 47.9380 92.8180 L 47.9108 92.8248 L 47.8400 92.8773 L 47.7188 92.9500 L 47.5911 93.0104 L 47.4580 93.0580 L 47.3209 93.0923 L 47.1811 93.1131 L 47.0400 93.1200 L 46.8755 93.1200 L 46.7588 93.1900 L 46.6311 93.2504 L 46.4980 93.2980 L 46.3609 93.3323 L 46.2211 93.3531 L 46.1618 93.3560 L 46.1600 93.3573 L 46.0388 93.4300 L 45.9111 93.4904 L 45.7780 93.5380 L 45.7508 93.5448 L 45.6800 93.5973 L 45.5588 93.6700 L 45.4311 93.7304 L 45.2980 93.7780 L 45.2708 93.7848 L 45.2000 93.8373 L 45.0788 93.9100 L 44.9511 93.9704 L 44.8180 94.0180 L 44.7908 94.0248 L 44.7200 94.0773 L 44.5988 94.1500 L 44.4711 94.2104 L 44.3380 94.2580 L 44.3108 94.2648 L 44.2400 94.3173 L 44.1188 94.3900 L 43.9911 94.4504 L 43.8580 94.4980 L 43.8308 94.5048 L 43.7600 94.5573 L 43.6388 94.6300 L 43.5111 94.6904 L 43.3787 94.7377 L 42.7782 95.3382 L 42.6735 95.4331 L 42.5600 95.5173 L 42.4388 95.5900 L 42.3111 95.6504 L 42.1787 95.6977 L 41.0982 96.7782 L 40.9935 96.8731 L 40.8800 96.9573 L 40.7588 97.0300 L 40.6311 97.0904 L 40.4987 97.1377 L 40.3782 97.2582 L 40.2735 97.3531 L 40.1600 97.4373 L 40.0388 97.5100 L 39.9111 97.5704 L 39.7787 97.6177 L 39.6582 97.7382 L 39.5535 97.8331 L 39.4400 97.9173 L 39.3188 97.9900 L 39.1911 98.0504 L 39.0587 98.0977 L 38.8177 98.3387 L 38.7704 98.4711 L 38.7100 98.5988 L 38.6373 98.7200 L 38.5531 98.8335 L 38.4582 98.9382 L 37.4982 99.8982 L 37.3935 99.9931 L 37.3703 100.0103 L 37.3531 100.0335 L 37.2582 100.1382 L 36.6577 100.7387 L 36.6104 100.8711 L 36.5500 100.9988 L 36.4773 101.1200 L 36.3931 101.2335 L 36.2982 101.3382 L 36.1777 101.4587 L 36.1304 101.5911 L 36.0700 101.7188 L 35.9973 101.8400 L 35.9448 101.9108 L 35.9380 101.9380 L 35.8904 102.0711 L 35.8300 102.1988 L 35.7573 102.3200 L 35.7048 102.3908 L 35.6980 102.4180 L 35.6504 102.5511 L 35.5900 102.6788 L 35.5200 102.7955 L 35.5200 102.9600 L 35.5131 103.1011 L 35.4923 103.2409 L 35.4580 103.3780 L 35.4104 103.5111 L 35.3500 103.6388 L 35.2800 103.7555 L 35.2800 104.8800 L 35.2731 105.0211 L 35.2523 105.1609 L 35.2180 105.2980 L 35.1704 105.4311 L 35.1100 105.5588 L 35.0400 105.6755 L 35.0400 106.3200 L 35.0331 106.4611 L 35.0123 106.6009 L 34.9780 106.7380 L 34.9304 106.8711 L 34.8700 106.9988 L 34.8000 107.1155 L 34.8000 107.2800 L 34.7931 107.4211 L 34.7723 107.5609 L 34.7380 107.6980 L 34.6904 107.8311 L 34.6300 107.9588 L 34.5600 108.0755 Z M 73.4400 212.8800 L 73.4469 212.7389 L 73.4677 212.5991 L 73.5020 212.4620 L 73.5496 212.3289 L 73.6100 212.2012 L 73.6827 212.0800 L 73.7669 211.9665 L 73.8618 211.8618 L 74.1018 211.6218 L 74.2065 211.5269 L 74.3200 211.4427 L 74.4412 211.3700 L 74.5689 211.3096 L 74.7020 211.2620 L 74.8391 211.2277 L 74.9789 211.2069 L 75.1200 211.2000 L 75.2611 211.2069 L 75.4009 211.2277 L 75.5380 211.2620 L 75.6711 211.3096 L 75.7988 211.3700 L 75.9200 211.4427 L 75.9908 211.4952 L 76.0180 211.5020 L 76.1511 211.5496 L 76.2788 211.6100 L 76.4000 211.6827 L 76.5135 211.7669 L 76.6182 211.8618 L 77.0982 212.3418 L 77.1931 212.4465 L 77.2773 212.5600 L 77.3500 212.6812 L 77.4104 212.8089 L 77.4580 212.9420 L 77.4923 213.0791 L 77.5131 213.2189 L 77.5200 213.3600 L 77.5131 213.5011 L 77.4923 213.6409 L 77.4580 213.7780 L 77.4104 213.9111 L 77.3500 214.0388 L 77.2773 214.1600 L 77.1931 214.2735 L 77.0982 214.3782 L 76.6182 214.8582 L 76.5135 214.9531 L 76.4000 215.0373 L 76.2788 215.1100 L 76.1511 215.1704 L 76.0180 215.2180 L 75.8809 215.2523 L 75.7411 215.2731 L 75.6000 215.2800 L 75.4589 215.2731 L 75.3191 215.2523 L 75.1820 215.2180 L 75.0489 215.1704 L 74.9212 215.1100 L 74.8000 215.0373 L 74.6865 214.9531 L 74.5818 214.8582 L 73.8618 214.1382 L 73.7669 214.0335 L 73.6827 213.9200 L 73.6100 213.7988 L 73.5496 213.6711 L 73.5020 213.5380 L 73.4677 213.4009 L 73.4469 213.2611 L 73.4400 213.1200 L 73.4400 212.8800 Z M 65.7018 211.1418 L 65.8065 211.0469 L 65.9200 210.9627 L 66.0412 210.8900 L 66.1689 210.8296 L 66.3020 210.7820 L 66.4391 210.7477 L 66.5789 210.7269 L 66.7200 210.7200 L 67.9200 210.7200 L 68.0611 210.7269 L 68.2009 210.7477 L 68.3380 210.7820 L 68.4711 210.8296 L 68.5988 210.8900 L 68.7200 210.9627 L 68.8335 211.0469 L 68.9382 211.1418 L 69.1782 211.3818 L 69.2731 211.4865 L 69.3573 211.6000 L 69.4300 211.7212 L 69.4904 211.8489 L 69.5380 211.9820 L 69.5723 212.1191 L 69.5931 212.2589 L 69.6000 212.4000 L 69.5931 212.5411 L 69.5723 212.6809 L 69.5380 212.8180 L 69.4904 212.9511 L 69.4300 213.0788 L 69.3573 213.2000 L 69.2731 213.3135 L 69.1782 213.4182 L 68.4582 214.1382 L 68.3535 214.2331 L 68.2400 214.3173 L 68.1188 214.3900 L 67.9911 214.4504 L 67.8580 214.4980 L 67.7209 214.5323 L 67.5811 214.5531 L 67.4400 214.5600 L 66.7200 214.5600 L 66.5789 214.5531 L 66.4391 214.5323 L 66.3020 214.4980 L 66.1689 214.4504 L 66.0412 214.3900 L 65.9200 214.3173 L 65.8065 214.2331 L 65.7018 214.1382 L 65.2218 213.6582 L 65.1269 213.5535 L 65.0427 213.4400 L 64.9700 213.3188 L 64.9096 213.1911 L 64.8620 213.0580 L 64.8277 212.9209 L 64.8069 212.7811 L 64.8000 212.6400 L 64.8069 212.4989 L 64.8277 212.3591 L 64.8620 212.2220 L 64.9096 212.0889 L 64.9700 211.9612 L 65.0427 211.8400 L 65.1269 211.7265 L 65.2218 211.6218 L 65.7018 211.1418 Z M 57.0618 209.0982 L 56.9669 208.9935 L 56.8827 208.8800 L 56.8100 208.7588 L 56.7496 208.6311 L 56.7020 208.4980 L 56.6677 208.3609 L 56.6469 208.2211 L 56.6400 208.0800 L 56.6469 207.9389 L 56.6677 207.7991 L 56.7020 207.6620 L 56.7496 207.5289 L 56.8100 207.4012 L 56.8827 207.2800 L 56.9669 207.1665 L 57.0618 207.0618 L 57.3018 206.8218 L 57.4065 206.7269 L 57.5200 206.6427 L 57.6412 206.5700 L 57.7689 206.5096 L 57.9020 206.4620 L 58.0391 206.4277 L 58.1789 206.4069 L 58.3200 206.4000 L 58.5600 206.4000 L 58.7011 206.4069 L 58.8409 206.4277 L 58.8923 206.4405 L 58.9818 206.3418 L 59.2218 206.1018 L 59.3265 206.0069 L 59.4400 205.9227 L 59.5612 205.8500 L 59.6889 205.7896 L 59.8220 205.7420 L 59.9591 205.7077 L 60.0989 205.6869 L 60.2400 205.6800 L 60.3811 205.6869 L 60.5209 205.7077 L 60.6580 205.7420 L 60.7911 205.7896 L 60.9188 205.8500 L 61.0400 205.9227 L 61.1535 206.0069 L 61.2582 206.1018 L 61.4982 206.3418 L 61.5931 206.4465 L 61.6773 206.5600 L 61.7500 206.6812 L 61.8104 206.8089 L 61.8580 206.9420 L 61.8923 207.0791 L 61.9131 207.2189 L 61.9200 207.3600 L 61.9131 207.5011 L 61.8923 207.6409 L 61.8580 207.7780 L 61.8104 207.9111 L 61.7500 208.0388 L 61.6773 208.1600 L 61.5931 208.2735 L 61.4982 208.3782 L 61.2582 208.6182 L 61.1535 208.7131 L 61.0400 208.7973 L 60.9188 208.8700 L 60.7911 208.9304 L 60.6580 208.9780 L 60.5209 209.0123 L 60.3811 209.0331 L 60.2400 209.0400 L 60.0989 209.0331 L 60.0535 209.0263 L 59.9973 209.1200 L 59.9131 209.2335 L 59.8182 209.3382 L 59.5782 209.5782 L 59.4735 209.6731 L 59.3600 209.7573 L 59.2388 209.8300 L 59.1111 209.8904 L 58.9780 209.9380 L 58.8409 209.9723 L 58.7011 209.9931 L 58.5600 210.0000 L 58.4189 209.9931 L 58.2791 209.9723 L 58.1420 209.9380 L 58.0089 209.8904 L 57.8812 209.8300 L 57.7600 209.7573 L 57.6465 209.6731 L 57.5418 209.5782 L 57.0618 209.0982 Z M 53.7018 208.9818 L 53.8065 208.8869 L 53.9200 208.8027 L 54.0412 208.7300 L 54.1689 208.6696 L 54.3020 208.6220 L 54.4391 208.5877 L 54.5789 208.5669 L 54.7200 208.5600 L 54.8611 208.5669 L 55.0009 208.5877 L 55.1380 208.6220 L 55.2711 208.6696 L 55.3988 208.7300 L 55.5200 208.8027 L 55.6335 208.8869 L 55.7382 208.9818 L 55.9782 209.2218 L 56.0731 209.3265 L 56.1573 209.4400 L 56.2300 209.5612 L 56.2904 209.6889 L 56.3380 209.8220 L 56.3723 209.9591 L 56.3931 210.0989 L 56.4000 210.2400 L 56.4000 210.4800 L 56.3931 210.6211 L 56.3723 210.7609 L 56.3380 210.8980 L 56.2904 211.0311 L 56.2300 211.1588 L 56.1573 211.2800 L 56.0731 211.3935 L 55.9782 211.4982 L 55.4982 211.9782 L 55.3935 212.0731 L 55.2800 212.1573 L 55.1588 212.2300 L 55.0311 212.2904 L 54.8980 212.3380 L 54.7609 212.3723 L 54.6211 212.3931 L 54.4800 212.4000 L 54.3389 212.3931 L 54.1991 212.3723 L 54.0620 212.3380 L 53.9289 212.2904 L 53.8012 212.2300 L 53.6800 212.1573 L 53.5665 212.0731 L 53.4618 211.9782 L 53.2218 211.7382 L 53.1269 211.6335 L 53.0427 211.5200 L 52.9700 211.3988 L 52.9096 211.2711 L 52.8620 211.1380 L 52.8277 211.0009 L 52.8069 210.8611 L 52.8000 210.7200 L 52.8000 210.4800 L 52.8069 210.3389 L 52.8277 210.1991 L 52.8620 210.0620 L 52.9096 209.9289 L 52.9700 209.8012 L 53.0427 209.6800 L 53.1269 209.5665 L 53.2218 209.4618 L 53.7018 208.9818 Z M 125.1630 70.3266 L 125.2218 70.2618 L 125.4618 70.0218 L 125.5665 69.9269 L 125.6800 69.8427 L 125.8012 69.7700 L 125.9289 69.7096 L 126.0620 69.6620 L 126.1991 69.6277 L 126.3389 69.6069 L 126.4800 69.6000 L 126.6211 69.6069 L 126.7609 69.6277 L 126.8193 69.6423 L 126.7820 69.5380 L 126.7752 69.5108 L 126.7227 69.4400 L 126.6500 69.3188 L 126.5896 69.1911 L 126.5423 69.0587 L 126.1818 68.6982 L 126.0869 68.5935 L 126.0027 68.4800 L 125.9300 68.3588 L 125.8696 68.2311 L 125.8223 68.0987 L 125.7018 67.9782 L 125.6069 67.8735 L 125.5227 67.7600 L 125.4500 67.6388 L 125.3896 67.5111 L 125.3420 67.3780 L 125.3352 67.3508 L 125.2827 67.2800 L 125.2100 67.1588 L 125.1496 67.0311 L 125.1023 66.8987 L 124.9818 66.7782 L 124.8869 66.6735 L 124.8027 66.5600 L 124.7300 66.4388 L 124.6696 66.3111 L 124.6223 66.1787 L 124.0218 65.5782 L 123.9269 65.4735 L 123.8427 65.3600 L 123.7700 65.2388 L 123.7096 65.1111 L 123.6623 64.9787 L 123.6613 64.9777 L 123.5289 64.9304 L 123.4012 64.8700 L 123.3600 64.8453 L 123.3188 64.8700 L 123.1911 64.9304 L 123.0580 64.9780 L 122.9209 65.0123 L 122.7811 65.0331 L 122.7625 65.0340 L 122.1600 65.6365 L 122.1600 66.3635 L 122.2182 66.4218 L 122.3131 66.5265 L 122.3973 66.6400 L 122.4700 66.7612 L 122.5304 66.8889 L 122.5777 67.0213 L 122.9382 67.3818 L 123.0331 67.4865 L 123.1173 67.6000 L 123.1900 67.7212 L 123.2504 67.8489 L 123.2980 67.9820 L 123.3048 68.0092 L 123.3573 68.0800 L 123.4300 68.2012 L 123.4904 68.3289 L 123.5377 68.4613 L 123.6582 68.5818 L 123.7531 68.6865 L 123.8373 68.8000 L 123.9100 68.9212 L 123.9704 69.0489 L 124.0177 69.1813 L 124.1382 69.3018 L 124.2331 69.4065 L 124.3173 69.5200 L 124.3900 69.6412 L 124.4313 69.7287 L 124.5188 69.7700 L 124.6400 69.8427 L 124.7535 69.9269 L 124.8582 70.0218 L 125.1630 70.3266 Z" fill="none" stroke="black" stroke-width="0.5" /></svg>