<?xml version="1.0" encoding="utf-8" ?>
<svg baseProfile="full" height="261" version="1.1" viewBox="0 0 189 261" width="189" xmlns="http://www.w3.org/2000/svg" xmlns:ev="http://www.w3.org/2001/xml-events" xmlns:xlink="http://www.w3.org/1999/xlink"><defs /><path d="M 71.2800 28.5600 L 71.0400 28.8000 L 69.8400 28.8000 L 69.6000 29.0400 L 69.1200 29.0400 L 68.6400 29.5200 L 68.6400 29.7600 L 68.4000 30.0000 L 68.4000 30.2400 L 68.1600 30.4800 L 67.9200 30.4800 L 67.6800 30.7200 L 67.4400 30.7200 L 67.2000 30.9600 L 66.9600 30.9600 L 66.7200 31.2000 L 66.2400 31.2000 L 66.0000 31.4400 L 65.7600 31.4400 L 65.5200 31.6800 L 65.2800 31.6800 L 65.0400 31.9200 L 64.8000 31.9200 L 64.5600 32.1600 L 64.3200 32.1600 L 63.6000 32.8800 L 63.6000 33.1200 L 61.6800 35.0400 L 61.4400 35.0400 L 60.7200 35.7600 L 60.4800 35.7600 L 60.0000 36.2400 L 60.0000 36.4800 L 59.2800 37.2000 L 59.2800 37.4400 L 59.0400 37.6800 L 59.0400 37.9200 L 58.5600 38.4000 L 58.3200 38.4000 L 57.8400 38.8800 L 57.6000 38.8800 L 57.3600 39.1200 L 57.1200 39.1200 L 56.4000 39.8400 L 56.1600 39.8400 L 56.1600 40.0800 L 55.9200 40.3200 L 55.9200 40.5600 L 55.6800 40.8000 L 55.6800 41.0400 L 55.4400 41.2800 L 55.4400 41.5200 L 55.2000 41.7600 L 55.2000 42.0000 L 54.9600 42.2400 L 54.9600 42.4800 L 54.4800 42.9600 L 54.4800 43.2000 L 54.2400 43.4400 L 54.2400 43.9200 L 53.7600 44.4000 L 53.7600 44.6400 L 53.5200 44.8800 L 53.5200 45.1200 L 53.2800 45.3600 L 53.2800 45.8400 L 53.0400 46.0800 L 53.0400 46.3200 L 52.8000 46.5600 L 52.8000 46.8000 L 52.5600 47.0400 L 52.5600 47.7600 L 52.3200 48.0000 L 52.3200 48.4800 L 52.0800 48.7200 L 52.0800 51.3600 L 52.3200 51.6000 L 52.3200 54.0000 L 52.0800 54.2400 L 52.0800 54.4800 L 51.8400 54.7200 L 51.8400 54.9600 L 51.6000 55.2000 L 51.6000 55.6800 L 51.3600 55.9200 L 51.3600 56.4000 L 51.1200 56.6400 L 50.6400 56.6400 L 50.4000 56.4000 L 50.4000 56.1600 L 50.1600 55.9200 L 50.1600 55.6800 L 48.2400 53.7600 L 48.0000 53.7600 L 47.7600 53.5200 L 47.5200 53.5200 L 47.2800 53.2800 L 47.0400 53.2800 L 46.8000 53.0400 L 46.0800 53.0400 L 45.8400 52.8000 L 44.8800 52.8000 L 44.1600 53.5200 L 44.1600 53.7600 L 43.9200 54.0000 L 43.9200 54.4800 L 44.4000 54.9600 L 44.6400 54.9600 L 44.8800 55.2000 L 45.3600 55.2000 L 45.6000 55.4400 L 45.8400 55.4400 L 46.0800 55.6800 L 46.5600 55.6800 L 47.0400 56.1600 L 47.2800 56.1600 L 47.5200 56.4000 L 47.7600 56.4000 L 48.2400 56.8800 L 48.4800 56.8800 L 50.4000 58.8000 L 50.4000 59.7600 L 50.1600 60.0000 L 50.1600 60.2400 L 49.9200 60.4800 L 49.9200 60.7200 L 49.4400 61.2000 L 49.4400 62.4000 L 49.6800 62.6400 L 49.6800 63.8400 L 49.9200 64.0800 L 49.9200 64.3200 L 50.1600 64.5600 L 50.1600 65.0400 L 50.4000 65.2800 L 50.4000 66.4800 L 49.9200 66.9600 L 49.4400 66.9600 L 49.2000 66.7200 L 48.4800 66.7200 L 48.2400 66.4800 L 47.5200 66.4800 L 47.2800 66.2400 L 45.6000 66.2400 L 45.6000 66.4800 L 45.3600 66.7200 L 45.8400 67.2000 L 46.3200 67.2000 L 46.5600 67.4400 L 48.4800 67.4400 L 48.7200 67.6800 L 49.6800 67.6800 L 49.9200 67.9200 L 50.8800 67.9200 L 52.5600 69.6000 L 52.5600 70.0800 L 53.0400 70.5600 L 53.0400 70.8000 L 53.5200 71.2800 L 53.5200 71.5200 L 53.7600 71.7600 L 53.7600 72.0000 L 54.2400 72.4800 L 54.2400 72.9600 L 54.4800 73.2000 L 54.4800 73.4400 L 54.7200 73.6800 L 54.7200 73.9200 L 54.9600 74.1600 L 54.9600 74.6400 L 55.4400 75.1200 L 55.4400 77.0400 L 55.6800 77.2800 L 55.6800 77.5200 L 55.9200 77.7600 L 55.9200 78.0000 L 56.4000 78.4800 L 56.4000 78.7200 L 56.6400 78.9600 L 56.6400 79.2000 L 56.4000 79.4400 L 56.4000 82.3200 L 56.6400 82.5600 L 56.6400 84.7200 L 56.4000 84.9600 L 55.9200 84.9600 L 55.6800 85.2000 L 54.7200 85.2000 L 54.4800 85.4400 L 53.5200 85.4400 L 53.2800 85.6800 L 52.0800 85.6800 L 51.8400 85.9200 L 51.3600 85.9200 L 51.1200 86.1600 L 50.6400 86.1600 L 50.4000 86.4000 L 50.1600 86.4000 L 49.6800 86.8800 L 49.4400 86.8800 L 49.2000 87.1200 L 48.9600 87.1200 L 48.7200 87.3600 L 48.4800 87.3600 L 47.7600 88.0800 L 47.5200 88.0800 L 47.0400 88.5600 L 46.8000 88.5600 L 46.0800 89.2800 L 45.8400 89.2800 L 45.3600 89.7600 L 45.1200 89.7600 L 44.4000 90.4800 L 44.1600 90.4800 L 42.4800 92.1600 L 42.2400 92.1600 L 41.2800 93.1200 L 41.0400 93.1200 L 40.8000 93.3600 L 40.8000 93.6000 L 40.0800 94.3200 L 40.0800 94.5600 L 38.6400 96.0000 L 38.6400 96.2400 L 37.2000 97.6800 L 37.2000 97.9200 L 36.9600 98.1600 L 36.9600 98.6400 L 36.7200 98.8800 L 36.7200 99.3600 L 36.4800 99.6000 L 36.4800 100.5600 L 36.9600 101.0400 L 37.6800 101.0400 L 38.1600 101.5200 L 38.1600 102.0000 L 37.9200 102.2400 L 37.9200 102.9600 L 37.6800 103.2000 L 37.6800 103.6800 L 37.4400 103.9200 L 37.4400 104.4000 L 37.2000 104.6400 L 37.2000 104.8800 L 36.7200 105.3600 L 36.7200 105.8400 L 36.4800 106.0800 L 36.4800 108.4800 L 36.7200 108.7200 L 36.7200 109.2000 L 36.9600 109.4400 L 36.9600 109.9200 L 37.2000 110.1600 L 37.2000 110.8800 L 37.4400 111.1200 L 37.4400 111.6000 L 37.6800 111.8400 L 37.6800 112.0800 L 37.9200 112.3200 L 37.9200 112.8000 L 38.1600 113.0400 L 38.1600 113.2800 L 38.4000 113.5200 L 38.4000 113.7600 L 38.8800 114.2400 L 38.8800 114.4800 L 40.0800 115.6800 L 40.0800 115.9200 L 40.3200 116.1600 L 40.3200 116.4000 L 40.5600 116.6400 L 40.5600 116.8800 L 40.8000 117.1200 L 40.8000 117.3600 L 41.0400 117.6000 L 41.0400 117.8400 L 41.2800 118.0800 L 41.2800 118.3200 L 41.5200 118.5600 L 41.5200 119.0400 L 42.0000 119.5200 L 42.2400 119.5200 L 42.4800 119.7600 L 42.7200 119.7600 L 42.9600 120.0000 L 43.2000 120.0000 L 43.4400 120.2400 L 43.9200 120.2400 L 44.1600 120.4800 L 50.4000 120.4800 L 50.6400 120.7200 L 50.8800 120.7200 L 52.3200 122.1600 L 52.3200 122.4000 L 52.5600 122.6400 L 52.5600 122.8800 L 52.8000 123.1200 L 52.8000 123.3600 L 53.0400 123.6000 L 53.0400 123.8400 L 53.5200 124.3200 L 53.5200 124.5600 L 54.2400 125.2800 L 54.2400 125.5200 L 54.4800 125.7600 L 54.4800 126.2400 L 54.7200 126.4800 L 54.7200 126.7200 L 54.9600 126.9600 L 54.9600 127.4400 L 55.2000 127.6800 L 55.2000 128.1600 L 55.4400 128.4000 L 55.4400 128.8800 L 55.6800 129.1200 L 55.6800 129.6000 L 55.9200 129.8400 L 55.9200 130.3200 L 56.1600 130.5600 L 56.1600 131.7600 L 56.4000 132.0000 L 56.4000 133.2000 L 56.6400 133.4400 L 56.6400 138.2400 L 56.4000 138.4800 L 56.4000 145.9200 L 56.1600 146.1600 L 56.1600 156.2400 L 55.9200 156.4800 L 55.9200 157.4400 L 55.6800 157.6800 L 55.6800 158.6400 L 55.4400 158.8800 L 55.4400 159.6000 L 55.2000 159.8400 L 55.2000 160.0800 L 54.9600 160.3200 L 54.9600 160.5600 L 54.7200 160.8000 L 54.7200 161.2800 L 54.4800 161.5200 L 54.4800 161.7600 L 54.2400 162.0000 L 54.2400 162.4800 L 54.0000 162.7200 L 54.0000 163.2000 L 53.7600 163.4400 L 53.7600 163.9200 L 53.5200 164.1600 L 53.5200 164.4000 L 53.0400 164.8800 L 53.0400 165.1200 L 52.8000 165.3600 L 52.8000 166.0800 L 52.5600 166.3200 L 52.5600 166.8000 L 52.0800 167.2800 L 52.0800 167.5200 L 51.8400 167.7600 L 51.8400 168.0000 L 51.6000 168.2400 L 51.6000 168.9600 L 51.3600 169.2000 L 51.3600 169.6800 L 51.1200 169.9200 L 51.1200 170.6400 L 50.8800 170.8800 L 50.8800 171.6000 L 50.6400 171.8400 L 50.6400 172.3200 L 50.4000 172.5600 L 50.4000 174.0000 L 50.1600 174.2400 L 50.1600 174.9600 L 49.9200 175.2000 L 49.9200 175.6800 L 49.6800 175.9200 L 49.6800 176.4000 L 49.4400 176.6400 L 49.4400 177.6000 L 49.2000 177.8400 L 49.2000 178.8000 L 48.9600 179.0400 L 48.9600 180.4800 L 48.7200 180.7200 L 48.7200 181.6800 L 48.4800 181.9200 L 48.4800 182.8800 L 48.2400 183.1200 L 48.2400 183.6000 L 48.0000 183.8400 L 48.0000 184.8000 L 47.7600 185.0400 L 47.7600 186.0000 L 47.5200 186.2400 L 47.5200 186.9600 L 47.2800 187.2000 L 47.2800 187.4400 L 47.0400 187.6800 L 47.0400 187.9200 L 46.8000 188.1600 L 46.8000 188.8800 L 46.5600 189.1200 L 46.5600 189.8400 L 46.3200 190.0800 L 46.3200 190.5600 L 46.0800 190.8000 L 46.0800 191.2800 L 45.8400 191.5200 L 45.8400 192.0000 L 45.6000 192.2400 L 45.6000 192.7200 L 45.3600 192.9600 L 45.3600 193.2000 L 45.1200 193.4400 L 45.1200 194.1600 L 44.8800 194.4000 L 44.8800 195.3600 L 44.6400 195.6000 L 44.6400 196.0800 L 44.4000 196.3200 L 44.4000 196.8000 L 44.1600 197.0400 L 44.1600 197.7600 L 43.9200 198.0000 L 43.9200 198.4800 L 43.6800 198.7200 L 43.6800 199.2000 L 43.4400 199.4400 L 43.4400 199.9200 L 43.2000 200.1600 L 43.2000 200.6400 L 42.9600 200.8800 L 42.9600 201.8400 L 42.7200 202.0800 L 42.7200 202.5600 L 42.4800 202.8000 L 42.4800 203.0400 L 42.2400 203.2800 L 42.2400 203.7600 L 42.0000 204.0000 L 42.0000 204.2400 L 41.7600 204.4800 L 41.7600 204.7200 L 41.0400 205.4400 L 41.0400 205.6800 L 39.1200 207.6000 L 38.8800 207.6000 L 38.4000 208.0800 L 38.4000 211.6800 L 38.1600 211.9200 L 38.1600 212.4000 L 37.9200 212.6400 L 37.9200 213.6000 L 38.4000 214.0800 L 38.4000 214.3200 L 39.1200 215.0400 L 39.3600 215.0400 L 40.3200 216.0000 L 40.3200 216.7200 L 40.5600 216.9600 L 40.5600 218.1600 L 40.8000 218.4000 L 40.8000 220.3200 L 41.0400 220.5600 L 41.0400 222.4800 L 56.6400 222.4800 L 56.4000 222.2400 L 56.4000 222.0000 L 55.9200 221.5200 L 55.9200 221.2800 L 55.4400 220.8000 L 55.4400 220.5600 L 54.9600 220.0800 L 54.9600 219.8400 L 54.7200 219.6000 L 54.7200 219.3600 L 54.4800 219.1200 L 54.4800 218.6400 L 54.2400 218.4000 L 54.2400 217.9200 L 54.0000 217.6800 L 54.0000 217.4400 L 53.7600 217.2000 L 53.7600 216.9600 L 53.5200 216.7200 L 53.5200 216.4800 L 53.2800 216.2400 L 53.2800 216.0000 L 53.0400 215.7600 L 53.0400 215.2800 L 52.5600 214.8000 L 52.5600 214.5600 L 52.0800 214.0800 L 52.0800 213.8400 L 51.8400 213.6000 L 51.8400 213.3600 L 51.3600 212.8800 L 51.3600 212.6400 L 50.1600 211.4400 L 50.1600 211.2000 L 49.9200 210.9600 L 49.9200 210.4800 L 50.1600 210.2400 L 50.1600 208.3200 L 50.4000 208.0800 L 50.4000 207.6000 L 50.8800 207.1200 L 51.3600 207.1200 L 52.0800 206.4000 L 52.5600 206.4000 L 52.5600 205.9200 L 52.3200 205.6800 L 52.3200 205.4400 L 52.0800 205.2000 L 52.0800 204.9600 L 52.8000 204.2400 L 52.8000 204.0000 L 54.0000 202.8000 L 54.2400 202.8000 L 54.4800 202.5600 L 55.9200 202.5600 L 56.1600 202.3200 L 56.8800 202.3200 L 57.1200 202.0800 L 57.3600 202.0800 L 57.8400 201.6000 L 57.8400 201.3600 L 58.0800 201.1200 L 58.0800 200.8800 L 58.5600 200.4000 L 58.5600 200.1600 L 58.8000 199.9200 L 59.0400 199.9200 L 59.2800 199.6800 L 59.5200 199.6800 L 60.0000 199.2000 L 60.0000 198.4800 L 60.2400 198.2400 L 60.2400 197.2800 L 60.4800 197.0400 L 60.4800 196.5600 L 60.7200 196.3200 L 60.7200 195.8400 L 60.9600 195.6000 L 60.9600 195.3600 L 61.2000 195.1200 L 61.4400 195.1200 L 61.6800 194.8800 L 61.9200 194.8800 L 63.1200 193.6800 L 63.1200 190.8000 L 63.3600 190.5600 L 63.3600 190.0800 L 63.6000 189.8400 L 63.6000 188.8800 L 63.8400 188.6400 L 63.8400 187.9200 L 64.0800 187.6800 L 64.0800 186.9600 L 64.3200 186.7200 L 64.3200 186.4800 L 64.8000 186.0000 L 64.8000 185.7600 L 65.0400 185.5200 L 65.0400 185.2800 L 65.5200 184.8000 L 65.5200 184.5600 L 65.7600 184.3200 L 65.7600 183.8400 L 66.2400 183.3600 L 66.2400 183.1200 L 66.4800 182.8800 L 66.4800 182.6400 L 66.7200 182.4000 L 66.7200 182.1600 L 66.9600 181.9200 L 66.9600 181.6800 L 67.2000 181.4400 L 67.2000 181.2000 L 67.4400 180.9600 L 67.4400 180.7200 L 67.6800 180.4800 L 67.6800 180.2400 L 67.9200 180.0000 L 67.9200 179.7600 L 68.1600 179.5200 L 68.1600 179.2800 L 68.4000 179.0400 L 68.4000 178.8000 L 68.6400 178.5600 L 68.6400 178.3200 L 68.8800 178.0800 L 68.8800 177.8400 L 69.1200 177.6000 L 69.1200 177.3600 L 69.3600 177.1200 L 69.3600 176.6400 L 69.6000 176.4000 L 69.6000 175.9200 L 69.8400 175.6800 L 69.8400 175.4400 L 70.0800 175.2000 L 70.0800 174.7200 L 70.3200 174.4800 L 70.3200 174.0000 L 70.5600 173.7600 L 70.5600 173.2800 L 70.8000 173.0400 L 70.8000 172.5600 L 71.5200 171.8400 L 72.9600 171.8400 L 73.2000 171.6000 L 74.1600 171.6000 L 74.4000 171.3600 L 74.8800 171.3600 L 75.1200 171.6000 L 75.1200 171.8400 L 74.8800 172.0800 L 74.8800 172.3200 L 74.6400 172.5600 L 74.6400 172.8000 L 73.4400 174.0000 L 73.4400 174.2400 L 72.9600 174.7200 L 72.9600 174.9600 L 72.7200 175.2000 L 72.7200 175.4400 L 71.2800 176.8800 L 71.0400 176.8800 L 70.5600 177.3600 L 70.3200 177.3600 L 70.3200 177.6000 L 70.0800 177.8400 L 70.3200 178.0800 L 70.3200 178.3200 L 70.0800 178.5600 L 70.0800 179.7600 L 70.3200 180.0000 L 70.3200 180.2400 L 70.5600 180.4800 L 70.5600 180.7200 L 70.8000 180.7200 L 71.0400 180.9600 L 71.2800 180.9600 L 71.5200 181.2000 L 73.4400 181.2000 L 73.6800 181.4400 L 74.1600 181.4400 L 74.4000 181.6800 L 74.8800 181.6800 L 75.1200 181.9200 L 75.6000 181.9200 L 75.8400 182.1600 L 77.0400 182.1600 L 77.5200 182.6400 L 77.5200 183.6000 L 77.2800 183.8400 L 77.2800 184.0800 L 77.7600 184.5600 L 78.0000 184.5600 L 78.2400 184.8000 L 78.4800 184.8000 L 78.7200 185.0400 L 78.9600 185.0400 L 79.2000 185.2800 L 79.2000 185.7600 L 78.9600 186.0000 L 78.9600 186.2400 L 78.7200 186.4800 L 78.7200 186.7200 L 78.4800 186.9600 L 78.4800 187.4400 L 78.2400 187.6800 L 78.2400 188.1600 L 78.0000 188.4000 L 78.0000 189.3600 L 77.7600 189.6000 L 77.7600 191.7600 L 77.5200 192.0000 L 77.5200 195.1200 L 77.2800 195.3600 L 77.2800 195.8400 L 77.0400 196.0800 L 77.0400 198.7200 L 77.2800 198.9600 L 77.2800 199.2000 L 77.5200 199.4400 L 77.5200 200.4000 L 77.7600 200.6400 L 77.7600 200.8800 L 77.5200 201.1200 L 77.5200 201.3600 L 77.0400 201.8400 L 77.0400 202.5600 L 77.2800 202.8000 L 77.2800 203.0400 L 77.7600 203.5200 L 77.7600 204.9600 L 77.2800 205.4400 L 77.2800 205.6800 L 76.5600 206.4000 L 76.5600 206.6400 L 75.8400 207.3600 L 75.8400 207.8400 L 75.3600 208.3200 L 75.3600 208.5600 L 74.6400 209.2800 L 74.6400 209.7600 L 74.4000 210.0000 L 74.4000 213.1200 L 74.8800 213.6000 L 75.1200 213.3600 L 75.1200 213.1200 L 76.3200 211.9200 L 76.3200 211.6800 L 77.2800 210.7200 L 77.5200 210.7200 L 77.7600 210.9600 L 77.7600 211.6800 L 77.5200 211.9200 L 77.5200 212.6400 L 77.2800 212.8800 L 77.2800 218.4000 L 77.5200 218.6400 L 77.5200 221.5200 L 77.7600 221.7600 L 77.7600 222.4800 L 150.9600 222.4800 L 150.9600 221.0400 L 150.7200 220.8000 L 150.7200 218.1600 L 150.4800 217.9200 L 150.4800 215.7600 L 150.2400 215.5200 L 150.2400 202.3200 L 150.0000 202.0800 L 150.0000 200.6400 L 149.7600 200.4000 L 149.7600 195.6000 L 149.5200 195.3600 L 149.5200 193.4400 L 149.2800 193.2000 L 149.2800 187.2000 L 149.0400 186.9600 L 149.0400 186.0000 L 148.8000 185.7600 L 148.8000 185.5200 L 148.5600 185.2800 L 148.5600 185.0400 L 146.8800 183.3600 L 146.6400 183.3600 L 145.9200 182.6400 L 145.9200 179.7600 L 145.6800 179.5200 L 145.6800 178.8000 L 145.4400 178.5600 L 145.4400 178.3200 L 145.2000 178.0800 L 145.2000 177.6000 L 144.9600 177.3600 L 144.9600 177.1200 L 144.7200 176.8800 L 144.7200 176.4000 L 144.4800 176.1600 L 144.4800 175.9200 L 144.2400 175.6800 L 144.2400 175.4400 L 144.0000 175.2000 L 144.0000 174.4800 L 143.7600 174.2400 L 143.7600 174.0000 L 142.8000 173.0400 L 142.8000 172.8000 L 142.5600 172.5600 L 142.5600 171.8400 L 142.3200 171.6000 L 142.3200 171.1200 L 141.8400 170.6400 L 141.8400 170.4000 L 141.6000 170.1600 L 141.6000 169.9200 L 141.1200 169.4400 L 141.1200 169.2000 L 140.8800 168.9600 L 140.8800 168.7200 L 140.4000 168.2400 L 140.4000 168.0000 L 139.9200 167.5200 L 139.9200 167.2800 L 139.6800 167.0400 L 139.6800 166.8000 L 139.4400 166.5600 L 139.4400 166.3200 L 139.2000 166.0800 L 139.2000 165.8400 L 139.6800 165.3600 L 139.6800 165.1200 L 139.9200 164.8800 L 139.9200 163.2000 L 139.6800 162.9600 L 139.6800 162.4800 L 139.4400 162.2400 L 139.4400 161.7600 L 139.2000 161.5200 L 139.2000 161.2800 L 138.9600 161.0400 L 138.9600 160.8000 L 138.7200 160.5600 L 138.7200 160.3200 L 138.4800 160.0800 L 138.4800 159.8400 L 138.2400 159.6000 L 138.2400 159.3600 L 138.0000 159.1200 L 138.0000 158.6400 L 137.7600 158.4000 L 137.7600 156.9600 L 137.5200 156.7200 L 137.5200 155.7600 L 137.2800 155.5200 L 137.2800 155.0400 L 137.0400 154.8000 L 137.0400 154.3200 L 136.8000 154.0800 L 136.8000 153.8400 L 136.5600 153.6000 L 136.5600 153.3600 L 136.3200 153.1200 L 136.3200 152.8800 L 135.6000 152.1600 L 135.6000 151.9200 L 135.1200 151.4400 L 135.1200 150.9600 L 134.8800 150.7200 L 134.8800 150.2400 L 134.6400 150.0000 L 134.6400 149.5200 L 134.4000 149.2800 L 134.4000 148.8000 L 134.1600 148.5600 L 134.1600 148.0800 L 133.9200 147.8400 L 133.9200 141.8400 L 133.6800 141.6000 L 133.6800 140.8800 L 133.4400 140.6400 L 133.4400 140.4000 L 133.2000 140.1600 L 133.2000 139.4400 L 132.9600 139.2000 L 132.9600 138.4800 L 132.7200 138.2400 L 132.7200 138.0000 L 132.4800 137.7600 L 132.4800 132.4800 L 132.2400 132.2400 L 132.2400 129.3600 L 132.0000 129.1200 L 132.0000 127.4400 L 131.7600 127.2000 L 131.7600 125.5200 L 131.5200 125.2800 L 131.5200 120.0000 L 131.2800 119.7600 L 131.2800 119.0400 L 131.0400 118.8000 L 131.0400 116.6400 L 131.2800 116.4000 L 131.2800 116.1600 L 131.5200 115.9200 L 131.5200 115.6800 L 131.7600 115.4400 L 131.7600 114.9600 L 132.0000 114.7200 L 132.0000 113.2800 L 132.2400 113.0400 L 132.2400 112.8000 L 132.0000 112.5600 L 132.0000 109.9200 L 131.7600 109.6800 L 131.7600 108.0000 L 132.2400 107.5200 L 132.4800 107.5200 L 132.7200 107.2800 L 132.9600 107.2800 L 133.2000 107.0400 L 133.4400 107.0400 L 133.6800 106.8000 L 133.9200 106.8000 L 134.6400 106.0800 L 134.8800 106.0800 L 135.1200 105.8400 L 135.3600 105.8400 L 135.8400 105.3600 L 135.8400 102.7200 L 136.0800 102.4800 L 136.0800 101.0400 L 136.3200 100.8000 L 136.3200 99.6000 L 136.0800 99.3600 L 136.0800 98.6400 L 135.8400 98.4000 L 135.8400 97.6800 L 135.6000 97.4400 L 135.6000 96.7200 L 135.3600 96.4800 L 135.3600 96.0000 L 135.1200 95.7600 L 135.1200 94.3200 L 135.3600 94.0800 L 135.3600 92.1600 L 135.1200 91.9200 L 135.1200 91.4400 L 134.8800 91.2000 L 134.8800 90.9600 L 135.1200 90.7200 L 135.1200 89.0400 L 134.8800 88.8000 L 134.8800 88.3200 L 134.6400 88.0800 L 134.6400 87.6000 L 134.4000 87.3600 L 134.4000 86.8800 L 134.1600 86.6400 L 134.1600 86.1600 L 133.9200 85.9200 L 133.9200 85.2000 L 133.6800 84.9600 L 133.6800 84.0000 L 133.4400 83.7600 L 133.4400 83.2800 L 132.7200 82.5600 L 132.4800 82.5600 L 132.2400 82.3200 L 132.0000 82.3200 L 131.7600 82.0800 L 131.5200 82.0800 L 131.2800 81.8400 L 131.0400 81.8400 L 130.8000 81.6000 L 130.3200 81.6000 L 130.0800 81.3600 L 129.6000 81.3600 L 129.3600 81.1200 L 129.1200 81.1200 L 128.8800 80.8800 L 128.1600 80.8800 L 127.9200 80.6400 L 127.4400 80.6400 L 127.2000 80.4000 L 126.7200 80.4000 L 126.4800 80.1600 L 125.7600 80.1600 L 125.5200 79.9200 L 124.8000 79.9200 L 124.5600 79.6800 L 123.8400 79.6800 L 123.6000 79.4400 L 122.8800 79.4400 L 122.6400 79.2000 L 121.6800 79.2000 L 121.4400 78.9600 L 120.2400 78.9600 L 120.0000 78.7200 L 118.3200 78.7200 L 118.0800 78.4800 L 117.3600 78.4800 L 117.1200 78.2400 L 116.1600 78.2400 L 115.9200 78.0000 L 106.0800 78.0000 L 105.8400 77.7600 L 101.7600 77.7600 L 101.2800 77.2800 L 101.2800 77.0400 L 101.0400 76.8000 L 101.0400 75.8400 L 100.8000 75.6000 L 100.8000 74.6400 L 100.5600 74.4000 L 100.5600 74.1600 L 100.0800 73.6800 L 100.0800 72.9600 L 100.5600 72.4800 L 100.5600 72.0000 L 100.8000 71.7600 L 100.8000 71.5200 L 100.0800 70.8000 L 100.0800 69.6000 L 100.3200 69.3600 L 100.3200 68.4000 L 100.5600 68.1600 L 100.5600 67.4400 L 100.8000 67.2000 L 100.8000 66.4800 L 101.0400 66.2400 L 101.0400 65.5200 L 101.2800 65.2800 L 101.2800 64.8000 L 101.5200 64.5600 L 101.5200 64.3200 L 101.7600 64.0800 L 101.7600 63.8400 L 102.0000 63.6000 L 102.0000 63.3600 L 102.2400 63.1200 L 102.2400 62.6400 L 102.4800 62.4000 L 102.4800 62.1600 L 102.7200 61.9200 L 102.7200 61.4400 L 102.9600 61.2000 L 102.9600 60.9600 L 103.2000 60.7200 L 103.2000 59.2800 L 103.4400 59.0400 L 103.4400 58.8000 L 103.6800 58.5600 L 103.9200 58.5600 L 104.1600 58.3200 L 104.8800 58.3200 L 105.1200 58.0800 L 104.8800 57.8400 L 104.8800 57.6000 L 103.9200 57.6000 L 103.4400 57.1200 L 103.4400 56.8800 L 103.2000 56.6400 L 103.2000 56.1600 L 102.9600 55.9200 L 102.9600 55.4400 L 102.7200 55.2000 L 102.7200 54.9600 L 102.4800 54.7200 L 102.4800 54.4800 L 102.2400 54.2400 L 102.2400 54.0000 L 102.0000 53.7600 L 102.0000 53.5200 L 101.5200 53.0400 L 101.5200 51.3600 L 101.7600 51.1200 L 101.7600 50.8800 L 102.0000 50.6400 L 102.0000 50.4000 L 102.2400 50.1600 L 102.2400 49.9200 L 102.7200 49.4400 L 102.7200 49.2000 L 103.2000 48.7200 L 103.2000 48.4800 L 103.4400 48.2400 L 103.4400 48.0000 L 103.6800 47.7600 L 103.6800 46.5600 L 103.4400 46.3200 L 102.7200 46.3200 L 102.4800 46.5600 L 102.4800 46.8000 L 102.0000 47.2800 L 102.0000 47.5200 L 101.7600 47.7600 L 101.7600 48.0000 L 101.5200 48.2400 L 101.5200 48.7200 L 101.2800 48.9600 L 101.2800 49.4400 L 101.0400 49.6800 L 101.0400 49.9200 L 100.8000 50.1600 L 100.8000 50.6400 L 100.3200 51.1200 L 100.0800 51.1200 L 99.8400 50.8800 L 99.8400 50.6400 L 99.6000 50.4000 L 99.6000 50.1600 L 99.3600 49.9200 L 99.3600 49.6800 L 98.8800 49.2000 L 98.8800 48.7200 L 98.4000 48.2400 L 98.4000 48.0000 L 97.9200 47.5200 L 97.9200 47.2800 L 96.4800 45.8400 L 96.2400 45.8400 L 95.7600 45.3600 L 95.7600 44.6400 L 96.2400 44.1600 L 96.2400 43.9200 L 96.4800 43.6800 L 96.4800 43.4400 L 96.7200 43.2000 L 96.7200 42.2400 L 96.4800 42.0000 L 96.4800 41.5200 L 96.0000 41.0400 L 96.0000 40.8000 L 95.5200 40.3200 L 95.5200 40.0800 L 93.6000 38.1600 L 93.6000 37.9200 L 92.8800 37.2000 L 92.8800 36.9600 L 92.6400 36.9600 L 90.7200 35.0400 L 90.4800 35.0400 L 90.2400 34.8000 L 90.0000 34.8000 L 89.7600 34.5600 L 89.5200 34.5600 L 89.2800 34.3200 L 89.0400 34.3200 L 88.8000 34.0800 L 88.0800 34.0800 L 87.8400 33.8400 L 87.6000 33.8400 L 87.3600 34.0800 L 87.1200 34.0800 L 86.4000 33.3600 L 86.1600 33.3600 L 84.7200 31.9200 L 84.4800 31.9200 L 84.2400 31.6800 L 84.0000 31.6800 L 83.7600 31.4400 L 83.5200 31.4400 L 83.2800 31.2000 L 83.0400 31.2000 L 82.8000 30.9600 L 82.5600 30.9600 L 82.3200 30.7200 L 82.0800 30.7200 L 81.8400 30.4800 L 81.6000 30.4800 L 81.3600 30.2400 L 80.8800 30.2400 L 80.6400 30.0000 L 80.1600 30.0000 L 79.9200 29.7600 L 79.4400 29.7600 L 79.2000 29.5200 L 78.7200 29.5200 L 78.4800 29.2800 L 77.7600 29.2800 L 77.5200 29.0400 L 77.0400 29.0400 L 76.8000 28.8000 L 76.3200 28.8000 L 76.0800 28.5600 L 71.2800 28.5600 Z M 73.9200 150.4800 L 74.1600 150.2400 L 74.4000 150.2400 L 75.1200 150.9600 L 75.1200 151.2000 L 75.3600 151.4400 L 75.3600 153.1200 L 75.6000 153.3600 L 75.6000 154.3200 L 75.8400 154.5600 L 75.8400 155.0400 L 76.0800 155.2800 L 76.0800 155.7600 L 76.3200 156.0000 L 76.3200 156.4800 L 76.5600 156.7200 L 76.5600 156.9600 L 76.8000 157.2000 L 76.8000 157.4400 L 77.2800 157.9200 L 77.2800 158.1600 L 77.5200 158.4000 L 77.5200 158.8800 L 77.7600 159.1200 L 77.7600 160.0800 L 78.0000 160.3200 L 78.0000 161.0400 L 78.2400 161.2800 L 78.2400 162.4800 L 78.4800 162.7200 L 78.4800 162.9600 L 77.7600 163.6800 L 77.5200 163.6800 L 77.2800 163.9200 L 77.0400 163.9200 L 76.8000 164.1600 L 76.5600 164.1600 L 76.5600 164.4000 L 75.8400 165.1200 L 75.6000 165.1200 L 73.9200 166.8000 L 73.4400 166.8000 L 72.9600 166.3200 L 72.9600 165.8400 L 73.2000 165.6000 L 73.2000 164.8800 L 73.4400 164.6400 L 73.4400 163.9200 L 73.6800 163.6800 L 73.6800 161.0400 L 73.4400 160.8000 L 73.4400 159.6000 L 73.2000 159.3600 L 73.2000 156.4800 L 73.4400 156.2400 L 73.4400 155.0400 L 73.6800 154.8000 L 73.6800 152.1600 L 73.9200 151.9200 L 73.9200 150.4800 Z M 129.6000 113.2800 L 129.8400 113.5200 L 129.8400 114.9600 L 129.6000 115.2000 L 129.6000 115.4400 L 129.3600 115.6800 L 129.1200 115.6800 L 128.8800 115.4400 L 128.8800 114.2400 L 129.1200 114.0000 L 129.1200 113.7600 L 129.6000 113.2800 Z M 130.0800 109.6800 L 130.3200 109.9200 L 130.3200 110.8800 L 129.8400 111.3600 L 129.6000 111.1200 L 129.6000 110.1600 L 130.0800 109.6800 Z" fill="none" stroke="black" stroke-width="0.5" /></svg>